<?xml version="1.0" encoding="utf-8" standalone="no"?>
<!DOCTYPE svg PUBLIC "-//W3C//DTD SVG 1.1//EN"
  "http://www.w3.org/Graphics/SVG/1.1/DTD/svg11.dtd">
<svg xmlns:xlink="http://www.w3.org/1999/xlink" width="432pt" height="288pt" viewBox="0 0 432 288" xmlns="http://www.w3.org/2000/svg" version="1.1">
 <metadata>
  <rdf:RDF xmlns:dc="http://purl.org/dc/elements/1.1/" xmlns:cc="http://creativecommons.org/ns#" xmlns:rdf="http://www.w3.org/1999/02/22-rdf-syntax-ns#">
   <cc:Work>
    <dc:type rdf:resource="http://purl.org/dc/dcmitype/StillImage"/>
    <dc:date>2023-03-27T18:36:02.533041</dc:date>
    <dc:format>image/svg+xml</dc:format>
    <dc:creator>
     <cc:Agent>
      <dc:title>Matplotlib v3.5.2, https://matplotlib.org/</dc:title>
     </cc:Agent>
    </dc:creator>
   </cc:Work>
  </rdf:RDF>
 </metadata>
 <defs>
  <style type="text/css">*{stroke-linejoin: round; stroke-linecap: butt}</style>
 </defs>
 <g id="figure_1">
  <g id="patch_1">
   <path d="M 0 288 
L 432 288 
L 432 0 
L 0 0 
L 0 288 
z
" style="fill: none"/>
  </g>
  <g id="axes_1">
   <g id="patch_2">
    <path d="M 54 252 
L 388.8 252 
L 388.8 34.56 
L 54 34.56 
z
" style="fill: #ffffff"/>
   </g>
   <g id="matplotlib.axis_1">
    <g id="xtick_1">
     <g id="line2d_1">
      <defs>
       <path id="m487b957af0" d="M 0 0 
L 0 3.5 
" style="stroke: #000000; stroke-width: 0.8"/>
      </defs>
      <g>
       <use xlink:href="#m487b957af0" x="69.218182" y="252" style="stroke: #000000; stroke-width: 0.8"/>
      </g>
     </g>
     <g id="text_1">
      <!-- 0 -->
      <g transform="translate(66.718182 265.875)scale(0.1 -0.1)">
       <defs>
        <path id="SimHei-30" d="M 225 2537 
Q 250 3200 412 3587 
Q 575 3975 875 4225 
Q 1175 4475 1612 4475 
Q 2050 4475 2375 4112 
Q 2700 3750 2800 3200 
Q 2900 2650 2862 1937 
Q 2825 1225 2612 775 
Q 2400 325 1975 150 
Q 1550 -25 1125 187 
Q 700 400 525 750 
Q 350 1100 275 1487 
Q 200 1875 225 2537 
z
M 750 2687 
Q 675 2000 800 1462 
Q 925 925 1212 700 
Q 1500 475 1800 612 
Q 2100 750 2237 1162 
Q 2375 1575 2375 2062 
Q 2375 2550 2337 2950 
Q 2300 3350 2112 3675 
Q 1925 4000 1612 4012 
Q 1300 4025 1062 3700 
Q 825 3375 750 2687 
z
" transform="scale(0.015625)"/>
       </defs>
       <use xlink:href="#SimHei-30"/>
      </g>
     </g>
    </g>
    <g id="xtick_2">
     <g id="line2d_2">
      <g>
       <use xlink:href="#m487b957af0" x="107.45482" y="252" style="stroke: #000000; stroke-width: 0.8"/>
      </g>
     </g>
     <g id="text_2">
      <!-- 25 -->
      <g transform="translate(102.45482 265.875)scale(0.1 -0.1)">
       <defs>
        <path id="SimHei-32" d="M 300 250 
Q 325 625 650 925 
Q 975 1225 1475 1862 
Q 1975 2500 2125 2850 
Q 2275 3200 2237 3450 
Q 2200 3700 2000 3862 
Q 1800 4025 1537 4000 
Q 1275 3975 1037 3800 
Q 800 3625 675 3275 
L 200 3350 
Q 400 3925 712 4187 
Q 1025 4450 1450 4475 
Q 1700 4500 1900 4462 
Q 2100 4425 2312 4287 
Q 2525 4150 2662 3875 
Q 2800 3600 2762 3212 
Q 2725 2825 2375 2287 
Q 2025 1750 1025 600 
L 2825 600 
L 2825 150 
L 300 150 
L 300 250 
z
" transform="scale(0.015625)"/>
        <path id="SimHei-35" d="M 550 1325 
Q 725 650 1150 575 
Q 1575 500 1837 662 
Q 2100 825 2212 1087 
Q 2325 1350 2312 1675 
Q 2300 2000 2137 2225 
Q 1975 2450 1725 2525 
Q 1475 2600 1162 2525 
Q 850 2450 650 2175 
L 225 2225 
Q 275 2375 700 4375 
L 2675 4375 
L 2675 3925 
L 1075 3925 
Q 950 3250 825 2850 
Q 1200 3025 1525 3012 
Q 1850 3000 2150 2862 
Q 2450 2725 2587 2487 
Q 2725 2250 2787 2012 
Q 2850 1775 2837 1500 
Q 2825 1225 2725 937 
Q 2625 650 2425 462 
Q 2225 275 1937 162 
Q 1650 50 1275 75 
Q 900 100 562 350 
Q 225 600 100 1200 
L 550 1325 
z
" transform="scale(0.015625)"/>
       </defs>
       <use xlink:href="#SimHei-32"/>
       <use xlink:href="#SimHei-35" x="50"/>
      </g>
     </g>
    </g>
    <g id="xtick_3">
     <g id="line2d_3">
      <g>
       <use xlink:href="#m487b957af0" x="145.691457" y="252" style="stroke: #000000; stroke-width: 0.8"/>
      </g>
     </g>
     <g id="text_3">
      <!-- 50 -->
      <g transform="translate(140.691457 265.875)scale(0.1 -0.1)">
       <use xlink:href="#SimHei-35"/>
       <use xlink:href="#SimHei-30" x="50"/>
      </g>
     </g>
    </g>
    <g id="xtick_4">
     <g id="line2d_4">
      <g>
       <use xlink:href="#m487b957af0" x="183.928095" y="252" style="stroke: #000000; stroke-width: 0.8"/>
      </g>
     </g>
     <g id="text_4">
      <!-- 75 -->
      <g transform="translate(178.928095 265.875)scale(0.1 -0.1)">
       <defs>
        <path id="SimHei-37" d="M 850 150 
Q 1300 2050 2425 3925 
L 275 3925 
L 275 4375 
L 2950 4375 
L 2950 3950 
Q 1775 2050 1400 150 
L 850 150 
z
" transform="scale(0.015625)"/>
       </defs>
       <use xlink:href="#SimHei-37"/>
       <use xlink:href="#SimHei-35" x="50"/>
      </g>
     </g>
    </g>
    <g id="xtick_5">
     <g id="line2d_5">
      <g>
       <use xlink:href="#m487b957af0" x="222.164733" y="252" style="stroke: #000000; stroke-width: 0.8"/>
      </g>
     </g>
     <g id="text_5">
      <!-- 100 -->
      <g transform="translate(214.664733 265.875)scale(0.1 -0.1)">
       <defs>
        <path id="SimHei-31" d="M 1400 3600 
Q 1075 3275 575 2975 
L 575 3450 
Q 1200 3875 1600 4450 
L 1900 4450 
L 1900 150 
L 1400 150 
L 1400 3600 
z
" transform="scale(0.015625)"/>
       </defs>
       <use xlink:href="#SimHei-31"/>
       <use xlink:href="#SimHei-30" x="50"/>
       <use xlink:href="#SimHei-30" x="100"/>
      </g>
     </g>
    </g>
    <g id="xtick_6">
     <g id="line2d_6">
      <g>
       <use xlink:href="#m487b957af0" x="260.40137" y="252" style="stroke: #000000; stroke-width: 0.8"/>
      </g>
     </g>
     <g id="text_6">
      <!-- 125 -->
      <g transform="translate(252.90137 265.875)scale(0.1 -0.1)">
       <use xlink:href="#SimHei-31"/>
       <use xlink:href="#SimHei-32" x="50"/>
       <use xlink:href="#SimHei-35" x="100"/>
      </g>
     </g>
    </g>
    <g id="xtick_7">
     <g id="line2d_7">
      <g>
       <use xlink:href="#m487b957af0" x="298.638008" y="252" style="stroke: #000000; stroke-width: 0.8"/>
      </g>
     </g>
     <g id="text_7">
      <!-- 150 -->
      <g transform="translate(291.138008 265.875)scale(0.1 -0.1)">
       <use xlink:href="#SimHei-31"/>
       <use xlink:href="#SimHei-35" x="50"/>
       <use xlink:href="#SimHei-30" x="100"/>
      </g>
     </g>
    </g>
    <g id="xtick_8">
     <g id="line2d_8">
      <g>
       <use xlink:href="#m487b957af0" x="336.874646" y="252" style="stroke: #000000; stroke-width: 0.8"/>
      </g>
     </g>
     <g id="text_8">
      <!-- 175 -->
      <g transform="translate(329.374646 265.875)scale(0.1 -0.1)">
       <use xlink:href="#SimHei-31"/>
       <use xlink:href="#SimHei-37" x="50"/>
       <use xlink:href="#SimHei-35" x="100"/>
      </g>
     </g>
    </g>
    <g id="xtick_9">
     <g id="line2d_9">
      <g>
       <use xlink:href="#m487b957af0" x="375.111284" y="252" style="stroke: #000000; stroke-width: 0.8"/>
      </g>
     </g>
     <g id="text_9">
      <!-- 200 -->
      <g transform="translate(367.611284 265.875)scale(0.1 -0.1)">
       <use xlink:href="#SimHei-32"/>
       <use xlink:href="#SimHei-30" x="50"/>
       <use xlink:href="#SimHei-30" x="100"/>
      </g>
     </g>
    </g>
    <g id="text_10">
     <!-- 干扰强度 -->
     <g transform="translate(201.4 279.132812)scale(0.1 -0.1)">
      <defs>
       <path id="SimHei-5e72" d="M 4625 4775 
Q 5050 4775 5500 4800 
L 5500 4300 
Q 5050 4325 4625 4325 
L 3475 4325 
L 3475 2525 
L 5225 2525 
Q 5700 2525 6000 2550 
L 6000 2050 
Q 5700 2075 5225 2075 
L 3475 2075 
L 3475 325 
Q 3475 -75 3500 -625 
L 2925 -625 
Q 2950 -100 2950 325 
L 2950 2075 
L 1225 2075 
Q 775 2075 400 2050 
L 400 2550 
Q 775 2525 1225 2525 
L 2950 2525 
L 2950 4325 
L 1925 4325 
Q 1450 4325 925 4300 
L 925 4800 
Q 1450 4775 1800 4775 
L 4625 4775 
z
" transform="scale(0.015625)"/>
       <path id="SimHei-6270" d="M 4575 425 
Q 4575 0 4950 0 
L 5250 0 
Q 5400 0 5450 150 
Q 5500 300 5500 575 
Q 5750 425 6025 375 
Q 5950 50 5862 -175 
Q 5775 -400 5500 -425 
L 4825 -425 
Q 4125 -425 4125 300 
L 4125 3075 
L 3875 3075 
Q 3800 1550 3375 725 
Q 2950 -100 2425 -575 
Q 2275 -375 1950 -275 
Q 2375 25 2687 487 
Q 3000 950 3187 1537 
Q 3375 2125 3400 3075 
Q 3000 3075 2650 3050 
L 2650 3500 
Q 2975 3475 3400 3475 
Q 3425 4225 3375 5125 
Q 3700 5100 3950 5075 
Q 3900 4925 3887 4550 
Q 3875 4175 3875 3475 
L 5050 3475 
Q 5575 3475 5850 3500 
L 5850 3050 
Q 5550 3075 5100 3075 
L 4575 3075 
L 4575 425 
z
M 1775 5150 
Q 1750 4750 1750 3675 
Q 2000 3675 2425 3700 
L 2425 3250 
Q 2000 3275 1750 3275 
L 1750 2275 
Q 2025 2400 2350 2575 
Q 2325 2400 2375 2125 
Q 2175 2050 1750 1825 
L 1750 0 
Q 1750 -325 1512 -450 
Q 1275 -575 825 -650 
Q 800 -350 600 -125 
Q 1275 -125 1275 100 
L 1275 1650 
Q 850 1425 575 1275 
Q 475 1525 325 1750 
Q 675 1850 1275 2100 
L 1275 3275 
Q 725 3275 450 3250 
L 450 3700 
Q 800 3675 1275 3675 
Q 1275 4675 1250 5150 
L 1775 5150 
z
M 5200 3750 
Q 4825 4300 4450 4675 
Q 4650 4800 4800 4975 
Q 5175 4550 5600 4025 
Q 5450 3950 5200 3750 
z
" transform="scale(0.015625)"/>
       <path id="SimHei-5f3a" d="M 2350 25 
Q 3100 75 3950 225 
L 3950 1200 
L 3100 1200 
L 3100 975 
L 2625 975 
Q 2650 1725 2650 2050 
L 2650 2875 
L 3950 2875 
L 3950 3500 
L 2850 3500 
Q 2875 3900 2875 4275 
Q 2875 4675 2850 5025 
L 5525 5025 
Q 5500 4675 5500 4275 
Q 5500 3900 5525 3500 
L 4400 3500 
L 4400 2875 
L 5750 2875 
Q 5725 2575 5725 2075 
Q 5725 1575 5750 1200 
L 4400 1200 
L 4400 275 
L 5250 425 
Q 5150 575 5050 750 
Q 5300 825 5475 925 
Q 5925 200 6175 -250 
Q 5925 -350 5725 -500 
Q 5625 -250 5425 100 
Q 5125 50 4225 -137 
Q 3325 -325 2600 -525 
Q 2525 -200 2350 25 
z
M 600 -25 
Q 1250 -25 1400 50 
Q 1550 125 1575 325 
L 1675 1850 
L 500 1850 
Q 550 2350 562 2762 
Q 575 3175 575 3575 
L 1800 3575 
L 1800 4550 
L 1275 4550 
Q 825 4550 425 4525 
L 425 4950 
Q 850 4925 1275 4925 
L 2275 4925 
Q 2250 4525 2250 4075 
Q 2250 3650 2275 3200 
L 1075 3200 
L 1025 2225 
L 2175 2225 
Q 2125 1775 2100 1425 
L 2025 150 
Q 1975 -250 1637 -387 
Q 1300 -525 850 -600 
Q 775 -275 600 -25 
z
M 5050 3875 
L 5050 4650 
L 3325 4650 
L 3325 3875 
L 5050 3875 
z
M 3950 1575 
L 3950 2500 
L 3100 2500 
L 3100 1575 
L 3950 1575 
z
M 5250 1575 
L 5250 2500 
L 4400 2500 
L 4400 1575 
L 5250 1575 
z
" transform="scale(0.015625)"/>
       <path id="SimHei-5ea6" d="M 1750 1675 
Q 2450 1650 2875 1650 
L 5200 1650 
Q 4975 1250 4650 850 
Q 4325 450 4025 200 
Q 4350 50 4950 -50 
Q 5550 -150 6100 -150 
Q 5950 -300 5825 -650 
Q 5100 -550 4550 -412 
Q 4000 -275 3625 -100 
Q 3100 -325 2587 -462 
Q 2075 -600 1525 -675 
Q 1450 -475 1225 -250 
Q 1675 -250 2250 -125 
Q 2825 0 3250 200 
Q 2825 550 2400 1275 
L 1750 1250 
L 1750 1675 
z
M 2975 5075 
Q 3250 5150 3475 5250 
Q 3625 4975 3775 4525 
L 4700 4525 
Q 4975 4525 5700 4550 
L 5700 4100 
Q 5000 4125 4650 4125 
L 1375 4125 
Q 1375 3000 1350 2312 
Q 1325 1625 1212 950 
Q 1100 275 725 -525 
Q 500 -375 250 -300 
Q 650 400 762 1075 
Q 875 1750 887 2800 
Q 900 3850 875 4525 
L 3200 4525 
Q 3100 4850 2975 5075 
z
M 2475 3300 
Q 2475 3700 2450 3925 
L 2975 3925 
Q 2950 3725 2950 3300 
L 4300 3300 
Q 4300 3700 4275 3950 
L 4800 3950 
Q 4775 3650 4775 3300 
Q 5325 3300 5725 3325 
L 5725 2900 
Q 5350 2925 4775 2925 
Q 4775 2250 4800 1950 
L 2450 1950 
Q 2475 2350 2475 2925 
Q 2175 2925 1600 2900 
L 1600 3325 
Q 2175 3300 2475 3300 
z
M 4300 2350 
L 4300 2925 
L 2950 2925 
L 2950 2350 
L 4300 2350 
z
M 2875 1275 
Q 3200 775 3650 425 
Q 4025 700 4425 1275 
L 2900 1275 
L 2875 1275 
z
" transform="scale(0.015625)"/>
      </defs>
      <use xlink:href="#SimHei-5e72"/>
      <use xlink:href="#SimHei-6270" x="100"/>
      <use xlink:href="#SimHei-5f3a" x="200"/>
      <use xlink:href="#SimHei-5ea6" x="300"/>
     </g>
    </g>
   </g>
   <g id="matplotlib.axis_2">
    <g id="ytick_1">
     <g id="line2d_10">
      <defs>
       <path id="m95be798123" d="M 0 0 
L -3.5 0 
" style="stroke: #000000; stroke-width: 0.8"/>
      </defs>
      <g>
       <use xlink:href="#m95be798123" x="54" y="242.116364" style="stroke: #000000; stroke-width: 0.8"/>
      </g>
     </g>
     <g id="text_11">
      <!-- 0.000 -->
      <g transform="translate(22 245.553864)scale(0.1 -0.1)">
       <defs>
        <path id="SimHei-2e" d="M 1075 125 
L 500 125 
L 500 675 
L 1075 675 
L 1075 125 
z
" transform="scale(0.015625)"/>
       </defs>
       <use xlink:href="#SimHei-30"/>
       <use xlink:href="#SimHei-2e" x="50"/>
       <use xlink:href="#SimHei-30" x="100"/>
       <use xlink:href="#SimHei-30" x="150"/>
       <use xlink:href="#SimHei-30" x="200"/>
      </g>
     </g>
    </g>
    <g id="ytick_2">
     <g id="line2d_11">
      <g>
       <use xlink:href="#m95be798123" x="54" y="206.772791" style="stroke: #000000; stroke-width: 0.8"/>
      </g>
     </g>
     <g id="text_12">
      <!-- 0.005 -->
      <g transform="translate(22 210.210291)scale(0.1 -0.1)">
       <use xlink:href="#SimHei-30"/>
       <use xlink:href="#SimHei-2e" x="50"/>
       <use xlink:href="#SimHei-30" x="100"/>
       <use xlink:href="#SimHei-30" x="150"/>
       <use xlink:href="#SimHei-35" x="200"/>
      </g>
     </g>
    </g>
    <g id="ytick_3">
     <g id="line2d_12">
      <g>
       <use xlink:href="#m95be798123" x="54" y="171.429219" style="stroke: #000000; stroke-width: 0.8"/>
      </g>
     </g>
     <g id="text_13">
      <!-- 0.010 -->
      <g transform="translate(22 174.866719)scale(0.1 -0.1)">
       <use xlink:href="#SimHei-30"/>
       <use xlink:href="#SimHei-2e" x="50"/>
       <use xlink:href="#SimHei-30" x="100"/>
       <use xlink:href="#SimHei-31" x="150"/>
       <use xlink:href="#SimHei-30" x="200"/>
      </g>
     </g>
    </g>
    <g id="ytick_4">
     <g id="line2d_13">
      <g>
       <use xlink:href="#m95be798123" x="54" y="136.085646" style="stroke: #000000; stroke-width: 0.8"/>
      </g>
     </g>
     <g id="text_14">
      <!-- 0.015 -->
      <g transform="translate(22 139.523146)scale(0.1 -0.1)">
       <use xlink:href="#SimHei-30"/>
       <use xlink:href="#SimHei-2e" x="50"/>
       <use xlink:href="#SimHei-30" x="100"/>
       <use xlink:href="#SimHei-31" x="150"/>
       <use xlink:href="#SimHei-35" x="200"/>
      </g>
     </g>
    </g>
    <g id="ytick_5">
     <g id="line2d_14">
      <g>
       <use xlink:href="#m95be798123" x="54" y="100.742074" style="stroke: #000000; stroke-width: 0.8"/>
      </g>
     </g>
     <g id="text_15">
      <!-- 0.020 -->
      <g transform="translate(22 104.179574)scale(0.1 -0.1)">
       <use xlink:href="#SimHei-30"/>
       <use xlink:href="#SimHei-2e" x="50"/>
       <use xlink:href="#SimHei-30" x="100"/>
       <use xlink:href="#SimHei-32" x="150"/>
       <use xlink:href="#SimHei-30" x="200"/>
      </g>
     </g>
    </g>
    <g id="ytick_6">
     <g id="line2d_15">
      <g>
       <use xlink:href="#m95be798123" x="54" y="65.398501" style="stroke: #000000; stroke-width: 0.8"/>
      </g>
     </g>
     <g id="text_16">
      <!-- 0.025 -->
      <g transform="translate(22 68.836001)scale(0.1 -0.1)">
       <use xlink:href="#SimHei-30"/>
       <use xlink:href="#SimHei-2e" x="50"/>
       <use xlink:href="#SimHei-30" x="100"/>
       <use xlink:href="#SimHei-32" x="150"/>
       <use xlink:href="#SimHei-35" x="200"/>
      </g>
     </g>
    </g>
    <g id="text_17">
     <!-- avg of abs(dis2-dis1)/(dis1+1) -->
     <g transform="translate(16.75 218.28)rotate(-90)scale(0.1 -0.1)">
      <defs>
       <path id="SimHei-61" d="M 2875 125 
L 2275 125 
Q 2225 175 2200 262 
Q 2175 350 2175 475 
Q 2000 275 1750 175 
Q 1500 75 1225 75 
Q 825 75 550 275 
Q 275 475 275 850 
Q 275 1225 525 1450 
Q 775 1675 1300 1750 
Q 1650 1800 1912 1875 
Q 2175 1950 2175 2075 
Q 2175 2225 2062 2375 
Q 1950 2525 1575 2525 
Q 1275 2525 1137 2412 
Q 1000 2300 950 2100 
L 400 2100 
Q 450 2500 762 2737 
Q 1075 2975 1575 2975 
Q 2125 2975 2400 2725 
Q 2675 2475 2675 2025 
L 2675 650 
Q 2675 500 2725 375 
Q 2775 250 2875 125 
z
M 2175 1050 
L 2175 1550 
Q 2025 1500 1887 1462 
Q 1750 1425 1425 1375 
Q 1050 1325 937 1200 
Q 825 1075 825 900 
Q 825 750 937 637 
Q 1050 525 1275 525 
Q 1500 525 1762 650 
Q 2025 775 2175 1050 
z
" transform="scale(0.015625)"/>
       <path id="SimHei-76" d="M 2875 2925 
L 1825 75 
L 1275 75 
L 225 2925 
L 750 2925 
L 1525 750 
L 1575 750 
L 2350 2925 
L 2875 2925 
z
" transform="scale(0.015625)"/>
       <path id="SimHei-67" d="M 2975 2500 
Q 2800 2550 2637 2562 
Q 2475 2575 2300 2525 
Q 2375 2450 2425 2337 
Q 2475 2225 2475 2000 
Q 2475 1575 2187 1300 
Q 1900 1025 1475 1025 
Q 1375 1025 1212 1062 
Q 1050 1100 950 1150 
Q 875 1100 850 1050 
Q 825 1000 825 925 
Q 825 800 1000 737 
Q 1175 675 1625 675 
Q 2350 675 2612 475 
Q 2875 275 2875 -25 
Q 2875 -425 2487 -612 
Q 2100 -800 1575 -800 
Q 900 -800 575 -625 
Q 250 -450 250 -150 
Q 250 0 375 150 
Q 500 300 700 400 
Q 550 475 462 587 
Q 375 700 375 875 
Q 375 1025 487 1137 
Q 600 1250 750 1325 
Q 625 1450 550 1625 
Q 475 1800 475 2000 
Q 475 2425 762 2700 
Q 1050 2975 1475 2975 
Q 1700 2975 1862 2912 
Q 2025 2850 2150 2725 
Q 2350 2875 2550 2937 
Q 2750 3000 2975 2975 
L 2975 2500 
z
M 1975 2000 
Q 1975 2250 1850 2400 
Q 1725 2550 1475 2550 
Q 1225 2550 1100 2400 
Q 975 2250 975 2000 
Q 975 1750 1100 1600 
Q 1225 1450 1475 1450 
Q 1725 1450 1850 1600 
Q 1975 1750 1975 2000 
z
M 2400 -75 
Q 2400 25 2287 125 
Q 2175 225 1725 225 
Q 1625 225 1450 237 
Q 1275 250 1050 275 
Q 850 200 775 100 
Q 700 0 700 -100 
Q 700 -250 900 -350 
Q 1100 -450 1600 -450 
Q 2025 -450 2212 -337 
Q 2400 -225 2400 -75 
z
" transform="scale(0.015625)"/>
       <path id="SimHei-20" transform="scale(0.015625)"/>
       <path id="SimHei-6f" d="M 2925 1525 
Q 2925 875 2525 475 
Q 2125 75 1575 75 
Q 1025 75 625 475 
Q 225 875 225 1525 
Q 225 2175 625 2575 
Q 1025 2975 1575 2975 
Q 2125 2975 2525 2575 
Q 2925 2175 2925 1525 
z
M 2375 1525 
Q 2375 2025 2125 2275 
Q 1875 2525 1575 2525 
Q 1275 2525 1025 2275 
Q 775 2025 775 1525 
Q 775 1025 1025 775 
Q 1275 525 1575 525 
Q 1875 525 2125 775 
Q 2375 1025 2375 1525 
z
" transform="scale(0.015625)"/>
       <path id="SimHei-66" d="M 2850 3825 
Q 2725 3900 2550 3950 
Q 2375 4000 2100 4000 
Q 1825 4000 1725 3862 
Q 1625 3725 1625 3525 
L 1625 2925 
L 2650 2925 
L 2650 2525 
L 1625 2525 
L 1625 125 
L 1125 125 
L 1125 2525 
L 275 2525 
L 275 2925 
L 1125 2925 
L 1125 3500 
Q 1125 3950 1400 4200 
Q 1675 4450 2125 4450 
Q 2400 4450 2562 4412 
Q 2725 4375 2850 4325 
L 2850 3825 
z
" transform="scale(0.015625)"/>
       <path id="SimHei-62" d="M 2825 1525 
Q 2825 800 2475 437 
Q 2125 75 1625 75 
Q 1350 75 1150 175 
Q 950 275 800 500 
L 800 125 
L 300 125 
L 300 4400 
L 800 4400 
L 800 2550 
Q 950 2775 1150 2887 
Q 1350 3000 1625 3000 
Q 2125 3000 2475 2625 
Q 2825 2250 2825 1525 
z
M 2275 1525 
Q 2275 2000 2087 2275 
Q 1900 2550 1525 2550 
Q 1225 2550 1012 2275 
Q 800 2000 800 1525 
Q 800 1050 1012 787 
Q 1225 525 1525 525 
Q 1900 525 2087 787 
Q 2275 1050 2275 1525 
z
" transform="scale(0.015625)"/>
       <path id="SimHei-73" d="M 2750 900 
Q 2750 500 2437 287 
Q 2125 75 1650 75 
Q 1050 75 725 312 
Q 400 550 400 1000 
L 900 1000 
Q 900 700 1112 600 
Q 1325 500 1625 500 
Q 1925 500 2075 612 
Q 2225 725 2225 900 
Q 2225 1025 2100 1150 
Q 1975 1275 1475 1350 
Q 900 1425 687 1637 
Q 475 1850 475 2200 
Q 475 2500 762 2737 
Q 1050 2975 1600 2975 
Q 2100 2975 2387 2750 
Q 2675 2525 2675 2150 
L 2175 2150 
Q 2175 2375 2012 2462 
Q 1850 2550 1600 2550 
Q 1275 2550 1137 2437 
Q 1000 2325 1000 2175 
Q 1000 2000 1125 1900 
Q 1250 1800 1650 1750 
Q 2300 1650 2525 1437 
Q 2750 1225 2750 900 
z
" transform="scale(0.015625)"/>
       <path id="SimHei-28" d="M 2975 -200 
L 2700 -475 
Q 2075 125 1762 775 
Q 1450 1425 1450 2250 
Q 1450 3075 1762 3725 
Q 2075 4375 2700 5000 
L 2975 4725 
Q 2400 4175 2112 3587 
Q 1825 3000 1825 2250 
Q 1825 1500 2112 912 
Q 2400 325 2975 -200 
z
" transform="scale(0.015625)"/>
       <path id="SimHei-64" d="M 2750 125 
L 2250 125 
L 2250 500 
Q 2100 275 1900 175 
Q 1700 75 1425 75 
Q 925 75 575 437 
Q 225 800 225 1525 
Q 225 2250 575 2625 
Q 925 3000 1425 3000 
Q 1700 3000 1900 2887 
Q 2100 2775 2250 2550 
L 2250 4400 
L 2750 4400 
L 2750 125 
z
M 2250 1525 
Q 2250 2000 2037 2275 
Q 1825 2550 1525 2550 
Q 1150 2550 962 2275 
Q 775 2000 775 1525 
Q 775 1050 962 787 
Q 1150 525 1525 525 
Q 1825 525 2037 787 
Q 2250 1050 2250 1525 
z
" transform="scale(0.015625)"/>
       <path id="SimHei-69" d="M 1800 3725 
L 1300 3725 
L 1300 4375 
L 1800 4375 
L 1800 3725 
z
M 1800 125 
L 1300 125 
L 1300 2925 
L 1800 2925 
L 1800 125 
z
" transform="scale(0.015625)"/>
       <path id="SimHei-2d" d="M 2975 2125 
L 125 2125 
L 125 2525 
L 2975 2525 
L 2975 2125 
z
" transform="scale(0.015625)"/>
       <path id="SimHei-29" d="M 1675 2250 
Q 1675 1425 1362 775 
Q 1050 125 425 -475 
L 150 -200 
Q 725 325 1012 912 
Q 1300 1500 1300 2250 
Q 1300 3000 1012 3587 
Q 725 4175 150 4725 
L 425 5000 
Q 1050 4375 1362 3725 
Q 1675 3075 1675 2250 
z
" transform="scale(0.015625)"/>
       <path id="SimHei-2f" d="M 3000 4550 
L 350 -175 
L 100 -25 
L 2750 4700 
L 3000 4550 
z
" transform="scale(0.015625)"/>
       <path id="SimHei-2b" d="M 3000 2125 
L 1775 2125 
L 1775 900 
L 1350 900 
L 1350 2125 
L 125 2125 
L 125 2525 
L 1350 2525 
L 1350 3750 
L 1775 3750 
L 1775 2525 
L 3000 2525 
L 3000 2125 
z
" transform="scale(0.015625)"/>
      </defs>
      <use xlink:href="#SimHei-61"/>
      <use xlink:href="#SimHei-76" x="50"/>
      <use xlink:href="#SimHei-67" x="100"/>
      <use xlink:href="#SimHei-20" x="150"/>
      <use xlink:href="#SimHei-6f" x="200"/>
      <use xlink:href="#SimHei-66" x="250"/>
      <use xlink:href="#SimHei-20" x="300"/>
      <use xlink:href="#SimHei-61" x="350"/>
      <use xlink:href="#SimHei-62" x="400"/>
      <use xlink:href="#SimHei-73" x="450"/>
      <use xlink:href="#SimHei-28" x="500"/>
      <use xlink:href="#SimHei-64" x="550"/>
      <use xlink:href="#SimHei-69" x="600"/>
      <use xlink:href="#SimHei-73" x="650"/>
      <use xlink:href="#SimHei-32" x="700"/>
      <use xlink:href="#SimHei-2d" x="750"/>
      <use xlink:href="#SimHei-64" x="800"/>
      <use xlink:href="#SimHei-69" x="850"/>
      <use xlink:href="#SimHei-73" x="900"/>
      <use xlink:href="#SimHei-31" x="950"/>
      <use xlink:href="#SimHei-29" x="1000"/>
      <use xlink:href="#SimHei-2f" x="1050"/>
      <use xlink:href="#SimHei-28" x="1100"/>
      <use xlink:href="#SimHei-64" x="1150"/>
      <use xlink:href="#SimHei-69" x="1200"/>
      <use xlink:href="#SimHei-73" x="1250"/>
      <use xlink:href="#SimHei-31" x="1300"/>
      <use xlink:href="#SimHei-2b" x="1350"/>
      <use xlink:href="#SimHei-31" x="1400"/>
      <use xlink:href="#SimHei-29" x="1450"/>
     </g>
    </g>
   </g>
   <g id="line2d_16">
    <path d="M 69.218182 242.116364 
L 78.394975 240.585675 
L 79.92444 240.133385 
L 82.983371 239.810297 
L 92.160164 238.230543 
L 95.219095 237.628953 
L 96.748561 237.581768 
L 101.336958 236.466119 
L 102.866423 236.309503 
L 104.395889 235.487061 
L 105.925354 235.710492 
L 112.043216 234.772863 
L 113.572682 234.155108 
L 115.102147 233.874125 
L 116.631613 234.190097 
L 118.161078 233.332117 
L 119.690544 233.634685 
L 121.220009 233.022627 
L 124.27894 232.136473 
L 127.337871 232.376978 
L 128.867337 231.634299 
L 130.396802 231.428733 
L 131.926268 231.364958 
L 133.455733 231.112785 
L 134.985199 230.608901 
L 136.514664 230.85265 
L 138.04413 229.942895 
L 139.573595 230.228027 
L 141.103061 229.920596 
L 144.161992 228.574937 
L 145.691457 228.500596 
L 148.750388 228.549161 
L 150.279854 227.840093 
L 151.809319 226.870031 
L 153.338785 227.058818 
L 154.86825 226.746897 
L 156.397716 226.771352 
L 157.927181 227.724028 
L 159.456647 226.780029 
L 160.986112 225.989804 
L 162.515578 226.166016 
L 165.574509 225.309142 
L 167.103974 224.27185 
L 168.63344 223.988316 
L 170.162905 224.642366 
L 171.692371 223.892105 
L 173.221836 224.005757 
L 174.751302 223.76154 
L 176.280767 222.929252 
L 179.339698 222.437669 
L 180.869164 222.258001 
L 182.39863 222.346495 
L 183.928095 221.843387 
L 185.457561 222.579223 
L 186.987026 221.34644 
L 188.516492 221.037289 
L 190.045957 220.919608 
L 191.575423 220.308648 
L 193.104888 221.738197 
L 194.634354 219.722276 
L 196.163819 219.394344 
L 197.693285 219.769238 
L 199.22275 219.302191 
L 200.752216 217.679957 
L 202.281681 218.560745 
L 203.811147 218.066521 
L 205.340612 218.423371 
L 206.870078 216.972001 
L 208.399543 216.242389 
L 209.929009 217.266281 
L 211.458474 216.827411 
L 212.98794 217.244663 
L 214.517405 215.52141 
L 216.046871 217.366487 
L 217.576336 214.814386 
L 219.105802 216.083794 
L 220.635267 215.612454 
L 222.164733 213.955456 
L 223.694198 214.605689 
L 225.223664 214.139177 
L 226.753129 214.84358 
L 228.282595 212.913291 
L 229.81206 215.893588 
L 231.341526 212.712603 
L 232.870991 214.238537 
L 234.400457 212.496074 
L 235.929922 211.778519 
L 237.459388 211.956901 
L 238.988853 212.426357 
L 240.518319 211.186443 
L 242.047784 211.563247 
L 243.57725 211.337641 
L 245.106715 211.440157 
L 246.636181 210.489778 
L 248.165646 208.780712 
L 249.695112 210.294688 
L 251.224577 211.172452 
L 252.754043 209.012215 
L 254.283508 208.597961 
L 255.812974 208.559095 
L 257.342439 209.581354 
L 258.871905 208.683086 
L 260.40137 210.145215 
L 261.930836 206.89208 
L 263.460302 208.127223 
L 264.989767 207.405404 
L 266.519233 205.699965 
L 268.048698 206.328049 
L 269.578164 207.454449 
L 271.107629 206.147764 
L 272.637095 207.64277 
L 274.16656 205.014251 
L 275.696026 204.778055 
L 277.225491 205.261038 
L 278.754957 205.32662 
L 280.284422 207.07629 
L 281.813888 203.304587 
L 283.343353 203.701587 
L 284.872819 203.934416 
L 286.402284 202.757871 
L 287.93175 203.602605 
L 289.461215 202.52552 
L 290.990681 201.042954 
L 292.520146 201.624734 
L 294.049612 202.530392 
L 297.108543 201.604094 
L 298.638008 200.580908 
L 300.167474 200.36444 
L 301.696939 201.35447 
L 303.226405 200.380584 
L 304.75587 198.834513 
L 306.285336 200.321528 
L 307.814801 198.090749 
L 309.344267 199.253519 
L 310.873732 198.336796 
L 312.403198 200.141854 
L 313.932663 195.250358 
L 315.462129 197.450519 
L 316.991594 197.648395 
L 318.52106 199.00333 
L 320.050525 195.830801 
L 321.579991 196.93416 
L 323.109456 197.887585 
L 324.638922 195.348295 
L 326.168387 197.167169 
L 329.227318 193.088972 
L 330.756784 195.82359 
L 332.286249 194.448264 
L 333.815715 195.851258 
L 335.34518 192.774096 
L 336.874646 192.851063 
L 338.404111 194.902073 
L 339.933577 196.405441 
L 341.463042 190.930238 
L 342.992508 191.484434 
L 344.521974 192.278829 
L 346.051439 193.558085 
L 347.580905 188.353542 
L 349.11037 190.950417 
L 350.639836 188.340415 
L 352.169301 189.07735 
L 353.698767 189.502907 
L 355.228232 189.592769 
L 356.757698 188.438474 
L 358.287163 185.769942 
L 359.816629 188.848845 
L 361.346094 187.977734 
L 364.405025 188.003685 
L 365.934491 186.7462 
L 367.463956 188.443697 
L 368.993422 187.99832 
L 370.522887 188.876578 
L 372.052353 187.814675 
L 373.581818 185.339715 
L 373.581818 185.339715 
" clip-path="url(#pee4310a662)" style="fill: none; stroke: #1f77b4; stroke-width: 2; stroke-linecap: square"/>
   </g>
   <g id="line2d_17">
    <path d="M 69.218182 242.116364 
L 70.747647 238.110139 
L 73.806578 231.459436 
L 75.336044 229.030771 
L 76.865509 228.38475 
L 78.394975 225.635809 
L 79.92444 224.332235 
L 82.983371 214.707548 
L 84.512837 215.561896 
L 86.042302 216.904578 
L 87.571768 212.418237 
L 89.101233 212.387204 
L 90.630699 208.796268 
L 92.160164 203.30856 
L 93.68963 176.253233 
L 95.219095 204.433802 
L 96.748561 203.725233 
L 98.278026 203.910374 
L 99.807492 197.567547 
L 101.336958 199.792176 
L 102.866423 192.051139 
L 104.395889 196.917833 
L 105.925354 197.953601 
L 107.45482 197.369997 
L 108.984285 194.942706 
L 110.513751 194.548973 
L 112.043216 188.196993 
L 113.572682 193.325983 
L 115.102147 187.860735 
L 116.631613 187.852637 
L 118.161078 184.711443 
L 119.690544 183.733546 
L 121.220009 179.921685 
L 122.749475 178.793721 
L 124.27894 180.015823 
L 125.808406 185.001572 
L 127.337871 177.709371 
L 128.867337 182.705343 
L 130.396802 178.67857 
L 131.926268 175.910898 
L 133.455733 180.526155 
L 134.985199 169.983954 
L 136.514664 178.308892 
L 138.04413 175.130127 
L 139.573595 176.34001 
L 141.103061 174.060843 
L 142.632526 167.745944 
L 144.161992 171.626824 
L 145.691457 172.450481 
L 147.220923 167.340541 
L 148.750388 172.394504 
L 150.279854 170.342263 
L 151.809319 163.863879 
L 153.338785 170.289462 
L 154.86825 163.506642 
L 156.397716 166.045004 
L 157.927181 162.726407 
L 159.456647 154.877032 
L 160.986112 158.275705 
L 162.515578 153.643824 
L 164.045043 159.527963 
L 165.574509 138.690429 
L 167.103974 157.981228 
L 168.63344 155.755723 
L 170.162905 155.78705 
L 171.692371 154.743755 
L 173.221836 157.000093 
L 176.280767 156.996402 
L 177.810233 138.884416 
L 179.339698 136.812359 
L 180.869164 149.016864 
L 182.39863 139.132504 
L 183.928095 152.808542 
L 185.457561 149.408205 
L 186.987026 127.676335 
L 188.516492 134.807668 
L 190.045957 136.751924 
L 191.575423 120.156658 
L 193.104888 144.656468 
L 194.634354 143.375374 
L 196.163819 144.682368 
L 197.693285 136.554671 
L 199.22275 133.312601 
L 200.752216 129.31258 
L 202.281681 143.227194 
L 203.811147 135.309973 
L 205.340612 126.133329 
L 206.870078 124.767007 
L 208.399543 136.375051 
L 209.929009 126.866103 
L 211.458474 140.620978 
L 212.98794 140.881118 
L 214.517405 127.705032 
L 216.046871 126.884046 
L 217.576336 120.240826 
L 219.105802 129.056715 
L 220.635267 103.6024 
L 222.164733 119.278355 
L 223.694198 128.036368 
L 225.223664 130.835327 
L 226.753129 132.430052 
L 228.282595 126.789295 
L 229.81206 131.121365 
L 231.341526 125.299597 
L 232.870991 123.694114 
L 234.400457 127.705033 
L 235.929922 108.994729 
L 237.459388 121.688923 
L 238.988853 123.049114 
L 240.518319 114.146845 
L 242.047784 122.263822 
L 243.57725 101.363986 
L 245.106715 115.689958 
L 246.636181 104.118706 
L 248.165646 125.174332 
L 249.695112 105.358183 
L 251.224577 112.211706 
L 252.754043 123.92456 
L 254.283508 119.0294 
L 255.812974 112.163991 
L 257.342439 119.586382 
L 258.871905 98.236578 
L 260.40137 120.088151 
L 261.930836 103.587573 
L 263.460302 118.088881 
L 264.989767 117.170641 
L 266.519233 104.258664 
L 268.048698 103.728278 
L 269.578164 95.866433 
L 271.107629 104.967353 
L 272.637095 117.274818 
L 274.16656 93.003809 
L 275.696026 103.075778 
L 277.225491 97.095053 
L 278.754957 109.66849 
L 280.284422 98.215985 
L 281.813888 107.445347 
L 283.343353 104.006682 
L 284.872819 88.563186 
L 286.402284 79.210051 
L 287.93175 105.855864 
L 289.461215 93.15073 
L 290.990681 85.976765 
L 292.520146 96.61689 
L 294.049612 82.617164 
L 295.579077 87.684827 
L 297.108543 82.533361 
L 298.638008 92.869555 
L 300.167474 80.977045 
L 303.226405 102.581511 
L 304.75587 90.073721 
L 306.285336 88.918251 
L 307.814801 90.828 
L 309.344267 99.308418 
L 310.873732 75.338154 
L 312.403198 90.919699 
L 313.932663 89.050633 
L 315.462129 90.945862 
L 316.991594 93.921004 
L 318.52106 83.053667 
L 320.050525 68.10635 
L 323.109456 94.106057 
L 324.638922 97.876341 
L 326.168387 90.221817 
L 327.697853 69.839282 
L 329.227318 74.643484 
L 330.756784 83.711089 
L 332.286249 84.011493 
L 333.815715 71.372988 
L 335.34518 61.810926 
L 338.404111 89.499591 
L 339.933577 87.26741 
L 341.463042 65.631811 
L 342.992508 79.498814 
L 344.521974 71.507284 
L 346.051439 81.889695 
L 347.580905 67.993533 
L 349.11037 79.762237 
L 350.639836 67.628046 
L 352.169301 83.959834 
L 353.698767 59.429638 
L 355.228232 69.237993 
L 356.757698 52.477301 
L 358.287163 83.165047 
L 359.816629 65.790864 
L 361.346094 59.445609 
L 362.87556 75.66628 
L 364.405025 77.22829 
L 365.934491 73.929227 
L 367.463956 79.628148 
L 368.993422 76.29948 
L 370.522887 44.443636 
L 372.052353 56.058451 
L 373.581818 62.468132 
L 373.581818 62.468132 
" clip-path="url(#pee4310a662)" style="fill: none; stroke: #ff7f0e; stroke-width: 3; stroke-linecap: square"/>
   </g>
   <g id="line2d_18">
    <path d="M 69.218182 242.116364 
L 72.277113 241.418426 
L 73.806578 240.970108 
L 75.336044 240.7597 
L 81.453906 239.242579 
L 82.983371 238.987465 
L 89.101233 237.451356 
L 90.630699 236.95637 
L 92.160164 236.86519 
L 93.68963 236.633347 
L 95.219095 235.959848 
L 96.748561 235.856431 
L 101.336958 234.903864 
L 102.866423 234.042042 
L 104.395889 233.489772 
L 105.925354 233.283502 
L 107.45482 233.505076 
L 110.513751 232.797364 
L 112.043216 232.648007 
L 113.572682 231.44862 
L 115.102147 231.274608 
L 116.631613 231.578233 
L 118.161078 230.624459 
L 121.220009 229.980135 
L 122.749475 228.861296 
L 124.27894 229.08731 
L 127.337871 229.08 
L 128.867337 228.066758 
L 130.396802 227.508882 
L 131.926268 228.09552 
L 133.455733 227.08776 
L 136.514664 226.641531 
L 138.04413 225.973853 
L 139.573595 226.507841 
L 141.103061 225.527199 
L 142.632526 224.763513 
L 144.161992 223.07509 
L 145.691457 223.933348 
L 147.220923 223.48651 
L 148.750388 223.839082 
L 150.279854 223.533502 
L 151.809319 222.111756 
L 153.338785 222.433976 
L 154.86825 221.601154 
L 156.397716 221.876253 
L 157.927181 221.766997 
L 159.456647 221.796264 
L 160.986112 221.216061 
L 162.515578 221.120734 
L 164.045043 220.706761 
L 165.574509 220.043522 
L 167.103974 217.266045 
L 168.63344 217.596802 
L 170.162905 218.275642 
L 171.692371 218.29966 
L 173.221836 217.896466 
L 174.751302 218.031727 
L 176.280767 215.641472 
L 177.810233 215.815125 
L 179.339698 214.769717 
L 180.869164 215.41959 
L 182.39863 216.532865 
L 183.928095 214.673715 
L 185.457561 215.470505 
L 186.987026 213.787414 
L 188.516492 214.252404 
L 190.045957 214.445955 
L 191.575423 213.163363 
L 193.104888 214.841762 
L 194.634354 211.2781 
L 196.163819 211.266043 
L 197.693285 212.079121 
L 199.22275 211.090617 
L 200.752216 209.118439 
L 202.281681 212.930155 
L 203.811147 210.185823 
L 205.340612 210.621166 
L 206.870078 207.563629 
L 208.399543 208.409401 
L 209.929009 209.587134 
L 211.458474 208.503747 
L 212.98794 208.798769 
L 214.517405 207.109476 
L 216.046871 207.520404 
L 217.576336 206.532824 
L 219.105802 208.68173 
L 220.635267 206.226221 
L 222.164733 204.44709 
L 223.694198 205.305263 
L 225.223664 204.514394 
L 226.753129 205.138996 
L 228.282595 203.344991 
L 229.81206 206.561558 
L 231.341526 203.234386 
L 232.870991 204.070931 
L 234.400457 202.649946 
L 235.929922 202.129451 
L 237.459388 203.125931 
L 238.988853 202.095328 
L 240.518319 201.887774 
L 242.047784 201.226069 
L 245.106715 201.270284 
L 246.636181 200.966467 
L 248.165646 198.391365 
L 249.695112 199.422625 
L 251.224577 199.336318 
L 252.754043 197.816172 
L 254.283508 198.587404 
L 255.812974 198.311393 
L 257.342439 198.968902 
L 258.871905 197.343998 
L 260.40137 198.162016 
L 261.930836 198.477574 
L 263.460302 195.361214 
L 264.989767 198.235787 
L 266.519233 195.218259 
L 268.048698 195.604419 
L 269.578164 194.665983 
L 271.107629 194.042227 
L 272.637095 194.31235 
L 274.16656 192.414977 
L 275.696026 191.86344 
L 277.225491 194.326037 
L 278.754957 192.685202 
L 280.284422 194.134443 
L 281.813888 190.888988 
L 283.343353 191.467941 
L 284.872819 189.865437 
L 286.402284 191.744539 
L 287.93175 188.48194 
L 289.461215 190.929453 
L 290.990681 187.611078 
L 292.520146 188.748156 
L 294.049612 190.845376 
L 295.579077 187.431016 
L 297.108543 190.396191 
L 298.638008 187.019586 
L 300.167474 187.757815 
L 301.696939 188.811313 
L 303.226405 188.642209 
L 304.75587 186.476636 
L 306.285336 187.760523 
L 307.814801 184.827497 
L 309.344267 183.595327 
L 310.873732 184.789676 
L 312.403198 185.519751 
L 313.932663 181.579761 
L 315.462129 185.181481 
L 316.991594 184.59964 
L 318.52106 186.200701 
L 320.050525 181.643266 
L 321.579991 182.008279 
L 323.109456 184.059863 
L 324.638922 181.681217 
L 326.168387 184.609911 
L 327.697853 179.343183 
L 329.227318 179.22241 
L 330.756784 182.398548 
L 332.286249 179.282486 
L 333.815715 181.41202 
L 335.34518 179.179559 
L 336.874646 180.536433 
L 338.404111 179.745277 
L 339.933577 179.80985 
L 341.463042 177.510178 
L 342.992508 172.68166 
L 344.521974 178.161642 
L 346.051439 178.57958 
L 347.580905 175.221863 
L 349.11037 177.933184 
L 350.639836 170.98348 
L 352.169301 171.860403 
L 353.698767 173.685282 
L 355.228232 174.400601 
L 356.757698 172.902888 
L 358.287163 169.252867 
L 359.816629 172.545766 
L 361.346094 173.212465 
L 362.87556 174.244026 
L 364.405025 172.570284 
L 365.934491 170.131906 
L 367.463956 171.978698 
L 368.993422 170.359896 
L 370.522887 173.58578 
L 372.052353 170.668887 
L 373.581818 171.269515 
L 373.581818 171.269515 
" clip-path="url(#pee4310a662)" style="fill: none; stroke: #2ca02c; stroke-width: 2; stroke-linecap: square"/>
   </g>
   <g id="line2d_19">
    <path d="M 69.218182 242.116364 
L 72.277113 235.129261 
L 73.806578 232.565651 
L 75.336044 230.808106 
L 76.865509 230.090595 
L 78.394975 226.020387 
L 79.92444 225.148371 
L 81.453906 222.784915 
L 82.983371 217.764983 
L 84.512837 218.09235 
L 86.042302 219.140818 
L 87.571768 214.097283 
L 89.101233 214.428014 
L 92.160164 208.128545 
L 93.68963 196.647936 
L 95.219095 207.546619 
L 96.748561 206.233726 
L 98.278026 206.589871 
L 99.807492 199.975544 
L 101.336958 202.709349 
L 102.866423 196.195273 
L 104.395889 199.96052 
L 105.925354 199.386438 
L 107.45482 201.208363 
L 108.984285 199.759601 
L 110.513751 198.617931 
L 112.043216 192.301059 
L 113.572682 193.806375 
L 116.631613 189.554797 
L 118.161078 188.977428 
L 119.690544 185.827316 
L 121.220009 187.461851 
L 122.749475 184.761957 
L 124.27894 186.904141 
L 125.808406 185.610998 
L 127.337871 181.962006 
L 128.867337 184.642339 
L 130.396802 183.155858 
L 131.926268 183.027597 
L 133.455733 183.316631 
L 134.985199 180.080518 
L 136.514664 180.499553 
L 138.04413 177.620031 
L 139.573595 178.658199 
L 141.103061 177.928696 
L 142.632526 179.055264 
L 144.161992 177.173592 
L 145.691457 174.883893 
L 147.220923 170.360051 
L 148.750388 176.287855 
L 150.279854 174.498409 
L 151.809319 167.188862 
L 153.338785 173.370556 
L 154.86825 172.127902 
L 156.397716 172.197689 
L 157.927181 170.059782 
L 159.456647 160.960296 
L 160.986112 165.015536 
L 162.515578 161.213299 
L 164.045043 168.840898 
L 165.574509 151.298367 
L 167.103974 162.148111 
L 168.63344 163.075161 
L 171.692371 160.583636 
L 173.221836 163.812077 
L 174.751302 159.503213 
L 176.280767 162.419624 
L 177.810233 151.587516 
L 179.339698 147.960692 
L 180.869164 151.985461 
L 182.39863 151.362257 
L 183.928095 155.836206 
L 185.457561 154.315408 
L 186.987026 136.416186 
L 188.516492 145.649099 
L 190.045957 143.733764 
L 191.575423 132.228784 
L 193.104888 151.536013 
L 194.634354 149.89634 
L 196.163819 151.114438 
L 197.693285 142.98013 
L 199.22275 139.559779 
L 200.752216 141.799605 
L 202.281681 152.94821 
L 203.811147 142.71121 
L 205.340612 137.001426 
L 206.870078 134.522577 
L 208.399543 140.746012 
L 209.929009 138.844167 
L 211.458474 140.76316 
L 212.98794 146.687985 
L 214.517405 139.586233 
L 216.046871 140.18663 
L 217.576336 134.422029 
L 219.105802 135.577561 
L 220.635267 115.355301 
L 222.164733 134.472177 
L 223.694198 133.49886 
L 225.223664 133.855509 
L 226.753129 138.668417 
L 228.282595 135.650256 
L 229.81206 130.926898 
L 231.341526 130.307287 
L 234.400457 135.610432 
L 235.929922 120.59281 
L 237.459388 124.919825 
L 238.988853 128.018752 
L 240.518319 121.513938 
L 242.047784 129.319248 
L 243.57725 115.525589 
L 245.106715 124.438986 
L 246.636181 117.376315 
L 248.165646 129.729954 
L 249.695112 119.630356 
L 251.224577 119.643522 
L 252.754043 133.06255 
L 254.283508 129.915124 
L 255.812974 117.728384 
L 257.342439 128.993244 
L 258.871905 113.721147 
L 260.40137 120.670752 
L 261.930836 112.352341 
L 263.460302 126.139516 
L 264.989767 123.228367 
L 266.519233 112.102602 
L 268.048698 112.707491 
L 269.578164 108.351304 
L 271.107629 115.044741 
L 272.637095 123.383786 
L 274.16656 107.887359 
L 275.696026 109.509127 
L 277.225491 106.436539 
L 278.754957 112.85414 
L 280.284422 115.725877 
L 281.813888 110.632374 
L 283.343353 109.008136 
L 284.872819 105.649568 
L 286.402284 96.228256 
L 287.93175 115.884321 
L 289.461215 104.92188 
L 290.990681 104.341581 
L 292.520146 109.711148 
L 294.049612 96.439679 
L 295.579077 103.668367 
L 297.108543 92.823804 
L 298.638008 102.436455 
L 300.167474 91.823311 
L 301.696939 106.374134 
L 303.226405 108.585322 
L 304.75587 97.439985 
L 306.285336 112.083216 
L 307.814801 107.001172 
L 309.344267 106.792092 
L 310.873732 92.972832 
L 312.403198 105.305104 
L 313.932663 101.038068 
L 315.462129 95.049168 
L 316.991594 99.814302 
L 320.050525 87.43331 
L 321.579991 90.957836 
L 323.109456 105.646052 
L 324.638922 100.620715 
L 326.168387 98.333031 
L 329.227318 82.194506 
L 330.756784 95.116472 
L 332.286249 89.139999 
L 333.815715 84.021145 
L 335.34518 82.209501 
L 336.874646 96.452357 
L 338.404111 99.863926 
L 339.933577 94.586464 
L 341.463042 81.798891 
L 342.992508 90.158798 
L 344.521974 90.296428 
L 346.051439 95.651487 
L 347.580905 83.679824 
L 349.11037 81.776664 
L 350.639836 82.996976 
L 352.169301 92.623538 
L 353.698767 78.424856 
L 355.228232 82.962114 
L 356.757698 76.668372 
L 358.287163 92.993762 
L 359.816629 84.597003 
L 361.346094 75.077744 
L 362.87556 81.464262 
L 364.405025 91.481015 
L 365.934491 85.526473 
L 367.463956 88.49272 
L 368.993422 87.966508 
L 370.522887 65.546778 
L 372.052353 74.988605 
L 373.581818 77.627693 
L 373.581818 77.627693 
" clip-path="url(#pee4310a662)" style="fill: none; stroke: #d62728; stroke-width: 2; stroke-linecap: square"/>
   </g>
   <g id="patch_3">
    <path d="M 54 252 
L 54 34.56 
" style="fill: none; stroke: #000000; stroke-width: 0.8; stroke-linejoin: miter; stroke-linecap: square"/>
   </g>
   <g id="patch_4">
    <path d="M 388.8 252 
L 388.8 34.56 
" style="fill: none; stroke: #000000; stroke-width: 0.8; stroke-linejoin: miter; stroke-linecap: square"/>
   </g>
   <g id="patch_5">
    <path d="M 54 252 
L 388.8 252 
" style="fill: none; stroke: #000000; stroke-width: 0.8; stroke-linejoin: miter; stroke-linecap: square"/>
   </g>
   <g id="patch_6">
    <path d="M 54 34.56 
L 388.8 34.56 
" style="fill: none; stroke: #000000; stroke-width: 0.8; stroke-linejoin: miter; stroke-linecap: square"/>
   </g>
   <g id="text_18">
    <!-- 讨论不同干扰强度对不稳定性的影响 -->
    <g transform="translate(125.4 28.56)scale(0.12 -0.12)">
     <defs>
      <path id="SimHei-8ba8" d="M 4700 3775 
Q 4700 4600 4675 5225 
L 5225 5225 
Q 5200 4625 5200 3775 
Q 5625 3775 6075 3800 
L 6075 3325 
Q 5675 3350 5200 3350 
L 5200 25 
Q 5200 -325 4925 -437 
Q 4650 -550 4150 -600 
Q 4125 -300 3875 25 
Q 4450 0 4575 50 
Q 4700 100 4700 350 
L 4700 3350 
L 3225 3350 
Q 2900 3350 2300 3325 
L 2300 3800 
Q 2875 3775 3175 3775 
L 4700 3775 
z
M 1700 3375 
Q 1675 2925 1675 2400 
L 1675 550 
Q 2000 850 2400 1325 
Q 2550 1025 2725 825 
Q 2375 550 2037 237 
Q 1700 -75 1450 -350 
Q 1225 -100 1025 50 
Q 1200 250 1200 575 
L 1200 2950 
Q 575 2950 300 2925 
L 300 3400 
Q 575 3375 975 3375 
L 1700 3375 
z
M 3025 2750 
Q 3525 2150 3875 1525 
Q 3625 1375 3425 1250 
Q 3150 1850 2625 2475 
Q 2800 2575 3025 2750 
z
M 1250 5250 
Q 1550 4850 1825 4200 
Q 1625 4100 1375 3950 
Q 1175 4500 825 5000 
Q 1000 5100 1250 5250 
z
" transform="scale(0.015625)"/>
      <path id="SimHei-8bba" d="M 3500 1600 
Q 3825 1725 4250 2000 
Q 4675 2275 4975 2575 
Q 5225 2275 5400 2100 
Q 5050 1950 4550 1675 
Q 4050 1400 3500 1150 
L 3500 300 
Q 3500 -100 3800 -100 
L 4825 -100 
Q 5125 -100 5250 137 
Q 5375 375 5375 575 
Q 5675 350 5925 275 
Q 5750 -225 5550 -375 
Q 5350 -525 5100 -525 
L 3550 -525 
Q 3025 -475 3025 0 
L 3025 2175 
Q 3025 2525 3000 2850 
L 3525 2850 
Q 3500 2400 3500 2200 
L 3500 1600 
z
M 4175 4850 
Q 4400 4350 4950 3687 
Q 5500 3025 6175 2700 
Q 5975 2575 5800 2275 
Q 5100 2750 4637 3375 
Q 4175 4000 3950 4425 
Q 3725 3950 3387 3425 
Q 3050 2900 2325 2200 
Q 2175 2375 1950 2575 
Q 2350 2825 2650 3175 
Q 2950 3525 3200 3962 
Q 3450 4400 3575 4725 
Q 3700 5050 3750 5250 
Q 3975 5150 4275 5050 
L 4175 4850 
z
M 1600 3150 
Q 1575 2750 1575 2275 
L 1575 550 
Q 1950 825 2400 1300 
Q 2500 1075 2650 800 
Q 2250 475 1900 187 
Q 1550 -100 1250 -375 
Q 1150 -225 900 50 
Q 1100 250 1100 450 
L 1100 2700 
L 800 2700 
Q 550 2700 275 2675 
L 275 3175 
Q 550 3150 800 3150 
L 1600 3150 
z
M 975 5000 
Q 1550 4525 2125 4025 
Q 1950 3875 1750 3650 
Q 1325 4150 650 4650 
Q 825 4800 975 5000 
z
" transform="scale(0.015625)"/>
      <path id="SimHei-4e0d" d="M 5975 4450 
Q 5525 4475 5200 4475 
L 3725 4475 
Q 3550 4125 3300 3700 
L 3300 575 
Q 3300 75 3325 -550 
L 2775 -550 
Q 2800 50 2800 575 
L 2800 3025 
Q 2025 1950 700 1050 
Q 500 1350 325 1475 
Q 825 1700 1650 2437 
Q 2475 3175 3175 4475 
L 1525 4475 
Q 1050 4475 525 4450 
L 525 4950 
Q 1275 4925 1675 4925 
L 5175 4925 
Q 5500 4925 5975 4950 
L 5975 4450 
z
M 5450 1125 
Q 4975 1725 3750 2975 
Q 3950 3150 4075 3325 
Q 4675 2775 5100 2362 
Q 5525 1950 5900 1550 
Q 5650 1350 5450 1125 
z
" transform="scale(0.015625)"/>
      <path id="SimHei-540c" d="M 5825 4925 
Q 5775 4550 5775 3975 
L 5775 -50 
Q 5775 -400 5525 -487 
Q 5275 -575 4725 -625 
Q 4725 -400 4525 -50 
Q 4925 -50 5100 -12 
Q 5275 25 5275 200 
L 5275 4450 
L 1150 4450 
L 1150 -600 
L 575 -600 
Q 600 -250 625 200 
L 625 3975 
Q 625 4575 600 4925 
L 5825 4925 
z
M 4375 2550 
Q 4325 2275 4325 1700 
Q 4325 1150 4375 725 
L 2025 725 
Q 2050 1175 2050 1750 
Q 2050 2325 2025 2550 
L 4375 2550 
z
M 4100 3750 
Q 4600 3750 4825 3775 
L 4825 3275 
Q 4575 3300 4075 3300 
L 2450 3300 
Q 1850 3300 1600 3275 
L 1600 3775 
Q 1875 3750 2475 3750 
L 4100 3750 
z
M 3875 1150 
L 3875 2150 
L 2525 2150 
L 2525 1150 
L 3875 1150 
z
" transform="scale(0.015625)"/>
      <path id="SimHei-5bf9" d="M 525 4250 
Q 900 4225 1400 4225 
L 2825 4225 
Q 2575 2625 2200 1750 
Q 2825 875 3125 400 
Q 2950 275 2725 75 
Q 2200 975 1950 1300 
Q 1650 775 1350 425 
Q 1050 75 600 -350 
Q 425 -125 200 -25 
Q 625 275 975 675 
Q 1325 1075 1650 1700 
Q 1050 2425 550 2900 
Q 700 3025 900 3225 
Q 1625 2425 1875 2150 
Q 2200 3050 2300 3825 
L 1400 3825 
Q 900 3825 525 3800 
L 525 4250 
z
M 2925 3700 
Q 3525 3675 3750 3675 
L 4825 3675 
L 4825 4425 
Q 4825 4750 4775 5125 
L 5350 5125 
Q 5325 4825 5325 4375 
L 5325 3675 
Q 5575 3675 6150 3700 
L 6150 3250 
Q 5575 3275 5325 3275 
L 5325 125 
Q 5350 -350 5012 -475 
Q 4675 -600 4250 -650 
Q 4175 -350 4025 -100 
Q 4575 -100 4712 -37 
Q 4850 25 4825 325 
L 4825 3275 
L 3775 3275 
Q 3550 3275 2925 3225 
L 2925 3700 
z
M 3450 2725 
Q 3875 1975 4175 1325 
Q 3850 1200 3700 1075 
Q 3475 1750 3050 2475 
Q 3225 2550 3450 2725 
z
" transform="scale(0.015625)"/>
      <path id="SimHei-7a33" d="M 4050 5125 
Q 3875 4975 3675 4625 
L 5325 4625 
Q 5200 4450 5062 4212 
Q 4925 3975 4800 3650 
L 5625 3650 
Q 5600 3350 5600 2600 
Q 5600 1875 5625 1425 
L 3425 1425 
Q 3075 1425 2750 1400 
L 2750 1850 
Q 3075 1825 3450 1825 
L 5100 1825 
L 5100 2375 
L 3550 2375 
Q 3175 2375 2875 2350 
L 2875 2775 
Q 3175 2750 3525 2750 
L 5100 2750 
L 5100 3275 
L 3775 3275 
Q 3350 3275 3050 3250 
L 3050 3650 
Q 2875 3425 2725 3200 
Q 2525 3400 2350 3475 
Q 2675 3875 2987 4412 
Q 3300 4950 3400 5300 
Q 3725 5200 4050 5125 
z
M 2500 4575 
Q 2275 4575 2012 4512 
Q 1750 4450 1625 4450 
L 1625 3350 
Q 1975 3350 2375 3375 
L 2375 2950 
Q 1925 2975 1625 2975 
L 1625 2225 
Q 1775 2325 1950 2500 
Q 2225 2100 2525 1600 
Q 2300 1500 2150 1350 
Q 1950 1725 1625 2175 
L 1625 400 
Q 1625 25 1650 -625 
L 1150 -625 
Q 1200 25 1200 400 
L 1200 2075 
Q 875 1250 475 650 
Q 375 925 175 1125 
Q 325 1250 650 1887 
Q 975 2525 1050 2975 
Q 750 2975 275 2950 
L 275 3375 
Q 750 3350 1200 3350 
L 1200 4325 
Q 950 4275 550 4200 
Q 475 4425 275 4625 
Q 750 4675 1237 4775 
Q 1725 4875 2125 5075 
Q 2275 4775 2500 4575 
z
M 3675 1025 
Q 3650 700 3650 300 
Q 3650 -75 3775 -100 
Q 3900 -125 4250 -125 
Q 4600 -125 4687 -100 
Q 4775 -75 4825 425 
Q 5025 275 5350 200 
Q 5150 -450 4950 -500 
Q 4750 -550 4175 -550 
Q 3625 -550 3425 -487 
Q 3225 -425 3225 -100 
L 3225 525 
Q 3225 775 3200 1025 
L 3675 1025 
z
M 3050 3675 
Q 3325 3650 3775 3650 
L 4275 3650 
Q 4450 4000 4575 4275 
L 3425 4275 
Q 3275 4050 3050 3675 
z
M 2925 900 
Q 2800 725 2700 287 
Q 2600 -150 2550 -300 
Q 2325 -200 2075 -175 
Q 2225 200 2275 412 
Q 2325 625 2425 1000 
L 2925 900 
z
M 5575 1100 
Q 5950 475 6175 50 
Q 5950 -25 5750 -175 
Q 5625 175 5200 925 
Q 5425 975 5575 1100 
z
M 4225 1300 
Q 4525 825 4625 525 
Q 4550 500 4250 350 
Q 4150 700 3850 1125 
Q 4050 1200 4225 1300 
z
" transform="scale(0.015625)"/>
      <path id="SimHei-5b9a" d="M 4200 3125 
Q 4675 3125 5175 3150 
L 5175 2675 
Q 4725 2700 4100 2700 
L 3550 2700 
L 3550 1700 
L 4600 1700 
Q 4875 1700 5375 1725 
L 5375 1250 
Q 4875 1275 4575 1275 
L 3550 1275 
L 3550 100 
Q 4600 -25 6050 125 
Q 5850 -200 5800 -475 
Q 4800 -475 4150 -450 
Q 3500 -425 3050 -300 
Q 2600 -175 2250 75 
Q 1900 325 1600 675 
Q 1200 -50 675 -575 
Q 450 -350 175 -250 
Q 875 300 1200 1050 
Q 1525 1800 1550 2200 
Q 1800 2050 2150 1975 
Q 2075 1875 1987 1662 
Q 1900 1450 1775 1125 
Q 1950 900 2300 612 
Q 2650 325 3050 200 
L 3050 2700 
L 2250 2700 
Q 1825 2700 1400 2675 
L 1400 3150 
Q 1825 3125 2400 3125 
L 4200 3125 
z
M 5750 4275 
Q 5725 3925 5725 3750 
Q 5725 3575 5750 3275 
L 5225 3275 
L 5225 3875 
L 1225 3875 
L 1225 3275 
L 700 3275 
Q 725 3475 725 3725 
Q 725 3975 700 4275 
L 5750 4275 
z
M 2650 5050 
Q 2875 5125 3100 5300 
Q 3375 4975 3600 4550 
Q 3250 4400 3100 4300 
Q 3050 4525 2650 5050 
z
" transform="scale(0.015625)"/>
      <path id="SimHei-6027" d="M 3450 4525 
Q 3325 4075 3275 3750 
L 4050 3750 
L 4050 4275 
Q 4050 4700 4025 5100 
L 4550 5100 
Q 4525 4700 4525 4275 
L 4525 3750 
L 5025 3750 
Q 5350 3750 5800 3775 
L 5800 3300 
Q 5350 3325 5025 3325 
L 4525 3325 
L 4525 2000 
L 4975 2000 
Q 5350 2000 5725 2025 
L 5725 1550 
Q 5350 1575 4975 1575 
L 4525 1575 
L 4525 25 
L 5200 25 
Q 5625 25 6025 50 
L 6025 -400 
Q 5625 -375 5200 -375 
L 3275 -375 
Q 2825 -375 2400 -400 
L 2400 50 
Q 2825 25 3250 25 
L 4050 25 
L 4050 1575 
L 3625 1575 
Q 3300 1575 2875 1550 
L 2875 2025 
Q 3200 2000 3625 2000 
L 4050 2000 
L 4050 3325 
L 3175 3325 
Q 3100 2950 2775 2225 
Q 2500 2375 2325 2400 
Q 2675 3125 2775 3650 
Q 2875 4175 2950 4650 
Q 3200 4575 3450 4525 
z
M 1700 5150 
Q 1675 4650 1675 4175 
L 1675 425 
Q 1675 -100 1700 -625 
L 1175 -625 
Q 1200 -100 1200 425 
L 1200 4175 
Q 1200 4700 1175 5150 
L 1700 5150 
z
M 975 3725 
Q 825 2675 700 2150 
Q 450 2200 250 2250 
Q 425 2900 525 3800 
Q 725 3775 975 3725 
z
M 2125 4025 
Q 2325 3625 2525 3000 
Q 2300 2925 2125 2825 
Q 1950 3375 1750 3850 
Q 1950 3950 2125 4025 
z
" transform="scale(0.015625)"/>
      <path id="SimHei-7684" d="M 2100 4975 
Q 1975 4750 1750 3950 
L 2875 3950 
Q 2850 3525 2850 2875 
L 2850 675 
Q 2850 300 2875 -400 
L 2375 -400 
L 2375 100 
L 1100 100 
L 1100 -450 
L 600 -450 
Q 625 350 625 550 
L 625 2850 
Q 625 3525 600 3950 
L 1325 3950 
Q 1450 4525 1525 5150 
Q 1875 5025 2100 4975 
z
M 5825 3075 
Q 5800 1550 5700 175 
Q 5650 -275 5225 -425 
Q 4800 -575 4275 -625 
Q 4250 -350 4050 -50 
Q 4550 -75 4837 -25 
Q 5125 25 5200 200 
Q 5275 375 5312 1225 
Q 5350 2075 5375 3600 
L 3925 3600 
Q 3725 3125 3350 2475 
Q 3175 2650 2925 2750 
Q 3150 3050 3350 3475 
Q 3550 3900 3700 4400 
Q 3850 4900 3875 5175 
Q 4225 5025 4475 4950 
Q 4350 4750 4262 4512 
Q 4175 4275 4075 4050 
L 5850 4050 
Q 5825 3525 5825 3075 
z
M 2375 525 
L 2375 1850 
L 1100 1850 
L 1100 525 
L 2375 525 
z
M 2375 2275 
L 2375 3525 
L 1100 3525 
L 1100 2275 
L 2375 2275 
z
M 4350 2050 
Q 4500 1750 4700 1275 
Q 4525 1200 4225 1025 
Q 4050 1500 3900 1837 
Q 3750 2175 3600 2400 
Q 3775 2500 4050 2650 
L 4350 2050 
z
" transform="scale(0.015625)"/>
      <path id="SimHei-5f71" d="M 3550 5025 
Q 3500 4625 3512 4187 
Q 3525 3750 3550 3325 
L 775 3325 
Q 800 3750 787 4187 
Q 775 4625 775 5025 
L 3550 5025 
z
M 1450 -100 
Q 2050 -75 1975 200 
L 1975 1100 
L 775 1100 
Q 800 1375 787 1650 
Q 775 1925 775 2225 
L 3550 2225 
Q 3525 1925 3512 1650 
Q 3500 1375 3550 1100 
L 2475 1100 
L 2475 175 
Q 2500 -250 2300 -375 
Q 2100 -500 1625 -600 
Q 1575 -325 1450 -100 
z
M 2375 3250 
Q 2400 3075 2425 2875 
L 3175 2875 
Q 3600 2875 4050 2900 
L 4050 2475 
Q 3600 2500 3175 2500 
L 1200 2500 
Q 700 2500 275 2475 
L 275 2900 
Q 700 2875 1200 2875 
L 1900 2875 
Q 1875 3025 1850 3200 
Q 2100 3250 2375 3250 
z
M 6150 1350 
Q 5675 775 5000 225 
Q 4325 -325 3725 -650 
Q 3575 -400 3400 -250 
Q 3975 25 4600 500 
Q 5225 975 5775 1725 
Q 5950 1525 6150 1350 
z
M 5925 3125 
Q 5625 2850 5212 2362 
Q 4800 1875 4200 1425 
Q 4025 1625 3800 1725 
Q 4375 2050 4787 2525 
Q 5200 3000 5525 3500 
Q 5675 3325 5925 3125 
z
M 5725 4825 
Q 5325 4550 5037 4162 
Q 4750 3775 4175 3275 
Q 3975 3450 3800 3550 
Q 4175 3825 4550 4237 
Q 4925 4650 5225 5175 
Q 5425 5000 5725 4825 
z
M 3075 1475 
L 3075 1850 
L 1250 1850 
L 1250 1475 
L 3075 1475 
z
M 3075 3700 
L 3075 4000 
L 1250 4000 
L 1250 3700 
L 3075 3700 
z
M 3075 4375 
L 3075 4675 
L 1250 4675 
L 1250 4375 
L 3075 4375 
z
M 1500 500 
Q 1075 75 575 -325 
Q 475 -175 275 -25 
Q 700 250 1125 825 
Q 1300 625 1500 500 
z
M 3250 -50 
Q 3050 275 2750 550 
Q 2900 700 3075 850 
Q 3400 525 3600 250 
L 3250 -50 
z
" transform="scale(0.015625)"/>
      <path id="SimHei-54cd" d="M 4150 5125 
Q 4000 4975 3850 4325 
L 5875 4325 
Q 5850 3800 5850 3325 
L 5850 50 
Q 5825 -225 5625 -350 
Q 5425 -475 4850 -550 
Q 4850 -325 4600 25 
Q 5125 25 5237 62 
Q 5350 100 5350 225 
L 5350 3950 
L 2950 3950 
L 2950 -575 
L 2450 -575 
Q 2475 -75 2475 450 
L 2475 3125 
Q 2475 3750 2450 4325 
L 3350 4325 
Q 3475 4775 3525 5250 
Q 3950 5150 4150 5125 
z
M 4875 900 
L 3425 900 
L 3425 3100 
L 4875 3100 
L 4875 900 
z
M 4450 1275 
L 4450 2700 
L 3875 2700 
L 3875 1275 
L 4450 1275 
z
M 2075 4500 
Q 2050 3975 2050 3425 
L 2050 1750 
Q 2050 1250 2075 600 
L 1650 600 
L 1650 1050 
L 950 1050 
L 950 275 
L 500 275 
Q 525 750 525 1275 
L 525 3425 
Q 525 3975 500 4500 
L 2075 4500 
z
M 1650 1400 
L 1650 4125 
L 950 4125 
L 950 1400 
L 1650 1400 
z
" transform="scale(0.015625)"/>
     </defs>
     <use xlink:href="#SimHei-8ba8"/>
     <use xlink:href="#SimHei-8bba" x="100"/>
     <use xlink:href="#SimHei-4e0d" x="200"/>
     <use xlink:href="#SimHei-540c" x="300"/>
     <use xlink:href="#SimHei-5e72" x="400"/>
     <use xlink:href="#SimHei-6270" x="500"/>
     <use xlink:href="#SimHei-5f3a" x="600"/>
     <use xlink:href="#SimHei-5ea6" x="700"/>
     <use xlink:href="#SimHei-5bf9" x="800"/>
     <use xlink:href="#SimHei-4e0d" x="900"/>
     <use xlink:href="#SimHei-7a33" x="1000"/>
     <use xlink:href="#SimHei-5b9a" x="1100"/>
     <use xlink:href="#SimHei-6027" x="1200"/>
     <use xlink:href="#SimHei-7684" x="1300"/>
     <use xlink:href="#SimHei-5f71" x="1400"/>
     <use xlink:href="#SimHei-54cd" x="1500"/>
    </g>
   </g>
   <g id="legend_1">
    <g id="patch_7">
     <path d="M 61 95.56 
L 138 95.56 
Q 140 95.56 140 93.56 
L 140 41.56 
Q 140 39.56 138 39.56 
L 61 39.56 
Q 59 39.56 59 41.56 
L 59 93.56 
Q 59 95.56 61 95.56 
z
" style="fill: #ffffff; opacity: 0.8; stroke: #cccccc; stroke-linejoin: miter"/>
    </g>
    <g id="line2d_20">
     <path d="M 63 47.06 
L 73 47.06 
L 83 47.06 
" style="fill: none; stroke: #1f77b4; stroke-width: 2; stroke-linecap: square"/>
    </g>
    <g id="text_19">
     <!-- EU -->
     <g transform="translate(91 50.56)scale(0.1 -0.1)">
      <defs>
       <path id="SimHei-45" d="M 2900 125 
L 350 125 
L 350 4400 
L 2775 4400 
L 2775 3925 
L 925 3925 
L 925 2600 
L 2625 2600 
L 2625 2125 
L 925 2125 
L 925 600 
L 2900 600 
L 2900 125 
z
" transform="scale(0.015625)"/>
       <path id="SimHei-55" d="M 2875 1375 
Q 2875 775 2562 425 
Q 2250 75 1575 75 
Q 900 75 587 425 
Q 275 775 275 1375 
L 275 4400 
L 850 4400 
L 850 1375 
Q 850 950 1050 750 
Q 1250 550 1575 550 
Q 1900 550 2100 750 
Q 2300 950 2300 1375 
L 2300 4400 
L 2875 4400 
L 2875 1375 
z
" transform="scale(0.015625)"/>
      </defs>
      <use xlink:href="#SimHei-45"/>
      <use xlink:href="#SimHei-55" x="50"/>
     </g>
    </g>
    <g id="line2d_21">
     <path d="M 63 60.31 
L 73 60.31 
L 83 60.31 
" style="fill: none; stroke: #ff7f0e; stroke-width: 3; stroke-linecap: square"/>
    </g>
    <g id="text_20">
     <!-- VG -->
     <g transform="translate(91 63.81)scale(0.1 -0.1)">
      <defs>
       <path id="SimHei-56" d="M 3050 4400 
L 1800 75 
L 1300 75 
L 50 4400 
L 650 4400 
L 1525 1125 
L 1575 1125 
L 2450 4400 
L 3050 4400 
z
" transform="scale(0.015625)"/>
       <path id="SimHei-47" d="M 2850 75 
L 2425 75 
L 2350 425 
Q 2250 275 2037 175 
Q 1825 75 1575 75 
Q 1050 75 637 562 
Q 225 1050 225 2125 
Q 225 3300 600 3875 
Q 975 4450 1625 4450 
Q 2200 4450 2525 4025 
Q 2850 3600 2850 2925 
L 2300 2925 
Q 2300 3450 2125 3712 
Q 1950 3975 1625 3975 
Q 1225 3975 1025 3562 
Q 825 3150 825 2175 
Q 825 1250 1075 900 
Q 1325 550 1650 550 
Q 1975 550 2162 787 
Q 2350 1025 2350 1525 
L 2350 1800 
L 1575 1800 
L 1575 2275 
L 2850 2275 
L 2850 75 
z
" transform="scale(0.015625)"/>
      </defs>
      <use xlink:href="#SimHei-56"/>
      <use xlink:href="#SimHei-47" x="50"/>
     </g>
    </g>
    <g id="line2d_22">
     <path d="M 63 73.56 
L 73 73.56 
L 83 73.56 
" style="fill: none; stroke: #2ca02c; stroke-width: 2; stroke-linecap: square"/>
    </g>
    <g id="text_21">
     <!-- Manhattan -->
     <g transform="translate(91 77.06)scale(0.1 -0.1)">
      <defs>
       <path id="SimHei-4d" d="M 2925 125 
L 2425 125 
L 2425 3175 
L 2375 3175 
L 1775 125 
L 1375 125 
L 775 3175 
L 725 3175 
L 725 125 
L 225 125 
L 225 4400 
L 1000 4400 
L 1550 1575 
L 1600 1575 
L 2150 4400 
L 2925 4400 
L 2925 125 
z
" transform="scale(0.015625)"/>
       <path id="SimHei-6e" d="M 2800 125 
L 2300 125 
L 2300 1925 
Q 2300 2225 2150 2400 
Q 2000 2575 1750 2575 
Q 1425 2575 1137 2237 
Q 850 1900 850 1400 
L 850 125 
L 350 125 
L 350 2925 
L 850 2925 
L 850 2400 
Q 1050 2675 1287 2825 
Q 1525 2975 1900 2975 
Q 2350 2975 2575 2725 
Q 2800 2475 2800 2100 
L 2800 125 
z
" transform="scale(0.015625)"/>
       <path id="SimHei-68" d="M 2800 125 
L 2300 125 
L 2300 1925 
Q 2300 2225 2150 2400 
Q 2000 2575 1750 2575 
Q 1425 2575 1137 2237 
Q 850 1900 850 1400 
L 850 125 
L 350 125 
L 350 4400 
L 850 4400 
L 850 2400 
Q 1050 2675 1287 2825 
Q 1525 2975 1900 2975 
Q 2350 2975 2575 2725 
Q 2800 2475 2800 2100 
L 2800 125 
z
" transform="scale(0.015625)"/>
       <path id="SimHei-74" d="M 2750 200 
Q 2625 150 2462 112 
Q 2300 75 2025 75 
Q 1575 75 1300 325 
Q 1025 575 1025 1025 
L 1025 2525 
L 175 2525 
L 175 2925 
L 1025 2925 
L 1025 3900 
L 1525 3900 
L 1525 2925 
L 2550 2925 
L 2550 2525 
L 1525 2525 
L 1525 1000 
Q 1525 800 1625 662 
Q 1725 525 2000 525 
Q 2275 525 2450 575 
Q 2625 625 2750 700 
L 2750 200 
z
" transform="scale(0.015625)"/>
      </defs>
      <use xlink:href="#SimHei-4d"/>
      <use xlink:href="#SimHei-61" x="50"/>
      <use xlink:href="#SimHei-6e" x="100"/>
      <use xlink:href="#SimHei-68" x="150"/>
      <use xlink:href="#SimHei-61" x="200"/>
      <use xlink:href="#SimHei-74" x="250"/>
      <use xlink:href="#SimHei-74" x="300"/>
      <use xlink:href="#SimHei-61" x="350"/>
      <use xlink:href="#SimHei-6e" x="400"/>
     </g>
    </g>
    <g id="line2d_23">
     <path d="M 63 86.81 
L 73 86.81 
L 83 86.81 
" style="fill: none; stroke: #d62728; stroke-width: 2; stroke-linecap: square"/>
    </g>
    <g id="text_22">
     <!-- Degree -->
     <g transform="translate(91 90.31)scale(0.1 -0.1)">
      <defs>
       <path id="SimHei-44" d="M 2925 2250 
Q 2925 1100 2437 612 
Q 1950 125 1125 125 
L 275 125 
L 275 4400 
L 1125 4400 
Q 2050 4400 2487 3900 
Q 2925 3400 2925 2250 
z
M 2325 2250 
Q 2325 3175 2025 3550 
Q 1725 3925 1125 3925 
L 850 3925 
L 850 600 
L 1125 600 
Q 1725 600 2025 962 
Q 2325 1325 2325 2250 
z
" transform="scale(0.015625)"/>
       <path id="SimHei-65" d="M 2850 1075 
Q 2800 625 2450 350 
Q 2100 75 1625 75 
Q 1025 75 637 462 
Q 250 850 250 1525 
Q 250 2200 637 2587 
Q 1025 2975 1625 2975 
Q 2150 2975 2487 2637 
Q 2825 2300 2825 1525 
L 800 1525 
Q 800 975 1037 750 
Q 1275 525 1625 525 
Q 1900 525 2075 662 
Q 2250 800 2300 1075 
L 2850 1075 
z
M 2250 1925 
Q 2200 2275 2025 2412 
Q 1850 2550 1575 2550 
Q 1325 2550 1125 2412 
Q 925 2275 825 1925 
L 2250 1925 
z
" transform="scale(0.015625)"/>
       <path id="SimHei-72" d="M 2500 2425 
Q 2025 2500 1700 2287 
Q 1375 2075 1150 1550 
L 1150 125 
L 650 125 
L 650 2925 
L 1150 2925 
L 1150 2200 
Q 1375 2600 1712 2787 
Q 2050 2975 2500 2975 
L 2500 2425 
z
" transform="scale(0.015625)"/>
      </defs>
      <use xlink:href="#SimHei-44"/>
      <use xlink:href="#SimHei-65" x="50"/>
      <use xlink:href="#SimHei-67" x="100"/>
      <use xlink:href="#SimHei-72" x="150"/>
      <use xlink:href="#SimHei-65" x="200"/>
      <use xlink:href="#SimHei-65" x="250"/>
     </g>
    </g>
   </g>
  </g>
 </g>
 <defs>
  <clipPath id="pee4310a662">
   <rect x="54" y="34.56" width="334.8" height="217.44"/>
  </clipPath>
 </defs>
</svg>
