<?xml version="1.0" encoding="utf-8" standalone="no"?>
<!DOCTYPE svg PUBLIC "-//W3C//DTD SVG 1.1//EN"
  "http://www.w3.org/Graphics/SVG/1.1/DTD/svg11.dtd">
<svg xmlns:xlink="http://www.w3.org/1999/xlink" width="432pt" height="288pt" viewBox="0 0 432 288" xmlns="http://www.w3.org/2000/svg" version="1.1">
 <metadata>
  <rdf:RDF xmlns:dc="http://purl.org/dc/elements/1.1/" xmlns:cc="http://creativecommons.org/ns#" xmlns:rdf="http://www.w3.org/1999/02/22-rdf-syntax-ns#">
   <cc:Work>
    <dc:type rdf:resource="http://purl.org/dc/dcmitype/StillImage"/>
    <dc:date>2023-05-28T21:55:53.938675</dc:date>
    <dc:format>image/svg+xml</dc:format>
    <dc:creator>
     <cc:Agent>
      <dc:title>Matplotlib v3.5.2, https://matplotlib.org/</dc:title>
     </cc:Agent>
    </dc:creator>
   </cc:Work>
  </rdf:RDF>
 </metadata>
 <defs>
  <style type="text/css">*{stroke-linejoin: round; stroke-linecap: butt}</style>
 </defs>
 <g id="figure_1">
  <g id="patch_1">
   <path d="M 0 288 
L 432 288 
L 432 0 
L 0 0 
L 0 288 
z
" style="fill: none"/>
  </g>
  <g id="axes_1">
   <g id="patch_2">
    <path d="M 56.315625 248.73125 
L 421.2 248.73125 
L 421.2 26.440625 
L 56.315625 26.440625 
z
" style="fill: #ffffff"/>
   </g>
   <g id="matplotlib.axis_1">
    <g id="xtick_1">
     <g id="line2d_1">
      <defs>
       <path id="m428c3c5df9" d="M 0 0 
L 0 3.5 
" style="stroke: #000000; stroke-width: 0.8"/>
      </defs>
      <g>
       <use xlink:href="#m428c3c5df9" x="72.901278" y="248.73125" style="stroke: #000000; stroke-width: 0.8"/>
      </g>
     </g>
     <g id="text_1">
      <!-- 0 -->
      <g transform="translate(70.401278 262.60625)scale(0.1 -0.1)">
       <defs>
        <path id="SimHei-30" d="M 225 2537 
Q 250 3200 412 3587 
Q 575 3975 875 4225 
Q 1175 4475 1612 4475 
Q 2050 4475 2375 4112 
Q 2700 3750 2800 3200 
Q 2900 2650 2862 1937 
Q 2825 1225 2612 775 
Q 2400 325 1975 150 
Q 1550 -25 1125 187 
Q 700 400 525 750 
Q 350 1100 275 1487 
Q 200 1875 225 2537 
z
M 750 2687 
Q 675 2000 800 1462 
Q 925 925 1212 700 
Q 1500 475 1800 612 
Q 2100 750 2237 1162 
Q 2375 1575 2375 2062 
Q 2375 2550 2337 2950 
Q 2300 3350 2112 3675 
Q 1925 4000 1612 4012 
Q 1300 4025 1062 3700 
Q 825 3375 750 2687 
z
" transform="scale(0.015625)"/>
       </defs>
       <use xlink:href="#SimHei-30"/>
      </g>
     </g>
    </g>
    <g id="xtick_2">
     <g id="line2d_2">
      <g>
       <use xlink:href="#m428c3c5df9" x="114.365412" y="248.73125" style="stroke: #000000; stroke-width: 0.8"/>
      </g>
     </g>
     <g id="text_2">
      <!-- 25 -->
      <g transform="translate(109.365412 262.60625)scale(0.1 -0.1)">
       <defs>
        <path id="SimHei-32" d="M 300 250 
Q 325 625 650 925 
Q 975 1225 1475 1862 
Q 1975 2500 2125 2850 
Q 2275 3200 2237 3450 
Q 2200 3700 2000 3862 
Q 1800 4025 1537 4000 
Q 1275 3975 1037 3800 
Q 800 3625 675 3275 
L 200 3350 
Q 400 3925 712 4187 
Q 1025 4450 1450 4475 
Q 1700 4500 1900 4462 
Q 2100 4425 2312 4287 
Q 2525 4150 2662 3875 
Q 2800 3600 2762 3212 
Q 2725 2825 2375 2287 
Q 2025 1750 1025 600 
L 2825 600 
L 2825 150 
L 300 150 
L 300 250 
z
" transform="scale(0.015625)"/>
        <path id="SimHei-35" d="M 550 1325 
Q 725 650 1150 575 
Q 1575 500 1837 662 
Q 2100 825 2212 1087 
Q 2325 1350 2312 1675 
Q 2300 2000 2137 2225 
Q 1975 2450 1725 2525 
Q 1475 2600 1162 2525 
Q 850 2450 650 2175 
L 225 2225 
Q 275 2375 700 4375 
L 2675 4375 
L 2675 3925 
L 1075 3925 
Q 950 3250 825 2850 
Q 1200 3025 1525 3012 
Q 1850 3000 2150 2862 
Q 2450 2725 2587 2487 
Q 2725 2250 2787 2012 
Q 2850 1775 2837 1500 
Q 2825 1225 2725 937 
Q 2625 650 2425 462 
Q 2225 275 1937 162 
Q 1650 50 1275 75 
Q 900 100 562 350 
Q 225 600 100 1200 
L 550 1325 
z
" transform="scale(0.015625)"/>
       </defs>
       <use xlink:href="#SimHei-32"/>
       <use xlink:href="#SimHei-35" x="50"/>
      </g>
     </g>
    </g>
    <g id="xtick_3">
     <g id="line2d_3">
      <g>
       <use xlink:href="#m428c3c5df9" x="155.829545" y="248.73125" style="stroke: #000000; stroke-width: 0.8"/>
      </g>
     </g>
     <g id="text_3">
      <!-- 50 -->
      <g transform="translate(150.829545 262.60625)scale(0.1 -0.1)">
       <use xlink:href="#SimHei-35"/>
       <use xlink:href="#SimHei-30" x="50"/>
      </g>
     </g>
    </g>
    <g id="xtick_4">
     <g id="line2d_4">
      <g>
       <use xlink:href="#m428c3c5df9" x="197.293679" y="248.73125" style="stroke: #000000; stroke-width: 0.8"/>
      </g>
     </g>
     <g id="text_4">
      <!-- 75 -->
      <g transform="translate(192.293679 262.60625)scale(0.1 -0.1)">
       <defs>
        <path id="SimHei-37" d="M 850 150 
Q 1300 2050 2425 3925 
L 275 3925 
L 275 4375 
L 2950 4375 
L 2950 3950 
Q 1775 2050 1400 150 
L 850 150 
z
" transform="scale(0.015625)"/>
       </defs>
       <use xlink:href="#SimHei-37"/>
       <use xlink:href="#SimHei-35" x="50"/>
      </g>
     </g>
    </g>
    <g id="xtick_5">
     <g id="line2d_5">
      <g>
       <use xlink:href="#m428c3c5df9" x="238.757812" y="248.73125" style="stroke: #000000; stroke-width: 0.8"/>
      </g>
     </g>
     <g id="text_5">
      <!-- 100 -->
      <g transform="translate(231.257812 262.60625)scale(0.1 -0.1)">
       <defs>
        <path id="SimHei-31" d="M 1400 3600 
Q 1075 3275 575 2975 
L 575 3450 
Q 1200 3875 1600 4450 
L 1900 4450 
L 1900 150 
L 1400 150 
L 1400 3600 
z
" transform="scale(0.015625)"/>
       </defs>
       <use xlink:href="#SimHei-31"/>
       <use xlink:href="#SimHei-30" x="50"/>
       <use xlink:href="#SimHei-30" x="100"/>
      </g>
     </g>
    </g>
    <g id="xtick_6">
     <g id="line2d_6">
      <g>
       <use xlink:href="#m428c3c5df9" x="280.221946" y="248.73125" style="stroke: #000000; stroke-width: 0.8"/>
      </g>
     </g>
     <g id="text_6">
      <!-- 125 -->
      <g transform="translate(272.721946 262.60625)scale(0.1 -0.1)">
       <use xlink:href="#SimHei-31"/>
       <use xlink:href="#SimHei-32" x="50"/>
       <use xlink:href="#SimHei-35" x="100"/>
      </g>
     </g>
    </g>
    <g id="xtick_7">
     <g id="line2d_7">
      <g>
       <use xlink:href="#m428c3c5df9" x="321.68608" y="248.73125" style="stroke: #000000; stroke-width: 0.8"/>
      </g>
     </g>
     <g id="text_7">
      <!-- 150 -->
      <g transform="translate(314.18608 262.60625)scale(0.1 -0.1)">
       <use xlink:href="#SimHei-31"/>
       <use xlink:href="#SimHei-35" x="50"/>
       <use xlink:href="#SimHei-30" x="100"/>
      </g>
     </g>
    </g>
    <g id="xtick_8">
     <g id="line2d_8">
      <g>
       <use xlink:href="#m428c3c5df9" x="363.150213" y="248.73125" style="stroke: #000000; stroke-width: 0.8"/>
      </g>
     </g>
     <g id="text_8">
      <!-- 175 -->
      <g transform="translate(355.650213 262.60625)scale(0.1 -0.1)">
       <use xlink:href="#SimHei-31"/>
       <use xlink:href="#SimHei-37" x="50"/>
       <use xlink:href="#SimHei-35" x="100"/>
      </g>
     </g>
    </g>
    <g id="xtick_9">
     <g id="line2d_9">
      <g>
       <use xlink:href="#m428c3c5df9" x="404.614347" y="248.73125" style="stroke: #000000; stroke-width: 0.8"/>
      </g>
     </g>
     <g id="text_9">
      <!-- 200 -->
      <g transform="translate(397.114347 262.60625)scale(0.1 -0.1)">
       <use xlink:href="#SimHei-32"/>
       <use xlink:href="#SimHei-30" x="50"/>
       <use xlink:href="#SimHei-30" x="100"/>
      </g>
     </g>
    </g>
    <g id="text_10">
     <!-- 干扰强度 -->
     <g transform="translate(218.757812 275.864062)scale(0.1 -0.1)">
      <defs>
       <path id="SimHei-5e72" d="M 4625 4775 
Q 5050 4775 5500 4800 
L 5500 4300 
Q 5050 4325 4625 4325 
L 3475 4325 
L 3475 2525 
L 5225 2525 
Q 5700 2525 6000 2550 
L 6000 2050 
Q 5700 2075 5225 2075 
L 3475 2075 
L 3475 325 
Q 3475 -75 3500 -625 
L 2925 -625 
Q 2950 -100 2950 325 
L 2950 2075 
L 1225 2075 
Q 775 2075 400 2050 
L 400 2550 
Q 775 2525 1225 2525 
L 2950 2525 
L 2950 4325 
L 1925 4325 
Q 1450 4325 925 4300 
L 925 4800 
Q 1450 4775 1800 4775 
L 4625 4775 
z
" transform="scale(0.015625)"/>
       <path id="SimHei-6270" d="M 4575 425 
Q 4575 0 4950 0 
L 5250 0 
Q 5400 0 5450 150 
Q 5500 300 5500 575 
Q 5750 425 6025 375 
Q 5950 50 5862 -175 
Q 5775 -400 5500 -425 
L 4825 -425 
Q 4125 -425 4125 300 
L 4125 3075 
L 3875 3075 
Q 3800 1550 3375 725 
Q 2950 -100 2425 -575 
Q 2275 -375 1950 -275 
Q 2375 25 2687 487 
Q 3000 950 3187 1537 
Q 3375 2125 3400 3075 
Q 3000 3075 2650 3050 
L 2650 3500 
Q 2975 3475 3400 3475 
Q 3425 4225 3375 5125 
Q 3700 5100 3950 5075 
Q 3900 4925 3887 4550 
Q 3875 4175 3875 3475 
L 5050 3475 
Q 5575 3475 5850 3500 
L 5850 3050 
Q 5550 3075 5100 3075 
L 4575 3075 
L 4575 425 
z
M 1775 5150 
Q 1750 4750 1750 3675 
Q 2000 3675 2425 3700 
L 2425 3250 
Q 2000 3275 1750 3275 
L 1750 2275 
Q 2025 2400 2350 2575 
Q 2325 2400 2375 2125 
Q 2175 2050 1750 1825 
L 1750 0 
Q 1750 -325 1512 -450 
Q 1275 -575 825 -650 
Q 800 -350 600 -125 
Q 1275 -125 1275 100 
L 1275 1650 
Q 850 1425 575 1275 
Q 475 1525 325 1750 
Q 675 1850 1275 2100 
L 1275 3275 
Q 725 3275 450 3250 
L 450 3700 
Q 800 3675 1275 3675 
Q 1275 4675 1250 5150 
L 1775 5150 
z
M 5200 3750 
Q 4825 4300 4450 4675 
Q 4650 4800 4800 4975 
Q 5175 4550 5600 4025 
Q 5450 3950 5200 3750 
z
" transform="scale(0.015625)"/>
       <path id="SimHei-5f3a" d="M 2350 25 
Q 3100 75 3950 225 
L 3950 1200 
L 3100 1200 
L 3100 975 
L 2625 975 
Q 2650 1725 2650 2050 
L 2650 2875 
L 3950 2875 
L 3950 3500 
L 2850 3500 
Q 2875 3900 2875 4275 
Q 2875 4675 2850 5025 
L 5525 5025 
Q 5500 4675 5500 4275 
Q 5500 3900 5525 3500 
L 4400 3500 
L 4400 2875 
L 5750 2875 
Q 5725 2575 5725 2075 
Q 5725 1575 5750 1200 
L 4400 1200 
L 4400 275 
L 5250 425 
Q 5150 575 5050 750 
Q 5300 825 5475 925 
Q 5925 200 6175 -250 
Q 5925 -350 5725 -500 
Q 5625 -250 5425 100 
Q 5125 50 4225 -137 
Q 3325 -325 2600 -525 
Q 2525 -200 2350 25 
z
M 600 -25 
Q 1250 -25 1400 50 
Q 1550 125 1575 325 
L 1675 1850 
L 500 1850 
Q 550 2350 562 2762 
Q 575 3175 575 3575 
L 1800 3575 
L 1800 4550 
L 1275 4550 
Q 825 4550 425 4525 
L 425 4950 
Q 850 4925 1275 4925 
L 2275 4925 
Q 2250 4525 2250 4075 
Q 2250 3650 2275 3200 
L 1075 3200 
L 1025 2225 
L 2175 2225 
Q 2125 1775 2100 1425 
L 2025 150 
Q 1975 -250 1637 -387 
Q 1300 -525 850 -600 
Q 775 -275 600 -25 
z
M 5050 3875 
L 5050 4650 
L 3325 4650 
L 3325 3875 
L 5050 3875 
z
M 3950 1575 
L 3950 2500 
L 3100 2500 
L 3100 1575 
L 3950 1575 
z
M 5250 1575 
L 5250 2500 
L 4400 2500 
L 4400 1575 
L 5250 1575 
z
" transform="scale(0.015625)"/>
       <path id="SimHei-5ea6" d="M 1750 1675 
Q 2450 1650 2875 1650 
L 5200 1650 
Q 4975 1250 4650 850 
Q 4325 450 4025 200 
Q 4350 50 4950 -50 
Q 5550 -150 6100 -150 
Q 5950 -300 5825 -650 
Q 5100 -550 4550 -412 
Q 4000 -275 3625 -100 
Q 3100 -325 2587 -462 
Q 2075 -600 1525 -675 
Q 1450 -475 1225 -250 
Q 1675 -250 2250 -125 
Q 2825 0 3250 200 
Q 2825 550 2400 1275 
L 1750 1250 
L 1750 1675 
z
M 2975 5075 
Q 3250 5150 3475 5250 
Q 3625 4975 3775 4525 
L 4700 4525 
Q 4975 4525 5700 4550 
L 5700 4100 
Q 5000 4125 4650 4125 
L 1375 4125 
Q 1375 3000 1350 2312 
Q 1325 1625 1212 950 
Q 1100 275 725 -525 
Q 500 -375 250 -300 
Q 650 400 762 1075 
Q 875 1750 887 2800 
Q 900 3850 875 4525 
L 3200 4525 
Q 3100 4850 2975 5075 
z
M 2475 3300 
Q 2475 3700 2450 3925 
L 2975 3925 
Q 2950 3725 2950 3300 
L 4300 3300 
Q 4300 3700 4275 3950 
L 4800 3950 
Q 4775 3650 4775 3300 
Q 5325 3300 5725 3325 
L 5725 2900 
Q 5350 2925 4775 2925 
Q 4775 2250 4800 1950 
L 2450 1950 
Q 2475 2350 2475 2925 
Q 2175 2925 1600 2900 
L 1600 3325 
Q 2175 3300 2475 3300 
z
M 4300 2350 
L 4300 2925 
L 2950 2925 
L 2950 2350 
L 4300 2350 
z
M 2875 1275 
Q 3200 775 3650 425 
Q 4025 700 4425 1275 
L 2900 1275 
L 2875 1275 
z
" transform="scale(0.015625)"/>
      </defs>
      <use xlink:href="#SimHei-5e72"/>
      <use xlink:href="#SimHei-6270" x="100"/>
      <use xlink:href="#SimHei-5f3a" x="200"/>
      <use xlink:href="#SimHei-5ea6" x="300"/>
     </g>
    </g>
   </g>
   <g id="matplotlib.axis_2">
    <g id="ytick_1">
     <g id="line2d_10">
      <defs>
       <path id="m98fd65232d" d="M 0 0 
L -3.5 0 
" style="stroke: #000000; stroke-width: 0.8"/>
      </defs>
      <g>
       <use xlink:href="#m98fd65232d" x="56.315625" y="238.627131" style="stroke: #000000; stroke-width: 0.8"/>
      </g>
     </g>
     <g id="text_11">
      <!-- 0.000 -->
      <g transform="translate(24.315625 242.064631)scale(0.1 -0.1)">
       <defs>
        <path id="SimHei-2e" d="M 1075 125 
L 500 125 
L 500 675 
L 1075 675 
L 1075 125 
z
" transform="scale(0.015625)"/>
       </defs>
       <use xlink:href="#SimHei-30"/>
       <use xlink:href="#SimHei-2e" x="50"/>
       <use xlink:href="#SimHei-30" x="100"/>
       <use xlink:href="#SimHei-30" x="150"/>
       <use xlink:href="#SimHei-30" x="200"/>
      </g>
     </g>
    </g>
    <g id="ytick_2">
     <g id="line2d_11">
      <g>
       <use xlink:href="#m98fd65232d" x="56.315625" y="203.421698" style="stroke: #000000; stroke-width: 0.8"/>
      </g>
     </g>
     <g id="text_12">
      <!-- 0.005 -->
      <g transform="translate(24.315625 206.859198)scale(0.1 -0.1)">
       <use xlink:href="#SimHei-30"/>
       <use xlink:href="#SimHei-2e" x="50"/>
       <use xlink:href="#SimHei-30" x="100"/>
       <use xlink:href="#SimHei-30" x="150"/>
       <use xlink:href="#SimHei-35" x="200"/>
      </g>
     </g>
    </g>
    <g id="ytick_3">
     <g id="line2d_12">
      <g>
       <use xlink:href="#m98fd65232d" x="56.315625" y="168.216264" style="stroke: #000000; stroke-width: 0.8"/>
      </g>
     </g>
     <g id="text_13">
      <!-- 0.010 -->
      <g transform="translate(24.315625 171.653764)scale(0.1 -0.1)">
       <use xlink:href="#SimHei-30"/>
       <use xlink:href="#SimHei-2e" x="50"/>
       <use xlink:href="#SimHei-30" x="100"/>
       <use xlink:href="#SimHei-31" x="150"/>
       <use xlink:href="#SimHei-30" x="200"/>
      </g>
     </g>
    </g>
    <g id="ytick_4">
     <g id="line2d_13">
      <g>
       <use xlink:href="#m98fd65232d" x="56.315625" y="133.010831" style="stroke: #000000; stroke-width: 0.8"/>
      </g>
     </g>
     <g id="text_14">
      <!-- 0.015 -->
      <g transform="translate(24.315625 136.448331)scale(0.1 -0.1)">
       <use xlink:href="#SimHei-30"/>
       <use xlink:href="#SimHei-2e" x="50"/>
       <use xlink:href="#SimHei-30" x="100"/>
       <use xlink:href="#SimHei-31" x="150"/>
       <use xlink:href="#SimHei-35" x="200"/>
      </g>
     </g>
    </g>
    <g id="ytick_5">
     <g id="line2d_14">
      <g>
       <use xlink:href="#m98fd65232d" x="56.315625" y="97.805398" style="stroke: #000000; stroke-width: 0.8"/>
      </g>
     </g>
     <g id="text_15">
      <!-- 0.020 -->
      <g transform="translate(24.315625 101.242898)scale(0.1 -0.1)">
       <use xlink:href="#SimHei-30"/>
       <use xlink:href="#SimHei-2e" x="50"/>
       <use xlink:href="#SimHei-30" x="100"/>
       <use xlink:href="#SimHei-32" x="150"/>
       <use xlink:href="#SimHei-30" x="200"/>
      </g>
     </g>
    </g>
    <g id="ytick_6">
     <g id="line2d_15">
      <g>
       <use xlink:href="#m98fd65232d" x="56.315625" y="62.599965" style="stroke: #000000; stroke-width: 0.8"/>
      </g>
     </g>
     <g id="text_16">
      <!-- 0.025 -->
      <g transform="translate(24.315625 66.037465)scale(0.1 -0.1)">
       <use xlink:href="#SimHei-30"/>
       <use xlink:href="#SimHei-2e" x="50"/>
       <use xlink:href="#SimHei-30" x="100"/>
       <use xlink:href="#SimHei-32" x="150"/>
       <use xlink:href="#SimHei-35" x="200"/>
      </g>
     </g>
    </g>
    <g id="ytick_7">
     <g id="line2d_16">
      <g>
       <use xlink:href="#m98fd65232d" x="56.315625" y="27.394532" style="stroke: #000000; stroke-width: 0.8"/>
      </g>
     </g>
     <g id="text_17">
      <!-- 0.030 -->
      <g transform="translate(24.315625 30.832032)scale(0.1 -0.1)">
       <defs>
        <path id="SimHei-33" d="M 250 1225 
L 700 1300 
Q 800 975 1025 762 
Q 1250 550 1587 562 
Q 1925 575 2125 837 
Q 2325 1100 2300 1437 
Q 2275 1775 2037 1962 
Q 1800 2150 1275 2225 
L 1275 2550 
Q 1800 2600 2037 2825 
Q 2275 3050 2250 3412 
Q 2225 3775 1925 3937 
Q 1625 4100 1287 3975 
Q 950 3850 750 3275 
L 300 3350 
Q 450 3800 712 4100 
Q 975 4400 1425 4450 
Q 1875 4500 2212 4337 
Q 2550 4175 2687 3837 
Q 2825 3500 2725 3100 
Q 2625 2700 2150 2400 
Q 2500 2250 2687 1950 
Q 2875 1650 2812 1162 
Q 2750 675 2375 375 
Q 2000 75 1525 87 
Q 1050 100 700 387 
Q 350 675 250 1225 
z
" transform="scale(0.015625)"/>
       </defs>
       <use xlink:href="#SimHei-30"/>
       <use xlink:href="#SimHei-2e" x="50"/>
       <use xlink:href="#SimHei-30" x="100"/>
       <use xlink:href="#SimHei-33" x="150"/>
       <use xlink:href="#SimHei-30" x="200"/>
      </g>
     </g>
    </g>
    <g id="text_18">
     <!-- avg of abs(dis2-dis1)/(dis1+1) -->
     <g transform="translate(19.065625 212.585938)rotate(-90)scale(0.1 -0.1)">
      <defs>
       <path id="SimHei-61" d="M 2875 125 
L 2275 125 
Q 2225 175 2200 262 
Q 2175 350 2175 475 
Q 2000 275 1750 175 
Q 1500 75 1225 75 
Q 825 75 550 275 
Q 275 475 275 850 
Q 275 1225 525 1450 
Q 775 1675 1300 1750 
Q 1650 1800 1912 1875 
Q 2175 1950 2175 2075 
Q 2175 2225 2062 2375 
Q 1950 2525 1575 2525 
Q 1275 2525 1137 2412 
Q 1000 2300 950 2100 
L 400 2100 
Q 450 2500 762 2737 
Q 1075 2975 1575 2975 
Q 2125 2975 2400 2725 
Q 2675 2475 2675 2025 
L 2675 650 
Q 2675 500 2725 375 
Q 2775 250 2875 125 
z
M 2175 1050 
L 2175 1550 
Q 2025 1500 1887 1462 
Q 1750 1425 1425 1375 
Q 1050 1325 937 1200 
Q 825 1075 825 900 
Q 825 750 937 637 
Q 1050 525 1275 525 
Q 1500 525 1762 650 
Q 2025 775 2175 1050 
z
" transform="scale(0.015625)"/>
       <path id="SimHei-76" d="M 2875 2925 
L 1825 75 
L 1275 75 
L 225 2925 
L 750 2925 
L 1525 750 
L 1575 750 
L 2350 2925 
L 2875 2925 
z
" transform="scale(0.015625)"/>
       <path id="SimHei-67" d="M 2975 2500 
Q 2800 2550 2637 2562 
Q 2475 2575 2300 2525 
Q 2375 2450 2425 2337 
Q 2475 2225 2475 2000 
Q 2475 1575 2187 1300 
Q 1900 1025 1475 1025 
Q 1375 1025 1212 1062 
Q 1050 1100 950 1150 
Q 875 1100 850 1050 
Q 825 1000 825 925 
Q 825 800 1000 737 
Q 1175 675 1625 675 
Q 2350 675 2612 475 
Q 2875 275 2875 -25 
Q 2875 -425 2487 -612 
Q 2100 -800 1575 -800 
Q 900 -800 575 -625 
Q 250 -450 250 -150 
Q 250 0 375 150 
Q 500 300 700 400 
Q 550 475 462 587 
Q 375 700 375 875 
Q 375 1025 487 1137 
Q 600 1250 750 1325 
Q 625 1450 550 1625 
Q 475 1800 475 2000 
Q 475 2425 762 2700 
Q 1050 2975 1475 2975 
Q 1700 2975 1862 2912 
Q 2025 2850 2150 2725 
Q 2350 2875 2550 2937 
Q 2750 3000 2975 2975 
L 2975 2500 
z
M 1975 2000 
Q 1975 2250 1850 2400 
Q 1725 2550 1475 2550 
Q 1225 2550 1100 2400 
Q 975 2250 975 2000 
Q 975 1750 1100 1600 
Q 1225 1450 1475 1450 
Q 1725 1450 1850 1600 
Q 1975 1750 1975 2000 
z
M 2400 -75 
Q 2400 25 2287 125 
Q 2175 225 1725 225 
Q 1625 225 1450 237 
Q 1275 250 1050 275 
Q 850 200 775 100 
Q 700 0 700 -100 
Q 700 -250 900 -350 
Q 1100 -450 1600 -450 
Q 2025 -450 2212 -337 
Q 2400 -225 2400 -75 
z
" transform="scale(0.015625)"/>
       <path id="SimHei-20" transform="scale(0.015625)"/>
       <path id="SimHei-6f" d="M 2925 1525 
Q 2925 875 2525 475 
Q 2125 75 1575 75 
Q 1025 75 625 475 
Q 225 875 225 1525 
Q 225 2175 625 2575 
Q 1025 2975 1575 2975 
Q 2125 2975 2525 2575 
Q 2925 2175 2925 1525 
z
M 2375 1525 
Q 2375 2025 2125 2275 
Q 1875 2525 1575 2525 
Q 1275 2525 1025 2275 
Q 775 2025 775 1525 
Q 775 1025 1025 775 
Q 1275 525 1575 525 
Q 1875 525 2125 775 
Q 2375 1025 2375 1525 
z
" transform="scale(0.015625)"/>
       <path id="SimHei-66" d="M 2850 3825 
Q 2725 3900 2550 3950 
Q 2375 4000 2100 4000 
Q 1825 4000 1725 3862 
Q 1625 3725 1625 3525 
L 1625 2925 
L 2650 2925 
L 2650 2525 
L 1625 2525 
L 1625 125 
L 1125 125 
L 1125 2525 
L 275 2525 
L 275 2925 
L 1125 2925 
L 1125 3500 
Q 1125 3950 1400 4200 
Q 1675 4450 2125 4450 
Q 2400 4450 2562 4412 
Q 2725 4375 2850 4325 
L 2850 3825 
z
" transform="scale(0.015625)"/>
       <path id="SimHei-62" d="M 2825 1525 
Q 2825 800 2475 437 
Q 2125 75 1625 75 
Q 1350 75 1150 175 
Q 950 275 800 500 
L 800 125 
L 300 125 
L 300 4400 
L 800 4400 
L 800 2550 
Q 950 2775 1150 2887 
Q 1350 3000 1625 3000 
Q 2125 3000 2475 2625 
Q 2825 2250 2825 1525 
z
M 2275 1525 
Q 2275 2000 2087 2275 
Q 1900 2550 1525 2550 
Q 1225 2550 1012 2275 
Q 800 2000 800 1525 
Q 800 1050 1012 787 
Q 1225 525 1525 525 
Q 1900 525 2087 787 
Q 2275 1050 2275 1525 
z
" transform="scale(0.015625)"/>
       <path id="SimHei-73" d="M 2750 900 
Q 2750 500 2437 287 
Q 2125 75 1650 75 
Q 1050 75 725 312 
Q 400 550 400 1000 
L 900 1000 
Q 900 700 1112 600 
Q 1325 500 1625 500 
Q 1925 500 2075 612 
Q 2225 725 2225 900 
Q 2225 1025 2100 1150 
Q 1975 1275 1475 1350 
Q 900 1425 687 1637 
Q 475 1850 475 2200 
Q 475 2500 762 2737 
Q 1050 2975 1600 2975 
Q 2100 2975 2387 2750 
Q 2675 2525 2675 2150 
L 2175 2150 
Q 2175 2375 2012 2462 
Q 1850 2550 1600 2550 
Q 1275 2550 1137 2437 
Q 1000 2325 1000 2175 
Q 1000 2000 1125 1900 
Q 1250 1800 1650 1750 
Q 2300 1650 2525 1437 
Q 2750 1225 2750 900 
z
" transform="scale(0.015625)"/>
       <path id="SimHei-28" d="M 2975 -200 
L 2700 -475 
Q 2075 125 1762 775 
Q 1450 1425 1450 2250 
Q 1450 3075 1762 3725 
Q 2075 4375 2700 5000 
L 2975 4725 
Q 2400 4175 2112 3587 
Q 1825 3000 1825 2250 
Q 1825 1500 2112 912 
Q 2400 325 2975 -200 
z
" transform="scale(0.015625)"/>
       <path id="SimHei-64" d="M 2750 125 
L 2250 125 
L 2250 500 
Q 2100 275 1900 175 
Q 1700 75 1425 75 
Q 925 75 575 437 
Q 225 800 225 1525 
Q 225 2250 575 2625 
Q 925 3000 1425 3000 
Q 1700 3000 1900 2887 
Q 2100 2775 2250 2550 
L 2250 4400 
L 2750 4400 
L 2750 125 
z
M 2250 1525 
Q 2250 2000 2037 2275 
Q 1825 2550 1525 2550 
Q 1150 2550 962 2275 
Q 775 2000 775 1525 
Q 775 1050 962 787 
Q 1150 525 1525 525 
Q 1825 525 2037 787 
Q 2250 1050 2250 1525 
z
" transform="scale(0.015625)"/>
       <path id="SimHei-69" d="M 1800 3725 
L 1300 3725 
L 1300 4375 
L 1800 4375 
L 1800 3725 
z
M 1800 125 
L 1300 125 
L 1300 2925 
L 1800 2925 
L 1800 125 
z
" transform="scale(0.015625)"/>
       <path id="SimHei-2d" d="M 2975 2125 
L 125 2125 
L 125 2525 
L 2975 2525 
L 2975 2125 
z
" transform="scale(0.015625)"/>
       <path id="SimHei-29" d="M 1675 2250 
Q 1675 1425 1362 775 
Q 1050 125 425 -475 
L 150 -200 
Q 725 325 1012 912 
Q 1300 1500 1300 2250 
Q 1300 3000 1012 3587 
Q 725 4175 150 4725 
L 425 5000 
Q 1050 4375 1362 3725 
Q 1675 3075 1675 2250 
z
" transform="scale(0.015625)"/>
       <path id="SimHei-2f" d="M 3000 4550 
L 350 -175 
L 100 -25 
L 2750 4700 
L 3000 4550 
z
" transform="scale(0.015625)"/>
       <path id="SimHei-2b" d="M 3000 2125 
L 1775 2125 
L 1775 900 
L 1350 900 
L 1350 2125 
L 125 2125 
L 125 2525 
L 1350 2525 
L 1350 3750 
L 1775 3750 
L 1775 2525 
L 3000 2525 
L 3000 2125 
z
" transform="scale(0.015625)"/>
      </defs>
      <use xlink:href="#SimHei-61"/>
      <use xlink:href="#SimHei-76" x="50"/>
      <use xlink:href="#SimHei-67" x="100"/>
      <use xlink:href="#SimHei-20" x="150"/>
      <use xlink:href="#SimHei-6f" x="200"/>
      <use xlink:href="#SimHei-66" x="250"/>
      <use xlink:href="#SimHei-20" x="300"/>
      <use xlink:href="#SimHei-61" x="350"/>
      <use xlink:href="#SimHei-62" x="400"/>
      <use xlink:href="#SimHei-73" x="450"/>
      <use xlink:href="#SimHei-28" x="500"/>
      <use xlink:href="#SimHei-64" x="550"/>
      <use xlink:href="#SimHei-69" x="600"/>
      <use xlink:href="#SimHei-73" x="650"/>
      <use xlink:href="#SimHei-32" x="700"/>
      <use xlink:href="#SimHei-2d" x="750"/>
      <use xlink:href="#SimHei-64" x="800"/>
      <use xlink:href="#SimHei-69" x="850"/>
      <use xlink:href="#SimHei-73" x="900"/>
      <use xlink:href="#SimHei-31" x="950"/>
      <use xlink:href="#SimHei-29" x="1000"/>
      <use xlink:href="#SimHei-2f" x="1050"/>
      <use xlink:href="#SimHei-28" x="1100"/>
      <use xlink:href="#SimHei-64" x="1150"/>
      <use xlink:href="#SimHei-69" x="1200"/>
      <use xlink:href="#SimHei-73" x="1250"/>
      <use xlink:href="#SimHei-31" x="1300"/>
      <use xlink:href="#SimHei-2b" x="1350"/>
      <use xlink:href="#SimHei-31" x="1400"/>
      <use xlink:href="#SimHei-29" x="1450"/>
     </g>
    </g>
   </g>
   <g id="line2d_17">
    <path d="M 72.901278 238.627131 
L 82.85267 237.065706 
L 86.169801 236.603 
L 87.828366 236.222023 
L 89.486932 236.071331 
L 91.145497 235.781976 
L 92.804063 235.377338 
L 94.462628 235.18957 
L 96.121193 234.731615 
L 97.779759 234.656364 
L 99.438324 234.046138 
L 101.096889 234.090276 
L 102.755455 233.930663 
L 104.41402 233.33611 
L 107.731151 233.318998 
L 109.389716 232.984764 
L 112.706847 232.673818 
L 114.365412 232.076084 
L 116.023977 231.817781 
L 117.682543 230.96416 
L 119.341108 231.493482 
L 120.999673 231.42589 
L 122.658239 230.48865 
L 125.975369 230.056541 
L 127.633935 229.873844 
L 129.2925 229.472939 
L 130.951065 229.208735 
L 132.609631 229.168066 
L 135.926761 228.002251 
L 137.585327 227.606708 
L 140.902457 227.924564 
L 142.561023 227.680948 
L 144.219588 227.735614 
L 145.878153 226.89064 
L 147.536719 226.940481 
L 149.195284 226.413979 
L 150.853849 225.675889 
L 152.512415 225.964389 
L 154.17098 226.109313 
L 155.829545 225.253619 
L 157.488111 225.125015 
L 159.146676 225.123812 
L 160.805241 224.458153 
L 162.463807 224.597338 
L 164.122372 223.841347 
L 165.780937 223.639617 
L 167.439503 222.658285 
L 169.098068 223.076584 
L 170.756634 222.384335 
L 172.415199 222.570744 
L 174.073764 222.367238 
L 175.73233 221.834367 
L 177.390895 222.089171 
L 179.04946 221.665158 
L 180.708026 220.887934 
L 182.366591 220.651319 
L 184.025156 220.931471 
L 185.683722 220.816277 
L 187.342287 219.705245 
L 189.000852 220.073452 
L 190.659418 221.155975 
L 192.317983 219.405437 
L 193.976548 219.04305 
L 195.635114 219.361827 
L 197.293679 217.387797 
L 198.952244 217.187103 
L 202.269375 218.368742 
L 203.92794 216.788965 
L 205.586506 217.183873 
L 207.245071 218.191756 
L 208.903636 216.156095 
L 210.562202 216.143213 
L 212.220767 215.614961 
L 213.879332 216.500224 
L 215.537898 215.997197 
L 217.196463 215.339267 
L 218.855028 214.281852 
L 220.513594 214.716597 
L 222.172159 213.658487 
L 223.830724 214.203932 
L 225.48929 214.08523 
L 227.147855 214.779288 
L 228.80642 214.573807 
L 230.464986 213.268812 
L 232.123551 212.397395 
L 233.782116 212.653798 
L 235.440682 211.699938 
L 237.099247 210.942215 
L 238.757812 212.278048 
L 240.416378 211.838125 
L 242.074943 212.419392 
L 243.733509 210.848149 
L 245.392074 211.447827 
L 247.050639 210.153901 
L 248.709205 210.024472 
L 252.026335 210.034144 
L 253.684901 209.074257 
L 255.343466 210.185102 
L 257.002031 208.813228 
L 258.660597 208.85705 
L 260.319162 209.746925 
L 261.977727 208.375676 
L 263.636293 207.587597 
L 265.294858 207.433408 
L 266.953423 208.509499 
L 268.611989 206.33522 
L 270.270554 207.854204 
L 271.929119 206.620883 
L 273.587685 204.207214 
L 275.24625 206.39795 
L 276.904815 205.776686 
L 278.563381 203.529576 
L 280.221946 203.281187 
L 281.880511 203.645606 
L 283.539077 203.411681 
L 285.197642 203.514489 
L 286.856207 202.155922 
L 288.514773 204.496046 
L 290.173338 204.01441 
L 291.831903 203.029326 
L 293.490469 203.429221 
L 295.149034 203.435177 
L 296.807599 201.765177 
L 298.466165 201.91033 
L 300.12473 201.70091 
L 301.783295 198.803204 
L 303.441861 201.534738 
L 305.100426 199.298181 
L 306.758991 199.613474 
L 308.417557 199.70237 
L 310.076122 200.85112 
L 311.734688 200.093946 
L 313.393253 199.528749 
L 315.051818 200.033049 
L 316.710384 198.814139 
L 318.368949 198.12469 
L 320.027514 199.224954 
L 321.68608 198.46093 
L 323.344645 198.214593 
L 325.00321 196.721579 
L 326.661776 196.716434 
L 328.320341 196.070674 
L 329.978906 194.851214 
L 331.637472 195.351173 
L 333.296037 195.320175 
L 334.954602 194.346603 
L 336.613168 196.479859 
L 338.271733 196.387991 
L 339.930298 195.253894 
L 341.588864 194.893464 
L 343.247429 193.498317 
L 344.905994 192.781226 
L 348.223125 195.134196 
L 349.88169 194.183527 
L 351.540256 190.259274 
L 353.198821 191.954077 
L 356.515952 191.276773 
L 358.174517 191.912639 
L 361.491648 187.884022 
L 363.150213 193.378399 
L 364.808778 187.149345 
L 366.467344 189.39831 
L 368.125909 190.688219 
L 369.784474 191.396463 
L 371.44304 189.924866 
L 373.101605 187.186165 
L 374.76017 189.288587 
L 376.418736 186.025191 
L 378.077301 187.261847 
L 379.735866 188.821345 
L 381.394432 188.664061 
L 383.052997 186.628672 
L 384.711563 185.773722 
L 386.370128 186.218607 
L 388.028693 184.179247 
L 389.687259 185.586115 
L 391.345824 182.486675 
L 393.004389 184.292004 
L 394.662955 182.729809 
L 396.32152 184.862456 
L 397.980085 183.135143 
L 399.638651 180.383037 
L 402.955781 183.292985 
L 404.614347 182.391489 
L 404.614347 182.391489 
" clip-path="url(#p960a37b6e1)" style="fill: none; stroke: #1f77b4; stroke-width: 2; stroke-linecap: square"/>
   </g>
   <g id="line2d_18">
    <path d="M 72.901278 238.627131 
L 74.559844 235.377172 
L 76.218409 230.51516 
L 77.876974 229.089366 
L 79.53554 225.811194 
L 81.194105 224.826847 
L 82.85267 220.358091 
L 84.511236 219.281913 
L 86.169801 206.152229 
L 87.828366 216.158356 
L 89.486932 210.430254 
L 91.145497 211.817592 
L 92.804063 205.017578 
L 94.462628 207.499813 
L 96.121193 207.777132 
L 97.779759 200.521606 
L 99.438324 200.983293 
L 101.096889 203.072479 
L 102.755455 197.620412 
L 104.41402 202.851159 
L 107.731151 193.383538 
L 109.389716 200.608813 
L 111.048281 195.067921 
L 112.706847 193.877599 
L 114.365412 178.856775 
L 116.023977 193.001063 
L 117.682543 190.863072 
L 119.341108 188.22643 
L 120.999673 187.197621 
L 122.658239 189.798755 
L 124.316804 182.846532 
L 125.975369 189.973265 
L 127.633935 183.119867 
L 129.2925 180.001599 
L 130.951065 178.106378 
L 132.609631 181.342771 
L 134.268196 174.475525 
L 135.926761 181.499617 
L 137.585327 170.631508 
L 139.243892 175.450977 
L 140.902457 175.304999 
L 142.561023 175.665297 
L 144.219588 165.743165 
L 145.878153 167.455268 
L 147.536719 163.054641 
L 149.195284 173.047545 
L 150.853849 169.529876 
L 152.512415 166.861069 
L 154.17098 170.498602 
L 155.829545 162.158341 
L 157.488111 171.089552 
L 159.146676 161.654047 
L 160.805241 162.646993 
L 162.463807 164.001048 
L 164.122372 161.334337 
L 165.780937 157.049784 
L 167.439503 136.500931 
L 169.098068 162.167365 
L 170.756634 152.152533 
L 172.415199 153.175097 
L 174.073764 153.401246 
L 175.73233 154.097562 
L 177.390895 139.80944 
L 179.04946 154.572662 
L 180.708026 153.165072 
L 182.366591 146.623746 
L 184.025156 152.71778 
L 185.683722 150.098788 
L 187.342287 142.926488 
L 189.000852 141.636382 
L 190.659418 150.935932 
L 192.317983 144.165827 
L 193.976548 141.176853 
L 195.635114 145.33755 
L 197.293679 146.84844 
L 198.952244 139.204537 
L 200.61081 142.762991 
L 202.269375 138.085231 
L 203.92794 143.976242 
L 205.586506 133.410822 
L 207.245071 142.848629 
L 208.903636 135.13986 
L 210.562202 135.06248 
L 212.220767 139.07466 
L 213.879332 136.115077 
L 215.537898 114.489681 
L 217.196463 133.319075 
L 218.855028 115.97314 
L 220.513594 132.992676 
L 222.172159 131.236393 
L 223.830724 126.239817 
L 225.48929 140.091289 
L 227.147855 124.945092 
L 228.80642 134.844449 
L 230.464986 129.850461 
L 232.123551 136.099592 
L 233.782116 130.916025 
L 235.440682 123.482841 
L 237.099247 113.21484 
L 238.757812 133.263859 
L 240.416378 133.473708 
L 242.074943 127.747884 
L 245.392074 118.851055 
L 247.050639 113.299379 
L 248.709205 120.501172 
L 250.36777 114.995589 
L 252.026335 127.822275 
L 253.684901 123.86811 
L 255.343466 118.072782 
L 257.002031 118.590776 
L 258.660597 105.984085 
L 260.319162 102.91578 
L 261.977727 111.962463 
L 263.636293 120.162915 
L 265.294858 116.34581 
L 266.953423 112.091238 
L 268.611989 113.838316 
L 270.270554 111.157917 
L 271.929119 101.486051 
L 273.587685 106.230913 
L 275.24625 104.131508 
L 276.904815 105.771377 
L 278.563381 114.605564 
L 280.221946 104.015476 
L 281.880511 98.932156 
L 283.539077 113.138461 
L 285.197642 96.638563 
L 286.856207 96.391561 
L 288.514773 118.148801 
L 290.173338 109.527055 
L 291.831903 105.73745 
L 293.490469 77.640173 
L 295.149034 94.466049 
L 296.807599 98.507239 
L 298.466165 100.1647 
L 300.12473 91.172247 
L 301.783295 106.879775 
L 303.441861 102.119881 
L 305.100426 94.807249 
L 306.758991 89.791493 
L 308.417557 94.739224 
L 310.076122 91.642543 
L 311.734688 80.264351 
L 313.393253 106.167598 
L 318.368949 83.871824 
L 320.027514 101.259411 
L 321.68608 95.285932 
L 323.344645 84.361654 
L 325.00321 83.799998 
L 326.661776 89.660625 
L 328.320341 96.386726 
L 329.978906 83.938463 
L 331.637472 88.34753 
L 333.296037 79.731461 
L 334.954602 77.406515 
L 336.613168 100.277859 
L 338.271733 82.31178 
L 339.930298 76.757247 
L 341.588864 97.718542 
L 343.247429 89.296796 
L 344.905994 96.532246 
L 346.56456 88.996195 
L 348.223125 69.161251 
L 349.88169 80.243442 
L 351.540256 51.317718 
L 353.198821 76.622325 
L 354.857386 58.810934 
L 356.515952 70.654669 
L 358.174517 69.492759 
L 359.833082 71.611834 
L 361.491648 69.109141 
L 363.150213 92.079551 
L 364.808778 78.26563 
L 366.467344 81.233069 
L 368.125909 76.790541 
L 369.784474 79.823698 
L 371.44304 68.943309 
L 373.101605 79.954211 
L 374.76017 66.261685 
L 376.418736 67.470159 
L 378.077301 77.339816 
L 383.052997 67.805293 
L 384.711563 72.491001 
L 386.370128 69.268288 
L 388.028693 73.216349 
L 389.687259 68.360118 
L 391.345824 42.573956 
L 393.004389 61.928595 
L 396.32152 79.447214 
L 397.980085 71.400708 
L 399.638651 46.44586 
L 401.297216 69.514037 
L 402.955781 36.544744 
L 404.614347 67.06737 
L 404.614347 67.06737 
" clip-path="url(#p960a37b6e1)" style="fill: none; stroke: #ff7f0e; stroke-width: 3; stroke-linecap: square"/>
   </g>
   <g id="line2d_19">
    <path d="M 72.901278 238.627131 
L 82.85267 236.569923 
L 86.169801 235.905066 
L 94.462628 234.002751 
L 96.121193 233.420091 
L 97.779759 233.161386 
L 99.438324 232.300904 
L 101.096889 232.497654 
L 102.755455 232.342182 
L 104.41402 231.713238 
L 106.072585 231.56732 
L 109.389716 231.024307 
L 111.048281 231.017836 
L 114.365412 229.782463 
L 116.023977 229.454731 
L 117.682543 228.443093 
L 119.341108 229.15852 
L 120.999673 229.343967 
L 122.658239 227.712234 
L 124.316804 227.023979 
L 125.975369 226.814858 
L 127.633935 227.239364 
L 129.2925 226.505783 
L 130.951065 225.298216 
L 132.609631 225.857723 
L 134.268196 225.49678 
L 137.585327 223.864086 
L 139.243892 224.611139 
L 142.561023 224.252851 
L 144.219588 223.63229 
L 145.878153 223.263744 
L 147.536719 222.614471 
L 149.195284 222.722921 
L 150.853849 221.619773 
L 152.512415 221.555399 
L 154.17098 221.61562 
L 155.829545 220.176215 
L 157.488111 220.315872 
L 159.146676 220.846411 
L 160.805241 219.913314 
L 162.463807 219.2748 
L 164.122372 218.764962 
L 165.780937 218.801844 
L 167.439503 218.03034 
L 169.098068 218.409444 
L 170.756634 216.06819 
L 172.415199 217.414967 
L 174.073764 217.09017 
L 175.73233 215.991979 
L 177.390895 216.191196 
L 179.04946 215.909461 
L 180.708026 214.843287 
L 182.366591 215.395319 
L 184.025156 214.100502 
L 185.683722 214.211767 
L 187.342287 213.274481 
L 189.000852 213.943322 
L 190.659418 215.063041 
L 192.317983 213.266007 
L 193.976548 212.527558 
L 195.635114 212.961712 
L 197.293679 210.638769 
L 200.61081 210.158041 
L 202.269375 210.787669 
L 203.92794 210.456479 
L 205.586506 211.278277 
L 207.245071 211.257318 
L 208.903636 209.394177 
L 210.562202 209.375021 
L 212.220767 209.037748 
L 213.879332 209.398156 
L 215.537898 207.501469 
L 217.196463 207.322186 
L 218.855028 206.879688 
L 220.513594 206.92381 
L 222.172159 206.84915 
L 223.830724 206.369576 
L 225.48929 205.587238 
L 227.147855 206.499013 
L 228.80642 206.795554 
L 230.464986 204.830745 
L 232.123551 204.741111 
L 233.782116 204.481441 
L 235.440682 202.74691 
L 237.099247 202.890452 
L 240.416378 204.081591 
L 242.074943 203.363181 
L 243.733509 201.728998 
L 245.392074 202.782271 
L 247.050639 200.241392 
L 248.709205 201.34872 
L 250.36777 201.948264 
L 252.026335 200.101245 
L 253.684901 200.123367 
L 255.343466 200.570619 
L 257.002031 198.577444 
L 258.660597 200.964863 
L 260.319162 199.54151 
L 261.977727 198.915128 
L 263.636293 197.633593 
L 265.294858 196.565547 
L 266.953423 198.777778 
L 268.611989 194.201879 
L 270.270554 197.975368 
L 271.929119 196.735634 
L 273.587685 193.294477 
L 275.24625 195.12557 
L 276.904815 193.775313 
L 278.563381 191.804898 
L 280.221946 190.894936 
L 281.880511 193.073122 
L 283.539077 192.793988 
L 285.197642 191.635618 
L 286.856207 191.547577 
L 288.514773 191.596296 
L 290.173338 193.402987 
L 291.831903 192.317865 
L 293.490469 190.998408 
L 295.149034 191.402101 
L 296.807599 190.017844 
L 298.466165 190.177317 
L 300.12473 190.010835 
L 301.783295 185.303724 
L 303.441861 189.490003 
L 305.100426 187.79808 
L 308.417557 185.636187 
L 310.076122 189.104298 
L 311.734688 190.034262 
L 313.393253 185.051068 
L 315.051818 185.089845 
L 316.710384 185.49258 
L 318.368949 185.342277 
L 320.027514 186.060932 
L 321.68608 187.311955 
L 323.344645 183.880245 
L 325.00321 185.110103 
L 326.661776 183.293924 
L 328.320341 181.757377 
L 329.978906 182.186832 
L 331.637472 178.936238 
L 333.296037 178.751397 
L 334.954602 180.953779 
L 336.613168 183.391897 
L 338.271733 181.762433 
L 339.930298 181.544226 
L 341.588864 183.804821 
L 343.247429 180.541214 
L 344.905994 179.39809 
L 346.56456 178.673237 
L 348.223125 181.554047 
L 349.88169 180.979193 
L 351.540256 176.416906 
L 353.198821 177.668993 
L 354.857386 176.411981 
L 356.515952 175.820031 
L 358.174517 175.91676 
L 359.833082 173.550617 
L 361.491648 172.167146 
L 363.150213 177.884133 
L 364.808778 169.78726 
L 366.467344 171.709205 
L 368.125909 177.16723 
L 369.784474 176.301396 
L 371.44304 177.412675 
L 373.101605 168.78384 
L 374.76017 172.134017 
L 376.418736 170.336923 
L 378.077301 170.600998 
L 379.735866 173.143996 
L 381.394432 173.021008 
L 383.052997 168.158984 
L 384.711563 172.177236 
L 388.028693 169.219579 
L 389.687259 166.324542 
L 391.345824 165.716237 
L 393.004389 167.984038 
L 394.662955 167.958793 
L 396.32152 168.899355 
L 397.980085 166.993483 
L 399.638651 164.500081 
L 401.297216 165.926911 
L 402.955781 166.766781 
L 404.614347 167.460406 
L 404.614347 167.460406 
" clip-path="url(#p960a37b6e1)" style="fill: none; stroke: #2ca02c; stroke-width: 2; stroke-linecap: square"/>
   </g>
   <g id="line2d_20">
    <path d="M 72.901278 238.627131 
L 74.559844 235.627767 
L 76.218409 231.999526 
L 77.876974 229.780461 
L 79.53554 227.112333 
L 81.194105 225.786878 
L 82.85267 221.325356 
L 84.511236 221.249646 
L 86.169801 213.171235 
L 87.828366 218.482577 
L 89.486932 214.145128 
L 91.145497 214.873871 
L 92.804063 210.426515 
L 94.462628 209.669678 
L 96.121193 206.960977 
L 97.779759 203.268612 
L 99.438324 204.918118 
L 101.096889 204.867433 
L 102.755455 202.394231 
L 104.41402 204.159009 
L 106.072585 201.13837 
L 107.731151 198.641989 
L 109.389716 200.158251 
L 111.048281 197.088029 
L 112.706847 195.9716 
L 114.365412 184.858038 
L 116.023977 194.054072 
L 117.682543 189.977371 
L 119.341108 189.630515 
L 120.999673 191.177014 
L 122.658239 192.03649 
L 124.316804 187.447917 
L 125.975369 188.743479 
L 127.633935 185.849346 
L 129.2925 183.852128 
L 130.951065 184.459215 
L 132.609631 185.393578 
L 134.268196 178.971745 
L 135.926761 182.559424 
L 137.585327 177.652635 
L 139.243892 176.950947 
L 140.902457 178.62512 
L 142.561023 178.440079 
L 144.219588 173.610661 
L 145.878153 171.201874 
L 147.536719 171.114253 
L 149.195284 178.575485 
L 150.853849 174.386163 
L 152.512415 172.323421 
L 154.17098 174.236518 
L 155.829545 166.199926 
L 157.488111 172.786721 
L 159.146676 166.828022 
L 160.805241 168.850404 
L 162.463807 166.998436 
L 164.122372 162.984011 
L 165.780937 164.24077 
L 167.439503 148.97444 
L 169.098068 167.340726 
L 170.756634 164.150856 
L 172.415199 157.348097 
L 174.073764 156.266009 
L 175.73233 160.959411 
L 177.390895 148.573239 
L 179.04946 158.999008 
L 180.708026 159.789615 
L 182.366591 154.672308 
L 184.025156 155.170024 
L 185.683722 155.454845 
L 187.342287 147.682888 
L 189.000852 149.686779 
L 190.659418 152.854508 
L 192.317983 149.015099 
L 193.976548 149.854737 
L 195.635114 149.172426 
L 197.293679 151.085452 
L 198.952244 146.955294 
L 200.61081 155.59538 
L 202.269375 146.144283 
L 203.92794 148.92558 
L 205.586506 146.696837 
L 207.245071 147.422905 
L 208.903636 147.72064 
L 210.562202 149.503951 
L 212.220767 147.007749 
L 213.879332 140.839526 
L 215.537898 128.080972 
L 217.196463 139.856208 
L 218.855028 126.250445 
L 220.513594 139.258473 
L 222.172159 136.098883 
L 223.830724 134.017373 
L 225.48929 144.185553 
L 227.147855 135.521194 
L 228.80642 141.051353 
L 230.464986 135.207858 
L 232.123551 143.045317 
L 233.782116 133.630387 
L 235.440682 133.832136 
L 237.099247 124.105853 
L 238.757812 139.755851 
L 240.416378 138.061276 
L 242.074943 135.36437 
L 243.733509 131.002387 
L 245.392074 128.099702 
L 247.050639 128.721971 
L 248.709205 126.621933 
L 250.36777 119.137983 
L 252.026335 134.141015 
L 253.684901 130.39797 
L 255.343466 118.15566 
L 257.002031 124.923184 
L 258.660597 115.889903 
L 260.319162 112.733709 
L 261.977727 123.513137 
L 263.636293 126.07157 
L 265.294858 121.172586 
L 266.953423 118.872506 
L 268.611989 125.788763 
L 270.270554 117.216688 
L 271.929119 117.044578 
L 273.587685 115.967861 
L 275.24625 115.190644 
L 276.904815 111.130871 
L 278.563381 124.772018 
L 280.221946 114.715062 
L 281.880511 108.056151 
L 283.539077 112.918059 
L 285.197642 109.146617 
L 286.856207 107.457327 
L 288.514773 124.398822 
L 290.173338 114.274012 
L 291.831903 113.640225 
L 293.490469 89.796038 
L 295.149034 111.670674 
L 296.807599 118.964942 
L 298.466165 110.86924 
L 300.12473 107.228199 
L 301.783295 114.324439 
L 303.441861 111.198575 
L 305.100426 110.738339 
L 306.758991 103.134808 
L 308.417557 104.391029 
L 310.076122 101.627419 
L 311.734688 95.070513 
L 313.393253 108.104333 
L 315.051818 109.575118 
L 316.710384 100.786118 
L 318.368949 99.884511 
L 320.027514 106.24289 
L 321.68608 110.840298 
L 323.344645 95.37319 
L 325.00321 93.238086 
L 326.661776 105.599795 
L 328.320341 101.363224 
L 329.978906 98.165048 
L 331.637472 101.492578 
L 333.296037 96.815052 
L 334.954602 99.3223 
L 336.613168 104.438821 
L 338.271733 98.361676 
L 339.930298 91.252759 
L 341.588864 107.173566 
L 343.247429 97.411348 
L 344.905994 99.02069 
L 346.56456 98.047457 
L 348.223125 86.604513 
L 349.88169 93.99328 
L 351.540256 73.471706 
L 353.198821 88.460702 
L 354.857386 79.510393 
L 356.515952 87.242233 
L 358.174517 80.404812 
L 359.833082 93.468942 
L 361.491648 85.051496 
L 363.150213 94.604316 
L 364.808778 90.000628 
L 366.467344 92.764885 
L 368.125909 88.550078 
L 369.784474 92.456531 
L 371.44304 83.625252 
L 373.101605 86.635152 
L 374.76017 81.417924 
L 376.418736 81.270548 
L 378.077301 87.116178 
L 379.735866 91.598822 
L 381.394432 90.10428 
L 383.052997 89.32666 
L 384.711563 81.005285 
L 386.370128 84.294943 
L 388.028693 84.446872 
L 389.687259 77.944928 
L 391.345824 63.655055 
L 393.004389 68.806294 
L 394.662955 78.316847 
L 396.32152 85.628225 
L 397.980085 78.722986 
L 399.638651 65.880228 
L 401.297216 77.838254 
L 402.955781 52.369031 
L 404.614347 76.062349 
L 404.614347 76.062349 
" clip-path="url(#p960a37b6e1)" style="fill: none; stroke: #d62728; stroke-width: 2; stroke-linecap: square"/>
   </g>
   <g id="line2d_21">
    <path d="M 72.901278 238.627131 
L 79.53554 235.646601 
L 81.194105 235.182799 
L 82.85267 234.331956 
L 89.486932 231.566284 
L 91.145497 231.14214 
L 92.804063 230.593828 
L 96.121193 228.633883 
L 101.096889 226.245116 
L 102.755455 225.543346 
L 104.41402 225.312343 
L 106.072585 224.932667 
L 107.731151 224.871546 
L 109.389716 223.055768 
L 111.048281 222.333179 
L 112.706847 220.704176 
L 114.365412 219.803117 
L 116.023977 221.807256 
L 117.682543 219.401111 
L 119.341108 218.685609 
L 120.999673 219.742172 
L 122.658239 218.520377 
L 124.316804 216.113259 
L 125.975369 216.540094 
L 127.633935 216.805217 
L 129.2925 214.793572 
L 130.951065 214.001161 
L 132.609631 214.395181 
L 134.268196 212.59552 
L 137.585327 211.986539 
L 139.243892 210.269845 
L 140.902457 211.04732 
L 142.561023 209.494508 
L 144.219588 209.484233 
L 145.878153 207.472903 
L 147.536719 208.743055 
L 149.195284 207.954894 
L 150.853849 206.431973 
L 152.512415 206.614228 
L 154.17098 203.155267 
L 155.829545 203.595722 
L 157.488111 203.151665 
L 159.146676 204.35435 
L 162.463807 201.161443 
L 164.122372 201.499665 
L 165.780937 201.593894 
L 167.439503 199.493388 
L 169.098068 198.619277 
L 170.756634 198.229419 
L 172.415199 199.040254 
L 174.073764 197.033338 
L 175.73233 197.196137 
L 177.390895 196.677192 
L 179.04946 193.465956 
L 180.708026 192.923615 
L 182.366591 194.335588 
L 184.025156 194.831623 
L 185.683722 190.877831 
L 187.342287 192.309898 
L 189.000852 192.316444 
L 190.659418 192.8928 
L 192.317983 192.236803 
L 193.976548 188.771707 
L 195.635114 189.788595 
L 197.293679 189.293981 
L 198.952244 190.909861 
L 200.61081 187.916303 
L 202.269375 186.420107 
L 203.92794 187.360706 
L 205.586506 184.58111 
L 207.245071 186.522057 
L 208.903636 182.529166 
L 210.562202 184.020785 
L 212.220767 185.103588 
L 213.879332 180.777489 
L 215.537898 183.316179 
L 217.196463 183.283827 
L 218.855028 179.521275 
L 220.513594 180.688124 
L 222.172159 179.655069 
L 223.830724 179.948568 
L 225.48929 180.918059 
L 227.147855 178.501118 
L 228.80642 178.96157 
L 230.464986 172.439291 
L 232.123551 177.31654 
L 233.782116 177.130967 
L 235.440682 174.004503 
L 237.099247 173.857002 
L 238.757812 174.194904 
L 240.416378 171.293922 
L 242.074943 171.704277 
L 243.733509 174.278176 
L 245.392074 170.006518 
L 247.050639 173.203432 
L 248.709205 167.357934 
L 250.36777 170.468572 
L 252.026335 168.146715 
L 253.684901 169.463459 
L 255.343466 169.263262 
L 257.002031 170.445463 
L 258.660597 168.714025 
L 260.319162 162.712497 
L 261.977727 170.197858 
L 263.636293 165.84386 
L 265.294858 163.313513 
L 266.953423 162.208773 
L 268.611989 163.911412 
L 270.270554 161.827921 
L 271.929119 165.967363 
L 273.587685 164.158681 
L 275.24625 158.420266 
L 276.904815 163.163286 
L 278.563381 161.140857 
L 280.221946 157.202074 
L 281.880511 159.832727 
L 283.539077 154.400036 
L 285.197642 159.34418 
L 286.856207 161.916219 
L 288.514773 158.963758 
L 290.173338 157.618017 
L 291.831903 158.646324 
L 293.490469 154.88198 
L 295.149034 156.46287 
L 296.807599 156.593874 
L 298.466165 153.671714 
L 300.12473 151.314347 
L 301.783295 150.4507 
L 303.441861 146.205816 
L 305.100426 149.541097 
L 306.758991 146.693221 
L 308.417557 147.571692 
L 310.076122 147.895406 
L 313.393253 149.955661 
L 315.051818 149.968727 
L 316.710384 149.206896 
L 320.027514 144.874396 
L 321.68608 145.741683 
L 323.344645 142.579724 
L 325.00321 144.800135 
L 328.320341 139.942709 
L 329.978906 145.057164 
L 331.637472 140.594135 
L 333.296037 143.627951 
L 334.954602 142.498427 
L 336.613168 143.42401 
L 338.271733 140.511112 
L 339.930298 136.003167 
L 341.588864 139.981484 
L 343.247429 132.921253 
L 344.905994 137.809343 
L 346.56456 144.713726 
L 348.223125 137.114457 
L 349.88169 133.492551 
L 351.540256 132.809537 
L 353.198821 134.299007 
L 354.857386 137.862719 
L 356.515952 138.028439 
L 358.174517 138.07337 
L 359.833082 136.747752 
L 361.491648 133.000283 
L 363.150213 133.39759 
L 364.808778 133.160437 
L 366.467344 132.200466 
L 368.125909 137.024197 
L 369.784474 131.908352 
L 371.44304 127.995849 
L 373.101605 128.06438 
L 374.76017 130.163791 
L 376.418736 126.657345 
L 378.077301 125.640461 
L 379.735866 129.614944 
L 381.394432 130.300641 
L 383.052997 132.433287 
L 384.711563 122.676011 
L 386.370128 123.351944 
L 388.028693 129.469831 
L 389.687259 132.586417 
L 391.345824 123.600939 
L 393.004389 126.007347 
L 394.662955 125.268056 
L 396.32152 123.76026 
L 397.980085 124.010182 
L 399.638651 124.403003 
L 401.297216 130.295903 
L 402.955781 116.376839 
L 404.614347 121.73763 
L 404.614347 121.73763 
" clip-path="url(#p960a37b6e1)" style="fill: none; stroke: #9467bd; stroke-width: 2; stroke-linecap: square"/>
   </g>
   <g id="line2d_22">
    <path d="M 72.901278 238.627131 
L 79.53554 235.502897 
L 81.194105 234.98865 
L 84.511236 233.38202 
L 86.169801 232.65998 
L 87.828366 232.096069 
L 89.486932 231.328476 
L 92.804063 230.313732 
L 96.121193 228.298563 
L 97.779759 227.287277 
L 99.438324 226.483979 
L 101.096889 225.482553 
L 102.755455 225.104587 
L 104.41402 224.544639 
L 106.072585 224.224012 
L 107.731151 224.088339 
L 109.389716 222.209471 
L 111.048281 221.848633 
L 112.706847 220.296697 
L 114.365412 219.052451 
L 116.023977 221.264266 
L 117.682543 218.472373 
L 119.341108 218.34418 
L 120.999673 218.699874 
L 122.658239 217.720287 
L 124.316804 215.325296 
L 127.633935 215.617284 
L 129.2925 214.164445 
L 130.951065 213.273978 
L 132.609631 213.234953 
L 134.268196 211.575929 
L 135.926761 210.782263 
L 137.585327 210.740528 
L 139.243892 209.444103 
L 140.902457 209.304892 
L 142.561023 208.009088 
L 144.219588 208.389429 
L 145.878153 206.419862 
L 147.536719 208.099765 
L 149.195284 207.369871 
L 150.853849 205.418847 
L 152.512415 204.412647 
L 154.17098 201.715235 
L 155.829545 202.993706 
L 157.488111 200.909768 
L 159.146676 202.441644 
L 160.805241 202.155727 
L 162.463807 200.091174 
L 164.122372 200.560844 
L 165.780937 200.140131 
L 167.439503 198.406443 
L 169.098068 197.182424 
L 170.756634 196.289029 
L 172.415199 197.898559 
L 174.073764 194.896915 
L 175.73233 194.940392 
L 177.390895 195.317731 
L 179.04946 192.392473 
L 180.708026 191.085148 
L 182.366591 193.081488 
L 184.025156 192.880283 
L 185.683722 189.012232 
L 187.342287 189.690538 
L 189.000852 189.926564 
L 190.659418 191.285156 
L 192.317983 190.281802 
L 193.976548 185.905059 
L 195.635114 187.172534 
L 197.293679 187.840378 
L 198.952244 189.054622 
L 200.61081 185.286828 
L 202.269375 183.777909 
L 203.92794 185.24812 
L 205.586506 181.93642 
L 207.245071 181.779501 
L 208.903636 180.020206 
L 212.220767 182.702309 
L 213.879332 178.314814 
L 215.537898 179.638454 
L 217.196463 180.218928 
L 218.855028 177.453978 
L 220.513594 177.544251 
L 222.172159 176.613652 
L 223.830724 177.466386 
L 225.48929 177.209001 
L 227.147855 175.913713 
L 228.80642 176.839925 
L 230.464986 169.037793 
L 232.123551 175.199683 
L 233.782116 174.149974 
L 235.440682 170.995121 
L 237.099247 170.499449 
L 238.757812 171.602109 
L 240.416378 167.052116 
L 242.074943 168.348243 
L 243.733509 171.186885 
L 245.392074 164.263505 
L 247.050639 169.44336 
L 248.709205 163.593107 
L 250.36777 167.036733 
L 252.026335 164.930853 
L 253.684901 165.643929 
L 255.343466 165.132824 
L 257.002031 165.895847 
L 258.660597 165.092247 
L 260.319162 157.007597 
L 261.977727 167.994934 
L 263.636293 161.454401 
L 265.294858 159.449799 
L 266.953423 159.940673 
L 268.611989 159.725726 
L 270.270554 158.956583 
L 271.929119 163.240353 
L 273.587685 159.055268 
L 275.24625 153.371196 
L 276.904815 158.640888 
L 278.563381 156.527814 
L 280.221946 151.584265 
L 281.880511 155.970272 
L 283.539077 149.643312 
L 285.197642 155.848311 
L 286.856207 156.224984 
L 288.514773 155.042542 
L 290.173338 151.164871 
L 291.831903 154.341466 
L 293.490469 147.602405 
L 295.149034 150.096743 
L 296.807599 151.543889 
L 298.466165 148.836388 
L 300.12473 145.151106 
L 301.783295 147.428184 
L 303.441861 141.133583 
L 305.100426 144.700227 
L 306.758991 142.391539 
L 308.417557 142.073108 
L 310.076122 141.548744 
L 311.734688 142.949728 
L 313.393253 144.743849 
L 315.051818 145.123515 
L 316.710384 142.39301 
L 318.368949 142.653471 
L 320.027514 137.909019 
L 321.68608 141.517699 
L 323.344645 137.533147 
L 325.00321 142.0375 
L 326.661776 138.180921 
L 328.320341 130.332367 
L 329.978906 139.328041 
L 331.637472 136.686171 
L 333.296037 139.981794 
L 334.954602 136.021093 
L 336.613168 136.834463 
L 338.271733 134.994134 
L 339.930298 126.543123 
L 341.588864 134.499468 
L 343.247429 126.673357 
L 344.905994 130.081361 
L 346.56456 136.303186 
L 348.223125 131.536973 
L 349.88169 128.19205 
L 351.540256 125.160739 
L 353.198821 127.755605 
L 354.857386 130.560541 
L 356.515952 127.417875 
L 358.174517 129.988973 
L 359.833082 129.302354 
L 361.491648 124.822123 
L 363.150213 123.054233 
L 364.808778 126.188358 
L 366.467344 120.848336 
L 368.125909 129.213057 
L 369.784474 124.174886 
L 371.44304 122.1937 
L 373.101605 121.671191 
L 374.76017 120.524004 
L 376.418736 121.652552 
L 378.077301 118.039351 
L 379.735866 121.610939 
L 381.394432 123.252536 
L 383.052997 124.448293 
L 384.711563 113.412617 
L 386.370128 116.452926 
L 388.028693 120.866681 
L 389.687259 123.352007 
L 391.345824 117.311641 
L 393.004389 118.815548 
L 394.662955 118.180057 
L 397.980085 114.0145 
L 399.638651 118.883683 
L 401.297216 121.996382 
L 402.955781 105.863098 
L 404.614347 111.94804 
L 404.614347 111.94804 
" clip-path="url(#p960a37b6e1)" style="fill: none; stroke: #8c564b; stroke-width: 2; stroke-linecap: square"/>
   </g>
   <g id="patch_3">
    <path d="M 56.315625 248.73125 
L 56.315625 26.440625 
" style="fill: none; stroke: #000000; stroke-width: 0.8; stroke-linejoin: miter; stroke-linecap: square"/>
   </g>
   <g id="patch_4">
    <path d="M 421.2 248.73125 
L 421.2 26.440625 
" style="fill: none; stroke: #000000; stroke-width: 0.8; stroke-linejoin: miter; stroke-linecap: square"/>
   </g>
   <g id="patch_5">
    <path d="M 56.315625 248.73125 
L 421.2 248.73125 
" style="fill: none; stroke: #000000; stroke-width: 0.8; stroke-linejoin: miter; stroke-linecap: square"/>
   </g>
   <g id="patch_6">
    <path d="M 56.315625 26.440625 
L 421.2 26.440625 
" style="fill: none; stroke: #000000; stroke-width: 0.8; stroke-linejoin: miter; stroke-linecap: square"/>
   </g>
   <g id="text_19">
    <!-- 讨论不同干扰强度对不稳定性的影响 -->
    <g transform="translate(142.757812 20.440625)scale(0.12 -0.12)">
     <defs>
      <path id="SimHei-8ba8" d="M 4700 3775 
Q 4700 4600 4675 5225 
L 5225 5225 
Q 5200 4625 5200 3775 
Q 5625 3775 6075 3800 
L 6075 3325 
Q 5675 3350 5200 3350 
L 5200 25 
Q 5200 -325 4925 -437 
Q 4650 -550 4150 -600 
Q 4125 -300 3875 25 
Q 4450 0 4575 50 
Q 4700 100 4700 350 
L 4700 3350 
L 3225 3350 
Q 2900 3350 2300 3325 
L 2300 3800 
Q 2875 3775 3175 3775 
L 4700 3775 
z
M 1700 3375 
Q 1675 2925 1675 2400 
L 1675 550 
Q 2000 850 2400 1325 
Q 2550 1025 2725 825 
Q 2375 550 2037 237 
Q 1700 -75 1450 -350 
Q 1225 -100 1025 50 
Q 1200 250 1200 575 
L 1200 2950 
Q 575 2950 300 2925 
L 300 3400 
Q 575 3375 975 3375 
L 1700 3375 
z
M 3025 2750 
Q 3525 2150 3875 1525 
Q 3625 1375 3425 1250 
Q 3150 1850 2625 2475 
Q 2800 2575 3025 2750 
z
M 1250 5250 
Q 1550 4850 1825 4200 
Q 1625 4100 1375 3950 
Q 1175 4500 825 5000 
Q 1000 5100 1250 5250 
z
" transform="scale(0.015625)"/>
      <path id="SimHei-8bba" d="M 3500 1600 
Q 3825 1725 4250 2000 
Q 4675 2275 4975 2575 
Q 5225 2275 5400 2100 
Q 5050 1950 4550 1675 
Q 4050 1400 3500 1150 
L 3500 300 
Q 3500 -100 3800 -100 
L 4825 -100 
Q 5125 -100 5250 137 
Q 5375 375 5375 575 
Q 5675 350 5925 275 
Q 5750 -225 5550 -375 
Q 5350 -525 5100 -525 
L 3550 -525 
Q 3025 -475 3025 0 
L 3025 2175 
Q 3025 2525 3000 2850 
L 3525 2850 
Q 3500 2400 3500 2200 
L 3500 1600 
z
M 4175 4850 
Q 4400 4350 4950 3687 
Q 5500 3025 6175 2700 
Q 5975 2575 5800 2275 
Q 5100 2750 4637 3375 
Q 4175 4000 3950 4425 
Q 3725 3950 3387 3425 
Q 3050 2900 2325 2200 
Q 2175 2375 1950 2575 
Q 2350 2825 2650 3175 
Q 2950 3525 3200 3962 
Q 3450 4400 3575 4725 
Q 3700 5050 3750 5250 
Q 3975 5150 4275 5050 
L 4175 4850 
z
M 1600 3150 
Q 1575 2750 1575 2275 
L 1575 550 
Q 1950 825 2400 1300 
Q 2500 1075 2650 800 
Q 2250 475 1900 187 
Q 1550 -100 1250 -375 
Q 1150 -225 900 50 
Q 1100 250 1100 450 
L 1100 2700 
L 800 2700 
Q 550 2700 275 2675 
L 275 3175 
Q 550 3150 800 3150 
L 1600 3150 
z
M 975 5000 
Q 1550 4525 2125 4025 
Q 1950 3875 1750 3650 
Q 1325 4150 650 4650 
Q 825 4800 975 5000 
z
" transform="scale(0.015625)"/>
      <path id="SimHei-4e0d" d="M 5975 4450 
Q 5525 4475 5200 4475 
L 3725 4475 
Q 3550 4125 3300 3700 
L 3300 575 
Q 3300 75 3325 -550 
L 2775 -550 
Q 2800 50 2800 575 
L 2800 3025 
Q 2025 1950 700 1050 
Q 500 1350 325 1475 
Q 825 1700 1650 2437 
Q 2475 3175 3175 4475 
L 1525 4475 
Q 1050 4475 525 4450 
L 525 4950 
Q 1275 4925 1675 4925 
L 5175 4925 
Q 5500 4925 5975 4950 
L 5975 4450 
z
M 5450 1125 
Q 4975 1725 3750 2975 
Q 3950 3150 4075 3325 
Q 4675 2775 5100 2362 
Q 5525 1950 5900 1550 
Q 5650 1350 5450 1125 
z
" transform="scale(0.015625)"/>
      <path id="SimHei-540c" d="M 5825 4925 
Q 5775 4550 5775 3975 
L 5775 -50 
Q 5775 -400 5525 -487 
Q 5275 -575 4725 -625 
Q 4725 -400 4525 -50 
Q 4925 -50 5100 -12 
Q 5275 25 5275 200 
L 5275 4450 
L 1150 4450 
L 1150 -600 
L 575 -600 
Q 600 -250 625 200 
L 625 3975 
Q 625 4575 600 4925 
L 5825 4925 
z
M 4375 2550 
Q 4325 2275 4325 1700 
Q 4325 1150 4375 725 
L 2025 725 
Q 2050 1175 2050 1750 
Q 2050 2325 2025 2550 
L 4375 2550 
z
M 4100 3750 
Q 4600 3750 4825 3775 
L 4825 3275 
Q 4575 3300 4075 3300 
L 2450 3300 
Q 1850 3300 1600 3275 
L 1600 3775 
Q 1875 3750 2475 3750 
L 4100 3750 
z
M 3875 1150 
L 3875 2150 
L 2525 2150 
L 2525 1150 
L 3875 1150 
z
" transform="scale(0.015625)"/>
      <path id="SimHei-5bf9" d="M 525 4250 
Q 900 4225 1400 4225 
L 2825 4225 
Q 2575 2625 2200 1750 
Q 2825 875 3125 400 
Q 2950 275 2725 75 
Q 2200 975 1950 1300 
Q 1650 775 1350 425 
Q 1050 75 600 -350 
Q 425 -125 200 -25 
Q 625 275 975 675 
Q 1325 1075 1650 1700 
Q 1050 2425 550 2900 
Q 700 3025 900 3225 
Q 1625 2425 1875 2150 
Q 2200 3050 2300 3825 
L 1400 3825 
Q 900 3825 525 3800 
L 525 4250 
z
M 2925 3700 
Q 3525 3675 3750 3675 
L 4825 3675 
L 4825 4425 
Q 4825 4750 4775 5125 
L 5350 5125 
Q 5325 4825 5325 4375 
L 5325 3675 
Q 5575 3675 6150 3700 
L 6150 3250 
Q 5575 3275 5325 3275 
L 5325 125 
Q 5350 -350 5012 -475 
Q 4675 -600 4250 -650 
Q 4175 -350 4025 -100 
Q 4575 -100 4712 -37 
Q 4850 25 4825 325 
L 4825 3275 
L 3775 3275 
Q 3550 3275 2925 3225 
L 2925 3700 
z
M 3450 2725 
Q 3875 1975 4175 1325 
Q 3850 1200 3700 1075 
Q 3475 1750 3050 2475 
Q 3225 2550 3450 2725 
z
" transform="scale(0.015625)"/>
      <path id="SimHei-7a33" d="M 4050 5125 
Q 3875 4975 3675 4625 
L 5325 4625 
Q 5200 4450 5062 4212 
Q 4925 3975 4800 3650 
L 5625 3650 
Q 5600 3350 5600 2600 
Q 5600 1875 5625 1425 
L 3425 1425 
Q 3075 1425 2750 1400 
L 2750 1850 
Q 3075 1825 3450 1825 
L 5100 1825 
L 5100 2375 
L 3550 2375 
Q 3175 2375 2875 2350 
L 2875 2775 
Q 3175 2750 3525 2750 
L 5100 2750 
L 5100 3275 
L 3775 3275 
Q 3350 3275 3050 3250 
L 3050 3650 
Q 2875 3425 2725 3200 
Q 2525 3400 2350 3475 
Q 2675 3875 2987 4412 
Q 3300 4950 3400 5300 
Q 3725 5200 4050 5125 
z
M 2500 4575 
Q 2275 4575 2012 4512 
Q 1750 4450 1625 4450 
L 1625 3350 
Q 1975 3350 2375 3375 
L 2375 2950 
Q 1925 2975 1625 2975 
L 1625 2225 
Q 1775 2325 1950 2500 
Q 2225 2100 2525 1600 
Q 2300 1500 2150 1350 
Q 1950 1725 1625 2175 
L 1625 400 
Q 1625 25 1650 -625 
L 1150 -625 
Q 1200 25 1200 400 
L 1200 2075 
Q 875 1250 475 650 
Q 375 925 175 1125 
Q 325 1250 650 1887 
Q 975 2525 1050 2975 
Q 750 2975 275 2950 
L 275 3375 
Q 750 3350 1200 3350 
L 1200 4325 
Q 950 4275 550 4200 
Q 475 4425 275 4625 
Q 750 4675 1237 4775 
Q 1725 4875 2125 5075 
Q 2275 4775 2500 4575 
z
M 3675 1025 
Q 3650 700 3650 300 
Q 3650 -75 3775 -100 
Q 3900 -125 4250 -125 
Q 4600 -125 4687 -100 
Q 4775 -75 4825 425 
Q 5025 275 5350 200 
Q 5150 -450 4950 -500 
Q 4750 -550 4175 -550 
Q 3625 -550 3425 -487 
Q 3225 -425 3225 -100 
L 3225 525 
Q 3225 775 3200 1025 
L 3675 1025 
z
M 3050 3675 
Q 3325 3650 3775 3650 
L 4275 3650 
Q 4450 4000 4575 4275 
L 3425 4275 
Q 3275 4050 3050 3675 
z
M 2925 900 
Q 2800 725 2700 287 
Q 2600 -150 2550 -300 
Q 2325 -200 2075 -175 
Q 2225 200 2275 412 
Q 2325 625 2425 1000 
L 2925 900 
z
M 5575 1100 
Q 5950 475 6175 50 
Q 5950 -25 5750 -175 
Q 5625 175 5200 925 
Q 5425 975 5575 1100 
z
M 4225 1300 
Q 4525 825 4625 525 
Q 4550 500 4250 350 
Q 4150 700 3850 1125 
Q 4050 1200 4225 1300 
z
" transform="scale(0.015625)"/>
      <path id="SimHei-5b9a" d="M 4200 3125 
Q 4675 3125 5175 3150 
L 5175 2675 
Q 4725 2700 4100 2700 
L 3550 2700 
L 3550 1700 
L 4600 1700 
Q 4875 1700 5375 1725 
L 5375 1250 
Q 4875 1275 4575 1275 
L 3550 1275 
L 3550 100 
Q 4600 -25 6050 125 
Q 5850 -200 5800 -475 
Q 4800 -475 4150 -450 
Q 3500 -425 3050 -300 
Q 2600 -175 2250 75 
Q 1900 325 1600 675 
Q 1200 -50 675 -575 
Q 450 -350 175 -250 
Q 875 300 1200 1050 
Q 1525 1800 1550 2200 
Q 1800 2050 2150 1975 
Q 2075 1875 1987 1662 
Q 1900 1450 1775 1125 
Q 1950 900 2300 612 
Q 2650 325 3050 200 
L 3050 2700 
L 2250 2700 
Q 1825 2700 1400 2675 
L 1400 3150 
Q 1825 3125 2400 3125 
L 4200 3125 
z
M 5750 4275 
Q 5725 3925 5725 3750 
Q 5725 3575 5750 3275 
L 5225 3275 
L 5225 3875 
L 1225 3875 
L 1225 3275 
L 700 3275 
Q 725 3475 725 3725 
Q 725 3975 700 4275 
L 5750 4275 
z
M 2650 5050 
Q 2875 5125 3100 5300 
Q 3375 4975 3600 4550 
Q 3250 4400 3100 4300 
Q 3050 4525 2650 5050 
z
" transform="scale(0.015625)"/>
      <path id="SimHei-6027" d="M 3450 4525 
Q 3325 4075 3275 3750 
L 4050 3750 
L 4050 4275 
Q 4050 4700 4025 5100 
L 4550 5100 
Q 4525 4700 4525 4275 
L 4525 3750 
L 5025 3750 
Q 5350 3750 5800 3775 
L 5800 3300 
Q 5350 3325 5025 3325 
L 4525 3325 
L 4525 2000 
L 4975 2000 
Q 5350 2000 5725 2025 
L 5725 1550 
Q 5350 1575 4975 1575 
L 4525 1575 
L 4525 25 
L 5200 25 
Q 5625 25 6025 50 
L 6025 -400 
Q 5625 -375 5200 -375 
L 3275 -375 
Q 2825 -375 2400 -400 
L 2400 50 
Q 2825 25 3250 25 
L 4050 25 
L 4050 1575 
L 3625 1575 
Q 3300 1575 2875 1550 
L 2875 2025 
Q 3200 2000 3625 2000 
L 4050 2000 
L 4050 3325 
L 3175 3325 
Q 3100 2950 2775 2225 
Q 2500 2375 2325 2400 
Q 2675 3125 2775 3650 
Q 2875 4175 2950 4650 
Q 3200 4575 3450 4525 
z
M 1700 5150 
Q 1675 4650 1675 4175 
L 1675 425 
Q 1675 -100 1700 -625 
L 1175 -625 
Q 1200 -100 1200 425 
L 1200 4175 
Q 1200 4700 1175 5150 
L 1700 5150 
z
M 975 3725 
Q 825 2675 700 2150 
Q 450 2200 250 2250 
Q 425 2900 525 3800 
Q 725 3775 975 3725 
z
M 2125 4025 
Q 2325 3625 2525 3000 
Q 2300 2925 2125 2825 
Q 1950 3375 1750 3850 
Q 1950 3950 2125 4025 
z
" transform="scale(0.015625)"/>
      <path id="SimHei-7684" d="M 2100 4975 
Q 1975 4750 1750 3950 
L 2875 3950 
Q 2850 3525 2850 2875 
L 2850 675 
Q 2850 300 2875 -400 
L 2375 -400 
L 2375 100 
L 1100 100 
L 1100 -450 
L 600 -450 
Q 625 350 625 550 
L 625 2850 
Q 625 3525 600 3950 
L 1325 3950 
Q 1450 4525 1525 5150 
Q 1875 5025 2100 4975 
z
M 5825 3075 
Q 5800 1550 5700 175 
Q 5650 -275 5225 -425 
Q 4800 -575 4275 -625 
Q 4250 -350 4050 -50 
Q 4550 -75 4837 -25 
Q 5125 25 5200 200 
Q 5275 375 5312 1225 
Q 5350 2075 5375 3600 
L 3925 3600 
Q 3725 3125 3350 2475 
Q 3175 2650 2925 2750 
Q 3150 3050 3350 3475 
Q 3550 3900 3700 4400 
Q 3850 4900 3875 5175 
Q 4225 5025 4475 4950 
Q 4350 4750 4262 4512 
Q 4175 4275 4075 4050 
L 5850 4050 
Q 5825 3525 5825 3075 
z
M 2375 525 
L 2375 1850 
L 1100 1850 
L 1100 525 
L 2375 525 
z
M 2375 2275 
L 2375 3525 
L 1100 3525 
L 1100 2275 
L 2375 2275 
z
M 4350 2050 
Q 4500 1750 4700 1275 
Q 4525 1200 4225 1025 
Q 4050 1500 3900 1837 
Q 3750 2175 3600 2400 
Q 3775 2500 4050 2650 
L 4350 2050 
z
" transform="scale(0.015625)"/>
      <path id="SimHei-5f71" d="M 3550 5025 
Q 3500 4625 3512 4187 
Q 3525 3750 3550 3325 
L 775 3325 
Q 800 3750 787 4187 
Q 775 4625 775 5025 
L 3550 5025 
z
M 1450 -100 
Q 2050 -75 1975 200 
L 1975 1100 
L 775 1100 
Q 800 1375 787 1650 
Q 775 1925 775 2225 
L 3550 2225 
Q 3525 1925 3512 1650 
Q 3500 1375 3550 1100 
L 2475 1100 
L 2475 175 
Q 2500 -250 2300 -375 
Q 2100 -500 1625 -600 
Q 1575 -325 1450 -100 
z
M 2375 3250 
Q 2400 3075 2425 2875 
L 3175 2875 
Q 3600 2875 4050 2900 
L 4050 2475 
Q 3600 2500 3175 2500 
L 1200 2500 
Q 700 2500 275 2475 
L 275 2900 
Q 700 2875 1200 2875 
L 1900 2875 
Q 1875 3025 1850 3200 
Q 2100 3250 2375 3250 
z
M 6150 1350 
Q 5675 775 5000 225 
Q 4325 -325 3725 -650 
Q 3575 -400 3400 -250 
Q 3975 25 4600 500 
Q 5225 975 5775 1725 
Q 5950 1525 6150 1350 
z
M 5925 3125 
Q 5625 2850 5212 2362 
Q 4800 1875 4200 1425 
Q 4025 1625 3800 1725 
Q 4375 2050 4787 2525 
Q 5200 3000 5525 3500 
Q 5675 3325 5925 3125 
z
M 5725 4825 
Q 5325 4550 5037 4162 
Q 4750 3775 4175 3275 
Q 3975 3450 3800 3550 
Q 4175 3825 4550 4237 
Q 4925 4650 5225 5175 
Q 5425 5000 5725 4825 
z
M 3075 1475 
L 3075 1850 
L 1250 1850 
L 1250 1475 
L 3075 1475 
z
M 3075 3700 
L 3075 4000 
L 1250 4000 
L 1250 3700 
L 3075 3700 
z
M 3075 4375 
L 3075 4675 
L 1250 4675 
L 1250 4375 
L 3075 4375 
z
M 1500 500 
Q 1075 75 575 -325 
Q 475 -175 275 -25 
Q 700 250 1125 825 
Q 1300 625 1500 500 
z
M 3250 -50 
Q 3050 275 2750 550 
Q 2900 700 3075 850 
Q 3400 525 3600 250 
L 3250 -50 
z
" transform="scale(0.015625)"/>
      <path id="SimHei-54cd" d="M 4150 5125 
Q 4000 4975 3850 4325 
L 5875 4325 
Q 5850 3800 5850 3325 
L 5850 50 
Q 5825 -225 5625 -350 
Q 5425 -475 4850 -550 
Q 4850 -325 4600 25 
Q 5125 25 5237 62 
Q 5350 100 5350 225 
L 5350 3950 
L 2950 3950 
L 2950 -575 
L 2450 -575 
Q 2475 -75 2475 450 
L 2475 3125 
Q 2475 3750 2450 4325 
L 3350 4325 
Q 3475 4775 3525 5250 
Q 3950 5150 4150 5125 
z
M 4875 900 
L 3425 900 
L 3425 3100 
L 4875 3100 
L 4875 900 
z
M 4450 1275 
L 4450 2700 
L 3875 2700 
L 3875 1275 
L 4450 1275 
z
M 2075 4500 
Q 2050 3975 2050 3425 
L 2050 1750 
Q 2050 1250 2075 600 
L 1650 600 
L 1650 1050 
L 950 1050 
L 950 275 
L 500 275 
Q 525 750 525 1275 
L 525 3425 
Q 525 3975 500 4500 
L 2075 4500 
z
M 1650 1400 
L 1650 4125 
L 950 4125 
L 950 1400 
L 1650 1400 
z
" transform="scale(0.015625)"/>
     </defs>
     <use xlink:href="#SimHei-8ba8"/>
     <use xlink:href="#SimHei-8bba" x="100"/>
     <use xlink:href="#SimHei-4e0d" x="200"/>
     <use xlink:href="#SimHei-540c" x="300"/>
     <use xlink:href="#SimHei-5e72" x="400"/>
     <use xlink:href="#SimHei-6270" x="500"/>
     <use xlink:href="#SimHei-5f3a" x="600"/>
     <use xlink:href="#SimHei-5ea6" x="700"/>
     <use xlink:href="#SimHei-5bf9" x="800"/>
     <use xlink:href="#SimHei-4e0d" x="900"/>
     <use xlink:href="#SimHei-7a33" x="1000"/>
     <use xlink:href="#SimHei-5b9a" x="1100"/>
     <use xlink:href="#SimHei-6027" x="1200"/>
     <use xlink:href="#SimHei-7684" x="1300"/>
     <use xlink:href="#SimHei-5f71" x="1400"/>
     <use xlink:href="#SimHei-54cd" x="1500"/>
    </g>
   </g>
   <g id="legend_1">
    <g id="patch_7">
     <path d="M 63.315625 114.096875 
L 160.315625 114.096875 
Q 162.315625 114.096875 162.315625 112.096875 
L 162.315625 33.440625 
Q 162.315625 31.440625 160.315625 31.440625 
L 63.315625 31.440625 
Q 61.315625 31.440625 61.315625 33.440625 
L 61.315625 112.096875 
Q 61.315625 114.096875 63.315625 114.096875 
z
" style="fill: #ffffff; opacity: 0.8; stroke: #cccccc; stroke-linejoin: miter"/>
    </g>
    <g id="line2d_23">
     <path d="M 65.315625 38.940625 
L 75.315625 38.940625 
L 85.315625 38.940625 
" style="fill: none; stroke: #1f77b4; stroke-width: 2; stroke-linecap: square"/>
    </g>
    <g id="text_20">
     <!-- EU -->
     <g transform="translate(93.315625 42.440625)scale(0.1 -0.1)">
      <defs>
       <path id="SimHei-45" d="M 2900 125 
L 350 125 
L 350 4400 
L 2775 4400 
L 2775 3925 
L 925 3925 
L 925 2600 
L 2625 2600 
L 2625 2125 
L 925 2125 
L 925 600 
L 2900 600 
L 2900 125 
z
" transform="scale(0.015625)"/>
       <path id="SimHei-55" d="M 2875 1375 
Q 2875 775 2562 425 
Q 2250 75 1575 75 
Q 900 75 587 425 
Q 275 775 275 1375 
L 275 4400 
L 850 4400 
L 850 1375 
Q 850 950 1050 750 
Q 1250 550 1575 550 
Q 1900 550 2100 750 
Q 2300 950 2300 1375 
L 2300 4400 
L 2875 4400 
L 2875 1375 
z
" transform="scale(0.015625)"/>
      </defs>
      <use xlink:href="#SimHei-45"/>
      <use xlink:href="#SimHei-55" x="50"/>
     </g>
    </g>
    <g id="line2d_24">
     <path d="M 65.315625 52.190625 
L 75.315625 52.190625 
L 85.315625 52.190625 
" style="fill: none; stroke: #ff7f0e; stroke-width: 3; stroke-linecap: square"/>
    </g>
    <g id="text_21">
     <!-- VGaDis -->
     <g transform="translate(93.315625 55.690625)scale(0.1 -0.1)">
      <defs>
       <path id="SimHei-56" d="M 3050 4400 
L 1800 75 
L 1300 75 
L 50 4400 
L 650 4400 
L 1525 1125 
L 1575 1125 
L 2450 4400 
L 3050 4400 
z
" transform="scale(0.015625)"/>
       <path id="SimHei-47" d="M 2850 75 
L 2425 75 
L 2350 425 
Q 2250 275 2037 175 
Q 1825 75 1575 75 
Q 1050 75 637 562 
Q 225 1050 225 2125 
Q 225 3300 600 3875 
Q 975 4450 1625 4450 
Q 2200 4450 2525 4025 
Q 2850 3600 2850 2925 
L 2300 2925 
Q 2300 3450 2125 3712 
Q 1950 3975 1625 3975 
Q 1225 3975 1025 3562 
Q 825 3150 825 2175 
Q 825 1250 1075 900 
Q 1325 550 1650 550 
Q 1975 550 2162 787 
Q 2350 1025 2350 1525 
L 2350 1800 
L 1575 1800 
L 1575 2275 
L 2850 2275 
L 2850 75 
z
" transform="scale(0.015625)"/>
       <path id="SimHei-44" d="M 2925 2250 
Q 2925 1100 2437 612 
Q 1950 125 1125 125 
L 275 125 
L 275 4400 
L 1125 4400 
Q 2050 4400 2487 3900 
Q 2925 3400 2925 2250 
z
M 2325 2250 
Q 2325 3175 2025 3550 
Q 1725 3925 1125 3925 
L 850 3925 
L 850 600 
L 1125 600 
Q 1725 600 2025 962 
Q 2325 1325 2325 2250 
z
" transform="scale(0.015625)"/>
      </defs>
      <use xlink:href="#SimHei-56"/>
      <use xlink:href="#SimHei-47" x="50"/>
      <use xlink:href="#SimHei-61" x="100"/>
      <use xlink:href="#SimHei-44" x="150"/>
      <use xlink:href="#SimHei-69" x="200"/>
      <use xlink:href="#SimHei-73" x="250"/>
     </g>
    </g>
    <g id="line2d_25">
     <path d="M 65.315625 65.440625 
L 75.315625 65.440625 
L 85.315625 65.440625 
" style="fill: none; stroke: #2ca02c; stroke-width: 2; stroke-linecap: square"/>
    </g>
    <g id="text_22">
     <!-- Manhattan -->
     <g transform="translate(93.315625 68.940625)scale(0.1 -0.1)">
      <defs>
       <path id="SimHei-4d" d="M 2925 125 
L 2425 125 
L 2425 3175 
L 2375 3175 
L 1775 125 
L 1375 125 
L 775 3175 
L 725 3175 
L 725 125 
L 225 125 
L 225 4400 
L 1000 4400 
L 1550 1575 
L 1600 1575 
L 2150 4400 
L 2925 4400 
L 2925 125 
z
" transform="scale(0.015625)"/>
       <path id="SimHei-6e" d="M 2800 125 
L 2300 125 
L 2300 1925 
Q 2300 2225 2150 2400 
Q 2000 2575 1750 2575 
Q 1425 2575 1137 2237 
Q 850 1900 850 1400 
L 850 125 
L 350 125 
L 350 2925 
L 850 2925 
L 850 2400 
Q 1050 2675 1287 2825 
Q 1525 2975 1900 2975 
Q 2350 2975 2575 2725 
Q 2800 2475 2800 2100 
L 2800 125 
z
" transform="scale(0.015625)"/>
       <path id="SimHei-68" d="M 2800 125 
L 2300 125 
L 2300 1925 
Q 2300 2225 2150 2400 
Q 2000 2575 1750 2575 
Q 1425 2575 1137 2237 
Q 850 1900 850 1400 
L 850 125 
L 350 125 
L 350 4400 
L 850 4400 
L 850 2400 
Q 1050 2675 1287 2825 
Q 1525 2975 1900 2975 
Q 2350 2975 2575 2725 
Q 2800 2475 2800 2100 
L 2800 125 
z
" transform="scale(0.015625)"/>
       <path id="SimHei-74" d="M 2750 200 
Q 2625 150 2462 112 
Q 2300 75 2025 75 
Q 1575 75 1300 325 
Q 1025 575 1025 1025 
L 1025 2525 
L 175 2525 
L 175 2925 
L 1025 2925 
L 1025 3900 
L 1525 3900 
L 1525 2925 
L 2550 2925 
L 2550 2525 
L 1525 2525 
L 1525 1000 
Q 1525 800 1625 662 
Q 1725 525 2000 525 
Q 2275 525 2450 575 
Q 2625 625 2750 700 
L 2750 200 
z
" transform="scale(0.015625)"/>
      </defs>
      <use xlink:href="#SimHei-4d"/>
      <use xlink:href="#SimHei-61" x="50"/>
      <use xlink:href="#SimHei-6e" x="100"/>
      <use xlink:href="#SimHei-68" x="150"/>
      <use xlink:href="#SimHei-61" x="200"/>
      <use xlink:href="#SimHei-74" x="250"/>
      <use xlink:href="#SimHei-74" x="300"/>
      <use xlink:href="#SimHei-61" x="350"/>
      <use xlink:href="#SimHei-6e" x="400"/>
     </g>
    </g>
    <g id="line2d_26">
     <path d="M 65.315625 78.690625 
L 75.315625 78.690625 
L 85.315625 78.690625 
" style="fill: none; stroke: #d62728; stroke-width: 2; stroke-linecap: square"/>
    </g>
    <g id="text_23">
     <!-- VGdDis -->
     <g transform="translate(93.315625 82.190625)scale(0.1 -0.1)">
      <use xlink:href="#SimHei-56"/>
      <use xlink:href="#SimHei-47" x="50"/>
      <use xlink:href="#SimHei-64" x="100"/>
      <use xlink:href="#SimHei-44" x="150"/>
      <use xlink:href="#SimHei-69" x="200"/>
      <use xlink:href="#SimHei-73" x="250"/>
     </g>
    </g>
    <g id="line2d_27">
     <path d="M 65.315625 91.940625 
L 75.315625 91.940625 
L 85.315625 91.940625 
" style="fill: none; stroke: #9467bd; stroke-width: 2; stroke-linecap: square"/>
    </g>
    <g id="text_24">
     <!-- dtw_Manhattan -->
     <g transform="translate(93.315625 95.440625)scale(0.1 -0.1)">
      <defs>
       <path id="SimHei-77" d="M 3075 2925 
L 2450 75 
L 1975 75 
L 1575 2250 
L 1525 2250 
L 1125 75 
L 650 75 
L 25 2925 
L 550 2925 
L 875 1050 
L 925 1050 
L 1275 2925 
L 1825 2925 
L 2175 1050 
L 2225 1050 
L 2550 2925 
L 3075 2925 
z
" transform="scale(0.015625)"/>
       <path id="SimHei-5f" d="M 3150 -850 
L 0 -850 
L 0 -550 
L 3150 -550 
L 3150 -850 
z
" transform="scale(0.015625)"/>
      </defs>
      <use xlink:href="#SimHei-64"/>
      <use xlink:href="#SimHei-74" x="50"/>
      <use xlink:href="#SimHei-77" x="100"/>
      <use xlink:href="#SimHei-5f" x="150"/>
      <use xlink:href="#SimHei-4d" x="200"/>
      <use xlink:href="#SimHei-61" x="250"/>
      <use xlink:href="#SimHei-6e" x="300"/>
      <use xlink:href="#SimHei-68" x="350"/>
      <use xlink:href="#SimHei-61" x="400"/>
      <use xlink:href="#SimHei-74" x="450"/>
      <use xlink:href="#SimHei-74" x="500"/>
      <use xlink:href="#SimHei-61" x="550"/>
      <use xlink:href="#SimHei-6e" x="600"/>
     </g>
    </g>
    <g id="line2d_28">
     <path d="M 65.315625 105.26875 
L 75.315625 105.26875 
L 85.315625 105.26875 
" style="fill: none; stroke: #8c564b; stroke-width: 2; stroke-linecap: square"/>
    </g>
    <g id="text_25">
     <!-- dtw_EU -->
     <g transform="translate(93.315625 108.76875)scale(0.1 -0.1)">
      <use xlink:href="#SimHei-64"/>
      <use xlink:href="#SimHei-74" x="50"/>
      <use xlink:href="#SimHei-77" x="100"/>
      <use xlink:href="#SimHei-5f" x="150"/>
      <use xlink:href="#SimHei-45" x="200"/>
      <use xlink:href="#SimHei-55" x="250"/>
     </g>
    </g>
   </g>
  </g>
 </g>
 <defs>
  <clipPath id="p960a37b6e1">
   <rect x="56.315625" y="26.440625" width="364.884375" height="222.290625"/>
  </clipPath>
 </defs>
</svg>
