<?xml version="1.0" encoding="utf-8" standalone="no"?>
<!DOCTYPE svg PUBLIC "-//W3C//DTD SVG 1.1//EN"
  "http://www.w3.org/Graphics/SVG/1.1/DTD/svg11.dtd">
<svg xmlns:xlink="http://www.w3.org/1999/xlink" width="432pt" height="288pt" viewBox="0 0 432 288" xmlns="http://www.w3.org/2000/svg" version="1.1">
 <metadata>
  <rdf:RDF xmlns:dc="http://purl.org/dc/elements/1.1/" xmlns:cc="http://creativecommons.org/ns#" xmlns:rdf="http://www.w3.org/1999/02/22-rdf-syntax-ns#">
   <cc:Work>
    <dc:type rdf:resource="http://purl.org/dc/dcmitype/StillImage"/>
    <dc:date>2023-03-27T18:36:03.057041</dc:date>
    <dc:format>image/svg+xml</dc:format>
    <dc:creator>
     <cc:Agent>
      <dc:title>Matplotlib v3.5.2, https://matplotlib.org/</dc:title>
     </cc:Agent>
    </dc:creator>
   </cc:Work>
  </rdf:RDF>
 </metadata>
 <defs>
  <style type="text/css">*{stroke-linejoin: round; stroke-linecap: butt}</style>
 </defs>
 <g id="figure_1">
  <g id="patch_1">
   <path d="M 0 288 
L 432 288 
L 432 0 
L 0 0 
L 0 288 
z
" style="fill: none"/>
  </g>
  <g id="axes_1">
   <g id="patch_2">
    <path d="M 54 252 
L 388.8 252 
L 388.8 34.56 
L 54 34.56 
z
" style="fill: #ffffff"/>
   </g>
   <g id="matplotlib.axis_1">
    <g id="xtick_1">
     <g id="line2d_1">
      <defs>
       <path id="m1f81025c69" d="M 0 0 
L 0 3.5 
" style="stroke: #000000; stroke-width: 0.8"/>
      </defs>
      <g>
       <use xlink:href="#m1f81025c69" x="69.218182" y="252" style="stroke: #000000; stroke-width: 0.8"/>
      </g>
     </g>
     <g id="text_1">
      <!-- 0 -->
      <g transform="translate(66.718182 265.875)scale(0.1 -0.1)">
       <defs>
        <path id="SimHei-30" d="M 225 2537 
Q 250 3200 412 3587 
Q 575 3975 875 4225 
Q 1175 4475 1612 4475 
Q 2050 4475 2375 4112 
Q 2700 3750 2800 3200 
Q 2900 2650 2862 1937 
Q 2825 1225 2612 775 
Q 2400 325 1975 150 
Q 1550 -25 1125 187 
Q 700 400 525 750 
Q 350 1100 275 1487 
Q 200 1875 225 2537 
z
M 750 2687 
Q 675 2000 800 1462 
Q 925 925 1212 700 
Q 1500 475 1800 612 
Q 2100 750 2237 1162 
Q 2375 1575 2375 2062 
Q 2375 2550 2337 2950 
Q 2300 3350 2112 3675 
Q 1925 4000 1612 4012 
Q 1300 4025 1062 3700 
Q 825 3375 750 2687 
z
" transform="scale(0.015625)"/>
       </defs>
       <use xlink:href="#SimHei-30"/>
      </g>
     </g>
    </g>
    <g id="xtick_2">
     <g id="line2d_2">
      <g>
       <use xlink:href="#m1f81025c69" x="107.45482" y="252" style="stroke: #000000; stroke-width: 0.8"/>
      </g>
     </g>
     <g id="text_2">
      <!-- 25 -->
      <g transform="translate(102.45482 265.875)scale(0.1 -0.1)">
       <defs>
        <path id="SimHei-32" d="M 300 250 
Q 325 625 650 925 
Q 975 1225 1475 1862 
Q 1975 2500 2125 2850 
Q 2275 3200 2237 3450 
Q 2200 3700 2000 3862 
Q 1800 4025 1537 4000 
Q 1275 3975 1037 3800 
Q 800 3625 675 3275 
L 200 3350 
Q 400 3925 712 4187 
Q 1025 4450 1450 4475 
Q 1700 4500 1900 4462 
Q 2100 4425 2312 4287 
Q 2525 4150 2662 3875 
Q 2800 3600 2762 3212 
Q 2725 2825 2375 2287 
Q 2025 1750 1025 600 
L 2825 600 
L 2825 150 
L 300 150 
L 300 250 
z
" transform="scale(0.015625)"/>
        <path id="SimHei-35" d="M 550 1325 
Q 725 650 1150 575 
Q 1575 500 1837 662 
Q 2100 825 2212 1087 
Q 2325 1350 2312 1675 
Q 2300 2000 2137 2225 
Q 1975 2450 1725 2525 
Q 1475 2600 1162 2525 
Q 850 2450 650 2175 
L 225 2225 
Q 275 2375 700 4375 
L 2675 4375 
L 2675 3925 
L 1075 3925 
Q 950 3250 825 2850 
Q 1200 3025 1525 3012 
Q 1850 3000 2150 2862 
Q 2450 2725 2587 2487 
Q 2725 2250 2787 2012 
Q 2850 1775 2837 1500 
Q 2825 1225 2725 937 
Q 2625 650 2425 462 
Q 2225 275 1937 162 
Q 1650 50 1275 75 
Q 900 100 562 350 
Q 225 600 100 1200 
L 550 1325 
z
" transform="scale(0.015625)"/>
       </defs>
       <use xlink:href="#SimHei-32"/>
       <use xlink:href="#SimHei-35" x="50"/>
      </g>
     </g>
    </g>
    <g id="xtick_3">
     <g id="line2d_3">
      <g>
       <use xlink:href="#m1f81025c69" x="145.691457" y="252" style="stroke: #000000; stroke-width: 0.8"/>
      </g>
     </g>
     <g id="text_3">
      <!-- 50 -->
      <g transform="translate(140.691457 265.875)scale(0.1 -0.1)">
       <use xlink:href="#SimHei-35"/>
       <use xlink:href="#SimHei-30" x="50"/>
      </g>
     </g>
    </g>
    <g id="xtick_4">
     <g id="line2d_4">
      <g>
       <use xlink:href="#m1f81025c69" x="183.928095" y="252" style="stroke: #000000; stroke-width: 0.8"/>
      </g>
     </g>
     <g id="text_4">
      <!-- 75 -->
      <g transform="translate(178.928095 265.875)scale(0.1 -0.1)">
       <defs>
        <path id="SimHei-37" d="M 850 150 
Q 1300 2050 2425 3925 
L 275 3925 
L 275 4375 
L 2950 4375 
L 2950 3950 
Q 1775 2050 1400 150 
L 850 150 
z
" transform="scale(0.015625)"/>
       </defs>
       <use xlink:href="#SimHei-37"/>
       <use xlink:href="#SimHei-35" x="50"/>
      </g>
     </g>
    </g>
    <g id="xtick_5">
     <g id="line2d_5">
      <g>
       <use xlink:href="#m1f81025c69" x="222.164733" y="252" style="stroke: #000000; stroke-width: 0.8"/>
      </g>
     </g>
     <g id="text_5">
      <!-- 100 -->
      <g transform="translate(214.664733 265.875)scale(0.1 -0.1)">
       <defs>
        <path id="SimHei-31" d="M 1400 3600 
Q 1075 3275 575 2975 
L 575 3450 
Q 1200 3875 1600 4450 
L 1900 4450 
L 1900 150 
L 1400 150 
L 1400 3600 
z
" transform="scale(0.015625)"/>
       </defs>
       <use xlink:href="#SimHei-31"/>
       <use xlink:href="#SimHei-30" x="50"/>
       <use xlink:href="#SimHei-30" x="100"/>
      </g>
     </g>
    </g>
    <g id="xtick_6">
     <g id="line2d_6">
      <g>
       <use xlink:href="#m1f81025c69" x="260.40137" y="252" style="stroke: #000000; stroke-width: 0.8"/>
      </g>
     </g>
     <g id="text_6">
      <!-- 125 -->
      <g transform="translate(252.90137 265.875)scale(0.1 -0.1)">
       <use xlink:href="#SimHei-31"/>
       <use xlink:href="#SimHei-32" x="50"/>
       <use xlink:href="#SimHei-35" x="100"/>
      </g>
     </g>
    </g>
    <g id="xtick_7">
     <g id="line2d_7">
      <g>
       <use xlink:href="#m1f81025c69" x="298.638008" y="252" style="stroke: #000000; stroke-width: 0.8"/>
      </g>
     </g>
     <g id="text_7">
      <!-- 150 -->
      <g transform="translate(291.138008 265.875)scale(0.1 -0.1)">
       <use xlink:href="#SimHei-31"/>
       <use xlink:href="#SimHei-35" x="50"/>
       <use xlink:href="#SimHei-30" x="100"/>
      </g>
     </g>
    </g>
    <g id="xtick_8">
     <g id="line2d_8">
      <g>
       <use xlink:href="#m1f81025c69" x="336.874646" y="252" style="stroke: #000000; stroke-width: 0.8"/>
      </g>
     </g>
     <g id="text_8">
      <!-- 175 -->
      <g transform="translate(329.374646 265.875)scale(0.1 -0.1)">
       <use xlink:href="#SimHei-31"/>
       <use xlink:href="#SimHei-37" x="50"/>
       <use xlink:href="#SimHei-35" x="100"/>
      </g>
     </g>
    </g>
    <g id="xtick_9">
     <g id="line2d_9">
      <g>
       <use xlink:href="#m1f81025c69" x="375.111284" y="252" style="stroke: #000000; stroke-width: 0.8"/>
      </g>
     </g>
     <g id="text_9">
      <!-- 200 -->
      <g transform="translate(367.611284 265.875)scale(0.1 -0.1)">
       <use xlink:href="#SimHei-32"/>
       <use xlink:href="#SimHei-30" x="50"/>
       <use xlink:href="#SimHei-30" x="100"/>
      </g>
     </g>
    </g>
    <g id="text_10">
     <!-- 干扰强度 -->
     <g transform="translate(201.4 279.132812)scale(0.1 -0.1)">
      <defs>
       <path id="SimHei-5e72" d="M 4625 4775 
Q 5050 4775 5500 4800 
L 5500 4300 
Q 5050 4325 4625 4325 
L 3475 4325 
L 3475 2525 
L 5225 2525 
Q 5700 2525 6000 2550 
L 6000 2050 
Q 5700 2075 5225 2075 
L 3475 2075 
L 3475 325 
Q 3475 -75 3500 -625 
L 2925 -625 
Q 2950 -100 2950 325 
L 2950 2075 
L 1225 2075 
Q 775 2075 400 2050 
L 400 2550 
Q 775 2525 1225 2525 
L 2950 2525 
L 2950 4325 
L 1925 4325 
Q 1450 4325 925 4300 
L 925 4800 
Q 1450 4775 1800 4775 
L 4625 4775 
z
" transform="scale(0.015625)"/>
       <path id="SimHei-6270" d="M 4575 425 
Q 4575 0 4950 0 
L 5250 0 
Q 5400 0 5450 150 
Q 5500 300 5500 575 
Q 5750 425 6025 375 
Q 5950 50 5862 -175 
Q 5775 -400 5500 -425 
L 4825 -425 
Q 4125 -425 4125 300 
L 4125 3075 
L 3875 3075 
Q 3800 1550 3375 725 
Q 2950 -100 2425 -575 
Q 2275 -375 1950 -275 
Q 2375 25 2687 487 
Q 3000 950 3187 1537 
Q 3375 2125 3400 3075 
Q 3000 3075 2650 3050 
L 2650 3500 
Q 2975 3475 3400 3475 
Q 3425 4225 3375 5125 
Q 3700 5100 3950 5075 
Q 3900 4925 3887 4550 
Q 3875 4175 3875 3475 
L 5050 3475 
Q 5575 3475 5850 3500 
L 5850 3050 
Q 5550 3075 5100 3075 
L 4575 3075 
L 4575 425 
z
M 1775 5150 
Q 1750 4750 1750 3675 
Q 2000 3675 2425 3700 
L 2425 3250 
Q 2000 3275 1750 3275 
L 1750 2275 
Q 2025 2400 2350 2575 
Q 2325 2400 2375 2125 
Q 2175 2050 1750 1825 
L 1750 0 
Q 1750 -325 1512 -450 
Q 1275 -575 825 -650 
Q 800 -350 600 -125 
Q 1275 -125 1275 100 
L 1275 1650 
Q 850 1425 575 1275 
Q 475 1525 325 1750 
Q 675 1850 1275 2100 
L 1275 3275 
Q 725 3275 450 3250 
L 450 3700 
Q 800 3675 1275 3675 
Q 1275 4675 1250 5150 
L 1775 5150 
z
M 5200 3750 
Q 4825 4300 4450 4675 
Q 4650 4800 4800 4975 
Q 5175 4550 5600 4025 
Q 5450 3950 5200 3750 
z
" transform="scale(0.015625)"/>
       <path id="SimHei-5f3a" d="M 2350 25 
Q 3100 75 3950 225 
L 3950 1200 
L 3100 1200 
L 3100 975 
L 2625 975 
Q 2650 1725 2650 2050 
L 2650 2875 
L 3950 2875 
L 3950 3500 
L 2850 3500 
Q 2875 3900 2875 4275 
Q 2875 4675 2850 5025 
L 5525 5025 
Q 5500 4675 5500 4275 
Q 5500 3900 5525 3500 
L 4400 3500 
L 4400 2875 
L 5750 2875 
Q 5725 2575 5725 2075 
Q 5725 1575 5750 1200 
L 4400 1200 
L 4400 275 
L 5250 425 
Q 5150 575 5050 750 
Q 5300 825 5475 925 
Q 5925 200 6175 -250 
Q 5925 -350 5725 -500 
Q 5625 -250 5425 100 
Q 5125 50 4225 -137 
Q 3325 -325 2600 -525 
Q 2525 -200 2350 25 
z
M 600 -25 
Q 1250 -25 1400 50 
Q 1550 125 1575 325 
L 1675 1850 
L 500 1850 
Q 550 2350 562 2762 
Q 575 3175 575 3575 
L 1800 3575 
L 1800 4550 
L 1275 4550 
Q 825 4550 425 4525 
L 425 4950 
Q 850 4925 1275 4925 
L 2275 4925 
Q 2250 4525 2250 4075 
Q 2250 3650 2275 3200 
L 1075 3200 
L 1025 2225 
L 2175 2225 
Q 2125 1775 2100 1425 
L 2025 150 
Q 1975 -250 1637 -387 
Q 1300 -525 850 -600 
Q 775 -275 600 -25 
z
M 5050 3875 
L 5050 4650 
L 3325 4650 
L 3325 3875 
L 5050 3875 
z
M 3950 1575 
L 3950 2500 
L 3100 2500 
L 3100 1575 
L 3950 1575 
z
M 5250 1575 
L 5250 2500 
L 4400 2500 
L 4400 1575 
L 5250 1575 
z
" transform="scale(0.015625)"/>
       <path id="SimHei-5ea6" d="M 1750 1675 
Q 2450 1650 2875 1650 
L 5200 1650 
Q 4975 1250 4650 850 
Q 4325 450 4025 200 
Q 4350 50 4950 -50 
Q 5550 -150 6100 -150 
Q 5950 -300 5825 -650 
Q 5100 -550 4550 -412 
Q 4000 -275 3625 -100 
Q 3100 -325 2587 -462 
Q 2075 -600 1525 -675 
Q 1450 -475 1225 -250 
Q 1675 -250 2250 -125 
Q 2825 0 3250 200 
Q 2825 550 2400 1275 
L 1750 1250 
L 1750 1675 
z
M 2975 5075 
Q 3250 5150 3475 5250 
Q 3625 4975 3775 4525 
L 4700 4525 
Q 4975 4525 5700 4550 
L 5700 4100 
Q 5000 4125 4650 4125 
L 1375 4125 
Q 1375 3000 1350 2312 
Q 1325 1625 1212 950 
Q 1100 275 725 -525 
Q 500 -375 250 -300 
Q 650 400 762 1075 
Q 875 1750 887 2800 
Q 900 3850 875 4525 
L 3200 4525 
Q 3100 4850 2975 5075 
z
M 2475 3300 
Q 2475 3700 2450 3925 
L 2975 3925 
Q 2950 3725 2950 3300 
L 4300 3300 
Q 4300 3700 4275 3950 
L 4800 3950 
Q 4775 3650 4775 3300 
Q 5325 3300 5725 3325 
L 5725 2900 
Q 5350 2925 4775 2925 
Q 4775 2250 4800 1950 
L 2450 1950 
Q 2475 2350 2475 2925 
Q 2175 2925 1600 2900 
L 1600 3325 
Q 2175 3300 2475 3300 
z
M 4300 2350 
L 4300 2925 
L 2950 2925 
L 2950 2350 
L 4300 2350 
z
M 2875 1275 
Q 3200 775 3650 425 
Q 4025 700 4425 1275 
L 2900 1275 
L 2875 1275 
z
" transform="scale(0.015625)"/>
      </defs>
      <use xlink:href="#SimHei-5e72"/>
      <use xlink:href="#SimHei-6270" x="100"/>
      <use xlink:href="#SimHei-5f3a" x="200"/>
      <use xlink:href="#SimHei-5ea6" x="300"/>
     </g>
    </g>
   </g>
   <g id="matplotlib.axis_2">
    <g id="ytick_1">
     <g id="line2d_10">
      <defs>
       <path id="m2443682950" d="M 0 0 
L -3.5 0 
" style="stroke: #000000; stroke-width: 0.8"/>
      </defs>
      <g>
       <use xlink:href="#m2443682950" x="54" y="242.116364" style="stroke: #000000; stroke-width: 0.8"/>
      </g>
     </g>
     <g id="text_11">
      <!-- 0.000 -->
      <g transform="translate(22 245.553864)scale(0.1 -0.1)">
       <defs>
        <path id="SimHei-2e" d="M 1075 125 
L 500 125 
L 500 675 
L 1075 675 
L 1075 125 
z
" transform="scale(0.015625)"/>
       </defs>
       <use xlink:href="#SimHei-30"/>
       <use xlink:href="#SimHei-2e" x="50"/>
       <use xlink:href="#SimHei-30" x="100"/>
       <use xlink:href="#SimHei-30" x="150"/>
       <use xlink:href="#SimHei-30" x="200"/>
      </g>
     </g>
    </g>
    <g id="ytick_2">
     <g id="line2d_11">
      <g>
       <use xlink:href="#m2443682950" x="54" y="214.774577" style="stroke: #000000; stroke-width: 0.8"/>
      </g>
     </g>
     <g id="text_12">
      <!-- 0.005 -->
      <g transform="translate(22 218.212077)scale(0.1 -0.1)">
       <use xlink:href="#SimHei-30"/>
       <use xlink:href="#SimHei-2e" x="50"/>
       <use xlink:href="#SimHei-30" x="100"/>
       <use xlink:href="#SimHei-30" x="150"/>
       <use xlink:href="#SimHei-35" x="200"/>
      </g>
     </g>
    </g>
    <g id="ytick_3">
     <g id="line2d_12">
      <g>
       <use xlink:href="#m2443682950" x="54" y="187.43279" style="stroke: #000000; stroke-width: 0.8"/>
      </g>
     </g>
     <g id="text_13">
      <!-- 0.010 -->
      <g transform="translate(22 190.87029)scale(0.1 -0.1)">
       <use xlink:href="#SimHei-30"/>
       <use xlink:href="#SimHei-2e" x="50"/>
       <use xlink:href="#SimHei-30" x="100"/>
       <use xlink:href="#SimHei-31" x="150"/>
       <use xlink:href="#SimHei-30" x="200"/>
      </g>
     </g>
    </g>
    <g id="ytick_4">
     <g id="line2d_13">
      <g>
       <use xlink:href="#m2443682950" x="54" y="160.091003" style="stroke: #000000; stroke-width: 0.8"/>
      </g>
     </g>
     <g id="text_14">
      <!-- 0.015 -->
      <g transform="translate(22 163.528503)scale(0.1 -0.1)">
       <use xlink:href="#SimHei-30"/>
       <use xlink:href="#SimHei-2e" x="50"/>
       <use xlink:href="#SimHei-30" x="100"/>
       <use xlink:href="#SimHei-31" x="150"/>
       <use xlink:href="#SimHei-35" x="200"/>
      </g>
     </g>
    </g>
    <g id="ytick_5">
     <g id="line2d_14">
      <g>
       <use xlink:href="#m2443682950" x="54" y="132.749217" style="stroke: #000000; stroke-width: 0.8"/>
      </g>
     </g>
     <g id="text_15">
      <!-- 0.020 -->
      <g transform="translate(22 136.186717)scale(0.1 -0.1)">
       <use xlink:href="#SimHei-30"/>
       <use xlink:href="#SimHei-2e" x="50"/>
       <use xlink:href="#SimHei-30" x="100"/>
       <use xlink:href="#SimHei-32" x="150"/>
       <use xlink:href="#SimHei-30" x="200"/>
      </g>
     </g>
    </g>
    <g id="ytick_6">
     <g id="line2d_15">
      <g>
       <use xlink:href="#m2443682950" x="54" y="105.40743" style="stroke: #000000; stroke-width: 0.8"/>
      </g>
     </g>
     <g id="text_16">
      <!-- 0.025 -->
      <g transform="translate(22 108.84493)scale(0.1 -0.1)">
       <use xlink:href="#SimHei-30"/>
       <use xlink:href="#SimHei-2e" x="50"/>
       <use xlink:href="#SimHei-30" x="100"/>
       <use xlink:href="#SimHei-32" x="150"/>
       <use xlink:href="#SimHei-35" x="200"/>
      </g>
     </g>
    </g>
    <g id="ytick_7">
     <g id="line2d_16">
      <g>
       <use xlink:href="#m2443682950" x="54" y="78.065643" style="stroke: #000000; stroke-width: 0.8"/>
      </g>
     </g>
     <g id="text_17">
      <!-- 0.030 -->
      <g transform="translate(22 81.503143)scale(0.1 -0.1)">
       <defs>
        <path id="SimHei-33" d="M 250 1225 
L 700 1300 
Q 800 975 1025 762 
Q 1250 550 1587 562 
Q 1925 575 2125 837 
Q 2325 1100 2300 1437 
Q 2275 1775 2037 1962 
Q 1800 2150 1275 2225 
L 1275 2550 
Q 1800 2600 2037 2825 
Q 2275 3050 2250 3412 
Q 2225 3775 1925 3937 
Q 1625 4100 1287 3975 
Q 950 3850 750 3275 
L 300 3350 
Q 450 3800 712 4100 
Q 975 4400 1425 4450 
Q 1875 4500 2212 4337 
Q 2550 4175 2687 3837 
Q 2825 3500 2725 3100 
Q 2625 2700 2150 2400 
Q 2500 2250 2687 1950 
Q 2875 1650 2812 1162 
Q 2750 675 2375 375 
Q 2000 75 1525 87 
Q 1050 100 700 387 
Q 350 675 250 1225 
z
" transform="scale(0.015625)"/>
       </defs>
       <use xlink:href="#SimHei-30"/>
       <use xlink:href="#SimHei-2e" x="50"/>
       <use xlink:href="#SimHei-30" x="100"/>
       <use xlink:href="#SimHei-33" x="150"/>
       <use xlink:href="#SimHei-30" x="200"/>
      </g>
     </g>
    </g>
    <g id="ytick_8">
     <g id="line2d_17">
      <g>
       <use xlink:href="#m2443682950" x="54" y="50.723856" style="stroke: #000000; stroke-width: 0.8"/>
      </g>
     </g>
     <g id="text_18">
      <!-- 0.035 -->
      <g transform="translate(22 54.161356)scale(0.1 -0.1)">
       <use xlink:href="#SimHei-30"/>
       <use xlink:href="#SimHei-2e" x="50"/>
       <use xlink:href="#SimHei-30" x="100"/>
       <use xlink:href="#SimHei-33" x="150"/>
       <use xlink:href="#SimHei-35" x="200"/>
      </g>
     </g>
    </g>
    <g id="text_19">
     <!-- avg of abs(dis2-dis1)/(dis1+1) -->
     <g transform="translate(16.75 218.28)rotate(-90)scale(0.1 -0.1)">
      <defs>
       <path id="SimHei-61" d="M 2875 125 
L 2275 125 
Q 2225 175 2200 262 
Q 2175 350 2175 475 
Q 2000 275 1750 175 
Q 1500 75 1225 75 
Q 825 75 550 275 
Q 275 475 275 850 
Q 275 1225 525 1450 
Q 775 1675 1300 1750 
Q 1650 1800 1912 1875 
Q 2175 1950 2175 2075 
Q 2175 2225 2062 2375 
Q 1950 2525 1575 2525 
Q 1275 2525 1137 2412 
Q 1000 2300 950 2100 
L 400 2100 
Q 450 2500 762 2737 
Q 1075 2975 1575 2975 
Q 2125 2975 2400 2725 
Q 2675 2475 2675 2025 
L 2675 650 
Q 2675 500 2725 375 
Q 2775 250 2875 125 
z
M 2175 1050 
L 2175 1550 
Q 2025 1500 1887 1462 
Q 1750 1425 1425 1375 
Q 1050 1325 937 1200 
Q 825 1075 825 900 
Q 825 750 937 637 
Q 1050 525 1275 525 
Q 1500 525 1762 650 
Q 2025 775 2175 1050 
z
" transform="scale(0.015625)"/>
       <path id="SimHei-76" d="M 2875 2925 
L 1825 75 
L 1275 75 
L 225 2925 
L 750 2925 
L 1525 750 
L 1575 750 
L 2350 2925 
L 2875 2925 
z
" transform="scale(0.015625)"/>
       <path id="SimHei-67" d="M 2975 2500 
Q 2800 2550 2637 2562 
Q 2475 2575 2300 2525 
Q 2375 2450 2425 2337 
Q 2475 2225 2475 2000 
Q 2475 1575 2187 1300 
Q 1900 1025 1475 1025 
Q 1375 1025 1212 1062 
Q 1050 1100 950 1150 
Q 875 1100 850 1050 
Q 825 1000 825 925 
Q 825 800 1000 737 
Q 1175 675 1625 675 
Q 2350 675 2612 475 
Q 2875 275 2875 -25 
Q 2875 -425 2487 -612 
Q 2100 -800 1575 -800 
Q 900 -800 575 -625 
Q 250 -450 250 -150 
Q 250 0 375 150 
Q 500 300 700 400 
Q 550 475 462 587 
Q 375 700 375 875 
Q 375 1025 487 1137 
Q 600 1250 750 1325 
Q 625 1450 550 1625 
Q 475 1800 475 2000 
Q 475 2425 762 2700 
Q 1050 2975 1475 2975 
Q 1700 2975 1862 2912 
Q 2025 2850 2150 2725 
Q 2350 2875 2550 2937 
Q 2750 3000 2975 2975 
L 2975 2500 
z
M 1975 2000 
Q 1975 2250 1850 2400 
Q 1725 2550 1475 2550 
Q 1225 2550 1100 2400 
Q 975 2250 975 2000 
Q 975 1750 1100 1600 
Q 1225 1450 1475 1450 
Q 1725 1450 1850 1600 
Q 1975 1750 1975 2000 
z
M 2400 -75 
Q 2400 25 2287 125 
Q 2175 225 1725 225 
Q 1625 225 1450 237 
Q 1275 250 1050 275 
Q 850 200 775 100 
Q 700 0 700 -100 
Q 700 -250 900 -350 
Q 1100 -450 1600 -450 
Q 2025 -450 2212 -337 
Q 2400 -225 2400 -75 
z
" transform="scale(0.015625)"/>
       <path id="SimHei-20" transform="scale(0.015625)"/>
       <path id="SimHei-6f" d="M 2925 1525 
Q 2925 875 2525 475 
Q 2125 75 1575 75 
Q 1025 75 625 475 
Q 225 875 225 1525 
Q 225 2175 625 2575 
Q 1025 2975 1575 2975 
Q 2125 2975 2525 2575 
Q 2925 2175 2925 1525 
z
M 2375 1525 
Q 2375 2025 2125 2275 
Q 1875 2525 1575 2525 
Q 1275 2525 1025 2275 
Q 775 2025 775 1525 
Q 775 1025 1025 775 
Q 1275 525 1575 525 
Q 1875 525 2125 775 
Q 2375 1025 2375 1525 
z
" transform="scale(0.015625)"/>
       <path id="SimHei-66" d="M 2850 3825 
Q 2725 3900 2550 3950 
Q 2375 4000 2100 4000 
Q 1825 4000 1725 3862 
Q 1625 3725 1625 3525 
L 1625 2925 
L 2650 2925 
L 2650 2525 
L 1625 2525 
L 1625 125 
L 1125 125 
L 1125 2525 
L 275 2525 
L 275 2925 
L 1125 2925 
L 1125 3500 
Q 1125 3950 1400 4200 
Q 1675 4450 2125 4450 
Q 2400 4450 2562 4412 
Q 2725 4375 2850 4325 
L 2850 3825 
z
" transform="scale(0.015625)"/>
       <path id="SimHei-62" d="M 2825 1525 
Q 2825 800 2475 437 
Q 2125 75 1625 75 
Q 1350 75 1150 175 
Q 950 275 800 500 
L 800 125 
L 300 125 
L 300 4400 
L 800 4400 
L 800 2550 
Q 950 2775 1150 2887 
Q 1350 3000 1625 3000 
Q 2125 3000 2475 2625 
Q 2825 2250 2825 1525 
z
M 2275 1525 
Q 2275 2000 2087 2275 
Q 1900 2550 1525 2550 
Q 1225 2550 1012 2275 
Q 800 2000 800 1525 
Q 800 1050 1012 787 
Q 1225 525 1525 525 
Q 1900 525 2087 787 
Q 2275 1050 2275 1525 
z
" transform="scale(0.015625)"/>
       <path id="SimHei-73" d="M 2750 900 
Q 2750 500 2437 287 
Q 2125 75 1650 75 
Q 1050 75 725 312 
Q 400 550 400 1000 
L 900 1000 
Q 900 700 1112 600 
Q 1325 500 1625 500 
Q 1925 500 2075 612 
Q 2225 725 2225 900 
Q 2225 1025 2100 1150 
Q 1975 1275 1475 1350 
Q 900 1425 687 1637 
Q 475 1850 475 2200 
Q 475 2500 762 2737 
Q 1050 2975 1600 2975 
Q 2100 2975 2387 2750 
Q 2675 2525 2675 2150 
L 2175 2150 
Q 2175 2375 2012 2462 
Q 1850 2550 1600 2550 
Q 1275 2550 1137 2437 
Q 1000 2325 1000 2175 
Q 1000 2000 1125 1900 
Q 1250 1800 1650 1750 
Q 2300 1650 2525 1437 
Q 2750 1225 2750 900 
z
" transform="scale(0.015625)"/>
       <path id="SimHei-28" d="M 2975 -200 
L 2700 -475 
Q 2075 125 1762 775 
Q 1450 1425 1450 2250 
Q 1450 3075 1762 3725 
Q 2075 4375 2700 5000 
L 2975 4725 
Q 2400 4175 2112 3587 
Q 1825 3000 1825 2250 
Q 1825 1500 2112 912 
Q 2400 325 2975 -200 
z
" transform="scale(0.015625)"/>
       <path id="SimHei-64" d="M 2750 125 
L 2250 125 
L 2250 500 
Q 2100 275 1900 175 
Q 1700 75 1425 75 
Q 925 75 575 437 
Q 225 800 225 1525 
Q 225 2250 575 2625 
Q 925 3000 1425 3000 
Q 1700 3000 1900 2887 
Q 2100 2775 2250 2550 
L 2250 4400 
L 2750 4400 
L 2750 125 
z
M 2250 1525 
Q 2250 2000 2037 2275 
Q 1825 2550 1525 2550 
Q 1150 2550 962 2275 
Q 775 2000 775 1525 
Q 775 1050 962 787 
Q 1150 525 1525 525 
Q 1825 525 2037 787 
Q 2250 1050 2250 1525 
z
" transform="scale(0.015625)"/>
       <path id="SimHei-69" d="M 1800 3725 
L 1300 3725 
L 1300 4375 
L 1800 4375 
L 1800 3725 
z
M 1800 125 
L 1300 125 
L 1300 2925 
L 1800 2925 
L 1800 125 
z
" transform="scale(0.015625)"/>
       <path id="SimHei-2d" d="M 2975 2125 
L 125 2125 
L 125 2525 
L 2975 2525 
L 2975 2125 
z
" transform="scale(0.015625)"/>
       <path id="SimHei-29" d="M 1675 2250 
Q 1675 1425 1362 775 
Q 1050 125 425 -475 
L 150 -200 
Q 725 325 1012 912 
Q 1300 1500 1300 2250 
Q 1300 3000 1012 3587 
Q 725 4175 150 4725 
L 425 5000 
Q 1050 4375 1362 3725 
Q 1675 3075 1675 2250 
z
" transform="scale(0.015625)"/>
       <path id="SimHei-2f" d="M 3000 4550 
L 350 -175 
L 100 -25 
L 2750 4700 
L 3000 4550 
z
" transform="scale(0.015625)"/>
       <path id="SimHei-2b" d="M 3000 2125 
L 1775 2125 
L 1775 900 
L 1350 900 
L 1350 2125 
L 125 2125 
L 125 2525 
L 1350 2525 
L 1350 3750 
L 1775 3750 
L 1775 2525 
L 3000 2525 
L 3000 2125 
z
" transform="scale(0.015625)"/>
      </defs>
      <use xlink:href="#SimHei-61"/>
      <use xlink:href="#SimHei-76" x="50"/>
      <use xlink:href="#SimHei-67" x="100"/>
      <use xlink:href="#SimHei-20" x="150"/>
      <use xlink:href="#SimHei-6f" x="200"/>
      <use xlink:href="#SimHei-66" x="250"/>
      <use xlink:href="#SimHei-20" x="300"/>
      <use xlink:href="#SimHei-61" x="350"/>
      <use xlink:href="#SimHei-62" x="400"/>
      <use xlink:href="#SimHei-73" x="450"/>
      <use xlink:href="#SimHei-28" x="500"/>
      <use xlink:href="#SimHei-64" x="550"/>
      <use xlink:href="#SimHei-69" x="600"/>
      <use xlink:href="#SimHei-73" x="650"/>
      <use xlink:href="#SimHei-32" x="700"/>
      <use xlink:href="#SimHei-2d" x="750"/>
      <use xlink:href="#SimHei-64" x="800"/>
      <use xlink:href="#SimHei-69" x="850"/>
      <use xlink:href="#SimHei-73" x="900"/>
      <use xlink:href="#SimHei-31" x="950"/>
      <use xlink:href="#SimHei-29" x="1000"/>
      <use xlink:href="#SimHei-2f" x="1050"/>
      <use xlink:href="#SimHei-28" x="1100"/>
      <use xlink:href="#SimHei-64" x="1150"/>
      <use xlink:href="#SimHei-69" x="1200"/>
      <use xlink:href="#SimHei-73" x="1250"/>
      <use xlink:href="#SimHei-31" x="1300"/>
      <use xlink:href="#SimHei-2b" x="1350"/>
      <use xlink:href="#SimHei-31" x="1400"/>
      <use xlink:href="#SimHei-29" x="1450"/>
     </g>
    </g>
   </g>
   <g id="line2d_18">
    <path d="M 69.218182 242.116364 
L 79.92444 239.540398 
L 81.453906 239.122871 
L 82.983371 239.06983 
L 86.042302 238.137084 
L 87.571768 237.998915 
L 89.101233 237.398785 
L 90.630699 237.201702 
L 92.160164 237.138223 
L 95.219095 236.223903 
L 96.748561 235.69198 
L 98.278026 235.785671 
L 99.807492 235.018038 
L 102.866423 234.190701 
L 104.395889 234.231116 
L 105.925354 233.395612 
L 107.45482 233.765173 
L 108.984285 232.876747 
L 110.513751 232.782585 
L 112.043216 231.741454 
L 113.572682 231.854331 
L 116.631613 231.390841 
L 118.161078 230.640489 
L 119.690544 230.820333 
L 121.220009 230.206092 
L 122.749475 230.093248 
L 124.27894 229.643253 
L 125.808406 229.029369 
L 127.337871 228.95634 
L 128.867337 228.625372 
L 130.396802 228.673175 
L 131.926268 227.529908 
L 133.455733 227.048206 
L 134.985199 226.793277 
L 136.514664 226.326185 
L 138.04413 226.799121 
L 139.573595 225.228887 
L 141.103061 224.169947 
L 142.632526 224.689262 
L 144.161992 224.584081 
L 145.691457 223.91888 
L 148.750388 223.839056 
L 150.279854 223.691189 
L 151.809319 221.863634 
L 154.86825 221.614694 
L 156.397716 223.175698 
L 157.927181 221.869612 
L 159.456647 220.407418 
L 160.986112 221.000712 
L 162.515578 219.250812 
L 164.045043 219.165271 
L 165.574509 219.432873 
L 167.103974 217.706768 
L 168.63344 217.062058 
L 170.162905 219.837629 
L 171.692371 217.28169 
L 173.221836 218.682708 
L 174.751302 215.862377 
L 176.280767 217.202203 
L 177.810233 214.957254 
L 179.339698 215.286592 
L 180.869164 214.426817 
L 182.39863 215.074017 
L 183.928095 212.726938 
L 185.457561 213.801668 
L 186.987026 213.770923 
L 188.516492 213.851421 
L 190.045957 214.478724 
L 191.575423 213.709324 
L 193.104888 212.056927 
L 194.634354 212.281856 
L 196.163819 211.118829 
L 197.693285 212.449318 
L 199.22275 212.85972 
L 200.752216 211.285386 
L 202.281681 209.966583 
L 203.811147 207.923076 
L 205.340612 210.502832 
L 206.870078 209.070069 
L 208.399543 209.85003 
L 209.929009 208.617711 
L 211.458474 207.74125 
L 212.98794 209.391019 
L 214.517405 207.604039 
L 216.046871 207.098332 
L 217.576336 205.5569 
L 219.105802 206.007524 
L 220.635267 207.895111 
L 222.164733 203.559293 
L 223.694198 203.426229 
L 225.223664 203.984086 
L 226.753129 202.809959 
L 228.282595 203.37237 
L 229.81206 202.16603 
L 231.341526 204.226539 
L 232.870991 202.300156 
L 234.400457 202.661082 
L 235.929922 200.02086 
L 237.459388 202.747662 
L 238.988853 202.033776 
L 240.518319 202.46084 
L 242.047784 199.167608 
L 243.57725 198.446431 
L 245.106715 198.867185 
L 246.636181 200.548192 
L 248.165646 198.445016 
L 249.695112 196.980165 
L 251.224577 198.529758 
L 252.754043 196.484984 
L 254.283508 195.395988 
L 255.812974 195.168878 
L 257.342439 197.048172 
L 258.871905 196.358254 
L 260.40137 194.594669 
L 261.930836 195.300006 
L 263.460302 193.998174 
L 264.989767 192.955912 
L 266.519233 194.153902 
L 268.048698 193.269153 
L 269.578164 191.749245 
L 271.107629 192.336819 
L 272.637095 193.458358 
L 274.16656 191.404787 
L 275.696026 194.467666 
L 277.225491 189.851221 
L 278.754957 192.293632 
L 280.284422 188.523339 
L 281.813888 188.205977 
L 283.343353 181.617967 
L 284.872819 184.580263 
L 286.402284 188.001633 
L 289.461215 185.455425 
L 290.990681 186.603997 
L 292.520146 185.185415 
L 294.049612 184.690968 
L 297.108543 182.757058 
L 298.638008 184.665238 
L 300.167474 185.627465 
L 301.696939 179.884453 
L 303.226405 182.142837 
L 304.75587 182.819514 
L 306.285336 179.958757 
L 307.814801 179.605281 
L 309.344267 182.541521 
L 310.873732 178.643749 
L 312.403198 177.748613 
L 313.932663 182.291127 
L 315.462129 181.487815 
L 316.991594 176.224766 
L 318.52106 175.507643 
L 320.050525 177.604256 
L 321.579991 172.963663 
L 323.109456 174.347817 
L 324.638922 171.484704 
L 326.168387 174.284413 
L 329.227318 174.301417 
L 330.756784 177.949774 
L 332.286249 171.598193 
L 333.815715 171.114938 
L 335.34518 173.183737 
L 336.874646 169.31448 
L 338.404111 171.206399 
L 339.933577 167.560364 
L 341.463042 171.910612 
L 344.521974 169.605247 
L 346.051439 166.228985 
L 347.580905 169.81117 
L 349.11037 167.980963 
L 350.639836 168.86101 
L 352.169301 165.895586 
L 353.698767 166.918357 
L 355.228232 164.0085 
L 356.757698 167.67929 
L 358.287163 167.259619 
L 359.816629 164.576833 
L 361.346094 162.286296 
L 362.87556 161.644559 
L 364.405025 161.248215 
L 365.934491 162.793083 
L 367.463956 158.331741 
L 368.993422 164.556647 
L 370.522887 157.552062 
L 372.052353 165.299782 
L 373.581818 157.650485 
L 373.581818 157.650485 
" clip-path="url(#pad696ede4c)" style="fill: none; stroke: #1f77b4; stroke-width: 2; stroke-linecap: square"/>
   </g>
   <g id="line2d_19">
    <path d="M 69.218182 242.116364 
L 70.747647 235.436965 
L 72.277113 232.946518 
L 73.806578 231.198607 
L 76.865509 223.853616 
L 78.394975 223.376995 
L 81.453906 217.801759 
L 82.983371 215.20959 
L 84.512837 213.544811 
L 86.042302 212.275384 
L 87.571768 212.816147 
L 89.101233 208.312305 
L 90.630699 210.010999 
L 92.160164 208.984096 
L 93.68963 200.742679 
L 95.219095 204.437877 
L 96.748561 198.564116 
L 98.278026 199.778179 
L 99.807492 197.081294 
L 101.336958 196.941301 
L 102.866423 195.918194 
L 104.395889 199.676714 
L 105.925354 193.18189 
L 107.45482 193.081254 
L 108.984285 182.029135 
L 110.513751 186.836177 
L 112.043216 187.394936 
L 113.572682 184.97681 
L 115.102147 186.787234 
L 116.631613 185.207384 
L 118.161078 179.400453 
L 119.690544 176.809751 
L 121.220009 182.504051 
L 122.749475 178.240569 
L 124.27894 178.226892 
L 125.808406 162.851766 
L 127.337871 173.803162 
L 128.867337 171.989225 
L 130.396802 173.923251 
L 131.926268 175.585597 
L 133.455733 175.933451 
L 134.985199 172.143665 
L 136.514664 171.101215 
L 138.04413 173.088217 
L 139.573595 168.804151 
L 141.103061 167.930522 
L 142.632526 167.912732 
L 144.161992 161.532505 
L 145.691457 163.881226 
L 147.220923 163.96796 
L 148.750388 161.128402 
L 150.279854 162.926919 
L 151.809319 157.968222 
L 153.338785 161.393375 
L 154.86825 159.663614 
L 156.397716 157.13113 
L 157.927181 155.673982 
L 159.456647 150.977636 
L 160.986112 159.351473 
L 162.515578 158.507498 
L 164.045043 158.356238 
L 165.574509 152.488398 
L 167.103974 130.814107 
L 168.63344 150.127552 
L 170.162905 151.951562 
L 171.692371 140.903167 
L 173.221836 149.404807 
L 174.751302 131.770106 
L 176.280767 147.978265 
L 177.810233 137.184019 
L 179.339698 141.154785 
L 180.869164 130.300394 
L 182.39863 138.188981 
L 183.928095 129.947399 
L 185.457561 148.25344 
L 186.987026 139.240595 
L 188.516492 139.616831 
L 190.045957 89.18102 
L 191.575423 141.903602 
L 193.104888 124.889724 
L 194.634354 138.219711 
L 196.163819 128.412431 
L 197.693285 138.767183 
L 199.22275 129.378931 
L 200.752216 124.941168 
L 202.281681 124.247047 
L 205.340612 113.177499 
L 206.870078 133.207631 
L 208.399543 117.411728 
L 209.929009 117.818522 
L 212.98794 130.923371 
L 214.517405 127.872046 
L 216.046871 116.965027 
L 217.576336 120.814777 
L 219.105802 114.28616 
L 220.635267 127.465073 
L 222.164733 119.944587 
L 223.694198 114.936298 
L 225.223664 116.855676 
L 226.753129 121.373944 
L 228.282595 108.334463 
L 229.81206 114.41013 
L 231.341526 116.757052 
L 232.870991 114.685047 
L 234.400457 113.719244 
L 235.929922 118.000371 
L 237.459388 120.564324 
L 238.988853 114.150404 
L 240.518319 114.79143 
L 242.047784 98.958011 
L 243.57725 108.486446 
L 245.106715 100.992154 
L 246.636181 105.846073 
L 248.165646 107.416228 
L 249.695112 100.401116 
L 251.224577 105.983929 
L 252.754043 114.064293 
L 254.283508 90.787807 
L 255.812974 100.150792 
L 257.342439 104.343845 
L 258.871905 109.080329 
L 260.40137 86.764497 
L 261.930836 110.812617 
L 263.460302 102.49738 
L 264.989767 100.298177 
L 266.519233 96.084737 
L 268.048698 109.045326 
L 269.578164 95.089009 
L 271.107629 93.48181 
L 272.637095 87.387178 
L 274.16656 87.902459 
L 275.696026 100.587427 
L 277.225491 89.614941 
L 278.754957 93.037648 
L 280.284422 88.521318 
L 281.813888 90.15446 
L 283.343353 93.476345 
L 284.872819 91.21616 
L 286.402284 94.200989 
L 287.93175 90.685852 
L 289.461215 89.351605 
L 290.990681 85.651505 
L 292.520146 78.34635 
L 294.049612 81.291778 
L 295.579077 87.784801 
L 297.108543 79.8389 
L 298.638008 89.807814 
L 300.167474 81.483438 
L 301.696939 83.635051 
L 303.226405 72.929842 
L 304.75587 84.370479 
L 306.285336 79.025315 
L 307.814801 86.669101 
L 309.344267 67.21497 
L 310.873732 77.01526 
L 312.403198 76.767283 
L 313.932663 71.54547 
L 315.462129 81.438446 
L 316.991594 64.376669 
L 318.52106 82.514934 
L 320.050525 83.899265 
L 321.579991 70.191794 
L 323.109456 64.321402 
L 324.638922 46.305474 
L 326.168387 68.707047 
L 327.697853 86.789794 
L 329.227318 80.295099 
L 330.756784 79.257389 
L 332.286249 70.054723 
L 333.815715 74.223914 
L 335.34518 75.087666 
L 336.874646 72.649617 
L 338.404111 66.331774 
L 339.933577 52.800155 
L 341.463042 55.835061 
L 342.992508 75.048794 
L 344.521974 69.767107 
L 346.051439 63.442286 
L 347.580905 66.484727 
L 349.11037 57.919505 
L 350.639836 70.002679 
L 352.169301 62.160758 
L 353.698767 50.099059 
L 355.228232 60.975888 
L 356.757698 58.504688 
L 358.287163 52.825616 
L 359.816629 48.012991 
L 361.346094 51.627434 
L 362.87556 46.43685 
L 364.405025 53.754735 
L 365.934491 66.807288 
L 367.463956 66.170707 
L 368.993422 77.269585 
L 370.522887 44.443636 
L 372.052353 57.210627 
L 373.581818 51.990363 
L 373.581818 51.990363 
" clip-path="url(#pad696ede4c)" style="fill: none; stroke: #ff7f0e; stroke-width: 3; stroke-linecap: square"/>
   </g>
   <g id="line2d_20">
    <path d="M 69.218182 242.116364 
L 79.92444 238.794473 
L 81.453906 238.191774 
L 82.983371 237.947247 
L 84.512837 237.37242 
L 86.042302 236.660076 
L 87.571768 236.55502 
L 89.101233 235.782471 
L 90.630699 235.706018 
L 93.68963 234.89173 
L 95.219095 233.775788 
L 96.748561 233.684125 
L 99.807492 233.079487 
L 101.336958 232.155227 
L 102.866423 231.618598 
L 104.395889 231.395631 
L 105.925354 230.598748 
L 107.45482 230.970159 
L 108.984285 229.350765 
L 110.513751 229.123671 
L 112.043216 227.568282 
L 113.572682 228.265104 
L 115.102147 227.715281 
L 116.631613 227.637416 
L 118.161078 226.354288 
L 119.690544 226.694049 
L 121.220009 226.477734 
L 122.749475 225.97749 
L 125.808406 224.268306 
L 127.337871 225.070833 
L 128.867337 224.030145 
L 130.396802 223.724464 
L 131.926268 222.293507 
L 133.455733 222.68098 
L 134.985199 221.788951 
L 136.514664 220.170063 
L 138.04413 221.296753 
L 139.573595 219.663926 
L 141.103061 218.327491 
L 142.632526 219.934062 
L 144.161992 218.558538 
L 145.691457 217.79484 
L 147.220923 218.094372 
L 148.750388 217.031067 
L 150.279854 217.007665 
L 151.809319 215.98156 
L 153.338785 215.785058 
L 154.86825 214.843133 
L 156.397716 216.156242 
L 159.456647 213.32316 
L 160.986112 214.455774 
L 162.515578 211.517643 
L 164.045043 212.594436 
L 167.103974 210.154723 
L 168.63344 208.296228 
L 170.162905 212.275194 
L 171.692371 210.394884 
L 173.221836 211.179557 
L 174.751302 208.433191 
L 176.280767 209.160097 
L 177.810233 205.812892 
L 179.339698 205.844867 
L 180.869164 205.496214 
L 182.39863 207.319527 
L 183.928095 205.013998 
L 185.457561 204.697122 
L 186.987026 205.545539 
L 188.516492 204.985428 
L 190.045957 207.402347 
L 193.104888 201.979983 
L 194.634354 202.900721 
L 196.163819 202.259597 
L 197.693285 203.573731 
L 199.22275 202.270232 
L 200.752216 201.292663 
L 202.281681 197.6136 
L 203.811147 197.780577 
L 205.340612 200.046409 
L 206.870078 197.859703 
L 208.399543 199.349949 
L 209.929009 198.317823 
L 211.458474 195.378904 
L 212.98794 196.499548 
L 214.517405 197.845598 
L 217.576336 193.94327 
L 219.105802 194.912903 
L 220.635267 196.951113 
L 222.164733 192.197426 
L 223.694198 191.687862 
L 225.223664 193.641048 
L 226.753129 191.724317 
L 228.282595 190.714078 
L 229.81206 189.452608 
L 231.341526 190.746717 
L 232.870991 189.927987 
L 234.400457 188.347023 
L 235.929922 187.684051 
L 237.459388 192.279824 
L 238.988853 189.439304 
L 240.518319 190.321598 
L 242.047784 188.4408 
L 243.57725 184.885545 
L 245.106715 187.117699 
L 246.636181 187.147734 
L 248.165646 185.366445 
L 249.695112 185.002129 
L 251.224577 183.652335 
L 252.754043 183.33768 
L 254.283508 180.732912 
L 255.812974 182.357103 
L 257.342439 187.214858 
L 258.871905 182.34056 
L 260.40137 182.761884 
L 261.930836 182.092785 
L 263.460302 179.969525 
L 264.989767 178.286112 
L 266.519233 179.385575 
L 268.048698 180.050423 
L 269.578164 177.44557 
L 271.107629 178.322604 
L 272.637095 178.36055 
L 274.16656 178.678098 
L 275.696026 179.782723 
L 277.225491 175.145072 
L 278.754957 177.802132 
L 280.284422 175.028093 
L 281.813888 174.475237 
L 283.343353 167.191994 
L 284.872819 171.68207 
L 286.402284 173.536591 
L 287.93175 170.886306 
L 289.461215 169.780362 
L 290.990681 172.196915 
L 292.520146 168.270061 
L 294.049612 169.106546 
L 295.579077 168.524373 
L 297.108543 167.368557 
L 298.638008 165.872374 
L 300.167474 169.92764 
L 301.696939 165.517869 
L 303.226405 164.724696 
L 304.75587 165.26577 
L 306.285336 162.623005 
L 307.814801 163.4889 
L 309.344267 167.896377 
L 310.873732 159.876805 
L 312.403198 161.298496 
L 313.932663 166.940989 
L 315.462129 161.477265 
L 316.991594 157.000421 
L 318.52106 157.599315 
L 320.050525 161.840168 
L 321.579991 156.066505 
L 323.109456 157.916047 
L 324.638922 154.767444 
L 326.168387 156.765417 
L 327.697853 157.393886 
L 329.227318 156.966455 
L 330.756784 158.940861 
L 332.286249 154.935564 
L 333.815715 153.20434 
L 335.34518 153.369443 
L 336.874646 150.934569 
L 338.404111 150.493966 
L 339.933577 147.890877 
L 341.463042 149.041123 
L 342.992508 154.391598 
L 344.521974 153.343634 
L 346.051439 145.72239 
L 347.580905 149.53382 
L 349.11037 149.180855 
L 350.639836 150.737781 
L 352.169301 145.358951 
L 353.698767 149.010272 
L 355.228232 146.46163 
L 356.757698 148.820755 
L 358.287163 149.088188 
L 359.816629 142.589873 
L 361.346094 143.561573 
L 362.87556 139.186893 
L 364.405025 140.943061 
L 365.934491 144.133658 
L 367.463956 137.7371 
L 368.993422 145.918 
L 370.522887 138.904078 
L 372.052353 144.449029 
L 373.581818 139.660711 
L 373.581818 139.660711 
" clip-path="url(#pad696ede4c)" style="fill: none; stroke: #2ca02c; stroke-width: 2; stroke-linecap: square"/>
   </g>
   <g id="line2d_21">
    <path d="M 69.218182 242.116364 
L 72.277113 234.376432 
L 73.806578 232.003784 
L 75.336044 228.83343 
L 78.394975 224.922766 
L 79.92444 220.971161 
L 81.453906 219.211007 
L 82.983371 217.266131 
L 84.512837 214.94329 
L 86.042302 214.44443 
L 87.571768 213.609797 
L 89.101233 209.849387 
L 90.630699 210.67809 
L 92.160164 209.127237 
L 93.68963 202.252572 
L 95.219095 205.115068 
L 96.748561 204.286877 
L 98.278026 199.962641 
L 99.807492 200.643648 
L 101.336958 199.921552 
L 102.866423 197.923716 
L 104.395889 199.534168 
L 105.925354 196.958397 
L 107.45482 197.023799 
L 108.984285 189.719463 
L 110.513751 189.672432 
L 112.043216 190.652366 
L 113.572682 188.796968 
L 115.102147 190.066036 
L 116.631613 189.953053 
L 118.161078 186.839015 
L 119.690544 184.976901 
L 121.220009 185.933547 
L 122.749475 183.200818 
L 124.27894 183.336856 
L 125.808406 169.22282 
L 127.337871 178.291429 
L 128.867337 180.700156 
L 130.396802 176.77367 
L 131.926268 179.377956 
L 133.455733 176.103406 
L 134.985199 178.317284 
L 136.514664 175.818407 
L 138.04413 174.585601 
L 139.573595 172.99657 
L 141.103061 170.261245 
L 142.632526 172.947277 
L 144.161992 167.252092 
L 145.691457 169.696328 
L 147.220923 168.082453 
L 148.750388 168.02857 
L 150.279854 164.092401 
L 151.809319 162.86039 
L 153.338785 163.63321 
L 154.86825 165.593561 
L 156.397716 164.683418 
L 157.927181 161.4464 
L 159.456647 153.991141 
L 160.986112 160.803806 
L 162.515578 164.285675 
L 164.045043 161.381702 
L 165.574509 159.733249 
L 167.103974 142.035791 
L 168.63344 152.058411 
L 170.162905 157.828732 
L 171.692371 144.279759 
L 173.221836 156.289403 
L 174.751302 141.630925 
L 176.280767 157.057804 
L 177.810233 141.734869 
L 179.339698 149.751548 
L 180.869164 140.869729 
L 182.39863 147.56899 
L 183.928095 145.046347 
L 185.457561 151.360136 
L 186.987026 146.995514 
L 188.516492 146.156404 
L 190.045957 123.165713 
L 191.575423 148.393129 
L 193.104888 133.616541 
L 194.634354 145.17815 
L 196.163819 141.346694 
L 197.693285 143.370528 
L 199.22275 140.513412 
L 200.752216 130.636567 
L 202.281681 137.060453 
L 203.811147 131.970172 
L 205.340612 130.417471 
L 206.870078 137.901721 
L 208.399543 130.752333 
L 209.929009 126.935827 
L 211.458474 133.304615 
L 212.98794 140.535316 
L 214.517405 137.39004 
L 216.046871 129.867852 
L 217.576336 130.610596 
L 219.105802 128.242475 
L 220.635267 132.438612 
L 222.164733 130.382315 
L 223.694198 126.061088 
L 225.223664 125.728337 
L 226.753129 128.670662 
L 228.282595 116.485394 
L 229.81206 123.852443 
L 231.341526 127.070591 
L 232.870991 121.885996 
L 235.929922 126.349744 
L 237.459388 124.387111 
L 238.988853 126.001424 
L 240.518319 120.139015 
L 242.047784 113.459265 
L 243.57725 117.913576 
L 245.106715 112.470791 
L 246.636181 113.674892 
L 248.165646 116.846661 
L 249.695112 113.450998 
L 251.224577 113.903528 
L 252.754043 121.573519 
L 254.283508 107.707154 
L 255.812974 114.953338 
L 257.342439 121.514381 
L 258.871905 115.479006 
L 260.40137 106.492796 
L 261.930836 117.942637 
L 266.519233 103.061807 
L 268.048698 115.825995 
L 269.578164 110.229677 
L 271.107629 109.112162 
L 272.637095 104.73768 
L 274.16656 99.904331 
L 275.696026 113.648192 
L 277.225491 103.942371 
L 278.754957 107.80321 
L 280.284422 96.51628 
L 281.813888 101.522742 
L 283.343353 105.085987 
L 284.872819 95.226253 
L 286.402284 102.883903 
L 287.93175 105.035444 
L 289.461215 98.631868 
L 290.990681 95.587783 
L 292.520146 94.667348 
L 294.049612 98.402158 
L 295.579077 93.030945 
L 297.108543 97.369813 
L 298.638008 97.270612 
L 300.167474 94.912317 
L 301.696939 90.052861 
L 303.226405 89.150427 
L 304.75587 96.771825 
L 306.285336 95.02983 
L 307.814801 90.402274 
L 309.344267 79.823757 
L 310.873732 84.83363 
L 312.403198 88.738347 
L 313.932663 85.051932 
L 315.462129 89.783859 
L 316.991594 81.434477 
L 318.52106 93.562829 
L 320.050525 95.099688 
L 321.579991 85.474273 
L 323.109456 88.313306 
L 324.638922 67.375758 
L 326.168387 83.665356 
L 327.697853 95.221977 
L 329.227318 87.152718 
L 330.756784 93.286734 
L 332.286249 86.243211 
L 333.815715 87.151499 
L 335.34518 86.330895 
L 336.874646 90.011015 
L 338.404111 76.809245 
L 339.933577 66.706328 
L 341.463042 74.399725 
L 342.992508 84.750032 
L 344.521974 82.666101 
L 346.051439 75.791289 
L 347.580905 77.811307 
L 349.11037 68.234143 
L 350.639836 74.852641 
L 352.169301 74.658732 
L 353.698767 75.958897 
L 355.228232 78.277867 
L 356.757698 71.001381 
L 358.287163 62.840665 
L 359.816629 59.273461 
L 361.346094 67.279784 
L 362.87556 65.859238 
L 364.405025 68.397903 
L 365.934491 74.529969 
L 367.463956 70.514611 
L 368.993422 85.769262 
L 370.522887 55.349296 
L 372.052353 62.024986 
L 373.581818 69.629482 
L 373.581818 69.629482 
" clip-path="url(#pad696ede4c)" style="fill: none; stroke: #d62728; stroke-width: 2; stroke-linecap: square"/>
   </g>
   <g id="patch_3">
    <path d="M 54 252 
L 54 34.56 
" style="fill: none; stroke: #000000; stroke-width: 0.8; stroke-linejoin: miter; stroke-linecap: square"/>
   </g>
   <g id="patch_4">
    <path d="M 388.8 252 
L 388.8 34.56 
" style="fill: none; stroke: #000000; stroke-width: 0.8; stroke-linejoin: miter; stroke-linecap: square"/>
   </g>
   <g id="patch_5">
    <path d="M 54 252 
L 388.8 252 
" style="fill: none; stroke: #000000; stroke-width: 0.8; stroke-linejoin: miter; stroke-linecap: square"/>
   </g>
   <g id="patch_6">
    <path d="M 54 34.56 
L 388.8 34.56 
" style="fill: none; stroke: #000000; stroke-width: 0.8; stroke-linejoin: miter; stroke-linecap: square"/>
   </g>
   <g id="text_20">
    <!-- 讨论不同干扰强度对不稳定性的影响 -->
    <g transform="translate(125.4 28.56)scale(0.12 -0.12)">
     <defs>
      <path id="SimHei-8ba8" d="M 4700 3775 
Q 4700 4600 4675 5225 
L 5225 5225 
Q 5200 4625 5200 3775 
Q 5625 3775 6075 3800 
L 6075 3325 
Q 5675 3350 5200 3350 
L 5200 25 
Q 5200 -325 4925 -437 
Q 4650 -550 4150 -600 
Q 4125 -300 3875 25 
Q 4450 0 4575 50 
Q 4700 100 4700 350 
L 4700 3350 
L 3225 3350 
Q 2900 3350 2300 3325 
L 2300 3800 
Q 2875 3775 3175 3775 
L 4700 3775 
z
M 1700 3375 
Q 1675 2925 1675 2400 
L 1675 550 
Q 2000 850 2400 1325 
Q 2550 1025 2725 825 
Q 2375 550 2037 237 
Q 1700 -75 1450 -350 
Q 1225 -100 1025 50 
Q 1200 250 1200 575 
L 1200 2950 
Q 575 2950 300 2925 
L 300 3400 
Q 575 3375 975 3375 
L 1700 3375 
z
M 3025 2750 
Q 3525 2150 3875 1525 
Q 3625 1375 3425 1250 
Q 3150 1850 2625 2475 
Q 2800 2575 3025 2750 
z
M 1250 5250 
Q 1550 4850 1825 4200 
Q 1625 4100 1375 3950 
Q 1175 4500 825 5000 
Q 1000 5100 1250 5250 
z
" transform="scale(0.015625)"/>
      <path id="SimHei-8bba" d="M 3500 1600 
Q 3825 1725 4250 2000 
Q 4675 2275 4975 2575 
Q 5225 2275 5400 2100 
Q 5050 1950 4550 1675 
Q 4050 1400 3500 1150 
L 3500 300 
Q 3500 -100 3800 -100 
L 4825 -100 
Q 5125 -100 5250 137 
Q 5375 375 5375 575 
Q 5675 350 5925 275 
Q 5750 -225 5550 -375 
Q 5350 -525 5100 -525 
L 3550 -525 
Q 3025 -475 3025 0 
L 3025 2175 
Q 3025 2525 3000 2850 
L 3525 2850 
Q 3500 2400 3500 2200 
L 3500 1600 
z
M 4175 4850 
Q 4400 4350 4950 3687 
Q 5500 3025 6175 2700 
Q 5975 2575 5800 2275 
Q 5100 2750 4637 3375 
Q 4175 4000 3950 4425 
Q 3725 3950 3387 3425 
Q 3050 2900 2325 2200 
Q 2175 2375 1950 2575 
Q 2350 2825 2650 3175 
Q 2950 3525 3200 3962 
Q 3450 4400 3575 4725 
Q 3700 5050 3750 5250 
Q 3975 5150 4275 5050 
L 4175 4850 
z
M 1600 3150 
Q 1575 2750 1575 2275 
L 1575 550 
Q 1950 825 2400 1300 
Q 2500 1075 2650 800 
Q 2250 475 1900 187 
Q 1550 -100 1250 -375 
Q 1150 -225 900 50 
Q 1100 250 1100 450 
L 1100 2700 
L 800 2700 
Q 550 2700 275 2675 
L 275 3175 
Q 550 3150 800 3150 
L 1600 3150 
z
M 975 5000 
Q 1550 4525 2125 4025 
Q 1950 3875 1750 3650 
Q 1325 4150 650 4650 
Q 825 4800 975 5000 
z
" transform="scale(0.015625)"/>
      <path id="SimHei-4e0d" d="M 5975 4450 
Q 5525 4475 5200 4475 
L 3725 4475 
Q 3550 4125 3300 3700 
L 3300 575 
Q 3300 75 3325 -550 
L 2775 -550 
Q 2800 50 2800 575 
L 2800 3025 
Q 2025 1950 700 1050 
Q 500 1350 325 1475 
Q 825 1700 1650 2437 
Q 2475 3175 3175 4475 
L 1525 4475 
Q 1050 4475 525 4450 
L 525 4950 
Q 1275 4925 1675 4925 
L 5175 4925 
Q 5500 4925 5975 4950 
L 5975 4450 
z
M 5450 1125 
Q 4975 1725 3750 2975 
Q 3950 3150 4075 3325 
Q 4675 2775 5100 2362 
Q 5525 1950 5900 1550 
Q 5650 1350 5450 1125 
z
" transform="scale(0.015625)"/>
      <path id="SimHei-540c" d="M 5825 4925 
Q 5775 4550 5775 3975 
L 5775 -50 
Q 5775 -400 5525 -487 
Q 5275 -575 4725 -625 
Q 4725 -400 4525 -50 
Q 4925 -50 5100 -12 
Q 5275 25 5275 200 
L 5275 4450 
L 1150 4450 
L 1150 -600 
L 575 -600 
Q 600 -250 625 200 
L 625 3975 
Q 625 4575 600 4925 
L 5825 4925 
z
M 4375 2550 
Q 4325 2275 4325 1700 
Q 4325 1150 4375 725 
L 2025 725 
Q 2050 1175 2050 1750 
Q 2050 2325 2025 2550 
L 4375 2550 
z
M 4100 3750 
Q 4600 3750 4825 3775 
L 4825 3275 
Q 4575 3300 4075 3300 
L 2450 3300 
Q 1850 3300 1600 3275 
L 1600 3775 
Q 1875 3750 2475 3750 
L 4100 3750 
z
M 3875 1150 
L 3875 2150 
L 2525 2150 
L 2525 1150 
L 3875 1150 
z
" transform="scale(0.015625)"/>
      <path id="SimHei-5bf9" d="M 525 4250 
Q 900 4225 1400 4225 
L 2825 4225 
Q 2575 2625 2200 1750 
Q 2825 875 3125 400 
Q 2950 275 2725 75 
Q 2200 975 1950 1300 
Q 1650 775 1350 425 
Q 1050 75 600 -350 
Q 425 -125 200 -25 
Q 625 275 975 675 
Q 1325 1075 1650 1700 
Q 1050 2425 550 2900 
Q 700 3025 900 3225 
Q 1625 2425 1875 2150 
Q 2200 3050 2300 3825 
L 1400 3825 
Q 900 3825 525 3800 
L 525 4250 
z
M 2925 3700 
Q 3525 3675 3750 3675 
L 4825 3675 
L 4825 4425 
Q 4825 4750 4775 5125 
L 5350 5125 
Q 5325 4825 5325 4375 
L 5325 3675 
Q 5575 3675 6150 3700 
L 6150 3250 
Q 5575 3275 5325 3275 
L 5325 125 
Q 5350 -350 5012 -475 
Q 4675 -600 4250 -650 
Q 4175 -350 4025 -100 
Q 4575 -100 4712 -37 
Q 4850 25 4825 325 
L 4825 3275 
L 3775 3275 
Q 3550 3275 2925 3225 
L 2925 3700 
z
M 3450 2725 
Q 3875 1975 4175 1325 
Q 3850 1200 3700 1075 
Q 3475 1750 3050 2475 
Q 3225 2550 3450 2725 
z
" transform="scale(0.015625)"/>
      <path id="SimHei-7a33" d="M 4050 5125 
Q 3875 4975 3675 4625 
L 5325 4625 
Q 5200 4450 5062 4212 
Q 4925 3975 4800 3650 
L 5625 3650 
Q 5600 3350 5600 2600 
Q 5600 1875 5625 1425 
L 3425 1425 
Q 3075 1425 2750 1400 
L 2750 1850 
Q 3075 1825 3450 1825 
L 5100 1825 
L 5100 2375 
L 3550 2375 
Q 3175 2375 2875 2350 
L 2875 2775 
Q 3175 2750 3525 2750 
L 5100 2750 
L 5100 3275 
L 3775 3275 
Q 3350 3275 3050 3250 
L 3050 3650 
Q 2875 3425 2725 3200 
Q 2525 3400 2350 3475 
Q 2675 3875 2987 4412 
Q 3300 4950 3400 5300 
Q 3725 5200 4050 5125 
z
M 2500 4575 
Q 2275 4575 2012 4512 
Q 1750 4450 1625 4450 
L 1625 3350 
Q 1975 3350 2375 3375 
L 2375 2950 
Q 1925 2975 1625 2975 
L 1625 2225 
Q 1775 2325 1950 2500 
Q 2225 2100 2525 1600 
Q 2300 1500 2150 1350 
Q 1950 1725 1625 2175 
L 1625 400 
Q 1625 25 1650 -625 
L 1150 -625 
Q 1200 25 1200 400 
L 1200 2075 
Q 875 1250 475 650 
Q 375 925 175 1125 
Q 325 1250 650 1887 
Q 975 2525 1050 2975 
Q 750 2975 275 2950 
L 275 3375 
Q 750 3350 1200 3350 
L 1200 4325 
Q 950 4275 550 4200 
Q 475 4425 275 4625 
Q 750 4675 1237 4775 
Q 1725 4875 2125 5075 
Q 2275 4775 2500 4575 
z
M 3675 1025 
Q 3650 700 3650 300 
Q 3650 -75 3775 -100 
Q 3900 -125 4250 -125 
Q 4600 -125 4687 -100 
Q 4775 -75 4825 425 
Q 5025 275 5350 200 
Q 5150 -450 4950 -500 
Q 4750 -550 4175 -550 
Q 3625 -550 3425 -487 
Q 3225 -425 3225 -100 
L 3225 525 
Q 3225 775 3200 1025 
L 3675 1025 
z
M 3050 3675 
Q 3325 3650 3775 3650 
L 4275 3650 
Q 4450 4000 4575 4275 
L 3425 4275 
Q 3275 4050 3050 3675 
z
M 2925 900 
Q 2800 725 2700 287 
Q 2600 -150 2550 -300 
Q 2325 -200 2075 -175 
Q 2225 200 2275 412 
Q 2325 625 2425 1000 
L 2925 900 
z
M 5575 1100 
Q 5950 475 6175 50 
Q 5950 -25 5750 -175 
Q 5625 175 5200 925 
Q 5425 975 5575 1100 
z
M 4225 1300 
Q 4525 825 4625 525 
Q 4550 500 4250 350 
Q 4150 700 3850 1125 
Q 4050 1200 4225 1300 
z
" transform="scale(0.015625)"/>
      <path id="SimHei-5b9a" d="M 4200 3125 
Q 4675 3125 5175 3150 
L 5175 2675 
Q 4725 2700 4100 2700 
L 3550 2700 
L 3550 1700 
L 4600 1700 
Q 4875 1700 5375 1725 
L 5375 1250 
Q 4875 1275 4575 1275 
L 3550 1275 
L 3550 100 
Q 4600 -25 6050 125 
Q 5850 -200 5800 -475 
Q 4800 -475 4150 -450 
Q 3500 -425 3050 -300 
Q 2600 -175 2250 75 
Q 1900 325 1600 675 
Q 1200 -50 675 -575 
Q 450 -350 175 -250 
Q 875 300 1200 1050 
Q 1525 1800 1550 2200 
Q 1800 2050 2150 1975 
Q 2075 1875 1987 1662 
Q 1900 1450 1775 1125 
Q 1950 900 2300 612 
Q 2650 325 3050 200 
L 3050 2700 
L 2250 2700 
Q 1825 2700 1400 2675 
L 1400 3150 
Q 1825 3125 2400 3125 
L 4200 3125 
z
M 5750 4275 
Q 5725 3925 5725 3750 
Q 5725 3575 5750 3275 
L 5225 3275 
L 5225 3875 
L 1225 3875 
L 1225 3275 
L 700 3275 
Q 725 3475 725 3725 
Q 725 3975 700 4275 
L 5750 4275 
z
M 2650 5050 
Q 2875 5125 3100 5300 
Q 3375 4975 3600 4550 
Q 3250 4400 3100 4300 
Q 3050 4525 2650 5050 
z
" transform="scale(0.015625)"/>
      <path id="SimHei-6027" d="M 3450 4525 
Q 3325 4075 3275 3750 
L 4050 3750 
L 4050 4275 
Q 4050 4700 4025 5100 
L 4550 5100 
Q 4525 4700 4525 4275 
L 4525 3750 
L 5025 3750 
Q 5350 3750 5800 3775 
L 5800 3300 
Q 5350 3325 5025 3325 
L 4525 3325 
L 4525 2000 
L 4975 2000 
Q 5350 2000 5725 2025 
L 5725 1550 
Q 5350 1575 4975 1575 
L 4525 1575 
L 4525 25 
L 5200 25 
Q 5625 25 6025 50 
L 6025 -400 
Q 5625 -375 5200 -375 
L 3275 -375 
Q 2825 -375 2400 -400 
L 2400 50 
Q 2825 25 3250 25 
L 4050 25 
L 4050 1575 
L 3625 1575 
Q 3300 1575 2875 1550 
L 2875 2025 
Q 3200 2000 3625 2000 
L 4050 2000 
L 4050 3325 
L 3175 3325 
Q 3100 2950 2775 2225 
Q 2500 2375 2325 2400 
Q 2675 3125 2775 3650 
Q 2875 4175 2950 4650 
Q 3200 4575 3450 4525 
z
M 1700 5150 
Q 1675 4650 1675 4175 
L 1675 425 
Q 1675 -100 1700 -625 
L 1175 -625 
Q 1200 -100 1200 425 
L 1200 4175 
Q 1200 4700 1175 5150 
L 1700 5150 
z
M 975 3725 
Q 825 2675 700 2150 
Q 450 2200 250 2250 
Q 425 2900 525 3800 
Q 725 3775 975 3725 
z
M 2125 4025 
Q 2325 3625 2525 3000 
Q 2300 2925 2125 2825 
Q 1950 3375 1750 3850 
Q 1950 3950 2125 4025 
z
" transform="scale(0.015625)"/>
      <path id="SimHei-7684" d="M 2100 4975 
Q 1975 4750 1750 3950 
L 2875 3950 
Q 2850 3525 2850 2875 
L 2850 675 
Q 2850 300 2875 -400 
L 2375 -400 
L 2375 100 
L 1100 100 
L 1100 -450 
L 600 -450 
Q 625 350 625 550 
L 625 2850 
Q 625 3525 600 3950 
L 1325 3950 
Q 1450 4525 1525 5150 
Q 1875 5025 2100 4975 
z
M 5825 3075 
Q 5800 1550 5700 175 
Q 5650 -275 5225 -425 
Q 4800 -575 4275 -625 
Q 4250 -350 4050 -50 
Q 4550 -75 4837 -25 
Q 5125 25 5200 200 
Q 5275 375 5312 1225 
Q 5350 2075 5375 3600 
L 3925 3600 
Q 3725 3125 3350 2475 
Q 3175 2650 2925 2750 
Q 3150 3050 3350 3475 
Q 3550 3900 3700 4400 
Q 3850 4900 3875 5175 
Q 4225 5025 4475 4950 
Q 4350 4750 4262 4512 
Q 4175 4275 4075 4050 
L 5850 4050 
Q 5825 3525 5825 3075 
z
M 2375 525 
L 2375 1850 
L 1100 1850 
L 1100 525 
L 2375 525 
z
M 2375 2275 
L 2375 3525 
L 1100 3525 
L 1100 2275 
L 2375 2275 
z
M 4350 2050 
Q 4500 1750 4700 1275 
Q 4525 1200 4225 1025 
Q 4050 1500 3900 1837 
Q 3750 2175 3600 2400 
Q 3775 2500 4050 2650 
L 4350 2050 
z
" transform="scale(0.015625)"/>
      <path id="SimHei-5f71" d="M 3550 5025 
Q 3500 4625 3512 4187 
Q 3525 3750 3550 3325 
L 775 3325 
Q 800 3750 787 4187 
Q 775 4625 775 5025 
L 3550 5025 
z
M 1450 -100 
Q 2050 -75 1975 200 
L 1975 1100 
L 775 1100 
Q 800 1375 787 1650 
Q 775 1925 775 2225 
L 3550 2225 
Q 3525 1925 3512 1650 
Q 3500 1375 3550 1100 
L 2475 1100 
L 2475 175 
Q 2500 -250 2300 -375 
Q 2100 -500 1625 -600 
Q 1575 -325 1450 -100 
z
M 2375 3250 
Q 2400 3075 2425 2875 
L 3175 2875 
Q 3600 2875 4050 2900 
L 4050 2475 
Q 3600 2500 3175 2500 
L 1200 2500 
Q 700 2500 275 2475 
L 275 2900 
Q 700 2875 1200 2875 
L 1900 2875 
Q 1875 3025 1850 3200 
Q 2100 3250 2375 3250 
z
M 6150 1350 
Q 5675 775 5000 225 
Q 4325 -325 3725 -650 
Q 3575 -400 3400 -250 
Q 3975 25 4600 500 
Q 5225 975 5775 1725 
Q 5950 1525 6150 1350 
z
M 5925 3125 
Q 5625 2850 5212 2362 
Q 4800 1875 4200 1425 
Q 4025 1625 3800 1725 
Q 4375 2050 4787 2525 
Q 5200 3000 5525 3500 
Q 5675 3325 5925 3125 
z
M 5725 4825 
Q 5325 4550 5037 4162 
Q 4750 3775 4175 3275 
Q 3975 3450 3800 3550 
Q 4175 3825 4550 4237 
Q 4925 4650 5225 5175 
Q 5425 5000 5725 4825 
z
M 3075 1475 
L 3075 1850 
L 1250 1850 
L 1250 1475 
L 3075 1475 
z
M 3075 3700 
L 3075 4000 
L 1250 4000 
L 1250 3700 
L 3075 3700 
z
M 3075 4375 
L 3075 4675 
L 1250 4675 
L 1250 4375 
L 3075 4375 
z
M 1500 500 
Q 1075 75 575 -325 
Q 475 -175 275 -25 
Q 700 250 1125 825 
Q 1300 625 1500 500 
z
M 3250 -50 
Q 3050 275 2750 550 
Q 2900 700 3075 850 
Q 3400 525 3600 250 
L 3250 -50 
z
" transform="scale(0.015625)"/>
      <path id="SimHei-54cd" d="M 4150 5125 
Q 4000 4975 3850 4325 
L 5875 4325 
Q 5850 3800 5850 3325 
L 5850 50 
Q 5825 -225 5625 -350 
Q 5425 -475 4850 -550 
Q 4850 -325 4600 25 
Q 5125 25 5237 62 
Q 5350 100 5350 225 
L 5350 3950 
L 2950 3950 
L 2950 -575 
L 2450 -575 
Q 2475 -75 2475 450 
L 2475 3125 
Q 2475 3750 2450 4325 
L 3350 4325 
Q 3475 4775 3525 5250 
Q 3950 5150 4150 5125 
z
M 4875 900 
L 3425 900 
L 3425 3100 
L 4875 3100 
L 4875 900 
z
M 4450 1275 
L 4450 2700 
L 3875 2700 
L 3875 1275 
L 4450 1275 
z
M 2075 4500 
Q 2050 3975 2050 3425 
L 2050 1750 
Q 2050 1250 2075 600 
L 1650 600 
L 1650 1050 
L 950 1050 
L 950 275 
L 500 275 
Q 525 750 525 1275 
L 525 3425 
Q 525 3975 500 4500 
L 2075 4500 
z
M 1650 1400 
L 1650 4125 
L 950 4125 
L 950 1400 
L 1650 1400 
z
" transform="scale(0.015625)"/>
     </defs>
     <use xlink:href="#SimHei-8ba8"/>
     <use xlink:href="#SimHei-8bba" x="100"/>
     <use xlink:href="#SimHei-4e0d" x="200"/>
     <use xlink:href="#SimHei-540c" x="300"/>
     <use xlink:href="#SimHei-5e72" x="400"/>
     <use xlink:href="#SimHei-6270" x="500"/>
     <use xlink:href="#SimHei-5f3a" x="600"/>
     <use xlink:href="#SimHei-5ea6" x="700"/>
     <use xlink:href="#SimHei-5bf9" x="800"/>
     <use xlink:href="#SimHei-4e0d" x="900"/>
     <use xlink:href="#SimHei-7a33" x="1000"/>
     <use xlink:href="#SimHei-5b9a" x="1100"/>
     <use xlink:href="#SimHei-6027" x="1200"/>
     <use xlink:href="#SimHei-7684" x="1300"/>
     <use xlink:href="#SimHei-5f71" x="1400"/>
     <use xlink:href="#SimHei-54cd" x="1500"/>
    </g>
   </g>
   <g id="legend_1">
    <g id="patch_7">
     <path d="M 61 95.56 
L 138 95.56 
Q 140 95.56 140 93.56 
L 140 41.56 
Q 140 39.56 138 39.56 
L 61 39.56 
Q 59 39.56 59 41.56 
L 59 93.56 
Q 59 95.56 61 95.56 
z
" style="fill: #ffffff; opacity: 0.8; stroke: #cccccc; stroke-linejoin: miter"/>
    </g>
    <g id="line2d_22">
     <path d="M 63 47.06 
L 73 47.06 
L 83 47.06 
" style="fill: none; stroke: #1f77b4; stroke-width: 2; stroke-linecap: square"/>
    </g>
    <g id="text_21">
     <!-- EU -->
     <g transform="translate(91 50.56)scale(0.1 -0.1)">
      <defs>
       <path id="SimHei-45" d="M 2900 125 
L 350 125 
L 350 4400 
L 2775 4400 
L 2775 3925 
L 925 3925 
L 925 2600 
L 2625 2600 
L 2625 2125 
L 925 2125 
L 925 600 
L 2900 600 
L 2900 125 
z
" transform="scale(0.015625)"/>
       <path id="SimHei-55" d="M 2875 1375 
Q 2875 775 2562 425 
Q 2250 75 1575 75 
Q 900 75 587 425 
Q 275 775 275 1375 
L 275 4400 
L 850 4400 
L 850 1375 
Q 850 950 1050 750 
Q 1250 550 1575 550 
Q 1900 550 2100 750 
Q 2300 950 2300 1375 
L 2300 4400 
L 2875 4400 
L 2875 1375 
z
" transform="scale(0.015625)"/>
      </defs>
      <use xlink:href="#SimHei-45"/>
      <use xlink:href="#SimHei-55" x="50"/>
     </g>
    </g>
    <g id="line2d_23">
     <path d="M 63 60.31 
L 73 60.31 
L 83 60.31 
" style="fill: none; stroke: #ff7f0e; stroke-width: 3; stroke-linecap: square"/>
    </g>
    <g id="text_22">
     <!-- VG -->
     <g transform="translate(91 63.81)scale(0.1 -0.1)">
      <defs>
       <path id="SimHei-56" d="M 3050 4400 
L 1800 75 
L 1300 75 
L 50 4400 
L 650 4400 
L 1525 1125 
L 1575 1125 
L 2450 4400 
L 3050 4400 
z
" transform="scale(0.015625)"/>
       <path id="SimHei-47" d="M 2850 75 
L 2425 75 
L 2350 425 
Q 2250 275 2037 175 
Q 1825 75 1575 75 
Q 1050 75 637 562 
Q 225 1050 225 2125 
Q 225 3300 600 3875 
Q 975 4450 1625 4450 
Q 2200 4450 2525 4025 
Q 2850 3600 2850 2925 
L 2300 2925 
Q 2300 3450 2125 3712 
Q 1950 3975 1625 3975 
Q 1225 3975 1025 3562 
Q 825 3150 825 2175 
Q 825 1250 1075 900 
Q 1325 550 1650 550 
Q 1975 550 2162 787 
Q 2350 1025 2350 1525 
L 2350 1800 
L 1575 1800 
L 1575 2275 
L 2850 2275 
L 2850 75 
z
" transform="scale(0.015625)"/>
      </defs>
      <use xlink:href="#SimHei-56"/>
      <use xlink:href="#SimHei-47" x="50"/>
     </g>
    </g>
    <g id="line2d_24">
     <path d="M 63 73.56 
L 73 73.56 
L 83 73.56 
" style="fill: none; stroke: #2ca02c; stroke-width: 2; stroke-linecap: square"/>
    </g>
    <g id="text_23">
     <!-- Manhattan -->
     <g transform="translate(91 77.06)scale(0.1 -0.1)">
      <defs>
       <path id="SimHei-4d" d="M 2925 125 
L 2425 125 
L 2425 3175 
L 2375 3175 
L 1775 125 
L 1375 125 
L 775 3175 
L 725 3175 
L 725 125 
L 225 125 
L 225 4400 
L 1000 4400 
L 1550 1575 
L 1600 1575 
L 2150 4400 
L 2925 4400 
L 2925 125 
z
" transform="scale(0.015625)"/>
       <path id="SimHei-6e" d="M 2800 125 
L 2300 125 
L 2300 1925 
Q 2300 2225 2150 2400 
Q 2000 2575 1750 2575 
Q 1425 2575 1137 2237 
Q 850 1900 850 1400 
L 850 125 
L 350 125 
L 350 2925 
L 850 2925 
L 850 2400 
Q 1050 2675 1287 2825 
Q 1525 2975 1900 2975 
Q 2350 2975 2575 2725 
Q 2800 2475 2800 2100 
L 2800 125 
z
" transform="scale(0.015625)"/>
       <path id="SimHei-68" d="M 2800 125 
L 2300 125 
L 2300 1925 
Q 2300 2225 2150 2400 
Q 2000 2575 1750 2575 
Q 1425 2575 1137 2237 
Q 850 1900 850 1400 
L 850 125 
L 350 125 
L 350 4400 
L 850 4400 
L 850 2400 
Q 1050 2675 1287 2825 
Q 1525 2975 1900 2975 
Q 2350 2975 2575 2725 
Q 2800 2475 2800 2100 
L 2800 125 
z
" transform="scale(0.015625)"/>
       <path id="SimHei-74" d="M 2750 200 
Q 2625 150 2462 112 
Q 2300 75 2025 75 
Q 1575 75 1300 325 
Q 1025 575 1025 1025 
L 1025 2525 
L 175 2525 
L 175 2925 
L 1025 2925 
L 1025 3900 
L 1525 3900 
L 1525 2925 
L 2550 2925 
L 2550 2525 
L 1525 2525 
L 1525 1000 
Q 1525 800 1625 662 
Q 1725 525 2000 525 
Q 2275 525 2450 575 
Q 2625 625 2750 700 
L 2750 200 
z
" transform="scale(0.015625)"/>
      </defs>
      <use xlink:href="#SimHei-4d"/>
      <use xlink:href="#SimHei-61" x="50"/>
      <use xlink:href="#SimHei-6e" x="100"/>
      <use xlink:href="#SimHei-68" x="150"/>
      <use xlink:href="#SimHei-61" x="200"/>
      <use xlink:href="#SimHei-74" x="250"/>
      <use xlink:href="#SimHei-74" x="300"/>
      <use xlink:href="#SimHei-61" x="350"/>
      <use xlink:href="#SimHei-6e" x="400"/>
     </g>
    </g>
    <g id="line2d_25">
     <path d="M 63 86.81 
L 73 86.81 
L 83 86.81 
" style="fill: none; stroke: #d62728; stroke-width: 2; stroke-linecap: square"/>
    </g>
    <g id="text_24">
     <!-- Degree -->
     <g transform="translate(91 90.31)scale(0.1 -0.1)">
      <defs>
       <path id="SimHei-44" d="M 2925 2250 
Q 2925 1100 2437 612 
Q 1950 125 1125 125 
L 275 125 
L 275 4400 
L 1125 4400 
Q 2050 4400 2487 3900 
Q 2925 3400 2925 2250 
z
M 2325 2250 
Q 2325 3175 2025 3550 
Q 1725 3925 1125 3925 
L 850 3925 
L 850 600 
L 1125 600 
Q 1725 600 2025 962 
Q 2325 1325 2325 2250 
z
" transform="scale(0.015625)"/>
       <path id="SimHei-65" d="M 2850 1075 
Q 2800 625 2450 350 
Q 2100 75 1625 75 
Q 1025 75 637 462 
Q 250 850 250 1525 
Q 250 2200 637 2587 
Q 1025 2975 1625 2975 
Q 2150 2975 2487 2637 
Q 2825 2300 2825 1525 
L 800 1525 
Q 800 975 1037 750 
Q 1275 525 1625 525 
Q 1900 525 2075 662 
Q 2250 800 2300 1075 
L 2850 1075 
z
M 2250 1925 
Q 2200 2275 2025 2412 
Q 1850 2550 1575 2550 
Q 1325 2550 1125 2412 
Q 925 2275 825 1925 
L 2250 1925 
z
" transform="scale(0.015625)"/>
       <path id="SimHei-72" d="M 2500 2425 
Q 2025 2500 1700 2287 
Q 1375 2075 1150 1550 
L 1150 125 
L 650 125 
L 650 2925 
L 1150 2925 
L 1150 2200 
Q 1375 2600 1712 2787 
Q 2050 2975 2500 2975 
L 2500 2425 
z
" transform="scale(0.015625)"/>
      </defs>
      <use xlink:href="#SimHei-44"/>
      <use xlink:href="#SimHei-65" x="50"/>
      <use xlink:href="#SimHei-67" x="100"/>
      <use xlink:href="#SimHei-72" x="150"/>
      <use xlink:href="#SimHei-65" x="200"/>
      <use xlink:href="#SimHei-65" x="250"/>
     </g>
    </g>
   </g>
  </g>
 </g>
 <defs>
  <clipPath id="pad696ede4c">
   <rect x="54" y="34.56" width="334.8" height="217.44"/>
  </clipPath>
 </defs>
</svg>
