<?xml version="1.0" encoding="utf-8" standalone="no"?>
<!DOCTYPE svg PUBLIC "-//W3C//DTD SVG 1.1//EN"
  "http://www.w3.org/Graphics/SVG/1.1/DTD/svg11.dtd">
<svg xmlns:xlink="http://www.w3.org/1999/xlink" width="432pt" height="288pt" viewBox="0 0 432 288" xmlns="http://www.w3.org/2000/svg" version="1.1">
 <metadata>
  <rdf:RDF xmlns:dc="http://purl.org/dc/elements/1.1/" xmlns:cc="http://creativecommons.org/ns#" xmlns:rdf="http://www.w3.org/1999/02/22-rdf-syntax-ns#">
   <cc:Work>
    <dc:type rdf:resource="http://purl.org/dc/dcmitype/StillImage"/>
    <dc:date>2023-05-30T17:17:32.087244</dc:date>
    <dc:format>image/svg+xml</dc:format>
    <dc:creator>
     <cc:Agent>
      <dc:title>Matplotlib v3.5.2, https://matplotlib.org/</dc:title>
     </cc:Agent>
    </dc:creator>
   </cc:Work>
  </rdf:RDF>
 </metadata>
 <defs>
  <style type="text/css">*{stroke-linejoin: round; stroke-linecap: butt}</style>
 </defs>
 <g id="figure_1">
  <g id="patch_1">
   <path d="M 0 288 
L 432 288 
L 432 0 
L 0 0 
L 0 288 
z
" style="fill: none"/>
  </g>
  <g id="axes_1">
   <g id="patch_2">
    <path d="M 41.8 248.73125 
L 421.2 248.73125 
L 421.2 26.440625 
L 41.8 26.440625 
z
" style="fill: #ffffff"/>
   </g>
   <g id="matplotlib.axis_1">
    <g id="xtick_1">
     <g id="line2d_1">
      <defs>
       <path id="m746046a8e0" d="M 0 0 
L 0 3.5 
" style="stroke: #000000; stroke-width: 0.8"/>
      </defs>
      <g>
       <use xlink:href="#m746046a8e0" x="59.045455" y="248.73125" style="stroke: #000000; stroke-width: 0.8"/>
      </g>
     </g>
     <g id="text_1">
      <!-- -200 -->
      <g transform="translate(49.045455 262.60625)scale(0.1 -0.1)">
       <defs>
        <path id="SimHei-2d" d="M 2975 2125 
L 125 2125 
L 125 2525 
L 2975 2525 
L 2975 2125 
z
" transform="scale(0.015625)"/>
        <path id="SimHei-32" d="M 300 250 
Q 325 625 650 925 
Q 975 1225 1475 1862 
Q 1975 2500 2125 2850 
Q 2275 3200 2237 3450 
Q 2200 3700 2000 3862 
Q 1800 4025 1537 4000 
Q 1275 3975 1037 3800 
Q 800 3625 675 3275 
L 200 3350 
Q 400 3925 712 4187 
Q 1025 4450 1450 4475 
Q 1700 4500 1900 4462 
Q 2100 4425 2312 4287 
Q 2525 4150 2662 3875 
Q 2800 3600 2762 3212 
Q 2725 2825 2375 2287 
Q 2025 1750 1025 600 
L 2825 600 
L 2825 150 
L 300 150 
L 300 250 
z
" transform="scale(0.015625)"/>
        <path id="SimHei-30" d="M 225 2537 
Q 250 3200 412 3587 
Q 575 3975 875 4225 
Q 1175 4475 1612 4475 
Q 2050 4475 2375 4112 
Q 2700 3750 2800 3200 
Q 2900 2650 2862 1937 
Q 2825 1225 2612 775 
Q 2400 325 1975 150 
Q 1550 -25 1125 187 
Q 700 400 525 750 
Q 350 1100 275 1487 
Q 200 1875 225 2537 
z
M 750 2687 
Q 675 2000 800 1462 
Q 925 925 1212 700 
Q 1500 475 1800 612 
Q 2100 750 2237 1162 
Q 2375 1575 2375 2062 
Q 2375 2550 2337 2950 
Q 2300 3350 2112 3675 
Q 1925 4000 1612 4012 
Q 1300 4025 1062 3700 
Q 825 3375 750 2687 
z
" transform="scale(0.015625)"/>
       </defs>
       <use xlink:href="#SimHei-2d"/>
       <use xlink:href="#SimHei-32" x="50"/>
       <use xlink:href="#SimHei-30" x="100"/>
       <use xlink:href="#SimHei-30" x="150"/>
      </g>
     </g>
    </g>
    <g id="xtick_2">
     <g id="line2d_2">
      <g>
       <use xlink:href="#m746046a8e0" x="102.159091" y="248.73125" style="stroke: #000000; stroke-width: 0.8"/>
      </g>
     </g>
     <g id="text_2">
      <!-- -150 -->
      <g transform="translate(92.159091 262.60625)scale(0.1 -0.1)">
       <defs>
        <path id="SimHei-31" d="M 1400 3600 
Q 1075 3275 575 2975 
L 575 3450 
Q 1200 3875 1600 4450 
L 1900 4450 
L 1900 150 
L 1400 150 
L 1400 3600 
z
" transform="scale(0.015625)"/>
        <path id="SimHei-35" d="M 550 1325 
Q 725 650 1150 575 
Q 1575 500 1837 662 
Q 2100 825 2212 1087 
Q 2325 1350 2312 1675 
Q 2300 2000 2137 2225 
Q 1975 2450 1725 2525 
Q 1475 2600 1162 2525 
Q 850 2450 650 2175 
L 225 2225 
Q 275 2375 700 4375 
L 2675 4375 
L 2675 3925 
L 1075 3925 
Q 950 3250 825 2850 
Q 1200 3025 1525 3012 
Q 1850 3000 2150 2862 
Q 2450 2725 2587 2487 
Q 2725 2250 2787 2012 
Q 2850 1775 2837 1500 
Q 2825 1225 2725 937 
Q 2625 650 2425 462 
Q 2225 275 1937 162 
Q 1650 50 1275 75 
Q 900 100 562 350 
Q 225 600 100 1200 
L 550 1325 
z
" transform="scale(0.015625)"/>
       </defs>
       <use xlink:href="#SimHei-2d"/>
       <use xlink:href="#SimHei-31" x="50"/>
       <use xlink:href="#SimHei-35" x="100"/>
       <use xlink:href="#SimHei-30" x="150"/>
      </g>
     </g>
    </g>
    <g id="xtick_3">
     <g id="line2d_3">
      <g>
       <use xlink:href="#m746046a8e0" x="145.272727" y="248.73125" style="stroke: #000000; stroke-width: 0.8"/>
      </g>
     </g>
     <g id="text_3">
      <!-- -100 -->
      <g transform="translate(135.272727 262.60625)scale(0.1 -0.1)">
       <use xlink:href="#SimHei-2d"/>
       <use xlink:href="#SimHei-31" x="50"/>
       <use xlink:href="#SimHei-30" x="100"/>
       <use xlink:href="#SimHei-30" x="150"/>
      </g>
     </g>
    </g>
    <g id="xtick_4">
     <g id="line2d_4">
      <g>
       <use xlink:href="#m746046a8e0" x="188.386364" y="248.73125" style="stroke: #000000; stroke-width: 0.8"/>
      </g>
     </g>
     <g id="text_4">
      <!-- -50 -->
      <g transform="translate(180.886364 262.60625)scale(0.1 -0.1)">
       <use xlink:href="#SimHei-2d"/>
       <use xlink:href="#SimHei-35" x="50"/>
       <use xlink:href="#SimHei-30" x="100"/>
      </g>
     </g>
    </g>
    <g id="xtick_5">
     <g id="line2d_5">
      <g>
       <use xlink:href="#m746046a8e0" x="231.5" y="248.73125" style="stroke: #000000; stroke-width: 0.8"/>
      </g>
     </g>
     <g id="text_5">
      <!-- 0 -->
      <g transform="translate(229 262.60625)scale(0.1 -0.1)">
       <use xlink:href="#SimHei-30"/>
      </g>
     </g>
    </g>
    <g id="xtick_6">
     <g id="line2d_6">
      <g>
       <use xlink:href="#m746046a8e0" x="274.613636" y="248.73125" style="stroke: #000000; stroke-width: 0.8"/>
      </g>
     </g>
     <g id="text_6">
      <!-- 50 -->
      <g transform="translate(269.613636 262.60625)scale(0.1 -0.1)">
       <use xlink:href="#SimHei-35"/>
       <use xlink:href="#SimHei-30" x="50"/>
      </g>
     </g>
    </g>
    <g id="xtick_7">
     <g id="line2d_7">
      <g>
       <use xlink:href="#m746046a8e0" x="317.727273" y="248.73125" style="stroke: #000000; stroke-width: 0.8"/>
      </g>
     </g>
     <g id="text_7">
      <!-- 100 -->
      <g transform="translate(310.227273 262.60625)scale(0.1 -0.1)">
       <use xlink:href="#SimHei-31"/>
       <use xlink:href="#SimHei-30" x="50"/>
       <use xlink:href="#SimHei-30" x="100"/>
      </g>
     </g>
    </g>
    <g id="xtick_8">
     <g id="line2d_8">
      <g>
       <use xlink:href="#m746046a8e0" x="360.840909" y="248.73125" style="stroke: #000000; stroke-width: 0.8"/>
      </g>
     </g>
     <g id="text_8">
      <!-- 150 -->
      <g transform="translate(353.340909 262.60625)scale(0.1 -0.1)">
       <use xlink:href="#SimHei-31"/>
       <use xlink:href="#SimHei-35" x="50"/>
       <use xlink:href="#SimHei-30" x="100"/>
      </g>
     </g>
    </g>
    <g id="xtick_9">
     <g id="line2d_9">
      <g>
       <use xlink:href="#m746046a8e0" x="403.954545" y="248.73125" style="stroke: #000000; stroke-width: 0.8"/>
      </g>
     </g>
     <g id="text_9">
      <!-- 200 -->
      <g transform="translate(396.454545 262.60625)scale(0.1 -0.1)">
       <use xlink:href="#SimHei-32"/>
       <use xlink:href="#SimHei-30" x="50"/>
       <use xlink:href="#SimHei-30" x="100"/>
      </g>
     </g>
    </g>
    <g id="text_10">
     <!-- 干扰强度 -->
     <g transform="translate(211.5 275.864062)scale(0.1 -0.1)">
      <defs>
       <path id="SimHei-5e72" d="M 4625 4775 
Q 5050 4775 5500 4800 
L 5500 4300 
Q 5050 4325 4625 4325 
L 3475 4325 
L 3475 2525 
L 5225 2525 
Q 5700 2525 6000 2550 
L 6000 2050 
Q 5700 2075 5225 2075 
L 3475 2075 
L 3475 325 
Q 3475 -75 3500 -625 
L 2925 -625 
Q 2950 -100 2950 325 
L 2950 2075 
L 1225 2075 
Q 775 2075 400 2050 
L 400 2550 
Q 775 2525 1225 2525 
L 2950 2525 
L 2950 4325 
L 1925 4325 
Q 1450 4325 925 4300 
L 925 4800 
Q 1450 4775 1800 4775 
L 4625 4775 
z
" transform="scale(0.015625)"/>
       <path id="SimHei-6270" d="M 4575 425 
Q 4575 0 4950 0 
L 5250 0 
Q 5400 0 5450 150 
Q 5500 300 5500 575 
Q 5750 425 6025 375 
Q 5950 50 5862 -175 
Q 5775 -400 5500 -425 
L 4825 -425 
Q 4125 -425 4125 300 
L 4125 3075 
L 3875 3075 
Q 3800 1550 3375 725 
Q 2950 -100 2425 -575 
Q 2275 -375 1950 -275 
Q 2375 25 2687 487 
Q 3000 950 3187 1537 
Q 3375 2125 3400 3075 
Q 3000 3075 2650 3050 
L 2650 3500 
Q 2975 3475 3400 3475 
Q 3425 4225 3375 5125 
Q 3700 5100 3950 5075 
Q 3900 4925 3887 4550 
Q 3875 4175 3875 3475 
L 5050 3475 
Q 5575 3475 5850 3500 
L 5850 3050 
Q 5550 3075 5100 3075 
L 4575 3075 
L 4575 425 
z
M 1775 5150 
Q 1750 4750 1750 3675 
Q 2000 3675 2425 3700 
L 2425 3250 
Q 2000 3275 1750 3275 
L 1750 2275 
Q 2025 2400 2350 2575 
Q 2325 2400 2375 2125 
Q 2175 2050 1750 1825 
L 1750 0 
Q 1750 -325 1512 -450 
Q 1275 -575 825 -650 
Q 800 -350 600 -125 
Q 1275 -125 1275 100 
L 1275 1650 
Q 850 1425 575 1275 
Q 475 1525 325 1750 
Q 675 1850 1275 2100 
L 1275 3275 
Q 725 3275 450 3250 
L 450 3700 
Q 800 3675 1275 3675 
Q 1275 4675 1250 5150 
L 1775 5150 
z
M 5200 3750 
Q 4825 4300 4450 4675 
Q 4650 4800 4800 4975 
Q 5175 4550 5600 4025 
Q 5450 3950 5200 3750 
z
" transform="scale(0.015625)"/>
       <path id="SimHei-5f3a" d="M 2350 25 
Q 3100 75 3950 225 
L 3950 1200 
L 3100 1200 
L 3100 975 
L 2625 975 
Q 2650 1725 2650 2050 
L 2650 2875 
L 3950 2875 
L 3950 3500 
L 2850 3500 
Q 2875 3900 2875 4275 
Q 2875 4675 2850 5025 
L 5525 5025 
Q 5500 4675 5500 4275 
Q 5500 3900 5525 3500 
L 4400 3500 
L 4400 2875 
L 5750 2875 
Q 5725 2575 5725 2075 
Q 5725 1575 5750 1200 
L 4400 1200 
L 4400 275 
L 5250 425 
Q 5150 575 5050 750 
Q 5300 825 5475 925 
Q 5925 200 6175 -250 
Q 5925 -350 5725 -500 
Q 5625 -250 5425 100 
Q 5125 50 4225 -137 
Q 3325 -325 2600 -525 
Q 2525 -200 2350 25 
z
M 600 -25 
Q 1250 -25 1400 50 
Q 1550 125 1575 325 
L 1675 1850 
L 500 1850 
Q 550 2350 562 2762 
Q 575 3175 575 3575 
L 1800 3575 
L 1800 4550 
L 1275 4550 
Q 825 4550 425 4525 
L 425 4950 
Q 850 4925 1275 4925 
L 2275 4925 
Q 2250 4525 2250 4075 
Q 2250 3650 2275 3200 
L 1075 3200 
L 1025 2225 
L 2175 2225 
Q 2125 1775 2100 1425 
L 2025 150 
Q 1975 -250 1637 -387 
Q 1300 -525 850 -600 
Q 775 -275 600 -25 
z
M 5050 3875 
L 5050 4650 
L 3325 4650 
L 3325 3875 
L 5050 3875 
z
M 3950 1575 
L 3950 2500 
L 3100 2500 
L 3100 1575 
L 3950 1575 
z
M 5250 1575 
L 5250 2500 
L 4400 2500 
L 4400 1575 
L 5250 1575 
z
" transform="scale(0.015625)"/>
       <path id="SimHei-5ea6" d="M 1750 1675 
Q 2450 1650 2875 1650 
L 5200 1650 
Q 4975 1250 4650 850 
Q 4325 450 4025 200 
Q 4350 50 4950 -50 
Q 5550 -150 6100 -150 
Q 5950 -300 5825 -650 
Q 5100 -550 4550 -412 
Q 4000 -275 3625 -100 
Q 3100 -325 2587 -462 
Q 2075 -600 1525 -675 
Q 1450 -475 1225 -250 
Q 1675 -250 2250 -125 
Q 2825 0 3250 200 
Q 2825 550 2400 1275 
L 1750 1250 
L 1750 1675 
z
M 2975 5075 
Q 3250 5150 3475 5250 
Q 3625 4975 3775 4525 
L 4700 4525 
Q 4975 4525 5700 4550 
L 5700 4100 
Q 5000 4125 4650 4125 
L 1375 4125 
Q 1375 3000 1350 2312 
Q 1325 1625 1212 950 
Q 1100 275 725 -525 
Q 500 -375 250 -300 
Q 650 400 762 1075 
Q 875 1750 887 2800 
Q 900 3850 875 4525 
L 3200 4525 
Q 3100 4850 2975 5075 
z
M 2475 3300 
Q 2475 3700 2450 3925 
L 2975 3925 
Q 2950 3725 2950 3300 
L 4300 3300 
Q 4300 3700 4275 3950 
L 4800 3950 
Q 4775 3650 4775 3300 
Q 5325 3300 5725 3325 
L 5725 2900 
Q 5350 2925 4775 2925 
Q 4775 2250 4800 1950 
L 2450 1950 
Q 2475 2350 2475 2925 
Q 2175 2925 1600 2900 
L 1600 3325 
Q 2175 3300 2475 3300 
z
M 4300 2350 
L 4300 2925 
L 2950 2925 
L 2950 2350 
L 4300 2350 
z
M 2875 1275 
Q 3200 775 3650 425 
Q 4025 700 4425 1275 
L 2900 1275 
L 2875 1275 
z
" transform="scale(0.015625)"/>
      </defs>
      <use xlink:href="#SimHei-5e72"/>
      <use xlink:href="#SimHei-6270" x="100"/>
      <use xlink:href="#SimHei-5f3a" x="200"/>
      <use xlink:href="#SimHei-5ea6" x="300"/>
     </g>
    </g>
   </g>
   <g id="matplotlib.axis_2">
    <g id="ytick_1">
     <g id="line2d_10">
      <defs>
       <path id="mc59e732972" d="M 0 0 
L -3.5 0 
" style="stroke: #000000; stroke-width: 0.8"/>
      </defs>
      <g>
       <use xlink:href="#mc59e732972" x="41.8" y="238.627131" style="stroke: #000000; stroke-width: 0.8"/>
      </g>
     </g>
     <g id="text_11">
      <!-- 0.00 -->
      <g transform="translate(14.8 242.064631)scale(0.1 -0.1)">
       <defs>
        <path id="SimHei-2e" d="M 1075 125 
L 500 125 
L 500 675 
L 1075 675 
L 1075 125 
z
" transform="scale(0.015625)"/>
       </defs>
       <use xlink:href="#SimHei-30"/>
       <use xlink:href="#SimHei-2e" x="50"/>
       <use xlink:href="#SimHei-30" x="100"/>
       <use xlink:href="#SimHei-30" x="150"/>
      </g>
     </g>
    </g>
    <g id="ytick_2">
     <g id="line2d_11">
      <g>
       <use xlink:href="#mc59e732972" x="41.8" y="203.111502" style="stroke: #000000; stroke-width: 0.8"/>
      </g>
     </g>
     <g id="text_12">
      <!-- 0.02 -->
      <g transform="translate(14.8 206.549002)scale(0.1 -0.1)">
       <use xlink:href="#SimHei-30"/>
       <use xlink:href="#SimHei-2e" x="50"/>
       <use xlink:href="#SimHei-30" x="100"/>
       <use xlink:href="#SimHei-32" x="150"/>
      </g>
     </g>
    </g>
    <g id="ytick_3">
     <g id="line2d_12">
      <g>
       <use xlink:href="#mc59e732972" x="41.8" y="167.595874" style="stroke: #000000; stroke-width: 0.8"/>
      </g>
     </g>
     <g id="text_13">
      <!-- 0.04 -->
      <g transform="translate(14.8 171.033374)scale(0.1 -0.1)">
       <defs>
        <path id="SimHei-34" d="M 2000 1100 
L 75 1100 
L 75 1525 
L 2100 4450 
L 2475 4450 
L 2475 1525 
L 3075 1525 
L 3075 1100 
L 2475 1100 
L 2475 150 
L 2000 150 
L 2000 1100 
z
M 2000 1525 
L 2000 3500 
L 600 1525 
L 2000 1525 
z
" transform="scale(0.015625)"/>
       </defs>
       <use xlink:href="#SimHei-30"/>
       <use xlink:href="#SimHei-2e" x="50"/>
       <use xlink:href="#SimHei-30" x="100"/>
       <use xlink:href="#SimHei-34" x="150"/>
      </g>
     </g>
    </g>
    <g id="ytick_4">
     <g id="line2d_13">
      <g>
       <use xlink:href="#mc59e732972" x="41.8" y="132.080245" style="stroke: #000000; stroke-width: 0.8"/>
      </g>
     </g>
     <g id="text_14">
      <!-- 0.06 -->
      <g transform="translate(14.8 135.517745)scale(0.1 -0.1)">
       <defs>
        <path id="SimHei-36" d="M 250 1612 
Q 275 1975 387 2225 
Q 500 2475 725 2850 
L 1750 4450 
L 2325 4450 
L 1275 2800 
Q 1950 2975 2350 2750 
Q 2750 2525 2887 2237 
Q 3025 1950 3037 1612 
Q 3050 1275 2937 950 
Q 2825 625 2537 362 
Q 2250 100 1737 75 
Q 1225 50 862 262 
Q 500 475 362 862 
Q 225 1250 250 1612 
z
M 1025 787 
Q 1250 550 1625 525 
Q 2000 500 2250 775 
Q 2500 1050 2500 1575 
Q 2500 2100 2187 2300 
Q 1875 2500 1487 2450 
Q 1100 2400 925 2075 
Q 750 1750 775 1387 
Q 800 1025 1025 787 
z
" transform="scale(0.015625)"/>
       </defs>
       <use xlink:href="#SimHei-30"/>
       <use xlink:href="#SimHei-2e" x="50"/>
       <use xlink:href="#SimHei-30" x="100"/>
       <use xlink:href="#SimHei-36" x="150"/>
      </g>
     </g>
    </g>
    <g id="ytick_5">
     <g id="line2d_14">
      <g>
       <use xlink:href="#mc59e732972" x="41.8" y="96.564617" style="stroke: #000000; stroke-width: 0.8"/>
      </g>
     </g>
     <g id="text_15">
      <!-- 0.08 -->
      <g transform="translate(14.8 100.002117)scale(0.1 -0.1)">
       <defs>
        <path id="SimHei-38" d="M 175 1375 
Q 175 1675 325 1962 
Q 475 2250 825 2425 
Q 525 2600 425 2812 
Q 325 3025 312 3300 
Q 300 3575 387 3775 
Q 475 3975 650 4150 
Q 825 4325 1037 4387 
Q 1250 4450 1500 4450 
Q 1750 4450 1950 4400 
Q 2150 4350 2375 4187 
Q 2600 4025 2700 3725 
Q 2800 3425 2687 3025 
Q 2575 2625 2100 2400 
Q 2525 2275 2700 2012 
Q 2875 1750 2875 1375 
Q 2875 1000 2762 775 
Q 2650 550 2512 400 
Q 2375 250 2137 162 
Q 1900 75 1537 75 
Q 1175 75 912 162 
Q 650 250 475 425 
Q 300 600 237 837 
Q 175 1075 175 1375 
z
M 687 1400 
Q 675 1100 787 875 
Q 900 650 1200 587 
Q 1500 525 1825 600 
Q 2150 675 2275 950 
Q 2400 1225 2362 1500 
Q 2325 1775 2050 1962 
Q 1775 2150 1450 2125 
Q 1125 2100 912 1900 
Q 700 1700 687 1400 
z
M 775 3350 
Q 775 3100 950 2875 
Q 1125 2650 1500 2650 
Q 1875 2650 2062 2875 
Q 2250 3100 2237 3412 
Q 2225 3725 2012 3875 
Q 1800 4025 1437 4000 
Q 1075 3975 925 3787 
Q 775 3600 775 3350 
z
" transform="scale(0.015625)"/>
       </defs>
       <use xlink:href="#SimHei-30"/>
       <use xlink:href="#SimHei-2e" x="50"/>
       <use xlink:href="#SimHei-30" x="100"/>
       <use xlink:href="#SimHei-38" x="150"/>
      </g>
     </g>
    </g>
    <g id="ytick_6">
     <g id="line2d_15">
      <g>
       <use xlink:href="#mc59e732972" x="41.8" y="61.048988" style="stroke: #000000; stroke-width: 0.8"/>
      </g>
     </g>
     <g id="text_16">
      <!-- 0.10 -->
      <g transform="translate(14.8 64.486488)scale(0.1 -0.1)">
       <use xlink:href="#SimHei-30"/>
       <use xlink:href="#SimHei-2e" x="50"/>
       <use xlink:href="#SimHei-31" x="100"/>
       <use xlink:href="#SimHei-30" x="150"/>
      </g>
     </g>
    </g>
    <g id="text_17">
     <!-- avg of abs(dis2-dis1)/(dis1+1) -->
     <g transform="translate(12.05 62.585938)rotate(-270)scale(0.1 -0.1)">
      <defs>
       <path id="SimHei-61" d="M 2875 125 
L 2275 125 
Q 2225 175 2200 262 
Q 2175 350 2175 475 
Q 2000 275 1750 175 
Q 1500 75 1225 75 
Q 825 75 550 275 
Q 275 475 275 850 
Q 275 1225 525 1450 
Q 775 1675 1300 1750 
Q 1650 1800 1912 1875 
Q 2175 1950 2175 2075 
Q 2175 2225 2062 2375 
Q 1950 2525 1575 2525 
Q 1275 2525 1137 2412 
Q 1000 2300 950 2100 
L 400 2100 
Q 450 2500 762 2737 
Q 1075 2975 1575 2975 
Q 2125 2975 2400 2725 
Q 2675 2475 2675 2025 
L 2675 650 
Q 2675 500 2725 375 
Q 2775 250 2875 125 
z
M 2175 1050 
L 2175 1550 
Q 2025 1500 1887 1462 
Q 1750 1425 1425 1375 
Q 1050 1325 937 1200 
Q 825 1075 825 900 
Q 825 750 937 637 
Q 1050 525 1275 525 
Q 1500 525 1762 650 
Q 2025 775 2175 1050 
z
" transform="scale(0.015625)"/>
       <path id="SimHei-76" d="M 2875 2925 
L 1825 75 
L 1275 75 
L 225 2925 
L 750 2925 
L 1525 750 
L 1575 750 
L 2350 2925 
L 2875 2925 
z
" transform="scale(0.015625)"/>
       <path id="SimHei-67" d="M 2975 2500 
Q 2800 2550 2637 2562 
Q 2475 2575 2300 2525 
Q 2375 2450 2425 2337 
Q 2475 2225 2475 2000 
Q 2475 1575 2187 1300 
Q 1900 1025 1475 1025 
Q 1375 1025 1212 1062 
Q 1050 1100 950 1150 
Q 875 1100 850 1050 
Q 825 1000 825 925 
Q 825 800 1000 737 
Q 1175 675 1625 675 
Q 2350 675 2612 475 
Q 2875 275 2875 -25 
Q 2875 -425 2487 -612 
Q 2100 -800 1575 -800 
Q 900 -800 575 -625 
Q 250 -450 250 -150 
Q 250 0 375 150 
Q 500 300 700 400 
Q 550 475 462 587 
Q 375 700 375 875 
Q 375 1025 487 1137 
Q 600 1250 750 1325 
Q 625 1450 550 1625 
Q 475 1800 475 2000 
Q 475 2425 762 2700 
Q 1050 2975 1475 2975 
Q 1700 2975 1862 2912 
Q 2025 2850 2150 2725 
Q 2350 2875 2550 2937 
Q 2750 3000 2975 2975 
L 2975 2500 
z
M 1975 2000 
Q 1975 2250 1850 2400 
Q 1725 2550 1475 2550 
Q 1225 2550 1100 2400 
Q 975 2250 975 2000 
Q 975 1750 1100 1600 
Q 1225 1450 1475 1450 
Q 1725 1450 1850 1600 
Q 1975 1750 1975 2000 
z
M 2400 -75 
Q 2400 25 2287 125 
Q 2175 225 1725 225 
Q 1625 225 1450 237 
Q 1275 250 1050 275 
Q 850 200 775 100 
Q 700 0 700 -100 
Q 700 -250 900 -350 
Q 1100 -450 1600 -450 
Q 2025 -450 2212 -337 
Q 2400 -225 2400 -75 
z
" transform="scale(0.015625)"/>
       <path id="SimHei-20" transform="scale(0.015625)"/>
       <path id="SimHei-6f" d="M 2925 1525 
Q 2925 875 2525 475 
Q 2125 75 1575 75 
Q 1025 75 625 475 
Q 225 875 225 1525 
Q 225 2175 625 2575 
Q 1025 2975 1575 2975 
Q 2125 2975 2525 2575 
Q 2925 2175 2925 1525 
z
M 2375 1525 
Q 2375 2025 2125 2275 
Q 1875 2525 1575 2525 
Q 1275 2525 1025 2275 
Q 775 2025 775 1525 
Q 775 1025 1025 775 
Q 1275 525 1575 525 
Q 1875 525 2125 775 
Q 2375 1025 2375 1525 
z
" transform="scale(0.015625)"/>
       <path id="SimHei-66" d="M 2850 3825 
Q 2725 3900 2550 3950 
Q 2375 4000 2100 4000 
Q 1825 4000 1725 3862 
Q 1625 3725 1625 3525 
L 1625 2925 
L 2650 2925 
L 2650 2525 
L 1625 2525 
L 1625 125 
L 1125 125 
L 1125 2525 
L 275 2525 
L 275 2925 
L 1125 2925 
L 1125 3500 
Q 1125 3950 1400 4200 
Q 1675 4450 2125 4450 
Q 2400 4450 2562 4412 
Q 2725 4375 2850 4325 
L 2850 3825 
z
" transform="scale(0.015625)"/>
       <path id="SimHei-62" d="M 2825 1525 
Q 2825 800 2475 437 
Q 2125 75 1625 75 
Q 1350 75 1150 175 
Q 950 275 800 500 
L 800 125 
L 300 125 
L 300 4400 
L 800 4400 
L 800 2550 
Q 950 2775 1150 2887 
Q 1350 3000 1625 3000 
Q 2125 3000 2475 2625 
Q 2825 2250 2825 1525 
z
M 2275 1525 
Q 2275 2000 2087 2275 
Q 1900 2550 1525 2550 
Q 1225 2550 1012 2275 
Q 800 2000 800 1525 
Q 800 1050 1012 787 
Q 1225 525 1525 525 
Q 1900 525 2087 787 
Q 2275 1050 2275 1525 
z
" transform="scale(0.015625)"/>
       <path id="SimHei-73" d="M 2750 900 
Q 2750 500 2437 287 
Q 2125 75 1650 75 
Q 1050 75 725 312 
Q 400 550 400 1000 
L 900 1000 
Q 900 700 1112 600 
Q 1325 500 1625 500 
Q 1925 500 2075 612 
Q 2225 725 2225 900 
Q 2225 1025 2100 1150 
Q 1975 1275 1475 1350 
Q 900 1425 687 1637 
Q 475 1850 475 2200 
Q 475 2500 762 2737 
Q 1050 2975 1600 2975 
Q 2100 2975 2387 2750 
Q 2675 2525 2675 2150 
L 2175 2150 
Q 2175 2375 2012 2462 
Q 1850 2550 1600 2550 
Q 1275 2550 1137 2437 
Q 1000 2325 1000 2175 
Q 1000 2000 1125 1900 
Q 1250 1800 1650 1750 
Q 2300 1650 2525 1437 
Q 2750 1225 2750 900 
z
" transform="scale(0.015625)"/>
       <path id="SimHei-28" d="M 2975 -200 
L 2700 -475 
Q 2075 125 1762 775 
Q 1450 1425 1450 2250 
Q 1450 3075 1762 3725 
Q 2075 4375 2700 5000 
L 2975 4725 
Q 2400 4175 2112 3587 
Q 1825 3000 1825 2250 
Q 1825 1500 2112 912 
Q 2400 325 2975 -200 
z
" transform="scale(0.015625)"/>
       <path id="SimHei-64" d="M 2750 125 
L 2250 125 
L 2250 500 
Q 2100 275 1900 175 
Q 1700 75 1425 75 
Q 925 75 575 437 
Q 225 800 225 1525 
Q 225 2250 575 2625 
Q 925 3000 1425 3000 
Q 1700 3000 1900 2887 
Q 2100 2775 2250 2550 
L 2250 4400 
L 2750 4400 
L 2750 125 
z
M 2250 1525 
Q 2250 2000 2037 2275 
Q 1825 2550 1525 2550 
Q 1150 2550 962 2275 
Q 775 2000 775 1525 
Q 775 1050 962 787 
Q 1150 525 1525 525 
Q 1825 525 2037 787 
Q 2250 1050 2250 1525 
z
" transform="scale(0.015625)"/>
       <path id="SimHei-69" d="M 1800 3725 
L 1300 3725 
L 1300 4375 
L 1800 4375 
L 1800 3725 
z
M 1800 125 
L 1300 125 
L 1300 2925 
L 1800 2925 
L 1800 125 
z
" transform="scale(0.015625)"/>
       <path id="SimHei-29" d="M 1675 2250 
Q 1675 1425 1362 775 
Q 1050 125 425 -475 
L 150 -200 
Q 725 325 1012 912 
Q 1300 1500 1300 2250 
Q 1300 3000 1012 3587 
Q 725 4175 150 4725 
L 425 5000 
Q 1050 4375 1362 3725 
Q 1675 3075 1675 2250 
z
" transform="scale(0.015625)"/>
       <path id="SimHei-2f" d="M 3000 4550 
L 350 -175 
L 100 -25 
L 2750 4700 
L 3000 4550 
z
" transform="scale(0.015625)"/>
       <path id="SimHei-2b" d="M 3000 2125 
L 1775 2125 
L 1775 900 
L 1350 900 
L 1350 2125 
L 125 2125 
L 125 2525 
L 1350 2525 
L 1350 3750 
L 1775 3750 
L 1775 2525 
L 3000 2525 
L 3000 2125 
z
" transform="scale(0.015625)"/>
      </defs>
      <use xlink:href="#SimHei-61"/>
      <use xlink:href="#SimHei-76" x="50"/>
      <use xlink:href="#SimHei-67" x="100"/>
      <use xlink:href="#SimHei-20" x="150"/>
      <use xlink:href="#SimHei-6f" x="200"/>
      <use xlink:href="#SimHei-66" x="250"/>
      <use xlink:href="#SimHei-20" x="300"/>
      <use xlink:href="#SimHei-61" x="350"/>
      <use xlink:href="#SimHei-62" x="400"/>
      <use xlink:href="#SimHei-73" x="450"/>
      <use xlink:href="#SimHei-28" x="500"/>
      <use xlink:href="#SimHei-64" x="550"/>
      <use xlink:href="#SimHei-69" x="600"/>
      <use xlink:href="#SimHei-73" x="650"/>
      <use xlink:href="#SimHei-32" x="700"/>
      <use xlink:href="#SimHei-2d" x="750"/>
      <use xlink:href="#SimHei-64" x="800"/>
      <use xlink:href="#SimHei-69" x="850"/>
      <use xlink:href="#SimHei-73" x="900"/>
      <use xlink:href="#SimHei-31" x="950"/>
      <use xlink:href="#SimHei-29" x="1000"/>
      <use xlink:href="#SimHei-2f" x="1050"/>
      <use xlink:href="#SimHei-28" x="1100"/>
      <use xlink:href="#SimHei-64" x="1150"/>
      <use xlink:href="#SimHei-69" x="1200"/>
      <use xlink:href="#SimHei-73" x="1250"/>
      <use xlink:href="#SimHei-31" x="1300"/>
      <use xlink:href="#SimHei-2b" x="1350"/>
      <use xlink:href="#SimHei-31" x="1400"/>
      <use xlink:href="#SimHei-29" x="1450"/>
     </g>
    </g>
   </g>
   <g id="line2d_16">
    <path d="M 59.045455 84.17611 
L 59.907727 84.709332 
L 60.77 85.856744 
L 61.632273 85.943386 
L 62.494545 86.461249 
L 63.356818 88.929883 
L 64.219091 89.138895 
L 65.081364 90.515301 
L 65.943636 90.009492 
L 66.805909 90.167357 
L 68.530455 91.686285 
L 69.392727 93.377515 
L 70.255 94.800935 
L 71.117273 95.153291 
L 72.841818 96.254421 
L 73.704091 96.354821 
L 74.566364 97.21602 
L 75.428636 98.854222 
L 76.290909 99.528074 
L 77.153182 99.591733 
L 78.015455 101.182654 
L 78.877727 101.692947 
L 79.74 101.001279 
L 80.602273 102.136862 
L 82.326818 105.12738 
L 83.189091 105.454707 
L 84.051364 105.200025 
L 84.913636 106.911244 
L 85.775909 107.290693 
L 86.638182 108.776264 
L 87.500455 107.779867 
L 88.362727 109.817203 
L 89.225 110.539342 
L 90.087273 111.466779 
L 90.949545 111.365777 
L 91.811818 111.914112 
L 92.674091 113.267471 
L 94.398636 113.879214 
L 95.260909 114.960231 
L 96.123182 115.390204 
L 96.985455 116.923844 
L 97.847727 117.459867 
L 98.71 118.141577 
L 99.572273 119.462571 
L 100.434545 120.322786 
L 101.296818 120.337624 
L 102.159091 121.027489 
L 103.021364 121.992321 
L 103.883636 121.514367 
L 104.745909 123.836638 
L 105.608182 124.732 
L 106.470455 125.033261 
L 107.332727 125.625764 
L 108.195 126.645756 
L 109.057273 127.28098 
L 109.919545 127.63213 
L 110.781818 127.853593 
L 111.644091 130.417055 
L 112.506364 130.540986 
L 113.368636 131.287635 
L 114.230909 130.994563 
L 115.955455 133.126123 
L 116.817727 133.457494 
L 118.542273 136.23002 
L 119.404545 135.006014 
L 120.266818 137.026758 
L 121.991364 138.892524 
L 122.853636 139.333484 
L 123.715909 141.094668 
L 124.578182 140.179368 
L 125.440455 142.106627 
L 126.302727 143.241569 
L 127.165 142.982968 
L 128.027273 144.188487 
L 128.889545 144.291367 
L 129.751818 145.287375 
L 130.614091 145.871009 
L 131.476364 147.29469 
L 132.338636 147.91204 
L 134.063182 148.420023 
L 134.925455 149.880145 
L 135.787727 150.443235 
L 136.65 151.175033 
L 138.374545 152.950727 
L 139.236818 153.292407 
L 140.099091 155.062527 
L 140.961364 155.500887 
L 141.823636 155.814009 
L 142.685909 157.325697 
L 144.410455 158.127431 
L 146.135 160.063739 
L 146.997273 160.417414 
L 147.859545 161.136982 
L 148.721818 162.922265 
L 149.584091 162.552918 
L 150.446364 163.601002 
L 151.308636 164.267994 
L 152.170909 165.232713 
L 153.033182 165.955969 
L 155.62 168.859313 
L 156.482273 168.837758 
L 157.344545 169.891984 
L 158.206818 170.535939 
L 159.069091 171.507862 
L 160.793636 173.030367 
L 161.655909 173.974759 
L 163.380455 175.394518 
L 164.242727 176.483671 
L 165.105 176.997228 
L 165.967273 177.963043 
L 166.829545 179.187589 
L 167.691818 179.559287 
L 169.416364 181.092942 
L 170.278636 181.463521 
L 171.140909 182.178603 
L 172.003182 183.35318 
L 172.865455 183.903892 
L 173.727727 185.300824 
L 175.452273 186.611821 
L 176.314545 187.33436 
L 177.176818 187.840811 
L 178.901364 189.683809 
L 180.625909 190.881836 
L 181.488182 191.94226 
L 184.075 194.156082 
L 184.937273 195.591098 
L 185.799545 196.078613 
L 186.661818 197.012337 
L 187.524091 197.687691 
L 188.386364 198.598451 
L 189.248636 198.864459 
L 190.110909 199.983241 
L 191.835455 201.60067 
L 196.146818 205.543582 
L 197.871364 207.322631 
L 198.733636 207.964032 
L 199.595909 208.801754 
L 200.458182 209.3435 
L 202.182727 211.117246 
L 203.907273 212.760098 
L 204.769545 213.22915 
L 205.631818 214.427446 
L 208.218636 216.655308 
L 209.080909 217.726224 
L 211.667727 219.776776 
L 219.428182 227.286836 
L 223.739545 231.32478 
L 231.5 238.627131 
L 248.745455 222.242593 
L 249.607727 221.294111 
L 250.47 220.649775 
L 251.332273 219.623768 
L 252.194545 218.969952 
L 254.781364 216.408161 
L 255.643636 215.442668 
L 256.505909 214.931004 
L 258.230455 213.221843 
L 259.092727 212.492895 
L 264.266364 207.196741 
L 265.990909 205.568463 
L 266.853182 204.600424 
L 267.715455 203.832736 
L 268.577727 203.262983 
L 269.44 202.117224 
L 271.164545 200.837954 
L 272.026818 199.513084 
L 273.751364 198.360897 
L 274.613636 197.016261 
L 275.475909 196.495343 
L 279.787273 192.260055 
L 280.649545 191.498261 
L 281.511818 190.53941 
L 282.374091 190.083353 
L 283.236364 189.30644 
L 284.098636 188.021921 
L 284.960909 187.273068 
L 285.823182 186.03519 
L 287.547727 184.972624 
L 288.41 183.697066 
L 289.272273 183.323722 
L 290.134545 181.70505 
L 290.996818 181.000381 
L 291.859091 180.521919 
L 292.721364 179.651343 
L 293.583636 179.30062 
L 294.445909 177.76802 
L 295.308182 176.809323 
L 296.170455 176.034166 
L 297.032727 174.989624 
L 297.895 174.640319 
L 298.757273 173.698755 
L 299.619545 173.085071 
L 300.481818 171.70459 
L 301.344091 171.394903 
L 302.206364 170.875524 
L 303.068636 169.308461 
L 303.930909 168.716511 
L 304.793182 167.426748 
L 305.655455 167.71165 
L 306.517727 165.854762 
L 307.38 164.999958 
L 308.242273 164.589236 
L 309.104545 163.938825 
L 309.966818 162.787833 
L 310.829091 161.204141 
L 311.691364 160.292337 
L 312.553636 160.487771 
L 313.415909 159.135661 
L 314.278182 158.145372 
L 315.140455 156.683117 
L 316.002727 157.193009 
L 317.727273 154.70616 
L 321.176364 151.543465 
L 322.900909 149.657821 
L 323.763182 149.274454 
L 324.625455 147.798334 
L 325.487727 146.809653 
L 326.35 146.574777 
L 327.212273 145.47931 
L 328.074545 145.867083 
L 329.799091 142.609138 
L 330.661364 142.663536 
L 331.523636 141.107654 
L 332.385909 140.873019 
L 333.248182 139.148758 
L 334.110455 138.887267 
L 334.972727 137.906078 
L 335.835 137.386184 
L 336.697273 136.235419 
L 338.421818 134.40782 
L 339.284091 134.347686 
L 341.008636 131.336649 
L 341.870909 130.629304 
L 342.733182 129.459026 
L 343.595455 129.630382 
L 344.457727 127.802723 
L 346.182273 125.706543 
L 347.906818 125.268472 
L 348.769091 123.907897 
L 349.631364 123.413352 
L 350.493636 121.691477 
L 351.355909 121.463261 
L 352.218182 120.706462 
L 353.080455 119.490785 
L 353.942727 118.6189 
L 354.805 117.576919 
L 355.667273 117.391891 
L 358.254091 114.440252 
L 359.116364 113.034308 
L 359.978636 112.227565 
L 360.840909 112.57524 
L 361.703182 110.085465 
L 362.565455 110.447112 
L 364.29 108.19603 
L 365.152273 108.353706 
L 366.014545 106.837537 
L 366.876818 106.538318 
L 367.739091 103.833874 
L 368.601364 103.864626 
L 369.463636 102.909813 
L 370.325909 101.261327 
L 371.188182 101.396599 
L 372.912727 98.98016 
L 373.775 99.7477 
L 375.499545 95.583296 
L 376.361818 96.116304 
L 377.224091 95.678367 
L 378.086364 94.519442 
L 378.948636 92.167276 
L 380.673182 91.647411 
L 381.535455 90.898087 
L 382.397727 90.688098 
L 383.26 89.891135 
L 384.122273 88.166591 
L 384.984545 86.820128 
L 385.846818 85.966555 
L 386.709091 84.482903 
L 387.571364 85.38091 
L 388.433636 83.948597 
L 389.295909 83.00067 
L 390.158182 81.875116 
L 391.020455 82.393706 
L 391.882727 79.965122 
L 392.745 79.896846 
L 393.607273 79.478211 
L 394.469545 78.239571 
L 395.331818 76.024867 
L 396.194091 75.985128 
L 397.056364 75.341519 
L 397.918636 73.367091 
L 398.780909 73.611228 
L 399.643182 72.879533 
L 400.505455 71.953288 
L 401.367727 70.441672 
L 402.23 70.316361 
L 403.092273 68.027828 
L 403.954545 69.042876 
L 403.954545 69.042876 
" clip-path="url(#p1869585a4d)" style="fill: none; stroke: #1f77b4; stroke-width: 2; stroke-linecap: square"/>
   </g>
   <g id="line2d_17">
    <path d="M 59.045455 238.627131 
L 403.954545 238.627131 
L 403.954545 238.627131 
" clip-path="url(#p1869585a4d)" style="fill: none; stroke: #ff7f0e; stroke-width: 3; stroke-linecap: square"/>
   </g>
   <g id="line2d_18">
    <path d="M 59.045455 74.431875 
L 59.907727 74.866576 
L 60.77 76.182429 
L 61.632273 75.111775 
L 63.356818 78.008101 
L 64.219091 78.95077 
L 65.081364 80.643543 
L 65.943636 80.204483 
L 66.805909 80.723703 
L 67.668182 80.258949 
L 69.392727 82.523771 
L 70.255 84.249374 
L 71.117273 85.379558 
L 72.841818 86.844845 
L 73.704091 86.762883 
L 74.566364 87.107477 
L 76.290909 90.431029 
L 77.153182 90.650342 
L 78.015455 91.607926 
L 78.877727 92.395289 
L 79.74 91.464376 
L 80.602273 92.072522 
L 81.464545 94.711761 
L 82.326818 95.579541 
L 83.189091 96.194208 
L 84.051364 96.273774 
L 84.913636 98.117986 
L 85.775909 98.368364 
L 86.638182 99.30405 
L 87.500455 98.745496 
L 88.362727 101.476216 
L 89.225 101.263267 
L 90.087273 102.281037 
L 90.949545 102.624705 
L 91.811818 103.178632 
L 92.674091 104.269478 
L 93.536364 104.44197 
L 94.398636 105.020693 
L 95.260909 106.147097 
L 96.123182 107.879905 
L 97.847727 109.458372 
L 98.71 109.385784 
L 99.572273 111.360046 
L 100.434545 112.222519 
L 101.296818 112.221899 
L 102.159091 113.13053 
L 103.021364 114.448038 
L 103.883636 113.715081 
L 104.745909 115.58167 
L 105.608182 116.747939 
L 106.470455 117.38211 
L 107.332727 118.192832 
L 108.195 118.389093 
L 109.057273 119.339258 
L 109.919545 119.822234 
L 110.781818 119.680514 
L 111.644091 123.291401 
L 112.506364 123.234934 
L 113.368636 124.221704 
L 114.230909 123.505076 
L 115.093182 125.436338 
L 115.955455 126.217811 
L 116.817727 126.456598 
L 117.68 127.562327 
L 118.542273 129.097794 
L 119.404545 127.939907 
L 120.266818 130.562027 
L 121.129091 130.824803 
L 122.853636 131.673917 
L 123.715909 134.333168 
L 124.578182 133.564354 
L 125.440455 135.368801 
L 126.302727 136.439806 
L 127.165 136.069337 
L 128.027273 137.173818 
L 128.889545 137.50662 
L 129.751818 139.099883 
L 130.614091 139.625697 
L 131.476364 140.959607 
L 132.338636 141.326098 
L 133.200909 142.434602 
L 134.063182 142.200354 
L 134.925455 143.600554 
L 135.787727 144.623353 
L 137.512273 145.941318 
L 138.374545 147.013705 
L 139.236818 147.367702 
L 140.099091 149.905366 
L 140.961364 149.582154 
L 141.823636 149.864189 
L 142.685909 151.704655 
L 146.135 153.974791 
L 146.997273 155.240859 
L 147.859545 155.726509 
L 148.721818 157.869409 
L 149.584091 157.133068 
L 150.446364 158.736783 
L 151.308636 159.377849 
L 152.170909 160.441959 
L 154.757727 162.467308 
L 155.62 164.061287 
L 156.482273 163.512669 
L 157.344545 165.2216 
L 159.069091 166.700966 
L 159.931364 167.827558 
L 160.793636 168.531853 
L 161.655909 169.533736 
L 163.380455 170.947992 
L 164.242727 172.369207 
L 165.105 172.61142 
L 165.967273 173.524609 
L 166.829545 175.34959 
L 167.691818 175.102565 
L 168.554091 176.813879 
L 169.416364 176.642018 
L 170.278636 177.508012 
L 171.140909 178.64459 
L 172.003182 179.299332 
L 172.865455 180.274691 
L 173.727727 181.703196 
L 174.59 181.954125 
L 175.452273 183.152875 
L 177.176818 184.383102 
L 178.039091 185.396449 
L 180.625909 187.610948 
L 183.212727 190.321409 
L 184.075 190.880319 
L 184.937273 192.50959 
L 185.799545 193.146447 
L 186.661818 194.076068 
L 187.524091 194.648182 
L 188.386364 196.072199 
L 189.248636 196.247647 
L 190.973182 198.306924 
L 191.835455 198.781351 
L 192.697727 199.873431 
L 194.422273 201.166024 
L 197.871364 205.17909 
L 198.733636 205.807 
L 199.595909 206.734005 
L 200.458182 207.361142 
L 201.320455 208.406182 
L 202.182727 209.0634 
L 203.045 210.190029 
L 203.907273 210.956656 
L 204.769545 211.498961 
L 205.631818 212.802997 
L 206.494091 213.460165 
L 207.356364 214.373125 
L 208.218636 215.035966 
L 209.080909 216.338988 
L 210.805455 217.776978 
L 211.667727 218.41521 
L 214.254545 221.282277 
L 215.116818 221.935423 
L 216.841364 223.842222 
L 217.703636 224.658936 
L 218.565909 225.706539 
L 220.290455 227.252293 
L 222.015 229.035246 
L 224.601818 231.699657 
L 226.326364 233.39512 
L 231.5 238.627131 
L 247.883182 221.952967 
L 249.607727 220.080452 
L 253.919091 215.961409 
L 255.643636 213.857126 
L 256.505909 213.146159 
L 257.368182 212.215787 
L 258.230455 211.531307 
L 259.092727 210.607896 
L 259.955 209.906069 
L 260.817273 208.753937 
L 265.128636 204.208506 
L 267.715455 201.339097 
L 268.577727 200.771973 
L 269.44 199.557231 
L 270.302273 199.042942 
L 272.026818 196.92006 
L 273.751364 195.25328 
L 274.613636 193.985523 
L 275.475909 193.58308 
L 276.338182 192.578858 
L 277.200455 191.879917 
L 278.062727 190.861696 
L 278.925 190.051405 
L 279.787273 188.976454 
L 281.511818 187.482461 
L 282.374091 187.06423 
L 283.236364 186.174019 
L 284.098636 184.358969 
L 284.960909 183.758899 
L 285.823182 182.510559 
L 286.685455 181.807157 
L 287.547727 181.265036 
L 289.272273 179.171441 
L 290.134545 177.597766 
L 291.859091 176.305926 
L 292.721364 175.470472 
L 293.583636 175.189839 
L 294.445909 174.025847 
L 295.308182 172.451886 
L 296.170455 172.088865 
L 297.032727 170.283675 
L 297.895 169.888516 
L 299.619545 168.665589 
L 300.481818 167.298713 
L 301.344091 166.683312 
L 302.206364 165.921175 
L 303.068636 164.340762 
L 303.930909 163.62205 
L 304.793182 162.233405 
L 305.655455 162.55063 
L 306.517727 160.794177 
L 307.38 159.836312 
L 308.242273 159.325144 
L 310.829091 156.207355 
L 311.691364 154.466527 
L 312.553636 154.965221 
L 314.278182 152.109008 
L 315.140455 150.959918 
L 316.002727 151.432816 
L 317.727273 148.897844 
L 318.589545 148.475445 
L 319.451818 146.941068 
L 320.314091 146.555519 
L 321.176364 145.471767 
L 322.038636 144.030391 
L 322.900909 143.466648 
L 323.763182 143.268766 
L 324.625455 141.353877 
L 325.487727 139.947823 
L 326.35 140.270848 
L 327.212273 139.051588 
L 328.074545 139.701493 
L 329.799091 135.84232 
L 330.661364 136.297061 
L 331.523636 134.309305 
L 332.385909 134.394109 
L 333.248182 132.119373 
L 334.110455 132.220392 
L 334.972727 130.565968 
L 335.835 130.649586 
L 336.697273 129.98877 
L 338.421818 126.832721 
L 339.284091 126.851997 
L 340.146364 125.51097 
L 341.008636 123.718633 
L 342.733182 121.872446 
L 343.595455 121.658163 
L 344.457727 119.660284 
L 345.32 119.379261 
L 346.182273 118.115769 
L 347.906818 117.092533 
L 348.769091 116.954718 
L 349.631364 115.466009 
L 350.493636 113.439663 
L 351.355909 113.220001 
L 352.218182 112.422216 
L 353.080455 111.221411 
L 353.942727 110.595361 
L 354.805 108.697548 
L 355.667273 109.977955 
L 357.391818 106.497417 
L 358.254091 105.424297 
L 359.116364 104.794432 
L 359.978636 102.485391 
L 360.840909 103.895732 
L 361.703182 101.506376 
L 362.565455 102.09813 
L 364.29 99.16894 
L 365.152273 98.899985 
L 366.014545 97.401985 
L 366.876818 97.421472 
L 367.739091 94.692462 
L 369.463636 93.678071 
L 370.325909 91.300888 
L 371.188182 92.254331 
L 372.050455 90.156864 
L 372.912727 89.643244 
L 373.775 89.902259 
L 374.637273 88.51673 
L 375.499545 85.057119 
L 376.361818 85.976996 
L 377.224091 86.316984 
L 378.948636 81.101455 
L 379.810909 81.272594 
L 380.673182 81.849433 
L 381.535455 81.071664 
L 382.397727 80.465663 
L 383.26 79.466491 
L 384.122273 77.271719 
L 384.984545 76.614217 
L 386.709091 73.829553 
L 387.571364 74.089932 
L 388.433636 73.618713 
L 389.295909 72.126998 
L 390.158182 71.129191 
L 391.020455 70.823353 
L 391.882727 70.057553 
L 392.745 68.718151 
L 393.607273 67.694071 
L 394.469545 67.856217 
L 395.331818 65.308121 
L 396.194091 65.143966 
L 397.056364 63.910356 
L 397.918636 61.109657 
L 398.780909 61.894172 
L 399.643182 61.17884 
L 400.505455 59.647752 
L 401.367727 58.841721 
L 402.23 58.479571 
L 403.092273 56.420784 
L 403.954545 57.372609 
L 403.954545 57.372609 
" clip-path="url(#p1869585a4d)" style="fill: none; stroke: #2ca02c; stroke-width: 2; stroke-linecap: square"/>
   </g>
   <g id="line2d_19">
    <path d="M 59.045455 238.627131 
L 403.954545 238.627131 
L 403.954545 238.627131 
" clip-path="url(#p1869585a4d)" style="fill: none; stroke: #d62728; stroke-width: 2; stroke-linecap: square"/>
   </g>
   <g id="line2d_20">
    <path d="M 59.045455 187.222474 
L 59.907727 185.07043 
L 60.77 187.425152 
L 61.632273 185.191017 
L 62.494545 185.625751 
L 63.356818 188.381123 
L 64.219091 186.625268 
L 65.081364 185.636046 
L 65.943636 187.292577 
L 66.805909 187.009472 
L 68.530455 188.862004 
L 69.392727 188.492322 
L 70.255 191.124179 
L 71.117273 188.967671 
L 71.979545 190.062827 
L 72.841818 191.770241 
L 73.704091 189.096876 
L 74.566364 189.471928 
L 75.428636 190.735122 
L 76.290909 187.99444 
L 77.153182 190.764632 
L 78.877727 191.488915 
L 79.74 193.087736 
L 80.602273 190.992998 
L 81.464545 193.097559 
L 82.326818 193.979388 
L 83.189091 193.49173 
L 84.051364 193.197456 
L 84.913636 193.385317 
L 85.775909 193.368815 
L 86.638182 193.521109 
L 87.500455 194.477503 
L 88.362727 193.284524 
L 89.225 195.117472 
L 90.087273 193.761093 
L 90.949545 194.455516 
L 91.811818 192.731849 
L 92.674091 195.401221 
L 93.536364 197.19469 
L 94.398636 197.619506 
L 95.260909 196.456867 
L 96.123182 195.58926 
L 96.985455 197.78857 
L 97.847727 197.872649 
L 99.572273 200.202157 
L 100.434545 196.535793 
L 101.296818 199.421816 
L 102.159091 198.897319 
L 103.021364 200.721779 
L 103.883636 196.956582 
L 104.745909 201.07206 
L 105.608182 198.861452 
L 106.470455 200.150691 
L 107.332727 200.528804 
L 108.195 200.201346 
L 110.781818 201.922355 
L 111.644091 201.926977 
L 112.506364 200.725211 
L 113.368636 201.924144 
L 114.230909 202.318821 
L 115.093182 203.67152 
L 115.955455 203.80215 
L 117.68 203.2936 
L 118.542273 203.837219 
L 119.404545 204.09304 
L 120.266818 203.89224 
L 121.129091 204.402034 
L 121.991364 206.015929 
L 122.853636 205.682393 
L 123.715909 204.840571 
L 124.578182 204.749213 
L 125.440455 205.853772 
L 127.165 207.249827 
L 128.027273 207.082898 
L 128.889545 207.780143 
L 129.751818 208.118653 
L 130.614091 207.754591 
L 131.476364 208.924055 
L 132.338636 209.275208 
L 133.200909 208.630165 
L 134.063182 208.89739 
L 134.925455 208.69074 
L 135.787727 210.326261 
L 136.65 209.499424 
L 137.512273 210.035696 
L 138.374545 209.315323 
L 139.236818 210.829805 
L 140.099091 210.21087 
L 140.961364 212.510278 
L 141.823636 211.123888 
L 142.685909 211.567571 
L 144.410455 212.92163 
L 145.272727 213.851565 
L 146.135 212.561705 
L 146.997273 212.954733 
L 147.859545 212.797131 
L 148.721818 213.429228 
L 150.446364 213.604827 
L 151.308636 214.296271 
L 152.170909 213.347929 
L 153.033182 213.813456 
L 153.895455 214.981527 
L 154.757727 214.977947 
L 156.482273 215.91781 
L 157.344545 215.554502 
L 158.206818 215.790953 
L 159.069091 216.149329 
L 159.931364 216.218208 
L 160.793636 215.748658 
L 161.655909 216.626864 
L 162.518182 218.026498 
L 163.380455 218.257128 
L 164.242727 217.801277 
L 165.967273 217.946466 
L 166.829545 218.206505 
L 167.691818 219.34842 
L 169.416364 219.275887 
L 170.278636 219.809226 
L 171.140909 219.887048 
L 172.003182 221.245959 
L 172.865455 220.382354 
L 175.452273 221.404305 
L 176.314545 220.545429 
L 177.176818 221.803198 
L 178.039091 222.241737 
L 178.901364 222.272506 
L 179.763636 222.030146 
L 180.625909 222.376469 
L 181.488182 223.328353 
L 182.350455 222.627633 
L 183.212727 224.128551 
L 184.075 224.282115 
L 184.937273 224.09194 
L 185.799545 224.443314 
L 186.661818 224.13531 
L 187.524091 225.398317 
L 188.386364 225.094203 
L 189.248636 225.668678 
L 190.110909 226.035446 
L 190.973182 225.885432 
L 191.835455 226.475978 
L 192.697727 226.241919 
L 193.56 226.74586 
L 195.284545 226.976001 
L 197.009091 228.18809 
L 197.871364 228.050832 
L 198.733636 228.174436 
L 199.595909 228.955381 
L 201.320455 228.598376 
L 202.182727 228.803819 
L 203.045 229.791465 
L 203.907273 229.534408 
L 204.769545 230.349896 
L 205.631818 230.389271 
L 206.494091 230.754561 
L 207.356364 230.740972 
L 209.080909 231.419843 
L 209.943182 231.558759 
L 210.805455 232.33865 
L 211.667727 232.412235 
L 212.53 232.304245 
L 214.254545 233.196243 
L 215.116818 233.262778 
L 215.979091 233.515555 
L 216.841364 233.949047 
L 218.565909 234.465425 
L 219.428182 234.690946 
L 221.152727 235.441838 
L 222.877273 235.790961 
L 223.739545 236.234084 
L 225.464091 236.753709 
L 226.326364 237.040405 
L 227.188636 237.195386 
L 228.913182 237.835671 
L 231.5 238.627131 
L 234.949091 237.546318 
L 236.673636 237.021285 
L 238.398182 236.444802 
L 241.847273 235.419051 
L 242.709545 235.315963 
L 243.571818 234.916598 
L 244.434091 234.35706 
L 247.020909 233.931462 
L 247.883182 233.675597 
L 249.607727 232.773209 
L 250.47 232.534133 
L 251.332273 232.413633 
L 252.194545 231.980445 
L 253.056818 232.000167 
L 254.781364 231.381767 
L 256.505909 231.131745 
L 257.368182 230.380117 
L 258.230455 230.162634 
L 259.092727 230.190214 
L 259.955 229.979333 
L 260.817273 229.611379 
L 261.679545 229.65441 
L 262.541818 229.434143 
L 263.404091 228.817799 
L 264.266364 228.962093 
L 265.990909 227.998528 
L 266.853182 227.905831 
L 267.715455 228.109306 
L 268.577727 227.437004 
L 269.44 227.505477 
L 270.302273 226.981544 
L 271.164545 226.774428 
L 272.026818 226.765588 
L 272.889091 226.129457 
L 273.751364 226.185658 
L 274.613636 225.078194 
L 275.475909 225.50235 
L 276.338182 225.166108 
L 277.200455 225.800941 
L 278.062727 224.800966 
L 278.925 225.010295 
L 279.787273 223.924204 
L 280.649545 223.855382 
L 281.511818 224.316772 
L 283.236364 223.473168 
L 284.098636 223.4348 
L 285.823182 222.699047 
L 286.685455 221.940905 
L 287.547727 222.502121 
L 288.41 222.572061 
L 289.272273 221.370953 
L 290.996818 221.20514 
L 291.859091 222.317293 
L 292.721364 221.310503 
L 293.583636 220.001626 
L 294.445909 220.499167 
L 295.308182 220.128841 
L 296.170455 220.014138 
L 297.032727 220.676568 
L 298.757273 219.133868 
L 299.619545 220.222233 
L 300.481818 218.725537 
L 301.344091 219.635661 
L 302.206364 218.86932 
L 303.068636 218.628162 
L 303.930909 218.568882 
L 304.793182 218.343942 
L 305.655455 217.596355 
L 306.517727 217.002056 
L 307.38 217.348298 
L 308.242273 217.415827 
L 309.104545 216.64516 
L 310.829091 215.999173 
L 311.691364 216.025273 
L 312.553636 216.25184 
L 313.415909 215.579853 
L 314.278182 215.310795 
L 315.140455 215.508979 
L 316.002727 215.356067 
L 316.865 214.454324 
L 318.589545 214.572896 
L 319.451818 214.323659 
L 321.176364 214.598538 
L 322.038636 213.267944 
L 322.900909 212.332941 
L 324.625455 213.558192 
L 325.487727 212.576947 
L 326.35 212.186294 
L 327.212273 211.311068 
L 328.074545 212.745075 
L 329.799091 210.77388 
L 330.661364 212.964368 
L 331.523636 210.723745 
L 332.385909 211.370918 
L 333.248182 212.203013 
L 334.110455 210.337451 
L 334.972727 210.526323 
L 335.835 210.039012 
L 336.697273 208.725778 
L 337.559545 209.275484 
L 338.421818 211.788007 
L 339.284091 209.755314 
L 340.146364 208.587728 
L 341.008636 209.234296 
L 341.870909 208.761473 
L 342.733182 208.552447 
L 343.595455 209.164651 
L 344.457727 207.023336 
L 345.32 207.263735 
L 346.182273 208.40874 
L 347.044545 207.541173 
L 347.906818 208.095321 
L 348.769091 207.289885 
L 349.631364 207.285041 
L 350.493636 205.642791 
L 351.355909 207.722285 
L 352.218182 207.196242 
L 353.080455 205.872324 
L 353.942727 204.291879 
L 354.805 205.938117 
L 355.667273 205.759561 
L 356.529545 205.166864 
L 357.391818 202.824088 
L 358.254091 206.093481 
L 359.978636 203.493736 
L 360.840909 203.242437 
L 361.703182 202.83735 
L 362.565455 203.586424 
L 363.427727 204.691893 
L 364.29 204.96434 
L 365.152273 204.234654 
L 367.739091 202.590161 
L 368.601364 202.856651 
L 369.463636 201.743323 
L 370.325909 203.088101 
L 371.188182 201.400365 
L 372.050455 203.000656 
L 372.912727 202.72891 
L 373.775 202.017436 
L 374.637273 200.534407 
L 376.361818 201.082245 
L 377.224091 200.130527 
L 378.086364 199.897543 
L 378.948636 200.912486 
L 379.810909 199.614811 
L 380.673182 198.771047 
L 381.535455 199.85938 
L 382.397727 200.07826 
L 383.26 199.304332 
L 384.122273 199.785681 
L 384.984545 197.804629 
L 385.846818 199.344379 
L 386.709091 198.64611 
L 387.571364 199.302603 
L 388.433636 198.719621 
L 389.295909 198.324042 
L 390.158182 196.65615 
L 391.020455 196.041362 
L 391.882727 198.363436 
L 392.745 196.312382 
L 393.607273 198.029987 
L 394.469545 196.458206 
L 395.331818 195.343884 
L 396.194091 197.131399 
L 397.056364 195.778423 
L 397.918636 195.902104 
L 398.780909 195.06261 
L 400.505455 195.723341 
L 401.367727 194.461596 
L 403.092273 193.865141 
L 403.954545 194.168801 
L 403.954545 194.168801 
" clip-path="url(#p1869585a4d)" style="fill: none; stroke: #9467bd; stroke-width: 2; stroke-linecap: square"/>
   </g>
   <g id="line2d_21">
    <path d="M 59.045455 93.533032 
L 59.907727 97.125952 
L 60.77 96.225674 
L 61.632273 97.284003 
L 62.494545 96.767114 
L 63.356818 96.711876 
L 64.219091 100.817564 
L 65.081364 99.583764 
L 65.943636 97.750348 
L 66.805909 98.458105 
L 68.530455 103.623977 
L 69.392727 102.052657 
L 71.117273 100.577866 
L 71.979545 103.841312 
L 72.841818 105.632372 
L 73.704091 103.565239 
L 74.566364 103.823922 
L 75.428636 105.743915 
L 76.290909 104.070089 
L 77.153182 108.28298 
L 78.015455 103.226043 
L 78.877727 108.351532 
L 79.74 108.802759 
L 80.602273 107.645642 
L 81.464545 107.637853 
L 82.326818 110.843805 
L 83.189091 110.977036 
L 84.051364 111.664338 
L 84.913636 112.966382 
L 85.775909 111.724047 
L 86.638182 112.049865 
L 87.500455 114.850571 
L 88.362727 114.285642 
L 89.225 116.304768 
L 90.087273 120.985853 
L 90.949545 115.285481 
L 91.811818 116.909019 
L 92.674091 115.408817 
L 93.536364 116.227662 
L 94.398636 120.75594 
L 95.260909 119.400602 
L 96.123182 122.792805 
L 96.985455 123.833255 
L 97.847727 119.753222 
L 98.71 120.167627 
L 99.572273 121.22772 
L 100.434545 123.444404 
L 101.296818 123.161048 
L 102.159091 121.236308 
L 103.021364 125.672482 
L 103.883636 124.56236 
L 104.745909 124.264337 
L 105.608182 128.120101 
L 106.470455 125.827665 
L 107.332727 127.552023 
L 108.195 131.314793 
L 109.919545 129.601007 
L 110.781818 131.124304 
L 111.644091 130.078083 
L 112.506364 134.573731 
L 113.368636 134.696439 
L 115.093182 132.600578 
L 115.955455 135.380017 
L 116.817727 133.951596 
L 117.68 136.588915 
L 118.542273 138.068412 
L 119.404545 137.017326 
L 120.266818 139.996574 
L 121.129091 139.477755 
L 121.991364 143.345262 
L 122.853636 140.658 
L 123.715909 141.839447 
L 124.578182 141.306837 
L 125.440455 145.038111 
L 126.302727 140.854465 
L 127.165 140.833098 
L 128.027273 143.744659 
L 129.751818 144.873291 
L 130.614091 146.530228 
L 131.476364 145.740703 
L 132.338636 147.876009 
L 133.200909 147.316235 
L 134.063182 147.188634 
L 134.925455 149.755066 
L 135.787727 149.964974 
L 136.65 151.764232 
L 137.512273 151.499562 
L 138.374545 153.09306 
L 139.236818 152.718717 
L 140.099091 154.458592 
L 140.961364 154.835265 
L 141.823636 155.925336 
L 142.685909 155.342628 
L 143.548182 156.796804 
L 144.410455 155.720898 
L 145.272727 158.209277 
L 146.135 159.683 
L 146.997273 160.864942 
L 147.859545 162.267612 
L 148.721818 161.799921 
L 149.584091 163.483453 
L 150.446364 163.011604 
L 151.308636 163.757494 
L 152.170909 164.226944 
L 153.033182 166.154178 
L 153.895455 165.515098 
L 154.757727 166.307986 
L 155.62 166.567908 
L 156.482273 167.133163 
L 157.344545 167.873349 
L 159.069091 172.807582 
L 159.931364 170.877155 
L 162.518182 172.243213 
L 163.380455 173.824213 
L 164.242727 172.846791 
L 165.105 175.645684 
L 165.967273 176.161552 
L 166.829545 176.180034 
L 167.691818 177.564237 
L 168.554091 177.816003 
L 169.416364 177.89874 
L 170.278636 178.864417 
L 171.140909 179.647149 
L 172.003182 181.567121 
L 172.865455 182.773055 
L 173.727727 183.036871 
L 174.59 184.11322 
L 175.452273 184.530362 
L 176.314545 185.50787 
L 178.039091 187.758014 
L 178.901364 187.018529 
L 179.763636 188.919486 
L 180.625909 189.028503 
L 181.488182 190.647545 
L 182.350455 191.523311 
L 183.212727 192.00434 
L 184.075 191.669454 
L 184.937273 192.076614 
L 185.799545 194.25512 
L 188.386364 196.511861 
L 189.248636 197.906183 
L 190.110909 197.761465 
L 190.973182 198.867087 
L 191.835455 200.228391 
L 192.697727 200.281126 
L 193.56 201.388355 
L 194.422273 201.248074 
L 195.284545 202.858864 
L 196.146818 203.409461 
L 197.009091 203.670031 
L 197.871364 205.768965 
L 198.733636 206.622097 
L 199.595909 207.795481 
L 200.458182 207.089921 
L 201.320455 208.198806 
L 202.182727 208.986805 
L 203.045 210.255684 
L 205.631818 213.319328 
L 206.494091 213.860899 
L 208.218636 215.120248 
L 209.080909 216.85581 
L 209.943182 217.289933 
L 211.667727 218.729994 
L 212.53 219.185933 
L 214.254545 221.460983 
L 215.116818 222.273037 
L 215.979091 222.656053 
L 216.841364 223.920673 
L 217.703636 224.420924 
L 218.565909 225.530368 
L 219.428182 226.454339 
L 220.290455 227.164689 
L 222.877273 229.725325 
L 223.739545 230.883135 
L 225.464091 232.499323 
L 228.050909 235.123739 
L 231.5 238.627131 
L 234.086818 235.992696 
L 234.949091 234.997304 
L 235.811364 234.191333 
L 236.673636 233.205553 
L 237.535909 232.5293 
L 238.398182 231.515793 
L 240.985 228.994236 
L 241.847273 227.732962 
L 242.709545 227.06732 
L 243.571818 225.936563 
L 244.434091 225.233347 
L 245.296364 224.204107 
L 246.158636 223.373191 
L 247.020909 222.198824 
L 247.883182 221.779373 
L 249.607727 219.295786 
L 250.47 218.456069 
L 251.332273 218.044646 
L 252.194545 216.723382 
L 253.056818 216.424902 
L 253.919091 215.63272 
L 254.781364 213.782657 
L 255.643636 213.408176 
L 256.505909 212.378631 
L 257.368182 211.575497 
L 258.230455 210.000364 
L 259.092727 209.82818 
L 259.955 208.534079 
L 260.817273 206.619377 
L 261.679545 207.141821 
L 262.541818 205.374397 
L 263.404091 205.424323 
L 264.266364 204.369802 
L 265.128636 202.475394 
L 265.990909 201.371169 
L 266.853182 201.431908 
L 267.715455 201.205767 
L 268.577727 198.938236 
L 269.44 198.661482 
L 270.302273 197.68467 
L 271.164545 196.050104 
L 272.026818 196.122327 
L 272.889091 194.264162 
L 273.751364 193.187196 
L 274.613636 191.771259 
L 275.475909 190.852709 
L 276.338182 190.407352 
L 277.200455 190.973082 
L 278.062727 188.151034 
L 278.925 187.240227 
L 279.787273 187.586253 
L 280.649545 186.833973 
L 282.374091 183.278758 
L 283.236364 183.582647 
L 284.098636 182.412306 
L 284.960909 181.00938 
L 285.823182 180.486029 
L 286.685455 179.014161 
L 287.547727 178.826929 
L 288.41 176.668094 
L 289.272273 174.990917 
L 290.134545 174.781638 
L 290.996818 173.483962 
L 291.859091 174.785359 
L 293.583636 171.299717 
L 294.445909 170.762363 
L 295.308182 169.870156 
L 296.170455 169.526773 
L 297.032727 167.187937 
L 297.895 167.593093 
L 298.757273 167.232765 
L 299.619545 165.193873 
L 300.481818 164.797892 
L 301.344091 162.306832 
L 302.206364 160.467754 
L 303.068636 160.395198 
L 303.930909 162.045953 
L 305.655455 156.562943 
L 306.517727 157.853234 
L 308.242273 155.125755 
L 309.104545 152.695052 
L 309.966818 151.150955 
L 310.829091 150.995232 
L 311.691364 152.969123 
L 312.553636 149.459421 
L 313.415909 148.150152 
L 314.278182 145.981384 
L 315.140455 146.027823 
L 316.002727 144.332388 
L 316.865 145.427982 
L 317.727273 143.022004 
L 318.589545 142.972337 
L 319.451818 142.513511 
L 320.314091 142.578863 
L 321.176364 137.750117 
L 322.038636 140.266866 
L 322.900909 137.895585 
L 323.763182 137.532886 
L 324.625455 136.296813 
L 325.487727 134.153513 
L 326.35 131.463997 
L 327.212273 131.889632 
L 328.074545 131.449794 
L 328.936818 129.971953 
L 329.799091 129.020448 
L 330.661364 126.240065 
L 331.523636 125.628517 
L 332.385909 129.407777 
L 333.248182 125.044621 
L 334.110455 121.290863 
L 334.972727 125.058943 
L 335.835 122.942307 
L 336.697273 119.132327 
L 338.421818 120.229605 
L 339.284091 117.841384 
L 340.146364 116.333697 
L 341.008636 115.36387 
L 341.870909 114.18943 
L 342.733182 112.684574 
L 343.595455 114.301378 
L 344.457727 110.840916 
L 345.32 111.433863 
L 346.182273 106.72648 
L 347.044545 105.939294 
L 347.906818 106.81381 
L 348.769091 105.246659 
L 349.631364 105.895228 
L 350.493636 103.558842 
L 351.355909 103.639888 
L 352.218182 102.389251 
L 353.080455 96.506763 
L 354.805 99.332883 
L 355.667273 97.179669 
L 356.529545 96.371778 
L 357.391818 92.929761 
L 358.254091 93.935649 
L 359.116364 91.378079 
L 359.978636 90.83658 
L 360.840909 91.598325 
L 361.703182 87.176462 
L 362.565455 92.453855 
L 363.427727 88.277392 
L 364.29 86.01397 
L 365.152273 88.290352 
L 366.014545 85.154112 
L 366.876818 85.105666 
L 367.739091 84.70182 
L 368.601364 81.653105 
L 369.463636 77.627253 
L 370.325909 79.439007 
L 371.188182 78.162773 
L 372.050455 81.137766 
L 372.912727 78.681505 
L 373.775 73.626125 
L 374.637273 76.810071 
L 375.499545 73.031182 
L 376.361818 70.17812 
L 377.224091 68.521524 
L 378.086364 65.480131 
L 378.948636 68.374789 
L 379.810909 68.397392 
L 380.673182 64.696088 
L 381.535455 70.156305 
L 383.26 59.809418 
L 384.984545 63.459556 
L 385.846818 60.176737 
L 386.709091 54.598019 
L 387.571364 56.947397 
L 389.295909 54.786478 
L 390.158182 56.083635 
L 391.020455 51.715304 
L 391.882727 51.353301 
L 392.745 51.426828 
L 393.607273 50.887764 
L 394.469545 49.078061 
L 395.331818 50.588268 
L 396.194091 45.307731 
L 397.056364 46.776425 
L 397.918636 43.824799 
L 398.780909 42.486059 
L 399.643182 42.232116 
L 400.505455 44.194795 
L 401.367727 40.947594 
L 402.23 36.607579 
L 403.092273 36.918102 
L 403.954545 36.544744 
L 403.954545 36.544744 
" clip-path="url(#p1869585a4d)" style="fill: none; stroke: #8c564b; stroke-width: 2; stroke-linecap: square"/>
   </g>
   <g id="patch_3">
    <path d="M 41.8 248.73125 
L 41.8 26.440625 
" style="fill: none; stroke: #000000; stroke-width: 0.8; stroke-linejoin: miter; stroke-linecap: square"/>
   </g>
   <g id="patch_4">
    <path d="M 421.2 248.73125 
L 421.2 26.440625 
" style="fill: none; stroke: #000000; stroke-width: 0.8; stroke-linejoin: miter; stroke-linecap: square"/>
   </g>
   <g id="patch_5">
    <path d="M 41.8 248.73125 
L 421.2 248.73125 
" style="fill: none; stroke: #000000; stroke-width: 0.8; stroke-linejoin: miter; stroke-linecap: square"/>
   </g>
   <g id="patch_6">
    <path d="M 41.8 26.440625 
L 421.2 26.440625 
" style="fill: none; stroke: #000000; stroke-width: 0.8; stroke-linejoin: miter; stroke-linecap: square"/>
   </g>
   <g id="text_18">
    <!-- 讨论不同强度的干扰对不稳定性的影响 -->
    <g transform="translate(129.5 20.440625)scale(0.12 -0.12)">
     <defs>
      <path id="SimHei-8ba8" d="M 4700 3775 
Q 4700 4600 4675 5225 
L 5225 5225 
Q 5200 4625 5200 3775 
Q 5625 3775 6075 3800 
L 6075 3325 
Q 5675 3350 5200 3350 
L 5200 25 
Q 5200 -325 4925 -437 
Q 4650 -550 4150 -600 
Q 4125 -300 3875 25 
Q 4450 0 4575 50 
Q 4700 100 4700 350 
L 4700 3350 
L 3225 3350 
Q 2900 3350 2300 3325 
L 2300 3800 
Q 2875 3775 3175 3775 
L 4700 3775 
z
M 1700 3375 
Q 1675 2925 1675 2400 
L 1675 550 
Q 2000 850 2400 1325 
Q 2550 1025 2725 825 
Q 2375 550 2037 237 
Q 1700 -75 1450 -350 
Q 1225 -100 1025 50 
Q 1200 250 1200 575 
L 1200 2950 
Q 575 2950 300 2925 
L 300 3400 
Q 575 3375 975 3375 
L 1700 3375 
z
M 3025 2750 
Q 3525 2150 3875 1525 
Q 3625 1375 3425 1250 
Q 3150 1850 2625 2475 
Q 2800 2575 3025 2750 
z
M 1250 5250 
Q 1550 4850 1825 4200 
Q 1625 4100 1375 3950 
Q 1175 4500 825 5000 
Q 1000 5100 1250 5250 
z
" transform="scale(0.015625)"/>
      <path id="SimHei-8bba" d="M 3500 1600 
Q 3825 1725 4250 2000 
Q 4675 2275 4975 2575 
Q 5225 2275 5400 2100 
Q 5050 1950 4550 1675 
Q 4050 1400 3500 1150 
L 3500 300 
Q 3500 -100 3800 -100 
L 4825 -100 
Q 5125 -100 5250 137 
Q 5375 375 5375 575 
Q 5675 350 5925 275 
Q 5750 -225 5550 -375 
Q 5350 -525 5100 -525 
L 3550 -525 
Q 3025 -475 3025 0 
L 3025 2175 
Q 3025 2525 3000 2850 
L 3525 2850 
Q 3500 2400 3500 2200 
L 3500 1600 
z
M 4175 4850 
Q 4400 4350 4950 3687 
Q 5500 3025 6175 2700 
Q 5975 2575 5800 2275 
Q 5100 2750 4637 3375 
Q 4175 4000 3950 4425 
Q 3725 3950 3387 3425 
Q 3050 2900 2325 2200 
Q 2175 2375 1950 2575 
Q 2350 2825 2650 3175 
Q 2950 3525 3200 3962 
Q 3450 4400 3575 4725 
Q 3700 5050 3750 5250 
Q 3975 5150 4275 5050 
L 4175 4850 
z
M 1600 3150 
Q 1575 2750 1575 2275 
L 1575 550 
Q 1950 825 2400 1300 
Q 2500 1075 2650 800 
Q 2250 475 1900 187 
Q 1550 -100 1250 -375 
Q 1150 -225 900 50 
Q 1100 250 1100 450 
L 1100 2700 
L 800 2700 
Q 550 2700 275 2675 
L 275 3175 
Q 550 3150 800 3150 
L 1600 3150 
z
M 975 5000 
Q 1550 4525 2125 4025 
Q 1950 3875 1750 3650 
Q 1325 4150 650 4650 
Q 825 4800 975 5000 
z
" transform="scale(0.015625)"/>
      <path id="SimHei-4e0d" d="M 5975 4450 
Q 5525 4475 5200 4475 
L 3725 4475 
Q 3550 4125 3300 3700 
L 3300 575 
Q 3300 75 3325 -550 
L 2775 -550 
Q 2800 50 2800 575 
L 2800 3025 
Q 2025 1950 700 1050 
Q 500 1350 325 1475 
Q 825 1700 1650 2437 
Q 2475 3175 3175 4475 
L 1525 4475 
Q 1050 4475 525 4450 
L 525 4950 
Q 1275 4925 1675 4925 
L 5175 4925 
Q 5500 4925 5975 4950 
L 5975 4450 
z
M 5450 1125 
Q 4975 1725 3750 2975 
Q 3950 3150 4075 3325 
Q 4675 2775 5100 2362 
Q 5525 1950 5900 1550 
Q 5650 1350 5450 1125 
z
" transform="scale(0.015625)"/>
      <path id="SimHei-540c" d="M 5825 4925 
Q 5775 4550 5775 3975 
L 5775 -50 
Q 5775 -400 5525 -487 
Q 5275 -575 4725 -625 
Q 4725 -400 4525 -50 
Q 4925 -50 5100 -12 
Q 5275 25 5275 200 
L 5275 4450 
L 1150 4450 
L 1150 -600 
L 575 -600 
Q 600 -250 625 200 
L 625 3975 
Q 625 4575 600 4925 
L 5825 4925 
z
M 4375 2550 
Q 4325 2275 4325 1700 
Q 4325 1150 4375 725 
L 2025 725 
Q 2050 1175 2050 1750 
Q 2050 2325 2025 2550 
L 4375 2550 
z
M 4100 3750 
Q 4600 3750 4825 3775 
L 4825 3275 
Q 4575 3300 4075 3300 
L 2450 3300 
Q 1850 3300 1600 3275 
L 1600 3775 
Q 1875 3750 2475 3750 
L 4100 3750 
z
M 3875 1150 
L 3875 2150 
L 2525 2150 
L 2525 1150 
L 3875 1150 
z
" transform="scale(0.015625)"/>
      <path id="SimHei-7684" d="M 2100 4975 
Q 1975 4750 1750 3950 
L 2875 3950 
Q 2850 3525 2850 2875 
L 2850 675 
Q 2850 300 2875 -400 
L 2375 -400 
L 2375 100 
L 1100 100 
L 1100 -450 
L 600 -450 
Q 625 350 625 550 
L 625 2850 
Q 625 3525 600 3950 
L 1325 3950 
Q 1450 4525 1525 5150 
Q 1875 5025 2100 4975 
z
M 5825 3075 
Q 5800 1550 5700 175 
Q 5650 -275 5225 -425 
Q 4800 -575 4275 -625 
Q 4250 -350 4050 -50 
Q 4550 -75 4837 -25 
Q 5125 25 5200 200 
Q 5275 375 5312 1225 
Q 5350 2075 5375 3600 
L 3925 3600 
Q 3725 3125 3350 2475 
Q 3175 2650 2925 2750 
Q 3150 3050 3350 3475 
Q 3550 3900 3700 4400 
Q 3850 4900 3875 5175 
Q 4225 5025 4475 4950 
Q 4350 4750 4262 4512 
Q 4175 4275 4075 4050 
L 5850 4050 
Q 5825 3525 5825 3075 
z
M 2375 525 
L 2375 1850 
L 1100 1850 
L 1100 525 
L 2375 525 
z
M 2375 2275 
L 2375 3525 
L 1100 3525 
L 1100 2275 
L 2375 2275 
z
M 4350 2050 
Q 4500 1750 4700 1275 
Q 4525 1200 4225 1025 
Q 4050 1500 3900 1837 
Q 3750 2175 3600 2400 
Q 3775 2500 4050 2650 
L 4350 2050 
z
" transform="scale(0.015625)"/>
      <path id="SimHei-5bf9" d="M 525 4250 
Q 900 4225 1400 4225 
L 2825 4225 
Q 2575 2625 2200 1750 
Q 2825 875 3125 400 
Q 2950 275 2725 75 
Q 2200 975 1950 1300 
Q 1650 775 1350 425 
Q 1050 75 600 -350 
Q 425 -125 200 -25 
Q 625 275 975 675 
Q 1325 1075 1650 1700 
Q 1050 2425 550 2900 
Q 700 3025 900 3225 
Q 1625 2425 1875 2150 
Q 2200 3050 2300 3825 
L 1400 3825 
Q 900 3825 525 3800 
L 525 4250 
z
M 2925 3700 
Q 3525 3675 3750 3675 
L 4825 3675 
L 4825 4425 
Q 4825 4750 4775 5125 
L 5350 5125 
Q 5325 4825 5325 4375 
L 5325 3675 
Q 5575 3675 6150 3700 
L 6150 3250 
Q 5575 3275 5325 3275 
L 5325 125 
Q 5350 -350 5012 -475 
Q 4675 -600 4250 -650 
Q 4175 -350 4025 -100 
Q 4575 -100 4712 -37 
Q 4850 25 4825 325 
L 4825 3275 
L 3775 3275 
Q 3550 3275 2925 3225 
L 2925 3700 
z
M 3450 2725 
Q 3875 1975 4175 1325 
Q 3850 1200 3700 1075 
Q 3475 1750 3050 2475 
Q 3225 2550 3450 2725 
z
" transform="scale(0.015625)"/>
      <path id="SimHei-7a33" d="M 4050 5125 
Q 3875 4975 3675 4625 
L 5325 4625 
Q 5200 4450 5062 4212 
Q 4925 3975 4800 3650 
L 5625 3650 
Q 5600 3350 5600 2600 
Q 5600 1875 5625 1425 
L 3425 1425 
Q 3075 1425 2750 1400 
L 2750 1850 
Q 3075 1825 3450 1825 
L 5100 1825 
L 5100 2375 
L 3550 2375 
Q 3175 2375 2875 2350 
L 2875 2775 
Q 3175 2750 3525 2750 
L 5100 2750 
L 5100 3275 
L 3775 3275 
Q 3350 3275 3050 3250 
L 3050 3650 
Q 2875 3425 2725 3200 
Q 2525 3400 2350 3475 
Q 2675 3875 2987 4412 
Q 3300 4950 3400 5300 
Q 3725 5200 4050 5125 
z
M 2500 4575 
Q 2275 4575 2012 4512 
Q 1750 4450 1625 4450 
L 1625 3350 
Q 1975 3350 2375 3375 
L 2375 2950 
Q 1925 2975 1625 2975 
L 1625 2225 
Q 1775 2325 1950 2500 
Q 2225 2100 2525 1600 
Q 2300 1500 2150 1350 
Q 1950 1725 1625 2175 
L 1625 400 
Q 1625 25 1650 -625 
L 1150 -625 
Q 1200 25 1200 400 
L 1200 2075 
Q 875 1250 475 650 
Q 375 925 175 1125 
Q 325 1250 650 1887 
Q 975 2525 1050 2975 
Q 750 2975 275 2950 
L 275 3375 
Q 750 3350 1200 3350 
L 1200 4325 
Q 950 4275 550 4200 
Q 475 4425 275 4625 
Q 750 4675 1237 4775 
Q 1725 4875 2125 5075 
Q 2275 4775 2500 4575 
z
M 3675 1025 
Q 3650 700 3650 300 
Q 3650 -75 3775 -100 
Q 3900 -125 4250 -125 
Q 4600 -125 4687 -100 
Q 4775 -75 4825 425 
Q 5025 275 5350 200 
Q 5150 -450 4950 -500 
Q 4750 -550 4175 -550 
Q 3625 -550 3425 -487 
Q 3225 -425 3225 -100 
L 3225 525 
Q 3225 775 3200 1025 
L 3675 1025 
z
M 3050 3675 
Q 3325 3650 3775 3650 
L 4275 3650 
Q 4450 4000 4575 4275 
L 3425 4275 
Q 3275 4050 3050 3675 
z
M 2925 900 
Q 2800 725 2700 287 
Q 2600 -150 2550 -300 
Q 2325 -200 2075 -175 
Q 2225 200 2275 412 
Q 2325 625 2425 1000 
L 2925 900 
z
M 5575 1100 
Q 5950 475 6175 50 
Q 5950 -25 5750 -175 
Q 5625 175 5200 925 
Q 5425 975 5575 1100 
z
M 4225 1300 
Q 4525 825 4625 525 
Q 4550 500 4250 350 
Q 4150 700 3850 1125 
Q 4050 1200 4225 1300 
z
" transform="scale(0.015625)"/>
      <path id="SimHei-5b9a" d="M 4200 3125 
Q 4675 3125 5175 3150 
L 5175 2675 
Q 4725 2700 4100 2700 
L 3550 2700 
L 3550 1700 
L 4600 1700 
Q 4875 1700 5375 1725 
L 5375 1250 
Q 4875 1275 4575 1275 
L 3550 1275 
L 3550 100 
Q 4600 -25 6050 125 
Q 5850 -200 5800 -475 
Q 4800 -475 4150 -450 
Q 3500 -425 3050 -300 
Q 2600 -175 2250 75 
Q 1900 325 1600 675 
Q 1200 -50 675 -575 
Q 450 -350 175 -250 
Q 875 300 1200 1050 
Q 1525 1800 1550 2200 
Q 1800 2050 2150 1975 
Q 2075 1875 1987 1662 
Q 1900 1450 1775 1125 
Q 1950 900 2300 612 
Q 2650 325 3050 200 
L 3050 2700 
L 2250 2700 
Q 1825 2700 1400 2675 
L 1400 3150 
Q 1825 3125 2400 3125 
L 4200 3125 
z
M 5750 4275 
Q 5725 3925 5725 3750 
Q 5725 3575 5750 3275 
L 5225 3275 
L 5225 3875 
L 1225 3875 
L 1225 3275 
L 700 3275 
Q 725 3475 725 3725 
Q 725 3975 700 4275 
L 5750 4275 
z
M 2650 5050 
Q 2875 5125 3100 5300 
Q 3375 4975 3600 4550 
Q 3250 4400 3100 4300 
Q 3050 4525 2650 5050 
z
" transform="scale(0.015625)"/>
      <path id="SimHei-6027" d="M 3450 4525 
Q 3325 4075 3275 3750 
L 4050 3750 
L 4050 4275 
Q 4050 4700 4025 5100 
L 4550 5100 
Q 4525 4700 4525 4275 
L 4525 3750 
L 5025 3750 
Q 5350 3750 5800 3775 
L 5800 3300 
Q 5350 3325 5025 3325 
L 4525 3325 
L 4525 2000 
L 4975 2000 
Q 5350 2000 5725 2025 
L 5725 1550 
Q 5350 1575 4975 1575 
L 4525 1575 
L 4525 25 
L 5200 25 
Q 5625 25 6025 50 
L 6025 -400 
Q 5625 -375 5200 -375 
L 3275 -375 
Q 2825 -375 2400 -400 
L 2400 50 
Q 2825 25 3250 25 
L 4050 25 
L 4050 1575 
L 3625 1575 
Q 3300 1575 2875 1550 
L 2875 2025 
Q 3200 2000 3625 2000 
L 4050 2000 
L 4050 3325 
L 3175 3325 
Q 3100 2950 2775 2225 
Q 2500 2375 2325 2400 
Q 2675 3125 2775 3650 
Q 2875 4175 2950 4650 
Q 3200 4575 3450 4525 
z
M 1700 5150 
Q 1675 4650 1675 4175 
L 1675 425 
Q 1675 -100 1700 -625 
L 1175 -625 
Q 1200 -100 1200 425 
L 1200 4175 
Q 1200 4700 1175 5150 
L 1700 5150 
z
M 975 3725 
Q 825 2675 700 2150 
Q 450 2200 250 2250 
Q 425 2900 525 3800 
Q 725 3775 975 3725 
z
M 2125 4025 
Q 2325 3625 2525 3000 
Q 2300 2925 2125 2825 
Q 1950 3375 1750 3850 
Q 1950 3950 2125 4025 
z
" transform="scale(0.015625)"/>
      <path id="SimHei-5f71" d="M 3550 5025 
Q 3500 4625 3512 4187 
Q 3525 3750 3550 3325 
L 775 3325 
Q 800 3750 787 4187 
Q 775 4625 775 5025 
L 3550 5025 
z
M 1450 -100 
Q 2050 -75 1975 200 
L 1975 1100 
L 775 1100 
Q 800 1375 787 1650 
Q 775 1925 775 2225 
L 3550 2225 
Q 3525 1925 3512 1650 
Q 3500 1375 3550 1100 
L 2475 1100 
L 2475 175 
Q 2500 -250 2300 -375 
Q 2100 -500 1625 -600 
Q 1575 -325 1450 -100 
z
M 2375 3250 
Q 2400 3075 2425 2875 
L 3175 2875 
Q 3600 2875 4050 2900 
L 4050 2475 
Q 3600 2500 3175 2500 
L 1200 2500 
Q 700 2500 275 2475 
L 275 2900 
Q 700 2875 1200 2875 
L 1900 2875 
Q 1875 3025 1850 3200 
Q 2100 3250 2375 3250 
z
M 6150 1350 
Q 5675 775 5000 225 
Q 4325 -325 3725 -650 
Q 3575 -400 3400 -250 
Q 3975 25 4600 500 
Q 5225 975 5775 1725 
Q 5950 1525 6150 1350 
z
M 5925 3125 
Q 5625 2850 5212 2362 
Q 4800 1875 4200 1425 
Q 4025 1625 3800 1725 
Q 4375 2050 4787 2525 
Q 5200 3000 5525 3500 
Q 5675 3325 5925 3125 
z
M 5725 4825 
Q 5325 4550 5037 4162 
Q 4750 3775 4175 3275 
Q 3975 3450 3800 3550 
Q 4175 3825 4550 4237 
Q 4925 4650 5225 5175 
Q 5425 5000 5725 4825 
z
M 3075 1475 
L 3075 1850 
L 1250 1850 
L 1250 1475 
L 3075 1475 
z
M 3075 3700 
L 3075 4000 
L 1250 4000 
L 1250 3700 
L 3075 3700 
z
M 3075 4375 
L 3075 4675 
L 1250 4675 
L 1250 4375 
L 3075 4375 
z
M 1500 500 
Q 1075 75 575 -325 
Q 475 -175 275 -25 
Q 700 250 1125 825 
Q 1300 625 1500 500 
z
M 3250 -50 
Q 3050 275 2750 550 
Q 2900 700 3075 850 
Q 3400 525 3600 250 
L 3250 -50 
z
" transform="scale(0.015625)"/>
      <path id="SimHei-54cd" d="M 4150 5125 
Q 4000 4975 3850 4325 
L 5875 4325 
Q 5850 3800 5850 3325 
L 5850 50 
Q 5825 -225 5625 -350 
Q 5425 -475 4850 -550 
Q 4850 -325 4600 25 
Q 5125 25 5237 62 
Q 5350 100 5350 225 
L 5350 3950 
L 2950 3950 
L 2950 -575 
L 2450 -575 
Q 2475 -75 2475 450 
L 2475 3125 
Q 2475 3750 2450 4325 
L 3350 4325 
Q 3475 4775 3525 5250 
Q 3950 5150 4150 5125 
z
M 4875 900 
L 3425 900 
L 3425 3100 
L 4875 3100 
L 4875 900 
z
M 4450 1275 
L 4450 2700 
L 3875 2700 
L 3875 1275 
L 4450 1275 
z
M 2075 4500 
Q 2050 3975 2050 3425 
L 2050 1750 
Q 2050 1250 2075 600 
L 1650 600 
L 1650 1050 
L 950 1050 
L 950 275 
L 500 275 
Q 525 750 525 1275 
L 525 3425 
Q 525 3975 500 4500 
L 2075 4500 
z
M 1650 1400 
L 1650 4125 
L 950 4125 
L 950 1400 
L 1650 1400 
z
" transform="scale(0.015625)"/>
     </defs>
     <use xlink:href="#SimHei-8ba8"/>
     <use xlink:href="#SimHei-8bba" x="100"/>
     <use xlink:href="#SimHei-4e0d" x="200"/>
     <use xlink:href="#SimHei-540c" x="300"/>
     <use xlink:href="#SimHei-5f3a" x="400"/>
     <use xlink:href="#SimHei-5ea6" x="500"/>
     <use xlink:href="#SimHei-7684" x="600"/>
     <use xlink:href="#SimHei-5e72" x="700"/>
     <use xlink:href="#SimHei-6270" x="800"/>
     <use xlink:href="#SimHei-5bf9" x="900"/>
     <use xlink:href="#SimHei-4e0d" x="1000"/>
     <use xlink:href="#SimHei-7a33" x="1100"/>
     <use xlink:href="#SimHei-5b9a" x="1200"/>
     <use xlink:href="#SimHei-6027" x="1300"/>
     <use xlink:href="#SimHei-7684" x="1400"/>
     <use xlink:href="#SimHei-5f71" x="1500"/>
     <use xlink:href="#SimHei-54cd" x="1600"/>
    </g>
   </g>
   <g id="legend_1">
    <g id="patch_7">
     <path d="M 183 114.096875 
L 280 114.096875 
Q 282 114.096875 282 112.096875 
L 282 33.440625 
Q 282 31.440625 280 31.440625 
L 183 31.440625 
Q 181 31.440625 181 33.440625 
L 181 112.096875 
Q 181 114.096875 183 114.096875 
z
" style="fill: #ffffff; opacity: 0.8; stroke: #cccccc; stroke-linejoin: miter"/>
    </g>
    <g id="line2d_22">
     <path d="M 185 38.940625 
L 195 38.940625 
L 205 38.940625 
" style="fill: none; stroke: #1f77b4; stroke-width: 2; stroke-linecap: square"/>
    </g>
    <g id="text_19">
     <!-- EU -->
     <g transform="translate(213 42.440625)scale(0.1 -0.1)">
      <defs>
       <path id="SimHei-45" d="M 2900 125 
L 350 125 
L 350 4400 
L 2775 4400 
L 2775 3925 
L 925 3925 
L 925 2600 
L 2625 2600 
L 2625 2125 
L 925 2125 
L 925 600 
L 2900 600 
L 2900 125 
z
" transform="scale(0.015625)"/>
       <path id="SimHei-55" d="M 2875 1375 
Q 2875 775 2562 425 
Q 2250 75 1575 75 
Q 900 75 587 425 
Q 275 775 275 1375 
L 275 4400 
L 850 4400 
L 850 1375 
Q 850 950 1050 750 
Q 1250 550 1575 550 
Q 1900 550 2100 750 
Q 2300 950 2300 1375 
L 2300 4400 
L 2875 4400 
L 2875 1375 
z
" transform="scale(0.015625)"/>
      </defs>
      <use xlink:href="#SimHei-45"/>
      <use xlink:href="#SimHei-55" x="50"/>
     </g>
    </g>
    <g id="line2d_23">
     <path d="M 185 52.190625 
L 195 52.190625 
L 205 52.190625 
" style="fill: none; stroke: #ff7f0e; stroke-width: 3; stroke-linecap: square"/>
    </g>
    <g id="text_20">
     <!-- VGaDis -->
     <g transform="translate(213 55.690625)scale(0.1 -0.1)">
      <defs>
       <path id="SimHei-56" d="M 3050 4400 
L 1800 75 
L 1300 75 
L 50 4400 
L 650 4400 
L 1525 1125 
L 1575 1125 
L 2450 4400 
L 3050 4400 
z
" transform="scale(0.015625)"/>
       <path id="SimHei-47" d="M 2850 75 
L 2425 75 
L 2350 425 
Q 2250 275 2037 175 
Q 1825 75 1575 75 
Q 1050 75 637 562 
Q 225 1050 225 2125 
Q 225 3300 600 3875 
Q 975 4450 1625 4450 
Q 2200 4450 2525 4025 
Q 2850 3600 2850 2925 
L 2300 2925 
Q 2300 3450 2125 3712 
Q 1950 3975 1625 3975 
Q 1225 3975 1025 3562 
Q 825 3150 825 2175 
Q 825 1250 1075 900 
Q 1325 550 1650 550 
Q 1975 550 2162 787 
Q 2350 1025 2350 1525 
L 2350 1800 
L 1575 1800 
L 1575 2275 
L 2850 2275 
L 2850 75 
z
" transform="scale(0.015625)"/>
       <path id="SimHei-44" d="M 2925 2250 
Q 2925 1100 2437 612 
Q 1950 125 1125 125 
L 275 125 
L 275 4400 
L 1125 4400 
Q 2050 4400 2487 3900 
Q 2925 3400 2925 2250 
z
M 2325 2250 
Q 2325 3175 2025 3550 
Q 1725 3925 1125 3925 
L 850 3925 
L 850 600 
L 1125 600 
Q 1725 600 2025 962 
Q 2325 1325 2325 2250 
z
" transform="scale(0.015625)"/>
      </defs>
      <use xlink:href="#SimHei-56"/>
      <use xlink:href="#SimHei-47" x="50"/>
      <use xlink:href="#SimHei-61" x="100"/>
      <use xlink:href="#SimHei-44" x="150"/>
      <use xlink:href="#SimHei-69" x="200"/>
      <use xlink:href="#SimHei-73" x="250"/>
     </g>
    </g>
    <g id="line2d_24">
     <path d="M 185 65.440625 
L 195 65.440625 
L 205 65.440625 
" style="fill: none; stroke: #2ca02c; stroke-width: 2; stroke-linecap: square"/>
    </g>
    <g id="text_21">
     <!-- Manhattan -->
     <g transform="translate(213 68.940625)scale(0.1 -0.1)">
      <defs>
       <path id="SimHei-4d" d="M 2925 125 
L 2425 125 
L 2425 3175 
L 2375 3175 
L 1775 125 
L 1375 125 
L 775 3175 
L 725 3175 
L 725 125 
L 225 125 
L 225 4400 
L 1000 4400 
L 1550 1575 
L 1600 1575 
L 2150 4400 
L 2925 4400 
L 2925 125 
z
" transform="scale(0.015625)"/>
       <path id="SimHei-6e" d="M 2800 125 
L 2300 125 
L 2300 1925 
Q 2300 2225 2150 2400 
Q 2000 2575 1750 2575 
Q 1425 2575 1137 2237 
Q 850 1900 850 1400 
L 850 125 
L 350 125 
L 350 2925 
L 850 2925 
L 850 2400 
Q 1050 2675 1287 2825 
Q 1525 2975 1900 2975 
Q 2350 2975 2575 2725 
Q 2800 2475 2800 2100 
L 2800 125 
z
" transform="scale(0.015625)"/>
       <path id="SimHei-68" d="M 2800 125 
L 2300 125 
L 2300 1925 
Q 2300 2225 2150 2400 
Q 2000 2575 1750 2575 
Q 1425 2575 1137 2237 
Q 850 1900 850 1400 
L 850 125 
L 350 125 
L 350 4400 
L 850 4400 
L 850 2400 
Q 1050 2675 1287 2825 
Q 1525 2975 1900 2975 
Q 2350 2975 2575 2725 
Q 2800 2475 2800 2100 
L 2800 125 
z
" transform="scale(0.015625)"/>
       <path id="SimHei-74" d="M 2750 200 
Q 2625 150 2462 112 
Q 2300 75 2025 75 
Q 1575 75 1300 325 
Q 1025 575 1025 1025 
L 1025 2525 
L 175 2525 
L 175 2925 
L 1025 2925 
L 1025 3900 
L 1525 3900 
L 1525 2925 
L 2550 2925 
L 2550 2525 
L 1525 2525 
L 1525 1000 
Q 1525 800 1625 662 
Q 1725 525 2000 525 
Q 2275 525 2450 575 
Q 2625 625 2750 700 
L 2750 200 
z
" transform="scale(0.015625)"/>
      </defs>
      <use xlink:href="#SimHei-4d"/>
      <use xlink:href="#SimHei-61" x="50"/>
      <use xlink:href="#SimHei-6e" x="100"/>
      <use xlink:href="#SimHei-68" x="150"/>
      <use xlink:href="#SimHei-61" x="200"/>
      <use xlink:href="#SimHei-74" x="250"/>
      <use xlink:href="#SimHei-74" x="300"/>
      <use xlink:href="#SimHei-61" x="350"/>
      <use xlink:href="#SimHei-6e" x="400"/>
     </g>
    </g>
    <g id="line2d_25">
     <path d="M 185 78.690625 
L 195 78.690625 
L 205 78.690625 
" style="fill: none; stroke: #d62728; stroke-width: 2; stroke-linecap: square"/>
    </g>
    <g id="text_22">
     <!-- VGdDis -->
     <g transform="translate(213 82.190625)scale(0.1 -0.1)">
      <use xlink:href="#SimHei-56"/>
      <use xlink:href="#SimHei-47" x="50"/>
      <use xlink:href="#SimHei-64" x="100"/>
      <use xlink:href="#SimHei-44" x="150"/>
      <use xlink:href="#SimHei-69" x="200"/>
      <use xlink:href="#SimHei-73" x="250"/>
     </g>
    </g>
    <g id="line2d_26">
     <path d="M 185 91.940625 
L 195 91.940625 
L 205 91.940625 
" style="fill: none; stroke: #9467bd; stroke-width: 2; stroke-linecap: square"/>
    </g>
    <g id="text_23">
     <!-- dtw_Manhattan -->
     <g transform="translate(213 95.440625)scale(0.1 -0.1)">
      <defs>
       <path id="SimHei-77" d="M 3075 2925 
L 2450 75 
L 1975 75 
L 1575 2250 
L 1525 2250 
L 1125 75 
L 650 75 
L 25 2925 
L 550 2925 
L 875 1050 
L 925 1050 
L 1275 2925 
L 1825 2925 
L 2175 1050 
L 2225 1050 
L 2550 2925 
L 3075 2925 
z
" transform="scale(0.015625)"/>
       <path id="SimHei-5f" d="M 3150 -850 
L 0 -850 
L 0 -550 
L 3150 -550 
L 3150 -850 
z
" transform="scale(0.015625)"/>
      </defs>
      <use xlink:href="#SimHei-64"/>
      <use xlink:href="#SimHei-74" x="50"/>
      <use xlink:href="#SimHei-77" x="100"/>
      <use xlink:href="#SimHei-5f" x="150"/>
      <use xlink:href="#SimHei-4d" x="200"/>
      <use xlink:href="#SimHei-61" x="250"/>
      <use xlink:href="#SimHei-6e" x="300"/>
      <use xlink:href="#SimHei-68" x="350"/>
      <use xlink:href="#SimHei-61" x="400"/>
      <use xlink:href="#SimHei-74" x="450"/>
      <use xlink:href="#SimHei-74" x="500"/>
      <use xlink:href="#SimHei-61" x="550"/>
      <use xlink:href="#SimHei-6e" x="600"/>
     </g>
    </g>
    <g id="line2d_27">
     <path d="M 185 105.26875 
L 195 105.26875 
L 205 105.26875 
" style="fill: none; stroke: #8c564b; stroke-width: 2; stroke-linecap: square"/>
    </g>
    <g id="text_24">
     <!-- dtw_EU -->
     <g transform="translate(213 108.76875)scale(0.1 -0.1)">
      <use xlink:href="#SimHei-64"/>
      <use xlink:href="#SimHei-74" x="50"/>
      <use xlink:href="#SimHei-77" x="100"/>
      <use xlink:href="#SimHei-5f" x="150"/>
      <use xlink:href="#SimHei-45" x="200"/>
      <use xlink:href="#SimHei-55" x="250"/>
     </g>
    </g>
   </g>
  </g>
 </g>
 <defs>
  <clipPath id="p1869585a4d">
   <rect x="41.8" y="26.440625" width="379.4" height="222.290625"/>
  </clipPath>
 </defs>
</svg>
