<?xml version="1.0" encoding="utf-8" standalone="no"?>
<!DOCTYPE svg PUBLIC "-//W3C//DTD SVG 1.1//EN"
  "http://www.w3.org/Graphics/SVG/1.1/DTD/svg11.dtd">
<svg xmlns:xlink="http://www.w3.org/1999/xlink" width="432pt" height="288pt" viewBox="0 0 432 288" xmlns="http://www.w3.org/2000/svg" version="1.1">
 <metadata>
  <rdf:RDF xmlns:dc="http://purl.org/dc/elements/1.1/" xmlns:cc="http://creativecommons.org/ns#" xmlns:rdf="http://www.w3.org/1999/02/22-rdf-syntax-ns#">
   <cc:Work>
    <dc:type rdf:resource="http://purl.org/dc/dcmitype/StillImage"/>
    <dc:date>2023-05-30T17:17:33.200684</dc:date>
    <dc:format>image/svg+xml</dc:format>
    <dc:creator>
     <cc:Agent>
      <dc:title>Matplotlib v3.5.2, https://matplotlib.org/</dc:title>
     </cc:Agent>
    </dc:creator>
   </cc:Work>
  </rdf:RDF>
 </metadata>
 <defs>
  <style type="text/css">*{stroke-linejoin: round; stroke-linecap: butt}</style>
 </defs>
 <g id="figure_1">
  <g id="patch_1">
   <path d="M 0 288 
L 432 288 
L 432 0 
L 0 0 
L 0 288 
z
" style="fill: none"/>
  </g>
  <g id="axes_1">
   <g id="patch_2">
    <path d="M 31.675 248.73125 
L 421.2 248.73125 
L 421.2 26.440625 
L 31.675 26.440625 
z
" style="fill: #ffffff"/>
   </g>
   <g id="matplotlib.axis_1">
    <g id="xtick_1">
     <g id="line2d_1">
      <defs>
       <path id="m0c773f954c" d="M 0 0 
L 0 3.5 
" style="stroke: #000000; stroke-width: 0.8"/>
      </defs>
      <g>
       <use xlink:href="#m0c773f954c" x="49.380682" y="248.73125" style="stroke: #000000; stroke-width: 0.8"/>
      </g>
     </g>
     <g id="text_1">
      <!-- -200 -->
      <g transform="translate(39.380682 262.60625)scale(0.1 -0.1)">
       <defs>
        <path id="SimHei-2d" d="M 2975 2125 
L 125 2125 
L 125 2525 
L 2975 2525 
L 2975 2125 
z
" transform="scale(0.015625)"/>
        <path id="SimHei-32" d="M 300 250 
Q 325 625 650 925 
Q 975 1225 1475 1862 
Q 1975 2500 2125 2850 
Q 2275 3200 2237 3450 
Q 2200 3700 2000 3862 
Q 1800 4025 1537 4000 
Q 1275 3975 1037 3800 
Q 800 3625 675 3275 
L 200 3350 
Q 400 3925 712 4187 
Q 1025 4450 1450 4475 
Q 1700 4500 1900 4462 
Q 2100 4425 2312 4287 
Q 2525 4150 2662 3875 
Q 2800 3600 2762 3212 
Q 2725 2825 2375 2287 
Q 2025 1750 1025 600 
L 2825 600 
L 2825 150 
L 300 150 
L 300 250 
z
" transform="scale(0.015625)"/>
        <path id="SimHei-30" d="M 225 2537 
Q 250 3200 412 3587 
Q 575 3975 875 4225 
Q 1175 4475 1612 4475 
Q 2050 4475 2375 4112 
Q 2700 3750 2800 3200 
Q 2900 2650 2862 1937 
Q 2825 1225 2612 775 
Q 2400 325 1975 150 
Q 1550 -25 1125 187 
Q 700 400 525 750 
Q 350 1100 275 1487 
Q 200 1875 225 2537 
z
M 750 2687 
Q 675 2000 800 1462 
Q 925 925 1212 700 
Q 1500 475 1800 612 
Q 2100 750 2237 1162 
Q 2375 1575 2375 2062 
Q 2375 2550 2337 2950 
Q 2300 3350 2112 3675 
Q 1925 4000 1612 4012 
Q 1300 4025 1062 3700 
Q 825 3375 750 2687 
z
" transform="scale(0.015625)"/>
       </defs>
       <use xlink:href="#SimHei-2d"/>
       <use xlink:href="#SimHei-32" x="50"/>
       <use xlink:href="#SimHei-30" x="100"/>
       <use xlink:href="#SimHei-30" x="150"/>
      </g>
     </g>
    </g>
    <g id="xtick_2">
     <g id="line2d_2">
      <g>
       <use xlink:href="#m0c773f954c" x="93.644886" y="248.73125" style="stroke: #000000; stroke-width: 0.8"/>
      </g>
     </g>
     <g id="text_2">
      <!-- -150 -->
      <g transform="translate(83.644886 262.60625)scale(0.1 -0.1)">
       <defs>
        <path id="SimHei-31" d="M 1400 3600 
Q 1075 3275 575 2975 
L 575 3450 
Q 1200 3875 1600 4450 
L 1900 4450 
L 1900 150 
L 1400 150 
L 1400 3600 
z
" transform="scale(0.015625)"/>
        <path id="SimHei-35" d="M 550 1325 
Q 725 650 1150 575 
Q 1575 500 1837 662 
Q 2100 825 2212 1087 
Q 2325 1350 2312 1675 
Q 2300 2000 2137 2225 
Q 1975 2450 1725 2525 
Q 1475 2600 1162 2525 
Q 850 2450 650 2175 
L 225 2225 
Q 275 2375 700 4375 
L 2675 4375 
L 2675 3925 
L 1075 3925 
Q 950 3250 825 2850 
Q 1200 3025 1525 3012 
Q 1850 3000 2150 2862 
Q 2450 2725 2587 2487 
Q 2725 2250 2787 2012 
Q 2850 1775 2837 1500 
Q 2825 1225 2725 937 
Q 2625 650 2425 462 
Q 2225 275 1937 162 
Q 1650 50 1275 75 
Q 900 100 562 350 
Q 225 600 100 1200 
L 550 1325 
z
" transform="scale(0.015625)"/>
       </defs>
       <use xlink:href="#SimHei-2d"/>
       <use xlink:href="#SimHei-31" x="50"/>
       <use xlink:href="#SimHei-35" x="100"/>
       <use xlink:href="#SimHei-30" x="150"/>
      </g>
     </g>
    </g>
    <g id="xtick_3">
     <g id="line2d_3">
      <g>
       <use xlink:href="#m0c773f954c" x="137.909091" y="248.73125" style="stroke: #000000; stroke-width: 0.8"/>
      </g>
     </g>
     <g id="text_3">
      <!-- -100 -->
      <g transform="translate(127.909091 262.60625)scale(0.1 -0.1)">
       <use xlink:href="#SimHei-2d"/>
       <use xlink:href="#SimHei-31" x="50"/>
       <use xlink:href="#SimHei-30" x="100"/>
       <use xlink:href="#SimHei-30" x="150"/>
      </g>
     </g>
    </g>
    <g id="xtick_4">
     <g id="line2d_4">
      <g>
       <use xlink:href="#m0c773f954c" x="182.173295" y="248.73125" style="stroke: #000000; stroke-width: 0.8"/>
      </g>
     </g>
     <g id="text_4">
      <!-- -50 -->
      <g transform="translate(174.673295 262.60625)scale(0.1 -0.1)">
       <use xlink:href="#SimHei-2d"/>
       <use xlink:href="#SimHei-35" x="50"/>
       <use xlink:href="#SimHei-30" x="100"/>
      </g>
     </g>
    </g>
    <g id="xtick_5">
     <g id="line2d_5">
      <g>
       <use xlink:href="#m0c773f954c" x="226.4375" y="248.73125" style="stroke: #000000; stroke-width: 0.8"/>
      </g>
     </g>
     <g id="text_5">
      <!-- 0 -->
      <g transform="translate(223.9375 262.60625)scale(0.1 -0.1)">
       <use xlink:href="#SimHei-30"/>
      </g>
     </g>
    </g>
    <g id="xtick_6">
     <g id="line2d_6">
      <g>
       <use xlink:href="#m0c773f954c" x="270.701705" y="248.73125" style="stroke: #000000; stroke-width: 0.8"/>
      </g>
     </g>
     <g id="text_6">
      <!-- 50 -->
      <g transform="translate(265.701705 262.60625)scale(0.1 -0.1)">
       <use xlink:href="#SimHei-35"/>
       <use xlink:href="#SimHei-30" x="50"/>
      </g>
     </g>
    </g>
    <g id="xtick_7">
     <g id="line2d_7">
      <g>
       <use xlink:href="#m0c773f954c" x="314.965909" y="248.73125" style="stroke: #000000; stroke-width: 0.8"/>
      </g>
     </g>
     <g id="text_7">
      <!-- 100 -->
      <g transform="translate(307.465909 262.60625)scale(0.1 -0.1)">
       <use xlink:href="#SimHei-31"/>
       <use xlink:href="#SimHei-30" x="50"/>
       <use xlink:href="#SimHei-30" x="100"/>
      </g>
     </g>
    </g>
    <g id="xtick_8">
     <g id="line2d_8">
      <g>
       <use xlink:href="#m0c773f954c" x="359.230114" y="248.73125" style="stroke: #000000; stroke-width: 0.8"/>
      </g>
     </g>
     <g id="text_8">
      <!-- 150 -->
      <g transform="translate(351.730114 262.60625)scale(0.1 -0.1)">
       <use xlink:href="#SimHei-31"/>
       <use xlink:href="#SimHei-35" x="50"/>
       <use xlink:href="#SimHei-30" x="100"/>
      </g>
     </g>
    </g>
    <g id="xtick_9">
     <g id="line2d_9">
      <g>
       <use xlink:href="#m0c773f954c" x="403.494318" y="248.73125" style="stroke: #000000; stroke-width: 0.8"/>
      </g>
     </g>
     <g id="text_9">
      <!-- 200 -->
      <g transform="translate(395.994318 262.60625)scale(0.1 -0.1)">
       <use xlink:href="#SimHei-32"/>
       <use xlink:href="#SimHei-30" x="50"/>
       <use xlink:href="#SimHei-30" x="100"/>
      </g>
     </g>
    </g>
    <g id="text_10">
     <!-- 干扰强度 -->
     <g transform="translate(206.4375 275.864062)scale(0.1 -0.1)">
      <defs>
       <path id="SimHei-5e72" d="M 4625 4775 
Q 5050 4775 5500 4800 
L 5500 4300 
Q 5050 4325 4625 4325 
L 3475 4325 
L 3475 2525 
L 5225 2525 
Q 5700 2525 6000 2550 
L 6000 2050 
Q 5700 2075 5225 2075 
L 3475 2075 
L 3475 325 
Q 3475 -75 3500 -625 
L 2925 -625 
Q 2950 -100 2950 325 
L 2950 2075 
L 1225 2075 
Q 775 2075 400 2050 
L 400 2550 
Q 775 2525 1225 2525 
L 2950 2525 
L 2950 4325 
L 1925 4325 
Q 1450 4325 925 4300 
L 925 4800 
Q 1450 4775 1800 4775 
L 4625 4775 
z
" transform="scale(0.015625)"/>
       <path id="SimHei-6270" d="M 4575 425 
Q 4575 0 4950 0 
L 5250 0 
Q 5400 0 5450 150 
Q 5500 300 5500 575 
Q 5750 425 6025 375 
Q 5950 50 5862 -175 
Q 5775 -400 5500 -425 
L 4825 -425 
Q 4125 -425 4125 300 
L 4125 3075 
L 3875 3075 
Q 3800 1550 3375 725 
Q 2950 -100 2425 -575 
Q 2275 -375 1950 -275 
Q 2375 25 2687 487 
Q 3000 950 3187 1537 
Q 3375 2125 3400 3075 
Q 3000 3075 2650 3050 
L 2650 3500 
Q 2975 3475 3400 3475 
Q 3425 4225 3375 5125 
Q 3700 5100 3950 5075 
Q 3900 4925 3887 4550 
Q 3875 4175 3875 3475 
L 5050 3475 
Q 5575 3475 5850 3500 
L 5850 3050 
Q 5550 3075 5100 3075 
L 4575 3075 
L 4575 425 
z
M 1775 5150 
Q 1750 4750 1750 3675 
Q 2000 3675 2425 3700 
L 2425 3250 
Q 2000 3275 1750 3275 
L 1750 2275 
Q 2025 2400 2350 2575 
Q 2325 2400 2375 2125 
Q 2175 2050 1750 1825 
L 1750 0 
Q 1750 -325 1512 -450 
Q 1275 -575 825 -650 
Q 800 -350 600 -125 
Q 1275 -125 1275 100 
L 1275 1650 
Q 850 1425 575 1275 
Q 475 1525 325 1750 
Q 675 1850 1275 2100 
L 1275 3275 
Q 725 3275 450 3250 
L 450 3700 
Q 800 3675 1275 3675 
Q 1275 4675 1250 5150 
L 1775 5150 
z
M 5200 3750 
Q 4825 4300 4450 4675 
Q 4650 4800 4800 4975 
Q 5175 4550 5600 4025 
Q 5450 3950 5200 3750 
z
" transform="scale(0.015625)"/>
       <path id="SimHei-5f3a" d="M 2350 25 
Q 3100 75 3950 225 
L 3950 1200 
L 3100 1200 
L 3100 975 
L 2625 975 
Q 2650 1725 2650 2050 
L 2650 2875 
L 3950 2875 
L 3950 3500 
L 2850 3500 
Q 2875 3900 2875 4275 
Q 2875 4675 2850 5025 
L 5525 5025 
Q 5500 4675 5500 4275 
Q 5500 3900 5525 3500 
L 4400 3500 
L 4400 2875 
L 5750 2875 
Q 5725 2575 5725 2075 
Q 5725 1575 5750 1200 
L 4400 1200 
L 4400 275 
L 5250 425 
Q 5150 575 5050 750 
Q 5300 825 5475 925 
Q 5925 200 6175 -250 
Q 5925 -350 5725 -500 
Q 5625 -250 5425 100 
Q 5125 50 4225 -137 
Q 3325 -325 2600 -525 
Q 2525 -200 2350 25 
z
M 600 -25 
Q 1250 -25 1400 50 
Q 1550 125 1575 325 
L 1675 1850 
L 500 1850 
Q 550 2350 562 2762 
Q 575 3175 575 3575 
L 1800 3575 
L 1800 4550 
L 1275 4550 
Q 825 4550 425 4525 
L 425 4950 
Q 850 4925 1275 4925 
L 2275 4925 
Q 2250 4525 2250 4075 
Q 2250 3650 2275 3200 
L 1075 3200 
L 1025 2225 
L 2175 2225 
Q 2125 1775 2100 1425 
L 2025 150 
Q 1975 -250 1637 -387 
Q 1300 -525 850 -600 
Q 775 -275 600 -25 
z
M 5050 3875 
L 5050 4650 
L 3325 4650 
L 3325 3875 
L 5050 3875 
z
M 3950 1575 
L 3950 2500 
L 3100 2500 
L 3100 1575 
L 3950 1575 
z
M 5250 1575 
L 5250 2500 
L 4400 2500 
L 4400 1575 
L 5250 1575 
z
" transform="scale(0.015625)"/>
       <path id="SimHei-5ea6" d="M 1750 1675 
Q 2450 1650 2875 1650 
L 5200 1650 
Q 4975 1250 4650 850 
Q 4325 450 4025 200 
Q 4350 50 4950 -50 
Q 5550 -150 6100 -150 
Q 5950 -300 5825 -650 
Q 5100 -550 4550 -412 
Q 4000 -275 3625 -100 
Q 3100 -325 2587 -462 
Q 2075 -600 1525 -675 
Q 1450 -475 1225 -250 
Q 1675 -250 2250 -125 
Q 2825 0 3250 200 
Q 2825 550 2400 1275 
L 1750 1250 
L 1750 1675 
z
M 2975 5075 
Q 3250 5150 3475 5250 
Q 3625 4975 3775 4525 
L 4700 4525 
Q 4975 4525 5700 4550 
L 5700 4100 
Q 5000 4125 4650 4125 
L 1375 4125 
Q 1375 3000 1350 2312 
Q 1325 1625 1212 950 
Q 1100 275 725 -525 
Q 500 -375 250 -300 
Q 650 400 762 1075 
Q 875 1750 887 2800 
Q 900 3850 875 4525 
L 3200 4525 
Q 3100 4850 2975 5075 
z
M 2475 3300 
Q 2475 3700 2450 3925 
L 2975 3925 
Q 2950 3725 2950 3300 
L 4300 3300 
Q 4300 3700 4275 3950 
L 4800 3950 
Q 4775 3650 4775 3300 
Q 5325 3300 5725 3325 
L 5725 2900 
Q 5350 2925 4775 2925 
Q 4775 2250 4800 1950 
L 2450 1950 
Q 2475 2350 2475 2925 
Q 2175 2925 1600 2900 
L 1600 3325 
Q 2175 3300 2475 3300 
z
M 4300 2350 
L 4300 2925 
L 2950 2925 
L 2950 2350 
L 4300 2350 
z
M 2875 1275 
Q 3200 775 3650 425 
Q 4025 700 4425 1275 
L 2900 1275 
L 2875 1275 
z
" transform="scale(0.015625)"/>
      </defs>
      <use xlink:href="#SimHei-5e72"/>
      <use xlink:href="#SimHei-6270" x="100"/>
      <use xlink:href="#SimHei-5f3a" x="200"/>
      <use xlink:href="#SimHei-5ea6" x="300"/>
     </g>
    </g>
   </g>
   <g id="matplotlib.axis_2">
    <g id="ytick_1">
     <g id="line2d_10">
      <defs>
       <path id="meed87c6e4e" d="M 0 0 
L -3.5 0 
" style="stroke: #000000; stroke-width: 0.8"/>
      </defs>
      <g>
       <use xlink:href="#meed87c6e4e" x="31.675" y="238.627131" style="stroke: #000000; stroke-width: 0.8"/>
      </g>
     </g>
     <g id="text_11">
      <!-- 0 -->
      <g transform="translate(19.675 242.064631)scale(0.1 -0.1)">
       <use xlink:href="#SimHei-30"/>
      </g>
     </g>
    </g>
    <g id="ytick_2">
     <g id="line2d_11">
      <g>
       <use xlink:href="#meed87c6e4e" x="31.675" y="200.972733" style="stroke: #000000; stroke-width: 0.8"/>
      </g>
     </g>
     <g id="text_12">
      <!-- 2 -->
      <g transform="translate(19.675 204.410233)scale(0.1 -0.1)">
       <use xlink:href="#SimHei-32"/>
      </g>
     </g>
    </g>
    <g id="ytick_3">
     <g id="line2d_12">
      <g>
       <use xlink:href="#meed87c6e4e" x="31.675" y="163.318335" style="stroke: #000000; stroke-width: 0.8"/>
      </g>
     </g>
     <g id="text_13">
      <!-- 4 -->
      <g transform="translate(19.675 166.755835)scale(0.1 -0.1)">
       <defs>
        <path id="SimHei-34" d="M 2000 1100 
L 75 1100 
L 75 1525 
L 2100 4450 
L 2475 4450 
L 2475 1525 
L 3075 1525 
L 3075 1100 
L 2475 1100 
L 2475 150 
L 2000 150 
L 2000 1100 
z
M 2000 1525 
L 2000 3500 
L 600 1525 
L 2000 1525 
z
" transform="scale(0.015625)"/>
       </defs>
       <use xlink:href="#SimHei-34"/>
      </g>
     </g>
    </g>
    <g id="ytick_4">
     <g id="line2d_13">
      <g>
       <use xlink:href="#meed87c6e4e" x="31.675" y="125.663938" style="stroke: #000000; stroke-width: 0.8"/>
      </g>
     </g>
     <g id="text_14">
      <!-- 6 -->
      <g transform="translate(19.675 129.101438)scale(0.1 -0.1)">
       <defs>
        <path id="SimHei-36" d="M 250 1612 
Q 275 1975 387 2225 
Q 500 2475 725 2850 
L 1750 4450 
L 2325 4450 
L 1275 2800 
Q 1950 2975 2350 2750 
Q 2750 2525 2887 2237 
Q 3025 1950 3037 1612 
Q 3050 1275 2937 950 
Q 2825 625 2537 362 
Q 2250 100 1737 75 
Q 1225 50 862 262 
Q 500 475 362 862 
Q 225 1250 250 1612 
z
M 1025 787 
Q 1250 550 1625 525 
Q 2000 500 2250 775 
Q 2500 1050 2500 1575 
Q 2500 2100 2187 2300 
Q 1875 2500 1487 2450 
Q 1100 2400 925 2075 
Q 750 1750 775 1387 
Q 800 1025 1025 787 
z
" transform="scale(0.015625)"/>
       </defs>
       <use xlink:href="#SimHei-36"/>
      </g>
     </g>
    </g>
    <g id="ytick_5">
     <g id="line2d_14">
      <g>
       <use xlink:href="#meed87c6e4e" x="31.675" y="88.00954" style="stroke: #000000; stroke-width: 0.8"/>
      </g>
     </g>
     <g id="text_15">
      <!-- 8 -->
      <g transform="translate(19.675 91.44704)scale(0.1 -0.1)">
       <defs>
        <path id="SimHei-38" d="M 175 1375 
Q 175 1675 325 1962 
Q 475 2250 825 2425 
Q 525 2600 425 2812 
Q 325 3025 312 3300 
Q 300 3575 387 3775 
Q 475 3975 650 4150 
Q 825 4325 1037 4387 
Q 1250 4450 1500 4450 
Q 1750 4450 1950 4400 
Q 2150 4350 2375 4187 
Q 2600 4025 2700 3725 
Q 2800 3425 2687 3025 
Q 2575 2625 2100 2400 
Q 2525 2275 2700 2012 
Q 2875 1750 2875 1375 
Q 2875 1000 2762 775 
Q 2650 550 2512 400 
Q 2375 250 2137 162 
Q 1900 75 1537 75 
Q 1175 75 912 162 
Q 650 250 475 425 
Q 300 600 237 837 
Q 175 1075 175 1375 
z
M 687 1400 
Q 675 1100 787 875 
Q 900 650 1200 587 
Q 1500 525 1825 600 
Q 2150 675 2275 950 
Q 2400 1225 2362 1500 
Q 2325 1775 2050 1962 
Q 1775 2150 1450 2125 
Q 1125 2100 912 1900 
Q 700 1700 687 1400 
z
M 775 3350 
Q 775 3100 950 2875 
Q 1125 2650 1500 2650 
Q 1875 2650 2062 2875 
Q 2250 3100 2237 3412 
Q 2225 3725 2012 3875 
Q 1800 4025 1437 4000 
Q 1075 3975 925 3787 
Q 775 3600 775 3350 
z
" transform="scale(0.015625)"/>
       </defs>
       <use xlink:href="#SimHei-38"/>
      </g>
     </g>
    </g>
    <g id="ytick_6">
     <g id="line2d_15">
      <g>
       <use xlink:href="#meed87c6e4e" x="31.675" y="50.355143" style="stroke: #000000; stroke-width: 0.8"/>
      </g>
     </g>
     <g id="text_16">
      <!-- 10 -->
      <g transform="translate(14.675 53.792643)scale(0.1 -0.1)">
       <use xlink:href="#SimHei-31"/>
       <use xlink:href="#SimHei-30" x="50"/>
      </g>
     </g>
    </g>
    <g id="text_17">
     <!-- avg of abs(dis2-dis1)/(dis1+1) -->
     <g transform="translate(11.925 62.585938)rotate(-270)scale(0.1 -0.1)">
      <defs>
       <path id="SimHei-61" d="M 2875 125 
L 2275 125 
Q 2225 175 2200 262 
Q 2175 350 2175 475 
Q 2000 275 1750 175 
Q 1500 75 1225 75 
Q 825 75 550 275 
Q 275 475 275 850 
Q 275 1225 525 1450 
Q 775 1675 1300 1750 
Q 1650 1800 1912 1875 
Q 2175 1950 2175 2075 
Q 2175 2225 2062 2375 
Q 1950 2525 1575 2525 
Q 1275 2525 1137 2412 
Q 1000 2300 950 2100 
L 400 2100 
Q 450 2500 762 2737 
Q 1075 2975 1575 2975 
Q 2125 2975 2400 2725 
Q 2675 2475 2675 2025 
L 2675 650 
Q 2675 500 2725 375 
Q 2775 250 2875 125 
z
M 2175 1050 
L 2175 1550 
Q 2025 1500 1887 1462 
Q 1750 1425 1425 1375 
Q 1050 1325 937 1200 
Q 825 1075 825 900 
Q 825 750 937 637 
Q 1050 525 1275 525 
Q 1500 525 1762 650 
Q 2025 775 2175 1050 
z
" transform="scale(0.015625)"/>
       <path id="SimHei-76" d="M 2875 2925 
L 1825 75 
L 1275 75 
L 225 2925 
L 750 2925 
L 1525 750 
L 1575 750 
L 2350 2925 
L 2875 2925 
z
" transform="scale(0.015625)"/>
       <path id="SimHei-67" d="M 2975 2500 
Q 2800 2550 2637 2562 
Q 2475 2575 2300 2525 
Q 2375 2450 2425 2337 
Q 2475 2225 2475 2000 
Q 2475 1575 2187 1300 
Q 1900 1025 1475 1025 
Q 1375 1025 1212 1062 
Q 1050 1100 950 1150 
Q 875 1100 850 1050 
Q 825 1000 825 925 
Q 825 800 1000 737 
Q 1175 675 1625 675 
Q 2350 675 2612 475 
Q 2875 275 2875 -25 
Q 2875 -425 2487 -612 
Q 2100 -800 1575 -800 
Q 900 -800 575 -625 
Q 250 -450 250 -150 
Q 250 0 375 150 
Q 500 300 700 400 
Q 550 475 462 587 
Q 375 700 375 875 
Q 375 1025 487 1137 
Q 600 1250 750 1325 
Q 625 1450 550 1625 
Q 475 1800 475 2000 
Q 475 2425 762 2700 
Q 1050 2975 1475 2975 
Q 1700 2975 1862 2912 
Q 2025 2850 2150 2725 
Q 2350 2875 2550 2937 
Q 2750 3000 2975 2975 
L 2975 2500 
z
M 1975 2000 
Q 1975 2250 1850 2400 
Q 1725 2550 1475 2550 
Q 1225 2550 1100 2400 
Q 975 2250 975 2000 
Q 975 1750 1100 1600 
Q 1225 1450 1475 1450 
Q 1725 1450 1850 1600 
Q 1975 1750 1975 2000 
z
M 2400 -75 
Q 2400 25 2287 125 
Q 2175 225 1725 225 
Q 1625 225 1450 237 
Q 1275 250 1050 275 
Q 850 200 775 100 
Q 700 0 700 -100 
Q 700 -250 900 -350 
Q 1100 -450 1600 -450 
Q 2025 -450 2212 -337 
Q 2400 -225 2400 -75 
z
" transform="scale(0.015625)"/>
       <path id="SimHei-20" transform="scale(0.015625)"/>
       <path id="SimHei-6f" d="M 2925 1525 
Q 2925 875 2525 475 
Q 2125 75 1575 75 
Q 1025 75 625 475 
Q 225 875 225 1525 
Q 225 2175 625 2575 
Q 1025 2975 1575 2975 
Q 2125 2975 2525 2575 
Q 2925 2175 2925 1525 
z
M 2375 1525 
Q 2375 2025 2125 2275 
Q 1875 2525 1575 2525 
Q 1275 2525 1025 2275 
Q 775 2025 775 1525 
Q 775 1025 1025 775 
Q 1275 525 1575 525 
Q 1875 525 2125 775 
Q 2375 1025 2375 1525 
z
" transform="scale(0.015625)"/>
       <path id="SimHei-66" d="M 2850 3825 
Q 2725 3900 2550 3950 
Q 2375 4000 2100 4000 
Q 1825 4000 1725 3862 
Q 1625 3725 1625 3525 
L 1625 2925 
L 2650 2925 
L 2650 2525 
L 1625 2525 
L 1625 125 
L 1125 125 
L 1125 2525 
L 275 2525 
L 275 2925 
L 1125 2925 
L 1125 3500 
Q 1125 3950 1400 4200 
Q 1675 4450 2125 4450 
Q 2400 4450 2562 4412 
Q 2725 4375 2850 4325 
L 2850 3825 
z
" transform="scale(0.015625)"/>
       <path id="SimHei-62" d="M 2825 1525 
Q 2825 800 2475 437 
Q 2125 75 1625 75 
Q 1350 75 1150 175 
Q 950 275 800 500 
L 800 125 
L 300 125 
L 300 4400 
L 800 4400 
L 800 2550 
Q 950 2775 1150 2887 
Q 1350 3000 1625 3000 
Q 2125 3000 2475 2625 
Q 2825 2250 2825 1525 
z
M 2275 1525 
Q 2275 2000 2087 2275 
Q 1900 2550 1525 2550 
Q 1225 2550 1012 2275 
Q 800 2000 800 1525 
Q 800 1050 1012 787 
Q 1225 525 1525 525 
Q 1900 525 2087 787 
Q 2275 1050 2275 1525 
z
" transform="scale(0.015625)"/>
       <path id="SimHei-73" d="M 2750 900 
Q 2750 500 2437 287 
Q 2125 75 1650 75 
Q 1050 75 725 312 
Q 400 550 400 1000 
L 900 1000 
Q 900 700 1112 600 
Q 1325 500 1625 500 
Q 1925 500 2075 612 
Q 2225 725 2225 900 
Q 2225 1025 2100 1150 
Q 1975 1275 1475 1350 
Q 900 1425 687 1637 
Q 475 1850 475 2200 
Q 475 2500 762 2737 
Q 1050 2975 1600 2975 
Q 2100 2975 2387 2750 
Q 2675 2525 2675 2150 
L 2175 2150 
Q 2175 2375 2012 2462 
Q 1850 2550 1600 2550 
Q 1275 2550 1137 2437 
Q 1000 2325 1000 2175 
Q 1000 2000 1125 1900 
Q 1250 1800 1650 1750 
Q 2300 1650 2525 1437 
Q 2750 1225 2750 900 
z
" transform="scale(0.015625)"/>
       <path id="SimHei-28" d="M 2975 -200 
L 2700 -475 
Q 2075 125 1762 775 
Q 1450 1425 1450 2250 
Q 1450 3075 1762 3725 
Q 2075 4375 2700 5000 
L 2975 4725 
Q 2400 4175 2112 3587 
Q 1825 3000 1825 2250 
Q 1825 1500 2112 912 
Q 2400 325 2975 -200 
z
" transform="scale(0.015625)"/>
       <path id="SimHei-64" d="M 2750 125 
L 2250 125 
L 2250 500 
Q 2100 275 1900 175 
Q 1700 75 1425 75 
Q 925 75 575 437 
Q 225 800 225 1525 
Q 225 2250 575 2625 
Q 925 3000 1425 3000 
Q 1700 3000 1900 2887 
Q 2100 2775 2250 2550 
L 2250 4400 
L 2750 4400 
L 2750 125 
z
M 2250 1525 
Q 2250 2000 2037 2275 
Q 1825 2550 1525 2550 
Q 1150 2550 962 2275 
Q 775 2000 775 1525 
Q 775 1050 962 787 
Q 1150 525 1525 525 
Q 1825 525 2037 787 
Q 2250 1050 2250 1525 
z
" transform="scale(0.015625)"/>
       <path id="SimHei-69" d="M 1800 3725 
L 1300 3725 
L 1300 4375 
L 1800 4375 
L 1800 3725 
z
M 1800 125 
L 1300 125 
L 1300 2925 
L 1800 2925 
L 1800 125 
z
" transform="scale(0.015625)"/>
       <path id="SimHei-29" d="M 1675 2250 
Q 1675 1425 1362 775 
Q 1050 125 425 -475 
L 150 -200 
Q 725 325 1012 912 
Q 1300 1500 1300 2250 
Q 1300 3000 1012 3587 
Q 725 4175 150 4725 
L 425 5000 
Q 1050 4375 1362 3725 
Q 1675 3075 1675 2250 
z
" transform="scale(0.015625)"/>
       <path id="SimHei-2f" d="M 3000 4550 
L 350 -175 
L 100 -25 
L 2750 4700 
L 3000 4550 
z
" transform="scale(0.015625)"/>
       <path id="SimHei-2b" d="M 3000 2125 
L 1775 2125 
L 1775 900 
L 1350 900 
L 1350 2125 
L 125 2125 
L 125 2525 
L 1350 2525 
L 1350 3750 
L 1775 3750 
L 1775 2525 
L 3000 2525 
L 3000 2125 
z
" transform="scale(0.015625)"/>
      </defs>
      <use xlink:href="#SimHei-61"/>
      <use xlink:href="#SimHei-76" x="50"/>
      <use xlink:href="#SimHei-67" x="100"/>
      <use xlink:href="#SimHei-20" x="150"/>
      <use xlink:href="#SimHei-6f" x="200"/>
      <use xlink:href="#SimHei-66" x="250"/>
      <use xlink:href="#SimHei-20" x="300"/>
      <use xlink:href="#SimHei-61" x="350"/>
      <use xlink:href="#SimHei-62" x="400"/>
      <use xlink:href="#SimHei-73" x="450"/>
      <use xlink:href="#SimHei-28" x="500"/>
      <use xlink:href="#SimHei-64" x="550"/>
      <use xlink:href="#SimHei-69" x="600"/>
      <use xlink:href="#SimHei-73" x="650"/>
      <use xlink:href="#SimHei-32" x="700"/>
      <use xlink:href="#SimHei-2d" x="750"/>
      <use xlink:href="#SimHei-64" x="800"/>
      <use xlink:href="#SimHei-69" x="850"/>
      <use xlink:href="#SimHei-73" x="900"/>
      <use xlink:href="#SimHei-31" x="950"/>
      <use xlink:href="#SimHei-29" x="1000"/>
      <use xlink:href="#SimHei-2f" x="1050"/>
      <use xlink:href="#SimHei-28" x="1100"/>
      <use xlink:href="#SimHei-64" x="1150"/>
      <use xlink:href="#SimHei-69" x="1200"/>
      <use xlink:href="#SimHei-73" x="1250"/>
      <use xlink:href="#SimHei-31" x="1300"/>
      <use xlink:href="#SimHei-2b" x="1350"/>
      <use xlink:href="#SimHei-31" x="1400"/>
      <use xlink:href="#SimHei-29" x="1450"/>
     </g>
    </g>
   </g>
   <g id="line2d_16">
    <path d="M 49.380682 107.404376 
L 50.265966 108.331301 
L 52.036534 111.828136 
L 52.921818 110.567857 
L 53.807102 110.183097 
L 54.692386 107.494725 
L 55.57767 114.85944 
L 56.462955 117.852727 
L 57.348239 114.324022 
L 58.233523 113.936919 
L 59.118807 114.842637 
L 60.004091 116.677816 
L 60.889375 120.405734 
L 61.774659 117.969998 
L 62.659943 116.522562 
L 63.545227 117.754144 
L 64.430511 118.533615 
L 65.315795 122.494652 
L 66.20108 122.116299 
L 67.086364 120.259608 
L 67.971648 123.232678 
L 68.856932 124.262764 
L 69.742216 127.087073 
L 71.512784 124.271052 
L 72.398068 127.548379 
L 73.283352 130.078215 
L 74.168636 129.974828 
L 75.05392 127.342763 
L 75.939205 130.404788 
L 76.824489 132.540574 
L 77.709773 132.194863 
L 78.595057 135.057428 
L 79.480341 131.064031 
L 80.365625 130.979011 
L 81.250909 130.500616 
L 82.136193 131.597969 
L 83.021477 136.713354 
L 83.906761 134.777152 
L 84.792045 134.308043 
L 85.67733 132.867434 
L 86.562614 139.372221 
L 87.447898 141.649145 
L 88.333182 141.024235 
L 89.218466 139.946217 
L 90.10375 138.638345 
L 90.989034 142.362652 
L 91.874318 144.322289 
L 92.759602 144.490447 
L 93.644886 147.123561 
L 94.53017 145.073834 
L 95.415455 146.360961 
L 96.300739 145.963337 
L 97.186023 147.758116 
L 98.071307 146.900796 
L 98.956591 147.43032 
L 99.841875 148.912263 
L 100.727159 148.160028 
L 101.612443 149.182883 
L 102.497727 153.506716 
L 103.383011 150.089762 
L 104.268295 149.024655 
L 105.15358 152.430638 
L 106.038864 152.751943 
L 106.924148 157.579005 
L 107.809432 157.829227 
L 108.694716 153.968983 
L 109.58 153.142673 
L 110.465284 156.702217 
L 111.350568 156.421619 
L 112.235852 160.368173 
L 113.121136 157.571254 
L 114.00642 161.092475 
L 114.891705 161.218001 
L 115.776989 164.412415 
L 116.662273 164.285921 
L 117.547557 163.803772 
L 118.432841 164.7541 
L 119.318125 164.629957 
L 120.203409 162.177316 
L 121.088693 164.956543 
L 123.744545 167.106995 
L 124.62983 171.907326 
L 125.515114 172.456921 
L 126.400398 171.147483 
L 127.285682 170.167003 
L 128.170966 171.636375 
L 129.05625 173.359731 
L 129.941534 173.046396 
L 130.826818 174.204844 
L 131.712102 175.002526 
L 132.597386 173.043859 
L 133.48267 176.7697 
L 134.367955 176.874735 
L 135.253239 177.962898 
L 136.138523 178.298384 
L 137.023807 178.352854 
L 137.909091 179.828113 
L 138.794375 181.73016 
L 139.679659 179.973041 
L 140.564943 181.771587 
L 141.450227 183.060242 
L 142.335511 184.119649 
L 143.220795 183.564848 
L 144.10608 185.104277 
L 144.991364 188.207615 
L 145.876648 185.025932 
L 146.761932 186.55578 
L 147.647216 188.638455 
L 148.5325 187.550984 
L 149.417784 189.464261 
L 150.303068 189.938202 
L 152.073636 189.321571 
L 152.95892 190.574748 
L 153.844205 192.506022 
L 154.729489 191.871903 
L 155.614773 192.79273 
L 156.500057 193.319437 
L 157.385341 194.727533 
L 158.270625 195.804553 
L 159.155909 196.232197 
L 160.041193 196.428926 
L 160.926477 197.752192 
L 161.811761 199.951272 
L 162.697045 198.161858 
L 163.58233 200.797796 
L 164.467614 199.369187 
L 165.352898 202.128602 
L 166.238182 202.977388 
L 167.123466 202.603756 
L 168.00875 201.338123 
L 168.894034 205.246396 
L 169.779318 204.971556 
L 170.664602 204.308902 
L 171.549886 206.881856 
L 172.43517 205.312629 
L 173.320455 206.61614 
L 174.205739 208.423048 
L 175.091023 209.033951 
L 175.976307 208.866569 
L 176.861591 209.553985 
L 177.746875 210.585892 
L 178.632159 210.927338 
L 179.517443 212.601888 
L 180.402727 212.772046 
L 181.288011 213.276398 
L 182.173295 214.761315 
L 183.05858 214.202847 
L 183.943864 214.927261 
L 184.829148 216.783383 
L 185.714432 216.468514 
L 186.599716 216.363306 
L 187.485 218.634892 
L 188.370284 218.340422 
L 189.255568 219.523762 
L 190.140852 219.551862 
L 191.026136 220.155892 
L 191.91142 221.038683 
L 192.796705 221.193021 
L 193.681989 222.148135 
L 194.567273 222.573353 
L 195.452557 223.919079 
L 197.223125 225.230537 
L 198.108409 226.390298 
L 199.878977 226.930488 
L 200.764261 227.17515 
L 201.649545 227.639376 
L 202.53483 228.779229 
L 204.305398 229.809926 
L 205.190682 230.408429 
L 206.075966 230.670822 
L 206.96125 231.162436 
L 207.846534 231.858094 
L 208.731818 232.300619 
L 209.617102 233.073585 
L 210.502386 233.385717 
L 211.38767 233.981072 
L 212.272955 234.27617 
L 213.158239 234.834155 
L 214.043523 235.105932 
L 218.469943 237.060215 
L 222.896364 238.256575 
L 225.552216 238.567955 
L 226.4375 238.627131 
L 229.093352 238.395011 
L 232.634489 237.670296 
L 234.405057 237.015621 
L 236.175625 236.410867 
L 242.372614 233.311003 
L 243.257898 232.649163 
L 247.684318 230.321882 
L 248.569602 229.155251 
L 249.454886 228.945393 
L 250.34017 228.311189 
L 251.225455 228.149232 
L 252.110739 227.851516 
L 252.996023 226.825043 
L 254.766591 225.198789 
L 256.537159 224.073671 
L 257.422443 223.898725 
L 258.307727 223.161265 
L 259.193011 221.912616 
L 260.078295 221.864432 
L 260.96358 220.875672 
L 261.848864 220.970159 
L 262.734148 219.941908 
L 263.619432 219.681298 
L 264.504716 219.241654 
L 265.39 217.328154 
L 266.275284 217.307318 
L 267.160568 216.575833 
L 268.045852 216.197726 
L 268.931136 214.642382 
L 269.81642 215.740242 
L 270.701705 214.082265 
L 271.586989 213.467749 
L 272.472273 212.38905 
L 273.357557 212.379004 
L 274.242841 211.277957 
L 275.128125 211.233554 
L 276.013409 209.080324 
L 276.898693 209.061335 
L 277.783977 209.634481 
L 278.669261 207.727696 
L 281.325114 206.648189 
L 282.210398 206.307884 
L 283.095682 204.211095 
L 283.980966 203.794903 
L 284.86625 204.166885 
L 285.751534 201.851762 
L 286.636818 202.292065 
L 287.522102 202.9302 
L 288.407386 199.857435 
L 289.29267 198.385671 
L 290.177955 199.73465 
L 291.063239 197.6828 
L 291.948523 198.652637 
L 292.833807 197.507097 
L 293.719091 196.150899 
L 294.604375 195.890951 
L 295.489659 193.972914 
L 296.374943 195.613487 
L 297.260227 193.23213 
L 298.145511 194.641094 
L 299.030795 193.308598 
L 299.91608 190.765014 
L 300.801364 190.693378 
L 301.686648 188.09783 
L 302.571932 189.370792 
L 303.457216 186.958912 
L 304.3425 188.834816 
L 305.227784 188.173932 
L 306.113068 186.176853 
L 306.998352 184.642028 
L 307.883636 186.484356 
L 308.76892 185.287382 
L 309.654205 181.496163 
L 310.539489 184.585921 
L 311.424773 182.307122 
L 313.195341 180.763998 
L 314.080625 181.075238 
L 314.965909 179.34052 
L 315.851193 179.330702 
L 316.736477 176.236013 
L 318.507045 177.875999 
L 319.39233 175.988593 
L 320.277614 175.064519 
L 321.162898 173.030986 
L 322.048182 171.79001 
L 322.933466 172.787111 
L 323.81875 170.621652 
L 324.704034 174.508928 
L 325.589318 169.986055 
L 326.474602 171.066022 
L 327.359886 170.129438 
L 328.24517 167.935364 
L 329.130455 169.911559 
L 330.015739 168.22695 
L 330.901023 165.252792 
L 331.786307 163.497938 
L 332.671591 164.898851 
L 333.556875 163.619915 
L 334.442159 165.322921 
L 335.327443 164.413446 
L 336.212727 163.146021 
L 337.098011 162.549234 
L 337.983295 160.601799 
L 338.86858 161.261482 
L 339.753864 162.905155 
L 340.639148 160.071446 
L 341.524432 155.810173 
L 342.409716 154.581475 
L 343.295 154.508008 
L 344.180284 155.267343 
L 345.065568 156.334165 
L 345.950852 153.934095 
L 346.836136 153.011365 
L 347.72142 150.209612 
L 348.606705 150.760405 
L 349.491989 151.102001 
L 350.377273 151.027754 
L 351.262557 149.973684 
L 352.147841 152.109228 
L 353.033125 148.979886 
L 353.918409 146.448044 
L 354.803693 148.767775 
L 355.688977 147.582553 
L 356.574261 144.725194 
L 357.459545 145.477841 
L 358.34483 144.843587 
L 359.230114 148.858387 
L 360.115398 146.491984 
L 361.000682 141.004325 
L 361.885966 138.054377 
L 362.77125 139.188681 
L 363.656534 138.94358 
L 364.541818 139.711487 
L 365.427102 140.215526 
L 366.312386 138.348001 
L 367.19767 138.795429 
L 368.082955 138.284457 
L 368.968239 134.143568 
L 369.853523 132.932987 
L 370.738807 135.218028 
L 371.624091 133.164549 
L 372.509375 131.843131 
L 373.394659 130.189684 
L 374.279943 135.733797 
L 375.165227 132.491261 
L 376.050511 126.864614 
L 376.935795 131.713423 
L 377.82108 127.640454 
L 378.706364 128.130127 
L 379.591648 130.409848 
L 380.476932 130.251681 
L 381.362216 126.164063 
L 382.2475 125.577664 
L 383.132784 124.64105 
L 384.018068 123.491896 
L 384.903352 123.846914 
L 385.788636 118.9322 
L 386.67392 125.412385 
L 387.559205 121.481577 
L 388.444489 121.72578 
L 389.329773 119.801409 
L 390.215057 114.611866 
L 391.100341 118.683813 
L 391.985625 117.034216 
L 392.870909 119.491361 
L 393.756193 120.290611 
L 394.641477 113.022024 
L 395.526761 110.270501 
L 396.412045 114.781516 
L 397.29733 115.572563 
L 398.182614 111.602407 
L 399.067898 109.137187 
L 399.953182 113.56491 
L 400.838466 110.903423 
L 401.72375 109.779298 
L 402.609034 113.136574 
L 403.494318 109.243135 
L 403.494318 109.243135 
" clip-path="url(#pdcc9b2a46c)" style="fill: none; stroke: #1f77b4; stroke-width: 2; stroke-linecap: square"/>
   </g>
   <g id="line2d_17">
    <path d="M 49.380682 238.627131 
L 403.494318 238.627131 
L 403.494318 238.627131 
" clip-path="url(#pdcc9b2a46c)" style="fill: none; stroke: #ff7f0e; stroke-width: 3; stroke-linecap: square"/>
   </g>
   <g id="line2d_18">
    <path d="M 49.380682 87.537168 
L 50.265966 88.296332 
L 51.15125 90.340543 
L 52.036534 92.819542 
L 52.921818 91.386612 
L 53.807102 90.83677 
L 54.692386 87.855975 
L 55.57767 96.309673 
L 56.462955 99.686468 
L 57.348239 95.618611 
L 58.233523 95.014366 
L 59.118807 96.128224 
L 60.004091 98.210371 
L 60.889375 102.735024 
L 61.774659 99.765032 
L 62.659943 98.005446 
L 63.545227 99.655566 
L 64.430511 100.486869 
L 65.315795 105.045788 
L 66.20108 104.444944 
L 67.086364 102.223445 
L 67.971648 105.999364 
L 68.856932 106.862524 
L 69.742216 110.215734 
L 70.6275 108.925008 
L 71.512784 107.026146 
L 73.283352 113.85841 
L 74.168636 113.386037 
L 75.05392 110.515368 
L 75.939205 113.796763 
L 76.824489 116.236653 
L 77.709773 115.894456 
L 78.595057 119.163607 
L 79.480341 114.952669 
L 80.365625 114.698923 
L 81.250909 114.18532 
L 82.136193 115.242824 
L 83.021477 121.2941 
L 83.906761 118.971842 
L 84.792045 118.577146 
L 85.67733 116.866521 
L 86.562614 123.985043 
L 87.447898 126.964437 
L 88.333182 126.028525 
L 89.218466 124.915553 
L 90.10375 123.280714 
L 90.989034 127.929627 
L 91.874318 129.826118 
L 92.759602 130.121458 
L 93.644886 133.002781 
L 94.53017 130.948779 
L 95.415455 132.31934 
L 96.300739 131.849494 
L 97.186023 133.950419 
L 98.071307 133.01721 
L 98.956591 133.53721 
L 99.841875 135.099461 
L 100.727159 134.472978 
L 101.612443 135.507463 
L 102.497727 140.470362 
L 103.383011 136.649769 
L 104.268295 135.450452 
L 105.15358 139.347445 
L 106.038864 139.7569 
L 106.924148 145.326841 
L 107.809432 145.357849 
L 108.694716 141.057022 
L 109.58 140.147679 
L 110.465284 144.295219 
L 111.350568 143.887203 
L 112.235852 148.451045 
L 113.121136 145.148327 
L 114.00642 149.214493 
L 114.891705 149.554089 
L 115.776989 153.041685 
L 116.662273 152.744942 
L 117.547557 152.2615 
L 118.432841 153.533017 
L 119.318125 153.304965 
L 120.203409 150.507069 
L 121.088693 153.686064 
L 122.859261 155.194721 
L 123.744545 156.288409 
L 124.62983 161.66589 
L 125.515114 162.258643 
L 126.400398 160.728644 
L 127.285682 159.638454 
L 128.170966 161.307338 
L 129.05625 163.315568 
L 129.941534 163.013046 
L 130.826818 164.258816 
L 131.712102 165.130304 
L 132.597386 162.914744 
L 133.48267 167.210435 
L 134.367955 167.380246 
L 135.253239 168.646225 
L 136.138523 168.95496 
L 137.023807 169.06299 
L 138.794375 172.98372 
L 139.679659 170.962312 
L 140.564943 173.14137 
L 141.450227 174.547322 
L 142.335511 175.622434 
L 143.220795 175.127585 
L 144.10608 176.951992 
L 144.991364 180.255132 
L 145.876648 176.790171 
L 146.761932 178.565487 
L 147.647216 180.846309 
L 148.5325 179.746028 
L 149.417784 181.912538 
L 150.303068 182.283034 
L 152.073636 181.672889 
L 152.95892 183.008509 
L 153.844205 185.33769 
L 154.729489 184.607354 
L 155.614773 185.828579 
L 156.500057 186.239314 
L 158.270625 189.171058 
L 159.155909 189.679325 
L 160.041193 189.854631 
L 160.926477 191.543502 
L 161.811761 193.897627 
L 162.697045 192.017561 
L 163.58233 194.914713 
L 164.467614 193.424491 
L 165.352898 196.542782 
L 166.238182 197.43635 
L 167.123466 197.042757 
L 168.00875 195.468304 
L 168.894034 200.129562 
L 169.779318 199.706633 
L 170.664602 199.007825 
L 171.549886 202.049113 
L 172.43517 200.196303 
L 173.320455 201.679475 
L 174.205739 203.748479 
L 175.091023 204.489961 
L 175.976307 204.315549 
L 176.861591 205.132322 
L 177.746875 206.204676 
L 178.632159 206.697525 
L 179.517443 208.622863 
L 180.402727 208.808611 
L 181.288011 209.331792 
L 182.173295 211.088641 
L 183.05858 210.443537 
L 183.943864 211.355834 
L 184.829148 213.459454 
L 185.714432 213.085884 
L 186.599716 212.995838 
L 187.485 215.617716 
L 188.370284 215.225942 
L 189.255568 216.635368 
L 190.140852 216.660132 
L 191.026136 217.411196 
L 191.91142 218.37865 
L 192.796705 218.554298 
L 193.681989 219.69406 
L 194.567273 220.177977 
L 195.452557 221.765026 
L 197.223125 223.222704 
L 198.108409 224.650445 
L 198.993693 224.992494 
L 200.764261 225.48319 
L 201.649545 226.081134 
L 202.53483 227.345119 
L 205.190682 229.276644 
L 206.075966 229.572677 
L 206.96125 230.180094 
L 207.846534 231.01744 
L 208.731818 231.481859 
L 209.617102 232.406851 
L 210.502386 232.741825 
L 211.38767 233.429744 
L 212.272955 233.75191 
L 213.158239 234.411689 
L 214.043523 234.725089 
L 218.469943 236.900147 
L 222.896364 238.216667 
L 225.552216 238.550261 
L 226.4375 238.627131 
L 229.093352 238.348309 
L 231.749205 237.77165 
L 233.519773 237.285689 
L 235.290341 236.50058 
L 236.175625 236.159501 
L 242.372614 232.686639 
L 243.257898 231.937064 
L 245.91375 230.204928 
L 246.799034 229.825099 
L 247.684318 229.16109 
L 248.569602 227.87342 
L 249.454886 227.606996 
L 250.34017 226.849593 
L 251.225455 226.689614 
L 252.110739 226.288555 
L 252.996023 225.123313 
L 254.766591 223.277132 
L 256.537159 221.882002 
L 257.422443 221.732988 
L 258.307727 220.871751 
L 259.193011 219.406268 
L 260.078295 219.299714 
L 260.96358 218.291913 
L 261.848864 218.285604 
L 262.734148 217.121783 
L 263.619432 216.794331 
L 264.504716 216.326316 
L 265.39 214.184558 
L 266.275284 214.034859 
L 267.160568 213.175606 
L 268.045852 212.854814 
L 268.931136 210.985307 
L 269.81642 212.254602 
L 270.701705 210.282461 
L 271.586989 209.527003 
L 272.472273 208.349248 
L 273.357557 208.363714 
L 274.242841 207.109334 
L 275.128125 206.991503 
L 276.013409 204.537003 
L 276.898693 204.4691 
L 277.783977 205.176555 
L 278.669261 202.999934 
L 279.554545 202.364879 
L 281.325114 201.660633 
L 282.210398 201.334353 
L 283.095682 198.847468 
L 283.980966 198.417212 
L 284.86625 198.963783 
L 285.751534 196.071739 
L 287.522102 197.368272 
L 288.407386 193.792453 
L 289.29267 192.206369 
L 290.177955 193.763669 
L 291.063239 191.379752 
L 291.948523 192.453649 
L 292.833807 191.240359 
L 293.719091 189.586326 
L 294.604375 189.321202 
L 295.489659 187.164704 
L 296.374943 189.038056 
L 297.260227 186.257974 
L 298.145511 187.870713 
L 299.030795 186.276846 
L 299.91608 183.340546 
L 300.801364 183.186668 
L 301.686648 180.333067 
L 302.571932 181.775251 
L 303.457216 179.071767 
L 304.3425 181.184061 
L 305.227784 180.241699 
L 306.113068 178.014996 
L 306.998352 176.43712 
L 307.883636 178.270642 
L 308.76892 177.092616 
L 309.654205 172.717957 
L 310.539489 176.319143 
L 311.424773 173.739227 
L 312.310057 172.896059 
L 313.195341 171.824641 
L 314.080625 172.20759 
L 314.965909 170.150862 
L 315.851193 170.209654 
L 316.736477 166.585899 
L 318.507045 168.51933 
L 319.39233 166.351295 
L 320.277614 165.210203 
L 321.162898 162.95611 
L 322.048182 161.36438 
L 322.933466 162.69664 
L 323.81875 160.16527 
L 324.704034 164.579354 
L 325.589318 159.48848 
L 326.474602 160.792982 
L 327.359886 159.673455 
L 328.24517 157.061172 
L 329.130455 159.297354 
L 330.015739 157.505847 
L 330.901023 153.866262 
L 331.786307 152.098036 
L 332.671591 153.644133 
L 333.556875 152.168926 
L 334.442159 154.16924 
L 335.327443 153.04998 
L 336.212727 151.7094 
L 337.098011 150.994826 
L 337.983295 148.50137 
L 338.86858 149.522705 
L 339.753864 151.321772 
L 340.639148 147.93295 
L 341.524432 142.941259 
L 342.409716 141.904618 
L 343.295 141.770134 
L 344.180284 142.484233 
L 345.065568 143.782231 
L 345.950852 141.134534 
L 346.836136 139.948413 
L 347.72142 136.815287 
L 348.606705 137.601667 
L 350.377273 137.595663 
L 351.262557 136.35605 
L 352.147841 138.89001 
L 353.033125 135.29548 
L 353.918409 132.42662 
L 354.803693 135.142992 
L 355.688977 133.866104 
L 356.574261 130.429036 
L 357.459545 131.397776 
L 358.34483 130.527996 
L 359.230114 135.197337 
L 360.115398 132.371119 
L 361.000682 126.296625 
L 361.885966 122.682586 
L 362.77125 124.246239 
L 363.656534 123.773009 
L 364.541818 124.712877 
L 365.427102 125.1571 
L 366.312386 123.048582 
L 367.19767 123.548075 
L 368.082955 123.20221 
L 368.968239 118.412074 
L 369.853523 116.886216 
L 370.738807 119.559611 
L 371.624091 117.440033 
L 373.394659 113.870457 
L 374.279943 120.089014 
L 375.165227 116.56007 
L 376.050511 110.051224 
L 376.935795 115.355974 
L 377.82108 110.889311 
L 378.706364 111.401723 
L 379.591648 114.211653 
L 380.476932 113.812799 
L 381.362216 109.281875 
L 382.2475 108.506442 
L 383.132784 107.379687 
L 384.018068 105.867075 
L 384.903352 106.508551 
L 385.788636 100.809669 
L 386.67392 108.258701 
L 387.559205 103.600693 
L 388.444489 104.128747 
L 389.329773 101.848427 
L 390.215057 95.956598 
L 391.100341 100.775563 
L 391.985625 98.669047 
L 392.870909 101.283304 
L 393.756193 102.569423 
L 394.641477 94.12963 
L 395.526761 91.019091 
L 396.412045 95.986828 
L 397.29733 96.938576 
L 398.182614 92.393093 
L 399.067898 89.555279 
L 399.953182 94.626762 
L 400.838466 91.697976 
L 401.72375 90.297438 
L 402.609034 94.087102 
L 403.494318 89.79521 
L 403.494318 89.79521 
" clip-path="url(#pdcc9b2a46c)" style="fill: none; stroke: #2ca02c; stroke-width: 2; stroke-linecap: square"/>
   </g>
   <g id="line2d_19">
    <path d="M 49.380682 238.627131 
L 403.494318 238.627131 
L 403.494318 238.627131 
" clip-path="url(#pdcc9b2a46c)" style="fill: none; stroke: #d62728; stroke-width: 2; stroke-linecap: square"/>
   </g>
   <g id="line2d_20">
    <path d="M 49.380682 226.161312 
L 52.036534 226.283537 
L 52.921818 226.417479 
L 53.807102 226.099406 
L 56.462955 226.283355 
L 57.348239 226.212103 
L 58.233523 226.00306 
L 59.118807 226.265553 
L 60.004091 226.270027 
L 60.889375 226.392122 
L 61.774659 226.388065 
L 62.659943 226.218825 
L 63.545227 226.352829 
L 64.430511 226.654439 
L 65.315795 226.393292 
L 66.20108 226.525926 
L 67.086364 226.35431 
L 67.971648 226.972991 
L 69.742216 226.434678 
L 70.6275 226.198326 
L 71.512784 226.543014 
L 80.365625 226.615047 
L 81.250909 226.960639 
L 82.136193 226.624621 
L 86.562614 226.971545 
L 87.447898 227.152443 
L 88.333182 226.688488 
L 89.218466 227.021735 
L 90.10375 227.117315 
L 90.989034 226.897615 
L 91.874318 227.149817 
L 93.644886 227.000818 
L 94.53017 227.247971 
L 98.071307 227.207143 
L 98.956591 227.387589 
L 99.841875 227.27467 
L 100.727159 227.412426 
L 101.612443 227.409062 
L 102.497727 227.211461 
L 104.268295 227.517966 
L 105.15358 227.472506 
L 106.038864 227.558396 
L 107.809432 227.376524 
L 108.694716 227.905963 
L 109.58 227.707434 
L 112.235852 227.73532 
L 113.121136 227.886084 
L 114.00642 227.690932 
L 114.891705 228.145747 
L 115.776989 227.516455 
L 116.662273 227.771952 
L 117.547557 228.176219 
L 118.432841 228.049789 
L 119.318125 228.168915 
L 120.203409 228.14145 
L 121.088693 227.903095 
L 122.859261 228.434082 
L 123.744545 228.133506 
L 124.62983 228.53565 
L 125.515114 228.176804 
L 126.400398 228.15075 
L 127.285682 228.462453 
L 129.05625 228.437372 
L 129.941534 228.947162 
L 130.826818 228.770257 
L 131.712102 228.799205 
L 132.597386 228.563781 
L 135.253239 228.892029 
L 136.138523 229.182445 
L 137.023807 228.909267 
L 138.794375 229.062311 
L 139.679659 228.900638 
L 141.450227 229.18472 
L 142.335511 229.28076 
L 143.220795 229.213389 
L 144.10608 229.574442 
L 144.991364 229.112155 
L 145.876648 229.606545 
L 146.761932 229.250626 
L 147.647216 229.777538 
L 148.5325 229.728086 
L 149.417784 229.906956 
L 150.303068 229.913625 
L 151.188352 229.730741 
L 152.95892 230.233753 
L 153.844205 229.948907 
L 155.614773 230.323108 
L 156.500057 230.258061 
L 157.385341 230.482333 
L 159.155909 230.397526 
L 160.041193 230.611451 
L 160.926477 230.615545 
L 161.811761 230.934906 
L 167.123466 231.257996 
L 168.00875 231.612686 
L 168.894034 231.517736 
L 175.091023 232.160316 
L 175.976307 232.454092 
L 176.861591 232.560415 
L 177.746875 232.484604 
L 178.632159 232.640614 
L 179.517443 233.125013 
L 180.402727 232.81731 
L 181.288011 233.106231 
L 184.829148 233.585644 
L 185.714432 233.734359 
L 186.599716 233.598195 
L 187.485 233.885552 
L 189.255568 234.156346 
L 190.140852 234.39589 
L 191.026136 234.37635 
L 191.91142 234.581451 
L 193.681989 234.74804 
L 194.567273 235.11271 
L 195.452557 235.166066 
L 196.337841 235.377138 
L 199.878977 235.670156 
L 200.764261 236.111952 
L 201.649545 236.050807 
L 202.53483 236.303259 
L 204.305398 236.537785 
L 206.96125 236.964574 
L 207.846534 236.950709 
L 209.617102 237.201849 
L 211.38767 237.32162 
L 220.240511 238.031017 
L 222.896364 238.217331 
L 226.4375 238.627131 
L 229.093352 238.29945 
L 237.946193 237.643219 
L 239.716761 237.461113 
L 241.48733 237.286059 
L 242.372614 237.281259 
L 244.143182 237.073762 
L 245.028466 237.071636 
L 250.34017 236.248713 
L 251.225455 236.239943 
L 261.848864 234.506624 
L 262.734148 234.421499 
L 264.504716 233.87129 
L 265.39 234.046518 
L 270.701705 233.098965 
L 271.586989 233.146127 
L 273.357557 233.03499 
L 274.242841 232.695798 
L 276.013409 232.441363 
L 276.898693 232.144272 
L 277.783977 232.207943 
L 279.554545 231.975342 
L 280.43983 232.06428 
L 281.325114 231.858207 
L 282.210398 231.536232 
L 283.095682 231.558294 
L 283.980966 231.331594 
L 284.86625 231.606273 
L 285.751534 231.083429 
L 286.636818 231.045127 
L 287.522102 231.169333 
L 288.407386 230.915115 
L 289.29267 231.059531 
L 290.177955 230.918451 
L 291.063239 230.664592 
L 292.833807 230.63126 
L 294.604375 230.367154 
L 295.489659 230.452609 
L 296.374943 230.102326 
L 298.145511 230.422013 
L 299.030795 230.299173 
L 299.91608 230.024478 
L 305.227784 229.476457 
L 306.113068 229.562248 
L 308.76892 229.134648 
L 309.654205 229.431351 
L 310.539489 229.145297 
L 311.424773 229.504754 
L 313.195341 229.027078 
L 314.080625 229.17795 
L 315.851193 228.840115 
L 316.736477 229.050619 
L 318.507045 228.736423 
L 319.39233 228.879289 
L 320.277614 228.864902 
L 322.048182 228.531811 
L 322.933466 228.554339 
L 323.81875 228.695575 
L 324.704034 228.411684 
L 326.474602 228.56589 
L 327.359886 228.103071 
L 328.24517 228.197736 
L 329.130455 228.433489 
L 330.015739 228.548571 
L 330.901023 228.258836 
L 333.556875 228.125841 
L 334.442159 227.918624 
L 336.212727 227.990475 
L 337.098011 227.859245 
L 338.86858 227.886765 
L 339.753864 228.07376 
L 340.639148 227.841353 
L 341.524432 227.895645 
L 343.295 227.519255 
L 344.180284 227.769161 
L 345.065568 227.61361 
L 345.950852 227.703281 
L 347.72142 227.597132 
L 348.606705 227.411768 
L 350.377273 227.457063 
L 351.262557 227.327033 
L 352.147841 227.322642 
L 353.033125 227.199406 
L 353.918409 227.386992 
L 354.803693 227.178123 
L 355.688977 227.116735 
L 356.574261 227.212111 
L 357.459545 227.130686 
L 358.34483 227.374199 
L 359.230114 227.29371 
L 360.115398 226.891901 
L 361.000682 227.002695 
L 361.885966 227.326366 
L 362.77125 226.975297 
L 365.427102 227.031529 
L 366.312386 226.756184 
L 367.19767 227.011016 
L 368.082955 226.982613 
L 368.968239 226.811458 
L 371.624091 226.845029 
L 372.509375 226.973693 
L 373.394659 226.635628 
L 374.279943 226.662152 
L 375.165227 226.459214 
L 376.050511 226.806766 
L 376.935795 226.399212 
L 378.706364 226.870458 
L 379.591648 226.496853 
L 380.476932 226.524614 
L 381.362216 226.418193 
L 383.132784 226.522431 
L 384.018068 226.351798 
L 384.903352 226.594484 
L 388.444489 226.486099 
L 389.329773 226.161646 
L 390.215057 226.447435 
L 391.985625 226.35766 
L 392.870909 226.382015 
L 393.756193 226.160933 
L 394.641477 226.476519 
L 395.526761 226.487806 
L 396.412045 226.228892 
L 397.29733 226.280065 
L 398.182614 225.940015 
L 399.067898 226.1445 
L 399.953182 225.960237 
L 400.838466 226.327912 
L 401.72375 226.457193 
L 402.609034 226.189022 
L 403.494318 226.097909 
L 403.494318 226.097909 
" clip-path="url(#pdcc9b2a46c)" style="fill: none; stroke: #9467bd; stroke-width: 2; stroke-linecap: square"/>
   </g>
   <g id="line2d_21">
    <path d="M 49.380682 40.147481 
L 50.265966 36.544744 
L 51.15125 40.863394 
L 52.036534 46.425998 
L 52.921818 48.750049 
L 53.807102 39.976348 
L 54.692386 41.088387 
L 55.57767 50.306883 
L 56.462955 47.098669 
L 57.348239 46.274278 
L 59.118807 50.399321 
L 60.004091 52.638434 
L 60.889375 56.050885 
L 61.774659 54.689242 
L 62.659943 51.814146 
L 63.545227 60.943766 
L 64.430511 68.902943 
L 65.315795 61.17768 
L 66.20108 61.054606 
L 67.086364 61.860167 
L 67.971648 69.021793 
L 68.856932 65.894384 
L 69.742216 60.470375 
L 70.6275 59.703998 
L 71.512784 67.487344 
L 72.398068 68.482956 
L 73.283352 72.985572 
L 74.168636 67.293667 
L 75.05392 68.783096 
L 75.939205 73.37379 
L 76.824489 70.129868 
L 77.709773 70.85793 
L 78.595057 72.666754 
L 79.480341 74.746387 
L 80.365625 78.883044 
L 81.250909 80.548923 
L 83.021477 79.034486 
L 83.906761 80.265076 
L 84.792045 83.241842 
L 85.67733 84.388909 
L 87.447898 92.925648 
L 88.333182 81.510419 
L 89.218466 93.455946 
L 90.10375 92.80753 
L 90.989034 88.120479 
L 91.874318 97.37332 
L 92.759602 94.391259 
L 93.644886 92.120697 
L 94.53017 97.581111 
L 95.415455 100.033963 
L 97.186023 101.137575 
L 98.071307 100.129613 
L 98.956591 106.315791 
L 99.841875 103.192017 
L 100.727159 106.26186 
L 101.612443 106.115225 
L 102.497727 102.804462 
L 103.383011 106.391508 
L 104.268295 111.378522 
L 106.038864 110.534485 
L 106.924148 111.845813 
L 107.809432 111.194707 
L 108.694716 118.520361 
L 110.465284 117.289536 
L 111.350568 118.49977 
L 112.235852 121.046492 
L 113.121136 121.945529 
L 114.00642 118.47455 
L 114.891705 127.928695 
L 115.776989 120.205595 
L 116.662273 121.242464 
L 117.547557 126.603089 
L 118.432841 128.1047 
L 119.318125 128.677391 
L 120.203409 129.864595 
L 121.088693 127.545342 
L 122.859261 137.930326 
L 123.744545 132.678711 
L 124.62983 138.982408 
L 125.515114 134.203577 
L 126.400398 133.450304 
L 127.285682 139.056219 
L 128.170966 138.907359 
L 129.05625 139.473226 
L 129.941534 145.620748 
L 130.826818 146.178293 
L 131.712102 146.144512 
L 132.597386 144.289122 
L 133.48267 145.57772 
L 134.367955 145.590074 
L 135.253239 148.867725 
L 136.138523 154.879574 
L 137.023807 150.547398 
L 137.909091 153.216358 
L 138.794375 154.084124 
L 139.679659 151.738923 
L 140.564943 154.660955 
L 141.450227 156.125065 
L 142.335511 157.168189 
L 143.220795 157.617898 
L 144.10608 162.439269 
L 144.991364 157.190081 
L 145.876648 164.038822 
L 146.761932 161.981335 
L 147.647216 166.710794 
L 148.5325 167.504485 
L 149.417784 167.092944 
L 150.303068 169.977234 
L 151.188352 166.980762 
L 152.073636 170.086037 
L 152.95892 172.409029 
L 153.844205 171.10202 
L 154.729489 173.73134 
L 155.614773 175.436548 
L 156.500057 176.031916 
L 157.385341 177.350947 
L 158.270625 178.20112 
L 159.155909 177.784301 
L 160.041193 182.069997 
L 160.926477 180.371401 
L 161.811761 182.893377 
L 162.697045 184.431698 
L 163.58233 185.202785 
L 164.467614 185.596783 
L 165.352898 187.884032 
L 166.238182 186.378238 
L 167.123466 189.218198 
L 168.00875 191.463385 
L 168.894034 191.086698 
L 169.779318 193.125202 
L 170.664602 193.372481 
L 172.43517 195.202188 
L 174.205739 197.877746 
L 175.091023 198.40856 
L 175.976307 200.966558 
L 176.861591 201.887037 
L 177.746875 202.079132 
L 178.632159 202.43393 
L 179.517443 205.770378 
L 180.402727 204.493392 
L 182.173295 207.15085 
L 183.05858 207.490467 
L 183.943864 208.666681 
L 184.829148 210.173808 
L 185.714432 211.325594 
L 186.599716 211.57853 
L 187.485 213.205034 
L 188.370284 213.753075 
L 190.140852 215.990915 
L 191.026136 216.545959 
L 191.91142 217.293515 
L 192.796705 218.403452 
L 193.681989 219.131676 
L 194.567273 221.450635 
L 195.452557 221.601191 
L 196.337841 222.715281 
L 197.223125 222.896286 
L 198.993693 224.633055 
L 199.878977 224.932274 
L 200.764261 227.209061 
L 201.649545 226.866979 
L 202.53483 227.965902 
L 206.075966 230.677386 
L 206.96125 231.664882 
L 207.846534 231.748391 
L 208.731818 232.314933 
L 209.617102 233.102518 
L 210.502386 233.220085 
L 211.38767 233.918757 
L 212.272955 234.234741 
L 213.158239 234.853307 
L 220.240511 237.481077 
L 224.666932 238.355049 
L 226.4375 238.627131 
L 230.86392 237.947275 
L 233.519773 237.228898 
L 235.290341 236.704311 
L 237.060909 235.922597 
L 238.831477 235.332994 
L 241.48733 233.643583 
L 242.372614 233.49445 
L 244.143182 232.348269 
L 245.028466 232.217219 
L 247.684318 230.200021 
L 248.569602 229.200638 
L 249.454886 228.447116 
L 251.225455 227.271982 
L 252.110739 226.830376 
L 252.996023 225.845512 
L 254.766591 224.678742 
L 256.537159 222.070952 
L 257.422443 221.950889 
L 260.078295 218.851087 
L 260.96358 217.596652 
L 261.848864 217.520807 
L 264.504716 213.381484 
L 265.39 213.994101 
L 268.045852 210.107326 
L 268.931136 208.96526 
L 269.81642 208.298392 
L 270.701705 207.207033 
L 271.586989 206.573919 
L 273.357557 206.327677 
L 274.242841 203.145434 
L 275.128125 202.621239 
L 276.013409 200.615135 
L 276.898693 199.426018 
L 277.783977 199.765757 
L 278.669261 197.320049 
L 279.554545 196.326522 
L 280.43983 196.643412 
L 282.210398 192.307204 
L 283.095682 192.166421 
L 283.980966 190.188653 
L 284.86625 191.331577 
L 285.751534 187.154116 
L 286.636818 186.022422 
L 287.522102 186.717701 
L 288.407386 185.227973 
L 289.29267 185.483217 
L 290.177955 183.679434 
L 291.063239 181.593672 
L 291.948523 180.335458 
L 292.833807 180.276829 
L 293.719091 179.022131 
L 294.604375 179.076855 
L 296.374943 173.78047 
L 297.260227 175.79323 
L 298.145511 174.140136 
L 299.030795 174.277959 
L 299.91608 170.06951 
L 300.801364 169.293991 
L 301.686648 169.282319 
L 302.571932 167.456949 
L 303.457216 166.140409 
L 305.227784 162.858419 
L 306.113068 162.347473 
L 306.998352 162.493222 
L 307.883636 158.91889 
L 308.76892 156.454816 
L 309.654205 159.659941 
L 310.539489 157.160548 
L 311.424773 157.082764 
L 312.310057 156.661943 
L 313.195341 152.539606 
L 314.080625 154.531354 
L 315.851193 150.357617 
L 316.736477 153.534018 
L 317.621761 148.641242 
L 318.507045 144.884277 
L 319.39233 150.762445 
L 321.162898 144.833592 
L 322.048182 142.366378 
L 322.933466 142.089931 
L 323.81875 144.737703 
L 324.704034 140.272448 
L 325.589318 139.493814 
L 326.474602 138.033699 
L 327.359886 132.873709 
L 328.24517 134.236064 
L 329.130455 136.55517 
L 330.015739 137.217031 
L 330.901023 132.745501 
L 331.786307 131.996852 
L 332.671591 129.730629 
L 333.556875 131.855337 
L 334.442159 127.911347 
L 335.327443 125.846897 
L 336.212727 127.220131 
L 337.098011 123.023561 
L 337.983295 124.688699 
L 338.86858 122.785308 
L 339.753864 124.189535 
L 340.639148 122.590352 
L 341.524432 122.856972 
L 342.409716 119.456487 
L 343.295 111.893199 
L 344.180284 115.152265 
L 345.065568 114.191808 
L 345.950852 115.023287 
L 346.836136 113.313262 
L 347.72142 114.409719 
L 348.606705 107.609606 
L 350.377273 108.393433 
L 351.262557 105.200657 
L 352.147841 104.391284 
L 353.033125 103.260747 
L 353.918409 108.443277 
L 354.803693 97.438259 
L 355.688977 100.157683 
L 356.574261 100.819024 
L 357.459545 98.953461 
L 358.34483 101.804953 
L 359.230114 97.220289 
L 360.115398 92.040474 
L 361.000682 91.330815 
L 361.885966 95.619069 
L 362.77125 84.543407 
L 363.656534 88.354354 
L 364.541818 93.623334 
L 365.427102 88.76757 
L 366.312386 82.521843 
L 367.19767 85.441754 
L 368.082955 87.438866 
L 368.968239 81.558614 
L 369.853523 82.519596 
L 370.738807 78.527697 
L 371.624091 79.021062 
L 372.509375 80.324316 
L 373.394659 77.352164 
L 374.279943 73.948838 
L 375.165227 72.791837 
L 376.050511 76.881536 
L 376.935795 68.635688 
L 377.82108 72.188444 
L 378.706364 70.205384 
L 379.591648 65.168847 
L 380.476932 66.0875 
L 382.2475 56.418899 
L 383.132784 63.959898 
L 384.018068 61.261099 
L 384.903352 63.438083 
L 385.788636 64.521993 
L 386.67392 61.292729 
L 387.559205 62.750691 
L 388.444489 57.61314 
L 389.329773 49.065393 
L 390.215057 61.818598 
L 391.100341 52.987624 
L 391.985625 50.585098 
L 392.870909 55.514877 
L 393.756193 44.873896 
L 394.641477 54.752994 
L 395.526761 56.559671 
L 396.412045 43.911938 
L 397.29733 48.508087 
L 398.182614 38.807179 
L 399.067898 45.852121 
L 399.953182 36.818755 
L 400.838466 47.881497 
L 401.72375 45.062442 
L 402.609034 44.10553 
L 403.494318 40.368339 
L 403.494318 40.368339 
" clip-path="url(#pdcc9b2a46c)" style="fill: none; stroke: #8c564b; stroke-width: 2; stroke-linecap: square"/>
   </g>
   <g id="patch_3">
    <path d="M 31.675 248.73125 
L 31.675 26.440625 
" style="fill: none; stroke: #000000; stroke-width: 0.8; stroke-linejoin: miter; stroke-linecap: square"/>
   </g>
   <g id="patch_4">
    <path d="M 421.2 248.73125 
L 421.2 26.440625 
" style="fill: none; stroke: #000000; stroke-width: 0.8; stroke-linejoin: miter; stroke-linecap: square"/>
   </g>
   <g id="patch_5">
    <path d="M 31.675 248.73125 
L 421.2 248.73125 
" style="fill: none; stroke: #000000; stroke-width: 0.8; stroke-linejoin: miter; stroke-linecap: square"/>
   </g>
   <g id="patch_6">
    <path d="M 31.675 26.440625 
L 421.2 26.440625 
" style="fill: none; stroke: #000000; stroke-width: 0.8; stroke-linejoin: miter; stroke-linecap: square"/>
   </g>
   <g id="text_18">
    <!-- 讨论不同强度的干扰对不稳定性的影响 -->
    <g transform="translate(124.4375 20.440625)scale(0.12 -0.12)">
     <defs>
      <path id="SimHei-8ba8" d="M 4700 3775 
Q 4700 4600 4675 5225 
L 5225 5225 
Q 5200 4625 5200 3775 
Q 5625 3775 6075 3800 
L 6075 3325 
Q 5675 3350 5200 3350 
L 5200 25 
Q 5200 -325 4925 -437 
Q 4650 -550 4150 -600 
Q 4125 -300 3875 25 
Q 4450 0 4575 50 
Q 4700 100 4700 350 
L 4700 3350 
L 3225 3350 
Q 2900 3350 2300 3325 
L 2300 3800 
Q 2875 3775 3175 3775 
L 4700 3775 
z
M 1700 3375 
Q 1675 2925 1675 2400 
L 1675 550 
Q 2000 850 2400 1325 
Q 2550 1025 2725 825 
Q 2375 550 2037 237 
Q 1700 -75 1450 -350 
Q 1225 -100 1025 50 
Q 1200 250 1200 575 
L 1200 2950 
Q 575 2950 300 2925 
L 300 3400 
Q 575 3375 975 3375 
L 1700 3375 
z
M 3025 2750 
Q 3525 2150 3875 1525 
Q 3625 1375 3425 1250 
Q 3150 1850 2625 2475 
Q 2800 2575 3025 2750 
z
M 1250 5250 
Q 1550 4850 1825 4200 
Q 1625 4100 1375 3950 
Q 1175 4500 825 5000 
Q 1000 5100 1250 5250 
z
" transform="scale(0.015625)"/>
      <path id="SimHei-8bba" d="M 3500 1600 
Q 3825 1725 4250 2000 
Q 4675 2275 4975 2575 
Q 5225 2275 5400 2100 
Q 5050 1950 4550 1675 
Q 4050 1400 3500 1150 
L 3500 300 
Q 3500 -100 3800 -100 
L 4825 -100 
Q 5125 -100 5250 137 
Q 5375 375 5375 575 
Q 5675 350 5925 275 
Q 5750 -225 5550 -375 
Q 5350 -525 5100 -525 
L 3550 -525 
Q 3025 -475 3025 0 
L 3025 2175 
Q 3025 2525 3000 2850 
L 3525 2850 
Q 3500 2400 3500 2200 
L 3500 1600 
z
M 4175 4850 
Q 4400 4350 4950 3687 
Q 5500 3025 6175 2700 
Q 5975 2575 5800 2275 
Q 5100 2750 4637 3375 
Q 4175 4000 3950 4425 
Q 3725 3950 3387 3425 
Q 3050 2900 2325 2200 
Q 2175 2375 1950 2575 
Q 2350 2825 2650 3175 
Q 2950 3525 3200 3962 
Q 3450 4400 3575 4725 
Q 3700 5050 3750 5250 
Q 3975 5150 4275 5050 
L 4175 4850 
z
M 1600 3150 
Q 1575 2750 1575 2275 
L 1575 550 
Q 1950 825 2400 1300 
Q 2500 1075 2650 800 
Q 2250 475 1900 187 
Q 1550 -100 1250 -375 
Q 1150 -225 900 50 
Q 1100 250 1100 450 
L 1100 2700 
L 800 2700 
Q 550 2700 275 2675 
L 275 3175 
Q 550 3150 800 3150 
L 1600 3150 
z
M 975 5000 
Q 1550 4525 2125 4025 
Q 1950 3875 1750 3650 
Q 1325 4150 650 4650 
Q 825 4800 975 5000 
z
" transform="scale(0.015625)"/>
      <path id="SimHei-4e0d" d="M 5975 4450 
Q 5525 4475 5200 4475 
L 3725 4475 
Q 3550 4125 3300 3700 
L 3300 575 
Q 3300 75 3325 -550 
L 2775 -550 
Q 2800 50 2800 575 
L 2800 3025 
Q 2025 1950 700 1050 
Q 500 1350 325 1475 
Q 825 1700 1650 2437 
Q 2475 3175 3175 4475 
L 1525 4475 
Q 1050 4475 525 4450 
L 525 4950 
Q 1275 4925 1675 4925 
L 5175 4925 
Q 5500 4925 5975 4950 
L 5975 4450 
z
M 5450 1125 
Q 4975 1725 3750 2975 
Q 3950 3150 4075 3325 
Q 4675 2775 5100 2362 
Q 5525 1950 5900 1550 
Q 5650 1350 5450 1125 
z
" transform="scale(0.015625)"/>
      <path id="SimHei-540c" d="M 5825 4925 
Q 5775 4550 5775 3975 
L 5775 -50 
Q 5775 -400 5525 -487 
Q 5275 -575 4725 -625 
Q 4725 -400 4525 -50 
Q 4925 -50 5100 -12 
Q 5275 25 5275 200 
L 5275 4450 
L 1150 4450 
L 1150 -600 
L 575 -600 
Q 600 -250 625 200 
L 625 3975 
Q 625 4575 600 4925 
L 5825 4925 
z
M 4375 2550 
Q 4325 2275 4325 1700 
Q 4325 1150 4375 725 
L 2025 725 
Q 2050 1175 2050 1750 
Q 2050 2325 2025 2550 
L 4375 2550 
z
M 4100 3750 
Q 4600 3750 4825 3775 
L 4825 3275 
Q 4575 3300 4075 3300 
L 2450 3300 
Q 1850 3300 1600 3275 
L 1600 3775 
Q 1875 3750 2475 3750 
L 4100 3750 
z
M 3875 1150 
L 3875 2150 
L 2525 2150 
L 2525 1150 
L 3875 1150 
z
" transform="scale(0.015625)"/>
      <path id="SimHei-7684" d="M 2100 4975 
Q 1975 4750 1750 3950 
L 2875 3950 
Q 2850 3525 2850 2875 
L 2850 675 
Q 2850 300 2875 -400 
L 2375 -400 
L 2375 100 
L 1100 100 
L 1100 -450 
L 600 -450 
Q 625 350 625 550 
L 625 2850 
Q 625 3525 600 3950 
L 1325 3950 
Q 1450 4525 1525 5150 
Q 1875 5025 2100 4975 
z
M 5825 3075 
Q 5800 1550 5700 175 
Q 5650 -275 5225 -425 
Q 4800 -575 4275 -625 
Q 4250 -350 4050 -50 
Q 4550 -75 4837 -25 
Q 5125 25 5200 200 
Q 5275 375 5312 1225 
Q 5350 2075 5375 3600 
L 3925 3600 
Q 3725 3125 3350 2475 
Q 3175 2650 2925 2750 
Q 3150 3050 3350 3475 
Q 3550 3900 3700 4400 
Q 3850 4900 3875 5175 
Q 4225 5025 4475 4950 
Q 4350 4750 4262 4512 
Q 4175 4275 4075 4050 
L 5850 4050 
Q 5825 3525 5825 3075 
z
M 2375 525 
L 2375 1850 
L 1100 1850 
L 1100 525 
L 2375 525 
z
M 2375 2275 
L 2375 3525 
L 1100 3525 
L 1100 2275 
L 2375 2275 
z
M 4350 2050 
Q 4500 1750 4700 1275 
Q 4525 1200 4225 1025 
Q 4050 1500 3900 1837 
Q 3750 2175 3600 2400 
Q 3775 2500 4050 2650 
L 4350 2050 
z
" transform="scale(0.015625)"/>
      <path id="SimHei-5bf9" d="M 525 4250 
Q 900 4225 1400 4225 
L 2825 4225 
Q 2575 2625 2200 1750 
Q 2825 875 3125 400 
Q 2950 275 2725 75 
Q 2200 975 1950 1300 
Q 1650 775 1350 425 
Q 1050 75 600 -350 
Q 425 -125 200 -25 
Q 625 275 975 675 
Q 1325 1075 1650 1700 
Q 1050 2425 550 2900 
Q 700 3025 900 3225 
Q 1625 2425 1875 2150 
Q 2200 3050 2300 3825 
L 1400 3825 
Q 900 3825 525 3800 
L 525 4250 
z
M 2925 3700 
Q 3525 3675 3750 3675 
L 4825 3675 
L 4825 4425 
Q 4825 4750 4775 5125 
L 5350 5125 
Q 5325 4825 5325 4375 
L 5325 3675 
Q 5575 3675 6150 3700 
L 6150 3250 
Q 5575 3275 5325 3275 
L 5325 125 
Q 5350 -350 5012 -475 
Q 4675 -600 4250 -650 
Q 4175 -350 4025 -100 
Q 4575 -100 4712 -37 
Q 4850 25 4825 325 
L 4825 3275 
L 3775 3275 
Q 3550 3275 2925 3225 
L 2925 3700 
z
M 3450 2725 
Q 3875 1975 4175 1325 
Q 3850 1200 3700 1075 
Q 3475 1750 3050 2475 
Q 3225 2550 3450 2725 
z
" transform="scale(0.015625)"/>
      <path id="SimHei-7a33" d="M 4050 5125 
Q 3875 4975 3675 4625 
L 5325 4625 
Q 5200 4450 5062 4212 
Q 4925 3975 4800 3650 
L 5625 3650 
Q 5600 3350 5600 2600 
Q 5600 1875 5625 1425 
L 3425 1425 
Q 3075 1425 2750 1400 
L 2750 1850 
Q 3075 1825 3450 1825 
L 5100 1825 
L 5100 2375 
L 3550 2375 
Q 3175 2375 2875 2350 
L 2875 2775 
Q 3175 2750 3525 2750 
L 5100 2750 
L 5100 3275 
L 3775 3275 
Q 3350 3275 3050 3250 
L 3050 3650 
Q 2875 3425 2725 3200 
Q 2525 3400 2350 3475 
Q 2675 3875 2987 4412 
Q 3300 4950 3400 5300 
Q 3725 5200 4050 5125 
z
M 2500 4575 
Q 2275 4575 2012 4512 
Q 1750 4450 1625 4450 
L 1625 3350 
Q 1975 3350 2375 3375 
L 2375 2950 
Q 1925 2975 1625 2975 
L 1625 2225 
Q 1775 2325 1950 2500 
Q 2225 2100 2525 1600 
Q 2300 1500 2150 1350 
Q 1950 1725 1625 2175 
L 1625 400 
Q 1625 25 1650 -625 
L 1150 -625 
Q 1200 25 1200 400 
L 1200 2075 
Q 875 1250 475 650 
Q 375 925 175 1125 
Q 325 1250 650 1887 
Q 975 2525 1050 2975 
Q 750 2975 275 2950 
L 275 3375 
Q 750 3350 1200 3350 
L 1200 4325 
Q 950 4275 550 4200 
Q 475 4425 275 4625 
Q 750 4675 1237 4775 
Q 1725 4875 2125 5075 
Q 2275 4775 2500 4575 
z
M 3675 1025 
Q 3650 700 3650 300 
Q 3650 -75 3775 -100 
Q 3900 -125 4250 -125 
Q 4600 -125 4687 -100 
Q 4775 -75 4825 425 
Q 5025 275 5350 200 
Q 5150 -450 4950 -500 
Q 4750 -550 4175 -550 
Q 3625 -550 3425 -487 
Q 3225 -425 3225 -100 
L 3225 525 
Q 3225 775 3200 1025 
L 3675 1025 
z
M 3050 3675 
Q 3325 3650 3775 3650 
L 4275 3650 
Q 4450 4000 4575 4275 
L 3425 4275 
Q 3275 4050 3050 3675 
z
M 2925 900 
Q 2800 725 2700 287 
Q 2600 -150 2550 -300 
Q 2325 -200 2075 -175 
Q 2225 200 2275 412 
Q 2325 625 2425 1000 
L 2925 900 
z
M 5575 1100 
Q 5950 475 6175 50 
Q 5950 -25 5750 -175 
Q 5625 175 5200 925 
Q 5425 975 5575 1100 
z
M 4225 1300 
Q 4525 825 4625 525 
Q 4550 500 4250 350 
Q 4150 700 3850 1125 
Q 4050 1200 4225 1300 
z
" transform="scale(0.015625)"/>
      <path id="SimHei-5b9a" d="M 4200 3125 
Q 4675 3125 5175 3150 
L 5175 2675 
Q 4725 2700 4100 2700 
L 3550 2700 
L 3550 1700 
L 4600 1700 
Q 4875 1700 5375 1725 
L 5375 1250 
Q 4875 1275 4575 1275 
L 3550 1275 
L 3550 100 
Q 4600 -25 6050 125 
Q 5850 -200 5800 -475 
Q 4800 -475 4150 -450 
Q 3500 -425 3050 -300 
Q 2600 -175 2250 75 
Q 1900 325 1600 675 
Q 1200 -50 675 -575 
Q 450 -350 175 -250 
Q 875 300 1200 1050 
Q 1525 1800 1550 2200 
Q 1800 2050 2150 1975 
Q 2075 1875 1987 1662 
Q 1900 1450 1775 1125 
Q 1950 900 2300 612 
Q 2650 325 3050 200 
L 3050 2700 
L 2250 2700 
Q 1825 2700 1400 2675 
L 1400 3150 
Q 1825 3125 2400 3125 
L 4200 3125 
z
M 5750 4275 
Q 5725 3925 5725 3750 
Q 5725 3575 5750 3275 
L 5225 3275 
L 5225 3875 
L 1225 3875 
L 1225 3275 
L 700 3275 
Q 725 3475 725 3725 
Q 725 3975 700 4275 
L 5750 4275 
z
M 2650 5050 
Q 2875 5125 3100 5300 
Q 3375 4975 3600 4550 
Q 3250 4400 3100 4300 
Q 3050 4525 2650 5050 
z
" transform="scale(0.015625)"/>
      <path id="SimHei-6027" d="M 3450 4525 
Q 3325 4075 3275 3750 
L 4050 3750 
L 4050 4275 
Q 4050 4700 4025 5100 
L 4550 5100 
Q 4525 4700 4525 4275 
L 4525 3750 
L 5025 3750 
Q 5350 3750 5800 3775 
L 5800 3300 
Q 5350 3325 5025 3325 
L 4525 3325 
L 4525 2000 
L 4975 2000 
Q 5350 2000 5725 2025 
L 5725 1550 
Q 5350 1575 4975 1575 
L 4525 1575 
L 4525 25 
L 5200 25 
Q 5625 25 6025 50 
L 6025 -400 
Q 5625 -375 5200 -375 
L 3275 -375 
Q 2825 -375 2400 -400 
L 2400 50 
Q 2825 25 3250 25 
L 4050 25 
L 4050 1575 
L 3625 1575 
Q 3300 1575 2875 1550 
L 2875 2025 
Q 3200 2000 3625 2000 
L 4050 2000 
L 4050 3325 
L 3175 3325 
Q 3100 2950 2775 2225 
Q 2500 2375 2325 2400 
Q 2675 3125 2775 3650 
Q 2875 4175 2950 4650 
Q 3200 4575 3450 4525 
z
M 1700 5150 
Q 1675 4650 1675 4175 
L 1675 425 
Q 1675 -100 1700 -625 
L 1175 -625 
Q 1200 -100 1200 425 
L 1200 4175 
Q 1200 4700 1175 5150 
L 1700 5150 
z
M 975 3725 
Q 825 2675 700 2150 
Q 450 2200 250 2250 
Q 425 2900 525 3800 
Q 725 3775 975 3725 
z
M 2125 4025 
Q 2325 3625 2525 3000 
Q 2300 2925 2125 2825 
Q 1950 3375 1750 3850 
Q 1950 3950 2125 4025 
z
" transform="scale(0.015625)"/>
      <path id="SimHei-5f71" d="M 3550 5025 
Q 3500 4625 3512 4187 
Q 3525 3750 3550 3325 
L 775 3325 
Q 800 3750 787 4187 
Q 775 4625 775 5025 
L 3550 5025 
z
M 1450 -100 
Q 2050 -75 1975 200 
L 1975 1100 
L 775 1100 
Q 800 1375 787 1650 
Q 775 1925 775 2225 
L 3550 2225 
Q 3525 1925 3512 1650 
Q 3500 1375 3550 1100 
L 2475 1100 
L 2475 175 
Q 2500 -250 2300 -375 
Q 2100 -500 1625 -600 
Q 1575 -325 1450 -100 
z
M 2375 3250 
Q 2400 3075 2425 2875 
L 3175 2875 
Q 3600 2875 4050 2900 
L 4050 2475 
Q 3600 2500 3175 2500 
L 1200 2500 
Q 700 2500 275 2475 
L 275 2900 
Q 700 2875 1200 2875 
L 1900 2875 
Q 1875 3025 1850 3200 
Q 2100 3250 2375 3250 
z
M 6150 1350 
Q 5675 775 5000 225 
Q 4325 -325 3725 -650 
Q 3575 -400 3400 -250 
Q 3975 25 4600 500 
Q 5225 975 5775 1725 
Q 5950 1525 6150 1350 
z
M 5925 3125 
Q 5625 2850 5212 2362 
Q 4800 1875 4200 1425 
Q 4025 1625 3800 1725 
Q 4375 2050 4787 2525 
Q 5200 3000 5525 3500 
Q 5675 3325 5925 3125 
z
M 5725 4825 
Q 5325 4550 5037 4162 
Q 4750 3775 4175 3275 
Q 3975 3450 3800 3550 
Q 4175 3825 4550 4237 
Q 4925 4650 5225 5175 
Q 5425 5000 5725 4825 
z
M 3075 1475 
L 3075 1850 
L 1250 1850 
L 1250 1475 
L 3075 1475 
z
M 3075 3700 
L 3075 4000 
L 1250 4000 
L 1250 3700 
L 3075 3700 
z
M 3075 4375 
L 3075 4675 
L 1250 4675 
L 1250 4375 
L 3075 4375 
z
M 1500 500 
Q 1075 75 575 -325 
Q 475 -175 275 -25 
Q 700 250 1125 825 
Q 1300 625 1500 500 
z
M 3250 -50 
Q 3050 275 2750 550 
Q 2900 700 3075 850 
Q 3400 525 3600 250 
L 3250 -50 
z
" transform="scale(0.015625)"/>
      <path id="SimHei-54cd" d="M 4150 5125 
Q 4000 4975 3850 4325 
L 5875 4325 
Q 5850 3800 5850 3325 
L 5850 50 
Q 5825 -225 5625 -350 
Q 5425 -475 4850 -550 
Q 4850 -325 4600 25 
Q 5125 25 5237 62 
Q 5350 100 5350 225 
L 5350 3950 
L 2950 3950 
L 2950 -575 
L 2450 -575 
Q 2475 -75 2475 450 
L 2475 3125 
Q 2475 3750 2450 4325 
L 3350 4325 
Q 3475 4775 3525 5250 
Q 3950 5150 4150 5125 
z
M 4875 900 
L 3425 900 
L 3425 3100 
L 4875 3100 
L 4875 900 
z
M 4450 1275 
L 4450 2700 
L 3875 2700 
L 3875 1275 
L 4450 1275 
z
M 2075 4500 
Q 2050 3975 2050 3425 
L 2050 1750 
Q 2050 1250 2075 600 
L 1650 600 
L 1650 1050 
L 950 1050 
L 950 275 
L 500 275 
Q 525 750 525 1275 
L 525 3425 
Q 525 3975 500 4500 
L 2075 4500 
z
M 1650 1400 
L 1650 4125 
L 950 4125 
L 950 1400 
L 1650 1400 
z
" transform="scale(0.015625)"/>
     </defs>
     <use xlink:href="#SimHei-8ba8"/>
     <use xlink:href="#SimHei-8bba" x="100"/>
     <use xlink:href="#SimHei-4e0d" x="200"/>
     <use xlink:href="#SimHei-540c" x="300"/>
     <use xlink:href="#SimHei-5f3a" x="400"/>
     <use xlink:href="#SimHei-5ea6" x="500"/>
     <use xlink:href="#SimHei-7684" x="600"/>
     <use xlink:href="#SimHei-5e72" x="700"/>
     <use xlink:href="#SimHei-6270" x="800"/>
     <use xlink:href="#SimHei-5bf9" x="900"/>
     <use xlink:href="#SimHei-4e0d" x="1000"/>
     <use xlink:href="#SimHei-7a33" x="1100"/>
     <use xlink:href="#SimHei-5b9a" x="1200"/>
     <use xlink:href="#SimHei-6027" x="1300"/>
     <use xlink:href="#SimHei-7684" x="1400"/>
     <use xlink:href="#SimHei-5f71" x="1500"/>
     <use xlink:href="#SimHei-54cd" x="1600"/>
    </g>
   </g>
   <g id="legend_1">
    <g id="patch_7">
     <path d="M 177.9375 114.096875 
L 274.9375 114.096875 
Q 276.9375 114.096875 276.9375 112.096875 
L 276.9375 33.440625 
Q 276.9375 31.440625 274.9375 31.440625 
L 177.9375 31.440625 
Q 175.9375 31.440625 175.9375 33.440625 
L 175.9375 112.096875 
Q 175.9375 114.096875 177.9375 114.096875 
z
" style="fill: #ffffff; opacity: 0.8; stroke: #cccccc; stroke-linejoin: miter"/>
    </g>
    <g id="line2d_22">
     <path d="M 179.9375 38.940625 
L 189.9375 38.940625 
L 199.9375 38.940625 
" style="fill: none; stroke: #1f77b4; stroke-width: 2; stroke-linecap: square"/>
    </g>
    <g id="text_19">
     <!-- EU -->
     <g transform="translate(207.9375 42.440625)scale(0.1 -0.1)">
      <defs>
       <path id="SimHei-45" d="M 2900 125 
L 350 125 
L 350 4400 
L 2775 4400 
L 2775 3925 
L 925 3925 
L 925 2600 
L 2625 2600 
L 2625 2125 
L 925 2125 
L 925 600 
L 2900 600 
L 2900 125 
z
" transform="scale(0.015625)"/>
       <path id="SimHei-55" d="M 2875 1375 
Q 2875 775 2562 425 
Q 2250 75 1575 75 
Q 900 75 587 425 
Q 275 775 275 1375 
L 275 4400 
L 850 4400 
L 850 1375 
Q 850 950 1050 750 
Q 1250 550 1575 550 
Q 1900 550 2100 750 
Q 2300 950 2300 1375 
L 2300 4400 
L 2875 4400 
L 2875 1375 
z
" transform="scale(0.015625)"/>
      </defs>
      <use xlink:href="#SimHei-45"/>
      <use xlink:href="#SimHei-55" x="50"/>
     </g>
    </g>
    <g id="line2d_23">
     <path d="M 179.9375 52.190625 
L 189.9375 52.190625 
L 199.9375 52.190625 
" style="fill: none; stroke: #ff7f0e; stroke-width: 3; stroke-linecap: square"/>
    </g>
    <g id="text_20">
     <!-- VGaDis -->
     <g transform="translate(207.9375 55.690625)scale(0.1 -0.1)">
      <defs>
       <path id="SimHei-56" d="M 3050 4400 
L 1800 75 
L 1300 75 
L 50 4400 
L 650 4400 
L 1525 1125 
L 1575 1125 
L 2450 4400 
L 3050 4400 
z
" transform="scale(0.015625)"/>
       <path id="SimHei-47" d="M 2850 75 
L 2425 75 
L 2350 425 
Q 2250 275 2037 175 
Q 1825 75 1575 75 
Q 1050 75 637 562 
Q 225 1050 225 2125 
Q 225 3300 600 3875 
Q 975 4450 1625 4450 
Q 2200 4450 2525 4025 
Q 2850 3600 2850 2925 
L 2300 2925 
Q 2300 3450 2125 3712 
Q 1950 3975 1625 3975 
Q 1225 3975 1025 3562 
Q 825 3150 825 2175 
Q 825 1250 1075 900 
Q 1325 550 1650 550 
Q 1975 550 2162 787 
Q 2350 1025 2350 1525 
L 2350 1800 
L 1575 1800 
L 1575 2275 
L 2850 2275 
L 2850 75 
z
" transform="scale(0.015625)"/>
       <path id="SimHei-44" d="M 2925 2250 
Q 2925 1100 2437 612 
Q 1950 125 1125 125 
L 275 125 
L 275 4400 
L 1125 4400 
Q 2050 4400 2487 3900 
Q 2925 3400 2925 2250 
z
M 2325 2250 
Q 2325 3175 2025 3550 
Q 1725 3925 1125 3925 
L 850 3925 
L 850 600 
L 1125 600 
Q 1725 600 2025 962 
Q 2325 1325 2325 2250 
z
" transform="scale(0.015625)"/>
      </defs>
      <use xlink:href="#SimHei-56"/>
      <use xlink:href="#SimHei-47" x="50"/>
      <use xlink:href="#SimHei-61" x="100"/>
      <use xlink:href="#SimHei-44" x="150"/>
      <use xlink:href="#SimHei-69" x="200"/>
      <use xlink:href="#SimHei-73" x="250"/>
     </g>
    </g>
    <g id="line2d_24">
     <path d="M 179.9375 65.440625 
L 189.9375 65.440625 
L 199.9375 65.440625 
" style="fill: none; stroke: #2ca02c; stroke-width: 2; stroke-linecap: square"/>
    </g>
    <g id="text_21">
     <!-- Manhattan -->
     <g transform="translate(207.9375 68.940625)scale(0.1 -0.1)">
      <defs>
       <path id="SimHei-4d" d="M 2925 125 
L 2425 125 
L 2425 3175 
L 2375 3175 
L 1775 125 
L 1375 125 
L 775 3175 
L 725 3175 
L 725 125 
L 225 125 
L 225 4400 
L 1000 4400 
L 1550 1575 
L 1600 1575 
L 2150 4400 
L 2925 4400 
L 2925 125 
z
" transform="scale(0.015625)"/>
       <path id="SimHei-6e" d="M 2800 125 
L 2300 125 
L 2300 1925 
Q 2300 2225 2150 2400 
Q 2000 2575 1750 2575 
Q 1425 2575 1137 2237 
Q 850 1900 850 1400 
L 850 125 
L 350 125 
L 350 2925 
L 850 2925 
L 850 2400 
Q 1050 2675 1287 2825 
Q 1525 2975 1900 2975 
Q 2350 2975 2575 2725 
Q 2800 2475 2800 2100 
L 2800 125 
z
" transform="scale(0.015625)"/>
       <path id="SimHei-68" d="M 2800 125 
L 2300 125 
L 2300 1925 
Q 2300 2225 2150 2400 
Q 2000 2575 1750 2575 
Q 1425 2575 1137 2237 
Q 850 1900 850 1400 
L 850 125 
L 350 125 
L 350 4400 
L 850 4400 
L 850 2400 
Q 1050 2675 1287 2825 
Q 1525 2975 1900 2975 
Q 2350 2975 2575 2725 
Q 2800 2475 2800 2100 
L 2800 125 
z
" transform="scale(0.015625)"/>
       <path id="SimHei-74" d="M 2750 200 
Q 2625 150 2462 112 
Q 2300 75 2025 75 
Q 1575 75 1300 325 
Q 1025 575 1025 1025 
L 1025 2525 
L 175 2525 
L 175 2925 
L 1025 2925 
L 1025 3900 
L 1525 3900 
L 1525 2925 
L 2550 2925 
L 2550 2525 
L 1525 2525 
L 1525 1000 
Q 1525 800 1625 662 
Q 1725 525 2000 525 
Q 2275 525 2450 575 
Q 2625 625 2750 700 
L 2750 200 
z
" transform="scale(0.015625)"/>
      </defs>
      <use xlink:href="#SimHei-4d"/>
      <use xlink:href="#SimHei-61" x="50"/>
      <use xlink:href="#SimHei-6e" x="100"/>
      <use xlink:href="#SimHei-68" x="150"/>
      <use xlink:href="#SimHei-61" x="200"/>
      <use xlink:href="#SimHei-74" x="250"/>
      <use xlink:href="#SimHei-74" x="300"/>
      <use xlink:href="#SimHei-61" x="350"/>
      <use xlink:href="#SimHei-6e" x="400"/>
     </g>
    </g>
    <g id="line2d_25">
     <path d="M 179.9375 78.690625 
L 189.9375 78.690625 
L 199.9375 78.690625 
" style="fill: none; stroke: #d62728; stroke-width: 2; stroke-linecap: square"/>
    </g>
    <g id="text_22">
     <!-- VGdDis -->
     <g transform="translate(207.9375 82.190625)scale(0.1 -0.1)">
      <use xlink:href="#SimHei-56"/>
      <use xlink:href="#SimHei-47" x="50"/>
      <use xlink:href="#SimHei-64" x="100"/>
      <use xlink:href="#SimHei-44" x="150"/>
      <use xlink:href="#SimHei-69" x="200"/>
      <use xlink:href="#SimHei-73" x="250"/>
     </g>
    </g>
    <g id="line2d_26">
     <path d="M 179.9375 91.940625 
L 189.9375 91.940625 
L 199.9375 91.940625 
" style="fill: none; stroke: #9467bd; stroke-width: 2; stroke-linecap: square"/>
    </g>
    <g id="text_23">
     <!-- dtw_Manhattan -->
     <g transform="translate(207.9375 95.440625)scale(0.1 -0.1)">
      <defs>
       <path id="SimHei-77" d="M 3075 2925 
L 2450 75 
L 1975 75 
L 1575 2250 
L 1525 2250 
L 1125 75 
L 650 75 
L 25 2925 
L 550 2925 
L 875 1050 
L 925 1050 
L 1275 2925 
L 1825 2925 
L 2175 1050 
L 2225 1050 
L 2550 2925 
L 3075 2925 
z
" transform="scale(0.015625)"/>
       <path id="SimHei-5f" d="M 3150 -850 
L 0 -850 
L 0 -550 
L 3150 -550 
L 3150 -850 
z
" transform="scale(0.015625)"/>
      </defs>
      <use xlink:href="#SimHei-64"/>
      <use xlink:href="#SimHei-74" x="50"/>
      <use xlink:href="#SimHei-77" x="100"/>
      <use xlink:href="#SimHei-5f" x="150"/>
      <use xlink:href="#SimHei-4d" x="200"/>
      <use xlink:href="#SimHei-61" x="250"/>
      <use xlink:href="#SimHei-6e" x="300"/>
      <use xlink:href="#SimHei-68" x="350"/>
      <use xlink:href="#SimHei-61" x="400"/>
      <use xlink:href="#SimHei-74" x="450"/>
      <use xlink:href="#SimHei-74" x="500"/>
      <use xlink:href="#SimHei-61" x="550"/>
      <use xlink:href="#SimHei-6e" x="600"/>
     </g>
    </g>
    <g id="line2d_27">
     <path d="M 179.9375 105.26875 
L 189.9375 105.26875 
L 199.9375 105.26875 
" style="fill: none; stroke: #8c564b; stroke-width: 2; stroke-linecap: square"/>
    </g>
    <g id="text_24">
     <!-- dtw_EU -->
     <g transform="translate(207.9375 108.76875)scale(0.1 -0.1)">
      <use xlink:href="#SimHei-64"/>
      <use xlink:href="#SimHei-74" x="50"/>
      <use xlink:href="#SimHei-77" x="100"/>
      <use xlink:href="#SimHei-5f" x="150"/>
      <use xlink:href="#SimHei-45" x="200"/>
      <use xlink:href="#SimHei-55" x="250"/>
     </g>
    </g>
   </g>
  </g>
 </g>
 <defs>
  <clipPath id="pdcc9b2a46c">
   <rect x="31.675" y="26.440625" width="389.525" height="222.290625"/>
  </clipPath>
 </defs>
</svg>
