<?xml version="1.0" encoding="utf-8" standalone="no"?>
<!DOCTYPE svg PUBLIC "-//W3C//DTD SVG 1.1//EN"
  "http://www.w3.org/Graphics/SVG/1.1/DTD/svg11.dtd">
<svg xmlns:xlink="http://www.w3.org/1999/xlink" width="432pt" height="288pt" viewBox="0 0 432 288" xmlns="http://www.w3.org/2000/svg" version="1.1">
 <metadata>
  <rdf:RDF xmlns:dc="http://purl.org/dc/elements/1.1/" xmlns:cc="http://creativecommons.org/ns#" xmlns:rdf="http://www.w3.org/1999/02/22-rdf-syntax-ns#">
   <cc:Work>
    <dc:type rdf:resource="http://purl.org/dc/dcmitype/StillImage"/>
    <dc:date>2023-05-30T17:17:32.761055</dc:date>
    <dc:format>image/svg+xml</dc:format>
    <dc:creator>
     <cc:Agent>
      <dc:title>Matplotlib v3.5.2, https://matplotlib.org/</dc:title>
     </cc:Agent>
    </dc:creator>
   </cc:Work>
  </rdf:RDF>
 </metadata>
 <defs>
  <style type="text/css">*{stroke-linejoin: round; stroke-linecap: butt}</style>
 </defs>
 <g id="figure_1">
  <g id="patch_1">
   <path d="M 0 288 
L 432 288 
L 432 0 
L 0 0 
L 0 288 
z
" style="fill: none"/>
  </g>
  <g id="axes_1">
   <g id="patch_2">
    <path d="M 46.925 248.73125 
L 421.2 248.73125 
L 421.2 26.440625 
L 46.925 26.440625 
z
" style="fill: #ffffff"/>
   </g>
   <g id="matplotlib.axis_1">
    <g id="xtick_1">
     <g id="line2d_1">
      <defs>
       <path id="mb422a16520" d="M 0 0 
L 0 3.5 
" style="stroke: #000000; stroke-width: 0.8"/>
      </defs>
      <g>
       <use xlink:href="#mb422a16520" x="63.9375" y="248.73125" style="stroke: #000000; stroke-width: 0.8"/>
      </g>
     </g>
     <g id="text_1">
      <!-- -200 -->
      <g transform="translate(53.9375 262.60625)scale(0.1 -0.1)">
       <defs>
        <path id="SimHei-2d" d="M 2975 2125 
L 125 2125 
L 125 2525 
L 2975 2525 
L 2975 2125 
z
" transform="scale(0.015625)"/>
        <path id="SimHei-32" d="M 300 250 
Q 325 625 650 925 
Q 975 1225 1475 1862 
Q 1975 2500 2125 2850 
Q 2275 3200 2237 3450 
Q 2200 3700 2000 3862 
Q 1800 4025 1537 4000 
Q 1275 3975 1037 3800 
Q 800 3625 675 3275 
L 200 3350 
Q 400 3925 712 4187 
Q 1025 4450 1450 4475 
Q 1700 4500 1900 4462 
Q 2100 4425 2312 4287 
Q 2525 4150 2662 3875 
Q 2800 3600 2762 3212 
Q 2725 2825 2375 2287 
Q 2025 1750 1025 600 
L 2825 600 
L 2825 150 
L 300 150 
L 300 250 
z
" transform="scale(0.015625)"/>
        <path id="SimHei-30" d="M 225 2537 
Q 250 3200 412 3587 
Q 575 3975 875 4225 
Q 1175 4475 1612 4475 
Q 2050 4475 2375 4112 
Q 2700 3750 2800 3200 
Q 2900 2650 2862 1937 
Q 2825 1225 2612 775 
Q 2400 325 1975 150 
Q 1550 -25 1125 187 
Q 700 400 525 750 
Q 350 1100 275 1487 
Q 200 1875 225 2537 
z
M 750 2687 
Q 675 2000 800 1462 
Q 925 925 1212 700 
Q 1500 475 1800 612 
Q 2100 750 2237 1162 
Q 2375 1575 2375 2062 
Q 2375 2550 2337 2950 
Q 2300 3350 2112 3675 
Q 1925 4000 1612 4012 
Q 1300 4025 1062 3700 
Q 825 3375 750 2687 
z
" transform="scale(0.015625)"/>
       </defs>
       <use xlink:href="#SimHei-2d"/>
       <use xlink:href="#SimHei-32" x="50"/>
       <use xlink:href="#SimHei-30" x="100"/>
       <use xlink:href="#SimHei-30" x="150"/>
      </g>
     </g>
    </g>
    <g id="xtick_2">
     <g id="line2d_2">
      <g>
       <use xlink:href="#mb422a16520" x="106.46875" y="248.73125" style="stroke: #000000; stroke-width: 0.8"/>
      </g>
     </g>
     <g id="text_2">
      <!-- -150 -->
      <g transform="translate(96.46875 262.60625)scale(0.1 -0.1)">
       <defs>
        <path id="SimHei-31" d="M 1400 3600 
Q 1075 3275 575 2975 
L 575 3450 
Q 1200 3875 1600 4450 
L 1900 4450 
L 1900 150 
L 1400 150 
L 1400 3600 
z
" transform="scale(0.015625)"/>
        <path id="SimHei-35" d="M 550 1325 
Q 725 650 1150 575 
Q 1575 500 1837 662 
Q 2100 825 2212 1087 
Q 2325 1350 2312 1675 
Q 2300 2000 2137 2225 
Q 1975 2450 1725 2525 
Q 1475 2600 1162 2525 
Q 850 2450 650 2175 
L 225 2225 
Q 275 2375 700 4375 
L 2675 4375 
L 2675 3925 
L 1075 3925 
Q 950 3250 825 2850 
Q 1200 3025 1525 3012 
Q 1850 3000 2150 2862 
Q 2450 2725 2587 2487 
Q 2725 2250 2787 2012 
Q 2850 1775 2837 1500 
Q 2825 1225 2725 937 
Q 2625 650 2425 462 
Q 2225 275 1937 162 
Q 1650 50 1275 75 
Q 900 100 562 350 
Q 225 600 100 1200 
L 550 1325 
z
" transform="scale(0.015625)"/>
       </defs>
       <use xlink:href="#SimHei-2d"/>
       <use xlink:href="#SimHei-31" x="50"/>
       <use xlink:href="#SimHei-35" x="100"/>
       <use xlink:href="#SimHei-30" x="150"/>
      </g>
     </g>
    </g>
    <g id="xtick_3">
     <g id="line2d_3">
      <g>
       <use xlink:href="#mb422a16520" x="149" y="248.73125" style="stroke: #000000; stroke-width: 0.8"/>
      </g>
     </g>
     <g id="text_3">
      <!-- -100 -->
      <g transform="translate(139 262.60625)scale(0.1 -0.1)">
       <use xlink:href="#SimHei-2d"/>
       <use xlink:href="#SimHei-31" x="50"/>
       <use xlink:href="#SimHei-30" x="100"/>
       <use xlink:href="#SimHei-30" x="150"/>
      </g>
     </g>
    </g>
    <g id="xtick_4">
     <g id="line2d_4">
      <g>
       <use xlink:href="#mb422a16520" x="191.53125" y="248.73125" style="stroke: #000000; stroke-width: 0.8"/>
      </g>
     </g>
     <g id="text_4">
      <!-- -50 -->
      <g transform="translate(184.03125 262.60625)scale(0.1 -0.1)">
       <use xlink:href="#SimHei-2d"/>
       <use xlink:href="#SimHei-35" x="50"/>
       <use xlink:href="#SimHei-30" x="100"/>
      </g>
     </g>
    </g>
    <g id="xtick_5">
     <g id="line2d_5">
      <g>
       <use xlink:href="#mb422a16520" x="234.0625" y="248.73125" style="stroke: #000000; stroke-width: 0.8"/>
      </g>
     </g>
     <g id="text_5">
      <!-- 0 -->
      <g transform="translate(231.5625 262.60625)scale(0.1 -0.1)">
       <use xlink:href="#SimHei-30"/>
      </g>
     </g>
    </g>
    <g id="xtick_6">
     <g id="line2d_6">
      <g>
       <use xlink:href="#mb422a16520" x="276.59375" y="248.73125" style="stroke: #000000; stroke-width: 0.8"/>
      </g>
     </g>
     <g id="text_6">
      <!-- 50 -->
      <g transform="translate(271.59375 262.60625)scale(0.1 -0.1)">
       <use xlink:href="#SimHei-35"/>
       <use xlink:href="#SimHei-30" x="50"/>
      </g>
     </g>
    </g>
    <g id="xtick_7">
     <g id="line2d_7">
      <g>
       <use xlink:href="#mb422a16520" x="319.125" y="248.73125" style="stroke: #000000; stroke-width: 0.8"/>
      </g>
     </g>
     <g id="text_7">
      <!-- 100 -->
      <g transform="translate(311.625 262.60625)scale(0.1 -0.1)">
       <use xlink:href="#SimHei-31"/>
       <use xlink:href="#SimHei-30" x="50"/>
       <use xlink:href="#SimHei-30" x="100"/>
      </g>
     </g>
    </g>
    <g id="xtick_8">
     <g id="line2d_8">
      <g>
       <use xlink:href="#mb422a16520" x="361.65625" y="248.73125" style="stroke: #000000; stroke-width: 0.8"/>
      </g>
     </g>
     <g id="text_8">
      <!-- 150 -->
      <g transform="translate(354.15625 262.60625)scale(0.1 -0.1)">
       <use xlink:href="#SimHei-31"/>
       <use xlink:href="#SimHei-35" x="50"/>
       <use xlink:href="#SimHei-30" x="100"/>
      </g>
     </g>
    </g>
    <g id="xtick_9">
     <g id="line2d_9">
      <g>
       <use xlink:href="#mb422a16520" x="404.1875" y="248.73125" style="stroke: #000000; stroke-width: 0.8"/>
      </g>
     </g>
     <g id="text_9">
      <!-- 200 -->
      <g transform="translate(396.6875 262.60625)scale(0.1 -0.1)">
       <use xlink:href="#SimHei-32"/>
       <use xlink:href="#SimHei-30" x="50"/>
       <use xlink:href="#SimHei-30" x="100"/>
      </g>
     </g>
    </g>
    <g id="text_10">
     <!-- 干扰强度 -->
     <g transform="translate(214.0625 275.864062)scale(0.1 -0.1)">
      <defs>
       <path id="SimHei-5e72" d="M 4625 4775 
Q 5050 4775 5500 4800 
L 5500 4300 
Q 5050 4325 4625 4325 
L 3475 4325 
L 3475 2525 
L 5225 2525 
Q 5700 2525 6000 2550 
L 6000 2050 
Q 5700 2075 5225 2075 
L 3475 2075 
L 3475 325 
Q 3475 -75 3500 -625 
L 2925 -625 
Q 2950 -100 2950 325 
L 2950 2075 
L 1225 2075 
Q 775 2075 400 2050 
L 400 2550 
Q 775 2525 1225 2525 
L 2950 2525 
L 2950 4325 
L 1925 4325 
Q 1450 4325 925 4300 
L 925 4800 
Q 1450 4775 1800 4775 
L 4625 4775 
z
" transform="scale(0.015625)"/>
       <path id="SimHei-6270" d="M 4575 425 
Q 4575 0 4950 0 
L 5250 0 
Q 5400 0 5450 150 
Q 5500 300 5500 575 
Q 5750 425 6025 375 
Q 5950 50 5862 -175 
Q 5775 -400 5500 -425 
L 4825 -425 
Q 4125 -425 4125 300 
L 4125 3075 
L 3875 3075 
Q 3800 1550 3375 725 
Q 2950 -100 2425 -575 
Q 2275 -375 1950 -275 
Q 2375 25 2687 487 
Q 3000 950 3187 1537 
Q 3375 2125 3400 3075 
Q 3000 3075 2650 3050 
L 2650 3500 
Q 2975 3475 3400 3475 
Q 3425 4225 3375 5125 
Q 3700 5100 3950 5075 
Q 3900 4925 3887 4550 
Q 3875 4175 3875 3475 
L 5050 3475 
Q 5575 3475 5850 3500 
L 5850 3050 
Q 5550 3075 5100 3075 
L 4575 3075 
L 4575 425 
z
M 1775 5150 
Q 1750 4750 1750 3675 
Q 2000 3675 2425 3700 
L 2425 3250 
Q 2000 3275 1750 3275 
L 1750 2275 
Q 2025 2400 2350 2575 
Q 2325 2400 2375 2125 
Q 2175 2050 1750 1825 
L 1750 0 
Q 1750 -325 1512 -450 
Q 1275 -575 825 -650 
Q 800 -350 600 -125 
Q 1275 -125 1275 100 
L 1275 1650 
Q 850 1425 575 1275 
Q 475 1525 325 1750 
Q 675 1850 1275 2100 
L 1275 3275 
Q 725 3275 450 3250 
L 450 3700 
Q 800 3675 1275 3675 
Q 1275 4675 1250 5150 
L 1775 5150 
z
M 5200 3750 
Q 4825 4300 4450 4675 
Q 4650 4800 4800 4975 
Q 5175 4550 5600 4025 
Q 5450 3950 5200 3750 
z
" transform="scale(0.015625)"/>
       <path id="SimHei-5f3a" d="M 2350 25 
Q 3100 75 3950 225 
L 3950 1200 
L 3100 1200 
L 3100 975 
L 2625 975 
Q 2650 1725 2650 2050 
L 2650 2875 
L 3950 2875 
L 3950 3500 
L 2850 3500 
Q 2875 3900 2875 4275 
Q 2875 4675 2850 5025 
L 5525 5025 
Q 5500 4675 5500 4275 
Q 5500 3900 5525 3500 
L 4400 3500 
L 4400 2875 
L 5750 2875 
Q 5725 2575 5725 2075 
Q 5725 1575 5750 1200 
L 4400 1200 
L 4400 275 
L 5250 425 
Q 5150 575 5050 750 
Q 5300 825 5475 925 
Q 5925 200 6175 -250 
Q 5925 -350 5725 -500 
Q 5625 -250 5425 100 
Q 5125 50 4225 -137 
Q 3325 -325 2600 -525 
Q 2525 -200 2350 25 
z
M 600 -25 
Q 1250 -25 1400 50 
Q 1550 125 1575 325 
L 1675 1850 
L 500 1850 
Q 550 2350 562 2762 
Q 575 3175 575 3575 
L 1800 3575 
L 1800 4550 
L 1275 4550 
Q 825 4550 425 4525 
L 425 4950 
Q 850 4925 1275 4925 
L 2275 4925 
Q 2250 4525 2250 4075 
Q 2250 3650 2275 3200 
L 1075 3200 
L 1025 2225 
L 2175 2225 
Q 2125 1775 2100 1425 
L 2025 150 
Q 1975 -250 1637 -387 
Q 1300 -525 850 -600 
Q 775 -275 600 -25 
z
M 5050 3875 
L 5050 4650 
L 3325 4650 
L 3325 3875 
L 5050 3875 
z
M 3950 1575 
L 3950 2500 
L 3100 2500 
L 3100 1575 
L 3950 1575 
z
M 5250 1575 
L 5250 2500 
L 4400 2500 
L 4400 1575 
L 5250 1575 
z
" transform="scale(0.015625)"/>
       <path id="SimHei-5ea6" d="M 1750 1675 
Q 2450 1650 2875 1650 
L 5200 1650 
Q 4975 1250 4650 850 
Q 4325 450 4025 200 
Q 4350 50 4950 -50 
Q 5550 -150 6100 -150 
Q 5950 -300 5825 -650 
Q 5100 -550 4550 -412 
Q 4000 -275 3625 -100 
Q 3100 -325 2587 -462 
Q 2075 -600 1525 -675 
Q 1450 -475 1225 -250 
Q 1675 -250 2250 -125 
Q 2825 0 3250 200 
Q 2825 550 2400 1275 
L 1750 1250 
L 1750 1675 
z
M 2975 5075 
Q 3250 5150 3475 5250 
Q 3625 4975 3775 4525 
L 4700 4525 
Q 4975 4525 5700 4550 
L 5700 4100 
Q 5000 4125 4650 4125 
L 1375 4125 
Q 1375 3000 1350 2312 
Q 1325 1625 1212 950 
Q 1100 275 725 -525 
Q 500 -375 250 -300 
Q 650 400 762 1075 
Q 875 1750 887 2800 
Q 900 3850 875 4525 
L 3200 4525 
Q 3100 4850 2975 5075 
z
M 2475 3300 
Q 2475 3700 2450 3925 
L 2975 3925 
Q 2950 3725 2950 3300 
L 4300 3300 
Q 4300 3700 4275 3950 
L 4800 3950 
Q 4775 3650 4775 3300 
Q 5325 3300 5725 3325 
L 5725 2900 
Q 5350 2925 4775 2925 
Q 4775 2250 4800 1950 
L 2450 1950 
Q 2475 2350 2475 2925 
Q 2175 2925 1600 2900 
L 1600 3325 
Q 2175 3300 2475 3300 
z
M 4300 2350 
L 4300 2925 
L 2950 2925 
L 2950 2350 
L 4300 2350 
z
M 2875 1275 
Q 3200 775 3650 425 
Q 4025 700 4425 1275 
L 2900 1275 
L 2875 1275 
z
" transform="scale(0.015625)"/>
      </defs>
      <use xlink:href="#SimHei-5e72"/>
      <use xlink:href="#SimHei-6270" x="100"/>
      <use xlink:href="#SimHei-5f3a" x="200"/>
      <use xlink:href="#SimHei-5ea6" x="300"/>
     </g>
    </g>
   </g>
   <g id="matplotlib.axis_2">
    <g id="ytick_1">
     <g id="line2d_10">
      <defs>
       <path id="mcaae390be5" d="M 0 0 
L -3.5 0 
" style="stroke: #000000; stroke-width: 0.8"/>
      </defs>
      <g>
       <use xlink:href="#mcaae390be5" x="46.925" y="238.627131" style="stroke: #000000; stroke-width: 0.8"/>
      </g>
     </g>
     <g id="text_11">
      <!-- 0.000 -->
      <g transform="translate(14.925 242.064631)scale(0.1 -0.1)">
       <defs>
        <path id="SimHei-2e" d="M 1075 125 
L 500 125 
L 500 675 
L 1075 675 
L 1075 125 
z
" transform="scale(0.015625)"/>
       </defs>
       <use xlink:href="#SimHei-30"/>
       <use xlink:href="#SimHei-2e" x="50"/>
       <use xlink:href="#SimHei-30" x="100"/>
       <use xlink:href="#SimHei-30" x="150"/>
       <use xlink:href="#SimHei-30" x="200"/>
      </g>
     </g>
    </g>
    <g id="ytick_2">
     <g id="line2d_11">
      <g>
       <use xlink:href="#mcaae390be5" x="46.925" y="206.406181" style="stroke: #000000; stroke-width: 0.8"/>
      </g>
     </g>
     <g id="text_12">
      <!-- 0.005 -->
      <g transform="translate(14.925 209.843681)scale(0.1 -0.1)">
       <use xlink:href="#SimHei-30"/>
       <use xlink:href="#SimHei-2e" x="50"/>
       <use xlink:href="#SimHei-30" x="100"/>
       <use xlink:href="#SimHei-30" x="150"/>
       <use xlink:href="#SimHei-35" x="200"/>
      </g>
     </g>
    </g>
    <g id="ytick_3">
     <g id="line2d_12">
      <g>
       <use xlink:href="#mcaae390be5" x="46.925" y="174.185231" style="stroke: #000000; stroke-width: 0.8"/>
      </g>
     </g>
     <g id="text_13">
      <!-- 0.010 -->
      <g transform="translate(14.925 177.622731)scale(0.1 -0.1)">
       <use xlink:href="#SimHei-30"/>
       <use xlink:href="#SimHei-2e" x="50"/>
       <use xlink:href="#SimHei-30" x="100"/>
       <use xlink:href="#SimHei-31" x="150"/>
       <use xlink:href="#SimHei-30" x="200"/>
      </g>
     </g>
    </g>
    <g id="ytick_4">
     <g id="line2d_13">
      <g>
       <use xlink:href="#mcaae390be5" x="46.925" y="141.964281" style="stroke: #000000; stroke-width: 0.8"/>
      </g>
     </g>
     <g id="text_14">
      <!-- 0.015 -->
      <g transform="translate(14.925 145.401781)scale(0.1 -0.1)">
       <use xlink:href="#SimHei-30"/>
       <use xlink:href="#SimHei-2e" x="50"/>
       <use xlink:href="#SimHei-30" x="100"/>
       <use xlink:href="#SimHei-31" x="150"/>
       <use xlink:href="#SimHei-35" x="200"/>
      </g>
     </g>
    </g>
    <g id="ytick_5">
     <g id="line2d_14">
      <g>
       <use xlink:href="#mcaae390be5" x="46.925" y="109.743331" style="stroke: #000000; stroke-width: 0.8"/>
      </g>
     </g>
     <g id="text_15">
      <!-- 0.020 -->
      <g transform="translate(14.925 113.180831)scale(0.1 -0.1)">
       <use xlink:href="#SimHei-30"/>
       <use xlink:href="#SimHei-2e" x="50"/>
       <use xlink:href="#SimHei-30" x="100"/>
       <use xlink:href="#SimHei-32" x="150"/>
       <use xlink:href="#SimHei-30" x="200"/>
      </g>
     </g>
    </g>
    <g id="ytick_6">
     <g id="line2d_15">
      <g>
       <use xlink:href="#mcaae390be5" x="46.925" y="77.522382" style="stroke: #000000; stroke-width: 0.8"/>
      </g>
     </g>
     <g id="text_16">
      <!-- 0.025 -->
      <g transform="translate(14.925 80.959882)scale(0.1 -0.1)">
       <use xlink:href="#SimHei-30"/>
       <use xlink:href="#SimHei-2e" x="50"/>
       <use xlink:href="#SimHei-30" x="100"/>
       <use xlink:href="#SimHei-32" x="150"/>
       <use xlink:href="#SimHei-35" x="200"/>
      </g>
     </g>
    </g>
    <g id="ytick_7">
     <g id="line2d_16">
      <g>
       <use xlink:href="#mcaae390be5" x="46.925" y="45.301432" style="stroke: #000000; stroke-width: 0.8"/>
      </g>
     </g>
     <g id="text_17">
      <!-- 0.030 -->
      <g transform="translate(14.925 48.738932)scale(0.1 -0.1)">
       <defs>
        <path id="SimHei-33" d="M 250 1225 
L 700 1300 
Q 800 975 1025 762 
Q 1250 550 1587 562 
Q 1925 575 2125 837 
Q 2325 1100 2300 1437 
Q 2275 1775 2037 1962 
Q 1800 2150 1275 2225 
L 1275 2550 
Q 1800 2600 2037 2825 
Q 2275 3050 2250 3412 
Q 2225 3775 1925 3937 
Q 1625 4100 1287 3975 
Q 950 3850 750 3275 
L 300 3350 
Q 450 3800 712 4100 
Q 975 4400 1425 4450 
Q 1875 4500 2212 4337 
Q 2550 4175 2687 3837 
Q 2825 3500 2725 3100 
Q 2625 2700 2150 2400 
Q 2500 2250 2687 1950 
Q 2875 1650 2812 1162 
Q 2750 675 2375 375 
Q 2000 75 1525 87 
Q 1050 100 700 387 
Q 350 675 250 1225 
z
" transform="scale(0.015625)"/>
       </defs>
       <use xlink:href="#SimHei-30"/>
       <use xlink:href="#SimHei-2e" x="50"/>
       <use xlink:href="#SimHei-30" x="100"/>
       <use xlink:href="#SimHei-33" x="150"/>
       <use xlink:href="#SimHei-30" x="200"/>
      </g>
     </g>
    </g>
    <g id="text_18">
     <!-- avg of abs(dis2-dis1)/(dis1+1) -->
     <g transform="translate(12.175 62.585938)rotate(-270)scale(0.1 -0.1)">
      <defs>
       <path id="SimHei-61" d="M 2875 125 
L 2275 125 
Q 2225 175 2200 262 
Q 2175 350 2175 475 
Q 2000 275 1750 175 
Q 1500 75 1225 75 
Q 825 75 550 275 
Q 275 475 275 850 
Q 275 1225 525 1450 
Q 775 1675 1300 1750 
Q 1650 1800 1912 1875 
Q 2175 1950 2175 2075 
Q 2175 2225 2062 2375 
Q 1950 2525 1575 2525 
Q 1275 2525 1137 2412 
Q 1000 2300 950 2100 
L 400 2100 
Q 450 2500 762 2737 
Q 1075 2975 1575 2975 
Q 2125 2975 2400 2725 
Q 2675 2475 2675 2025 
L 2675 650 
Q 2675 500 2725 375 
Q 2775 250 2875 125 
z
M 2175 1050 
L 2175 1550 
Q 2025 1500 1887 1462 
Q 1750 1425 1425 1375 
Q 1050 1325 937 1200 
Q 825 1075 825 900 
Q 825 750 937 637 
Q 1050 525 1275 525 
Q 1500 525 1762 650 
Q 2025 775 2175 1050 
z
" transform="scale(0.015625)"/>
       <path id="SimHei-76" d="M 2875 2925 
L 1825 75 
L 1275 75 
L 225 2925 
L 750 2925 
L 1525 750 
L 1575 750 
L 2350 2925 
L 2875 2925 
z
" transform="scale(0.015625)"/>
       <path id="SimHei-67" d="M 2975 2500 
Q 2800 2550 2637 2562 
Q 2475 2575 2300 2525 
Q 2375 2450 2425 2337 
Q 2475 2225 2475 2000 
Q 2475 1575 2187 1300 
Q 1900 1025 1475 1025 
Q 1375 1025 1212 1062 
Q 1050 1100 950 1150 
Q 875 1100 850 1050 
Q 825 1000 825 925 
Q 825 800 1000 737 
Q 1175 675 1625 675 
Q 2350 675 2612 475 
Q 2875 275 2875 -25 
Q 2875 -425 2487 -612 
Q 2100 -800 1575 -800 
Q 900 -800 575 -625 
Q 250 -450 250 -150 
Q 250 0 375 150 
Q 500 300 700 400 
Q 550 475 462 587 
Q 375 700 375 875 
Q 375 1025 487 1137 
Q 600 1250 750 1325 
Q 625 1450 550 1625 
Q 475 1800 475 2000 
Q 475 2425 762 2700 
Q 1050 2975 1475 2975 
Q 1700 2975 1862 2912 
Q 2025 2850 2150 2725 
Q 2350 2875 2550 2937 
Q 2750 3000 2975 2975 
L 2975 2500 
z
M 1975 2000 
Q 1975 2250 1850 2400 
Q 1725 2550 1475 2550 
Q 1225 2550 1100 2400 
Q 975 2250 975 2000 
Q 975 1750 1100 1600 
Q 1225 1450 1475 1450 
Q 1725 1450 1850 1600 
Q 1975 1750 1975 2000 
z
M 2400 -75 
Q 2400 25 2287 125 
Q 2175 225 1725 225 
Q 1625 225 1450 237 
Q 1275 250 1050 275 
Q 850 200 775 100 
Q 700 0 700 -100 
Q 700 -250 900 -350 
Q 1100 -450 1600 -450 
Q 2025 -450 2212 -337 
Q 2400 -225 2400 -75 
z
" transform="scale(0.015625)"/>
       <path id="SimHei-20" transform="scale(0.015625)"/>
       <path id="SimHei-6f" d="M 2925 1525 
Q 2925 875 2525 475 
Q 2125 75 1575 75 
Q 1025 75 625 475 
Q 225 875 225 1525 
Q 225 2175 625 2575 
Q 1025 2975 1575 2975 
Q 2125 2975 2525 2575 
Q 2925 2175 2925 1525 
z
M 2375 1525 
Q 2375 2025 2125 2275 
Q 1875 2525 1575 2525 
Q 1275 2525 1025 2275 
Q 775 2025 775 1525 
Q 775 1025 1025 775 
Q 1275 525 1575 525 
Q 1875 525 2125 775 
Q 2375 1025 2375 1525 
z
" transform="scale(0.015625)"/>
       <path id="SimHei-66" d="M 2850 3825 
Q 2725 3900 2550 3950 
Q 2375 4000 2100 4000 
Q 1825 4000 1725 3862 
Q 1625 3725 1625 3525 
L 1625 2925 
L 2650 2925 
L 2650 2525 
L 1625 2525 
L 1625 125 
L 1125 125 
L 1125 2525 
L 275 2525 
L 275 2925 
L 1125 2925 
L 1125 3500 
Q 1125 3950 1400 4200 
Q 1675 4450 2125 4450 
Q 2400 4450 2562 4412 
Q 2725 4375 2850 4325 
L 2850 3825 
z
" transform="scale(0.015625)"/>
       <path id="SimHei-62" d="M 2825 1525 
Q 2825 800 2475 437 
Q 2125 75 1625 75 
Q 1350 75 1150 175 
Q 950 275 800 500 
L 800 125 
L 300 125 
L 300 4400 
L 800 4400 
L 800 2550 
Q 950 2775 1150 2887 
Q 1350 3000 1625 3000 
Q 2125 3000 2475 2625 
Q 2825 2250 2825 1525 
z
M 2275 1525 
Q 2275 2000 2087 2275 
Q 1900 2550 1525 2550 
Q 1225 2550 1012 2275 
Q 800 2000 800 1525 
Q 800 1050 1012 787 
Q 1225 525 1525 525 
Q 1900 525 2087 787 
Q 2275 1050 2275 1525 
z
" transform="scale(0.015625)"/>
       <path id="SimHei-73" d="M 2750 900 
Q 2750 500 2437 287 
Q 2125 75 1650 75 
Q 1050 75 725 312 
Q 400 550 400 1000 
L 900 1000 
Q 900 700 1112 600 
Q 1325 500 1625 500 
Q 1925 500 2075 612 
Q 2225 725 2225 900 
Q 2225 1025 2100 1150 
Q 1975 1275 1475 1350 
Q 900 1425 687 1637 
Q 475 1850 475 2200 
Q 475 2500 762 2737 
Q 1050 2975 1600 2975 
Q 2100 2975 2387 2750 
Q 2675 2525 2675 2150 
L 2175 2150 
Q 2175 2375 2012 2462 
Q 1850 2550 1600 2550 
Q 1275 2550 1137 2437 
Q 1000 2325 1000 2175 
Q 1000 2000 1125 1900 
Q 1250 1800 1650 1750 
Q 2300 1650 2525 1437 
Q 2750 1225 2750 900 
z
" transform="scale(0.015625)"/>
       <path id="SimHei-28" d="M 2975 -200 
L 2700 -475 
Q 2075 125 1762 775 
Q 1450 1425 1450 2250 
Q 1450 3075 1762 3725 
Q 2075 4375 2700 5000 
L 2975 4725 
Q 2400 4175 2112 3587 
Q 1825 3000 1825 2250 
Q 1825 1500 2112 912 
Q 2400 325 2975 -200 
z
" transform="scale(0.015625)"/>
       <path id="SimHei-64" d="M 2750 125 
L 2250 125 
L 2250 500 
Q 2100 275 1900 175 
Q 1700 75 1425 75 
Q 925 75 575 437 
Q 225 800 225 1525 
Q 225 2250 575 2625 
Q 925 3000 1425 3000 
Q 1700 3000 1900 2887 
Q 2100 2775 2250 2550 
L 2250 4400 
L 2750 4400 
L 2750 125 
z
M 2250 1525 
Q 2250 2000 2037 2275 
Q 1825 2550 1525 2550 
Q 1150 2550 962 2275 
Q 775 2000 775 1525 
Q 775 1050 962 787 
Q 1150 525 1525 525 
Q 1825 525 2037 787 
Q 2250 1050 2250 1525 
z
" transform="scale(0.015625)"/>
       <path id="SimHei-69" d="M 1800 3725 
L 1300 3725 
L 1300 4375 
L 1800 4375 
L 1800 3725 
z
M 1800 125 
L 1300 125 
L 1300 2925 
L 1800 2925 
L 1800 125 
z
" transform="scale(0.015625)"/>
       <path id="SimHei-29" d="M 1675 2250 
Q 1675 1425 1362 775 
Q 1050 125 425 -475 
L 150 -200 
Q 725 325 1012 912 
Q 1300 1500 1300 2250 
Q 1300 3000 1012 3587 
Q 725 4175 150 4725 
L 425 5000 
Q 1050 4375 1362 3725 
Q 1675 3075 1675 2250 
z
" transform="scale(0.015625)"/>
       <path id="SimHei-2f" d="M 3000 4550 
L 350 -175 
L 100 -25 
L 2750 4700 
L 3000 4550 
z
" transform="scale(0.015625)"/>
       <path id="SimHei-2b" d="M 3000 2125 
L 1775 2125 
L 1775 900 
L 1350 900 
L 1350 2125 
L 125 2125 
L 125 2525 
L 1350 2525 
L 1350 3750 
L 1775 3750 
L 1775 2525 
L 3000 2525 
L 3000 2125 
z
" transform="scale(0.015625)"/>
      </defs>
      <use xlink:href="#SimHei-61"/>
      <use xlink:href="#SimHei-76" x="50"/>
      <use xlink:href="#SimHei-67" x="100"/>
      <use xlink:href="#SimHei-20" x="150"/>
      <use xlink:href="#SimHei-6f" x="200"/>
      <use xlink:href="#SimHei-66" x="250"/>
      <use xlink:href="#SimHei-20" x="300"/>
      <use xlink:href="#SimHei-61" x="350"/>
      <use xlink:href="#SimHei-62" x="400"/>
      <use xlink:href="#SimHei-73" x="450"/>
      <use xlink:href="#SimHei-28" x="500"/>
      <use xlink:href="#SimHei-64" x="550"/>
      <use xlink:href="#SimHei-69" x="600"/>
      <use xlink:href="#SimHei-73" x="650"/>
      <use xlink:href="#SimHei-32" x="700"/>
      <use xlink:href="#SimHei-2d" x="750"/>
      <use xlink:href="#SimHei-64" x="800"/>
      <use xlink:href="#SimHei-69" x="850"/>
      <use xlink:href="#SimHei-73" x="900"/>
      <use xlink:href="#SimHei-31" x="950"/>
      <use xlink:href="#SimHei-29" x="1000"/>
      <use xlink:href="#SimHei-2f" x="1050"/>
      <use xlink:href="#SimHei-28" x="1100"/>
      <use xlink:href="#SimHei-64" x="1150"/>
      <use xlink:href="#SimHei-69" x="1200"/>
      <use xlink:href="#SimHei-73" x="1250"/>
      <use xlink:href="#SimHei-31" x="1300"/>
      <use xlink:href="#SimHei-2b" x="1350"/>
      <use xlink:href="#SimHei-31" x="1400"/>
      <use xlink:href="#SimHei-29" x="1450"/>
     </g>
    </g>
   </g>
   <g id="line2d_17">
    <path d="M 63.9375 135.707945 
L 64.788125 141.882512 
L 65.63875 141.785873 
L 66.489375 136.800217 
L 67.34 148.221096 
L 68.190625 141.749979 
L 69.04125 145.596181 
L 69.891875 147.788231 
L 70.7425 144.431167 
L 71.593125 145.927545 
L 72.44375 142.777612 
L 73.294375 143.81514 
L 74.145 145.576897 
L 74.995625 146.628202 
L 75.84625 146.97795 
L 76.696875 150.632751 
L 77.5475 148.494614 
L 78.398125 149.968048 
L 79.24875 152.847918 
L 80.099375 148.590072 
L 80.95 154.811097 
L 81.800625 155.592035 
L 82.65125 153.093825 
L 83.501875 155.030982 
L 84.3525 151.377139 
L 86.05375 157.162351 
L 86.904375 154.956285 
L 87.755 160.270126 
L 88.605625 158.916945 
L 89.45625 159.924105 
L 90.306875 157.048115 
L 91.1575 157.750262 
L 92.85875 161.885245 
L 93.709375 159.29501 
L 94.56 158.617405 
L 95.410625 164.774124 
L 96.26125 164.734818 
L 98.813125 161.916122 
L 99.66375 160.018987 
L 100.514375 163.18573 
L 101.365 167.172282 
L 102.215625 166.15085 
L 103.06625 167.418421 
L 103.916875 165.839228 
L 104.7675 169.701233 
L 105.618125 168.625305 
L 106.46875 171.546489 
L 107.319375 169.505975 
L 108.17 170.516495 
L 109.020625 171.790895 
L 109.87125 169.960485 
L 110.721875 174.060384 
L 111.5725 172.615918 
L 112.423125 174.076785 
L 113.27375 173.837459 
L 114.124375 176.549297 
L 114.975 177.352982 
L 115.825625 174.3472 
L 116.67625 176.227324 
L 117.526875 176.527185 
L 118.3775 176.19509 
L 119.228125 178.925912 
L 120.07875 179.885574 
L 120.929375 177.778388 
L 121.78 181.516934 
L 122.630625 179.458315 
L 123.48125 179.901906 
L 124.331875 178.625747 
L 125.1825 181.862859 
L 126.033125 182.380316 
L 126.88375 182.472158 
L 127.734375 181.065218 
L 128.585 182.741327 
L 129.435625 182.366911 
L 130.28625 186.485608 
L 131.136875 184.451225 
L 131.9875 184.237297 
L 132.838125 185.012735 
L 133.68875 186.862777 
L 134.539375 186.521689 
L 135.39 187.338286 
L 136.240625 186.458523 
L 137.09125 183.588246 
L 137.941875 186.474392 
L 138.7925 190.053038 
L 139.643125 185.837823 
L 140.49375 190.37406 
L 141.344375 188.771375 
L 142.195 189.309534 
L 143.045625 193.982467 
L 143.89625 190.512246 
L 144.746875 191.77406 
L 145.5975 192.494895 
L 146.448125 193.639044 
L 147.29875 193.619457 
L 149 194.258656 
L 149.850625 192.163814 
L 150.70125 194.956842 
L 151.551875 195.953366 
L 152.4025 197.785231 
L 153.253125 198.519111 
L 154.10375 196.912524 
L 154.954375 199.13719 
L 155.805 198.304761 
L 156.655625 198.524385 
L 157.50625 199.660527 
L 158.356875 199.657669 
L 159.2075 200.80171 
L 160.058125 199.95252 
L 160.90875 202.484586 
L 161.759375 201.171621 
L 162.61 200.305421 
L 163.460625 203.365264 
L 164.31125 203.108994 
L 165.161875 202.540557 
L 166.863125 203.531358 
L 167.71375 205.950181 
L 168.564375 206.67186 
L 169.415 204.899466 
L 170.265625 205.123881 
L 171.11625 207.605052 
L 171.966875 206.657426 
L 172.8175 207.644236 
L 173.668125 209.492101 
L 174.51875 208.040166 
L 175.369375 208.681532 
L 176.22 209.835385 
L 177.92125 210.974464 
L 178.771875 210.275163 
L 179.6225 211.395384 
L 180.473125 212.80039 
L 181.32375 211.779899 
L 182.174375 213.597735 
L 183.025 214.557844 
L 183.875625 213.572723 
L 184.72625 213.682965 
L 185.576875 215.069566 
L 186.4275 214.281654 
L 187.278125 214.081612 
L 188.12875 214.859554 
L 188.979375 215.857907 
L 189.83 216.168009 
L 190.680625 217.935896 
L 191.53125 218.088739 
L 192.381875 217.305609 
L 193.2325 218.592584 
L 194.083125 218.911591 
L 194.93375 219.622668 
L 195.784375 220.079647 
L 196.635 219.555702 
L 197.485625 220.606127 
L 198.33625 221.324519 
L 199.186875 221.512264 
L 200.0375 220.867756 
L 200.888125 222.411478 
L 201.73875 222.585464 
L 202.589375 222.918482 
L 203.44 223.536165 
L 204.290625 223.990165 
L 205.14125 225.245137 
L 205.991875 224.740957 
L 206.8425 224.823187 
L 207.693125 225.552329 
L 209.394375 226.588123 
L 211.095625 226.78519 
L 211.94625 227.598488 
L 212.796875 228.152229 
L 214.498125 228.612509 
L 216.199375 230.082684 
L 217.05 230.220042 
L 217.900625 230.896094 
L 220.4525 231.940454 
L 221.303125 232.56364 
L 223.004375 233.312438 
L 224.705625 233.920025 
L 225.55625 234.502382 
L 226.406875 234.782247 
L 227.2575 235.407909 
L 228.108125 235.628979 
L 228.95875 236.19066 
L 231.510625 237.320327 
L 234.0625 238.627131 
L 237.465 236.943736 
L 240.016875 235.654289 
L 240.8675 235.320745 
L 241.718125 234.767735 
L 244.27 233.492125 
L 245.120625 232.931444 
L 245.97125 232.574605 
L 246.821875 232.482157 
L 247.6725 232.16364 
L 248.523125 231.224149 
L 250.224375 230.812508 
L 251.925625 229.52247 
L 253.626875 229.003244 
L 254.4775 228.453146 
L 255.328125 228.461126 
L 256.17875 228.284799 
L 257.029375 227.657683 
L 257.88 226.89176 
L 258.730625 226.372122 
L 259.58125 226.061082 
L 260.431875 225.019536 
L 261.2825 225.490203 
L 262.133125 223.758855 
L 263.834375 224.021026 
L 265.535625 222.931727 
L 266.38625 222.946517 
L 267.236875 220.834629 
L 268.0875 220.809112 
L 268.938125 221.867361 
L 270.639375 220.184262 
L 271.49 218.639866 
L 272.340625 219.116692 
L 273.19125 219.399997 
L 274.041875 219.09999 
L 275.743125 217.435579 
L 276.59375 217.599657 
L 277.444375 216.765486 
L 278.295 216.415779 
L 279.145625 215.02291 
L 279.99625 214.720234 
L 280.846875 215.046386 
L 281.6975 215.073452 
L 282.548125 214.946521 
L 283.39875 213.914695 
L 284.249375 213.356953 
L 285.1 213.046177 
L 285.950625 212.57377 
L 286.80125 211.663603 
L 287.651875 212.427589 
L 288.5025 211.679896 
L 289.353125 212.147529 
L 290.20375 211.25914 
L 291.905 210.022746 
L 292.755625 209.840376 
L 293.60625 207.37548 
L 294.456875 206.178324 
L 295.3075 209.092287 
L 296.158125 206.749664 
L 297.00875 206.185898 
L 297.859375 206.156007 
L 298.71 206.244615 
L 299.560625 205.423788 
L 300.41125 206.247123 
L 301.261875 203.616112 
L 302.1125 205.284908 
L 302.963125 202.544619 
L 303.81375 200.62366 
L 304.664375 204.412084 
L 305.515 204.068177 
L 306.365625 202.371506 
L 308.066875 199.970668 
L 308.9175 199.703232 
L 309.768125 200.182204 
L 310.61875 197.674432 
L 311.469375 199.482118 
L 312.32 200.716369 
L 313.170625 196.706016 
L 314.02125 195.683971 
L 314.871875 196.520584 
L 315.7225 195.975257 
L 316.573125 194.319355 
L 317.42375 195.924277 
L 318.274375 194.354039 
L 319.125 196.175391 
L 319.975625 195.372331 
L 320.82625 191.155615 
L 321.676875 194.201077 
L 323.378125 192.437702 
L 324.22875 190.617112 
L 325.079375 191.572405 
L 325.93 191.705041 
L 326.780625 189.349702 
L 327.63125 188.547076 
L 328.481875 188.365237 
L 329.3325 188.332381 
L 330.183125 187.811939 
L 331.03375 186.58387 
L 331.884375 188.935109 
L 332.735 185.046383 
L 333.585625 186.52361 
L 334.43625 185.818836 
L 335.286875 184.835666 
L 336.1375 183.116906 
L 336.988125 184.268517 
L 337.83875 183.550922 
L 338.689375 184.841413 
L 339.54 182.555859 
L 340.390625 179.930622 
L 341.24125 180.140148 
L 342.091875 179.763812 
L 342.9425 180.181971 
L 343.793125 183.205436 
L 344.64375 180.638541 
L 345.494375 178.940381 
L 346.345 178.552204 
L 347.195625 174.537118 
L 348.04625 177.535274 
L 348.896875 177.190276 
L 349.7475 172.054721 
L 350.598125 174.751275 
L 351.44875 175.235054 
L 352.299375 174.799587 
L 353.15 176.178708 
L 354.000625 175.223573 
L 354.85125 168.663998 
L 355.701875 173.248761 
L 357.403125 171.385439 
L 358.25375 173.38066 
L 359.104375 167.840765 
L 359.955 170.826024 
L 360.805625 167.027299 
L 361.65625 168.925173 
L 363.3575 169.383717 
L 364.208125 166.723069 
L 365.05875 165.625604 
L 365.909375 166.61706 
L 366.76 167.39774 
L 367.610625 166.465117 
L 368.46125 169.735092 
L 369.311875 167.992063 
L 370.1625 160.707886 
L 371.013125 164.266853 
L 371.86375 160.362731 
L 372.714375 161.775223 
L 373.565 159.204096 
L 374.415625 162.598257 
L 375.26625 161.174261 
L 376.116875 160.820218 
L 376.9675 157.10625 
L 377.818125 163.986515 
L 378.66875 156.442655 
L 379.519375 157.68012 
L 380.37 152.899615 
L 381.220625 163.27681 
L 382.07125 161.62505 
L 382.921875 154.99828 
L 383.7725 150.91123 
L 384.623125 157.851756 
L 385.47375 150.623074 
L 386.324375 148.613101 
L 387.175 153.688024 
L 388.025625 154.494361 
L 388.87625 152.531034 
L 389.726875 145.484668 
L 390.5775 149.544525 
L 391.428125 149.211262 
L 392.27875 146.846582 
L 393.129375 150.449483 
L 393.98 152.762348 
L 394.830625 143.843294 
L 395.68125 143.882359 
L 396.531875 146.305631 
L 397.3825 142.801096 
L 398.233125 142.886598 
L 399.08375 141.274277 
L 399.934375 142.920469 
L 400.785 138.580021 
L 401.635625 142.921227 
L 403.336875 141.473967 
L 404.1875 139.55558 
L 404.1875 139.55558 
" clip-path="url(#p2b15eedc78)" style="fill: none; stroke: #1f77b4; stroke-width: 2; stroke-linecap: square"/>
   </g>
   <g id="line2d_18">
    <path d="M 63.9375 238.627131 
L 404.1875 238.627131 
L 404.1875 238.627131 
" clip-path="url(#p2b15eedc78)" style="fill: none; stroke: #ff7f0e; stroke-width: 3; stroke-linecap: square"/>
   </g>
   <g id="line2d_19">
    <path d="M 63.9375 108.950215 
L 64.788125 120.089853 
L 65.63875 116.121755 
L 66.489375 110.228806 
L 67.34 123.650401 
L 68.190625 120.038431 
L 69.04125 124.030823 
L 69.891875 125.29051 
L 70.7425 118.145242 
L 71.593125 120.83618 
L 72.44375 115.862588 
L 73.294375 126.761832 
L 74.145 123.183074 
L 74.995625 123.748792 
L 75.84625 126.631431 
L 76.696875 128.531322 
L 77.5475 123.196355 
L 78.398125 128.516461 
L 79.24875 131.004351 
L 80.099375 124.319776 
L 80.95 133.649271 
L 81.800625 137.365961 
L 82.65125 127.579694 
L 83.501875 131.732173 
L 84.3525 124.572118 
L 85.203125 134.28951 
L 86.05375 136.274678 
L 86.904375 131.9404 
L 87.755 136.427892 
L 88.605625 136.419876 
L 89.45625 140.573041 
L 90.306875 131.579863 
L 91.1575 138.35541 
L 92.008125 137.571889 
L 92.85875 140.85439 
L 93.709375 137.955013 
L 94.56 137.914909 
L 95.410625 145.752277 
L 96.26125 141.86585 
L 97.111875 141.648045 
L 97.9625 144.202084 
L 99.66375 140.12302 
L 100.514375 143.835813 
L 101.365 148.588793 
L 102.215625 147.830186 
L 103.06625 144.238851 
L 103.916875 149.830502 
L 104.7675 151.835976 
L 105.618125 151.051808 
L 106.46875 149.453661 
L 107.319375 151.965546 
L 108.17 152.800455 
L 109.020625 154.755203 
L 109.87125 151.575033 
L 110.721875 154.219649 
L 111.5725 154.688636 
L 112.423125 157.431661 
L 113.27375 152.725039 
L 114.124375 159.409534 
L 114.975 158.710321 
L 115.825625 158.905697 
L 116.67625 158.282971 
L 117.526875 158.285721 
L 118.3775 158.605509 
L 119.228125 160.468734 
L 120.07875 159.300444 
L 120.929375 161.907095 
L 121.78 163.357343 
L 122.630625 163.319738 
L 124.331875 163.503602 
L 126.033125 165.82893 
L 126.88375 166.540285 
L 127.734375 162.523659 
L 128.585 168.68482 
L 129.435625 168.577844 
L 130.28625 168.920705 
L 131.136875 168.166018 
L 131.9875 168.085871 
L 132.838125 169.080647 
L 133.68875 169.792998 
L 134.539375 169.465672 
L 135.39 173.03633 
L 136.240625 171.554281 
L 137.09125 167.791419 
L 137.941875 172.407343 
L 138.7925 175.110317 
L 139.643125 169.039264 
L 140.49375 174.363466 
L 141.344375 173.224571 
L 142.195 177.864391 
L 143.045625 180.365368 
L 143.89625 176.036623 
L 144.746875 175.975862 
L 145.5975 179.997796 
L 146.448125 179.66313 
L 147.29875 180.1077 
L 148.149375 181.871052 
L 149 178.378642 
L 149.850625 179.619658 
L 150.70125 181.44622 
L 151.551875 180.65795 
L 152.4025 185.07337 
L 153.253125 185.97616 
L 154.10375 184.050273 
L 154.954375 188.683692 
L 155.805 185.959235 
L 156.655625 187.16275 
L 157.50625 188.892804 
L 158.356875 187.173038 
L 159.2075 187.506041 
L 160.058125 188.907 
L 160.90875 191.940833 
L 161.759375 188.286512 
L 162.61 190.718849 
L 163.460625 191.925197 
L 164.31125 192.487402 
L 165.161875 188.477197 
L 166.0125 191.483083 
L 166.863125 192.636315 
L 167.71375 195.270673 
L 168.564375 195.640865 
L 169.415 194.945435 
L 170.265625 194.403597 
L 171.11625 196.696587 
L 172.8175 198.586387 
L 173.668125 198.898342 
L 174.51875 198.959091 
L 175.369375 197.137086 
L 176.22 201.641594 
L 177.070625 201.436494 
L 177.92125 202.54385 
L 178.771875 201.361987 
L 179.6225 202.020951 
L 180.473125 204.315986 
L 181.32375 202.741916 
L 182.174375 203.514175 
L 183.025 206.478077 
L 184.72625 205.0158 
L 185.576875 207.133094 
L 186.4275 206.864779 
L 187.278125 205.413471 
L 188.12875 206.703728 
L 188.979375 207.236081 
L 189.83 209.419131 
L 190.680625 209.927952 
L 191.53125 210.683796 
L 192.381875 210.734498 
L 193.2325 211.638008 
L 194.083125 211.883064 
L 194.93375 213.955478 
L 195.784375 213.291975 
L 196.635 213.455805 
L 197.485625 214.267379 
L 198.33625 215.402294 
L 199.186875 216.197844 
L 200.0375 214.197955 
L 201.73875 217.124229 
L 202.589375 218.407481 
L 203.44 219.489113 
L 204.290625 219.441527 
L 205.14125 221.232818 
L 205.991875 220.345298 
L 206.8425 220.244405 
L 207.693125 220.809202 
L 208.54375 221.835821 
L 209.394375 222.625453 
L 210.245 222.437811 
L 212.796875 224.181094 
L 213.6475 224.944299 
L 214.498125 225.415426 
L 215.34875 226.206778 
L 216.199375 227.458826 
L 217.05 226.788744 
L 217.900625 228.22275 
L 218.75125 228.790417 
L 219.601875 229.128525 
L 220.4525 229.712195 
L 221.303125 230.479171 
L 228.108125 234.593849 
L 228.95875 235.435949 
L 229.809375 235.869991 
L 232.36125 237.499138 
L 234.0625 238.627131 
L 237.465 236.483373 
L 238.315625 235.750868 
L 241.718125 233.505097 
L 242.56875 232.903167 
L 243.419375 232.487353 
L 245.120625 231.04654 
L 245.97125 230.567607 
L 246.821875 230.441367 
L 247.6725 229.782398 
L 248.523125 228.854672 
L 249.37375 228.130541 
L 251.075 227.405295 
L 251.925625 226.371556 
L 252.77625 226.469912 
L 254.4775 225.077405 
L 255.328125 225.0343 
L 256.17875 225.104758 
L 257.029375 223.721782 
L 257.88 222.929096 
L 258.730625 221.892319 
L 259.58125 222.168608 
L 260.431875 220.10474 
L 261.2825 220.647206 
L 262.133125 218.94013 
L 262.98375 219.293463 
L 263.834375 218.935929 
L 264.685 217.749201 
L 265.535625 217.374509 
L 266.38625 217.828055 
L 267.236875 216.014188 
L 268.0875 215.87332 
L 268.938125 215.279411 
L 269.78875 215.010059 
L 270.639375 214.08191 
L 271.49 211.514501 
L 272.340625 212.457648 
L 273.19125 212.441026 
L 274.041875 212.823175 
L 274.8925 211.90441 
L 275.743125 210.717473 
L 276.59375 210.432317 
L 277.444375 208.842281 
L 278.295 210.196535 
L 279.145625 206.900945 
L 279.99625 206.466749 
L 280.846875 207.773922 
L 281.6975 208.008327 
L 282.548125 206.567551 
L 283.39875 205.709726 
L 284.249375 206.192909 
L 285.1 203.685301 
L 285.950625 204.222707 
L 286.80125 202.797177 
L 287.651875 203.500849 
L 288.5025 203.272193 
L 289.353125 201.649212 
L 291.054375 201.439974 
L 291.905 201.416678 
L 292.755625 200.026804 
L 293.60625 197.107373 
L 294.456875 197.162071 
L 295.3075 199.120323 
L 296.158125 198.840571 
L 297.00875 197.822171 
L 297.859375 196.016935 
L 298.71 196.607461 
L 300.41125 196.382525 
L 301.261875 192.756444 
L 302.1125 194.116271 
L 302.963125 190.373548 
L 303.81375 190.887002 
L 304.664375 193.372911 
L 305.515 192.17956 
L 306.365625 190.331678 
L 307.21625 189.302795 
L 308.066875 188.951534 
L 308.9175 189.517374 
L 309.768125 186.608549 
L 310.61875 184.427987 
L 311.469375 187.350566 
L 312.32 190.744377 
L 313.170625 183.316035 
L 314.02125 181.149017 
L 314.871875 184.366367 
L 316.573125 181.053062 
L 317.42375 183.296065 
L 318.274375 180.594594 
L 319.125 182.873441 
L 319.975625 181.779809 
L 320.82625 178.393374 
L 321.676875 181.608315 
L 322.5275 178.491759 
L 323.378125 180.211137 
L 324.22875 178.513647 
L 325.079375 178.376101 
L 325.93 177.563053 
L 326.780625 175.689073 
L 327.63125 170.340089 
L 328.481875 174.170514 
L 330.183125 172.008967 
L 331.03375 174.340214 
L 331.884375 174.430725 
L 332.735 169.66632 
L 333.585625 172.517411 
L 334.43625 170.365897 
L 335.286875 169.344271 
L 336.1375 165.429021 
L 336.988125 168.76803 
L 337.83875 168.1235 
L 338.689375 168.445226 
L 339.54 164.025155 
L 340.390625 166.371589 
L 341.24125 164.034343 
L 342.091875 160.893018 
L 342.9425 161.933789 
L 343.793125 165.276003 
L 344.64375 165.89687 
L 345.494375 161.426615 
L 346.345 159.34018 
L 347.195625 155.547466 
L 348.04625 159.772439 
L 348.896875 161.341826 
L 349.7475 156.366042 
L 350.598125 159.618785 
L 351.44875 156.019803 
L 352.299375 156.248346 
L 353.15 153.274814 
L 354.000625 155.300146 
L 354.85125 147.896287 
L 355.701875 154.768661 
L 356.5525 153.553209 
L 357.403125 154.701467 
L 358.25375 152.929263 
L 359.104375 152.804786 
L 359.955 151.00978 
L 360.805625 147.987582 
L 361.65625 149.811335 
L 362.506875 145.271124 
L 363.3575 148.221754 
L 364.208125 146.745485 
L 365.05875 146.189819 
L 365.909375 148.075897 
L 366.76 147.825374 
L 367.610625 146.490384 
L 368.46125 149.54399 
L 369.311875 150.978068 
L 370.1625 137.728539 
L 371.013125 143.381858 
L 371.86375 137.946328 
L 372.714375 140.780213 
L 373.565 133.403343 
L 374.415625 141.191053 
L 375.26625 139.252277 
L 376.116875 138.703273 
L 376.9675 134.099092 
L 377.818125 144.907064 
L 378.66875 134.800185 
L 379.519375 132.722458 
L 380.37 133.989093 
L 381.220625 141.301316 
L 382.07125 139.050265 
L 382.921875 130.424058 
L 383.7725 126.307193 
L 384.623125 139.576625 
L 385.47375 128.501917 
L 386.324375 125.43103 
L 387.175 130.23553 
L 388.025625 126.717274 
L 388.87625 134.601077 
L 389.726875 126.372501 
L 390.5775 123.806621 
L 391.428125 128.637898 
L 392.27875 123.130346 
L 393.129375 124.898179 
L 393.98 131.485339 
L 394.830625 116.850013 
L 395.68125 120.074761 
L 396.531875 121.42185 
L 397.3825 121.010168 
L 398.233125 115.759678 
L 399.08375 115.157657 
L 399.934375 119.505037 
L 400.785 111.216544 
L 401.635625 118.731338 
L 402.48625 119.811184 
L 403.336875 116.214069 
L 404.1875 110.20911 
L 404.1875 110.20911 
" clip-path="url(#p2b15eedc78)" style="fill: none; stroke: #2ca02c; stroke-width: 2; stroke-linecap: square"/>
   </g>
   <g id="line2d_20">
    <path d="M 63.9375 238.627131 
L 404.1875 238.627131 
L 404.1875 238.627131 
" clip-path="url(#p2b15eedc78)" style="fill: none; stroke: #d62728; stroke-width: 2; stroke-linecap: square"/>
   </g>
   <g id="line2d_21">
    <path d="M 63.9375 72.776741 
L 64.788125 72.966863 
L 65.63875 72.543869 
L 66.489375 65.390628 
L 67.34 85.532266 
L 68.190625 78.122698 
L 69.04125 68.59997 
L 69.891875 77.809263 
L 70.7425 79.212073 
L 71.593125 67.376662 
L 72.44375 65.653094 
L 73.294375 79.305012 
L 74.145 79.406815 
L 74.995625 76.963224 
L 75.84625 87.767971 
L 76.696875 77.716547 
L 77.5475 74.96364 
L 78.398125 80.918168 
L 79.24875 75.188733 
L 80.099375 80.737964 
L 80.95 79.037212 
L 81.800625 81.382159 
L 82.65125 80.58013 
L 83.501875 89.855614 
L 84.3525 82.668066 
L 85.203125 85.38443 
L 86.05375 90.926893 
L 86.904375 97.417764 
L 87.755 83.991902 
L 88.605625 97.883444 
L 89.45625 89.448105 
L 91.1575 89.685024 
L 92.008125 89.161054 
L 92.85875 94.488865 
L 93.709375 82.886597 
L 94.56 91.836333 
L 95.410625 92.352696 
L 96.26125 91.584052 
L 97.111875 99.241434 
L 97.9625 96.550444 
L 98.813125 98.172633 
L 99.66375 105.785409 
L 100.514375 97.618234 
L 101.365 98.424761 
L 102.215625 96.457577 
L 103.06625 110.458039 
L 103.916875 100.257113 
L 104.7675 103.33556 
L 105.618125 105.189242 
L 106.46875 109.488247 
L 107.319375 105.09107 
L 108.17 106.003937 
L 109.020625 108.731035 
L 109.87125 107.312408 
L 110.721875 106.7818 
L 111.5725 108.052067 
L 112.423125 117.297493 
L 113.27375 108.705253 
L 114.124375 106.288478 
L 114.975 111.237788 
L 115.825625 116.938331 
L 116.67625 117.345204 
L 117.526875 110.434755 
L 118.3775 106.066421 
L 119.228125 118.79787 
L 120.07875 112.393902 
L 120.929375 108.271276 
L 121.78 119.548381 
L 122.630625 119.864328 
L 123.48125 121.452429 
L 124.331875 120.286049 
L 125.1825 113.292742 
L 126.033125 120.236644 
L 126.88375 122.009145 
L 127.734375 120.73522 
L 128.585 121.219245 
L 129.435625 122.502399 
L 130.28625 126.802942 
L 131.136875 120.316477 
L 131.9875 135.851164 
L 132.838125 127.229902 
L 133.68875 129.687168 
L 134.539375 132.692356 
L 135.39 134.817208 
L 136.240625 133.224481 
L 137.09125 126.93157 
L 137.941875 132.952902 
L 138.7925 135.399683 
L 139.643125 138.680838 
L 140.49375 126.867855 
L 141.344375 135.012749 
L 142.195 141.922941 
L 143.045625 140.756727 
L 143.89625 140.066854 
L 144.746875 138.139441 
L 145.5975 138.93646 
L 146.448125 145.385856 
L 147.29875 145.637605 
L 148.149375 141.410899 
L 149 142.411027 
L 149.850625 147.911015 
L 150.70125 146.790245 
L 151.551875 141.985551 
L 152.4025 147.899623 
L 153.253125 148.815056 
L 154.10375 145.746397 
L 154.954375 148.347489 
L 155.805 146.913403 
L 156.655625 154.421471 
L 157.50625 148.748413 
L 158.356875 149.626117 
L 159.2075 149.62451 
L 160.058125 152.523699 
L 160.90875 152.397644 
L 161.759375 156.013907 
L 162.61 161.067419 
L 163.460625 159.414067 
L 164.31125 162.098336 
L 165.161875 162.17427 
L 166.0125 159.616958 
L 166.863125 161.421101 
L 167.71375 161.247547 
L 168.564375 161.905297 
L 169.415 161.514989 
L 170.265625 163.320795 
L 171.11625 164.361787 
L 171.966875 165.714172 
L 172.8175 167.545945 
L 173.668125 170.224362 
L 174.51875 168.11092 
L 175.369375 170.336298 
L 176.22 167.251391 
L 177.92125 175.606246 
L 178.771875 172.765828 
L 179.6225 175.093871 
L 180.473125 174.914673 
L 181.32375 177.632084 
L 182.174375 178.594936 
L 183.025 177.276921 
L 183.875625 179.515036 
L 184.72625 178.117973 
L 185.576875 177.400419 
L 186.4275 182.927376 
L 187.278125 183.422726 
L 188.12875 183.120293 
L 188.979375 178.446639 
L 189.83 184.345998 
L 190.680625 183.682929 
L 191.53125 188.273643 
L 192.381875 188.689854 
L 193.2325 186.857967 
L 194.083125 189.37239 
L 194.93375 189.770342 
L 195.784375 194.265314 
L 196.635 193.474601 
L 197.485625 191.351616 
L 198.33625 195.157886 
L 200.0375 197.482173 
L 200.888125 196.568906 
L 201.73875 199.826573 
L 202.589375 199.164443 
L 203.44 199.497946 
L 204.290625 201.074188 
L 205.14125 203.970087 
L 205.991875 204.734408 
L 206.8425 204.79349 
L 207.693125 205.084918 
L 208.54375 205.734057 
L 209.394375 206.657124 
L 210.245 208.601336 
L 211.095625 209.785046 
L 211.94625 211.532244 
L 212.796875 211.416467 
L 213.6475 214.467692 
L 214.498125 213.089123 
L 215.34875 214.159666 
L 216.199375 215.839384 
L 217.05 216.108398 
L 218.75125 219.543284 
L 219.601875 220.667767 
L 220.4525 220.617629 
L 221.303125 222.422231 
L 222.15375 223.343579 
L 223.004375 224.85114 
L 224.705625 226.575589 
L 225.55625 226.761486 
L 226.406875 228.859513 
L 227.2575 229.516622 
L 228.108125 230.959459 
L 234.0625 238.627131 
L 235.76375 236.299539 
L 237.465 234.393344 
L 239.16625 231.873876 
L 240.016875 231.113145 
L 240.8675 229.779719 
L 241.718125 228.219147 
L 242.56875 227.984587 
L 243.419375 226.686889 
L 244.27 226.132671 
L 245.120625 224.241516 
L 245.97125 223.7782 
L 246.821875 222.167378 
L 247.6725 221.263495 
L 248.523125 220.04427 
L 249.37375 219.034958 
L 250.224375 217.792094 
L 251.075 217.006998 
L 251.925625 215.515639 
L 252.77625 215.619055 
L 255.328125 209.810958 
L 256.17875 210.113128 
L 257.029375 210.561202 
L 257.88 209.319816 
L 258.730625 208.991915 
L 259.58125 205.975871 
L 260.431875 205.716351 
L 261.2825 205.87985 
L 262.133125 203.584811 
L 262.98375 202.178218 
L 263.834375 201.204975 
L 265.535625 198.938095 
L 266.38625 198.3545 
L 268.0875 196.723842 
L 268.938125 197.359683 
L 269.78875 193.325706 
L 270.639375 192.558444 
L 271.49 194.072518 
L 272.340625 194.111649 
L 273.19125 192.506328 
L 274.041875 188.313166 
L 274.8925 188.677257 
L 275.743125 189.726206 
L 276.59375 185.31898 
L 277.444375 183.680305 
L 278.295 184.17546 
L 279.145625 183.430796 
L 279.99625 182.455392 
L 281.6975 179.65897 
L 282.548125 181.491015 
L 283.39875 182.091055 
L 284.249375 181.174565 
L 285.1 181.326279 
L 285.950625 175.495663 
L 286.80125 175.676292 
L 287.651875 176.446259 
L 288.5025 176.392221 
L 289.353125 175.89792 
L 290.20375 166.872239 
L 291.054375 173.933833 
L 292.755625 168.80979 
L 293.60625 168.783224 
L 294.456875 164.511646 
L 295.3075 168.512618 
L 296.158125 165.672481 
L 297.00875 167.03947 
L 297.859375 165.317384 
L 298.71 160.053412 
L 299.560625 168.761192 
L 301.261875 161.08079 
L 302.1125 165.882989 
L 302.963125 159.644864 
L 303.81375 156.701694 
L 304.664375 152.996921 
L 305.515 155.347823 
L 306.365625 157.257512 
L 308.066875 148.170199 
L 308.9175 152.954469 
L 309.768125 152.77884 
L 310.61875 151.983153 
L 311.469375 149.449612 
L 312.32 150.165169 
L 313.170625 152.205629 
L 314.02125 149.884624 
L 314.871875 148.621011 
L 316.573125 149.805765 
L 317.42375 143.884034 
L 318.274375 145.510054 
L 319.125 143.76468 
L 319.975625 140.089645 
L 320.82625 144.54726 
L 321.676875 137.339319 
L 322.5275 137.735793 
L 323.378125 133.904832 
L 324.22875 138.448331 
L 325.079375 138.50209 
L 325.93 138.80072 
L 326.780625 135.574435 
L 327.63125 134.89238 
L 328.481875 132.231176 
L 329.3325 138.030184 
L 330.183125 130.747036 
L 331.03375 128.855655 
L 331.884375 133.727426 
L 332.735 127.177461 
L 333.585625 131.694895 
L 334.43625 128.670643 
L 335.286875 129.928822 
L 336.1375 129.997349 
L 337.83875 120.600317 
L 338.689375 124.889695 
L 339.54 127.221626 
L 340.390625 128.839811 
L 341.24125 123.049853 
L 342.091875 118.786537 
L 342.9425 117.480085 
L 343.793125 124.583079 
L 344.64375 123.681245 
L 345.494375 119.44991 
L 346.345 118.953529 
L 347.195625 117.03916 
L 348.04625 116.114198 
L 348.896875 113.422937 
L 349.7475 118.617817 
L 350.598125 113.065029 
L 351.44875 114.122233 
L 352.299375 113.778176 
L 353.15 112.673483 
L 354.000625 99.060568 
L 354.85125 106.104825 
L 355.701875 99.985386 
L 356.5525 107.145719 
L 357.403125 110.001917 
L 358.25375 101.505639 
L 359.104375 108.206706 
L 359.955 111.022695 
L 360.805625 107.162502 
L 361.65625 100.174065 
L 362.506875 98.096602 
L 363.3575 109.008527 
L 364.208125 106.518932 
L 365.05875 98.226749 
L 365.909375 103.475535 
L 366.76 90.878055 
L 367.610625 95.319013 
L 368.46125 107.774929 
L 369.311875 98.769776 
L 370.1625 100.311286 
L 371.013125 103.313998 
L 371.86375 93.204941 
L 372.714375 93.702163 
L 373.565 89.340092 
L 374.415625 100.131047 
L 375.26625 97.632972 
L 376.9675 90.476409 
L 377.818125 96.193052 
L 378.66875 89.112366 
L 379.519375 94.695958 
L 380.37 90.081642 
L 381.220625 80.033994 
L 382.07125 85.111749 
L 382.921875 79.961491 
L 383.7725 89.609815 
L 384.623125 87.182091 
L 385.47375 80.407133 
L 386.324375 84.445537 
L 387.175 85.887693 
L 388.025625 89.204417 
L 388.87625 91.488021 
L 389.726875 80.494841 
L 390.5775 85.627481 
L 391.428125 86.077365 
L 392.27875 75.398329 
L 393.129375 71.0767 
L 393.98 77.726997 
L 394.830625 74.262919 
L 395.68125 85.552185 
L 396.531875 76.971632 
L 397.3825 86.856379 
L 398.233125 66.193052 
L 399.08375 79.37766 
L 399.934375 73.083618 
L 400.785 74.766203 
L 401.635625 66.937635 
L 402.48625 61.829865 
L 403.336875 72.055464 
L 404.1875 66.001658 
L 404.1875 66.001658 
" clip-path="url(#p2b15eedc78)" style="fill: none; stroke: #9467bd; stroke-width: 2; stroke-linecap: square"/>
   </g>
   <g id="line2d_22">
    <path d="M 63.9375 50.531365 
L 64.788125 54.289111 
L 65.63875 47.489617 
L 66.489375 36.544744 
L 67.34 67.94444 
L 68.190625 56.377368 
L 69.04125 46.869064 
L 69.891875 56.001646 
L 70.7425 59.512268 
L 71.593125 41.065731 
L 72.44375 44.558244 
L 73.294375 57.888995 
L 74.145 56.632218 
L 74.995625 56.243097 
L 75.84625 66.405456 
L 76.696875 56.407023 
L 77.5475 53.106553 
L 78.398125 59.547703 
L 79.24875 55.33604 
L 80.099375 60.44945 
L 80.95 58.088722 
L 81.800625 60.577142 
L 82.65125 62.338924 
L 83.501875 68.842814 
L 84.3525 63.687273 
L 85.203125 65.885212 
L 86.05375 72.916822 
L 86.904375 77.559223 
L 87.755 63.209169 
L 88.605625 79.509925 
L 89.45625 69.737927 
L 90.306875 71.328435 
L 91.1575 68.198059 
L 92.85875 78.991761 
L 93.709375 63.491815 
L 94.56 77.946822 
L 95.410625 76.205796 
L 96.26125 76.211784 
L 97.111875 83.097833 
L 97.9625 79.576994 
L 98.813125 82.095738 
L 99.66375 87.385814 
L 100.514375 83.268828 
L 101.365 82.716286 
L 102.215625 81.128738 
L 103.06625 96.080432 
L 103.916875 87.000359 
L 104.7675 88.915549 
L 105.618125 86.879848 
L 106.46875 95.074841 
L 107.319375 89.925338 
L 108.17 89.90479 
L 109.020625 94.174019 
L 109.87125 92.114245 
L 110.721875 89.571945 
L 111.5725 93.3394 
L 112.423125 103.304023 
L 113.27375 95.765592 
L 114.124375 93.465566 
L 114.975 99.612418 
L 115.825625 104.461609 
L 116.67625 103.541072 
L 117.526875 95.475826 
L 118.3775 93.820578 
L 119.228125 104.292731 
L 120.07875 102.007804 
L 120.929375 96.782336 
L 121.78 104.660858 
L 122.630625 106.390939 
L 123.48125 109.277163 
L 124.331875 106.075585 
L 125.1825 99.330821 
L 126.033125 107.29803 
L 126.88375 110.315929 
L 127.734375 107.459234 
L 128.585 110.34 
L 129.435625 110.804989 
L 130.28625 115.751097 
L 131.136875 111.343127 
L 131.9875 125.393802 
L 132.838125 118.624309 
L 133.68875 118.132316 
L 134.539375 124.709886 
L 135.39 123.845648 
L 136.240625 123.495467 
L 137.09125 116.476615 
L 137.941875 124.10061 
L 138.7925 126.554496 
L 139.643125 130.133799 
L 140.49375 117.46847 
L 141.344375 125.093865 
L 142.195 134.93844 
L 143.045625 132.794286 
L 143.89625 131.071909 
L 144.746875 129.833815 
L 145.5975 127.414572 
L 146.448125 136.527397 
L 147.29875 136.142332 
L 148.149375 133.119437 
L 149 133.451297 
L 149.850625 140.731323 
L 150.70125 137.455063 
L 151.551875 133.41312 
L 152.4025 141.037344 
L 153.253125 141.444031 
L 154.10375 138.77915 
L 154.954375 140.302783 
L 155.805 138.956238 
L 156.655625 146.886627 
L 157.50625 140.081256 
L 158.356875 140.360406 
L 159.2075 141.652512 
L 160.058125 144.05712 
L 160.90875 146.044166 
L 161.759375 148.998125 
L 162.61 153.728244 
L 163.460625 152.885712 
L 164.31125 156.469207 
L 165.161875 155.042371 
L 166.0125 153.00048 
L 166.863125 155.523148 
L 167.71375 153.261999 
L 168.564375 157.183025 
L 169.415 155.265184 
L 170.265625 155.48894 
L 171.11625 159.451873 
L 171.966875 158.954136 
L 172.8175 160.858966 
L 173.668125 163.904003 
L 174.51875 163.657622 
L 175.369375 164.69182 
L 176.22 162.498283 
L 177.070625 165.659093 
L 177.92125 170.745749 
L 178.771875 166.902096 
L 179.6225 171.849712 
L 180.473125 169.89071 
L 181.32375 173.319341 
L 182.174375 174.539332 
L 183.025 173.021863 
L 183.875625 174.414987 
L 184.72625 174.148988 
L 185.576875 172.22294 
L 186.4275 178.225745 
L 187.278125 179.006691 
L 188.12875 179.470851 
L 188.979375 174.977242 
L 189.83 180.840331 
L 190.680625 180.364731 
L 191.53125 185.376768 
L 192.381875 185.767832 
L 193.2325 183.344862 
L 194.083125 185.2705 
L 194.93375 186.744048 
L 195.784375 190.539775 
L 196.635 191.012501 
L 197.485625 188.391596 
L 198.33625 191.953191 
L 199.186875 193.668427 
L 200.0375 194.31723 
L 200.888125 193.165056 
L 201.73875 197.284381 
L 202.589375 196.098086 
L 203.44 196.275265 
L 205.14125 201.064172 
L 205.991875 202.668636 
L 206.8425 202.33972 
L 207.693125 202.802303 
L 208.54375 203.480974 
L 210.245 206.620819 
L 211.095625 207.518268 
L 211.94625 210.011727 
L 212.796875 209.329101 
L 213.6475 212.660395 
L 214.498125 211.305978 
L 216.199375 214.053227 
L 217.05 214.639931 
L 217.900625 216.628531 
L 218.75125 218.290631 
L 219.601875 219.300632 
L 220.4525 219.731017 
L 221.303125 221.325571 
L 222.15375 222.292596 
L 223.004375 223.980043 
L 223.855 224.995484 
L 224.705625 225.783907 
L 225.55625 226.006968 
L 226.406875 228.205909 
L 227.2575 228.955502 
L 228.108125 230.453972 
L 229.809375 232.850247 
L 231.510625 235.093261 
L 234.0625 238.627131 
L 235.76375 236.148715 
L 237.465 234.088064 
L 239.16625 231.481115 
L 240.016875 230.650614 
L 241.718125 227.682494 
L 242.56875 227.324561 
L 243.419375 225.973943 
L 244.27 225.470142 
L 245.120625 223.392831 
L 245.97125 222.827824 
L 247.6725 219.905259 
L 248.523125 219.066654 
L 249.37375 217.540168 
L 250.224375 216.356145 
L 251.075 215.581677 
L 251.925625 214.103427 
L 252.77625 214.475612 
L 253.626875 212.042495 
L 254.4775 210.020866 
L 255.328125 208.315987 
L 257.029375 208.313561 
L 257.88 206.968438 
L 258.730625 207.078881 
L 259.58125 204.142598 
L 260.431875 203.162468 
L 261.2825 203.529901 
L 262.133125 200.802992 
L 262.98375 199.495003 
L 264.685 197.56829 
L 265.535625 196.070325 
L 266.38625 195.60434 
L 267.236875 194.461448 
L 268.0875 193.81472 
L 268.938125 194.392304 
L 269.78875 190.314761 
L 270.639375 189.744177 
L 271.49 191.212312 
L 272.340625 191.025995 
L 273.19125 188.967504 
L 274.041875 184.973344 
L 274.8925 185.34173 
L 275.743125 186.541546 
L 276.59375 182.003737 
L 277.444375 180.218725 
L 278.295 181.107935 
L 279.145625 178.865927 
L 279.99625 178.833138 
L 280.846875 176.298706 
L 281.6975 175.255851 
L 282.548125 177.659256 
L 283.39875 178.405983 
L 284.249375 176.847541 
L 285.1 177.30054 
L 285.950625 170.70088 
L 286.80125 170.051128 
L 287.651875 171.386026 
L 288.5025 170.86501 
L 289.353125 170.106862 
L 290.20375 162.030964 
L 291.054375 169.012354 
L 291.905 165.55627 
L 292.755625 164.025926 
L 293.60625 163.800959 
L 294.456875 158.567383 
L 295.3075 163.663795 
L 296.158125 159.576431 
L 297.00875 161.805919 
L 297.859375 159.612285 
L 298.71 155.155587 
L 299.560625 162.904498 
L 301.261875 154.048499 
L 302.1125 159.213266 
L 302.963125 154.673015 
L 303.81375 148.606129 
L 304.664375 146.799858 
L 305.515 149.579172 
L 306.365625 150.885862 
L 307.21625 145.575556 
L 308.066875 141.760278 
L 308.9175 145.582259 
L 309.768125 145.700333 
L 310.61875 144.022493 
L 311.469375 140.543451 
L 312.32 142.809089 
L 313.170625 143.970297 
L 314.02125 143.777088 
L 314.871875 141.003323 
L 315.7225 140.647117 
L 316.573125 142.31293 
L 317.42375 136.609234 
L 318.274375 136.138853 
L 319.125 135.042905 
L 319.975625 129.512823 
L 320.82625 135.793928 
L 321.676875 128.917844 
L 322.5275 129.811331 
L 323.378125 123.993544 
L 324.22875 127.751306 
L 325.079375 128.126884 
L 325.93 128.375475 
L 327.63125 125.579913 
L 328.481875 120.419254 
L 329.3325 129.116562 
L 330.183125 122.449811 
L 331.03375 117.790134 
L 331.884375 124.90301 
L 332.735 117.830407 
L 333.585625 123.749981 
L 334.43625 117.552587 
L 335.286875 119.1825 
L 336.1375 120.476428 
L 337.83875 107.176121 
L 338.689375 114.255613 
L 339.54 116.073042 
L 340.390625 117.622267 
L 342.9425 103.36905 
L 343.793125 114.545857 
L 344.64375 112.915913 
L 345.494375 106.942027 
L 346.345 104.943809 
L 347.195625 105.978539 
L 348.04625 104.116076 
L 348.896875 99.340347 
L 349.7475 106.801402 
L 350.598125 102.443276 
L 351.44875 99.650778 
L 352.299375 100.09136 
L 353.15 100.100226 
L 354.000625 85.77831 
L 354.85125 92.181693 
L 355.701875 85.522173 
L 356.5525 91.000319 
L 357.403125 94.42154 
L 358.25375 88.04961 
L 359.104375 93.458967 
L 359.955 93.720661 
L 360.805625 94.138678 
L 361.65625 84.211941 
L 362.506875 81.978855 
L 363.3575 92.84934 
L 364.208125 91.782193 
L 365.05875 84.23349 
L 365.909375 89.8467 
L 366.76 73.889126 
L 367.610625 80.077158 
L 368.46125 89.981109 
L 369.311875 83.275786 
L 370.1625 84.01159 
L 371.013125 89.160166 
L 371.86375 76.463696 
L 372.714375 74.259317 
L 373.565 75.403614 
L 374.415625 85.625269 
L 375.26625 81.936442 
L 376.116875 76.848905 
L 376.9675 75.117119 
L 377.818125 77.162771 
L 378.66875 73.144538 
L 379.519375 77.534974 
L 380.37 73.386844 
L 381.220625 61.094145 
L 382.07125 63.500037 
L 382.921875 58.364525 
L 383.7725 71.551864 
L 384.623125 68.255583 
L 385.47375 58.735487 
L 386.324375 64.158712 
L 387.175 66.638832 
L 388.025625 69.66691 
L 388.87625 69.449023 
L 389.726875 52.645646 
L 390.5775 66.239114 
L 391.428125 62.689849 
L 392.27875 52.620305 
L 393.129375 47.079906 
L 393.98 54.716372 
L 394.830625 52.325047 
L 395.68125 60.561695 
L 396.531875 55.125452 
L 397.3825 60.492958 
L 398.233125 44.128547 
L 399.08375 58.280381 
L 399.934375 47.938326 
L 400.785 51.523817 
L 401.635625 45.697874 
L 402.48625 38.072994 
L 403.336875 47.811976 
L 404.1875 39.811059 
L 404.1875 39.811059 
" clip-path="url(#p2b15eedc78)" style="fill: none; stroke: #8c564b; stroke-width: 2; stroke-linecap: square"/>
   </g>
   <g id="patch_3">
    <path d="M 46.925 248.73125 
L 46.925 26.440625 
" style="fill: none; stroke: #000000; stroke-width: 0.8; stroke-linejoin: miter; stroke-linecap: square"/>
   </g>
   <g id="patch_4">
    <path d="M 421.2 248.73125 
L 421.2 26.440625 
" style="fill: none; stroke: #000000; stroke-width: 0.8; stroke-linejoin: miter; stroke-linecap: square"/>
   </g>
   <g id="patch_5">
    <path d="M 46.925 248.73125 
L 421.2 248.73125 
" style="fill: none; stroke: #000000; stroke-width: 0.8; stroke-linejoin: miter; stroke-linecap: square"/>
   </g>
   <g id="patch_6">
    <path d="M 46.925 26.440625 
L 421.2 26.440625 
" style="fill: none; stroke: #000000; stroke-width: 0.8; stroke-linejoin: miter; stroke-linecap: square"/>
   </g>
   <g id="text_19">
    <!-- 讨论不同强度的干扰对不稳定性的影响 -->
    <g transform="translate(132.0625 20.440625)scale(0.12 -0.12)">
     <defs>
      <path id="SimHei-8ba8" d="M 4700 3775 
Q 4700 4600 4675 5225 
L 5225 5225 
Q 5200 4625 5200 3775 
Q 5625 3775 6075 3800 
L 6075 3325 
Q 5675 3350 5200 3350 
L 5200 25 
Q 5200 -325 4925 -437 
Q 4650 -550 4150 -600 
Q 4125 -300 3875 25 
Q 4450 0 4575 50 
Q 4700 100 4700 350 
L 4700 3350 
L 3225 3350 
Q 2900 3350 2300 3325 
L 2300 3800 
Q 2875 3775 3175 3775 
L 4700 3775 
z
M 1700 3375 
Q 1675 2925 1675 2400 
L 1675 550 
Q 2000 850 2400 1325 
Q 2550 1025 2725 825 
Q 2375 550 2037 237 
Q 1700 -75 1450 -350 
Q 1225 -100 1025 50 
Q 1200 250 1200 575 
L 1200 2950 
Q 575 2950 300 2925 
L 300 3400 
Q 575 3375 975 3375 
L 1700 3375 
z
M 3025 2750 
Q 3525 2150 3875 1525 
Q 3625 1375 3425 1250 
Q 3150 1850 2625 2475 
Q 2800 2575 3025 2750 
z
M 1250 5250 
Q 1550 4850 1825 4200 
Q 1625 4100 1375 3950 
Q 1175 4500 825 5000 
Q 1000 5100 1250 5250 
z
" transform="scale(0.015625)"/>
      <path id="SimHei-8bba" d="M 3500 1600 
Q 3825 1725 4250 2000 
Q 4675 2275 4975 2575 
Q 5225 2275 5400 2100 
Q 5050 1950 4550 1675 
Q 4050 1400 3500 1150 
L 3500 300 
Q 3500 -100 3800 -100 
L 4825 -100 
Q 5125 -100 5250 137 
Q 5375 375 5375 575 
Q 5675 350 5925 275 
Q 5750 -225 5550 -375 
Q 5350 -525 5100 -525 
L 3550 -525 
Q 3025 -475 3025 0 
L 3025 2175 
Q 3025 2525 3000 2850 
L 3525 2850 
Q 3500 2400 3500 2200 
L 3500 1600 
z
M 4175 4850 
Q 4400 4350 4950 3687 
Q 5500 3025 6175 2700 
Q 5975 2575 5800 2275 
Q 5100 2750 4637 3375 
Q 4175 4000 3950 4425 
Q 3725 3950 3387 3425 
Q 3050 2900 2325 2200 
Q 2175 2375 1950 2575 
Q 2350 2825 2650 3175 
Q 2950 3525 3200 3962 
Q 3450 4400 3575 4725 
Q 3700 5050 3750 5250 
Q 3975 5150 4275 5050 
L 4175 4850 
z
M 1600 3150 
Q 1575 2750 1575 2275 
L 1575 550 
Q 1950 825 2400 1300 
Q 2500 1075 2650 800 
Q 2250 475 1900 187 
Q 1550 -100 1250 -375 
Q 1150 -225 900 50 
Q 1100 250 1100 450 
L 1100 2700 
L 800 2700 
Q 550 2700 275 2675 
L 275 3175 
Q 550 3150 800 3150 
L 1600 3150 
z
M 975 5000 
Q 1550 4525 2125 4025 
Q 1950 3875 1750 3650 
Q 1325 4150 650 4650 
Q 825 4800 975 5000 
z
" transform="scale(0.015625)"/>
      <path id="SimHei-4e0d" d="M 5975 4450 
Q 5525 4475 5200 4475 
L 3725 4475 
Q 3550 4125 3300 3700 
L 3300 575 
Q 3300 75 3325 -550 
L 2775 -550 
Q 2800 50 2800 575 
L 2800 3025 
Q 2025 1950 700 1050 
Q 500 1350 325 1475 
Q 825 1700 1650 2437 
Q 2475 3175 3175 4475 
L 1525 4475 
Q 1050 4475 525 4450 
L 525 4950 
Q 1275 4925 1675 4925 
L 5175 4925 
Q 5500 4925 5975 4950 
L 5975 4450 
z
M 5450 1125 
Q 4975 1725 3750 2975 
Q 3950 3150 4075 3325 
Q 4675 2775 5100 2362 
Q 5525 1950 5900 1550 
Q 5650 1350 5450 1125 
z
" transform="scale(0.015625)"/>
      <path id="SimHei-540c" d="M 5825 4925 
Q 5775 4550 5775 3975 
L 5775 -50 
Q 5775 -400 5525 -487 
Q 5275 -575 4725 -625 
Q 4725 -400 4525 -50 
Q 4925 -50 5100 -12 
Q 5275 25 5275 200 
L 5275 4450 
L 1150 4450 
L 1150 -600 
L 575 -600 
Q 600 -250 625 200 
L 625 3975 
Q 625 4575 600 4925 
L 5825 4925 
z
M 4375 2550 
Q 4325 2275 4325 1700 
Q 4325 1150 4375 725 
L 2025 725 
Q 2050 1175 2050 1750 
Q 2050 2325 2025 2550 
L 4375 2550 
z
M 4100 3750 
Q 4600 3750 4825 3775 
L 4825 3275 
Q 4575 3300 4075 3300 
L 2450 3300 
Q 1850 3300 1600 3275 
L 1600 3775 
Q 1875 3750 2475 3750 
L 4100 3750 
z
M 3875 1150 
L 3875 2150 
L 2525 2150 
L 2525 1150 
L 3875 1150 
z
" transform="scale(0.015625)"/>
      <path id="SimHei-7684" d="M 2100 4975 
Q 1975 4750 1750 3950 
L 2875 3950 
Q 2850 3525 2850 2875 
L 2850 675 
Q 2850 300 2875 -400 
L 2375 -400 
L 2375 100 
L 1100 100 
L 1100 -450 
L 600 -450 
Q 625 350 625 550 
L 625 2850 
Q 625 3525 600 3950 
L 1325 3950 
Q 1450 4525 1525 5150 
Q 1875 5025 2100 4975 
z
M 5825 3075 
Q 5800 1550 5700 175 
Q 5650 -275 5225 -425 
Q 4800 -575 4275 -625 
Q 4250 -350 4050 -50 
Q 4550 -75 4837 -25 
Q 5125 25 5200 200 
Q 5275 375 5312 1225 
Q 5350 2075 5375 3600 
L 3925 3600 
Q 3725 3125 3350 2475 
Q 3175 2650 2925 2750 
Q 3150 3050 3350 3475 
Q 3550 3900 3700 4400 
Q 3850 4900 3875 5175 
Q 4225 5025 4475 4950 
Q 4350 4750 4262 4512 
Q 4175 4275 4075 4050 
L 5850 4050 
Q 5825 3525 5825 3075 
z
M 2375 525 
L 2375 1850 
L 1100 1850 
L 1100 525 
L 2375 525 
z
M 2375 2275 
L 2375 3525 
L 1100 3525 
L 1100 2275 
L 2375 2275 
z
M 4350 2050 
Q 4500 1750 4700 1275 
Q 4525 1200 4225 1025 
Q 4050 1500 3900 1837 
Q 3750 2175 3600 2400 
Q 3775 2500 4050 2650 
L 4350 2050 
z
" transform="scale(0.015625)"/>
      <path id="SimHei-5bf9" d="M 525 4250 
Q 900 4225 1400 4225 
L 2825 4225 
Q 2575 2625 2200 1750 
Q 2825 875 3125 400 
Q 2950 275 2725 75 
Q 2200 975 1950 1300 
Q 1650 775 1350 425 
Q 1050 75 600 -350 
Q 425 -125 200 -25 
Q 625 275 975 675 
Q 1325 1075 1650 1700 
Q 1050 2425 550 2900 
Q 700 3025 900 3225 
Q 1625 2425 1875 2150 
Q 2200 3050 2300 3825 
L 1400 3825 
Q 900 3825 525 3800 
L 525 4250 
z
M 2925 3700 
Q 3525 3675 3750 3675 
L 4825 3675 
L 4825 4425 
Q 4825 4750 4775 5125 
L 5350 5125 
Q 5325 4825 5325 4375 
L 5325 3675 
Q 5575 3675 6150 3700 
L 6150 3250 
Q 5575 3275 5325 3275 
L 5325 125 
Q 5350 -350 5012 -475 
Q 4675 -600 4250 -650 
Q 4175 -350 4025 -100 
Q 4575 -100 4712 -37 
Q 4850 25 4825 325 
L 4825 3275 
L 3775 3275 
Q 3550 3275 2925 3225 
L 2925 3700 
z
M 3450 2725 
Q 3875 1975 4175 1325 
Q 3850 1200 3700 1075 
Q 3475 1750 3050 2475 
Q 3225 2550 3450 2725 
z
" transform="scale(0.015625)"/>
      <path id="SimHei-7a33" d="M 4050 5125 
Q 3875 4975 3675 4625 
L 5325 4625 
Q 5200 4450 5062 4212 
Q 4925 3975 4800 3650 
L 5625 3650 
Q 5600 3350 5600 2600 
Q 5600 1875 5625 1425 
L 3425 1425 
Q 3075 1425 2750 1400 
L 2750 1850 
Q 3075 1825 3450 1825 
L 5100 1825 
L 5100 2375 
L 3550 2375 
Q 3175 2375 2875 2350 
L 2875 2775 
Q 3175 2750 3525 2750 
L 5100 2750 
L 5100 3275 
L 3775 3275 
Q 3350 3275 3050 3250 
L 3050 3650 
Q 2875 3425 2725 3200 
Q 2525 3400 2350 3475 
Q 2675 3875 2987 4412 
Q 3300 4950 3400 5300 
Q 3725 5200 4050 5125 
z
M 2500 4575 
Q 2275 4575 2012 4512 
Q 1750 4450 1625 4450 
L 1625 3350 
Q 1975 3350 2375 3375 
L 2375 2950 
Q 1925 2975 1625 2975 
L 1625 2225 
Q 1775 2325 1950 2500 
Q 2225 2100 2525 1600 
Q 2300 1500 2150 1350 
Q 1950 1725 1625 2175 
L 1625 400 
Q 1625 25 1650 -625 
L 1150 -625 
Q 1200 25 1200 400 
L 1200 2075 
Q 875 1250 475 650 
Q 375 925 175 1125 
Q 325 1250 650 1887 
Q 975 2525 1050 2975 
Q 750 2975 275 2950 
L 275 3375 
Q 750 3350 1200 3350 
L 1200 4325 
Q 950 4275 550 4200 
Q 475 4425 275 4625 
Q 750 4675 1237 4775 
Q 1725 4875 2125 5075 
Q 2275 4775 2500 4575 
z
M 3675 1025 
Q 3650 700 3650 300 
Q 3650 -75 3775 -100 
Q 3900 -125 4250 -125 
Q 4600 -125 4687 -100 
Q 4775 -75 4825 425 
Q 5025 275 5350 200 
Q 5150 -450 4950 -500 
Q 4750 -550 4175 -550 
Q 3625 -550 3425 -487 
Q 3225 -425 3225 -100 
L 3225 525 
Q 3225 775 3200 1025 
L 3675 1025 
z
M 3050 3675 
Q 3325 3650 3775 3650 
L 4275 3650 
Q 4450 4000 4575 4275 
L 3425 4275 
Q 3275 4050 3050 3675 
z
M 2925 900 
Q 2800 725 2700 287 
Q 2600 -150 2550 -300 
Q 2325 -200 2075 -175 
Q 2225 200 2275 412 
Q 2325 625 2425 1000 
L 2925 900 
z
M 5575 1100 
Q 5950 475 6175 50 
Q 5950 -25 5750 -175 
Q 5625 175 5200 925 
Q 5425 975 5575 1100 
z
M 4225 1300 
Q 4525 825 4625 525 
Q 4550 500 4250 350 
Q 4150 700 3850 1125 
Q 4050 1200 4225 1300 
z
" transform="scale(0.015625)"/>
      <path id="SimHei-5b9a" d="M 4200 3125 
Q 4675 3125 5175 3150 
L 5175 2675 
Q 4725 2700 4100 2700 
L 3550 2700 
L 3550 1700 
L 4600 1700 
Q 4875 1700 5375 1725 
L 5375 1250 
Q 4875 1275 4575 1275 
L 3550 1275 
L 3550 100 
Q 4600 -25 6050 125 
Q 5850 -200 5800 -475 
Q 4800 -475 4150 -450 
Q 3500 -425 3050 -300 
Q 2600 -175 2250 75 
Q 1900 325 1600 675 
Q 1200 -50 675 -575 
Q 450 -350 175 -250 
Q 875 300 1200 1050 
Q 1525 1800 1550 2200 
Q 1800 2050 2150 1975 
Q 2075 1875 1987 1662 
Q 1900 1450 1775 1125 
Q 1950 900 2300 612 
Q 2650 325 3050 200 
L 3050 2700 
L 2250 2700 
Q 1825 2700 1400 2675 
L 1400 3150 
Q 1825 3125 2400 3125 
L 4200 3125 
z
M 5750 4275 
Q 5725 3925 5725 3750 
Q 5725 3575 5750 3275 
L 5225 3275 
L 5225 3875 
L 1225 3875 
L 1225 3275 
L 700 3275 
Q 725 3475 725 3725 
Q 725 3975 700 4275 
L 5750 4275 
z
M 2650 5050 
Q 2875 5125 3100 5300 
Q 3375 4975 3600 4550 
Q 3250 4400 3100 4300 
Q 3050 4525 2650 5050 
z
" transform="scale(0.015625)"/>
      <path id="SimHei-6027" d="M 3450 4525 
Q 3325 4075 3275 3750 
L 4050 3750 
L 4050 4275 
Q 4050 4700 4025 5100 
L 4550 5100 
Q 4525 4700 4525 4275 
L 4525 3750 
L 5025 3750 
Q 5350 3750 5800 3775 
L 5800 3300 
Q 5350 3325 5025 3325 
L 4525 3325 
L 4525 2000 
L 4975 2000 
Q 5350 2000 5725 2025 
L 5725 1550 
Q 5350 1575 4975 1575 
L 4525 1575 
L 4525 25 
L 5200 25 
Q 5625 25 6025 50 
L 6025 -400 
Q 5625 -375 5200 -375 
L 3275 -375 
Q 2825 -375 2400 -400 
L 2400 50 
Q 2825 25 3250 25 
L 4050 25 
L 4050 1575 
L 3625 1575 
Q 3300 1575 2875 1550 
L 2875 2025 
Q 3200 2000 3625 2000 
L 4050 2000 
L 4050 3325 
L 3175 3325 
Q 3100 2950 2775 2225 
Q 2500 2375 2325 2400 
Q 2675 3125 2775 3650 
Q 2875 4175 2950 4650 
Q 3200 4575 3450 4525 
z
M 1700 5150 
Q 1675 4650 1675 4175 
L 1675 425 
Q 1675 -100 1700 -625 
L 1175 -625 
Q 1200 -100 1200 425 
L 1200 4175 
Q 1200 4700 1175 5150 
L 1700 5150 
z
M 975 3725 
Q 825 2675 700 2150 
Q 450 2200 250 2250 
Q 425 2900 525 3800 
Q 725 3775 975 3725 
z
M 2125 4025 
Q 2325 3625 2525 3000 
Q 2300 2925 2125 2825 
Q 1950 3375 1750 3850 
Q 1950 3950 2125 4025 
z
" transform="scale(0.015625)"/>
      <path id="SimHei-5f71" d="M 3550 5025 
Q 3500 4625 3512 4187 
Q 3525 3750 3550 3325 
L 775 3325 
Q 800 3750 787 4187 
Q 775 4625 775 5025 
L 3550 5025 
z
M 1450 -100 
Q 2050 -75 1975 200 
L 1975 1100 
L 775 1100 
Q 800 1375 787 1650 
Q 775 1925 775 2225 
L 3550 2225 
Q 3525 1925 3512 1650 
Q 3500 1375 3550 1100 
L 2475 1100 
L 2475 175 
Q 2500 -250 2300 -375 
Q 2100 -500 1625 -600 
Q 1575 -325 1450 -100 
z
M 2375 3250 
Q 2400 3075 2425 2875 
L 3175 2875 
Q 3600 2875 4050 2900 
L 4050 2475 
Q 3600 2500 3175 2500 
L 1200 2500 
Q 700 2500 275 2475 
L 275 2900 
Q 700 2875 1200 2875 
L 1900 2875 
Q 1875 3025 1850 3200 
Q 2100 3250 2375 3250 
z
M 6150 1350 
Q 5675 775 5000 225 
Q 4325 -325 3725 -650 
Q 3575 -400 3400 -250 
Q 3975 25 4600 500 
Q 5225 975 5775 1725 
Q 5950 1525 6150 1350 
z
M 5925 3125 
Q 5625 2850 5212 2362 
Q 4800 1875 4200 1425 
Q 4025 1625 3800 1725 
Q 4375 2050 4787 2525 
Q 5200 3000 5525 3500 
Q 5675 3325 5925 3125 
z
M 5725 4825 
Q 5325 4550 5037 4162 
Q 4750 3775 4175 3275 
Q 3975 3450 3800 3550 
Q 4175 3825 4550 4237 
Q 4925 4650 5225 5175 
Q 5425 5000 5725 4825 
z
M 3075 1475 
L 3075 1850 
L 1250 1850 
L 1250 1475 
L 3075 1475 
z
M 3075 3700 
L 3075 4000 
L 1250 4000 
L 1250 3700 
L 3075 3700 
z
M 3075 4375 
L 3075 4675 
L 1250 4675 
L 1250 4375 
L 3075 4375 
z
M 1500 500 
Q 1075 75 575 -325 
Q 475 -175 275 -25 
Q 700 250 1125 825 
Q 1300 625 1500 500 
z
M 3250 -50 
Q 3050 275 2750 550 
Q 2900 700 3075 850 
Q 3400 525 3600 250 
L 3250 -50 
z
" transform="scale(0.015625)"/>
      <path id="SimHei-54cd" d="M 4150 5125 
Q 4000 4975 3850 4325 
L 5875 4325 
Q 5850 3800 5850 3325 
L 5850 50 
Q 5825 -225 5625 -350 
Q 5425 -475 4850 -550 
Q 4850 -325 4600 25 
Q 5125 25 5237 62 
Q 5350 100 5350 225 
L 5350 3950 
L 2950 3950 
L 2950 -575 
L 2450 -575 
Q 2475 -75 2475 450 
L 2475 3125 
Q 2475 3750 2450 4325 
L 3350 4325 
Q 3475 4775 3525 5250 
Q 3950 5150 4150 5125 
z
M 4875 900 
L 3425 900 
L 3425 3100 
L 4875 3100 
L 4875 900 
z
M 4450 1275 
L 4450 2700 
L 3875 2700 
L 3875 1275 
L 4450 1275 
z
M 2075 4500 
Q 2050 3975 2050 3425 
L 2050 1750 
Q 2050 1250 2075 600 
L 1650 600 
L 1650 1050 
L 950 1050 
L 950 275 
L 500 275 
Q 525 750 525 1275 
L 525 3425 
Q 525 3975 500 4500 
L 2075 4500 
z
M 1650 1400 
L 1650 4125 
L 950 4125 
L 950 1400 
L 1650 1400 
z
" transform="scale(0.015625)"/>
     </defs>
     <use xlink:href="#SimHei-8ba8"/>
     <use xlink:href="#SimHei-8bba" x="100"/>
     <use xlink:href="#SimHei-4e0d" x="200"/>
     <use xlink:href="#SimHei-540c" x="300"/>
     <use xlink:href="#SimHei-5f3a" x="400"/>
     <use xlink:href="#SimHei-5ea6" x="500"/>
     <use xlink:href="#SimHei-7684" x="600"/>
     <use xlink:href="#SimHei-5e72" x="700"/>
     <use xlink:href="#SimHei-6270" x="800"/>
     <use xlink:href="#SimHei-5bf9" x="900"/>
     <use xlink:href="#SimHei-4e0d" x="1000"/>
     <use xlink:href="#SimHei-7a33" x="1100"/>
     <use xlink:href="#SimHei-5b9a" x="1200"/>
     <use xlink:href="#SimHei-6027" x="1300"/>
     <use xlink:href="#SimHei-7684" x="1400"/>
     <use xlink:href="#SimHei-5f71" x="1500"/>
     <use xlink:href="#SimHei-54cd" x="1600"/>
    </g>
   </g>
   <g id="legend_1">
    <g id="patch_7">
     <path d="M 185.5625 114.096875 
L 282.5625 114.096875 
Q 284.5625 114.096875 284.5625 112.096875 
L 284.5625 33.440625 
Q 284.5625 31.440625 282.5625 31.440625 
L 185.5625 31.440625 
Q 183.5625 31.440625 183.5625 33.440625 
L 183.5625 112.096875 
Q 183.5625 114.096875 185.5625 114.096875 
z
" style="fill: #ffffff; opacity: 0.8; stroke: #cccccc; stroke-linejoin: miter"/>
    </g>
    <g id="line2d_23">
     <path d="M 187.5625 38.940625 
L 197.5625 38.940625 
L 207.5625 38.940625 
" style="fill: none; stroke: #1f77b4; stroke-width: 2; stroke-linecap: square"/>
    </g>
    <g id="text_20">
     <!-- EU -->
     <g transform="translate(215.5625 42.440625)scale(0.1 -0.1)">
      <defs>
       <path id="SimHei-45" d="M 2900 125 
L 350 125 
L 350 4400 
L 2775 4400 
L 2775 3925 
L 925 3925 
L 925 2600 
L 2625 2600 
L 2625 2125 
L 925 2125 
L 925 600 
L 2900 600 
L 2900 125 
z
" transform="scale(0.015625)"/>
       <path id="SimHei-55" d="M 2875 1375 
Q 2875 775 2562 425 
Q 2250 75 1575 75 
Q 900 75 587 425 
Q 275 775 275 1375 
L 275 4400 
L 850 4400 
L 850 1375 
Q 850 950 1050 750 
Q 1250 550 1575 550 
Q 1900 550 2100 750 
Q 2300 950 2300 1375 
L 2300 4400 
L 2875 4400 
L 2875 1375 
z
" transform="scale(0.015625)"/>
      </defs>
      <use xlink:href="#SimHei-45"/>
      <use xlink:href="#SimHei-55" x="50"/>
     </g>
    </g>
    <g id="line2d_24">
     <path d="M 187.5625 52.190625 
L 197.5625 52.190625 
L 207.5625 52.190625 
" style="fill: none; stroke: #ff7f0e; stroke-width: 3; stroke-linecap: square"/>
    </g>
    <g id="text_21">
     <!-- VGaDis -->
     <g transform="translate(215.5625 55.690625)scale(0.1 -0.1)">
      <defs>
       <path id="SimHei-56" d="M 3050 4400 
L 1800 75 
L 1300 75 
L 50 4400 
L 650 4400 
L 1525 1125 
L 1575 1125 
L 2450 4400 
L 3050 4400 
z
" transform="scale(0.015625)"/>
       <path id="SimHei-47" d="M 2850 75 
L 2425 75 
L 2350 425 
Q 2250 275 2037 175 
Q 1825 75 1575 75 
Q 1050 75 637 562 
Q 225 1050 225 2125 
Q 225 3300 600 3875 
Q 975 4450 1625 4450 
Q 2200 4450 2525 4025 
Q 2850 3600 2850 2925 
L 2300 2925 
Q 2300 3450 2125 3712 
Q 1950 3975 1625 3975 
Q 1225 3975 1025 3562 
Q 825 3150 825 2175 
Q 825 1250 1075 900 
Q 1325 550 1650 550 
Q 1975 550 2162 787 
Q 2350 1025 2350 1525 
L 2350 1800 
L 1575 1800 
L 1575 2275 
L 2850 2275 
L 2850 75 
z
" transform="scale(0.015625)"/>
       <path id="SimHei-44" d="M 2925 2250 
Q 2925 1100 2437 612 
Q 1950 125 1125 125 
L 275 125 
L 275 4400 
L 1125 4400 
Q 2050 4400 2487 3900 
Q 2925 3400 2925 2250 
z
M 2325 2250 
Q 2325 3175 2025 3550 
Q 1725 3925 1125 3925 
L 850 3925 
L 850 600 
L 1125 600 
Q 1725 600 2025 962 
Q 2325 1325 2325 2250 
z
" transform="scale(0.015625)"/>
      </defs>
      <use xlink:href="#SimHei-56"/>
      <use xlink:href="#SimHei-47" x="50"/>
      <use xlink:href="#SimHei-61" x="100"/>
      <use xlink:href="#SimHei-44" x="150"/>
      <use xlink:href="#SimHei-69" x="200"/>
      <use xlink:href="#SimHei-73" x="250"/>
     </g>
    </g>
    <g id="line2d_25">
     <path d="M 187.5625 65.440625 
L 197.5625 65.440625 
L 207.5625 65.440625 
" style="fill: none; stroke: #2ca02c; stroke-width: 2; stroke-linecap: square"/>
    </g>
    <g id="text_22">
     <!-- Manhattan -->
     <g transform="translate(215.5625 68.940625)scale(0.1 -0.1)">
      <defs>
       <path id="SimHei-4d" d="M 2925 125 
L 2425 125 
L 2425 3175 
L 2375 3175 
L 1775 125 
L 1375 125 
L 775 3175 
L 725 3175 
L 725 125 
L 225 125 
L 225 4400 
L 1000 4400 
L 1550 1575 
L 1600 1575 
L 2150 4400 
L 2925 4400 
L 2925 125 
z
" transform="scale(0.015625)"/>
       <path id="SimHei-6e" d="M 2800 125 
L 2300 125 
L 2300 1925 
Q 2300 2225 2150 2400 
Q 2000 2575 1750 2575 
Q 1425 2575 1137 2237 
Q 850 1900 850 1400 
L 850 125 
L 350 125 
L 350 2925 
L 850 2925 
L 850 2400 
Q 1050 2675 1287 2825 
Q 1525 2975 1900 2975 
Q 2350 2975 2575 2725 
Q 2800 2475 2800 2100 
L 2800 125 
z
" transform="scale(0.015625)"/>
       <path id="SimHei-68" d="M 2800 125 
L 2300 125 
L 2300 1925 
Q 2300 2225 2150 2400 
Q 2000 2575 1750 2575 
Q 1425 2575 1137 2237 
Q 850 1900 850 1400 
L 850 125 
L 350 125 
L 350 4400 
L 850 4400 
L 850 2400 
Q 1050 2675 1287 2825 
Q 1525 2975 1900 2975 
Q 2350 2975 2575 2725 
Q 2800 2475 2800 2100 
L 2800 125 
z
" transform="scale(0.015625)"/>
       <path id="SimHei-74" d="M 2750 200 
Q 2625 150 2462 112 
Q 2300 75 2025 75 
Q 1575 75 1300 325 
Q 1025 575 1025 1025 
L 1025 2525 
L 175 2525 
L 175 2925 
L 1025 2925 
L 1025 3900 
L 1525 3900 
L 1525 2925 
L 2550 2925 
L 2550 2525 
L 1525 2525 
L 1525 1000 
Q 1525 800 1625 662 
Q 1725 525 2000 525 
Q 2275 525 2450 575 
Q 2625 625 2750 700 
L 2750 200 
z
" transform="scale(0.015625)"/>
      </defs>
      <use xlink:href="#SimHei-4d"/>
      <use xlink:href="#SimHei-61" x="50"/>
      <use xlink:href="#SimHei-6e" x="100"/>
      <use xlink:href="#SimHei-68" x="150"/>
      <use xlink:href="#SimHei-61" x="200"/>
      <use xlink:href="#SimHei-74" x="250"/>
      <use xlink:href="#SimHei-74" x="300"/>
      <use xlink:href="#SimHei-61" x="350"/>
      <use xlink:href="#SimHei-6e" x="400"/>
     </g>
    </g>
    <g id="line2d_26">
     <path d="M 187.5625 78.690625 
L 197.5625 78.690625 
L 207.5625 78.690625 
" style="fill: none; stroke: #d62728; stroke-width: 2; stroke-linecap: square"/>
    </g>
    <g id="text_23">
     <!-- VGdDis -->
     <g transform="translate(215.5625 82.190625)scale(0.1 -0.1)">
      <use xlink:href="#SimHei-56"/>
      <use xlink:href="#SimHei-47" x="50"/>
      <use xlink:href="#SimHei-64" x="100"/>
      <use xlink:href="#SimHei-44" x="150"/>
      <use xlink:href="#SimHei-69" x="200"/>
      <use xlink:href="#SimHei-73" x="250"/>
     </g>
    </g>
    <g id="line2d_27">
     <path d="M 187.5625 91.940625 
L 197.5625 91.940625 
L 207.5625 91.940625 
" style="fill: none; stroke: #9467bd; stroke-width: 2; stroke-linecap: square"/>
    </g>
    <g id="text_24">
     <!-- dtw_Manhattan -->
     <g transform="translate(215.5625 95.440625)scale(0.1 -0.1)">
      <defs>
       <path id="SimHei-77" d="M 3075 2925 
L 2450 75 
L 1975 75 
L 1575 2250 
L 1525 2250 
L 1125 75 
L 650 75 
L 25 2925 
L 550 2925 
L 875 1050 
L 925 1050 
L 1275 2925 
L 1825 2925 
L 2175 1050 
L 2225 1050 
L 2550 2925 
L 3075 2925 
z
" transform="scale(0.015625)"/>
       <path id="SimHei-5f" d="M 3150 -850 
L 0 -850 
L 0 -550 
L 3150 -550 
L 3150 -850 
z
" transform="scale(0.015625)"/>
      </defs>
      <use xlink:href="#SimHei-64"/>
      <use xlink:href="#SimHei-74" x="50"/>
      <use xlink:href="#SimHei-77" x="100"/>
      <use xlink:href="#SimHei-5f" x="150"/>
      <use xlink:href="#SimHei-4d" x="200"/>
      <use xlink:href="#SimHei-61" x="250"/>
      <use xlink:href="#SimHei-6e" x="300"/>
      <use xlink:href="#SimHei-68" x="350"/>
      <use xlink:href="#SimHei-61" x="400"/>
      <use xlink:href="#SimHei-74" x="450"/>
      <use xlink:href="#SimHei-74" x="500"/>
      <use xlink:href="#SimHei-61" x="550"/>
      <use xlink:href="#SimHei-6e" x="600"/>
     </g>
    </g>
    <g id="line2d_28">
     <path d="M 187.5625 105.26875 
L 197.5625 105.26875 
L 207.5625 105.26875 
" style="fill: none; stroke: #8c564b; stroke-width: 2; stroke-linecap: square"/>
    </g>
    <g id="text_25">
     <!-- dtw_EU -->
     <g transform="translate(215.5625 108.76875)scale(0.1 -0.1)">
      <use xlink:href="#SimHei-64"/>
      <use xlink:href="#SimHei-74" x="50"/>
      <use xlink:href="#SimHei-77" x="100"/>
      <use xlink:href="#SimHei-5f" x="150"/>
      <use xlink:href="#SimHei-45" x="200"/>
      <use xlink:href="#SimHei-55" x="250"/>
     </g>
    </g>
   </g>
  </g>
 </g>
 <defs>
  <clipPath id="p2b15eedc78">
   <rect x="46.925" y="26.440625" width="374.275" height="222.290625"/>
  </clipPath>
 </defs>
</svg>
