<?xml version="1.0" encoding="utf-8" standalone="no"?>
<!DOCTYPE svg PUBLIC "-//W3C//DTD SVG 1.1//EN"
  "http://www.w3.org/Graphics/SVG/1.1/DTD/svg11.dtd">
<svg xmlns:xlink="http://www.w3.org/1999/xlink" width="432pt" height="288pt" viewBox="0 0 432 288" xmlns="http://www.w3.org/2000/svg" version="1.1">
 <metadata>
  <rdf:RDF xmlns:dc="http://purl.org/dc/elements/1.1/" xmlns:cc="http://creativecommons.org/ns#" xmlns:rdf="http://www.w3.org/1999/02/22-rdf-syntax-ns#">
   <cc:Work>
    <dc:type rdf:resource="http://purl.org/dc/dcmitype/StillImage"/>
    <dc:date>2023-03-27T18:36:46.643992</dc:date>
    <dc:format>image/svg+xml</dc:format>
    <dc:creator>
     <cc:Agent>
      <dc:title>Matplotlib v3.5.2, https://matplotlib.org/</dc:title>
     </cc:Agent>
    </dc:creator>
   </cc:Work>
  </rdf:RDF>
 </metadata>
 <defs>
  <style type="text/css">*{stroke-linejoin: round; stroke-linecap: butt}</style>
 </defs>
 <g id="figure_1">
  <g id="patch_1">
   <path d="M 0 288 
L 432 288 
L 432 0 
L 0 0 
L 0 288 
z
" style="fill: none"/>
  </g>
  <g id="axes_1">
   <g id="patch_2">
    <path d="M 54 252 
L 388.8 252 
L 388.8 34.56 
L 54 34.56 
z
" style="fill: #ffffff"/>
   </g>
   <g id="matplotlib.axis_1">
    <g id="xtick_1">
     <g id="line2d_1">
      <defs>
       <path id="m6da84eb234" d="M 0 0 
L 0 3.5 
" style="stroke: #000000; stroke-width: 0.8"/>
      </defs>
      <g>
       <use xlink:href="#m6da84eb234" x="69.218182" y="252" style="stroke: #000000; stroke-width: 0.8"/>
      </g>
     </g>
     <g id="text_1">
      <!-- -200 -->
      <g transform="translate(59.218182 265.875)scale(0.1 -0.1)">
       <defs>
        <path id="SimHei-2d" d="M 2975 2125 
L 125 2125 
L 125 2525 
L 2975 2525 
L 2975 2125 
z
" transform="scale(0.015625)"/>
        <path id="SimHei-32" d="M 300 250 
Q 325 625 650 925 
Q 975 1225 1475 1862 
Q 1975 2500 2125 2850 
Q 2275 3200 2237 3450 
Q 2200 3700 2000 3862 
Q 1800 4025 1537 4000 
Q 1275 3975 1037 3800 
Q 800 3625 675 3275 
L 200 3350 
Q 400 3925 712 4187 
Q 1025 4450 1450 4475 
Q 1700 4500 1900 4462 
Q 2100 4425 2312 4287 
Q 2525 4150 2662 3875 
Q 2800 3600 2762 3212 
Q 2725 2825 2375 2287 
Q 2025 1750 1025 600 
L 2825 600 
L 2825 150 
L 300 150 
L 300 250 
z
" transform="scale(0.015625)"/>
        <path id="SimHei-30" d="M 225 2537 
Q 250 3200 412 3587 
Q 575 3975 875 4225 
Q 1175 4475 1612 4475 
Q 2050 4475 2375 4112 
Q 2700 3750 2800 3200 
Q 2900 2650 2862 1937 
Q 2825 1225 2612 775 
Q 2400 325 1975 150 
Q 1550 -25 1125 187 
Q 700 400 525 750 
Q 350 1100 275 1487 
Q 200 1875 225 2537 
z
M 750 2687 
Q 675 2000 800 1462 
Q 925 925 1212 700 
Q 1500 475 1800 612 
Q 2100 750 2237 1162 
Q 2375 1575 2375 2062 
Q 2375 2550 2337 2950 
Q 2300 3350 2112 3675 
Q 1925 4000 1612 4012 
Q 1300 4025 1062 3700 
Q 825 3375 750 2687 
z
" transform="scale(0.015625)"/>
       </defs>
       <use xlink:href="#SimHei-2d"/>
       <use xlink:href="#SimHei-32" x="50"/>
       <use xlink:href="#SimHei-30" x="100"/>
       <use xlink:href="#SimHei-30" x="150"/>
      </g>
     </g>
    </g>
    <g id="xtick_2">
     <g id="line2d_2">
      <g>
       <use xlink:href="#m6da84eb234" x="107.358988" y="252" style="stroke: #000000; stroke-width: 0.8"/>
      </g>
     </g>
     <g id="text_2">
      <!-- -150 -->
      <g transform="translate(97.358988 265.875)scale(0.1 -0.1)">
       <defs>
        <path id="SimHei-31" d="M 1400 3600 
Q 1075 3275 575 2975 
L 575 3450 
Q 1200 3875 1600 4450 
L 1900 4450 
L 1900 150 
L 1400 150 
L 1400 3600 
z
" transform="scale(0.015625)"/>
        <path id="SimHei-35" d="M 550 1325 
Q 725 650 1150 575 
Q 1575 500 1837 662 
Q 2100 825 2212 1087 
Q 2325 1350 2312 1675 
Q 2300 2000 2137 2225 
Q 1975 2450 1725 2525 
Q 1475 2600 1162 2525 
Q 850 2450 650 2175 
L 225 2225 
Q 275 2375 700 4375 
L 2675 4375 
L 2675 3925 
L 1075 3925 
Q 950 3250 825 2850 
Q 1200 3025 1525 3012 
Q 1850 3000 2150 2862 
Q 2450 2725 2587 2487 
Q 2725 2250 2787 2012 
Q 2850 1775 2837 1500 
Q 2825 1225 2725 937 
Q 2625 650 2425 462 
Q 2225 275 1937 162 
Q 1650 50 1275 75 
Q 900 100 562 350 
Q 225 600 100 1200 
L 550 1325 
z
" transform="scale(0.015625)"/>
       </defs>
       <use xlink:href="#SimHei-2d"/>
       <use xlink:href="#SimHei-31" x="50"/>
       <use xlink:href="#SimHei-35" x="100"/>
       <use xlink:href="#SimHei-30" x="150"/>
      </g>
     </g>
    </g>
    <g id="xtick_3">
     <g id="line2d_3">
      <g>
       <use xlink:href="#m6da84eb234" x="145.499795" y="252" style="stroke: #000000; stroke-width: 0.8"/>
      </g>
     </g>
     <g id="text_3">
      <!-- -100 -->
      <g transform="translate(135.499795 265.875)scale(0.1 -0.1)">
       <use xlink:href="#SimHei-2d"/>
       <use xlink:href="#SimHei-31" x="50"/>
       <use xlink:href="#SimHei-30" x="100"/>
       <use xlink:href="#SimHei-30" x="150"/>
      </g>
     </g>
    </g>
    <g id="xtick_4">
     <g id="line2d_4">
      <g>
       <use xlink:href="#m6da84eb234" x="183.640602" y="252" style="stroke: #000000; stroke-width: 0.8"/>
      </g>
     </g>
     <g id="text_4">
      <!-- -50 -->
      <g transform="translate(176.140602 265.875)scale(0.1 -0.1)">
       <use xlink:href="#SimHei-2d"/>
       <use xlink:href="#SimHei-35" x="50"/>
       <use xlink:href="#SimHei-30" x="100"/>
      </g>
     </g>
    </g>
    <g id="xtick_5">
     <g id="line2d_5">
      <g>
       <use xlink:href="#m6da84eb234" x="221.781408" y="252" style="stroke: #000000; stroke-width: 0.8"/>
      </g>
     </g>
     <g id="text_5">
      <!-- 0 -->
      <g transform="translate(219.281408 265.875)scale(0.1 -0.1)">
       <use xlink:href="#SimHei-30"/>
      </g>
     </g>
    </g>
    <g id="xtick_6">
     <g id="line2d_6">
      <g>
       <use xlink:href="#m6da84eb234" x="259.922215" y="252" style="stroke: #000000; stroke-width: 0.8"/>
      </g>
     </g>
     <g id="text_6">
      <!-- 50 -->
      <g transform="translate(254.922215 265.875)scale(0.1 -0.1)">
       <use xlink:href="#SimHei-35"/>
       <use xlink:href="#SimHei-30" x="50"/>
      </g>
     </g>
    </g>
    <g id="xtick_7">
     <g id="line2d_7">
      <g>
       <use xlink:href="#m6da84eb234" x="298.063021" y="252" style="stroke: #000000; stroke-width: 0.8"/>
      </g>
     </g>
     <g id="text_7">
      <!-- 100 -->
      <g transform="translate(290.563021 265.875)scale(0.1 -0.1)">
       <use xlink:href="#SimHei-31"/>
       <use xlink:href="#SimHei-30" x="50"/>
       <use xlink:href="#SimHei-30" x="100"/>
      </g>
     </g>
    </g>
    <g id="xtick_8">
     <g id="line2d_8">
      <g>
       <use xlink:href="#m6da84eb234" x="336.203828" y="252" style="stroke: #000000; stroke-width: 0.8"/>
      </g>
     </g>
     <g id="text_8">
      <!-- 150 -->
      <g transform="translate(328.703828 265.875)scale(0.1 -0.1)">
       <use xlink:href="#SimHei-31"/>
       <use xlink:href="#SimHei-35" x="50"/>
       <use xlink:href="#SimHei-30" x="100"/>
      </g>
     </g>
    </g>
    <g id="xtick_9">
     <g id="line2d_9">
      <g>
       <use xlink:href="#m6da84eb234" x="374.344634" y="252" style="stroke: #000000; stroke-width: 0.8"/>
      </g>
     </g>
     <g id="text_9">
      <!-- 200 -->
      <g transform="translate(366.844634 265.875)scale(0.1 -0.1)">
       <use xlink:href="#SimHei-32"/>
       <use xlink:href="#SimHei-30" x="50"/>
       <use xlink:href="#SimHei-30" x="100"/>
      </g>
     </g>
    </g>
    <g id="text_10">
     <!-- 干扰强度 -->
     <g transform="translate(201.4 279.132812)scale(0.1 -0.1)">
      <defs>
       <path id="SimHei-5e72" d="M 4625 4775 
Q 5050 4775 5500 4800 
L 5500 4300 
Q 5050 4325 4625 4325 
L 3475 4325 
L 3475 2525 
L 5225 2525 
Q 5700 2525 6000 2550 
L 6000 2050 
Q 5700 2075 5225 2075 
L 3475 2075 
L 3475 325 
Q 3475 -75 3500 -625 
L 2925 -625 
Q 2950 -100 2950 325 
L 2950 2075 
L 1225 2075 
Q 775 2075 400 2050 
L 400 2550 
Q 775 2525 1225 2525 
L 2950 2525 
L 2950 4325 
L 1925 4325 
Q 1450 4325 925 4300 
L 925 4800 
Q 1450 4775 1800 4775 
L 4625 4775 
z
" transform="scale(0.015625)"/>
       <path id="SimHei-6270" d="M 4575 425 
Q 4575 0 4950 0 
L 5250 0 
Q 5400 0 5450 150 
Q 5500 300 5500 575 
Q 5750 425 6025 375 
Q 5950 50 5862 -175 
Q 5775 -400 5500 -425 
L 4825 -425 
Q 4125 -425 4125 300 
L 4125 3075 
L 3875 3075 
Q 3800 1550 3375 725 
Q 2950 -100 2425 -575 
Q 2275 -375 1950 -275 
Q 2375 25 2687 487 
Q 3000 950 3187 1537 
Q 3375 2125 3400 3075 
Q 3000 3075 2650 3050 
L 2650 3500 
Q 2975 3475 3400 3475 
Q 3425 4225 3375 5125 
Q 3700 5100 3950 5075 
Q 3900 4925 3887 4550 
Q 3875 4175 3875 3475 
L 5050 3475 
Q 5575 3475 5850 3500 
L 5850 3050 
Q 5550 3075 5100 3075 
L 4575 3075 
L 4575 425 
z
M 1775 5150 
Q 1750 4750 1750 3675 
Q 2000 3675 2425 3700 
L 2425 3250 
Q 2000 3275 1750 3275 
L 1750 2275 
Q 2025 2400 2350 2575 
Q 2325 2400 2375 2125 
Q 2175 2050 1750 1825 
L 1750 0 
Q 1750 -325 1512 -450 
Q 1275 -575 825 -650 
Q 800 -350 600 -125 
Q 1275 -125 1275 100 
L 1275 1650 
Q 850 1425 575 1275 
Q 475 1525 325 1750 
Q 675 1850 1275 2100 
L 1275 3275 
Q 725 3275 450 3250 
L 450 3700 
Q 800 3675 1275 3675 
Q 1275 4675 1250 5150 
L 1775 5150 
z
M 5200 3750 
Q 4825 4300 4450 4675 
Q 4650 4800 4800 4975 
Q 5175 4550 5600 4025 
Q 5450 3950 5200 3750 
z
" transform="scale(0.015625)"/>
       <path id="SimHei-5f3a" d="M 2350 25 
Q 3100 75 3950 225 
L 3950 1200 
L 3100 1200 
L 3100 975 
L 2625 975 
Q 2650 1725 2650 2050 
L 2650 2875 
L 3950 2875 
L 3950 3500 
L 2850 3500 
Q 2875 3900 2875 4275 
Q 2875 4675 2850 5025 
L 5525 5025 
Q 5500 4675 5500 4275 
Q 5500 3900 5525 3500 
L 4400 3500 
L 4400 2875 
L 5750 2875 
Q 5725 2575 5725 2075 
Q 5725 1575 5750 1200 
L 4400 1200 
L 4400 275 
L 5250 425 
Q 5150 575 5050 750 
Q 5300 825 5475 925 
Q 5925 200 6175 -250 
Q 5925 -350 5725 -500 
Q 5625 -250 5425 100 
Q 5125 50 4225 -137 
Q 3325 -325 2600 -525 
Q 2525 -200 2350 25 
z
M 600 -25 
Q 1250 -25 1400 50 
Q 1550 125 1575 325 
L 1675 1850 
L 500 1850 
Q 550 2350 562 2762 
Q 575 3175 575 3575 
L 1800 3575 
L 1800 4550 
L 1275 4550 
Q 825 4550 425 4525 
L 425 4950 
Q 850 4925 1275 4925 
L 2275 4925 
Q 2250 4525 2250 4075 
Q 2250 3650 2275 3200 
L 1075 3200 
L 1025 2225 
L 2175 2225 
Q 2125 1775 2100 1425 
L 2025 150 
Q 1975 -250 1637 -387 
Q 1300 -525 850 -600 
Q 775 -275 600 -25 
z
M 5050 3875 
L 5050 4650 
L 3325 4650 
L 3325 3875 
L 5050 3875 
z
M 3950 1575 
L 3950 2500 
L 3100 2500 
L 3100 1575 
L 3950 1575 
z
M 5250 1575 
L 5250 2500 
L 4400 2500 
L 4400 1575 
L 5250 1575 
z
" transform="scale(0.015625)"/>
       <path id="SimHei-5ea6" d="M 1750 1675 
Q 2450 1650 2875 1650 
L 5200 1650 
Q 4975 1250 4650 850 
Q 4325 450 4025 200 
Q 4350 50 4950 -50 
Q 5550 -150 6100 -150 
Q 5950 -300 5825 -650 
Q 5100 -550 4550 -412 
Q 4000 -275 3625 -100 
Q 3100 -325 2587 -462 
Q 2075 -600 1525 -675 
Q 1450 -475 1225 -250 
Q 1675 -250 2250 -125 
Q 2825 0 3250 200 
Q 2825 550 2400 1275 
L 1750 1250 
L 1750 1675 
z
M 2975 5075 
Q 3250 5150 3475 5250 
Q 3625 4975 3775 4525 
L 4700 4525 
Q 4975 4525 5700 4550 
L 5700 4100 
Q 5000 4125 4650 4125 
L 1375 4125 
Q 1375 3000 1350 2312 
Q 1325 1625 1212 950 
Q 1100 275 725 -525 
Q 500 -375 250 -300 
Q 650 400 762 1075 
Q 875 1750 887 2800 
Q 900 3850 875 4525 
L 3200 4525 
Q 3100 4850 2975 5075 
z
M 2475 3300 
Q 2475 3700 2450 3925 
L 2975 3925 
Q 2950 3725 2950 3300 
L 4300 3300 
Q 4300 3700 4275 3950 
L 4800 3950 
Q 4775 3650 4775 3300 
Q 5325 3300 5725 3325 
L 5725 2900 
Q 5350 2925 4775 2925 
Q 4775 2250 4800 1950 
L 2450 1950 
Q 2475 2350 2475 2925 
Q 2175 2925 1600 2900 
L 1600 3325 
Q 2175 3300 2475 3300 
z
M 4300 2350 
L 4300 2925 
L 2950 2925 
L 2950 2350 
L 4300 2350 
z
M 2875 1275 
Q 3200 775 3650 425 
Q 4025 700 4425 1275 
L 2900 1275 
L 2875 1275 
z
" transform="scale(0.015625)"/>
      </defs>
      <use xlink:href="#SimHei-5e72"/>
      <use xlink:href="#SimHei-6270" x="100"/>
      <use xlink:href="#SimHei-5f3a" x="200"/>
      <use xlink:href="#SimHei-5ea6" x="300"/>
     </g>
    </g>
   </g>
   <g id="matplotlib.axis_2">
    <g id="ytick_1">
     <g id="line2d_10">
      <defs>
       <path id="m3d70e302a0" d="M 0 0 
L -3.5 0 
" style="stroke: #000000; stroke-width: 0.8"/>
      </defs>
      <g>
       <use xlink:href="#m3d70e302a0" x="54" y="242.116364" style="stroke: #000000; stroke-width: 0.8"/>
      </g>
     </g>
     <g id="text_11">
      <!-- 0.00 -->
      <g transform="translate(27 245.553864)scale(0.1 -0.1)">
       <defs>
        <path id="SimHei-2e" d="M 1075 125 
L 500 125 
L 500 675 
L 1075 675 
L 1075 125 
z
" transform="scale(0.015625)"/>
       </defs>
       <use xlink:href="#SimHei-30"/>
       <use xlink:href="#SimHei-2e" x="50"/>
       <use xlink:href="#SimHei-30" x="100"/>
       <use xlink:href="#SimHei-30" x="150"/>
      </g>
     </g>
    </g>
    <g id="ytick_2">
     <g id="line2d_11">
      <g>
       <use xlink:href="#m3d70e302a0" x="54" y="203.905989" style="stroke: #000000; stroke-width: 0.8"/>
      </g>
     </g>
     <g id="text_12">
      <!-- 0.02 -->
      <g transform="translate(27 207.343489)scale(0.1 -0.1)">
       <use xlink:href="#SimHei-30"/>
       <use xlink:href="#SimHei-2e" x="50"/>
       <use xlink:href="#SimHei-30" x="100"/>
       <use xlink:href="#SimHei-32" x="150"/>
      </g>
     </g>
    </g>
    <g id="ytick_3">
     <g id="line2d_12">
      <g>
       <use xlink:href="#m3d70e302a0" x="54" y="165.695615" style="stroke: #000000; stroke-width: 0.8"/>
      </g>
     </g>
     <g id="text_13">
      <!-- 0.04 -->
      <g transform="translate(27 169.133115)scale(0.1 -0.1)">
       <defs>
        <path id="SimHei-34" d="M 2000 1100 
L 75 1100 
L 75 1525 
L 2100 4450 
L 2475 4450 
L 2475 1525 
L 3075 1525 
L 3075 1100 
L 2475 1100 
L 2475 150 
L 2000 150 
L 2000 1100 
z
M 2000 1525 
L 2000 3500 
L 600 1525 
L 2000 1525 
z
" transform="scale(0.015625)"/>
       </defs>
       <use xlink:href="#SimHei-30"/>
       <use xlink:href="#SimHei-2e" x="50"/>
       <use xlink:href="#SimHei-30" x="100"/>
       <use xlink:href="#SimHei-34" x="150"/>
      </g>
     </g>
    </g>
    <g id="ytick_4">
     <g id="line2d_13">
      <g>
       <use xlink:href="#m3d70e302a0" x="54" y="127.485241" style="stroke: #000000; stroke-width: 0.8"/>
      </g>
     </g>
     <g id="text_14">
      <!-- 0.06 -->
      <g transform="translate(27 130.922741)scale(0.1 -0.1)">
       <defs>
        <path id="SimHei-36" d="M 250 1612 
Q 275 1975 387 2225 
Q 500 2475 725 2850 
L 1750 4450 
L 2325 4450 
L 1275 2800 
Q 1950 2975 2350 2750 
Q 2750 2525 2887 2237 
Q 3025 1950 3037 1612 
Q 3050 1275 2937 950 
Q 2825 625 2537 362 
Q 2250 100 1737 75 
Q 1225 50 862 262 
Q 500 475 362 862 
Q 225 1250 250 1612 
z
M 1025 787 
Q 1250 550 1625 525 
Q 2000 500 2250 775 
Q 2500 1050 2500 1575 
Q 2500 2100 2187 2300 
Q 1875 2500 1487 2450 
Q 1100 2400 925 2075 
Q 750 1750 775 1387 
Q 800 1025 1025 787 
z
" transform="scale(0.015625)"/>
       </defs>
       <use xlink:href="#SimHei-30"/>
       <use xlink:href="#SimHei-2e" x="50"/>
       <use xlink:href="#SimHei-30" x="100"/>
       <use xlink:href="#SimHei-36" x="150"/>
      </g>
     </g>
    </g>
    <g id="ytick_5">
     <g id="line2d_14">
      <g>
       <use xlink:href="#m3d70e302a0" x="54" y="89.274867" style="stroke: #000000; stroke-width: 0.8"/>
      </g>
     </g>
     <g id="text_15">
      <!-- 0.08 -->
      <g transform="translate(27 92.712367)scale(0.1 -0.1)">
       <defs>
        <path id="SimHei-38" d="M 175 1375 
Q 175 1675 325 1962 
Q 475 2250 825 2425 
Q 525 2600 425 2812 
Q 325 3025 312 3300 
Q 300 3575 387 3775 
Q 475 3975 650 4150 
Q 825 4325 1037 4387 
Q 1250 4450 1500 4450 
Q 1750 4450 1950 4400 
Q 2150 4350 2375 4187 
Q 2600 4025 2700 3725 
Q 2800 3425 2687 3025 
Q 2575 2625 2100 2400 
Q 2525 2275 2700 2012 
Q 2875 1750 2875 1375 
Q 2875 1000 2762 775 
Q 2650 550 2512 400 
Q 2375 250 2137 162 
Q 1900 75 1537 75 
Q 1175 75 912 162 
Q 650 250 475 425 
Q 300 600 237 837 
Q 175 1075 175 1375 
z
M 687 1400 
Q 675 1100 787 875 
Q 900 650 1200 587 
Q 1500 525 1825 600 
Q 2150 675 2275 950 
Q 2400 1225 2362 1500 
Q 2325 1775 2050 1962 
Q 1775 2150 1450 2125 
Q 1125 2100 912 1900 
Q 700 1700 687 1400 
z
M 775 3350 
Q 775 3100 950 2875 
Q 1125 2650 1500 2650 
Q 1875 2650 2062 2875 
Q 2250 3100 2237 3412 
Q 2225 3725 2012 3875 
Q 1800 4025 1437 4000 
Q 1075 3975 925 3787 
Q 775 3600 775 3350 
z
" transform="scale(0.015625)"/>
       </defs>
       <use xlink:href="#SimHei-30"/>
       <use xlink:href="#SimHei-2e" x="50"/>
       <use xlink:href="#SimHei-30" x="100"/>
       <use xlink:href="#SimHei-38" x="150"/>
      </g>
     </g>
    </g>
    <g id="ytick_6">
     <g id="line2d_15">
      <g>
       <use xlink:href="#m3d70e302a0" x="54" y="51.064493" style="stroke: #000000; stroke-width: 0.8"/>
      </g>
     </g>
     <g id="text_16">
      <!-- 0.10 -->
      <g transform="translate(27 54.501993)scale(0.1 -0.1)">
       <use xlink:href="#SimHei-30"/>
       <use xlink:href="#SimHei-2e" x="50"/>
       <use xlink:href="#SimHei-31" x="100"/>
       <use xlink:href="#SimHei-30" x="150"/>
      </g>
     </g>
    </g>
    <g id="text_17">
     <!-- avg of abs(dis2-dis1)/(dis1+1) -->
     <g transform="translate(21.75 218.28)rotate(-90)scale(0.1 -0.1)">
      <defs>
       <path id="SimHei-61" d="M 2875 125 
L 2275 125 
Q 2225 175 2200 262 
Q 2175 350 2175 475 
Q 2000 275 1750 175 
Q 1500 75 1225 75 
Q 825 75 550 275 
Q 275 475 275 850 
Q 275 1225 525 1450 
Q 775 1675 1300 1750 
Q 1650 1800 1912 1875 
Q 2175 1950 2175 2075 
Q 2175 2225 2062 2375 
Q 1950 2525 1575 2525 
Q 1275 2525 1137 2412 
Q 1000 2300 950 2100 
L 400 2100 
Q 450 2500 762 2737 
Q 1075 2975 1575 2975 
Q 2125 2975 2400 2725 
Q 2675 2475 2675 2025 
L 2675 650 
Q 2675 500 2725 375 
Q 2775 250 2875 125 
z
M 2175 1050 
L 2175 1550 
Q 2025 1500 1887 1462 
Q 1750 1425 1425 1375 
Q 1050 1325 937 1200 
Q 825 1075 825 900 
Q 825 750 937 637 
Q 1050 525 1275 525 
Q 1500 525 1762 650 
Q 2025 775 2175 1050 
z
" transform="scale(0.015625)"/>
       <path id="SimHei-76" d="M 2875 2925 
L 1825 75 
L 1275 75 
L 225 2925 
L 750 2925 
L 1525 750 
L 1575 750 
L 2350 2925 
L 2875 2925 
z
" transform="scale(0.015625)"/>
       <path id="SimHei-67" d="M 2975 2500 
Q 2800 2550 2637 2562 
Q 2475 2575 2300 2525 
Q 2375 2450 2425 2337 
Q 2475 2225 2475 2000 
Q 2475 1575 2187 1300 
Q 1900 1025 1475 1025 
Q 1375 1025 1212 1062 
Q 1050 1100 950 1150 
Q 875 1100 850 1050 
Q 825 1000 825 925 
Q 825 800 1000 737 
Q 1175 675 1625 675 
Q 2350 675 2612 475 
Q 2875 275 2875 -25 
Q 2875 -425 2487 -612 
Q 2100 -800 1575 -800 
Q 900 -800 575 -625 
Q 250 -450 250 -150 
Q 250 0 375 150 
Q 500 300 700 400 
Q 550 475 462 587 
Q 375 700 375 875 
Q 375 1025 487 1137 
Q 600 1250 750 1325 
Q 625 1450 550 1625 
Q 475 1800 475 2000 
Q 475 2425 762 2700 
Q 1050 2975 1475 2975 
Q 1700 2975 1862 2912 
Q 2025 2850 2150 2725 
Q 2350 2875 2550 2937 
Q 2750 3000 2975 2975 
L 2975 2500 
z
M 1975 2000 
Q 1975 2250 1850 2400 
Q 1725 2550 1475 2550 
Q 1225 2550 1100 2400 
Q 975 2250 975 2000 
Q 975 1750 1100 1600 
Q 1225 1450 1475 1450 
Q 1725 1450 1850 1600 
Q 1975 1750 1975 2000 
z
M 2400 -75 
Q 2400 25 2287 125 
Q 2175 225 1725 225 
Q 1625 225 1450 237 
Q 1275 250 1050 275 
Q 850 200 775 100 
Q 700 0 700 -100 
Q 700 -250 900 -350 
Q 1100 -450 1600 -450 
Q 2025 -450 2212 -337 
Q 2400 -225 2400 -75 
z
" transform="scale(0.015625)"/>
       <path id="SimHei-20" transform="scale(0.015625)"/>
       <path id="SimHei-6f" d="M 2925 1525 
Q 2925 875 2525 475 
Q 2125 75 1575 75 
Q 1025 75 625 475 
Q 225 875 225 1525 
Q 225 2175 625 2575 
Q 1025 2975 1575 2975 
Q 2125 2975 2525 2575 
Q 2925 2175 2925 1525 
z
M 2375 1525 
Q 2375 2025 2125 2275 
Q 1875 2525 1575 2525 
Q 1275 2525 1025 2275 
Q 775 2025 775 1525 
Q 775 1025 1025 775 
Q 1275 525 1575 525 
Q 1875 525 2125 775 
Q 2375 1025 2375 1525 
z
" transform="scale(0.015625)"/>
       <path id="SimHei-66" d="M 2850 3825 
Q 2725 3900 2550 3950 
Q 2375 4000 2100 4000 
Q 1825 4000 1725 3862 
Q 1625 3725 1625 3525 
L 1625 2925 
L 2650 2925 
L 2650 2525 
L 1625 2525 
L 1625 125 
L 1125 125 
L 1125 2525 
L 275 2525 
L 275 2925 
L 1125 2925 
L 1125 3500 
Q 1125 3950 1400 4200 
Q 1675 4450 2125 4450 
Q 2400 4450 2562 4412 
Q 2725 4375 2850 4325 
L 2850 3825 
z
" transform="scale(0.015625)"/>
       <path id="SimHei-62" d="M 2825 1525 
Q 2825 800 2475 437 
Q 2125 75 1625 75 
Q 1350 75 1150 175 
Q 950 275 800 500 
L 800 125 
L 300 125 
L 300 4400 
L 800 4400 
L 800 2550 
Q 950 2775 1150 2887 
Q 1350 3000 1625 3000 
Q 2125 3000 2475 2625 
Q 2825 2250 2825 1525 
z
M 2275 1525 
Q 2275 2000 2087 2275 
Q 1900 2550 1525 2550 
Q 1225 2550 1012 2275 
Q 800 2000 800 1525 
Q 800 1050 1012 787 
Q 1225 525 1525 525 
Q 1900 525 2087 787 
Q 2275 1050 2275 1525 
z
" transform="scale(0.015625)"/>
       <path id="SimHei-73" d="M 2750 900 
Q 2750 500 2437 287 
Q 2125 75 1650 75 
Q 1050 75 725 312 
Q 400 550 400 1000 
L 900 1000 
Q 900 700 1112 600 
Q 1325 500 1625 500 
Q 1925 500 2075 612 
Q 2225 725 2225 900 
Q 2225 1025 2100 1150 
Q 1975 1275 1475 1350 
Q 900 1425 687 1637 
Q 475 1850 475 2200 
Q 475 2500 762 2737 
Q 1050 2975 1600 2975 
Q 2100 2975 2387 2750 
Q 2675 2525 2675 2150 
L 2175 2150 
Q 2175 2375 2012 2462 
Q 1850 2550 1600 2550 
Q 1275 2550 1137 2437 
Q 1000 2325 1000 2175 
Q 1000 2000 1125 1900 
Q 1250 1800 1650 1750 
Q 2300 1650 2525 1437 
Q 2750 1225 2750 900 
z
" transform="scale(0.015625)"/>
       <path id="SimHei-28" d="M 2975 -200 
L 2700 -475 
Q 2075 125 1762 775 
Q 1450 1425 1450 2250 
Q 1450 3075 1762 3725 
Q 2075 4375 2700 5000 
L 2975 4725 
Q 2400 4175 2112 3587 
Q 1825 3000 1825 2250 
Q 1825 1500 2112 912 
Q 2400 325 2975 -200 
z
" transform="scale(0.015625)"/>
       <path id="SimHei-64" d="M 2750 125 
L 2250 125 
L 2250 500 
Q 2100 275 1900 175 
Q 1700 75 1425 75 
Q 925 75 575 437 
Q 225 800 225 1525 
Q 225 2250 575 2625 
Q 925 3000 1425 3000 
Q 1700 3000 1900 2887 
Q 2100 2775 2250 2550 
L 2250 4400 
L 2750 4400 
L 2750 125 
z
M 2250 1525 
Q 2250 2000 2037 2275 
Q 1825 2550 1525 2550 
Q 1150 2550 962 2275 
Q 775 2000 775 1525 
Q 775 1050 962 787 
Q 1150 525 1525 525 
Q 1825 525 2037 787 
Q 2250 1050 2250 1525 
z
" transform="scale(0.015625)"/>
       <path id="SimHei-69" d="M 1800 3725 
L 1300 3725 
L 1300 4375 
L 1800 4375 
L 1800 3725 
z
M 1800 125 
L 1300 125 
L 1300 2925 
L 1800 2925 
L 1800 125 
z
" transform="scale(0.015625)"/>
       <path id="SimHei-29" d="M 1675 2250 
Q 1675 1425 1362 775 
Q 1050 125 425 -475 
L 150 -200 
Q 725 325 1012 912 
Q 1300 1500 1300 2250 
Q 1300 3000 1012 3587 
Q 725 4175 150 4725 
L 425 5000 
Q 1050 4375 1362 3725 
Q 1675 3075 1675 2250 
z
" transform="scale(0.015625)"/>
       <path id="SimHei-2f" d="M 3000 4550 
L 350 -175 
L 100 -25 
L 2750 4700 
L 3000 4550 
z
" transform="scale(0.015625)"/>
       <path id="SimHei-2b" d="M 3000 2125 
L 1775 2125 
L 1775 900 
L 1350 900 
L 1350 2125 
L 125 2125 
L 125 2525 
L 1350 2525 
L 1350 3750 
L 1775 3750 
L 1775 2525 
L 3000 2525 
L 3000 2125 
z
" transform="scale(0.015625)"/>
      </defs>
      <use xlink:href="#SimHei-61"/>
      <use xlink:href="#SimHei-76" x="50"/>
      <use xlink:href="#SimHei-67" x="100"/>
      <use xlink:href="#SimHei-20" x="150"/>
      <use xlink:href="#SimHei-6f" x="200"/>
      <use xlink:href="#SimHei-66" x="250"/>
      <use xlink:href="#SimHei-20" x="300"/>
      <use xlink:href="#SimHei-61" x="350"/>
      <use xlink:href="#SimHei-62" x="400"/>
      <use xlink:href="#SimHei-73" x="450"/>
      <use xlink:href="#SimHei-28" x="500"/>
      <use xlink:href="#SimHei-64" x="550"/>
      <use xlink:href="#SimHei-69" x="600"/>
      <use xlink:href="#SimHei-73" x="650"/>
      <use xlink:href="#SimHei-32" x="700"/>
      <use xlink:href="#SimHei-2d" x="750"/>
      <use xlink:href="#SimHei-64" x="800"/>
      <use xlink:href="#SimHei-69" x="850"/>
      <use xlink:href="#SimHei-73" x="900"/>
      <use xlink:href="#SimHei-31" x="950"/>
      <use xlink:href="#SimHei-29" x="1000"/>
      <use xlink:href="#SimHei-2f" x="1050"/>
      <use xlink:href="#SimHei-28" x="1100"/>
      <use xlink:href="#SimHei-64" x="1150"/>
      <use xlink:href="#SimHei-69" x="1200"/>
      <use xlink:href="#SimHei-73" x="1250"/>
      <use xlink:href="#SimHei-31" x="1300"/>
      <use xlink:href="#SimHei-2b" x="1350"/>
      <use xlink:href="#SimHei-31" x="1400"/>
      <use xlink:href="#SimHei-29" x="1450"/>
     </g>
    </g>
   </g>
   <g id="line2d_16">
    <path d="M 69.218182 57.774144 
L 69.980998 78.297574 
L 70.743814 75.93669 
L 71.50663 79.860018 
L 72.269446 79.430285 
L 73.795079 80.203193 
L 74.557895 81.546743 
L 75.320711 82.502255 
L 76.083527 83.803939 
L 76.846343 83.964824 
L 77.609159 84.748448 
L 79.134792 87.687443 
L 79.897608 86.729301 
L 80.660424 88.962664 
L 81.42324 88.197078 
L 82.186056 88.644521 
L 83.711688 90.919769 
L 84.474504 90.53764 
L 85.237321 92.941718 
L 86.000137 92.737522 
L 86.762953 95.456338 
L 87.525769 94.119187 
L 88.288585 96.16185 
L 89.051401 97.798545 
L 89.814217 98.087232 
L 90.577033 98.021144 
L 91.33985 98.288573 
L 92.102666 99.613114 
L 92.865482 100.640129 
L 94.391114 101.125998 
L 95.15393 103.154607 
L 95.916746 103.578804 
L 96.679563 104.215709 
L 97.442379 104.644694 
L 98.205195 106.956912 
L 98.968011 107.161656 
L 99.730827 107.019739 
L 100.493643 109.893994 
L 101.256459 108.284851 
L 102.019275 111.032689 
L 102.782092 110.074866 
L 103.544908 111.75231 
L 105.07054 113.797822 
L 105.833356 114.40514 
L 106.596172 115.309986 
L 107.358988 116.904619 
L 108.121805 116.68195 
L 108.884621 117.184008 
L 109.647437 119.329316 
L 111.173069 119.515327 
L 111.935885 120.527475 
L 112.698701 121.962711 
L 113.461517 121.797616 
L 114.224334 122.656824 
L 114.98715 124.130775 
L 117.275598 126.719947 
L 118.80123 128.102341 
L 119.564046 128.66824 
L 120.326863 130.378517 
L 121.852495 130.269464 
L 122.615311 131.211787 
L 123.378127 133.663269 
L 124.140943 132.760501 
L 124.903759 134.48106 
L 125.666576 135.476692 
L 126.429392 136.778495 
L 127.192208 135.957437 
L 127.955024 138.056722 
L 128.71784 138.564408 
L 129.480656 138.735707 
L 131.006288 141.147942 
L 131.769105 141.816433 
L 132.531921 143.268509 
L 133.294737 143.656261 
L 134.057553 143.524163 
L 135.583185 146.314591 
L 137.108817 147.731204 
L 137.871634 147.382891 
L 138.63445 148.116487 
L 139.397266 149.747675 
L 140.160082 150.43174 
L 140.922898 151.487999 
L 141.685714 151.551015 
L 142.44853 153.552822 
L 143.211347 153.524936 
L 143.974163 154.709151 
L 144.736979 155.027502 
L 145.499795 156.943391 
L 146.262611 158.252912 
L 147.025427 158.455832 
L 147.788243 159.903641 
L 148.551059 159.376576 
L 149.313876 160.955704 
L 150.076692 161.114383 
L 150.839508 162.622452 
L 151.602324 163.392148 
L 152.36514 163.531101 
L 153.127956 165.397702 
L 154.653589 166.94419 
L 155.416405 167.995768 
L 156.179221 168.27245 
L 156.942037 168.864319 
L 157.704853 170.362005 
L 158.467669 171.125252 
L 159.230485 171.355452 
L 159.993301 172.615621 
L 160.756118 173.161537 
L 163.044566 175.669733 
L 163.807382 176.974243 
L 164.570198 177.562602 
L 165.333014 178.476794 
L 166.09583 179.162603 
L 166.858647 180.198906 
L 167.621463 180.649768 
L 169.147095 182.74434 
L 169.909911 183.491968 
L 170.672727 184.428448 
L 171.435543 184.874956 
L 172.19836 186.008013 
L 175.249624 189.423993 
L 176.01244 190.714078 
L 176.775256 190.866933 
L 177.538072 192.289362 
L 178.300889 192.972672 
L 179.063705 193.40045 
L 179.826521 194.567239 
L 180.589337 195.182825 
L 182.877785 197.555925 
L 185.166234 200.852326 
L 185.92905 201.135534 
L 186.691866 202.191301 
L 187.454682 202.786127 
L 188.217498 203.989929 
L 188.980314 204.77325 
L 189.743131 205.962008 
L 190.505947 206.808729 
L 192.031579 208.039146 
L 193.557211 209.909055 
L 194.320027 210.584128 
L 195.84566 212.561504 
L 196.608476 213.456071 
L 197.371292 214.060254 
L 198.896924 216.012367 
L 199.65974 216.647571 
L 200.422556 217.747222 
L 201.948189 219.35297 
L 202.711005 220.622841 
L 203.473821 221.09803 
L 204.999453 222.815886 
L 205.762269 223.873693 
L 208.050718 226.381507 
L 209.57635 228.244565 
L 210.339166 228.961517 
L 217.204511 236.888183 
L 219.49296 239.479554 
L 221.781408 242.116364 
L 234.749282 227.232911 
L 235.512098 226.138846 
L 240.088995 220.875631 
L 240.851811 220.183937 
L 243.14026 217.351326 
L 243.903076 216.296734 
L 244.665892 215.838555 
L 245.428708 214.543355 
L 246.95434 212.877068 
L 252.294053 206.982637 
L 253.819686 204.702736 
L 255.345318 203.048059 
L 256.108134 201.835239 
L 256.87095 201.27792 
L 260.685031 196.657225 
L 261.447847 195.650959 
L 262.210663 195.218309 
L 262.973479 193.921196 
L 263.736295 193.692756 
L 264.499111 192.273895 
L 265.261928 191.625346 
L 266.78756 189.18057 
L 267.550376 188.976737 
L 269.076008 186.745017 
L 269.838824 185.763801 
L 270.60164 184.311438 
L 271.364457 184.043704 
L 272.127273 183.391106 
L 272.890089 182.079124 
L 273.652905 181.457889 
L 274.415721 180.108386 
L 275.178537 179.802664 
L 275.941353 178.135133 
L 276.70417 177.54089 
L 277.466986 176.633009 
L 278.229802 175.182659 
L 278.992618 174.871012 
L 280.51825 173.31987 
L 281.281066 171.602034 
L 282.043882 171.851116 
L 282.806699 170.366531 
L 284.332331 168.777652 
L 285.095147 167.853029 
L 285.857963 166.71845 
L 286.620779 166.557079 
L 288.146411 163.51659 
L 288.909228 163.162515 
L 290.43486 161.129553 
L 291.197676 160.623166 
L 291.960492 159.824226 
L 292.723308 158.808648 
L 294.248941 156.045196 
L 295.011757 155.797117 
L 295.774573 154.495124 
L 296.537389 154.280152 
L 298.063021 152.021416 
L 298.825837 151.3016 
L 299.588653 150.143685 
L 300.35147 149.307999 
L 301.114286 148.245263 
L 301.877102 147.867862 
L 302.639918 146.772377 
L 303.402734 146.311174 
L 304.16555 145.472748 
L 305.691183 142.824279 
L 306.453999 142.101111 
L 307.216815 140.6422 
L 307.979631 139.906583 
L 308.742447 138.975747 
L 309.505263 139.315574 
L 311.030895 136.743168 
L 311.793712 136.1186 
L 312.556528 134.126372 
L 313.319344 134.330407 
L 314.08216 132.498406 
L 315.607792 131.485857 
L 316.370608 129.63937 
L 317.133424 129.503354 
L 317.896241 127.241579 
L 318.659057 126.497965 
L 320.184689 125.786143 
L 320.947505 124.843813 
L 321.710321 123.263231 
L 322.473137 123.878173 
L 323.235954 121.06339 
L 324.761586 120.612884 
L 325.524402 117.452993 
L 326.287218 118.333773 
L 327.050034 116.726663 
L 327.81285 115.829533 
L 329.338483 113.780357 
L 330.101299 113.143247 
L 330.864115 111.952031 
L 331.626931 111.094546 
L 332.389747 109.771967 
L 333.152563 109.576881 
L 334.678195 107.284824 
L 335.441012 106.906193 
L 336.203828 105.194779 
L 336.966644 105.434645 
L 337.72946 104.93004 
L 338.492276 102.865671 
L 339.255092 102.244069 
L 340.017908 101.092357 
L 340.780725 99.094869 
L 341.543541 99.841949 
L 342.306357 98.564939 
L 343.069173 98.282935 
L 343.831989 96.283738 
L 344.594805 95.055084 
L 345.357621 94.839969 
L 346.883254 91.982435 
L 347.64607 92.67075 
L 348.408886 89.80893 
L 349.171702 90.209515 
L 349.934518 88.598513 
L 350.697334 88.696428 
L 351.46015 85.676107 
L 352.222967 86.166958 
L 352.985783 84.640491 
L 353.748599 84.073734 
L 354.511415 84.418534 
L 355.274231 82.232164 
L 356.037047 82.297807 
L 356.799863 80.297018 
L 357.562679 79.80224 
L 358.325496 78.333905 
L 359.088312 77.507028 
L 359.851128 76.445185 
L 360.613944 76.18733 
L 361.37676 74.238854 
L 362.139576 72.730862 
L 362.902392 72.394258 
L 363.665208 71.678669 
L 364.428025 71.667512 
L 365.190841 69.449538 
L 366.716473 67.75233 
L 367.479289 68.057343 
L 368.242105 65.27969 
L 369.004921 65.19378 
L 369.767738 64.334018 
L 370.530554 62.611704 
L 371.29337 63.068869 
L 372.056186 63.793184 
L 372.819002 58.949952 
L 373.581818 59.388068 
L 373.581818 59.388068 
" clip-path="url(#pcb51683c2b)" style="fill: none; stroke: #1f77b4; stroke-width: 2; stroke-linecap: square"/>
   </g>
   <g id="line2d_17">
    <path d="M 69.218182 242.116364 
L 373.581818 242.116364 
L 373.581818 242.116364 
" clip-path="url(#pcb51683c2b)" style="fill: none; stroke: #ff7f0e; stroke-width: 3; stroke-linecap: square"/>
   </g>
   <g id="line2d_18">
    <path d="M 69.218182 44.443636 
L 69.980998 67.623542 
L 70.743814 64.196707 
L 71.50663 68.792857 
L 72.269446 68.826155 
L 73.032262 68.414095 
L 73.795079 69.852032 
L 74.557895 71.613784 
L 75.320711 72.601908 
L 76.083527 71.63108 
L 76.846343 71.983471 
L 77.609159 73.213696 
L 78.371975 75.801415 
L 79.134792 76.478348 
L 79.897608 75.680958 
L 80.660424 77.755122 
L 81.42324 78.622084 
L 82.186056 77.554512 
L 82.948872 78.475659 
L 83.711688 80.002559 
L 85.237321 81.7864 
L 86.762953 84.732628 
L 87.525769 84.855592 
L 88.288585 85.268784 
L 89.051401 87.260156 
L 89.814217 88.718483 
L 90.577033 88.250249 
L 91.33985 87.440124 
L 92.102666 89.614198 
L 92.865482 90.658293 
L 93.628298 91.513658 
L 94.391114 91.315113 
L 95.15393 94.260596 
L 95.916746 93.914813 
L 98.205195 96.966892 
L 99.730827 97.811224 
L 100.493643 100.148068 
L 101.256459 99.99932 
L 102.019275 101.835076 
L 102.782092 100.894285 
L 104.307724 103.653216 
L 105.07054 104.939054 
L 105.833356 105.10243 
L 107.358988 108.190918 
L 108.121805 107.407753 
L 109.647437 110.792905 
L 111.173069 111.218061 
L 111.935885 111.866664 
L 112.698701 114.24375 
L 113.461517 112.859374 
L 114.98715 116.364295 
L 115.749966 117.66906 
L 116.512782 117.436944 
L 117.275598 118.285679 
L 118.038414 118.909005 
L 118.80123 119.97848 
L 119.564046 120.475385 
L 120.326863 122.356403 
L 121.089679 122.300889 
L 121.852495 122.481382 
L 122.615311 123.546095 
L 123.378127 125.84924 
L 124.140943 125.229641 
L 125.666576 128.819589 
L 126.429392 129.239231 
L 127.192208 128.028813 
L 127.955024 131.176638 
L 128.71784 131.742444 
L 129.480656 131.828581 
L 130.243472 132.498685 
L 131.006288 134.372498 
L 131.769105 134.768339 
L 132.531921 137.018739 
L 133.294737 136.548135 
L 134.057553 137.04106 
L 135.583185 139.673986 
L 136.346001 139.963035 
L 137.108817 141.171532 
L 138.63445 141.650136 
L 139.397266 143.59671 
L 140.160082 144.536596 
L 140.922898 144.717161 
L 141.685714 145.307224 
L 142.44853 146.174501 
L 143.211347 147.731171 
L 143.974163 148.400681 
L 144.736979 149.529597 
L 145.499795 151.019949 
L 146.262611 152.863674 
L 147.025427 152.735873 
L 147.788243 153.924272 
L 148.551059 153.427395 
L 149.313876 155.420103 
L 150.076692 155.001658 
L 150.839508 157.055175 
L 151.602324 157.897114 
L 152.36514 158.215109 
L 153.127956 160.794171 
L 153.890772 161.068923 
L 154.653589 161.516627 
L 155.416405 162.496023 
L 156.179221 162.796908 
L 156.942037 164.25037 
L 157.704853 165.117823 
L 158.467669 166.391042 
L 159.230485 166.155507 
L 159.993301 167.95193 
L 160.756118 168.364455 
L 161.518934 169.361252 
L 162.28175 170.08724 
L 163.807382 172.628434 
L 164.570198 172.889626 
L 165.333014 174.10292 
L 166.09583 174.830462 
L 166.858647 175.955339 
L 167.621463 176.515012 
L 170.672727 180.271069 
L 171.435543 180.909823 
L 172.19836 181.807922 
L 172.961176 183.169386 
L 173.723992 183.375524 
L 174.486808 185.191414 
L 175.249624 185.912489 
L 176.01244 186.914744 
L 176.775256 187.527358 
L 177.538072 188.78243 
L 178.300889 189.290625 
L 179.063705 189.996478 
L 179.826521 191.216642 
L 180.589337 191.826102 
L 181.352153 192.6708 
L 182.114969 193.977167 
L 182.877785 194.561792 
L 183.640602 195.688312 
L 184.403418 196.564839 
L 185.166234 197.846209 
L 185.92905 198.420538 
L 189.743131 203.109694 
L 190.505947 204.287905 
L 191.268763 204.877415 
L 195.082843 209.400582 
L 196.608476 211.587246 
L 197.371292 212.252888 
L 198.896924 214.106727 
L 199.65974 214.903728 
L 200.422556 216.049069 
L 201.948189 217.806442 
L 202.711005 219.092037 
L 203.473821 219.658635 
L 204.999453 221.421212 
L 205.762269 222.601588 
L 207.287902 224.134433 
L 208.813534 226.223222 
L 209.57635 227.29952 
L 210.339166 228.027204 
L 211.864798 229.925156 
L 217.204511 236.523669 
L 219.49296 239.299543 
L 221.781408 242.116364 
L 234.749282 226.196835 
L 235.512098 225.001779 
L 237.800547 222.282826 
L 242.377444 216.690318 
L 243.903076 214.574443 
L 244.665892 214.012291 
L 245.428708 212.728007 
L 248.479973 209.009884 
L 250.005605 206.778671 
L 250.768421 206.244941 
L 252.294053 204.288443 
L 253.056869 203.297272 
L 253.819686 202.086155 
L 254.582502 201.257404 
L 256.108134 199.08313 
L 257.633766 197.747385 
L 258.396582 196.583709 
L 259.922215 194.670004 
L 260.685031 193.42843 
L 261.447847 192.427209 
L 262.210663 191.909423 
L 262.973479 190.381717 
L 263.736295 190.376216 
L 264.499111 189.062908 
L 265.261928 188.324287 
L 266.024744 186.817946 
L 266.78756 185.689052 
L 267.550376 185.574684 
L 268.313192 184.214255 
L 269.838824 182.247293 
L 270.60164 180.320571 
L 271.364457 180.050402 
L 272.127273 179.218094 
L 272.890089 177.471984 
L 273.652905 177.278938 
L 274.415721 175.971312 
L 275.178537 175.305613 
L 275.941353 173.895574 
L 276.70417 173.372944 
L 278.229802 170.459336 
L 278.992618 170.030692 
L 279.755434 169.771397 
L 280.51825 168.647059 
L 281.281066 166.46148 
L 282.043882 166.812956 
L 282.806699 165.039052 
L 283.569515 164.706624 
L 284.332331 163.441602 
L 285.095147 163.001429 
L 285.857963 161.561806 
L 286.620779 161.020788 
L 287.383595 159.641253 
L 288.146411 157.979928 
L 288.909228 157.471222 
L 289.672044 157.158787 
L 290.43486 155.387569 
L 291.197676 155.124145 
L 291.960492 153.975113 
L 292.723308 152.571721 
L 294.248941 150.284477 
L 295.011757 149.657008 
L 295.774573 147.951603 
L 296.537389 147.722497 
L 297.300205 147.188017 
L 298.063021 146.009862 
L 298.825837 145.28334 
L 299.588653 143.53681 
L 300.35147 143.347205 
L 301.114286 141.018637 
L 301.877102 140.932746 
L 302.639918 140.068328 
L 303.402734 139.81945 
L 304.16555 138.838385 
L 304.928366 137.441104 
L 306.453999 135.292861 
L 307.216815 133.210307 
L 307.979631 132.964127 
L 308.742447 131.88645 
L 309.505263 132.234143 
L 310.268079 130.898568 
L 311.030895 128.665918 
L 311.793712 128.851427 
L 312.556528 126.847784 
L 313.319344 126.371981 
L 314.844976 123.802976 
L 315.607792 123.371009 
L 316.370608 121.968958 
L 317.133424 121.273567 
L 317.896241 119.723244 
L 318.659057 117.789085 
L 319.421873 118.222484 
L 320.184689 117.574219 
L 320.947505 115.967346 
L 321.710321 115.104493 
L 322.473137 115.814703 
L 323.235954 112.877659 
L 323.99877 112.18606 
L 324.761586 112.693628 
L 325.524402 109.033602 
L 326.287218 109.382276 
L 327.050034 107.910429 
L 327.81285 106.742086 
L 328.575666 106.583046 
L 329.338483 104.920675 
L 330.101299 104.12191 
L 331.626931 101.852314 
L 332.389747 100.653219 
L 333.152563 99.897017 
L 333.915379 99.459232 
L 334.678195 97.693967 
L 335.441012 96.998247 
L 336.203828 95.146179 
L 336.966644 95.435268 
L 337.72946 95.954993 
L 338.492276 92.874979 
L 339.255092 92.789512 
L 340.780725 89.161686 
L 341.543541 90.033887 
L 342.306357 88.746861 
L 343.069173 88.682321 
L 344.594805 84.733679 
L 345.357621 83.591352 
L 346.120437 83.052184 
L 346.883254 81.650099 
L 347.64607 82.513891 
L 348.408886 79.240665 
L 349.171702 79.384536 
L 350.697334 77.142424 
L 351.46015 74.304553 
L 352.222967 75.056294 
L 352.985783 74.018404 
L 353.748599 72.264692 
L 354.511415 73.804186 
L 355.274231 71.636956 
L 356.037047 71.500189 
L 356.799863 68.9583 
L 358.325496 67.069203 
L 359.088312 65.677269 
L 359.851128 64.883993 
L 360.613944 64.794324 
L 361.37676 63.556069 
L 362.139576 61.619555 
L 363.665208 59.167288 
L 364.428025 60.978982 
L 365.190841 57.753004 
L 365.953657 57.373426 
L 366.716473 55.32681 
L 367.479289 56.307176 
L 368.242105 53.397852 
L 369.004921 54.225787 
L 370.530554 49.529073 
L 371.29337 51.072338 
L 372.056186 51.171937 
L 372.819002 45.458101 
L 373.581818 46.183229 
L 373.581818 46.183229 
" clip-path="url(#pcb51683c2b)" style="fill: none; stroke: #2ca02c; stroke-width: 2; stroke-linecap: square"/>
   </g>
   <g id="line2d_19">
    <path d="M 69.218182 242.116364 
L 373.581818 242.116364 
L 373.581818 242.116364 
" clip-path="url(#pcb51683c2b)" style="fill: none; stroke: #d62728; stroke-width: 2; stroke-linecap: square"/>
   </g>
   <g id="patch_3">
    <path d="M 54 252 
L 54 34.56 
" style="fill: none; stroke: #000000; stroke-width: 0.8; stroke-linejoin: miter; stroke-linecap: square"/>
   </g>
   <g id="patch_4">
    <path d="M 388.8 252 
L 388.8 34.56 
" style="fill: none; stroke: #000000; stroke-width: 0.8; stroke-linejoin: miter; stroke-linecap: square"/>
   </g>
   <g id="patch_5">
    <path d="M 54 252 
L 388.8 252 
" style="fill: none; stroke: #000000; stroke-width: 0.8; stroke-linejoin: miter; stroke-linecap: square"/>
   </g>
   <g id="patch_6">
    <path d="M 54 34.56 
L 388.8 34.56 
" style="fill: none; stroke: #000000; stroke-width: 0.8; stroke-linejoin: miter; stroke-linecap: square"/>
   </g>
   <g id="text_18">
    <!-- 讨论不同强度的干扰对不稳定性的影响 -->
    <g transform="translate(119.4 28.56)scale(0.12 -0.12)">
     <defs>
      <path id="SimHei-8ba8" d="M 4700 3775 
Q 4700 4600 4675 5225 
L 5225 5225 
Q 5200 4625 5200 3775 
Q 5625 3775 6075 3800 
L 6075 3325 
Q 5675 3350 5200 3350 
L 5200 25 
Q 5200 -325 4925 -437 
Q 4650 -550 4150 -600 
Q 4125 -300 3875 25 
Q 4450 0 4575 50 
Q 4700 100 4700 350 
L 4700 3350 
L 3225 3350 
Q 2900 3350 2300 3325 
L 2300 3800 
Q 2875 3775 3175 3775 
L 4700 3775 
z
M 1700 3375 
Q 1675 2925 1675 2400 
L 1675 550 
Q 2000 850 2400 1325 
Q 2550 1025 2725 825 
Q 2375 550 2037 237 
Q 1700 -75 1450 -350 
Q 1225 -100 1025 50 
Q 1200 250 1200 575 
L 1200 2950 
Q 575 2950 300 2925 
L 300 3400 
Q 575 3375 975 3375 
L 1700 3375 
z
M 3025 2750 
Q 3525 2150 3875 1525 
Q 3625 1375 3425 1250 
Q 3150 1850 2625 2475 
Q 2800 2575 3025 2750 
z
M 1250 5250 
Q 1550 4850 1825 4200 
Q 1625 4100 1375 3950 
Q 1175 4500 825 5000 
Q 1000 5100 1250 5250 
z
" transform="scale(0.015625)"/>
      <path id="SimHei-8bba" d="M 3500 1600 
Q 3825 1725 4250 2000 
Q 4675 2275 4975 2575 
Q 5225 2275 5400 2100 
Q 5050 1950 4550 1675 
Q 4050 1400 3500 1150 
L 3500 300 
Q 3500 -100 3800 -100 
L 4825 -100 
Q 5125 -100 5250 137 
Q 5375 375 5375 575 
Q 5675 350 5925 275 
Q 5750 -225 5550 -375 
Q 5350 -525 5100 -525 
L 3550 -525 
Q 3025 -475 3025 0 
L 3025 2175 
Q 3025 2525 3000 2850 
L 3525 2850 
Q 3500 2400 3500 2200 
L 3500 1600 
z
M 4175 4850 
Q 4400 4350 4950 3687 
Q 5500 3025 6175 2700 
Q 5975 2575 5800 2275 
Q 5100 2750 4637 3375 
Q 4175 4000 3950 4425 
Q 3725 3950 3387 3425 
Q 3050 2900 2325 2200 
Q 2175 2375 1950 2575 
Q 2350 2825 2650 3175 
Q 2950 3525 3200 3962 
Q 3450 4400 3575 4725 
Q 3700 5050 3750 5250 
Q 3975 5150 4275 5050 
L 4175 4850 
z
M 1600 3150 
Q 1575 2750 1575 2275 
L 1575 550 
Q 1950 825 2400 1300 
Q 2500 1075 2650 800 
Q 2250 475 1900 187 
Q 1550 -100 1250 -375 
Q 1150 -225 900 50 
Q 1100 250 1100 450 
L 1100 2700 
L 800 2700 
Q 550 2700 275 2675 
L 275 3175 
Q 550 3150 800 3150 
L 1600 3150 
z
M 975 5000 
Q 1550 4525 2125 4025 
Q 1950 3875 1750 3650 
Q 1325 4150 650 4650 
Q 825 4800 975 5000 
z
" transform="scale(0.015625)"/>
      <path id="SimHei-4e0d" d="M 5975 4450 
Q 5525 4475 5200 4475 
L 3725 4475 
Q 3550 4125 3300 3700 
L 3300 575 
Q 3300 75 3325 -550 
L 2775 -550 
Q 2800 50 2800 575 
L 2800 3025 
Q 2025 1950 700 1050 
Q 500 1350 325 1475 
Q 825 1700 1650 2437 
Q 2475 3175 3175 4475 
L 1525 4475 
Q 1050 4475 525 4450 
L 525 4950 
Q 1275 4925 1675 4925 
L 5175 4925 
Q 5500 4925 5975 4950 
L 5975 4450 
z
M 5450 1125 
Q 4975 1725 3750 2975 
Q 3950 3150 4075 3325 
Q 4675 2775 5100 2362 
Q 5525 1950 5900 1550 
Q 5650 1350 5450 1125 
z
" transform="scale(0.015625)"/>
      <path id="SimHei-540c" d="M 5825 4925 
Q 5775 4550 5775 3975 
L 5775 -50 
Q 5775 -400 5525 -487 
Q 5275 -575 4725 -625 
Q 4725 -400 4525 -50 
Q 4925 -50 5100 -12 
Q 5275 25 5275 200 
L 5275 4450 
L 1150 4450 
L 1150 -600 
L 575 -600 
Q 600 -250 625 200 
L 625 3975 
Q 625 4575 600 4925 
L 5825 4925 
z
M 4375 2550 
Q 4325 2275 4325 1700 
Q 4325 1150 4375 725 
L 2025 725 
Q 2050 1175 2050 1750 
Q 2050 2325 2025 2550 
L 4375 2550 
z
M 4100 3750 
Q 4600 3750 4825 3775 
L 4825 3275 
Q 4575 3300 4075 3300 
L 2450 3300 
Q 1850 3300 1600 3275 
L 1600 3775 
Q 1875 3750 2475 3750 
L 4100 3750 
z
M 3875 1150 
L 3875 2150 
L 2525 2150 
L 2525 1150 
L 3875 1150 
z
" transform="scale(0.015625)"/>
      <path id="SimHei-7684" d="M 2100 4975 
Q 1975 4750 1750 3950 
L 2875 3950 
Q 2850 3525 2850 2875 
L 2850 675 
Q 2850 300 2875 -400 
L 2375 -400 
L 2375 100 
L 1100 100 
L 1100 -450 
L 600 -450 
Q 625 350 625 550 
L 625 2850 
Q 625 3525 600 3950 
L 1325 3950 
Q 1450 4525 1525 5150 
Q 1875 5025 2100 4975 
z
M 5825 3075 
Q 5800 1550 5700 175 
Q 5650 -275 5225 -425 
Q 4800 -575 4275 -625 
Q 4250 -350 4050 -50 
Q 4550 -75 4837 -25 
Q 5125 25 5200 200 
Q 5275 375 5312 1225 
Q 5350 2075 5375 3600 
L 3925 3600 
Q 3725 3125 3350 2475 
Q 3175 2650 2925 2750 
Q 3150 3050 3350 3475 
Q 3550 3900 3700 4400 
Q 3850 4900 3875 5175 
Q 4225 5025 4475 4950 
Q 4350 4750 4262 4512 
Q 4175 4275 4075 4050 
L 5850 4050 
Q 5825 3525 5825 3075 
z
M 2375 525 
L 2375 1850 
L 1100 1850 
L 1100 525 
L 2375 525 
z
M 2375 2275 
L 2375 3525 
L 1100 3525 
L 1100 2275 
L 2375 2275 
z
M 4350 2050 
Q 4500 1750 4700 1275 
Q 4525 1200 4225 1025 
Q 4050 1500 3900 1837 
Q 3750 2175 3600 2400 
Q 3775 2500 4050 2650 
L 4350 2050 
z
" transform="scale(0.015625)"/>
      <path id="SimHei-5bf9" d="M 525 4250 
Q 900 4225 1400 4225 
L 2825 4225 
Q 2575 2625 2200 1750 
Q 2825 875 3125 400 
Q 2950 275 2725 75 
Q 2200 975 1950 1300 
Q 1650 775 1350 425 
Q 1050 75 600 -350 
Q 425 -125 200 -25 
Q 625 275 975 675 
Q 1325 1075 1650 1700 
Q 1050 2425 550 2900 
Q 700 3025 900 3225 
Q 1625 2425 1875 2150 
Q 2200 3050 2300 3825 
L 1400 3825 
Q 900 3825 525 3800 
L 525 4250 
z
M 2925 3700 
Q 3525 3675 3750 3675 
L 4825 3675 
L 4825 4425 
Q 4825 4750 4775 5125 
L 5350 5125 
Q 5325 4825 5325 4375 
L 5325 3675 
Q 5575 3675 6150 3700 
L 6150 3250 
Q 5575 3275 5325 3275 
L 5325 125 
Q 5350 -350 5012 -475 
Q 4675 -600 4250 -650 
Q 4175 -350 4025 -100 
Q 4575 -100 4712 -37 
Q 4850 25 4825 325 
L 4825 3275 
L 3775 3275 
Q 3550 3275 2925 3225 
L 2925 3700 
z
M 3450 2725 
Q 3875 1975 4175 1325 
Q 3850 1200 3700 1075 
Q 3475 1750 3050 2475 
Q 3225 2550 3450 2725 
z
" transform="scale(0.015625)"/>
      <path id="SimHei-7a33" d="M 4050 5125 
Q 3875 4975 3675 4625 
L 5325 4625 
Q 5200 4450 5062 4212 
Q 4925 3975 4800 3650 
L 5625 3650 
Q 5600 3350 5600 2600 
Q 5600 1875 5625 1425 
L 3425 1425 
Q 3075 1425 2750 1400 
L 2750 1850 
Q 3075 1825 3450 1825 
L 5100 1825 
L 5100 2375 
L 3550 2375 
Q 3175 2375 2875 2350 
L 2875 2775 
Q 3175 2750 3525 2750 
L 5100 2750 
L 5100 3275 
L 3775 3275 
Q 3350 3275 3050 3250 
L 3050 3650 
Q 2875 3425 2725 3200 
Q 2525 3400 2350 3475 
Q 2675 3875 2987 4412 
Q 3300 4950 3400 5300 
Q 3725 5200 4050 5125 
z
M 2500 4575 
Q 2275 4575 2012 4512 
Q 1750 4450 1625 4450 
L 1625 3350 
Q 1975 3350 2375 3375 
L 2375 2950 
Q 1925 2975 1625 2975 
L 1625 2225 
Q 1775 2325 1950 2500 
Q 2225 2100 2525 1600 
Q 2300 1500 2150 1350 
Q 1950 1725 1625 2175 
L 1625 400 
Q 1625 25 1650 -625 
L 1150 -625 
Q 1200 25 1200 400 
L 1200 2075 
Q 875 1250 475 650 
Q 375 925 175 1125 
Q 325 1250 650 1887 
Q 975 2525 1050 2975 
Q 750 2975 275 2950 
L 275 3375 
Q 750 3350 1200 3350 
L 1200 4325 
Q 950 4275 550 4200 
Q 475 4425 275 4625 
Q 750 4675 1237 4775 
Q 1725 4875 2125 5075 
Q 2275 4775 2500 4575 
z
M 3675 1025 
Q 3650 700 3650 300 
Q 3650 -75 3775 -100 
Q 3900 -125 4250 -125 
Q 4600 -125 4687 -100 
Q 4775 -75 4825 425 
Q 5025 275 5350 200 
Q 5150 -450 4950 -500 
Q 4750 -550 4175 -550 
Q 3625 -550 3425 -487 
Q 3225 -425 3225 -100 
L 3225 525 
Q 3225 775 3200 1025 
L 3675 1025 
z
M 3050 3675 
Q 3325 3650 3775 3650 
L 4275 3650 
Q 4450 4000 4575 4275 
L 3425 4275 
Q 3275 4050 3050 3675 
z
M 2925 900 
Q 2800 725 2700 287 
Q 2600 -150 2550 -300 
Q 2325 -200 2075 -175 
Q 2225 200 2275 412 
Q 2325 625 2425 1000 
L 2925 900 
z
M 5575 1100 
Q 5950 475 6175 50 
Q 5950 -25 5750 -175 
Q 5625 175 5200 925 
Q 5425 975 5575 1100 
z
M 4225 1300 
Q 4525 825 4625 525 
Q 4550 500 4250 350 
Q 4150 700 3850 1125 
Q 4050 1200 4225 1300 
z
" transform="scale(0.015625)"/>
      <path id="SimHei-5b9a" d="M 4200 3125 
Q 4675 3125 5175 3150 
L 5175 2675 
Q 4725 2700 4100 2700 
L 3550 2700 
L 3550 1700 
L 4600 1700 
Q 4875 1700 5375 1725 
L 5375 1250 
Q 4875 1275 4575 1275 
L 3550 1275 
L 3550 100 
Q 4600 -25 6050 125 
Q 5850 -200 5800 -475 
Q 4800 -475 4150 -450 
Q 3500 -425 3050 -300 
Q 2600 -175 2250 75 
Q 1900 325 1600 675 
Q 1200 -50 675 -575 
Q 450 -350 175 -250 
Q 875 300 1200 1050 
Q 1525 1800 1550 2200 
Q 1800 2050 2150 1975 
Q 2075 1875 1987 1662 
Q 1900 1450 1775 1125 
Q 1950 900 2300 612 
Q 2650 325 3050 200 
L 3050 2700 
L 2250 2700 
Q 1825 2700 1400 2675 
L 1400 3150 
Q 1825 3125 2400 3125 
L 4200 3125 
z
M 5750 4275 
Q 5725 3925 5725 3750 
Q 5725 3575 5750 3275 
L 5225 3275 
L 5225 3875 
L 1225 3875 
L 1225 3275 
L 700 3275 
Q 725 3475 725 3725 
Q 725 3975 700 4275 
L 5750 4275 
z
M 2650 5050 
Q 2875 5125 3100 5300 
Q 3375 4975 3600 4550 
Q 3250 4400 3100 4300 
Q 3050 4525 2650 5050 
z
" transform="scale(0.015625)"/>
      <path id="SimHei-6027" d="M 3450 4525 
Q 3325 4075 3275 3750 
L 4050 3750 
L 4050 4275 
Q 4050 4700 4025 5100 
L 4550 5100 
Q 4525 4700 4525 4275 
L 4525 3750 
L 5025 3750 
Q 5350 3750 5800 3775 
L 5800 3300 
Q 5350 3325 5025 3325 
L 4525 3325 
L 4525 2000 
L 4975 2000 
Q 5350 2000 5725 2025 
L 5725 1550 
Q 5350 1575 4975 1575 
L 4525 1575 
L 4525 25 
L 5200 25 
Q 5625 25 6025 50 
L 6025 -400 
Q 5625 -375 5200 -375 
L 3275 -375 
Q 2825 -375 2400 -400 
L 2400 50 
Q 2825 25 3250 25 
L 4050 25 
L 4050 1575 
L 3625 1575 
Q 3300 1575 2875 1550 
L 2875 2025 
Q 3200 2000 3625 2000 
L 4050 2000 
L 4050 3325 
L 3175 3325 
Q 3100 2950 2775 2225 
Q 2500 2375 2325 2400 
Q 2675 3125 2775 3650 
Q 2875 4175 2950 4650 
Q 3200 4575 3450 4525 
z
M 1700 5150 
Q 1675 4650 1675 4175 
L 1675 425 
Q 1675 -100 1700 -625 
L 1175 -625 
Q 1200 -100 1200 425 
L 1200 4175 
Q 1200 4700 1175 5150 
L 1700 5150 
z
M 975 3725 
Q 825 2675 700 2150 
Q 450 2200 250 2250 
Q 425 2900 525 3800 
Q 725 3775 975 3725 
z
M 2125 4025 
Q 2325 3625 2525 3000 
Q 2300 2925 2125 2825 
Q 1950 3375 1750 3850 
Q 1950 3950 2125 4025 
z
" transform="scale(0.015625)"/>
      <path id="SimHei-5f71" d="M 3550 5025 
Q 3500 4625 3512 4187 
Q 3525 3750 3550 3325 
L 775 3325 
Q 800 3750 787 4187 
Q 775 4625 775 5025 
L 3550 5025 
z
M 1450 -100 
Q 2050 -75 1975 200 
L 1975 1100 
L 775 1100 
Q 800 1375 787 1650 
Q 775 1925 775 2225 
L 3550 2225 
Q 3525 1925 3512 1650 
Q 3500 1375 3550 1100 
L 2475 1100 
L 2475 175 
Q 2500 -250 2300 -375 
Q 2100 -500 1625 -600 
Q 1575 -325 1450 -100 
z
M 2375 3250 
Q 2400 3075 2425 2875 
L 3175 2875 
Q 3600 2875 4050 2900 
L 4050 2475 
Q 3600 2500 3175 2500 
L 1200 2500 
Q 700 2500 275 2475 
L 275 2900 
Q 700 2875 1200 2875 
L 1900 2875 
Q 1875 3025 1850 3200 
Q 2100 3250 2375 3250 
z
M 6150 1350 
Q 5675 775 5000 225 
Q 4325 -325 3725 -650 
Q 3575 -400 3400 -250 
Q 3975 25 4600 500 
Q 5225 975 5775 1725 
Q 5950 1525 6150 1350 
z
M 5925 3125 
Q 5625 2850 5212 2362 
Q 4800 1875 4200 1425 
Q 4025 1625 3800 1725 
Q 4375 2050 4787 2525 
Q 5200 3000 5525 3500 
Q 5675 3325 5925 3125 
z
M 5725 4825 
Q 5325 4550 5037 4162 
Q 4750 3775 4175 3275 
Q 3975 3450 3800 3550 
Q 4175 3825 4550 4237 
Q 4925 4650 5225 5175 
Q 5425 5000 5725 4825 
z
M 3075 1475 
L 3075 1850 
L 1250 1850 
L 1250 1475 
L 3075 1475 
z
M 3075 3700 
L 3075 4000 
L 1250 4000 
L 1250 3700 
L 3075 3700 
z
M 3075 4375 
L 3075 4675 
L 1250 4675 
L 1250 4375 
L 3075 4375 
z
M 1500 500 
Q 1075 75 575 -325 
Q 475 -175 275 -25 
Q 700 250 1125 825 
Q 1300 625 1500 500 
z
M 3250 -50 
Q 3050 275 2750 550 
Q 2900 700 3075 850 
Q 3400 525 3600 250 
L 3250 -50 
z
" transform="scale(0.015625)"/>
      <path id="SimHei-54cd" d="M 4150 5125 
Q 4000 4975 3850 4325 
L 5875 4325 
Q 5850 3800 5850 3325 
L 5850 50 
Q 5825 -225 5625 -350 
Q 5425 -475 4850 -550 
Q 4850 -325 4600 25 
Q 5125 25 5237 62 
Q 5350 100 5350 225 
L 5350 3950 
L 2950 3950 
L 2950 -575 
L 2450 -575 
Q 2475 -75 2475 450 
L 2475 3125 
Q 2475 3750 2450 4325 
L 3350 4325 
Q 3475 4775 3525 5250 
Q 3950 5150 4150 5125 
z
M 4875 900 
L 3425 900 
L 3425 3100 
L 4875 3100 
L 4875 900 
z
M 4450 1275 
L 4450 2700 
L 3875 2700 
L 3875 1275 
L 4450 1275 
z
M 2075 4500 
Q 2050 3975 2050 3425 
L 2050 1750 
Q 2050 1250 2075 600 
L 1650 600 
L 1650 1050 
L 950 1050 
L 950 275 
L 500 275 
Q 525 750 525 1275 
L 525 3425 
Q 525 3975 500 4500 
L 2075 4500 
z
M 1650 1400 
L 1650 4125 
L 950 4125 
L 950 1400 
L 1650 1400 
z
" transform="scale(0.015625)"/>
     </defs>
     <use xlink:href="#SimHei-8ba8"/>
     <use xlink:href="#SimHei-8bba" x="100"/>
     <use xlink:href="#SimHei-4e0d" x="200"/>
     <use xlink:href="#SimHei-540c" x="300"/>
     <use xlink:href="#SimHei-5f3a" x="400"/>
     <use xlink:href="#SimHei-5ea6" x="500"/>
     <use xlink:href="#SimHei-7684" x="600"/>
     <use xlink:href="#SimHei-5e72" x="700"/>
     <use xlink:href="#SimHei-6270" x="800"/>
     <use xlink:href="#SimHei-5bf9" x="900"/>
     <use xlink:href="#SimHei-4e0d" x="1000"/>
     <use xlink:href="#SimHei-7a33" x="1100"/>
     <use xlink:href="#SimHei-5b9a" x="1200"/>
     <use xlink:href="#SimHei-6027" x="1300"/>
     <use xlink:href="#SimHei-7684" x="1400"/>
     <use xlink:href="#SimHei-5f71" x="1500"/>
     <use xlink:href="#SimHei-54cd" x="1600"/>
    </g>
   </g>
   <g id="legend_1">
    <g id="patch_7">
     <path d="M 182.9 95.56 
L 259.9 95.56 
Q 261.9 95.56 261.9 93.56 
L 261.9 41.56 
Q 261.9 39.56 259.9 39.56 
L 182.9 39.56 
Q 180.9 39.56 180.9 41.56 
L 180.9 93.56 
Q 180.9 95.56 182.9 95.56 
z
" style="fill: #ffffff; opacity: 0.8; stroke: #cccccc; stroke-linejoin: miter"/>
    </g>
    <g id="line2d_20">
     <path d="M 184.9 47.06 
L 194.9 47.06 
L 204.9 47.06 
" style="fill: none; stroke: #1f77b4; stroke-width: 2; stroke-linecap: square"/>
    </g>
    <g id="text_19">
     <!-- EU -->
     <g transform="translate(212.9 50.56)scale(0.1 -0.1)">
      <defs>
       <path id="SimHei-45" d="M 2900 125 
L 350 125 
L 350 4400 
L 2775 4400 
L 2775 3925 
L 925 3925 
L 925 2600 
L 2625 2600 
L 2625 2125 
L 925 2125 
L 925 600 
L 2900 600 
L 2900 125 
z
" transform="scale(0.015625)"/>
       <path id="SimHei-55" d="M 2875 1375 
Q 2875 775 2562 425 
Q 2250 75 1575 75 
Q 900 75 587 425 
Q 275 775 275 1375 
L 275 4400 
L 850 4400 
L 850 1375 
Q 850 950 1050 750 
Q 1250 550 1575 550 
Q 1900 550 2100 750 
Q 2300 950 2300 1375 
L 2300 4400 
L 2875 4400 
L 2875 1375 
z
" transform="scale(0.015625)"/>
      </defs>
      <use xlink:href="#SimHei-45"/>
      <use xlink:href="#SimHei-55" x="50"/>
     </g>
    </g>
    <g id="line2d_21">
     <path d="M 184.9 60.31 
L 194.9 60.31 
L 204.9 60.31 
" style="fill: none; stroke: #ff7f0e; stroke-width: 3; stroke-linecap: square"/>
    </g>
    <g id="text_20">
     <!-- VG -->
     <g transform="translate(212.9 63.81)scale(0.1 -0.1)">
      <defs>
       <path id="SimHei-56" d="M 3050 4400 
L 1800 75 
L 1300 75 
L 50 4400 
L 650 4400 
L 1525 1125 
L 1575 1125 
L 2450 4400 
L 3050 4400 
z
" transform="scale(0.015625)"/>
       <path id="SimHei-47" d="M 2850 75 
L 2425 75 
L 2350 425 
Q 2250 275 2037 175 
Q 1825 75 1575 75 
Q 1050 75 637 562 
Q 225 1050 225 2125 
Q 225 3300 600 3875 
Q 975 4450 1625 4450 
Q 2200 4450 2525 4025 
Q 2850 3600 2850 2925 
L 2300 2925 
Q 2300 3450 2125 3712 
Q 1950 3975 1625 3975 
Q 1225 3975 1025 3562 
Q 825 3150 825 2175 
Q 825 1250 1075 900 
Q 1325 550 1650 550 
Q 1975 550 2162 787 
Q 2350 1025 2350 1525 
L 2350 1800 
L 1575 1800 
L 1575 2275 
L 2850 2275 
L 2850 75 
z
" transform="scale(0.015625)"/>
      </defs>
      <use xlink:href="#SimHei-56"/>
      <use xlink:href="#SimHei-47" x="50"/>
     </g>
    </g>
    <g id="line2d_22">
     <path d="M 184.9 73.56 
L 194.9 73.56 
L 204.9 73.56 
" style="fill: none; stroke: #2ca02c; stroke-width: 2; stroke-linecap: square"/>
    </g>
    <g id="text_21">
     <!-- Manhattan -->
     <g transform="translate(212.9 77.06)scale(0.1 -0.1)">
      <defs>
       <path id="SimHei-4d" d="M 2925 125 
L 2425 125 
L 2425 3175 
L 2375 3175 
L 1775 125 
L 1375 125 
L 775 3175 
L 725 3175 
L 725 125 
L 225 125 
L 225 4400 
L 1000 4400 
L 1550 1575 
L 1600 1575 
L 2150 4400 
L 2925 4400 
L 2925 125 
z
" transform="scale(0.015625)"/>
       <path id="SimHei-6e" d="M 2800 125 
L 2300 125 
L 2300 1925 
Q 2300 2225 2150 2400 
Q 2000 2575 1750 2575 
Q 1425 2575 1137 2237 
Q 850 1900 850 1400 
L 850 125 
L 350 125 
L 350 2925 
L 850 2925 
L 850 2400 
Q 1050 2675 1287 2825 
Q 1525 2975 1900 2975 
Q 2350 2975 2575 2725 
Q 2800 2475 2800 2100 
L 2800 125 
z
" transform="scale(0.015625)"/>
       <path id="SimHei-68" d="M 2800 125 
L 2300 125 
L 2300 1925 
Q 2300 2225 2150 2400 
Q 2000 2575 1750 2575 
Q 1425 2575 1137 2237 
Q 850 1900 850 1400 
L 850 125 
L 350 125 
L 350 4400 
L 850 4400 
L 850 2400 
Q 1050 2675 1287 2825 
Q 1525 2975 1900 2975 
Q 2350 2975 2575 2725 
Q 2800 2475 2800 2100 
L 2800 125 
z
" transform="scale(0.015625)"/>
       <path id="SimHei-74" d="M 2750 200 
Q 2625 150 2462 112 
Q 2300 75 2025 75 
Q 1575 75 1300 325 
Q 1025 575 1025 1025 
L 1025 2525 
L 175 2525 
L 175 2925 
L 1025 2925 
L 1025 3900 
L 1525 3900 
L 1525 2925 
L 2550 2925 
L 2550 2525 
L 1525 2525 
L 1525 1000 
Q 1525 800 1625 662 
Q 1725 525 2000 525 
Q 2275 525 2450 575 
Q 2625 625 2750 700 
L 2750 200 
z
" transform="scale(0.015625)"/>
      </defs>
      <use xlink:href="#SimHei-4d"/>
      <use xlink:href="#SimHei-61" x="50"/>
      <use xlink:href="#SimHei-6e" x="100"/>
      <use xlink:href="#SimHei-68" x="150"/>
      <use xlink:href="#SimHei-61" x="200"/>
      <use xlink:href="#SimHei-74" x="250"/>
      <use xlink:href="#SimHei-74" x="300"/>
      <use xlink:href="#SimHei-61" x="350"/>
      <use xlink:href="#SimHei-6e" x="400"/>
     </g>
    </g>
    <g id="line2d_23">
     <path d="M 184.9 86.81 
L 194.9 86.81 
L 204.9 86.81 
" style="fill: none; stroke: #d62728; stroke-width: 2; stroke-linecap: square"/>
    </g>
    <g id="text_22">
     <!-- Degree -->
     <g transform="translate(212.9 90.31)scale(0.1 -0.1)">
      <defs>
       <path id="SimHei-44" d="M 2925 2250 
Q 2925 1100 2437 612 
Q 1950 125 1125 125 
L 275 125 
L 275 4400 
L 1125 4400 
Q 2050 4400 2487 3900 
Q 2925 3400 2925 2250 
z
M 2325 2250 
Q 2325 3175 2025 3550 
Q 1725 3925 1125 3925 
L 850 3925 
L 850 600 
L 1125 600 
Q 1725 600 2025 962 
Q 2325 1325 2325 2250 
z
" transform="scale(0.015625)"/>
       <path id="SimHei-65" d="M 2850 1075 
Q 2800 625 2450 350 
Q 2100 75 1625 75 
Q 1025 75 637 462 
Q 250 850 250 1525 
Q 250 2200 637 2587 
Q 1025 2975 1625 2975 
Q 2150 2975 2487 2637 
Q 2825 2300 2825 1525 
L 800 1525 
Q 800 975 1037 750 
Q 1275 525 1625 525 
Q 1900 525 2075 662 
Q 2250 800 2300 1075 
L 2850 1075 
z
M 2250 1925 
Q 2200 2275 2025 2412 
Q 1850 2550 1575 2550 
Q 1325 2550 1125 2412 
Q 925 2275 825 1925 
L 2250 1925 
z
" transform="scale(0.015625)"/>
       <path id="SimHei-72" d="M 2500 2425 
Q 2025 2500 1700 2287 
Q 1375 2075 1150 1550 
L 1150 125 
L 650 125 
L 650 2925 
L 1150 2925 
L 1150 2200 
Q 1375 2600 1712 2787 
Q 2050 2975 2500 2975 
L 2500 2425 
z
" transform="scale(0.015625)"/>
      </defs>
      <use xlink:href="#SimHei-44"/>
      <use xlink:href="#SimHei-65" x="50"/>
      <use xlink:href="#SimHei-67" x="100"/>
      <use xlink:href="#SimHei-72" x="150"/>
      <use xlink:href="#SimHei-65" x="200"/>
      <use xlink:href="#SimHei-65" x="250"/>
     </g>
    </g>
   </g>
  </g>
 </g>
 <defs>
  <clipPath id="pcb51683c2b">
   <rect x="54" y="34.56" width="334.8" height="217.44"/>
  </clipPath>
 </defs>
</svg>
