<?xml version="1.0" encoding="utf-8" standalone="no"?>
<!DOCTYPE svg PUBLIC "-//W3C//DTD SVG 1.1//EN"
  "http://www.w3.org/Graphics/SVG/1.1/DTD/svg11.dtd">
<svg xmlns:xlink="http://www.w3.org/1999/xlink" width="432pt" height="288pt" viewBox="0 0 432 288" xmlns="http://www.w3.org/2000/svg" version="1.1">
 <metadata>
  <rdf:RDF xmlns:dc="http://purl.org/dc/elements/1.1/" xmlns:cc="http://creativecommons.org/ns#" xmlns:rdf="http://www.w3.org/1999/02/22-rdf-syntax-ns#">
   <cc:Work>
    <dc:type rdf:resource="http://purl.org/dc/dcmitype/StillImage"/>
    <dc:date>2023-05-28T21:55:54.610737</dc:date>
    <dc:format>image/svg+xml</dc:format>
    <dc:creator>
     <cc:Agent>
      <dc:title>Matplotlib v3.5.2, https://matplotlib.org/</dc:title>
     </cc:Agent>
    </dc:creator>
   </cc:Work>
  </rdf:RDF>
 </metadata>
 <defs>
  <style type="text/css">*{stroke-linejoin: round; stroke-linecap: butt}</style>
 </defs>
 <g id="figure_1">
  <g id="patch_1">
   <path d="M 0 288 
L 432 288 
L 432 0 
L 0 0 
L 0 288 
z
" style="fill: none"/>
  </g>
  <g id="axes_1">
   <g id="patch_2">
    <path d="M 56.315625 248.73125 
L 421.2 248.73125 
L 421.2 26.440625 
L 56.315625 26.440625 
z
" style="fill: #ffffff"/>
   </g>
   <g id="matplotlib.axis_1">
    <g id="xtick_1">
     <g id="line2d_1">
      <defs>
       <path id="m6a349be5b7" d="M 0 0 
L 0 3.5 
" style="stroke: #000000; stroke-width: 0.8"/>
      </defs>
      <g>
       <use xlink:href="#m6a349be5b7" x="72.901278" y="248.73125" style="stroke: #000000; stroke-width: 0.8"/>
      </g>
     </g>
     <g id="text_1">
      <!-- 0 -->
      <g transform="translate(70.401278 262.60625)scale(0.1 -0.1)">
       <defs>
        <path id="SimHei-30" d="M 225 2537 
Q 250 3200 412 3587 
Q 575 3975 875 4225 
Q 1175 4475 1612 4475 
Q 2050 4475 2375 4112 
Q 2700 3750 2800 3200 
Q 2900 2650 2862 1937 
Q 2825 1225 2612 775 
Q 2400 325 1975 150 
Q 1550 -25 1125 187 
Q 700 400 525 750 
Q 350 1100 275 1487 
Q 200 1875 225 2537 
z
M 750 2687 
Q 675 2000 800 1462 
Q 925 925 1212 700 
Q 1500 475 1800 612 
Q 2100 750 2237 1162 
Q 2375 1575 2375 2062 
Q 2375 2550 2337 2950 
Q 2300 3350 2112 3675 
Q 1925 4000 1612 4012 
Q 1300 4025 1062 3700 
Q 825 3375 750 2687 
z
" transform="scale(0.015625)"/>
       </defs>
       <use xlink:href="#SimHei-30"/>
      </g>
     </g>
    </g>
    <g id="xtick_2">
     <g id="line2d_2">
      <g>
       <use xlink:href="#m6a349be5b7" x="114.365412" y="248.73125" style="stroke: #000000; stroke-width: 0.8"/>
      </g>
     </g>
     <g id="text_2">
      <!-- 25 -->
      <g transform="translate(109.365412 262.60625)scale(0.1 -0.1)">
       <defs>
        <path id="SimHei-32" d="M 300 250 
Q 325 625 650 925 
Q 975 1225 1475 1862 
Q 1975 2500 2125 2850 
Q 2275 3200 2237 3450 
Q 2200 3700 2000 3862 
Q 1800 4025 1537 4000 
Q 1275 3975 1037 3800 
Q 800 3625 675 3275 
L 200 3350 
Q 400 3925 712 4187 
Q 1025 4450 1450 4475 
Q 1700 4500 1900 4462 
Q 2100 4425 2312 4287 
Q 2525 4150 2662 3875 
Q 2800 3600 2762 3212 
Q 2725 2825 2375 2287 
Q 2025 1750 1025 600 
L 2825 600 
L 2825 150 
L 300 150 
L 300 250 
z
" transform="scale(0.015625)"/>
        <path id="SimHei-35" d="M 550 1325 
Q 725 650 1150 575 
Q 1575 500 1837 662 
Q 2100 825 2212 1087 
Q 2325 1350 2312 1675 
Q 2300 2000 2137 2225 
Q 1975 2450 1725 2525 
Q 1475 2600 1162 2525 
Q 850 2450 650 2175 
L 225 2225 
Q 275 2375 700 4375 
L 2675 4375 
L 2675 3925 
L 1075 3925 
Q 950 3250 825 2850 
Q 1200 3025 1525 3012 
Q 1850 3000 2150 2862 
Q 2450 2725 2587 2487 
Q 2725 2250 2787 2012 
Q 2850 1775 2837 1500 
Q 2825 1225 2725 937 
Q 2625 650 2425 462 
Q 2225 275 1937 162 
Q 1650 50 1275 75 
Q 900 100 562 350 
Q 225 600 100 1200 
L 550 1325 
z
" transform="scale(0.015625)"/>
       </defs>
       <use xlink:href="#SimHei-32"/>
       <use xlink:href="#SimHei-35" x="50"/>
      </g>
     </g>
    </g>
    <g id="xtick_3">
     <g id="line2d_3">
      <g>
       <use xlink:href="#m6a349be5b7" x="155.829545" y="248.73125" style="stroke: #000000; stroke-width: 0.8"/>
      </g>
     </g>
     <g id="text_3">
      <!-- 50 -->
      <g transform="translate(150.829545 262.60625)scale(0.1 -0.1)">
       <use xlink:href="#SimHei-35"/>
       <use xlink:href="#SimHei-30" x="50"/>
      </g>
     </g>
    </g>
    <g id="xtick_4">
     <g id="line2d_4">
      <g>
       <use xlink:href="#m6a349be5b7" x="197.293679" y="248.73125" style="stroke: #000000; stroke-width: 0.8"/>
      </g>
     </g>
     <g id="text_4">
      <!-- 75 -->
      <g transform="translate(192.293679 262.60625)scale(0.1 -0.1)">
       <defs>
        <path id="SimHei-37" d="M 850 150 
Q 1300 2050 2425 3925 
L 275 3925 
L 275 4375 
L 2950 4375 
L 2950 3950 
Q 1775 2050 1400 150 
L 850 150 
z
" transform="scale(0.015625)"/>
       </defs>
       <use xlink:href="#SimHei-37"/>
       <use xlink:href="#SimHei-35" x="50"/>
      </g>
     </g>
    </g>
    <g id="xtick_5">
     <g id="line2d_5">
      <g>
       <use xlink:href="#m6a349be5b7" x="238.757812" y="248.73125" style="stroke: #000000; stroke-width: 0.8"/>
      </g>
     </g>
     <g id="text_5">
      <!-- 100 -->
      <g transform="translate(231.257812 262.60625)scale(0.1 -0.1)">
       <defs>
        <path id="SimHei-31" d="M 1400 3600 
Q 1075 3275 575 2975 
L 575 3450 
Q 1200 3875 1600 4450 
L 1900 4450 
L 1900 150 
L 1400 150 
L 1400 3600 
z
" transform="scale(0.015625)"/>
       </defs>
       <use xlink:href="#SimHei-31"/>
       <use xlink:href="#SimHei-30" x="50"/>
       <use xlink:href="#SimHei-30" x="100"/>
      </g>
     </g>
    </g>
    <g id="xtick_6">
     <g id="line2d_6">
      <g>
       <use xlink:href="#m6a349be5b7" x="280.221946" y="248.73125" style="stroke: #000000; stroke-width: 0.8"/>
      </g>
     </g>
     <g id="text_6">
      <!-- 125 -->
      <g transform="translate(272.721946 262.60625)scale(0.1 -0.1)">
       <use xlink:href="#SimHei-31"/>
       <use xlink:href="#SimHei-32" x="50"/>
       <use xlink:href="#SimHei-35" x="100"/>
      </g>
     </g>
    </g>
    <g id="xtick_7">
     <g id="line2d_7">
      <g>
       <use xlink:href="#m6a349be5b7" x="321.68608" y="248.73125" style="stroke: #000000; stroke-width: 0.8"/>
      </g>
     </g>
     <g id="text_7">
      <!-- 150 -->
      <g transform="translate(314.18608 262.60625)scale(0.1 -0.1)">
       <use xlink:href="#SimHei-31"/>
       <use xlink:href="#SimHei-35" x="50"/>
       <use xlink:href="#SimHei-30" x="100"/>
      </g>
     </g>
    </g>
    <g id="xtick_8">
     <g id="line2d_8">
      <g>
       <use xlink:href="#m6a349be5b7" x="363.150213" y="248.73125" style="stroke: #000000; stroke-width: 0.8"/>
      </g>
     </g>
     <g id="text_8">
      <!-- 175 -->
      <g transform="translate(355.650213 262.60625)scale(0.1 -0.1)">
       <use xlink:href="#SimHei-31"/>
       <use xlink:href="#SimHei-37" x="50"/>
       <use xlink:href="#SimHei-35" x="100"/>
      </g>
     </g>
    </g>
    <g id="xtick_9">
     <g id="line2d_9">
      <g>
       <use xlink:href="#m6a349be5b7" x="404.614347" y="248.73125" style="stroke: #000000; stroke-width: 0.8"/>
      </g>
     </g>
     <g id="text_9">
      <!-- 200 -->
      <g transform="translate(397.114347 262.60625)scale(0.1 -0.1)">
       <use xlink:href="#SimHei-32"/>
       <use xlink:href="#SimHei-30" x="50"/>
       <use xlink:href="#SimHei-30" x="100"/>
      </g>
     </g>
    </g>
    <g id="text_10">
     <!-- 干扰强度 -->
     <g transform="translate(218.757812 275.864062)scale(0.1 -0.1)">
      <defs>
       <path id="SimHei-5e72" d="M 4625 4775 
Q 5050 4775 5500 4800 
L 5500 4300 
Q 5050 4325 4625 4325 
L 3475 4325 
L 3475 2525 
L 5225 2525 
Q 5700 2525 6000 2550 
L 6000 2050 
Q 5700 2075 5225 2075 
L 3475 2075 
L 3475 325 
Q 3475 -75 3500 -625 
L 2925 -625 
Q 2950 -100 2950 325 
L 2950 2075 
L 1225 2075 
Q 775 2075 400 2050 
L 400 2550 
Q 775 2525 1225 2525 
L 2950 2525 
L 2950 4325 
L 1925 4325 
Q 1450 4325 925 4300 
L 925 4800 
Q 1450 4775 1800 4775 
L 4625 4775 
z
" transform="scale(0.015625)"/>
       <path id="SimHei-6270" d="M 4575 425 
Q 4575 0 4950 0 
L 5250 0 
Q 5400 0 5450 150 
Q 5500 300 5500 575 
Q 5750 425 6025 375 
Q 5950 50 5862 -175 
Q 5775 -400 5500 -425 
L 4825 -425 
Q 4125 -425 4125 300 
L 4125 3075 
L 3875 3075 
Q 3800 1550 3375 725 
Q 2950 -100 2425 -575 
Q 2275 -375 1950 -275 
Q 2375 25 2687 487 
Q 3000 950 3187 1537 
Q 3375 2125 3400 3075 
Q 3000 3075 2650 3050 
L 2650 3500 
Q 2975 3475 3400 3475 
Q 3425 4225 3375 5125 
Q 3700 5100 3950 5075 
Q 3900 4925 3887 4550 
Q 3875 4175 3875 3475 
L 5050 3475 
Q 5575 3475 5850 3500 
L 5850 3050 
Q 5550 3075 5100 3075 
L 4575 3075 
L 4575 425 
z
M 1775 5150 
Q 1750 4750 1750 3675 
Q 2000 3675 2425 3700 
L 2425 3250 
Q 2000 3275 1750 3275 
L 1750 2275 
Q 2025 2400 2350 2575 
Q 2325 2400 2375 2125 
Q 2175 2050 1750 1825 
L 1750 0 
Q 1750 -325 1512 -450 
Q 1275 -575 825 -650 
Q 800 -350 600 -125 
Q 1275 -125 1275 100 
L 1275 1650 
Q 850 1425 575 1275 
Q 475 1525 325 1750 
Q 675 1850 1275 2100 
L 1275 3275 
Q 725 3275 450 3250 
L 450 3700 
Q 800 3675 1275 3675 
Q 1275 4675 1250 5150 
L 1775 5150 
z
M 5200 3750 
Q 4825 4300 4450 4675 
Q 4650 4800 4800 4975 
Q 5175 4550 5600 4025 
Q 5450 3950 5200 3750 
z
" transform="scale(0.015625)"/>
       <path id="SimHei-5f3a" d="M 2350 25 
Q 3100 75 3950 225 
L 3950 1200 
L 3100 1200 
L 3100 975 
L 2625 975 
Q 2650 1725 2650 2050 
L 2650 2875 
L 3950 2875 
L 3950 3500 
L 2850 3500 
Q 2875 3900 2875 4275 
Q 2875 4675 2850 5025 
L 5525 5025 
Q 5500 4675 5500 4275 
Q 5500 3900 5525 3500 
L 4400 3500 
L 4400 2875 
L 5750 2875 
Q 5725 2575 5725 2075 
Q 5725 1575 5750 1200 
L 4400 1200 
L 4400 275 
L 5250 425 
Q 5150 575 5050 750 
Q 5300 825 5475 925 
Q 5925 200 6175 -250 
Q 5925 -350 5725 -500 
Q 5625 -250 5425 100 
Q 5125 50 4225 -137 
Q 3325 -325 2600 -525 
Q 2525 -200 2350 25 
z
M 600 -25 
Q 1250 -25 1400 50 
Q 1550 125 1575 325 
L 1675 1850 
L 500 1850 
Q 550 2350 562 2762 
Q 575 3175 575 3575 
L 1800 3575 
L 1800 4550 
L 1275 4550 
Q 825 4550 425 4525 
L 425 4950 
Q 850 4925 1275 4925 
L 2275 4925 
Q 2250 4525 2250 4075 
Q 2250 3650 2275 3200 
L 1075 3200 
L 1025 2225 
L 2175 2225 
Q 2125 1775 2100 1425 
L 2025 150 
Q 1975 -250 1637 -387 
Q 1300 -525 850 -600 
Q 775 -275 600 -25 
z
M 5050 3875 
L 5050 4650 
L 3325 4650 
L 3325 3875 
L 5050 3875 
z
M 3950 1575 
L 3950 2500 
L 3100 2500 
L 3100 1575 
L 3950 1575 
z
M 5250 1575 
L 5250 2500 
L 4400 2500 
L 4400 1575 
L 5250 1575 
z
" transform="scale(0.015625)"/>
       <path id="SimHei-5ea6" d="M 1750 1675 
Q 2450 1650 2875 1650 
L 5200 1650 
Q 4975 1250 4650 850 
Q 4325 450 4025 200 
Q 4350 50 4950 -50 
Q 5550 -150 6100 -150 
Q 5950 -300 5825 -650 
Q 5100 -550 4550 -412 
Q 4000 -275 3625 -100 
Q 3100 -325 2587 -462 
Q 2075 -600 1525 -675 
Q 1450 -475 1225 -250 
Q 1675 -250 2250 -125 
Q 2825 0 3250 200 
Q 2825 550 2400 1275 
L 1750 1250 
L 1750 1675 
z
M 2975 5075 
Q 3250 5150 3475 5250 
Q 3625 4975 3775 4525 
L 4700 4525 
Q 4975 4525 5700 4550 
L 5700 4100 
Q 5000 4125 4650 4125 
L 1375 4125 
Q 1375 3000 1350 2312 
Q 1325 1625 1212 950 
Q 1100 275 725 -525 
Q 500 -375 250 -300 
Q 650 400 762 1075 
Q 875 1750 887 2800 
Q 900 3850 875 4525 
L 3200 4525 
Q 3100 4850 2975 5075 
z
M 2475 3300 
Q 2475 3700 2450 3925 
L 2975 3925 
Q 2950 3725 2950 3300 
L 4300 3300 
Q 4300 3700 4275 3950 
L 4800 3950 
Q 4775 3650 4775 3300 
Q 5325 3300 5725 3325 
L 5725 2900 
Q 5350 2925 4775 2925 
Q 4775 2250 4800 1950 
L 2450 1950 
Q 2475 2350 2475 2925 
Q 2175 2925 1600 2900 
L 1600 3325 
Q 2175 3300 2475 3300 
z
M 4300 2350 
L 4300 2925 
L 2950 2925 
L 2950 2350 
L 4300 2350 
z
M 2875 1275 
Q 3200 775 3650 425 
Q 4025 700 4425 1275 
L 2900 1275 
L 2875 1275 
z
" transform="scale(0.015625)"/>
      </defs>
      <use xlink:href="#SimHei-5e72"/>
      <use xlink:href="#SimHei-6270" x="100"/>
      <use xlink:href="#SimHei-5f3a" x="200"/>
      <use xlink:href="#SimHei-5ea6" x="300"/>
     </g>
    </g>
   </g>
   <g id="matplotlib.axis_2">
    <g id="ytick_1">
     <g id="line2d_10">
      <defs>
       <path id="m8b9346d1df" d="M 0 0 
L -3.5 0 
" style="stroke: #000000; stroke-width: 0.8"/>
      </defs>
      <g>
       <use xlink:href="#m8b9346d1df" x="56.315625" y="238.627131" style="stroke: #000000; stroke-width: 0.8"/>
      </g>
     </g>
     <g id="text_11">
      <!-- 0.000 -->
      <g transform="translate(24.315625 242.064631)scale(0.1 -0.1)">
       <defs>
        <path id="SimHei-2e" d="M 1075 125 
L 500 125 
L 500 675 
L 1075 675 
L 1075 125 
z
" transform="scale(0.015625)"/>
       </defs>
       <use xlink:href="#SimHei-30"/>
       <use xlink:href="#SimHei-2e" x="50"/>
       <use xlink:href="#SimHei-30" x="100"/>
       <use xlink:href="#SimHei-30" x="150"/>
       <use xlink:href="#SimHei-30" x="200"/>
      </g>
     </g>
    </g>
    <g id="ytick_2">
     <g id="line2d_11">
      <g>
       <use xlink:href="#m8b9346d1df" x="56.315625" y="210.776288" style="stroke: #000000; stroke-width: 0.8"/>
      </g>
     </g>
     <g id="text_12">
      <!-- 0.005 -->
      <g transform="translate(24.315625 214.213788)scale(0.1 -0.1)">
       <use xlink:href="#SimHei-30"/>
       <use xlink:href="#SimHei-2e" x="50"/>
       <use xlink:href="#SimHei-30" x="100"/>
       <use xlink:href="#SimHei-30" x="150"/>
       <use xlink:href="#SimHei-35" x="200"/>
      </g>
     </g>
    </g>
    <g id="ytick_3">
     <g id="line2d_12">
      <g>
       <use xlink:href="#m8b9346d1df" x="56.315625" y="182.925445" style="stroke: #000000; stroke-width: 0.8"/>
      </g>
     </g>
     <g id="text_13">
      <!-- 0.010 -->
      <g transform="translate(24.315625 186.362945)scale(0.1 -0.1)">
       <use xlink:href="#SimHei-30"/>
       <use xlink:href="#SimHei-2e" x="50"/>
       <use xlink:href="#SimHei-30" x="100"/>
       <use xlink:href="#SimHei-31" x="150"/>
       <use xlink:href="#SimHei-30" x="200"/>
      </g>
     </g>
    </g>
    <g id="ytick_4">
     <g id="line2d_13">
      <g>
       <use xlink:href="#m8b9346d1df" x="56.315625" y="155.074603" style="stroke: #000000; stroke-width: 0.8"/>
      </g>
     </g>
     <g id="text_14">
      <!-- 0.015 -->
      <g transform="translate(24.315625 158.512103)scale(0.1 -0.1)">
       <use xlink:href="#SimHei-30"/>
       <use xlink:href="#SimHei-2e" x="50"/>
       <use xlink:href="#SimHei-30" x="100"/>
       <use xlink:href="#SimHei-31" x="150"/>
       <use xlink:href="#SimHei-35" x="200"/>
      </g>
     </g>
    </g>
    <g id="ytick_5">
     <g id="line2d_14">
      <g>
       <use xlink:href="#m8b9346d1df" x="56.315625" y="127.22376" style="stroke: #000000; stroke-width: 0.8"/>
      </g>
     </g>
     <g id="text_15">
      <!-- 0.020 -->
      <g transform="translate(24.315625 130.66126)scale(0.1 -0.1)">
       <use xlink:href="#SimHei-30"/>
       <use xlink:href="#SimHei-2e" x="50"/>
       <use xlink:href="#SimHei-30" x="100"/>
       <use xlink:href="#SimHei-32" x="150"/>
       <use xlink:href="#SimHei-30" x="200"/>
      </g>
     </g>
    </g>
    <g id="ytick_6">
     <g id="line2d_15">
      <g>
       <use xlink:href="#m8b9346d1df" x="56.315625" y="99.372917" style="stroke: #000000; stroke-width: 0.8"/>
      </g>
     </g>
     <g id="text_16">
      <!-- 0.025 -->
      <g transform="translate(24.315625 102.810417)scale(0.1 -0.1)">
       <use xlink:href="#SimHei-30"/>
       <use xlink:href="#SimHei-2e" x="50"/>
       <use xlink:href="#SimHei-30" x="100"/>
       <use xlink:href="#SimHei-32" x="150"/>
       <use xlink:href="#SimHei-35" x="200"/>
      </g>
     </g>
    </g>
    <g id="ytick_7">
     <g id="line2d_16">
      <g>
       <use xlink:href="#m8b9346d1df" x="56.315625" y="71.522074" style="stroke: #000000; stroke-width: 0.8"/>
      </g>
     </g>
     <g id="text_17">
      <!-- 0.030 -->
      <g transform="translate(24.315625 74.959574)scale(0.1 -0.1)">
       <defs>
        <path id="SimHei-33" d="M 250 1225 
L 700 1300 
Q 800 975 1025 762 
Q 1250 550 1587 562 
Q 1925 575 2125 837 
Q 2325 1100 2300 1437 
Q 2275 1775 2037 1962 
Q 1800 2150 1275 2225 
L 1275 2550 
Q 1800 2600 2037 2825 
Q 2275 3050 2250 3412 
Q 2225 3775 1925 3937 
Q 1625 4100 1287 3975 
Q 950 3850 750 3275 
L 300 3350 
Q 450 3800 712 4100 
Q 975 4400 1425 4450 
Q 1875 4500 2212 4337 
Q 2550 4175 2687 3837 
Q 2825 3500 2725 3100 
Q 2625 2700 2150 2400 
Q 2500 2250 2687 1950 
Q 2875 1650 2812 1162 
Q 2750 675 2375 375 
Q 2000 75 1525 87 
Q 1050 100 700 387 
Q 350 675 250 1225 
z
" transform="scale(0.015625)"/>
       </defs>
       <use xlink:href="#SimHei-30"/>
       <use xlink:href="#SimHei-2e" x="50"/>
       <use xlink:href="#SimHei-30" x="100"/>
       <use xlink:href="#SimHei-33" x="150"/>
       <use xlink:href="#SimHei-30" x="200"/>
      </g>
     </g>
    </g>
    <g id="ytick_8">
     <g id="line2d_17">
      <g>
       <use xlink:href="#m8b9346d1df" x="56.315625" y="43.671232" style="stroke: #000000; stroke-width: 0.8"/>
      </g>
     </g>
     <g id="text_18">
      <!-- 0.035 -->
      <g transform="translate(24.315625 47.108732)scale(0.1 -0.1)">
       <use xlink:href="#SimHei-30"/>
       <use xlink:href="#SimHei-2e" x="50"/>
       <use xlink:href="#SimHei-30" x="100"/>
       <use xlink:href="#SimHei-33" x="150"/>
       <use xlink:href="#SimHei-35" x="200"/>
      </g>
     </g>
    </g>
    <g id="text_19">
     <!-- avg of abs(dis2-dis1)/(dis1+1) -->
     <g transform="translate(19.065625 212.585938)rotate(-90)scale(0.1 -0.1)">
      <defs>
       <path id="SimHei-61" d="M 2875 125 
L 2275 125 
Q 2225 175 2200 262 
Q 2175 350 2175 475 
Q 2000 275 1750 175 
Q 1500 75 1225 75 
Q 825 75 550 275 
Q 275 475 275 850 
Q 275 1225 525 1450 
Q 775 1675 1300 1750 
Q 1650 1800 1912 1875 
Q 2175 1950 2175 2075 
Q 2175 2225 2062 2375 
Q 1950 2525 1575 2525 
Q 1275 2525 1137 2412 
Q 1000 2300 950 2100 
L 400 2100 
Q 450 2500 762 2737 
Q 1075 2975 1575 2975 
Q 2125 2975 2400 2725 
Q 2675 2475 2675 2025 
L 2675 650 
Q 2675 500 2725 375 
Q 2775 250 2875 125 
z
M 2175 1050 
L 2175 1550 
Q 2025 1500 1887 1462 
Q 1750 1425 1425 1375 
Q 1050 1325 937 1200 
Q 825 1075 825 900 
Q 825 750 937 637 
Q 1050 525 1275 525 
Q 1500 525 1762 650 
Q 2025 775 2175 1050 
z
" transform="scale(0.015625)"/>
       <path id="SimHei-76" d="M 2875 2925 
L 1825 75 
L 1275 75 
L 225 2925 
L 750 2925 
L 1525 750 
L 1575 750 
L 2350 2925 
L 2875 2925 
z
" transform="scale(0.015625)"/>
       <path id="SimHei-67" d="M 2975 2500 
Q 2800 2550 2637 2562 
Q 2475 2575 2300 2525 
Q 2375 2450 2425 2337 
Q 2475 2225 2475 2000 
Q 2475 1575 2187 1300 
Q 1900 1025 1475 1025 
Q 1375 1025 1212 1062 
Q 1050 1100 950 1150 
Q 875 1100 850 1050 
Q 825 1000 825 925 
Q 825 800 1000 737 
Q 1175 675 1625 675 
Q 2350 675 2612 475 
Q 2875 275 2875 -25 
Q 2875 -425 2487 -612 
Q 2100 -800 1575 -800 
Q 900 -800 575 -625 
Q 250 -450 250 -150 
Q 250 0 375 150 
Q 500 300 700 400 
Q 550 475 462 587 
Q 375 700 375 875 
Q 375 1025 487 1137 
Q 600 1250 750 1325 
Q 625 1450 550 1625 
Q 475 1800 475 2000 
Q 475 2425 762 2700 
Q 1050 2975 1475 2975 
Q 1700 2975 1862 2912 
Q 2025 2850 2150 2725 
Q 2350 2875 2550 2937 
Q 2750 3000 2975 2975 
L 2975 2500 
z
M 1975 2000 
Q 1975 2250 1850 2400 
Q 1725 2550 1475 2550 
Q 1225 2550 1100 2400 
Q 975 2250 975 2000 
Q 975 1750 1100 1600 
Q 1225 1450 1475 1450 
Q 1725 1450 1850 1600 
Q 1975 1750 1975 2000 
z
M 2400 -75 
Q 2400 25 2287 125 
Q 2175 225 1725 225 
Q 1625 225 1450 237 
Q 1275 250 1050 275 
Q 850 200 775 100 
Q 700 0 700 -100 
Q 700 -250 900 -350 
Q 1100 -450 1600 -450 
Q 2025 -450 2212 -337 
Q 2400 -225 2400 -75 
z
" transform="scale(0.015625)"/>
       <path id="SimHei-20" transform="scale(0.015625)"/>
       <path id="SimHei-6f" d="M 2925 1525 
Q 2925 875 2525 475 
Q 2125 75 1575 75 
Q 1025 75 625 475 
Q 225 875 225 1525 
Q 225 2175 625 2575 
Q 1025 2975 1575 2975 
Q 2125 2975 2525 2575 
Q 2925 2175 2925 1525 
z
M 2375 1525 
Q 2375 2025 2125 2275 
Q 1875 2525 1575 2525 
Q 1275 2525 1025 2275 
Q 775 2025 775 1525 
Q 775 1025 1025 775 
Q 1275 525 1575 525 
Q 1875 525 2125 775 
Q 2375 1025 2375 1525 
z
" transform="scale(0.015625)"/>
       <path id="SimHei-66" d="M 2850 3825 
Q 2725 3900 2550 3950 
Q 2375 4000 2100 4000 
Q 1825 4000 1725 3862 
Q 1625 3725 1625 3525 
L 1625 2925 
L 2650 2925 
L 2650 2525 
L 1625 2525 
L 1625 125 
L 1125 125 
L 1125 2525 
L 275 2525 
L 275 2925 
L 1125 2925 
L 1125 3500 
Q 1125 3950 1400 4200 
Q 1675 4450 2125 4450 
Q 2400 4450 2562 4412 
Q 2725 4375 2850 4325 
L 2850 3825 
z
" transform="scale(0.015625)"/>
       <path id="SimHei-62" d="M 2825 1525 
Q 2825 800 2475 437 
Q 2125 75 1625 75 
Q 1350 75 1150 175 
Q 950 275 800 500 
L 800 125 
L 300 125 
L 300 4400 
L 800 4400 
L 800 2550 
Q 950 2775 1150 2887 
Q 1350 3000 1625 3000 
Q 2125 3000 2475 2625 
Q 2825 2250 2825 1525 
z
M 2275 1525 
Q 2275 2000 2087 2275 
Q 1900 2550 1525 2550 
Q 1225 2550 1012 2275 
Q 800 2000 800 1525 
Q 800 1050 1012 787 
Q 1225 525 1525 525 
Q 1900 525 2087 787 
Q 2275 1050 2275 1525 
z
" transform="scale(0.015625)"/>
       <path id="SimHei-73" d="M 2750 900 
Q 2750 500 2437 287 
Q 2125 75 1650 75 
Q 1050 75 725 312 
Q 400 550 400 1000 
L 900 1000 
Q 900 700 1112 600 
Q 1325 500 1625 500 
Q 1925 500 2075 612 
Q 2225 725 2225 900 
Q 2225 1025 2100 1150 
Q 1975 1275 1475 1350 
Q 900 1425 687 1637 
Q 475 1850 475 2200 
Q 475 2500 762 2737 
Q 1050 2975 1600 2975 
Q 2100 2975 2387 2750 
Q 2675 2525 2675 2150 
L 2175 2150 
Q 2175 2375 2012 2462 
Q 1850 2550 1600 2550 
Q 1275 2550 1137 2437 
Q 1000 2325 1000 2175 
Q 1000 2000 1125 1900 
Q 1250 1800 1650 1750 
Q 2300 1650 2525 1437 
Q 2750 1225 2750 900 
z
" transform="scale(0.015625)"/>
       <path id="SimHei-28" d="M 2975 -200 
L 2700 -475 
Q 2075 125 1762 775 
Q 1450 1425 1450 2250 
Q 1450 3075 1762 3725 
Q 2075 4375 2700 5000 
L 2975 4725 
Q 2400 4175 2112 3587 
Q 1825 3000 1825 2250 
Q 1825 1500 2112 912 
Q 2400 325 2975 -200 
z
" transform="scale(0.015625)"/>
       <path id="SimHei-64" d="M 2750 125 
L 2250 125 
L 2250 500 
Q 2100 275 1900 175 
Q 1700 75 1425 75 
Q 925 75 575 437 
Q 225 800 225 1525 
Q 225 2250 575 2625 
Q 925 3000 1425 3000 
Q 1700 3000 1900 2887 
Q 2100 2775 2250 2550 
L 2250 4400 
L 2750 4400 
L 2750 125 
z
M 2250 1525 
Q 2250 2000 2037 2275 
Q 1825 2550 1525 2550 
Q 1150 2550 962 2275 
Q 775 2000 775 1525 
Q 775 1050 962 787 
Q 1150 525 1525 525 
Q 1825 525 2037 787 
Q 2250 1050 2250 1525 
z
" transform="scale(0.015625)"/>
       <path id="SimHei-69" d="M 1800 3725 
L 1300 3725 
L 1300 4375 
L 1800 4375 
L 1800 3725 
z
M 1800 125 
L 1300 125 
L 1300 2925 
L 1800 2925 
L 1800 125 
z
" transform="scale(0.015625)"/>
       <path id="SimHei-2d" d="M 2975 2125 
L 125 2125 
L 125 2525 
L 2975 2525 
L 2975 2125 
z
" transform="scale(0.015625)"/>
       <path id="SimHei-29" d="M 1675 2250 
Q 1675 1425 1362 775 
Q 1050 125 425 -475 
L 150 -200 
Q 725 325 1012 912 
Q 1300 1500 1300 2250 
Q 1300 3000 1012 3587 
Q 725 4175 150 4725 
L 425 5000 
Q 1050 4375 1362 3725 
Q 1675 3075 1675 2250 
z
" transform="scale(0.015625)"/>
       <path id="SimHei-2f" d="M 3000 4550 
L 350 -175 
L 100 -25 
L 2750 4700 
L 3000 4550 
z
" transform="scale(0.015625)"/>
       <path id="SimHei-2b" d="M 3000 2125 
L 1775 2125 
L 1775 900 
L 1350 900 
L 1350 2125 
L 125 2125 
L 125 2525 
L 1350 2525 
L 1350 3750 
L 1775 3750 
L 1775 2525 
L 3000 2525 
L 3000 2125 
z
" transform="scale(0.015625)"/>
      </defs>
      <use xlink:href="#SimHei-61"/>
      <use xlink:href="#SimHei-76" x="50"/>
      <use xlink:href="#SimHei-67" x="100"/>
      <use xlink:href="#SimHei-20" x="150"/>
      <use xlink:href="#SimHei-6f" x="200"/>
      <use xlink:href="#SimHei-66" x="250"/>
      <use xlink:href="#SimHei-20" x="300"/>
      <use xlink:href="#SimHei-61" x="350"/>
      <use xlink:href="#SimHei-62" x="400"/>
      <use xlink:href="#SimHei-73" x="450"/>
      <use xlink:href="#SimHei-28" x="500"/>
      <use xlink:href="#SimHei-64" x="550"/>
      <use xlink:href="#SimHei-69" x="600"/>
      <use xlink:href="#SimHei-73" x="650"/>
      <use xlink:href="#SimHei-32" x="700"/>
      <use xlink:href="#SimHei-2d" x="750"/>
      <use xlink:href="#SimHei-64" x="800"/>
      <use xlink:href="#SimHei-69" x="850"/>
      <use xlink:href="#SimHei-73" x="900"/>
      <use xlink:href="#SimHei-31" x="950"/>
      <use xlink:href="#SimHei-29" x="1000"/>
      <use xlink:href="#SimHei-2f" x="1050"/>
      <use xlink:href="#SimHei-28" x="1100"/>
      <use xlink:href="#SimHei-64" x="1150"/>
      <use xlink:href="#SimHei-69" x="1200"/>
      <use xlink:href="#SimHei-73" x="1250"/>
      <use xlink:href="#SimHei-31" x="1300"/>
      <use xlink:href="#SimHei-2b" x="1350"/>
      <use xlink:href="#SimHei-31" x="1400"/>
      <use xlink:href="#SimHei-29" x="1450"/>
     </g>
    </g>
   </g>
   <g id="line2d_18">
    <path d="M 72.901278 238.627131 
L 82.85267 236.428336 
L 84.511236 236.290968 
L 86.169801 235.718954 
L 87.828366 235.36008 
L 91.145497 234.865597 
L 92.804063 234.203989 
L 97.779759 233.108452 
L 101.096889 232.435727 
L 102.755455 231.940792 
L 106.072585 231.286251 
L 111.048281 230.18408 
L 114.365412 229.621767 
L 116.023977 228.981506 
L 117.682543 229.068165 
L 119.341108 228.824744 
L 120.999673 228.454623 
L 122.658239 227.600074 
L 124.316804 226.952776 
L 125.975369 227.059765 
L 127.633935 226.408145 
L 130.951065 226.241591 
L 132.609631 226.002131 
L 134.268196 225.020675 
L 135.926761 225.285955 
L 137.585327 224.734212 
L 139.243892 224.802337 
L 140.902457 223.795561 
L 142.561023 223.190393 
L 144.219588 222.831084 
L 145.878153 222.646812 
L 147.536719 222.117346 
L 149.195284 221.357084 
L 150.853849 221.649716 
L 152.512415 221.346345 
L 154.17098 220.153591 
L 155.829545 221.000611 
L 157.488111 219.859805 
L 159.146676 220.547897 
L 160.805241 219.665221 
L 162.463807 219.269013 
L 164.122372 219.091042 
L 165.780937 218.645851 
L 167.439503 217.558491 
L 169.098068 218.07185 
L 170.756634 216.99044 
L 172.415199 216.044903 
L 175.73233 216.038668 
L 177.390895 215.322033 
L 179.04946 216.000399 
L 180.708026 214.185164 
L 182.366591 213.592769 
L 184.025156 214.503993 
L 185.683722 212.86187 
L 187.342287 213.975359 
L 189.000852 213.637565 
L 190.659418 212.292774 
L 192.317983 211.666394 
L 193.976548 211.783957 
L 195.635114 209.417213 
L 197.293679 211.063028 
L 198.952244 210.764455 
L 200.61081 209.3299 
L 202.269375 209.65129 
L 205.586506 208.820451 
L 207.245071 208.871475 
L 208.903636 210.056074 
L 212.220767 206.82173 
L 213.879332 207.71327 
L 215.537898 206.439109 
L 217.196463 204.68752 
L 218.855028 206.341503 
L 220.513594 204.914173 
L 222.172159 203.235484 
L 223.830724 204.387494 
L 225.48929 204.708704 
L 227.147855 203.790732 
L 228.80642 204.312721 
L 230.464986 202.049071 
L 232.123551 203.114733 
L 233.782116 201.417009 
L 235.440682 200.6788 
L 237.099247 202.862112 
L 238.757812 199.730285 
L 240.416378 198.898865 
L 242.074943 202.100222 
L 243.733509 201.260316 
L 245.392074 199.698694 
L 247.050639 198.805718 
L 248.709205 196.017954 
L 250.36777 197.036166 
L 252.026335 198.454297 
L 253.684901 198.636774 
L 255.343466 195.922018 
L 257.002031 195.788723 
L 258.660597 193.962408 
L 260.319162 195.017906 
L 261.977727 194.994655 
L 263.636293 196.676331 
L 265.294858 192.727399 
L 266.953423 195.729916 
L 268.611989 192.583931 
L 270.270554 193.47018 
L 271.929119 190.544281 
L 273.587685 193.394981 
L 275.24625 189.272186 
L 276.904815 190.325857 
L 278.563381 190.394969 
L 280.221946 190.195938 
L 281.880511 189.655158 
L 283.539077 188.566795 
L 285.197642 191.138876 
L 286.856207 187.554218 
L 288.514773 188.900515 
L 290.173338 189.372825 
L 291.831903 187.135115 
L 293.490469 185.517071 
L 295.149034 183.391329 
L 296.807599 185.307789 
L 298.466165 184.641943 
L 300.12473 181.652436 
L 301.783295 185.403082 
L 303.441861 181.410961 
L 305.100426 186.853979 
L 306.758991 183.370183 
L 308.417557 180.192639 
L 310.076122 184.068745 
L 311.734688 181.977622 
L 313.393253 182.383735 
L 315.051818 184.924027 
L 316.710384 179.989914 
L 318.368949 178.649707 
L 320.027514 178.751467 
L 321.68608 179.397187 
L 323.344645 178.438677 
L 325.00321 180.602844 
L 326.661776 179.563962 
L 328.320341 177.250699 
L 329.978906 172.30659 
L 331.637472 171.680056 
L 333.296037 178.943451 
L 334.954602 176.766983 
L 336.613168 170.627401 
L 339.930298 175.144159 
L 341.588864 171.269861 
L 343.247429 173.936106 
L 344.905994 171.090083 
L 346.56456 173.290851 
L 348.223125 167.583727 
L 349.88169 169.72229 
L 351.540256 173.008174 
L 353.198821 164.613229 
L 354.857386 172.596946 
L 356.515952 166.35602 
L 358.174517 170.6939 
L 359.833082 168.93519 
L 361.491648 166.527322 
L 363.150213 163.900325 
L 364.808778 166.354569 
L 366.467344 165.727189 
L 368.125909 167.264349 
L 369.784474 161.762575 
L 371.44304 161.397439 
L 373.101605 166.121553 
L 374.76017 163.519662 
L 376.418736 161.58838 
L 378.077301 165.085272 
L 379.735866 158.652441 
L 381.394432 158.148237 
L 383.052997 160.202335 
L 384.711563 160.764815 
L 386.370128 159.795621 
L 388.028693 159.884227 
L 389.687259 162.712918 
L 391.345824 153.608076 
L 393.004389 157.994817 
L 394.662955 156.960719 
L 396.32152 154.229033 
L 397.980085 155.317708 
L 399.638651 150.388243 
L 401.297216 152.280784 
L 402.955781 154.876561 
L 404.614347 154.339756 
L 404.614347 154.339756 
" clip-path="url(#p07ba89b211)" style="fill: none; stroke: #1f77b4; stroke-width: 2; stroke-linecap: square"/>
   </g>
   <g id="line2d_19">
    <path d="M 72.901278 238.627131 
L 74.559844 233.531259 
L 76.218409 230.292563 
L 77.876974 227.360835 
L 79.53554 223.069656 
L 81.194105 221.101984 
L 82.85267 217.952987 
L 84.511236 216.605181 
L 86.169801 212.426145 
L 87.828366 211.97054 
L 89.486932 210.83984 
L 91.145497 207.195211 
L 92.804063 203.998069 
L 94.462628 205.129132 
L 96.121193 203.294666 
L 97.779759 197.782417 
L 99.438324 197.208728 
L 101.096889 189.532238 
L 102.755455 194.228198 
L 104.41402 193.310589 
L 106.072585 191.19017 
L 107.731151 191.690477 
L 109.389716 193.077478 
L 111.048281 186.865888 
L 112.706847 189.466923 
L 114.365412 188.358829 
L 116.023977 189.62254 
L 117.682543 182.335901 
L 119.341108 182.504739 
L 120.999673 185.088453 
L 122.658239 174.111778 
L 124.316804 171.645422 
L 125.975369 182.031547 
L 127.633935 166.337469 
L 129.2925 175.767314 
L 130.951065 175.977487 
L 132.609631 173.851231 
L 134.268196 172.723366 
L 135.926761 169.698085 
L 137.585327 164.484725 
L 139.243892 167.535799 
L 140.902457 157.187093 
L 142.561023 163.010655 
L 144.219588 166.060219 
L 145.878153 153.911573 
L 147.536719 158.060165 
L 149.195284 155.977174 
L 150.853849 159.136323 
L 152.512415 162.572664 
L 154.17098 159.493449 
L 155.829545 161.39112 
L 157.488111 161.778926 
L 159.146676 159.178259 
L 160.805241 162.432313 
L 162.463807 149.564527 
L 164.122372 156.521218 
L 165.780937 151.620782 
L 167.439503 141.079144 
L 169.098068 150.111069 
L 170.756634 144.422166 
L 172.415199 153.326099 
L 174.073764 147.441841 
L 175.73233 148.727212 
L 177.390895 151.23266 
L 179.04946 144.564474 
L 180.708026 138.964729 
L 182.366591 144.419006 
L 184.025156 141.727316 
L 185.683722 135.152497 
L 187.342287 144.077239 
L 189.000852 136.361587 
L 190.659418 144.346832 
L 192.317983 135.096252 
L 193.976548 135.077919 
L 195.635114 122.797903 
L 197.293679 92.516028 
L 198.952244 128.075579 
L 200.61081 133.644948 
L 202.269375 117.812233 
L 203.92794 130.047973 
L 205.586506 133.605438 
L 207.245071 130.806245 
L 208.903636 122.302471 
L 210.562202 122.243105 
L 212.220767 124.3457 
L 213.879332 129.832891 
L 215.537898 124.181266 
L 217.196463 120.530279 
L 218.855028 122.68645 
L 220.513594 125.384087 
L 222.172159 110.874305 
L 223.830724 129.714499 
L 225.48929 117.196027 
L 227.147855 114.244424 
L 228.80642 126.07488 
L 230.464986 119.121606 
L 232.123551 108.397236 
L 233.782116 113.645858 
L 235.440682 103.983941 
L 237.099247 103.938403 
L 238.757812 108.899859 
L 240.416378 102.457561 
L 242.074943 108.20214 
L 243.733509 107.276863 
L 245.392074 113.049435 
L 247.050639 105.549369 
L 248.709205 118.81365 
L 250.36777 96.531335 
L 252.026335 111.478939 
L 253.684901 112.460381 
L 255.343466 112.302711 
L 258.660597 94.060068 
L 260.319162 98.732627 
L 261.977727 112.096134 
L 263.636293 116.38002 
L 265.294858 90.060948 
L 266.953423 108.518827 
L 268.611989 104.978849 
L 270.270554 108.704168 
L 271.929119 70.784013 
L 273.587685 100.973921 
L 275.24625 96.853589 
L 276.904815 84.937384 
L 278.563381 99.909545 
L 280.221946 89.533524 
L 281.880511 77.462844 
L 283.539077 102.60804 
L 285.197642 94.51535 
L 286.856207 83.636248 
L 288.514773 84.69004 
L 290.173338 88.747215 
L 291.831903 96.007052 
L 293.490469 101.7722 
L 295.149034 97.052576 
L 296.807599 91.798031 
L 298.466165 83.784276 
L 300.12473 71.056998 
L 301.783295 94.628451 
L 303.441861 82.137684 
L 305.100426 95.365327 
L 306.758991 80.382667 
L 308.417557 90.063417 
L 310.076122 69.160629 
L 311.734688 74.672622 
L 313.393253 85.011525 
L 315.051818 90.369163 
L 316.710384 76.356 
L 318.368949 84.996342 
L 320.027514 89.018966 
L 321.68608 64.830531 
L 323.344645 85.952996 
L 325.00321 77.979218 
L 326.661776 74.389424 
L 328.320341 74.645761 
L 329.978906 72.161659 
L 331.637472 78.71549 
L 333.296037 74.981864 
L 334.954602 68.590225 
L 336.613168 69.749695 
L 338.271733 80.780476 
L 339.930298 90.056012 
L 341.588864 83.168421 
L 343.247429 71.677928 
L 344.905994 67.865448 
L 346.56456 65.909668 
L 348.223125 62.069158 
L 349.88169 80.124898 
L 351.540256 66.465836 
L 353.198821 62.286586 
L 354.857386 78.854417 
L 356.515952 74.982006 
L 358.174517 63.468119 
L 361.491648 68.490179 
L 363.150213 55.164054 
L 364.808778 53.405287 
L 366.467344 54.489974 
L 368.125909 68.781303 
L 369.784474 50.591573 
L 371.44304 63.900244 
L 374.76017 40.305722 
L 378.077301 69.582989 
L 379.735866 68.978286 
L 381.394432 59.681495 
L 383.052997 61.882757 
L 384.711563 52.546334 
L 386.370128 47.773139 
L 388.028693 49.48212 
L 389.687259 36.544744 
L 391.345824 60.567235 
L 393.004389 63.580373 
L 394.662955 50.960688 
L 396.32152 48.667866 
L 397.980085 46.862704 
L 399.638651 56.015434 
L 401.297216 41.507645 
L 402.955781 60.424062 
L 404.614347 51.364929 
L 404.614347 51.364929 
" clip-path="url(#p07ba89b211)" style="fill: none; stroke: #ff7f0e; stroke-width: 3; stroke-linecap: square"/>
   </g>
   <g id="line2d_20">
    <path d="M 72.901278 238.627131 
L 82.85267 235.720655 
L 84.511236 235.464697 
L 87.828366 234.192766 
L 89.486932 233.968326 
L 91.145497 233.610509 
L 92.804063 232.507237 
L 94.462628 232.393552 
L 97.779759 231.34846 
L 99.438324 230.994459 
L 102.755455 229.573928 
L 106.072585 228.694738 
L 107.731151 228.215863 
L 109.389716 227.253318 
L 111.048281 227.194568 
L 114.365412 226.437465 
L 116.023977 225.676118 
L 117.682543 225.677551 
L 119.341108 224.589263 
L 120.999673 224.385832 
L 122.658239 223.953076 
L 124.316804 223.299068 
L 125.975369 223.645276 
L 127.633935 222.039696 
L 129.2925 222.109201 
L 130.951065 220.87031 
L 132.609631 221.800694 
L 135.926761 220.708869 
L 137.585327 219.12701 
L 139.243892 219.532392 
L 140.902457 219.445549 
L 142.561023 217.528488 
L 145.878153 218.060843 
L 147.536719 216.709958 
L 149.195284 215.180613 
L 150.853849 216.190429 
L 152.512415 215.534614 
L 154.17098 214.429442 
L 155.829545 215.250658 
L 157.488111 214.419717 
L 159.146676 214.619291 
L 162.463807 211.802292 
L 164.122372 212.15025 
L 165.780937 212.915871 
L 167.439503 209.687795 
L 169.098068 210.404547 
L 170.756634 209.558215 
L 172.415199 209.4517 
L 174.073764 208.715104 
L 175.73233 208.702285 
L 177.390895 207.15692 
L 179.04946 208.33117 
L 180.708026 205.730951 
L 182.366591 207.163081 
L 184.025156 206.597787 
L 185.683722 205.575259 
L 187.342287 206.572214 
L 189.000852 205.584814 
L 190.659418 203.977749 
L 192.317983 203.260487 
L 193.976548 202.145777 
L 195.635114 200.611151 
L 197.293679 202.139215 
L 198.952244 201.975717 
L 200.61081 199.603141 
L 202.269375 199.837703 
L 203.92794 200.54628 
L 205.586506 200.528789 
L 207.245071 199.423567 
L 208.903636 200.805837 
L 210.562202 197.780033 
L 212.220767 197.614835 
L 213.879332 196.387514 
L 215.537898 196.631237 
L 217.196463 194.604813 
L 218.855028 195.064465 
L 220.513594 193.039057 
L 222.172159 193.451336 
L 223.830724 194.709932 
L 225.48929 193.06421 
L 227.147855 191.803931 
L 228.80642 195.341633 
L 230.464986 191.794133 
L 232.123551 192.973557 
L 233.782116 190.895258 
L 235.440682 190.268171 
L 237.099247 191.110511 
L 238.757812 187.72321 
L 240.416378 187.425348 
L 242.074943 190.258207 
L 245.392074 188.509019 
L 247.050639 186.188315 
L 248.709205 182.968803 
L 250.36777 186.182634 
L 252.026335 185.787953 
L 253.684901 187.687486 
L 255.343466 184.9832 
L 257.002031 183.04819 
L 258.660597 184.111055 
L 260.319162 181.283036 
L 261.977727 182.178298 
L 263.636293 185.372714 
L 265.294858 177.487274 
L 266.953423 179.762827 
L 268.611989 178.942626 
L 270.270554 181.476537 
L 271.929119 178.735085 
L 273.587685 181.113606 
L 275.24625 174.705011 
L 276.904815 176.377783 
L 278.563381 177.127113 
L 280.221946 177.528354 
L 281.880511 175.888957 
L 283.539077 176.229521 
L 285.197642 178.081489 
L 286.856207 174.394184 
L 288.514773 176.082406 
L 290.173338 175.253463 
L 291.831903 170.387065 
L 293.490469 171.070766 
L 295.149034 166.192464 
L 296.807599 171.404084 
L 298.466165 171.918059 
L 300.12473 166.425059 
L 301.783295 170.431944 
L 303.441861 162.785248 
L 305.100426 172.706331 
L 306.758991 166.661438 
L 308.417557 163.469079 
L 310.076122 169.96708 
L 311.734688 165.27295 
L 313.393253 165.700707 
L 315.051818 168.596123 
L 316.710384 165.074004 
L 318.368949 160.98197 
L 320.027514 164.638171 
L 321.68608 161.043968 
L 323.344645 164.287373 
L 325.00321 162.469582 
L 326.661776 163.465185 
L 328.320341 159.289186 
L 329.978906 155.666404 
L 331.637472 155.729333 
L 333.296037 160.476997 
L 334.954602 161.348726 
L 336.613168 153.881872 
L 338.271733 154.063916 
L 339.930298 158.639147 
L 341.588864 154.864853 
L 343.247429 156.186677 
L 344.905994 153.937852 
L 346.56456 154.505571 
L 348.223125 150.650864 
L 349.88169 154.224733 
L 351.540256 153.484433 
L 353.198821 143.216776 
L 354.857386 155.063547 
L 356.515952 149.398881 
L 358.174517 151.762085 
L 359.833082 151.157462 
L 361.491648 151.502653 
L 364.808778 145.459385 
L 366.467344 145.793905 
L 368.125909 149.286855 
L 369.784474 144.067579 
L 371.44304 142.730227 
L 373.101605 148.556809 
L 374.76017 144.80173 
L 376.418736 141.630652 
L 378.077301 145.398653 
L 379.735866 138.032987 
L 381.394432 138.053314 
L 383.052997 139.101513 
L 384.711563 143.047988 
L 386.370128 141.557558 
L 388.028693 138.001247 
L 389.687259 142.871602 
L 391.345824 132.784835 
L 393.004389 139.043745 
L 394.662955 137.104593 
L 396.32152 133.118083 
L 397.980085 135.352498 
L 399.638651 131.114887 
L 402.955781 135.148485 
L 404.614347 132.48732 
L 404.614347 132.48732 
" clip-path="url(#p07ba89b211)" style="fill: none; stroke: #2ca02c; stroke-width: 2; stroke-linecap: square"/>
   </g>
   <g id="line2d_21">
    <path d="M 72.901278 238.627131 
L 74.559844 234.396898 
L 76.218409 231.183151 
L 77.876974 227.377044 
L 79.53554 224.106087 
L 81.194105 223.677766 
L 82.85267 219.029965 
L 84.511236 218.207439 
L 86.169801 214.994016 
L 87.828366 214.568352 
L 89.486932 210.56408 
L 92.804063 206.910982 
L 94.462628 205.683079 
L 96.121193 206.142888 
L 97.779759 201.89747 
L 99.438324 201.810403 
L 101.096889 195.936814 
L 102.755455 198.803511 
L 104.41402 198.037911 
L 106.072585 194.956719 
L 107.731151 196.186143 
L 109.389716 195.740966 
L 111.048281 190.985508 
L 112.706847 193.074342 
L 114.365412 192.170483 
L 116.023977 191.035969 
L 117.682543 186.074433 
L 119.341108 183.358891 
L 120.999673 190.352102 
L 124.316804 176.527608 
L 125.975369 187.103637 
L 127.633935 176.470611 
L 129.2925 180.953933 
L 130.951065 180.018429 
L 132.609631 175.959763 
L 134.268196 179.041649 
L 135.926761 174.034402 
L 137.585327 173.548785 
L 139.243892 173.597161 
L 140.902457 162.398429 
L 142.561023 170.891688 
L 144.219588 169.558311 
L 145.878153 161.438352 
L 147.536719 165.282144 
L 149.195284 163.590841 
L 150.853849 163.039247 
L 152.512415 169.545502 
L 154.17098 165.045481 
L 155.829545 166.239458 
L 157.488111 166.983396 
L 159.146676 165.087235 
L 160.805241 166.431097 
L 162.463807 155.722217 
L 164.122372 166.151216 
L 167.439503 151.89309 
L 169.098068 156.149923 
L 170.756634 154.201181 
L 172.415199 158.697386 
L 174.073764 150.492773 
L 175.73233 151.501517 
L 177.390895 160.462813 
L 179.04946 151.357398 
L 180.708026 144.404401 
L 182.366591 151.354645 
L 184.025156 144.016943 
L 185.683722 140.570432 
L 187.342287 152.152183 
L 189.000852 143.230418 
L 190.659418 147.134935 
L 192.317983 141.681188 
L 193.976548 143.727765 
L 195.635114 129.054979 
L 197.293679 119.742212 
L 198.952244 140.512113 
L 200.61081 139.457268 
L 202.269375 135.306089 
L 203.92794 136.289151 
L 205.586506 135.600415 
L 207.245071 139.462006 
L 208.903636 133.28873 
L 210.562202 136.711003 
L 212.220767 134.212026 
L 213.879332 137.866535 
L 215.537898 133.803309 
L 217.196463 127.399988 
L 218.855028 126.748005 
L 220.513594 132.499514 
L 222.172159 125.566164 
L 223.830724 129.050765 
L 225.48929 127.809489 
L 227.147855 121.081308 
L 228.80642 129.237444 
L 230.464986 129.466358 
L 232.123551 123.32635 
L 233.782116 124.084546 
L 235.440682 114.955735 
L 237.099247 117.332452 
L 238.757812 124.244737 
L 240.416378 112.753715 
L 242.074943 124.24465 
L 243.733509 123.206728 
L 245.392074 119.854535 
L 247.050639 119.402488 
L 248.709205 126.651213 
L 250.36777 111.024746 
L 252.026335 119.152158 
L 253.684901 120.727315 
L 255.343466 121.396801 
L 257.002031 110.873574 
L 258.660597 101.661868 
L 260.319162 111.34441 
L 261.977727 117.932597 
L 263.636293 120.241905 
L 265.294858 106.966917 
L 266.953423 112.545804 
L 268.611989 116.468592 
L 270.270554 119.219325 
L 271.929119 93.686779 
L 273.587685 112.845415 
L 275.24625 110.479915 
L 276.904815 104.542358 
L 278.563381 104.029949 
L 280.221946 102.464075 
L 281.880511 102.591481 
L 283.539077 111.384096 
L 285.197642 102.73828 
L 286.856207 100.305296 
L 288.514773 103.749026 
L 290.173338 101.133863 
L 291.831903 106.157653 
L 293.490469 103.986811 
L 295.149034 101.30617 
L 296.807599 105.511872 
L 300.12473 85.114977 
L 301.783295 100.380732 
L 303.441861 96.868737 
L 305.100426 101.592103 
L 306.758991 94.943422 
L 308.417557 96.200798 
L 310.076122 88.110673 
L 311.734688 85.395633 
L 313.393253 96.066992 
L 315.051818 97.377995 
L 316.710384 88.605233 
L 318.368949 99.508207 
L 320.027514 95.5451 
L 321.68608 86.641322 
L 323.344645 88.93311 
L 325.00321 91.427979 
L 326.661776 92.49837 
L 328.320341 87.558748 
L 329.978906 87.798256 
L 331.637472 84.414074 
L 333.296037 90.634821 
L 334.954602 78.521638 
L 338.271733 87.041763 
L 339.930298 94.327603 
L 341.588864 86.919805 
L 343.247429 83.680973 
L 344.905994 77.676418 
L 346.56456 84.589294 
L 348.223125 76.031808 
L 349.88169 88.003221 
L 353.198821 74.934705 
L 354.857386 89.283062 
L 356.515952 82.219477 
L 358.174517 79.07314 
L 359.833082 78.255017 
L 361.491648 73.377693 
L 363.150213 76.336238 
L 364.808778 77.015519 
L 366.467344 68.947884 
L 368.125909 74.363819 
L 369.784474 61.595025 
L 371.44304 73.673455 
L 373.101605 65.108183 
L 374.76017 60.835852 
L 376.418736 63.436891 
L 378.077301 78.666246 
L 379.735866 78.067558 
L 381.394432 72.759918 
L 383.052997 68.573564 
L 384.711563 70.126608 
L 386.370128 67.538254 
L 388.028693 70.381781 
L 389.687259 53.098922 
L 391.345824 69.32508 
L 393.004389 71.888673 
L 394.662955 64.244477 
L 396.32152 67.501847 
L 397.980085 60.701467 
L 399.638651 71.157248 
L 401.297216 60.118989 
L 402.955781 67.444374 
L 404.614347 67.496303 
L 404.614347 67.496303 
" clip-path="url(#p07ba89b211)" style="fill: none; stroke: #d62728; stroke-width: 2; stroke-linecap: square"/>
   </g>
   <g id="line2d_22">
    <path d="M 72.901278 238.627131 
L 77.876974 235.719843 
L 79.53554 234.688933 
L 82.85267 232.943336 
L 84.511236 231.956803 
L 86.169801 230.73968 
L 87.828366 230.067069 
L 92.804063 227.057834 
L 94.462628 225.776018 
L 96.121193 225.620344 
L 97.779759 224.104914 
L 99.438324 223.991104 
L 101.096889 222.571233 
L 102.755455 221.913962 
L 104.41402 220.678038 
L 106.072585 220.906814 
L 107.731151 218.063909 
L 109.389716 217.933814 
L 111.048281 217.24915 
L 112.706847 216.188269 
L 114.365412 215.794029 
L 116.023977 213.931145 
L 117.682543 214.44987 
L 119.341108 211.959552 
L 120.999673 211.929491 
L 122.658239 210.914633 
L 124.316804 209.13515 
L 127.633935 209.090473 
L 129.2925 208.363532 
L 130.951065 205.367875 
L 132.609631 206.057923 
L 134.268196 202.350195 
L 139.243892 204.900275 
L 140.902457 204.010131 
L 142.561023 200.622118 
L 144.219588 200.315865 
L 145.878153 197.234797 
L 147.536719 198.665698 
L 149.195284 197.472757 
L 150.853849 196.499388 
L 152.512415 196.957976 
L 154.17098 197.564772 
L 155.829545 191.253627 
L 157.488111 193.393856 
L 159.146676 191.967355 
L 160.805241 192.812723 
L 162.463807 189.81533 
L 164.122372 190.998949 
L 165.780937 188.36311 
L 167.439503 187.76078 
L 169.098068 184.722748 
L 170.756634 187.839409 
L 172.415199 188.829892 
L 174.073764 187.87276 
L 175.73233 184.3197 
L 177.390895 183.461293 
L 179.04946 185.222378 
L 180.708026 181.935353 
L 182.366591 180.256553 
L 184.025156 183.16095 
L 185.683722 180.746533 
L 187.342287 179.637194 
L 189.000852 177.224765 
L 190.659418 175.741338 
L 192.317983 175.382957 
L 193.976548 174.904683 
L 195.635114 175.73321 
L 197.293679 178.540888 
L 198.952244 173.395202 
L 200.61081 172.0714 
L 202.269375 174.374505 
L 203.92794 172.272179 
L 205.586506 173.165141 
L 207.245071 167.821675 
L 208.903636 170.964397 
L 210.562202 169.465834 
L 212.220767 169.454866 
L 213.879332 167.362816 
L 215.537898 165.890621 
L 217.196463 167.001248 
L 218.855028 169.276623 
L 220.513594 161.862527 
L 222.172159 166.377581 
L 223.830724 163.705255 
L 225.48929 163.307855 
L 227.147855 164.275105 
L 228.80642 160.260433 
L 230.464986 159.873826 
L 232.123551 161.189686 
L 233.782116 157.871466 
L 235.440682 157.523405 
L 237.099247 158.364599 
L 238.757812 162.546961 
L 240.416378 153.366504 
L 242.074943 160.574641 
L 243.733509 159.212226 
L 245.392074 156.077674 
L 247.050639 156.807783 
L 248.709205 154.222015 
L 250.36777 149.669532 
L 252.026335 152.620726 
L 253.684901 154.283387 
L 255.343466 148.23203 
L 257.002031 151.256496 
L 258.660597 152.891189 
L 260.319162 146.059084 
L 261.977727 143.856083 
L 263.636293 150.840637 
L 265.294858 150.632763 
L 266.953423 146.65214 
L 268.611989 147.041408 
L 270.270554 144.505509 
L 271.929119 145.968588 
L 273.587685 140.787923 
L 275.24625 144.375716 
L 276.904815 147.477089 
L 278.563381 140.709158 
L 280.221946 142.465746 
L 281.880511 142.056544 
L 283.539077 143.411314 
L 285.197642 133.934514 
L 286.856207 137.384334 
L 288.514773 141.115749 
L 290.173338 137.238616 
L 291.831903 137.465245 
L 293.490469 139.019649 
L 295.149034 136.638709 
L 298.466165 138.553709 
L 301.783295 128.30976 
L 303.441861 132.765746 
L 305.100426 137.705697 
L 306.758991 126.062349 
L 308.417557 130.625881 
L 310.076122 133.357579 
L 311.734688 131.494803 
L 313.393253 133.716404 
L 315.051818 131.628121 
L 316.710384 126.223316 
L 318.368949 131.150476 
L 320.027514 130.528611 
L 321.68608 128.083226 
L 323.344645 126.234303 
L 325.00321 121.652187 
L 326.661776 125.846578 
L 328.320341 122.442574 
L 329.978906 124.753261 
L 331.637472 124.12537 
L 333.296037 120.346985 
L 334.954602 123.141045 
L 336.613168 126.487494 
L 338.271733 128.608697 
L 339.930298 119.023376 
L 341.588864 118.703539 
L 343.247429 117.337883 
L 344.905994 125.161763 
L 346.56456 124.03997 
L 348.223125 122.647891 
L 349.88169 116.128049 
L 351.540256 125.856996 
L 353.198821 115.666701 
L 354.857386 116.789036 
L 356.515952 119.725231 
L 358.174517 119.871361 
L 359.833082 114.005172 
L 361.491648 116.040066 
L 363.150213 107.53249 
L 364.808778 113.581683 
L 366.467344 112.921258 
L 368.125909 109.276789 
L 369.784474 113.857286 
L 371.44304 108.931188 
L 373.101605 109.337264 
L 374.76017 101.958396 
L 376.418736 111.447675 
L 378.077301 117.981968 
L 379.735866 105.708991 
L 381.394432 104.01393 
L 383.052997 107.79504 
L 384.711563 109.860591 
L 386.370128 110.442061 
L 388.028693 112.25729 
L 389.687259 107.114249 
L 391.345824 107.551278 
L 393.004389 106.644209 
L 394.662955 106.498038 
L 396.32152 99.192179 
L 397.980085 102.36017 
L 399.638651 101.497251 
L 401.297216 106.576559 
L 402.955781 107.468304 
L 404.614347 104.303219 
L 404.614347 104.303219 
" clip-path="url(#p07ba89b211)" style="fill: none; stroke: #9467bd; stroke-width: 2; stroke-linecap: square"/>
   </g>
   <g id="line2d_23">
    <path d="M 72.901278 238.627131 
L 77.876974 235.554504 
L 79.53554 234.525929 
L 84.511236 231.86055 
L 86.169801 230.397978 
L 87.828366 229.748681 
L 92.804063 226.689782 
L 94.462628 225.156773 
L 96.121193 224.814984 
L 97.779759 223.643522 
L 99.438324 222.976149 
L 101.096889 221.905189 
L 102.755455 221.071281 
L 104.41402 219.998939 
L 106.072585 220.124013 
L 107.731151 217.608712 
L 109.389716 216.68711 
L 111.048281 216.107906 
L 112.706847 214.998364 
L 114.365412 214.489248 
L 116.023977 212.63486 
L 117.682543 212.876044 
L 119.341108 210.983907 
L 120.999673 210.964871 
L 124.316804 207.777438 
L 125.975369 206.758551 
L 127.633935 207.72182 
L 129.2925 206.541253 
L 130.951065 203.433004 
L 132.609631 204.222169 
L 134.268196 201.845273 
L 135.926761 201.587618 
L 137.585327 202.79222 
L 139.243892 203.007638 
L 140.902457 201.808694 
L 142.561023 198.727257 
L 144.219588 196.906266 
L 145.878153 196.629094 
L 147.536719 196.76688 
L 149.195284 195.053712 
L 150.853849 192.642889 
L 152.512415 194.333423 
L 154.17098 194.231563 
L 155.829545 189.5322 
L 157.488111 191.380393 
L 159.146676 189.54345 
L 160.805241 189.609654 
L 162.463807 187.431526 
L 164.122372 188.607926 
L 165.780937 185.980165 
L 167.439503 184.641498 
L 169.098068 180.885901 
L 170.756634 183.633131 
L 172.415199 186.036091 
L 174.073764 183.054995 
L 175.73233 180.65308 
L 177.390895 179.93173 
L 179.04946 182.08619 
L 180.708026 179.645272 
L 182.366591 176.803762 
L 184.025156 178.551722 
L 185.683722 177.500028 
L 187.342287 176.796476 
L 190.659418 173.001696 
L 192.317983 173.223517 
L 195.635114 172.099941 
L 197.293679 173.400647 
L 198.952244 168.459582 
L 200.61081 167.173363 
L 202.269375 171.469386 
L 203.92794 169.312854 
L 205.586506 169.658836 
L 207.245071 163.778423 
L 208.903636 166.158689 
L 210.562202 166.095072 
L 212.220767 164.447902 
L 213.879332 162.125808 
L 215.537898 161.631554 
L 217.196463 161.96565 
L 218.855028 165.170609 
L 220.513594 157.322325 
L 222.172159 159.487968 
L 223.830724 158.933177 
L 225.48929 158.789542 
L 227.147855 157.752899 
L 228.80642 156.329019 
L 230.464986 155.132296 
L 232.123551 155.743462 
L 233.782116 150.979036 
L 235.440682 151.742812 
L 237.099247 150.973354 
L 238.757812 156.94587 
L 240.416378 146.976972 
L 242.074943 154.640399 
L 243.733509 152.599877 
L 245.392074 147.337979 
L 247.050639 149.88464 
L 248.709205 147.276115 
L 250.36777 141.905831 
L 252.026335 148.10183 
L 253.684901 144.794561 
L 255.343466 141.037778 
L 257.002031 145.575762 
L 258.660597 146.724597 
L 260.319162 137.489629 
L 261.977727 136.652689 
L 263.636293 142.190238 
L 265.294858 142.299427 
L 266.953423 137.742545 
L 268.611989 138.048811 
L 270.270554 137.875249 
L 271.929119 138.820124 
L 273.587685 133.173092 
L 275.24625 137.796974 
L 276.904815 138.261089 
L 278.563381 131.796153 
L 280.221946 133.314266 
L 281.880511 134.055413 
L 283.539077 134.396516 
L 285.197642 126.73743 
L 286.856207 128.656451 
L 288.514773 130.81155 
L 290.173338 128.812348 
L 291.831903 127.678689 
L 293.490469 130.692647 
L 295.149034 125.54081 
L 296.807599 129.697653 
L 298.466165 127.943589 
L 300.12473 119.784201 
L 301.783295 122.133589 
L 303.441861 122.238022 
L 305.100426 123.776838 
L 306.758991 118.949795 
L 308.417557 120.911174 
L 310.076122 123.055005 
L 311.734688 123.98918 
L 313.393253 118.472999 
L 315.051818 123.086147 
L 316.710384 117.10644 
L 318.368949 116.907288 
L 320.027514 122.480456 
L 321.68608 119.121625 
L 323.344645 117.825052 
L 325.00321 112.231428 
L 326.661776 114.173108 
L 328.320341 110.105361 
L 329.978906 116.798191 
L 331.637472 110.025072 
L 333.296037 111.865375 
L 334.954602 112.809116 
L 336.613168 115.197489 
L 338.271733 115.777896 
L 339.930298 106.561036 
L 341.588864 103.115538 
L 343.247429 107.717495 
L 344.905994 111.81214 
L 346.56456 108.000018 
L 348.223125 108.308207 
L 349.88169 103.233067 
L 351.540256 111.768843 
L 353.198821 104.07034 
L 354.857386 101.924886 
L 356.515952 106.222988 
L 358.174517 105.795028 
L 359.833082 98.229648 
L 361.491648 102.889098 
L 363.150213 91.033177 
L 364.808778 94.230632 
L 366.467344 96.169864 
L 368.125909 93.382204 
L 369.784474 96.981956 
L 371.44304 90.734934 
L 373.101605 95.481495 
L 374.76017 87.94581 
L 376.418736 92.960203 
L 378.077301 100.07386 
L 379.735866 86.018076 
L 381.394432 84.997069 
L 383.052997 89.951495 
L 386.370128 92.740422 
L 388.028693 92.80618 
L 389.687259 91.595257 
L 391.345824 92.208616 
L 393.004389 85.4407 
L 394.662955 92.457696 
L 396.32152 79.448554 
L 397.980085 82.115756 
L 399.638651 83.104329 
L 401.297216 84.654582 
L 402.955781 90.356911 
L 404.614347 85.731779 
L 404.614347 85.731779 
" clip-path="url(#p07ba89b211)" style="fill: none; stroke: #8c564b; stroke-width: 2; stroke-linecap: square"/>
   </g>
   <g id="patch_3">
    <path d="M 56.315625 248.73125 
L 56.315625 26.440625 
" style="fill: none; stroke: #000000; stroke-width: 0.8; stroke-linejoin: miter; stroke-linecap: square"/>
   </g>
   <g id="patch_4">
    <path d="M 421.2 248.73125 
L 421.2 26.440625 
" style="fill: none; stroke: #000000; stroke-width: 0.8; stroke-linejoin: miter; stroke-linecap: square"/>
   </g>
   <g id="patch_5">
    <path d="M 56.315625 248.73125 
L 421.2 248.73125 
" style="fill: none; stroke: #000000; stroke-width: 0.8; stroke-linejoin: miter; stroke-linecap: square"/>
   </g>
   <g id="patch_6">
    <path d="M 56.315625 26.440625 
L 421.2 26.440625 
" style="fill: none; stroke: #000000; stroke-width: 0.8; stroke-linejoin: miter; stroke-linecap: square"/>
   </g>
   <g id="text_20">
    <!-- 讨论不同干扰强度对不稳定性的影响 -->
    <g transform="translate(142.757812 20.440625)scale(0.12 -0.12)">
     <defs>
      <path id="SimHei-8ba8" d="M 4700 3775 
Q 4700 4600 4675 5225 
L 5225 5225 
Q 5200 4625 5200 3775 
Q 5625 3775 6075 3800 
L 6075 3325 
Q 5675 3350 5200 3350 
L 5200 25 
Q 5200 -325 4925 -437 
Q 4650 -550 4150 -600 
Q 4125 -300 3875 25 
Q 4450 0 4575 50 
Q 4700 100 4700 350 
L 4700 3350 
L 3225 3350 
Q 2900 3350 2300 3325 
L 2300 3800 
Q 2875 3775 3175 3775 
L 4700 3775 
z
M 1700 3375 
Q 1675 2925 1675 2400 
L 1675 550 
Q 2000 850 2400 1325 
Q 2550 1025 2725 825 
Q 2375 550 2037 237 
Q 1700 -75 1450 -350 
Q 1225 -100 1025 50 
Q 1200 250 1200 575 
L 1200 2950 
Q 575 2950 300 2925 
L 300 3400 
Q 575 3375 975 3375 
L 1700 3375 
z
M 3025 2750 
Q 3525 2150 3875 1525 
Q 3625 1375 3425 1250 
Q 3150 1850 2625 2475 
Q 2800 2575 3025 2750 
z
M 1250 5250 
Q 1550 4850 1825 4200 
Q 1625 4100 1375 3950 
Q 1175 4500 825 5000 
Q 1000 5100 1250 5250 
z
" transform="scale(0.015625)"/>
      <path id="SimHei-8bba" d="M 3500 1600 
Q 3825 1725 4250 2000 
Q 4675 2275 4975 2575 
Q 5225 2275 5400 2100 
Q 5050 1950 4550 1675 
Q 4050 1400 3500 1150 
L 3500 300 
Q 3500 -100 3800 -100 
L 4825 -100 
Q 5125 -100 5250 137 
Q 5375 375 5375 575 
Q 5675 350 5925 275 
Q 5750 -225 5550 -375 
Q 5350 -525 5100 -525 
L 3550 -525 
Q 3025 -475 3025 0 
L 3025 2175 
Q 3025 2525 3000 2850 
L 3525 2850 
Q 3500 2400 3500 2200 
L 3500 1600 
z
M 4175 4850 
Q 4400 4350 4950 3687 
Q 5500 3025 6175 2700 
Q 5975 2575 5800 2275 
Q 5100 2750 4637 3375 
Q 4175 4000 3950 4425 
Q 3725 3950 3387 3425 
Q 3050 2900 2325 2200 
Q 2175 2375 1950 2575 
Q 2350 2825 2650 3175 
Q 2950 3525 3200 3962 
Q 3450 4400 3575 4725 
Q 3700 5050 3750 5250 
Q 3975 5150 4275 5050 
L 4175 4850 
z
M 1600 3150 
Q 1575 2750 1575 2275 
L 1575 550 
Q 1950 825 2400 1300 
Q 2500 1075 2650 800 
Q 2250 475 1900 187 
Q 1550 -100 1250 -375 
Q 1150 -225 900 50 
Q 1100 250 1100 450 
L 1100 2700 
L 800 2700 
Q 550 2700 275 2675 
L 275 3175 
Q 550 3150 800 3150 
L 1600 3150 
z
M 975 5000 
Q 1550 4525 2125 4025 
Q 1950 3875 1750 3650 
Q 1325 4150 650 4650 
Q 825 4800 975 5000 
z
" transform="scale(0.015625)"/>
      <path id="SimHei-4e0d" d="M 5975 4450 
Q 5525 4475 5200 4475 
L 3725 4475 
Q 3550 4125 3300 3700 
L 3300 575 
Q 3300 75 3325 -550 
L 2775 -550 
Q 2800 50 2800 575 
L 2800 3025 
Q 2025 1950 700 1050 
Q 500 1350 325 1475 
Q 825 1700 1650 2437 
Q 2475 3175 3175 4475 
L 1525 4475 
Q 1050 4475 525 4450 
L 525 4950 
Q 1275 4925 1675 4925 
L 5175 4925 
Q 5500 4925 5975 4950 
L 5975 4450 
z
M 5450 1125 
Q 4975 1725 3750 2975 
Q 3950 3150 4075 3325 
Q 4675 2775 5100 2362 
Q 5525 1950 5900 1550 
Q 5650 1350 5450 1125 
z
" transform="scale(0.015625)"/>
      <path id="SimHei-540c" d="M 5825 4925 
Q 5775 4550 5775 3975 
L 5775 -50 
Q 5775 -400 5525 -487 
Q 5275 -575 4725 -625 
Q 4725 -400 4525 -50 
Q 4925 -50 5100 -12 
Q 5275 25 5275 200 
L 5275 4450 
L 1150 4450 
L 1150 -600 
L 575 -600 
Q 600 -250 625 200 
L 625 3975 
Q 625 4575 600 4925 
L 5825 4925 
z
M 4375 2550 
Q 4325 2275 4325 1700 
Q 4325 1150 4375 725 
L 2025 725 
Q 2050 1175 2050 1750 
Q 2050 2325 2025 2550 
L 4375 2550 
z
M 4100 3750 
Q 4600 3750 4825 3775 
L 4825 3275 
Q 4575 3300 4075 3300 
L 2450 3300 
Q 1850 3300 1600 3275 
L 1600 3775 
Q 1875 3750 2475 3750 
L 4100 3750 
z
M 3875 1150 
L 3875 2150 
L 2525 2150 
L 2525 1150 
L 3875 1150 
z
" transform="scale(0.015625)"/>
      <path id="SimHei-5bf9" d="M 525 4250 
Q 900 4225 1400 4225 
L 2825 4225 
Q 2575 2625 2200 1750 
Q 2825 875 3125 400 
Q 2950 275 2725 75 
Q 2200 975 1950 1300 
Q 1650 775 1350 425 
Q 1050 75 600 -350 
Q 425 -125 200 -25 
Q 625 275 975 675 
Q 1325 1075 1650 1700 
Q 1050 2425 550 2900 
Q 700 3025 900 3225 
Q 1625 2425 1875 2150 
Q 2200 3050 2300 3825 
L 1400 3825 
Q 900 3825 525 3800 
L 525 4250 
z
M 2925 3700 
Q 3525 3675 3750 3675 
L 4825 3675 
L 4825 4425 
Q 4825 4750 4775 5125 
L 5350 5125 
Q 5325 4825 5325 4375 
L 5325 3675 
Q 5575 3675 6150 3700 
L 6150 3250 
Q 5575 3275 5325 3275 
L 5325 125 
Q 5350 -350 5012 -475 
Q 4675 -600 4250 -650 
Q 4175 -350 4025 -100 
Q 4575 -100 4712 -37 
Q 4850 25 4825 325 
L 4825 3275 
L 3775 3275 
Q 3550 3275 2925 3225 
L 2925 3700 
z
M 3450 2725 
Q 3875 1975 4175 1325 
Q 3850 1200 3700 1075 
Q 3475 1750 3050 2475 
Q 3225 2550 3450 2725 
z
" transform="scale(0.015625)"/>
      <path id="SimHei-7a33" d="M 4050 5125 
Q 3875 4975 3675 4625 
L 5325 4625 
Q 5200 4450 5062 4212 
Q 4925 3975 4800 3650 
L 5625 3650 
Q 5600 3350 5600 2600 
Q 5600 1875 5625 1425 
L 3425 1425 
Q 3075 1425 2750 1400 
L 2750 1850 
Q 3075 1825 3450 1825 
L 5100 1825 
L 5100 2375 
L 3550 2375 
Q 3175 2375 2875 2350 
L 2875 2775 
Q 3175 2750 3525 2750 
L 5100 2750 
L 5100 3275 
L 3775 3275 
Q 3350 3275 3050 3250 
L 3050 3650 
Q 2875 3425 2725 3200 
Q 2525 3400 2350 3475 
Q 2675 3875 2987 4412 
Q 3300 4950 3400 5300 
Q 3725 5200 4050 5125 
z
M 2500 4575 
Q 2275 4575 2012 4512 
Q 1750 4450 1625 4450 
L 1625 3350 
Q 1975 3350 2375 3375 
L 2375 2950 
Q 1925 2975 1625 2975 
L 1625 2225 
Q 1775 2325 1950 2500 
Q 2225 2100 2525 1600 
Q 2300 1500 2150 1350 
Q 1950 1725 1625 2175 
L 1625 400 
Q 1625 25 1650 -625 
L 1150 -625 
Q 1200 25 1200 400 
L 1200 2075 
Q 875 1250 475 650 
Q 375 925 175 1125 
Q 325 1250 650 1887 
Q 975 2525 1050 2975 
Q 750 2975 275 2950 
L 275 3375 
Q 750 3350 1200 3350 
L 1200 4325 
Q 950 4275 550 4200 
Q 475 4425 275 4625 
Q 750 4675 1237 4775 
Q 1725 4875 2125 5075 
Q 2275 4775 2500 4575 
z
M 3675 1025 
Q 3650 700 3650 300 
Q 3650 -75 3775 -100 
Q 3900 -125 4250 -125 
Q 4600 -125 4687 -100 
Q 4775 -75 4825 425 
Q 5025 275 5350 200 
Q 5150 -450 4950 -500 
Q 4750 -550 4175 -550 
Q 3625 -550 3425 -487 
Q 3225 -425 3225 -100 
L 3225 525 
Q 3225 775 3200 1025 
L 3675 1025 
z
M 3050 3675 
Q 3325 3650 3775 3650 
L 4275 3650 
Q 4450 4000 4575 4275 
L 3425 4275 
Q 3275 4050 3050 3675 
z
M 2925 900 
Q 2800 725 2700 287 
Q 2600 -150 2550 -300 
Q 2325 -200 2075 -175 
Q 2225 200 2275 412 
Q 2325 625 2425 1000 
L 2925 900 
z
M 5575 1100 
Q 5950 475 6175 50 
Q 5950 -25 5750 -175 
Q 5625 175 5200 925 
Q 5425 975 5575 1100 
z
M 4225 1300 
Q 4525 825 4625 525 
Q 4550 500 4250 350 
Q 4150 700 3850 1125 
Q 4050 1200 4225 1300 
z
" transform="scale(0.015625)"/>
      <path id="SimHei-5b9a" d="M 4200 3125 
Q 4675 3125 5175 3150 
L 5175 2675 
Q 4725 2700 4100 2700 
L 3550 2700 
L 3550 1700 
L 4600 1700 
Q 4875 1700 5375 1725 
L 5375 1250 
Q 4875 1275 4575 1275 
L 3550 1275 
L 3550 100 
Q 4600 -25 6050 125 
Q 5850 -200 5800 -475 
Q 4800 -475 4150 -450 
Q 3500 -425 3050 -300 
Q 2600 -175 2250 75 
Q 1900 325 1600 675 
Q 1200 -50 675 -575 
Q 450 -350 175 -250 
Q 875 300 1200 1050 
Q 1525 1800 1550 2200 
Q 1800 2050 2150 1975 
Q 2075 1875 1987 1662 
Q 1900 1450 1775 1125 
Q 1950 900 2300 612 
Q 2650 325 3050 200 
L 3050 2700 
L 2250 2700 
Q 1825 2700 1400 2675 
L 1400 3150 
Q 1825 3125 2400 3125 
L 4200 3125 
z
M 5750 4275 
Q 5725 3925 5725 3750 
Q 5725 3575 5750 3275 
L 5225 3275 
L 5225 3875 
L 1225 3875 
L 1225 3275 
L 700 3275 
Q 725 3475 725 3725 
Q 725 3975 700 4275 
L 5750 4275 
z
M 2650 5050 
Q 2875 5125 3100 5300 
Q 3375 4975 3600 4550 
Q 3250 4400 3100 4300 
Q 3050 4525 2650 5050 
z
" transform="scale(0.015625)"/>
      <path id="SimHei-6027" d="M 3450 4525 
Q 3325 4075 3275 3750 
L 4050 3750 
L 4050 4275 
Q 4050 4700 4025 5100 
L 4550 5100 
Q 4525 4700 4525 4275 
L 4525 3750 
L 5025 3750 
Q 5350 3750 5800 3775 
L 5800 3300 
Q 5350 3325 5025 3325 
L 4525 3325 
L 4525 2000 
L 4975 2000 
Q 5350 2000 5725 2025 
L 5725 1550 
Q 5350 1575 4975 1575 
L 4525 1575 
L 4525 25 
L 5200 25 
Q 5625 25 6025 50 
L 6025 -400 
Q 5625 -375 5200 -375 
L 3275 -375 
Q 2825 -375 2400 -400 
L 2400 50 
Q 2825 25 3250 25 
L 4050 25 
L 4050 1575 
L 3625 1575 
Q 3300 1575 2875 1550 
L 2875 2025 
Q 3200 2000 3625 2000 
L 4050 2000 
L 4050 3325 
L 3175 3325 
Q 3100 2950 2775 2225 
Q 2500 2375 2325 2400 
Q 2675 3125 2775 3650 
Q 2875 4175 2950 4650 
Q 3200 4575 3450 4525 
z
M 1700 5150 
Q 1675 4650 1675 4175 
L 1675 425 
Q 1675 -100 1700 -625 
L 1175 -625 
Q 1200 -100 1200 425 
L 1200 4175 
Q 1200 4700 1175 5150 
L 1700 5150 
z
M 975 3725 
Q 825 2675 700 2150 
Q 450 2200 250 2250 
Q 425 2900 525 3800 
Q 725 3775 975 3725 
z
M 2125 4025 
Q 2325 3625 2525 3000 
Q 2300 2925 2125 2825 
Q 1950 3375 1750 3850 
Q 1950 3950 2125 4025 
z
" transform="scale(0.015625)"/>
      <path id="SimHei-7684" d="M 2100 4975 
Q 1975 4750 1750 3950 
L 2875 3950 
Q 2850 3525 2850 2875 
L 2850 675 
Q 2850 300 2875 -400 
L 2375 -400 
L 2375 100 
L 1100 100 
L 1100 -450 
L 600 -450 
Q 625 350 625 550 
L 625 2850 
Q 625 3525 600 3950 
L 1325 3950 
Q 1450 4525 1525 5150 
Q 1875 5025 2100 4975 
z
M 5825 3075 
Q 5800 1550 5700 175 
Q 5650 -275 5225 -425 
Q 4800 -575 4275 -625 
Q 4250 -350 4050 -50 
Q 4550 -75 4837 -25 
Q 5125 25 5200 200 
Q 5275 375 5312 1225 
Q 5350 2075 5375 3600 
L 3925 3600 
Q 3725 3125 3350 2475 
Q 3175 2650 2925 2750 
Q 3150 3050 3350 3475 
Q 3550 3900 3700 4400 
Q 3850 4900 3875 5175 
Q 4225 5025 4475 4950 
Q 4350 4750 4262 4512 
Q 4175 4275 4075 4050 
L 5850 4050 
Q 5825 3525 5825 3075 
z
M 2375 525 
L 2375 1850 
L 1100 1850 
L 1100 525 
L 2375 525 
z
M 2375 2275 
L 2375 3525 
L 1100 3525 
L 1100 2275 
L 2375 2275 
z
M 4350 2050 
Q 4500 1750 4700 1275 
Q 4525 1200 4225 1025 
Q 4050 1500 3900 1837 
Q 3750 2175 3600 2400 
Q 3775 2500 4050 2650 
L 4350 2050 
z
" transform="scale(0.015625)"/>
      <path id="SimHei-5f71" d="M 3550 5025 
Q 3500 4625 3512 4187 
Q 3525 3750 3550 3325 
L 775 3325 
Q 800 3750 787 4187 
Q 775 4625 775 5025 
L 3550 5025 
z
M 1450 -100 
Q 2050 -75 1975 200 
L 1975 1100 
L 775 1100 
Q 800 1375 787 1650 
Q 775 1925 775 2225 
L 3550 2225 
Q 3525 1925 3512 1650 
Q 3500 1375 3550 1100 
L 2475 1100 
L 2475 175 
Q 2500 -250 2300 -375 
Q 2100 -500 1625 -600 
Q 1575 -325 1450 -100 
z
M 2375 3250 
Q 2400 3075 2425 2875 
L 3175 2875 
Q 3600 2875 4050 2900 
L 4050 2475 
Q 3600 2500 3175 2500 
L 1200 2500 
Q 700 2500 275 2475 
L 275 2900 
Q 700 2875 1200 2875 
L 1900 2875 
Q 1875 3025 1850 3200 
Q 2100 3250 2375 3250 
z
M 6150 1350 
Q 5675 775 5000 225 
Q 4325 -325 3725 -650 
Q 3575 -400 3400 -250 
Q 3975 25 4600 500 
Q 5225 975 5775 1725 
Q 5950 1525 6150 1350 
z
M 5925 3125 
Q 5625 2850 5212 2362 
Q 4800 1875 4200 1425 
Q 4025 1625 3800 1725 
Q 4375 2050 4787 2525 
Q 5200 3000 5525 3500 
Q 5675 3325 5925 3125 
z
M 5725 4825 
Q 5325 4550 5037 4162 
Q 4750 3775 4175 3275 
Q 3975 3450 3800 3550 
Q 4175 3825 4550 4237 
Q 4925 4650 5225 5175 
Q 5425 5000 5725 4825 
z
M 3075 1475 
L 3075 1850 
L 1250 1850 
L 1250 1475 
L 3075 1475 
z
M 3075 3700 
L 3075 4000 
L 1250 4000 
L 1250 3700 
L 3075 3700 
z
M 3075 4375 
L 3075 4675 
L 1250 4675 
L 1250 4375 
L 3075 4375 
z
M 1500 500 
Q 1075 75 575 -325 
Q 475 -175 275 -25 
Q 700 250 1125 825 
Q 1300 625 1500 500 
z
M 3250 -50 
Q 3050 275 2750 550 
Q 2900 700 3075 850 
Q 3400 525 3600 250 
L 3250 -50 
z
" transform="scale(0.015625)"/>
      <path id="SimHei-54cd" d="M 4150 5125 
Q 4000 4975 3850 4325 
L 5875 4325 
Q 5850 3800 5850 3325 
L 5850 50 
Q 5825 -225 5625 -350 
Q 5425 -475 4850 -550 
Q 4850 -325 4600 25 
Q 5125 25 5237 62 
Q 5350 100 5350 225 
L 5350 3950 
L 2950 3950 
L 2950 -575 
L 2450 -575 
Q 2475 -75 2475 450 
L 2475 3125 
Q 2475 3750 2450 4325 
L 3350 4325 
Q 3475 4775 3525 5250 
Q 3950 5150 4150 5125 
z
M 4875 900 
L 3425 900 
L 3425 3100 
L 4875 3100 
L 4875 900 
z
M 4450 1275 
L 4450 2700 
L 3875 2700 
L 3875 1275 
L 4450 1275 
z
M 2075 4500 
Q 2050 3975 2050 3425 
L 2050 1750 
Q 2050 1250 2075 600 
L 1650 600 
L 1650 1050 
L 950 1050 
L 950 275 
L 500 275 
Q 525 750 525 1275 
L 525 3425 
Q 525 3975 500 4500 
L 2075 4500 
z
M 1650 1400 
L 1650 4125 
L 950 4125 
L 950 1400 
L 1650 1400 
z
" transform="scale(0.015625)"/>
     </defs>
     <use xlink:href="#SimHei-8ba8"/>
     <use xlink:href="#SimHei-8bba" x="100"/>
     <use xlink:href="#SimHei-4e0d" x="200"/>
     <use xlink:href="#SimHei-540c" x="300"/>
     <use xlink:href="#SimHei-5e72" x="400"/>
     <use xlink:href="#SimHei-6270" x="500"/>
     <use xlink:href="#SimHei-5f3a" x="600"/>
     <use xlink:href="#SimHei-5ea6" x="700"/>
     <use xlink:href="#SimHei-5bf9" x="800"/>
     <use xlink:href="#SimHei-4e0d" x="900"/>
     <use xlink:href="#SimHei-7a33" x="1000"/>
     <use xlink:href="#SimHei-5b9a" x="1100"/>
     <use xlink:href="#SimHei-6027" x="1200"/>
     <use xlink:href="#SimHei-7684" x="1300"/>
     <use xlink:href="#SimHei-5f71" x="1400"/>
     <use xlink:href="#SimHei-54cd" x="1500"/>
    </g>
   </g>
   <g id="legend_1">
    <g id="patch_7">
     <path d="M 63.315625 114.096875 
L 160.315625 114.096875 
Q 162.315625 114.096875 162.315625 112.096875 
L 162.315625 33.440625 
Q 162.315625 31.440625 160.315625 31.440625 
L 63.315625 31.440625 
Q 61.315625 31.440625 61.315625 33.440625 
L 61.315625 112.096875 
Q 61.315625 114.096875 63.315625 114.096875 
z
" style="fill: #ffffff; opacity: 0.8; stroke: #cccccc; stroke-linejoin: miter"/>
    </g>
    <g id="line2d_24">
     <path d="M 65.315625 38.940625 
L 75.315625 38.940625 
L 85.315625 38.940625 
" style="fill: none; stroke: #1f77b4; stroke-width: 2; stroke-linecap: square"/>
    </g>
    <g id="text_21">
     <!-- EU -->
     <g transform="translate(93.315625 42.440625)scale(0.1 -0.1)">
      <defs>
       <path id="SimHei-45" d="M 2900 125 
L 350 125 
L 350 4400 
L 2775 4400 
L 2775 3925 
L 925 3925 
L 925 2600 
L 2625 2600 
L 2625 2125 
L 925 2125 
L 925 600 
L 2900 600 
L 2900 125 
z
" transform="scale(0.015625)"/>
       <path id="SimHei-55" d="M 2875 1375 
Q 2875 775 2562 425 
Q 2250 75 1575 75 
Q 900 75 587 425 
Q 275 775 275 1375 
L 275 4400 
L 850 4400 
L 850 1375 
Q 850 950 1050 750 
Q 1250 550 1575 550 
Q 1900 550 2100 750 
Q 2300 950 2300 1375 
L 2300 4400 
L 2875 4400 
L 2875 1375 
z
" transform="scale(0.015625)"/>
      </defs>
      <use xlink:href="#SimHei-45"/>
      <use xlink:href="#SimHei-55" x="50"/>
     </g>
    </g>
    <g id="line2d_25">
     <path d="M 65.315625 52.190625 
L 75.315625 52.190625 
L 85.315625 52.190625 
" style="fill: none; stroke: #ff7f0e; stroke-width: 3; stroke-linecap: square"/>
    </g>
    <g id="text_22">
     <!-- VGaDis -->
     <g transform="translate(93.315625 55.690625)scale(0.1 -0.1)">
      <defs>
       <path id="SimHei-56" d="M 3050 4400 
L 1800 75 
L 1300 75 
L 50 4400 
L 650 4400 
L 1525 1125 
L 1575 1125 
L 2450 4400 
L 3050 4400 
z
" transform="scale(0.015625)"/>
       <path id="SimHei-47" d="M 2850 75 
L 2425 75 
L 2350 425 
Q 2250 275 2037 175 
Q 1825 75 1575 75 
Q 1050 75 637 562 
Q 225 1050 225 2125 
Q 225 3300 600 3875 
Q 975 4450 1625 4450 
Q 2200 4450 2525 4025 
Q 2850 3600 2850 2925 
L 2300 2925 
Q 2300 3450 2125 3712 
Q 1950 3975 1625 3975 
Q 1225 3975 1025 3562 
Q 825 3150 825 2175 
Q 825 1250 1075 900 
Q 1325 550 1650 550 
Q 1975 550 2162 787 
Q 2350 1025 2350 1525 
L 2350 1800 
L 1575 1800 
L 1575 2275 
L 2850 2275 
L 2850 75 
z
" transform="scale(0.015625)"/>
       <path id="SimHei-44" d="M 2925 2250 
Q 2925 1100 2437 612 
Q 1950 125 1125 125 
L 275 125 
L 275 4400 
L 1125 4400 
Q 2050 4400 2487 3900 
Q 2925 3400 2925 2250 
z
M 2325 2250 
Q 2325 3175 2025 3550 
Q 1725 3925 1125 3925 
L 850 3925 
L 850 600 
L 1125 600 
Q 1725 600 2025 962 
Q 2325 1325 2325 2250 
z
" transform="scale(0.015625)"/>
      </defs>
      <use xlink:href="#SimHei-56"/>
      <use xlink:href="#SimHei-47" x="50"/>
      <use xlink:href="#SimHei-61" x="100"/>
      <use xlink:href="#SimHei-44" x="150"/>
      <use xlink:href="#SimHei-69" x="200"/>
      <use xlink:href="#SimHei-73" x="250"/>
     </g>
    </g>
    <g id="line2d_26">
     <path d="M 65.315625 65.440625 
L 75.315625 65.440625 
L 85.315625 65.440625 
" style="fill: none; stroke: #2ca02c; stroke-width: 2; stroke-linecap: square"/>
    </g>
    <g id="text_23">
     <!-- Manhattan -->
     <g transform="translate(93.315625 68.940625)scale(0.1 -0.1)">
      <defs>
       <path id="SimHei-4d" d="M 2925 125 
L 2425 125 
L 2425 3175 
L 2375 3175 
L 1775 125 
L 1375 125 
L 775 3175 
L 725 3175 
L 725 125 
L 225 125 
L 225 4400 
L 1000 4400 
L 1550 1575 
L 1600 1575 
L 2150 4400 
L 2925 4400 
L 2925 125 
z
" transform="scale(0.015625)"/>
       <path id="SimHei-6e" d="M 2800 125 
L 2300 125 
L 2300 1925 
Q 2300 2225 2150 2400 
Q 2000 2575 1750 2575 
Q 1425 2575 1137 2237 
Q 850 1900 850 1400 
L 850 125 
L 350 125 
L 350 2925 
L 850 2925 
L 850 2400 
Q 1050 2675 1287 2825 
Q 1525 2975 1900 2975 
Q 2350 2975 2575 2725 
Q 2800 2475 2800 2100 
L 2800 125 
z
" transform="scale(0.015625)"/>
       <path id="SimHei-68" d="M 2800 125 
L 2300 125 
L 2300 1925 
Q 2300 2225 2150 2400 
Q 2000 2575 1750 2575 
Q 1425 2575 1137 2237 
Q 850 1900 850 1400 
L 850 125 
L 350 125 
L 350 4400 
L 850 4400 
L 850 2400 
Q 1050 2675 1287 2825 
Q 1525 2975 1900 2975 
Q 2350 2975 2575 2725 
Q 2800 2475 2800 2100 
L 2800 125 
z
" transform="scale(0.015625)"/>
       <path id="SimHei-74" d="M 2750 200 
Q 2625 150 2462 112 
Q 2300 75 2025 75 
Q 1575 75 1300 325 
Q 1025 575 1025 1025 
L 1025 2525 
L 175 2525 
L 175 2925 
L 1025 2925 
L 1025 3900 
L 1525 3900 
L 1525 2925 
L 2550 2925 
L 2550 2525 
L 1525 2525 
L 1525 1000 
Q 1525 800 1625 662 
Q 1725 525 2000 525 
Q 2275 525 2450 575 
Q 2625 625 2750 700 
L 2750 200 
z
" transform="scale(0.015625)"/>
      </defs>
      <use xlink:href="#SimHei-4d"/>
      <use xlink:href="#SimHei-61" x="50"/>
      <use xlink:href="#SimHei-6e" x="100"/>
      <use xlink:href="#SimHei-68" x="150"/>
      <use xlink:href="#SimHei-61" x="200"/>
      <use xlink:href="#SimHei-74" x="250"/>
      <use xlink:href="#SimHei-74" x="300"/>
      <use xlink:href="#SimHei-61" x="350"/>
      <use xlink:href="#SimHei-6e" x="400"/>
     </g>
    </g>
    <g id="line2d_27">
     <path d="M 65.315625 78.690625 
L 75.315625 78.690625 
L 85.315625 78.690625 
" style="fill: none; stroke: #d62728; stroke-width: 2; stroke-linecap: square"/>
    </g>
    <g id="text_24">
     <!-- VGdDis -->
     <g transform="translate(93.315625 82.190625)scale(0.1 -0.1)">
      <use xlink:href="#SimHei-56"/>
      <use xlink:href="#SimHei-47" x="50"/>
      <use xlink:href="#SimHei-64" x="100"/>
      <use xlink:href="#SimHei-44" x="150"/>
      <use xlink:href="#SimHei-69" x="200"/>
      <use xlink:href="#SimHei-73" x="250"/>
     </g>
    </g>
    <g id="line2d_28">
     <path d="M 65.315625 91.940625 
L 75.315625 91.940625 
L 85.315625 91.940625 
" style="fill: none; stroke: #9467bd; stroke-width: 2; stroke-linecap: square"/>
    </g>
    <g id="text_25">
     <!-- dtw_Manhattan -->
     <g transform="translate(93.315625 95.440625)scale(0.1 -0.1)">
      <defs>
       <path id="SimHei-77" d="M 3075 2925 
L 2450 75 
L 1975 75 
L 1575 2250 
L 1525 2250 
L 1125 75 
L 650 75 
L 25 2925 
L 550 2925 
L 875 1050 
L 925 1050 
L 1275 2925 
L 1825 2925 
L 2175 1050 
L 2225 1050 
L 2550 2925 
L 3075 2925 
z
" transform="scale(0.015625)"/>
       <path id="SimHei-5f" d="M 3150 -850 
L 0 -850 
L 0 -550 
L 3150 -550 
L 3150 -850 
z
" transform="scale(0.015625)"/>
      </defs>
      <use xlink:href="#SimHei-64"/>
      <use xlink:href="#SimHei-74" x="50"/>
      <use xlink:href="#SimHei-77" x="100"/>
      <use xlink:href="#SimHei-5f" x="150"/>
      <use xlink:href="#SimHei-4d" x="200"/>
      <use xlink:href="#SimHei-61" x="250"/>
      <use xlink:href="#SimHei-6e" x="300"/>
      <use xlink:href="#SimHei-68" x="350"/>
      <use xlink:href="#SimHei-61" x="400"/>
      <use xlink:href="#SimHei-74" x="450"/>
      <use xlink:href="#SimHei-74" x="500"/>
      <use xlink:href="#SimHei-61" x="550"/>
      <use xlink:href="#SimHei-6e" x="600"/>
     </g>
    </g>
    <g id="line2d_29">
     <path d="M 65.315625 105.26875 
L 75.315625 105.26875 
L 85.315625 105.26875 
" style="fill: none; stroke: #8c564b; stroke-width: 2; stroke-linecap: square"/>
    </g>
    <g id="text_26">
     <!-- dtw_EU -->
     <g transform="translate(93.315625 108.76875)scale(0.1 -0.1)">
      <use xlink:href="#SimHei-64"/>
      <use xlink:href="#SimHei-74" x="50"/>
      <use xlink:href="#SimHei-77" x="100"/>
      <use xlink:href="#SimHei-5f" x="150"/>
      <use xlink:href="#SimHei-45" x="200"/>
      <use xlink:href="#SimHei-55" x="250"/>
     </g>
    </g>
   </g>
  </g>
 </g>
 <defs>
  <clipPath id="p07ba89b211">
   <rect x="56.315625" y="26.440625" width="364.884375" height="222.290625"/>
  </clipPath>
 </defs>
</svg>
