<?xml version="1.0" encoding="utf-8" standalone="no"?>
<!DOCTYPE svg PUBLIC "-//W3C//DTD SVG 1.1//EN"
  "http://www.w3.org/Graphics/SVG/1.1/DTD/svg11.dtd">
<svg xmlns:xlink="http://www.w3.org/1999/xlink" width="432pt" height="288pt" viewBox="0 0 432 288" xmlns="http://www.w3.org/2000/svg" version="1.1">
 <metadata>
  <rdf:RDF xmlns:dc="http://purl.org/dc/elements/1.1/" xmlns:cc="http://creativecommons.org/ns#" xmlns:rdf="http://www.w3.org/1999/02/22-rdf-syntax-ns#">
   <cc:Work>
    <dc:type rdf:resource="http://purl.org/dc/dcmitype/StillImage"/>
    <dc:date>2023-05-28T21:54:56.535288</dc:date>
    <dc:format>image/svg+xml</dc:format>
    <dc:creator>
     <cc:Agent>
      <dc:title>Matplotlib v3.5.2, https://matplotlib.org/</dc:title>
     </cc:Agent>
    </dc:creator>
   </cc:Work>
  </rdf:RDF>
 </metadata>
 <defs>
  <style type="text/css">*{stroke-linejoin: round; stroke-linecap: butt}</style>
 </defs>
 <g id="figure_1">
  <g id="patch_1">
   <path d="M 0 288 
L 432 288 
L 432 0 
L 0 0 
L 0 288 
z
" style="fill: none"/>
  </g>
  <g id="axes_1">
   <g id="patch_2">
    <path d="M 51.315625 248.903125 
L 413.7 248.903125 
L 413.7 26.440625 
L 51.315625 26.440625 
z
" style="fill: #ffffff"/>
   </g>
   <g id="matplotlib.axis_1">
    <g id="xtick_1">
     <g id="line2d_1">
      <defs>
       <path id="m2bae132ec5" d="M 0 0 
L 0 3.5 
" style="stroke: #000000; stroke-width: 0.8"/>
      </defs>
      <g>
       <use xlink:href="#m2bae132ec5" x="90.142522" y="248.903125" style="stroke: #000000; stroke-width: 0.8"/>
      </g>
     </g>
     <g id="text_1">
      <!-- 25 -->
      <g transform="translate(85.142522 262.778125)scale(0.1 -0.1)">
       <defs>
        <path id="SimHei-32" d="M 300 250 
Q 325 625 650 925 
Q 975 1225 1475 1862 
Q 1975 2500 2125 2850 
Q 2275 3200 2237 3450 
Q 2200 3700 2000 3862 
Q 1800 4025 1537 4000 
Q 1275 3975 1037 3800 
Q 800 3625 675 3275 
L 200 3350 
Q 400 3925 712 4187 
Q 1025 4450 1450 4475 
Q 1700 4500 1900 4462 
Q 2100 4425 2312 4287 
Q 2525 4150 2662 3875 
Q 2800 3600 2762 3212 
Q 2725 2825 2375 2287 
Q 2025 1750 1025 600 
L 2825 600 
L 2825 150 
L 300 150 
L 300 250 
z
" transform="scale(0.015625)"/>
        <path id="SimHei-35" d="M 550 1325 
Q 725 650 1150 575 
Q 1575 500 1837 662 
Q 2100 825 2212 1087 
Q 2325 1350 2312 1675 
Q 2300 2000 2137 2225 
Q 1975 2450 1725 2525 
Q 1475 2600 1162 2525 
Q 850 2450 650 2175 
L 225 2225 
Q 275 2375 700 4375 
L 2675 4375 
L 2675 3925 
L 1075 3925 
Q 950 3250 825 2850 
Q 1200 3025 1525 3012 
Q 1850 3000 2150 2862 
Q 2450 2725 2587 2487 
Q 2725 2250 2787 2012 
Q 2850 1775 2837 1500 
Q 2825 1225 2725 937 
Q 2625 650 2425 462 
Q 2225 275 1937 162 
Q 1650 50 1275 75 
Q 900 100 562 350 
Q 225 600 100 1200 
L 550 1325 
z
" transform="scale(0.015625)"/>
       </defs>
       <use xlink:href="#SimHei-32"/>
       <use xlink:href="#SimHei-35" x="50"/>
      </g>
     </g>
    </g>
    <g id="xtick_2">
     <g id="line2d_2">
      <g>
       <use xlink:href="#m2bae132ec5" x="136.365019" y="248.903125" style="stroke: #000000; stroke-width: 0.8"/>
      </g>
     </g>
     <g id="text_2">
      <!-- 50 -->
      <g transform="translate(131.365019 262.778125)scale(0.1 -0.1)">
       <defs>
        <path id="SimHei-30" d="M 225 2537 
Q 250 3200 412 3587 
Q 575 3975 875 4225 
Q 1175 4475 1612 4475 
Q 2050 4475 2375 4112 
Q 2700 3750 2800 3200 
Q 2900 2650 2862 1937 
Q 2825 1225 2612 775 
Q 2400 325 1975 150 
Q 1550 -25 1125 187 
Q 700 400 525 750 
Q 350 1100 275 1487 
Q 200 1875 225 2537 
z
M 750 2687 
Q 675 2000 800 1462 
Q 925 925 1212 700 
Q 1500 475 1800 612 
Q 2100 750 2237 1162 
Q 2375 1575 2375 2062 
Q 2375 2550 2337 2950 
Q 2300 3350 2112 3675 
Q 1925 4000 1612 4012 
Q 1300 4025 1062 3700 
Q 825 3375 750 2687 
z
" transform="scale(0.015625)"/>
       </defs>
       <use xlink:href="#SimHei-35"/>
       <use xlink:href="#SimHei-30" x="50"/>
      </g>
     </g>
    </g>
    <g id="xtick_3">
     <g id="line2d_3">
      <g>
       <use xlink:href="#m2bae132ec5" x="182.587516" y="248.903125" style="stroke: #000000; stroke-width: 0.8"/>
      </g>
     </g>
     <g id="text_3">
      <!-- 75 -->
      <g transform="translate(177.587516 262.778125)scale(0.1 -0.1)">
       <defs>
        <path id="SimHei-37" d="M 850 150 
Q 1300 2050 2425 3925 
L 275 3925 
L 275 4375 
L 2950 4375 
L 2950 3950 
Q 1775 2050 1400 150 
L 850 150 
z
" transform="scale(0.015625)"/>
       </defs>
       <use xlink:href="#SimHei-37"/>
       <use xlink:href="#SimHei-35" x="50"/>
      </g>
     </g>
    </g>
    <g id="xtick_4">
     <g id="line2d_4">
      <g>
       <use xlink:href="#m2bae132ec5" x="228.810013" y="248.903125" style="stroke: #000000; stroke-width: 0.8"/>
      </g>
     </g>
     <g id="text_4">
      <!-- 100 -->
      <g transform="translate(221.310013 262.778125)scale(0.1 -0.1)">
       <defs>
        <path id="SimHei-31" d="M 1400 3600 
Q 1075 3275 575 2975 
L 575 3450 
Q 1200 3875 1600 4450 
L 1900 4450 
L 1900 150 
L 1400 150 
L 1400 3600 
z
" transform="scale(0.015625)"/>
       </defs>
       <use xlink:href="#SimHei-31"/>
       <use xlink:href="#SimHei-30" x="50"/>
       <use xlink:href="#SimHei-30" x="100"/>
      </g>
     </g>
    </g>
    <g id="xtick_5">
     <g id="line2d_5">
      <g>
       <use xlink:href="#m2bae132ec5" x="275.03251" y="248.903125" style="stroke: #000000; stroke-width: 0.8"/>
      </g>
     </g>
     <g id="text_5">
      <!-- 125 -->
      <g transform="translate(267.53251 262.778125)scale(0.1 -0.1)">
       <use xlink:href="#SimHei-31"/>
       <use xlink:href="#SimHei-32" x="50"/>
       <use xlink:href="#SimHei-35" x="100"/>
      </g>
     </g>
    </g>
    <g id="xtick_6">
     <g id="line2d_6">
      <g>
       <use xlink:href="#m2bae132ec5" x="321.255006" y="248.903125" style="stroke: #000000; stroke-width: 0.8"/>
      </g>
     </g>
     <g id="text_6">
      <!-- 150 -->
      <g transform="translate(313.755006 262.778125)scale(0.1 -0.1)">
       <use xlink:href="#SimHei-31"/>
       <use xlink:href="#SimHei-35" x="50"/>
       <use xlink:href="#SimHei-30" x="100"/>
      </g>
     </g>
    </g>
    <g id="xtick_7">
     <g id="line2d_7">
      <g>
       <use xlink:href="#m2bae132ec5" x="367.477503" y="248.903125" style="stroke: #000000; stroke-width: 0.8"/>
      </g>
     </g>
     <g id="text_7">
      <!-- 175 -->
      <g transform="translate(359.977503 262.778125)scale(0.1 -0.1)">
       <use xlink:href="#SimHei-31"/>
       <use xlink:href="#SimHei-37" x="50"/>
       <use xlink:href="#SimHei-35" x="100"/>
      </g>
     </g>
    </g>
    <g id="xtick_8">
     <g id="line2d_8">
      <g>
       <use xlink:href="#m2bae132ec5" x="413.7" y="248.903125" style="stroke: #000000; stroke-width: 0.8"/>
      </g>
     </g>
     <g id="text_8">
      <!-- 200 -->
      <g transform="translate(406.2 262.778125)scale(0.1 -0.1)">
       <use xlink:href="#SimHei-32"/>
       <use xlink:href="#SimHei-30" x="50"/>
       <use xlink:href="#SimHei-30" x="100"/>
      </g>
     </g>
    </g>
    <g id="text_9">
     <!-- 序列长度 -->
     <g transform="translate(212.507813 276.075)scale(0.1 -0.1)">
      <defs>
       <path id="SimHei-5e8f" d="M 4000 2075 
L 5975 2075 
Q 5750 1525 5575 1025 
Q 5325 1100 5050 1150 
Q 5175 1450 5275 1700 
L 4050 1700 
L 4050 150 
Q 4050 -375 3762 -462 
Q 3475 -550 2950 -575 
Q 2875 -300 2750 0 
Q 3350 -75 3475 25 
Q 3600 125 3575 375 
L 3575 1700 
L 2450 1700 
Q 2050 1700 1675 1675 
L 1675 2100 
Q 2100 2075 2425 2075 
L 3675 2075 
Q 3325 2400 2875 2775 
Q 2975 2875 3250 3100 
Q 3400 2975 3725 2725 
L 4575 3275 
L 3000 3275 
Q 2400 3275 1950 3250 
L 1950 3700 
Q 2400 3675 3000 3675 
L 5400 3675 
L 5400 3250 
Q 4700 2875 4025 2450 
L 4275 2250 
L 4000 2075 
z
M 3725 5275 
Q 3825 4925 3925 4525 
L 4850 4525 
Q 5425 4525 6000 4550 
L 6000 4125 
Q 5425 4150 4850 4150 
L 1400 4150 
Q 1400 2750 1362 2137 
Q 1325 1525 1200 887 
Q 1075 250 775 -350 
Q 625 -250 250 -125 
Q 475 300 600 700 
Q 725 1100 800 1637 
Q 875 2175 875 2825 
Q 875 3500 850 4525 
L 3350 4525 
Q 3275 4825 3150 5150 
Q 3425 5200 3725 5275 
z
" transform="scale(0.015625)"/>
       <path id="SimHei-5217" d="M 2950 4800 
Q 3525 4800 3825 4825 
L 3825 4400 
Q 3525 4425 2800 4425 
L 2125 4425 
Q 2075 4125 1925 3500 
L 3425 3500 
Q 3300 2500 3100 1862 
Q 2900 1225 2575 762 
Q 2250 300 1850 -12 
Q 1450 -325 925 -675 
Q 725 -375 475 -150 
Q 1125 125 1550 437 
Q 1975 750 2250 1225 
Q 2100 1350 1862 1550 
Q 1625 1750 1400 1925 
L 1750 2325 
Q 1925 2200 2100 2037 
Q 2275 1875 2500 1650 
Q 2650 2025 2737 2337 
Q 2825 2650 2875 3100 
L 1775 3100 
Q 1600 2650 1350 2237 
Q 1100 1825 775 1525 
Q 600 1675 325 1850 
Q 600 2125 825 2462 
Q 1050 2800 1200 3125 
Q 1350 3450 1425 3775 
Q 1500 4100 1550 4425 
L 1100 4425 
Q 575 4425 375 4400 
L 375 4825 
Q 575 4800 1125 4800 
L 2950 4800 
z
M 5975 5050 
Q 5925 4675 5925 4250 
L 5925 50 
Q 5925 -275 5737 -400 
Q 5550 -525 4900 -625 
Q 4825 -250 4650 25 
Q 5150 0 5287 25 
Q 5425 50 5425 325 
L 5425 4250 
Q 5425 4650 5400 5050 
L 5975 5050 
z
M 4725 4300 
Q 4675 4000 4675 3450 
L 4675 1650 
Q 4675 1200 4700 850 
L 4100 850 
Q 4150 1200 4150 1650 
L 4150 3550 
Q 4150 3975 4100 4300 
L 4725 4300 
z
" transform="scale(0.015625)"/>
       <path id="SimHei-957f" d="M 1750 2800 
L 1750 4450 
Q 1750 4675 1725 5100 
L 2275 5100 
Q 2250 4625 2250 4475 
L 2250 2800 
L 5275 2800 
Q 5600 2800 5975 2825 
L 5975 2325 
Q 5500 2350 5100 2350 
L 3650 2350 
Q 3825 1850 4187 1375 
Q 4550 900 5050 587 
Q 5550 275 5950 150 
Q 5625 -50 5450 -350 
Q 4925 -75 4475 300 
Q 4025 675 3675 1212 
Q 3325 1750 3150 2350 
L 2250 2350 
L 2250 375 
Q 2975 825 3225 1050 
Q 3400 775 3575 550 
Q 3100 325 2625 -12 
Q 2150 -350 1925 -575 
Q 1725 -300 1550 -100 
Q 1750 100 1750 425 
L 1750 2350 
L 1175 2350 
Q 825 2350 375 2325 
L 375 2825 
Q 825 2800 1125 2800 
L 1750 2800 
z
M 4900 4700 
Q 4625 4475 4087 3937 
Q 3550 3400 3025 2900 
Q 2800 3200 2650 3300 
Q 3075 3600 3600 4150 
Q 4125 4700 4400 5100 
Q 4600 4925 4900 4700 
z
" transform="scale(0.015625)"/>
       <path id="SimHei-5ea6" d="M 1750 1675 
Q 2450 1650 2875 1650 
L 5200 1650 
Q 4975 1250 4650 850 
Q 4325 450 4025 200 
Q 4350 50 4950 -50 
Q 5550 -150 6100 -150 
Q 5950 -300 5825 -650 
Q 5100 -550 4550 -412 
Q 4000 -275 3625 -100 
Q 3100 -325 2587 -462 
Q 2075 -600 1525 -675 
Q 1450 -475 1225 -250 
Q 1675 -250 2250 -125 
Q 2825 0 3250 200 
Q 2825 550 2400 1275 
L 1750 1250 
L 1750 1675 
z
M 2975 5075 
Q 3250 5150 3475 5250 
Q 3625 4975 3775 4525 
L 4700 4525 
Q 4975 4525 5700 4550 
L 5700 4100 
Q 5000 4125 4650 4125 
L 1375 4125 
Q 1375 3000 1350 2312 
Q 1325 1625 1212 950 
Q 1100 275 725 -525 
Q 500 -375 250 -300 
Q 650 400 762 1075 
Q 875 1750 887 2800 
Q 900 3850 875 4525 
L 3200 4525 
Q 3100 4850 2975 5075 
z
M 2475 3300 
Q 2475 3700 2450 3925 
L 2975 3925 
Q 2950 3725 2950 3300 
L 4300 3300 
Q 4300 3700 4275 3950 
L 4800 3950 
Q 4775 3650 4775 3300 
Q 5325 3300 5725 3325 
L 5725 2900 
Q 5350 2925 4775 2925 
Q 4775 2250 4800 1950 
L 2450 1950 
Q 2475 2350 2475 2925 
Q 2175 2925 1600 2900 
L 1600 3325 
Q 2175 3300 2475 3300 
z
M 4300 2350 
L 4300 2925 
L 2950 2925 
L 2950 2350 
L 4300 2350 
z
M 2875 1275 
Q 3200 775 3650 425 
Q 4025 700 4425 1275 
L 2900 1275 
L 2875 1275 
z
" transform="scale(0.015625)"/>
      </defs>
      <use xlink:href="#SimHei-5e8f"/>
      <use xlink:href="#SimHei-5217" x="100"/>
      <use xlink:href="#SimHei-957f" x="200"/>
      <use xlink:href="#SimHei-5ea6" x="300"/>
     </g>
    </g>
   </g>
   <g id="matplotlib.axis_2">
    <g id="ytick_1">
     <g id="line2d_9">
      <defs>
       <path id="m447dce5a50" d="M 0 0 
L -3.5 0 
" style="stroke: #000000; stroke-width: 0.8"/>
      </defs>
      <g>
       <use xlink:href="#m447dce5a50" x="51.315625" y="238.791193" style="stroke: #000000; stroke-width: 0.8"/>
      </g>
     </g>
     <g id="text_10">
      <!-- 0.00 -->
      <g transform="translate(24.315625 242.228693)scale(0.1 -0.1)">
       <defs>
        <path id="SimHei-2e" d="M 1075 125 
L 500 125 
L 500 675 
L 1075 675 
L 1075 125 
z
" transform="scale(0.015625)"/>
       </defs>
       <use xlink:href="#SimHei-30"/>
       <use xlink:href="#SimHei-2e" x="50"/>
       <use xlink:href="#SimHei-30" x="100"/>
       <use xlink:href="#SimHei-30" x="150"/>
      </g>
     </g>
    </g>
    <g id="ytick_2">
     <g id="line2d_10">
      <g>
       <use xlink:href="#m447dce5a50" x="51.315625" y="203.041939" style="stroke: #000000; stroke-width: 0.8"/>
      </g>
     </g>
     <g id="text_11">
      <!-- 0.01 -->
      <g transform="translate(24.315625 206.479439)scale(0.1 -0.1)">
       <use xlink:href="#SimHei-30"/>
       <use xlink:href="#SimHei-2e" x="50"/>
       <use xlink:href="#SimHei-30" x="100"/>
       <use xlink:href="#SimHei-31" x="150"/>
      </g>
     </g>
    </g>
    <g id="ytick_3">
     <g id="line2d_11">
      <g>
       <use xlink:href="#m447dce5a50" x="51.315625" y="167.292685" style="stroke: #000000; stroke-width: 0.8"/>
      </g>
     </g>
     <g id="text_12">
      <!-- 0.02 -->
      <g transform="translate(24.315625 170.730185)scale(0.1 -0.1)">
       <use xlink:href="#SimHei-30"/>
       <use xlink:href="#SimHei-2e" x="50"/>
       <use xlink:href="#SimHei-30" x="100"/>
       <use xlink:href="#SimHei-32" x="150"/>
      </g>
     </g>
    </g>
    <g id="ytick_4">
     <g id="line2d_12">
      <g>
       <use xlink:href="#m447dce5a50" x="51.315625" y="131.543431" style="stroke: #000000; stroke-width: 0.8"/>
      </g>
     </g>
     <g id="text_13">
      <!-- 0.03 -->
      <g transform="translate(24.315625 134.980931)scale(0.1 -0.1)">
       <defs>
        <path id="SimHei-33" d="M 250 1225 
L 700 1300 
Q 800 975 1025 762 
Q 1250 550 1587 562 
Q 1925 575 2125 837 
Q 2325 1100 2300 1437 
Q 2275 1775 2037 1962 
Q 1800 2150 1275 2225 
L 1275 2550 
Q 1800 2600 2037 2825 
Q 2275 3050 2250 3412 
Q 2225 3775 1925 3937 
Q 1625 4100 1287 3975 
Q 950 3850 750 3275 
L 300 3350 
Q 450 3800 712 4100 
Q 975 4400 1425 4450 
Q 1875 4500 2212 4337 
Q 2550 4175 2687 3837 
Q 2825 3500 2725 3100 
Q 2625 2700 2150 2400 
Q 2500 2250 2687 1950 
Q 2875 1650 2812 1162 
Q 2750 675 2375 375 
Q 2000 75 1525 87 
Q 1050 100 700 387 
Q 350 675 250 1225 
z
" transform="scale(0.015625)"/>
       </defs>
       <use xlink:href="#SimHei-30"/>
       <use xlink:href="#SimHei-2e" x="50"/>
       <use xlink:href="#SimHei-30" x="100"/>
       <use xlink:href="#SimHei-33" x="150"/>
      </g>
     </g>
    </g>
    <g id="ytick_5">
     <g id="line2d_13">
      <g>
       <use xlink:href="#m447dce5a50" x="51.315625" y="95.794178" style="stroke: #000000; stroke-width: 0.8"/>
      </g>
     </g>
     <g id="text_14">
      <!-- 0.04 -->
      <g transform="translate(24.315625 99.231678)scale(0.1 -0.1)">
       <defs>
        <path id="SimHei-34" d="M 2000 1100 
L 75 1100 
L 75 1525 
L 2100 4450 
L 2475 4450 
L 2475 1525 
L 3075 1525 
L 3075 1100 
L 2475 1100 
L 2475 150 
L 2000 150 
L 2000 1100 
z
M 2000 1525 
L 2000 3500 
L 600 1525 
L 2000 1525 
z
" transform="scale(0.015625)"/>
       </defs>
       <use xlink:href="#SimHei-30"/>
       <use xlink:href="#SimHei-2e" x="50"/>
       <use xlink:href="#SimHei-30" x="100"/>
       <use xlink:href="#SimHei-34" x="150"/>
      </g>
     </g>
    </g>
    <g id="ytick_6">
     <g id="line2d_14">
      <g>
       <use xlink:href="#m447dce5a50" x="51.315625" y="60.044924" style="stroke: #000000; stroke-width: 0.8"/>
      </g>
     </g>
     <g id="text_15">
      <!-- 0.05 -->
      <g transform="translate(24.315625 63.482424)scale(0.1 -0.1)">
       <use xlink:href="#SimHei-30"/>
       <use xlink:href="#SimHei-2e" x="50"/>
       <use xlink:href="#SimHei-30" x="100"/>
       <use xlink:href="#SimHei-35" x="150"/>
      </g>
     </g>
    </g>
    <g id="text_16">
     <!-- avg of abs(dis2-dis1)/(dis1+1) -->
     <g transform="translate(19.065625 212.671875)rotate(-90)scale(0.1 -0.1)">
      <defs>
       <path id="SimHei-61" d="M 2875 125 
L 2275 125 
Q 2225 175 2200 262 
Q 2175 350 2175 475 
Q 2000 275 1750 175 
Q 1500 75 1225 75 
Q 825 75 550 275 
Q 275 475 275 850 
Q 275 1225 525 1450 
Q 775 1675 1300 1750 
Q 1650 1800 1912 1875 
Q 2175 1950 2175 2075 
Q 2175 2225 2062 2375 
Q 1950 2525 1575 2525 
Q 1275 2525 1137 2412 
Q 1000 2300 950 2100 
L 400 2100 
Q 450 2500 762 2737 
Q 1075 2975 1575 2975 
Q 2125 2975 2400 2725 
Q 2675 2475 2675 2025 
L 2675 650 
Q 2675 500 2725 375 
Q 2775 250 2875 125 
z
M 2175 1050 
L 2175 1550 
Q 2025 1500 1887 1462 
Q 1750 1425 1425 1375 
Q 1050 1325 937 1200 
Q 825 1075 825 900 
Q 825 750 937 637 
Q 1050 525 1275 525 
Q 1500 525 1762 650 
Q 2025 775 2175 1050 
z
" transform="scale(0.015625)"/>
       <path id="SimHei-76" d="M 2875 2925 
L 1825 75 
L 1275 75 
L 225 2925 
L 750 2925 
L 1525 750 
L 1575 750 
L 2350 2925 
L 2875 2925 
z
" transform="scale(0.015625)"/>
       <path id="SimHei-67" d="M 2975 2500 
Q 2800 2550 2637 2562 
Q 2475 2575 2300 2525 
Q 2375 2450 2425 2337 
Q 2475 2225 2475 2000 
Q 2475 1575 2187 1300 
Q 1900 1025 1475 1025 
Q 1375 1025 1212 1062 
Q 1050 1100 950 1150 
Q 875 1100 850 1050 
Q 825 1000 825 925 
Q 825 800 1000 737 
Q 1175 675 1625 675 
Q 2350 675 2612 475 
Q 2875 275 2875 -25 
Q 2875 -425 2487 -612 
Q 2100 -800 1575 -800 
Q 900 -800 575 -625 
Q 250 -450 250 -150 
Q 250 0 375 150 
Q 500 300 700 400 
Q 550 475 462 587 
Q 375 700 375 875 
Q 375 1025 487 1137 
Q 600 1250 750 1325 
Q 625 1450 550 1625 
Q 475 1800 475 2000 
Q 475 2425 762 2700 
Q 1050 2975 1475 2975 
Q 1700 2975 1862 2912 
Q 2025 2850 2150 2725 
Q 2350 2875 2550 2937 
Q 2750 3000 2975 2975 
L 2975 2500 
z
M 1975 2000 
Q 1975 2250 1850 2400 
Q 1725 2550 1475 2550 
Q 1225 2550 1100 2400 
Q 975 2250 975 2000 
Q 975 1750 1100 1600 
Q 1225 1450 1475 1450 
Q 1725 1450 1850 1600 
Q 1975 1750 1975 2000 
z
M 2400 -75 
Q 2400 25 2287 125 
Q 2175 225 1725 225 
Q 1625 225 1450 237 
Q 1275 250 1050 275 
Q 850 200 775 100 
Q 700 0 700 -100 
Q 700 -250 900 -350 
Q 1100 -450 1600 -450 
Q 2025 -450 2212 -337 
Q 2400 -225 2400 -75 
z
" transform="scale(0.015625)"/>
       <path id="SimHei-20" transform="scale(0.015625)"/>
       <path id="SimHei-6f" d="M 2925 1525 
Q 2925 875 2525 475 
Q 2125 75 1575 75 
Q 1025 75 625 475 
Q 225 875 225 1525 
Q 225 2175 625 2575 
Q 1025 2975 1575 2975 
Q 2125 2975 2525 2575 
Q 2925 2175 2925 1525 
z
M 2375 1525 
Q 2375 2025 2125 2275 
Q 1875 2525 1575 2525 
Q 1275 2525 1025 2275 
Q 775 2025 775 1525 
Q 775 1025 1025 775 
Q 1275 525 1575 525 
Q 1875 525 2125 775 
Q 2375 1025 2375 1525 
z
" transform="scale(0.015625)"/>
       <path id="SimHei-66" d="M 2850 3825 
Q 2725 3900 2550 3950 
Q 2375 4000 2100 4000 
Q 1825 4000 1725 3862 
Q 1625 3725 1625 3525 
L 1625 2925 
L 2650 2925 
L 2650 2525 
L 1625 2525 
L 1625 125 
L 1125 125 
L 1125 2525 
L 275 2525 
L 275 2925 
L 1125 2925 
L 1125 3500 
Q 1125 3950 1400 4200 
Q 1675 4450 2125 4450 
Q 2400 4450 2562 4412 
Q 2725 4375 2850 4325 
L 2850 3825 
z
" transform="scale(0.015625)"/>
       <path id="SimHei-62" d="M 2825 1525 
Q 2825 800 2475 437 
Q 2125 75 1625 75 
Q 1350 75 1150 175 
Q 950 275 800 500 
L 800 125 
L 300 125 
L 300 4400 
L 800 4400 
L 800 2550 
Q 950 2775 1150 2887 
Q 1350 3000 1625 3000 
Q 2125 3000 2475 2625 
Q 2825 2250 2825 1525 
z
M 2275 1525 
Q 2275 2000 2087 2275 
Q 1900 2550 1525 2550 
Q 1225 2550 1012 2275 
Q 800 2000 800 1525 
Q 800 1050 1012 787 
Q 1225 525 1525 525 
Q 1900 525 2087 787 
Q 2275 1050 2275 1525 
z
" transform="scale(0.015625)"/>
       <path id="SimHei-73" d="M 2750 900 
Q 2750 500 2437 287 
Q 2125 75 1650 75 
Q 1050 75 725 312 
Q 400 550 400 1000 
L 900 1000 
Q 900 700 1112 600 
Q 1325 500 1625 500 
Q 1925 500 2075 612 
Q 2225 725 2225 900 
Q 2225 1025 2100 1150 
Q 1975 1275 1475 1350 
Q 900 1425 687 1637 
Q 475 1850 475 2200 
Q 475 2500 762 2737 
Q 1050 2975 1600 2975 
Q 2100 2975 2387 2750 
Q 2675 2525 2675 2150 
L 2175 2150 
Q 2175 2375 2012 2462 
Q 1850 2550 1600 2550 
Q 1275 2550 1137 2437 
Q 1000 2325 1000 2175 
Q 1000 2000 1125 1900 
Q 1250 1800 1650 1750 
Q 2300 1650 2525 1437 
Q 2750 1225 2750 900 
z
" transform="scale(0.015625)"/>
       <path id="SimHei-28" d="M 2975 -200 
L 2700 -475 
Q 2075 125 1762 775 
Q 1450 1425 1450 2250 
Q 1450 3075 1762 3725 
Q 2075 4375 2700 5000 
L 2975 4725 
Q 2400 4175 2112 3587 
Q 1825 3000 1825 2250 
Q 1825 1500 2112 912 
Q 2400 325 2975 -200 
z
" transform="scale(0.015625)"/>
       <path id="SimHei-64" d="M 2750 125 
L 2250 125 
L 2250 500 
Q 2100 275 1900 175 
Q 1700 75 1425 75 
Q 925 75 575 437 
Q 225 800 225 1525 
Q 225 2250 575 2625 
Q 925 3000 1425 3000 
Q 1700 3000 1900 2887 
Q 2100 2775 2250 2550 
L 2250 4400 
L 2750 4400 
L 2750 125 
z
M 2250 1525 
Q 2250 2000 2037 2275 
Q 1825 2550 1525 2550 
Q 1150 2550 962 2275 
Q 775 2000 775 1525 
Q 775 1050 962 787 
Q 1150 525 1525 525 
Q 1825 525 2037 787 
Q 2250 1050 2250 1525 
z
" transform="scale(0.015625)"/>
       <path id="SimHei-69" d="M 1800 3725 
L 1300 3725 
L 1300 4375 
L 1800 4375 
L 1800 3725 
z
M 1800 125 
L 1300 125 
L 1300 2925 
L 1800 2925 
L 1800 125 
z
" transform="scale(0.015625)"/>
       <path id="SimHei-2d" d="M 2975 2125 
L 125 2125 
L 125 2525 
L 2975 2525 
L 2975 2125 
z
" transform="scale(0.015625)"/>
       <path id="SimHei-29" d="M 1675 2250 
Q 1675 1425 1362 775 
Q 1050 125 425 -475 
L 150 -200 
Q 725 325 1012 912 
Q 1300 1500 1300 2250 
Q 1300 3000 1012 3587 
Q 725 4175 150 4725 
L 425 5000 
Q 1050 4375 1362 3725 
Q 1675 3075 1675 2250 
z
" transform="scale(0.015625)"/>
       <path id="SimHei-2f" d="M 3000 4550 
L 350 -175 
L 100 -25 
L 2750 4700 
L 3000 4550 
z
" transform="scale(0.015625)"/>
       <path id="SimHei-2b" d="M 3000 2125 
L 1775 2125 
L 1775 900 
L 1350 900 
L 1350 2125 
L 125 2125 
L 125 2525 
L 1350 2525 
L 1350 3750 
L 1775 3750 
L 1775 2525 
L 3000 2525 
L 3000 2125 
z
" transform="scale(0.015625)"/>
      </defs>
      <use xlink:href="#SimHei-61"/>
      <use xlink:href="#SimHei-76" x="50"/>
      <use xlink:href="#SimHei-67" x="100"/>
      <use xlink:href="#SimHei-20" x="150"/>
      <use xlink:href="#SimHei-6f" x="200"/>
      <use xlink:href="#SimHei-66" x="250"/>
      <use xlink:href="#SimHei-20" x="300"/>
      <use xlink:href="#SimHei-61" x="350"/>
      <use xlink:href="#SimHei-62" x="400"/>
      <use xlink:href="#SimHei-73" x="450"/>
      <use xlink:href="#SimHei-28" x="500"/>
      <use xlink:href="#SimHei-64" x="550"/>
      <use xlink:href="#SimHei-69" x="600"/>
      <use xlink:href="#SimHei-73" x="650"/>
      <use xlink:href="#SimHei-32" x="700"/>
      <use xlink:href="#SimHei-2d" x="750"/>
      <use xlink:href="#SimHei-64" x="800"/>
      <use xlink:href="#SimHei-69" x="850"/>
      <use xlink:href="#SimHei-73" x="900"/>
      <use xlink:href="#SimHei-31" x="950"/>
      <use xlink:href="#SimHei-29" x="1000"/>
      <use xlink:href="#SimHei-2f" x="1050"/>
      <use xlink:href="#SimHei-28" x="1100"/>
      <use xlink:href="#SimHei-64" x="1150"/>
      <use xlink:href="#SimHei-69" x="1200"/>
      <use xlink:href="#SimHei-73" x="1250"/>
      <use xlink:href="#SimHei-31" x="1300"/>
      <use xlink:href="#SimHei-2b" x="1350"/>
      <use xlink:href="#SimHei-31" x="1400"/>
      <use xlink:href="#SimHei-29" x="1450"/>
     </g>
    </g>
   </g>
   <g id="line2d_15">
    <path d="M 43.920026 238.791193 
L 49.466725 238.791193 
L 51.315625 186.476488 
L 53.164525 193.237783 
L 56.862325 199.059498 
L 58.711224 203.131884 
L 60.560124 205.003149 
L 62.409024 206.683182 
L 66.106824 208.524896 
L 67.955724 209.740456 
L 69.804624 209.520535 
L 71.653524 211.387215 
L 73.502423 212.938883 
L 75.351323 213.217795 
L 77.200223 213.912343 
L 79.049123 215.558046 
L 80.898023 212.780458 
L 82.746923 217.335589 
L 84.595823 215.24399 
L 86.444723 217.797018 
L 88.293622 215.93009 
L 90.142522 218.233946 
L 91.991422 219.069835 
L 93.840322 218.927466 
L 95.689222 219.222196 
L 97.538122 219.193734 
L 99.387022 218.399074 
L 101.235922 219.941544 
L 103.084821 219.379338 
L 104.933721 219.749608 
L 106.782621 219.659132 
L 108.631521 220.218531 
L 110.480421 220.140656 
L 112.329321 220.776056 
L 114.178221 220.149265 
L 116.027121 222.308793 
L 117.87602 221.427632 
L 119.72492 221.158374 
L 121.57382 222.144137 
L 123.42272 222.035281 
L 125.27162 222.295886 
L 127.12052 222.886732 
L 128.96942 222.926383 
L 130.81832 222.568538 
L 132.667219 222.47355 
L 134.516119 223.368348 
L 138.213919 223.712699 
L 140.062819 223.595531 
L 141.911719 223.298026 
L 143.760619 223.371647 
L 145.609518 224.273132 
L 149.307318 224.36553 
L 151.156218 224.608803 
L 153.005118 224.286332 
L 154.854018 224.127472 
L 156.702918 224.580946 
L 158.551818 225.556204 
L 160.400717 224.717307 
L 162.249617 224.302831 
L 165.947417 225.352491 
L 167.796317 224.709977 
L 169.645217 226.001988 
L 171.494117 225.934375 
L 173.343017 225.328714 
L 175.191916 225.60653 
L 177.040816 225.183244 
L 178.889716 226.264853 
L 180.738616 225.476721 
L 182.587516 226.2851 
L 184.436416 225.727469 
L 186.285316 225.731965 
L 188.134216 225.87084 
L 189.983115 226.536039 
L 193.680915 226.629026 
L 195.529815 225.475127 
L 197.378715 227.165926 
L 199.227615 226.360374 
L 201.076515 225.791007 
L 202.925415 226.668222 
L 204.774314 227.345483 
L 210.321014 226.64479 
L 212.169914 227.130371 
L 215.867714 226.557231 
L 217.716614 227.088392 
L 219.565513 227.094859 
L 221.414413 227.306569 
L 223.263313 227.739197 
L 225.112213 227.297434 
L 226.961113 227.156861 
L 228.810013 227.582631 
L 232.507812 227.419195 
L 234.356712 227.823208 
L 236.205612 227.597356 
L 238.054512 227.150616 
L 239.903412 227.817242 
L 241.752312 227.798689 
L 243.601212 227.420357 
L 245.450112 227.997664 
L 249.147911 227.800423 
L 250.996811 227.477762 
L 254.694611 228.02768 
L 256.543511 227.914756 
L 258.392411 228.08706 
L 260.241311 228.003746 
L 262.09021 227.715021 
L 263.93911 227.946825 
L 265.78801 228.46641 
L 267.63691 228.492635 
L 269.48581 227.921808 
L 271.33471 228.237293 
L 273.18361 228.762514 
L 275.03251 228.430655 
L 278.730309 228.571125 
L 280.579209 228.344311 
L 282.428109 228.231089 
L 284.277009 229.452197 
L 286.125909 228.543384 
L 287.974809 228.557052 
L 289.823709 229.306614 
L 291.672608 228.597249 
L 293.521508 228.553859 
L 295.370408 228.918598 
L 297.219308 228.050396 
L 299.068208 229.190813 
L 300.917108 228.77709 
L 302.766008 228.534841 
L 304.614908 229.449919 
L 306.463807 228.786507 
L 308.312707 229.6035 
L 310.161607 228.630578 
L 312.010507 229.252625 
L 313.859407 228.977366 
L 315.708307 229.318088 
L 317.557207 228.868996 
L 319.406107 228.786072 
L 324.952806 229.758705 
L 326.801706 228.843638 
L 330.499506 230.118235 
L 334.197305 229.005817 
L 337.895105 229.577327 
L 339.744005 230.077059 
L 341.592905 229.204734 
L 343.441805 229.500419 
L 345.290705 229.222849 
L 347.139605 230.023025 
L 348.988504 229.722094 
L 350.837404 229.250057 
L 352.686304 229.862174 
L 354.535204 229.584294 
L 356.384104 229.647932 
L 358.233004 229.874939 
L 360.081904 229.711408 
L 361.930804 230.322985 
L 363.779703 229.919984 
L 365.628603 230.232206 
L 367.477503 229.552997 
L 369.326403 229.807395 
L 371.175303 229.742475 
L 373.024203 230.027487 
L 374.873103 230.144165 
L 376.722003 230.424902 
L 378.570902 229.461975 
L 380.419802 229.44698 
L 382.268702 230.049959 
L 384.117602 230.261208 
L 385.966502 230.159788 
L 387.815402 229.819776 
L 389.664302 229.876688 
L 391.513202 230.341415 
L 393.362101 230.589585 
L 395.211001 229.787404 
L 397.059901 230.500824 
L 400.757701 230.126902 
L 402.606601 229.727697 
L 404.455501 230.199656 
L 408.1533 230.426292 
L 410.0022 230.37192 
L 411.8511 229.913605 
L 411.8511 229.913605 
" clip-path="url(#pd6262fdcdd)" style="fill: none; stroke: #1f77b4; stroke-width: 2; stroke-linecap: square"/>
   </g>
   <g id="line2d_16">
    <path d="M 43.920026 238.791193 
L 49.466725 238.791193 
L 51.315625 36.552557 
L 53.164525 76.347123 
L 55.013425 62.497382 
L 56.862325 74.422309 
L 58.711224 95.352159 
L 60.560124 100.749336 
L 62.409024 97.621617 
L 64.257924 109.250448 
L 66.106824 114.059307 
L 67.955724 120.524188 
L 69.804624 122.378087 
L 71.653524 120.593551 
L 73.502423 124.138472 
L 75.351323 133.644072 
L 77.200223 136.153865 
L 79.049123 141.117763 
L 80.898023 130.314712 
L 82.746923 143.603482 
L 84.595823 141.637264 
L 86.444723 142.081456 
L 88.293622 145.933745 
L 90.142522 144.806622 
L 91.991422 153.143739 
L 93.840322 154.140797 
L 95.689222 158.269813 
L 97.538122 157.091785 
L 99.387022 157.459351 
L 101.235922 158.855146 
L 103.084821 157.661794 
L 104.933721 159.483687 
L 106.782621 159.56888 
L 108.631521 162.566796 
L 110.480421 164.43141 
L 112.329321 162.212121 
L 114.178221 162.616401 
L 116.027121 167.515558 
L 117.87602 167.212349 
L 119.72492 170.769947 
L 121.57382 166.956554 
L 123.42272 171.259008 
L 125.27162 171.471871 
L 127.12052 169.008695 
L 128.96942 170.703016 
L 130.81832 175.263028 
L 132.667219 168.452603 
L 134.516119 173.720446 
L 136.365019 177.620154 
L 138.213919 173.216358 
L 140.062819 173.480681 
L 141.911719 178.985742 
L 143.760619 176.174305 
L 145.609518 180.3752 
L 147.458418 179.383174 
L 149.307318 178.676669 
L 151.156218 178.802279 
L 153.005118 181.882957 
L 154.854018 180.765783 
L 156.702918 182.662578 
L 158.551818 181.845644 
L 160.400717 184.081134 
L 162.249617 178.606687 
L 164.098517 181.582972 
L 165.947417 185.088312 
L 167.796317 185.625826 
L 169.645217 183.56471 
L 171.494117 181.261125 
L 173.343017 187.315899 
L 175.191916 186.31885 
L 177.040816 183.894008 
L 178.889716 186.169136 
L 180.738616 185.753107 
L 182.587516 189.166294 
L 184.436416 184.307575 
L 186.285316 189.421898 
L 188.134216 187.695178 
L 189.983115 187.36561 
L 191.832015 187.839118 
L 193.680915 191.048997 
L 195.529815 188.147884 
L 197.378715 190.536881 
L 199.227615 189.907306 
L 201.076515 188.003406 
L 202.925415 190.11982 
L 204.774314 191.665248 
L 206.623214 192.095615 
L 208.472114 192.33025 
L 210.321014 190.53814 
L 212.169914 190.964647 
L 214.018814 191.22892 
L 215.867714 193.004902 
L 217.716614 190.55176 
L 219.565513 191.576132 
L 221.414413 192.856987 
L 223.263313 195.232316 
L 225.112213 194.010278 
L 226.961113 193.159953 
L 228.810013 194.044794 
L 230.658913 195.869714 
L 232.507812 195.92114 
L 234.356712 194.135862 
L 236.205612 193.832644 
L 238.054512 194.87537 
L 239.903412 194.742386 
L 241.752312 194.919832 
L 243.601212 194.498312 
L 245.450112 195.708149 
L 247.299011 195.954564 
L 249.147911 196.978004 
L 250.996811 195.13242 
L 252.845711 198.055799 
L 254.694611 197.804387 
L 256.543511 197.704267 
L 258.392411 196.029202 
L 260.241311 197.911334 
L 262.09021 195.417696 
L 263.93911 199.757693 
L 265.78801 196.540788 
L 267.63691 199.565443 
L 269.48581 197.971653 
L 271.33471 199.775729 
L 273.18361 197.664781 
L 275.03251 197.095611 
L 276.881409 198.880937 
L 278.730309 197.973415 
L 280.579209 200.558428 
L 282.428109 197.72135 
L 284.277009 200.491422 
L 286.125909 198.712301 
L 287.974809 199.578041 
L 289.823709 199.80807 
L 291.672608 197.934345 
L 295.370408 199.876186 
L 297.219308 201.288301 
L 299.068208 200.257332 
L 300.917108 202.818586 
L 302.766008 200.47214 
L 304.614908 201.66399 
L 306.463807 200.699572 
L 308.312707 202.909442 
L 310.161607 200.204036 
L 312.010507 202.237261 
L 313.859407 201.699708 
L 315.708307 200.364054 
L 317.557207 201.591323 
L 319.406107 200.045627 
L 321.255006 202.036864 
L 323.103906 201.925333 
L 324.952806 203.384821 
L 326.801706 200.354248 
L 328.650606 203.598058 
L 330.499506 203.659723 
L 332.348406 203.855858 
L 334.197305 201.377567 
L 336.046205 202.771889 
L 337.895105 203.589758 
L 339.744005 202.45829 
L 341.592905 202.58383 
L 343.441805 204.240477 
L 345.290705 202.261435 
L 347.139605 205.824507 
L 348.988504 204.044732 
L 350.837404 205.381071 
L 354.535204 203.232547 
L 356.384104 203.757427 
L 358.233004 203.374547 
L 360.081904 205.518472 
L 361.930804 205.844376 
L 363.779703 203.903789 
L 365.628603 205.468948 
L 367.477503 203.455631 
L 369.326403 205.325281 
L 371.175303 204.071117 
L 373.024203 207.10717 
L 374.873103 205.505414 
L 376.722003 206.9906 
L 378.570902 203.61878 
L 380.419802 204.576843 
L 382.268702 205.753665 
L 384.117602 204.471713 
L 385.966502 205.46137 
L 387.815402 205.41722 
L 389.664302 205.51216 
L 391.513202 204.313703 
L 393.362101 207.770836 
L 395.211001 206.317557 
L 397.059901 207.716055 
L 398.908801 206.079685 
L 400.757701 205.06127 
L 402.606601 207.311974 
L 404.455501 206.207002 
L 406.304401 207.689397 
L 408.1533 207.827302 
L 410.0022 205.66237 
L 411.8511 205.426294 
L 411.8511 205.426294 
" clip-path="url(#pd6262fdcdd)" style="fill: none; stroke: #ff7f0e; stroke-width: 3; stroke-linecap: square"/>
   </g>
   <g id="line2d_17">
    <path d="M 43.920026 238.791193 
L 49.466725 238.791193 
L 51.315625 168.403598 
L 53.164525 175.783873 
L 55.013425 179.127298 
L 56.862325 182.892629 
L 58.711224 188.908694 
L 60.560124 191.052534 
L 62.409024 194.491241 
L 64.257924 195.735225 
L 66.106824 195.398857 
L 67.955724 198.055174 
L 69.804624 198.813965 
L 71.653524 201.154809 
L 73.502423 203.279201 
L 75.351323 204.847775 
L 77.200223 204.613428 
L 79.049123 206.988217 
L 80.898023 203.901378 
L 82.746923 208.671534 
L 84.595823 207.408043 
L 86.444723 209.223683 
L 88.293622 207.76389 
L 90.142522 211.430943 
L 91.991422 212.041524 
L 93.840322 211.62341 
L 95.689222 212.098241 
L 97.538122 211.529322 
L 99.387022 212.372686 
L 101.235922 213.445659 
L 103.084821 213.211693 
L 104.933721 212.816689 
L 106.782621 214.323881 
L 108.631521 212.589333 
L 110.480421 214.98116 
L 112.329321 214.822569 
L 114.178221 214.461491 
L 116.027121 216.008657 
L 117.87602 215.294338 
L 119.72492 216.031505 
L 121.57382 216.454824 
L 123.42272 216.317074 
L 125.27162 216.763817 
L 128.96942 217.037668 
L 130.81832 216.943048 
L 134.516119 219.13176 
L 136.365019 218.219418 
L 138.213919 218.926965 
L 140.062819 218.437264 
L 143.760619 218.596025 
L 145.609518 219.142325 
L 147.458418 219.930284 
L 149.307318 218.883561 
L 151.156218 220.948279 
L 154.854018 219.926487 
L 156.702918 219.878584 
L 158.551818 221.006928 
L 160.400717 219.435027 
L 162.249617 219.253341 
L 164.098517 219.777931 
L 165.947417 221.465009 
L 167.796317 221.567819 
L 173.343017 220.997279 
L 175.191916 221.309161 
L 177.040816 220.977321 
L 178.889716 222.155839 
L 180.738616 221.808812 
L 182.587516 222.294634 
L 184.436416 221.327243 
L 186.285316 222.094237 
L 188.134216 221.339965 
L 189.983115 222.837074 
L 191.832015 222.479007 
L 193.680915 222.296638 
L 195.529815 222.284454 
L 197.378715 223.840189 
L 201.076515 221.91235 
L 202.925415 223.070052 
L 204.774314 223.395235 
L 206.623214 223.190987 
L 208.472114 223.814771 
L 210.321014 223.311179 
L 212.169914 222.961753 
L 214.018814 223.78881 
L 215.867714 223.41914 
L 217.716614 224.031423 
L 219.565513 223.815102 
L 221.414413 223.778667 
L 223.263313 224.028596 
L 225.112213 223.781592 
L 226.961113 224.307109 
L 228.810013 224.353653 
L 230.658913 223.482929 
L 232.507812 223.897836 
L 234.356712 224.80197 
L 236.205612 223.691155 
L 238.054512 223.958613 
L 239.903412 223.886569 
L 241.752312 224.675293 
L 243.601212 223.89167 
L 245.450112 225.12318 
L 247.299011 224.370837 
L 249.147911 224.046318 
L 250.996811 224.493235 
L 252.845711 225.101522 
L 254.694611 224.811371 
L 256.543511 224.924735 
L 258.392411 225.191773 
L 260.241311 224.74365 
L 262.09021 224.114316 
L 263.93911 224.976045 
L 265.78801 225.301579 
L 267.63691 225.8871 
L 269.48581 225.119308 
L 271.33471 225.376756 
L 273.18361 226.015611 
L 275.03251 225.768041 
L 276.881409 225.678906 
L 278.730309 225.8657 
L 280.579209 225.839578 
L 282.428109 225.234278 
L 284.277009 226.299329 
L 286.125909 225.86108 
L 287.974809 225.855754 
L 289.823709 226.346467 
L 291.672608 225.885558 
L 293.521508 225.724949 
L 295.370408 226.340208 
L 297.219308 225.343482 
L 299.068208 226.47053 
L 300.917108 226.24789 
L 302.766008 225.541131 
L 304.614908 226.399559 
L 306.463807 225.960934 
L 308.312707 227.300918 
L 310.161607 225.544343 
L 312.010507 226.301929 
L 313.859407 226.136133 
L 315.708307 226.379774 
L 317.557207 225.989539 
L 319.406107 226.226027 
L 321.255006 226.212968 
L 323.103906 226.779835 
L 324.952806 226.990086 
L 326.801706 226.113323 
L 328.650606 227.261724 
L 330.499506 227.422234 
L 332.348406 227.318658 
L 334.197305 226.645297 
L 336.046205 226.429771 
L 337.895105 227.243109 
L 339.744005 227.396455 
L 341.592905 226.457657 
L 345.290705 226.719544 
L 347.139605 227.033892 
L 348.988504 226.807716 
L 350.837404 226.440227 
L 352.686304 227.719074 
L 354.535204 227.058446 
L 356.384104 226.717833 
L 358.233004 227.69108 
L 360.081904 227.547636 
L 361.930804 227.73259 
L 363.779703 227.455666 
L 365.628603 227.75471 
L 367.477503 227.398643 
L 369.326403 227.36834 
L 371.175303 227.793527 
L 374.873103 227.462066 
L 376.722003 228.079765 
L 378.570902 227.061984 
L 382.268702 227.972563 
L 384.117602 228.043532 
L 385.966502 227.973054 
L 387.815402 227.381189 
L 389.664302 227.725973 
L 391.513202 227.954384 
L 393.362101 227.869897 
L 395.211001 227.382347 
L 397.059901 228.042631 
L 398.908801 228.324069 
L 400.757701 228.014746 
L 402.606601 227.500222 
L 404.455501 228.119101 
L 406.304401 228.359224 
L 408.1533 227.890617 
L 410.0022 228.299216 
L 411.8511 228.119501 
L 411.8511 228.119501 
" clip-path="url(#pd6262fdcdd)" style="fill: none; stroke: #2ca02c; stroke-width: 2; stroke-linecap: square"/>
   </g>
   <g id="line2d_18">
    <path d="M 43.920026 238.791193 
L 49.466725 238.791193 
L 51.315625 109.702047 
L 53.164525 146.379194 
L 55.013425 143.414679 
L 56.862325 149.412511 
L 58.711224 152.732799 
L 60.560124 166.849944 
L 62.409024 151.005748 
L 64.257924 158.9278 
L 66.106824 153.065506 
L 67.955724 155.378279 
L 69.804624 157.435657 
L 71.653524 151.586834 
L 73.502423 154.654301 
L 75.351323 159.103422 
L 77.200223 161.762262 
L 79.049123 161.455676 
L 80.898023 154.807018 
L 82.746923 162.399631 
L 84.595823 164.401902 
L 86.444723 162.316472 
L 88.293622 163.455187 
L 90.142522 164.972694 
L 91.991422 165.43946 
L 93.840322 168.321597 
L 95.689222 171.668212 
L 97.538122 169.210112 
L 99.387022 169.515017 
L 101.235922 171.726451 
L 103.084821 169.960505 
L 104.933721 170.067216 
L 106.782621 171.77491 
L 108.631521 167.809927 
L 110.480421 172.384015 
L 112.329321 170.517784 
L 114.178221 172.967204 
L 116.027121 175.61339 
L 117.87602 176.391221 
L 119.72492 176.102733 
L 121.57382 175.447516 
L 123.42272 177.935943 
L 125.27162 178.719988 
L 127.12052 174.148641 
L 128.96942 177.376618 
L 130.81832 178.554832 
L 132.667219 173.610845 
L 134.516119 178.129131 
L 136.365019 181.335141 
L 138.213919 178.472115 
L 140.062819 178.135091 
L 141.911719 182.169845 
L 143.760619 178.234228 
L 145.609518 182.529556 
L 147.458418 179.205436 
L 149.307318 180.892632 
L 151.156218 183.005963 
L 153.005118 181.943624 
L 154.854018 182.397438 
L 156.702918 182.097257 
L 158.551818 180.888335 
L 160.400717 184.753959 
L 162.249617 180.722546 
L 164.098517 181.249089 
L 165.947417 185.553035 
L 167.796317 185.282852 
L 169.645217 186.130804 
L 171.494117 180.781661 
L 173.343017 188.05777 
L 175.191916 185.630417 
L 177.040816 185.616239 
L 178.889716 187.55767 
L 180.738616 185.916767 
L 182.587516 189.551803 
L 184.436416 185.357071 
L 186.285316 188.521099 
L 188.134216 188.720501 
L 189.983115 189.123705 
L 191.832015 186.60938 
L 193.680915 189.366155 
L 195.529815 188.285835 
L 197.378715 190.683443 
L 199.227615 190.633263 
L 201.076515 187.11541 
L 202.925415 190.364476 
L 204.774314 190.7153 
L 206.623214 191.706249 
L 208.472114 192.927833 
L 210.321014 190.090143 
L 212.169914 190.331545 
L 214.018814 190.244778 
L 215.867714 191.299727 
L 217.716614 190.320373 
L 219.565513 190.991302 
L 221.414413 191.862602 
L 223.263313 194.004606 
L 225.112213 192.348173 
L 226.961113 192.595502 
L 228.810013 191.714961 
L 230.658913 194.070152 
L 232.507812 195.636333 
L 234.356712 196.183934 
L 236.205612 192.165976 
L 238.054512 195.366548 
L 239.903412 193.979534 
L 241.752312 193.206062 
L 243.601212 195.126572 
L 245.450112 193.057244 
L 247.299011 193.571696 
L 249.147911 192.781566 
L 250.996811 193.386923 
L 252.845711 196.840585 
L 254.694611 196.516777 
L 256.543511 194.938138 
L 258.392411 194.042673 
L 260.241311 195.532387 
L 262.09021 193.32445 
L 263.93911 197.888562 
L 265.78801 194.608939 
L 267.63691 197.219716 
L 269.48581 198.389539 
L 271.33471 194.103539 
L 273.18361 194.811326 
L 275.03251 194.184856 
L 276.881409 196.898294 
L 278.730309 195.876154 
L 280.579209 197.420496 
L 282.428109 195.586243 
L 284.277009 198.425632 
L 286.125909 196.675801 
L 287.974809 195.175886 
L 289.823709 196.997782 
L 291.672608 197.079932 
L 293.521508 196.660979 
L 295.370408 197.069421 
L 297.219308 197.959255 
L 299.068208 196.935391 
L 300.917108 200.143468 
L 302.766008 196.915936 
L 304.614908 197.2887 
L 306.463807 197.033826 
L 308.312707 200.844901 
L 310.161607 198.838976 
L 312.010507 198.997981 
L 313.859407 199.962862 
L 315.708307 197.872927 
L 317.557207 197.504424 
L 319.406107 199.57488 
L 321.255006 199.327479 
L 323.103906 200.790589 
L 324.952806 200.089769 
L 326.801706 199.73777 
L 330.499506 200.3374 
L 332.348406 200.461908 
L 334.197305 198.076775 
L 336.046205 197.851748 
L 337.895105 200.34018 
L 339.744005 200.02657 
L 341.592905 198.177111 
L 343.441805 201.7858 
L 345.290705 198.809986 
L 347.139605 202.214561 
L 348.988504 202.920842 
L 350.837404 201.600146 
L 354.535204 200.507752 
L 356.384104 201.166885 
L 358.233004 200.990451 
L 360.081904 202.038028 
L 361.930804 202.588594 
L 363.779703 200.159534 
L 365.628603 201.974153 
L 367.477503 199.967626 
L 369.326403 203.26459 
L 371.175303 201.109474 
L 373.024203 202.54615 
L 374.873103 203.451778 
L 376.722003 204.899534 
L 378.570902 201.603125 
L 380.419802 202.254825 
L 382.268702 201.986695 
L 384.117602 202.2817 
L 385.966502 202.967688 
L 387.815402 203.063674 
L 389.664302 202.642549 
L 391.513202 201.369103 
L 393.362101 203.761237 
L 395.211001 202.05129 
L 397.059901 204.498649 
L 398.908801 202.329073 
L 400.757701 202.692013 
L 402.606601 203.585346 
L 404.455501 202.355157 
L 406.304401 202.487528 
L 408.1533 204.75755 
L 410.0022 202.994531 
L 411.8511 203.8819 
L 411.8511 203.8819 
" clip-path="url(#pd6262fdcdd)" style="fill: none; stroke: #d62728; stroke-width: 2; stroke-linecap: square"/>
   </g>
   <g id="line2d_19">
    <path d="M 43.920026 238.791193 
L 49.466725 238.791193 
L 51.315625 152.753854 
L 53.164525 158.023496 
L 55.013425 159.695249 
L 56.862325 163.925616 
L 58.711224 169.536305 
L 60.560124 168.389372 
L 62.409024 170.103962 
L 64.257924 175.777139 
L 66.106824 174.941902 
L 67.955724 176.142127 
L 69.804624 179.051944 
L 71.653524 177.888803 
L 73.502423 178.861348 
L 75.351323 184.572646 
L 77.200223 183.858993 
L 79.049123 184.629441 
L 80.898023 187.493008 
L 82.746923 188.412001 
L 84.595823 188.090397 
L 86.444723 185.754995 
L 88.293622 187.593491 
L 90.142522 187.615178 
L 91.991422 189.750954 
L 93.840322 187.962345 
L 95.689222 192.668256 
L 97.538122 190.485933 
L 99.387022 195.300171 
L 101.235922 191.325067 
L 103.084821 194.375725 
L 104.933721 196.930654 
L 106.782621 194.187966 
L 108.631521 195.902677 
L 110.480421 193.937515 
L 112.329321 198.16935 
L 114.178221 194.984442 
L 116.027121 197.959244 
L 117.87602 199.126577 
L 119.72492 198.02854 
L 121.57382 198.209624 
L 123.42272 199.097304 
L 125.27162 197.718569 
L 127.12052 199.874962 
L 128.96942 199.534605 
L 130.81832 199.046832 
L 132.667219 202.527406 
L 134.516119 201.307497 
L 136.365019 199.662902 
L 138.213919 200.350768 
L 140.062819 203.007307 
L 141.911719 202.819781 
L 143.760619 205.203835 
L 145.609518 203.670091 
L 147.458418 201.825841 
L 149.307318 203.755007 
L 151.156218 204.717569 
L 153.005118 203.241994 
L 154.854018 206.916324 
L 156.702918 205.79847 
L 158.551818 205.629692 
L 160.400717 203.916658 
L 162.249617 204.599588 
L 164.098517 205.016046 
L 167.796317 206.854052 
L 169.645217 206.859028 
L 171.494117 206.329093 
L 173.343017 205.213847 
L 175.191916 206.568763 
L 177.040816 206.232887 
L 178.889716 206.938483 
L 180.738616 209.422953 
L 182.587516 206.921501 
L 184.436416 206.902808 
L 186.285316 208.045795 
L 188.134216 207.140143 
L 189.983115 208.596584 
L 191.832015 208.170119 
L 193.680915 206.413149 
L 195.529815 208.209856 
L 197.378715 207.453278 
L 199.227615 210.026402 
L 201.076515 208.774863 
L 202.925415 209.479767 
L 204.774314 209.627735 
L 206.623214 210.88894 
L 210.321014 210.165557 
L 212.169914 210.50445 
L 214.018814 210.255752 
L 215.867714 210.827503 
L 217.716614 212.560281 
L 219.565513 211.042923 
L 221.414413 210.487177 
L 223.263313 211.640515 
L 225.112213 210.818117 
L 226.961113 209.759352 
L 228.810013 211.40791 
L 230.658913 211.709056 
L 232.507812 212.559589 
L 234.356712 211.866462 
L 236.205612 213.939946 
L 238.054512 213.549305 
L 239.903412 211.405907 
L 241.752312 213.455655 
L 243.601212 212.290992 
L 245.450112 212.124616 
L 247.299011 212.252998 
L 249.147911 213.634672 
L 250.996811 214.060409 
L 252.845711 212.937555 
L 254.694611 213.673579 
L 256.543511 213.164603 
L 258.392411 211.425539 
L 260.241311 215.467073 
L 262.09021 212.867209 
L 263.93911 214.596946 
L 265.78801 213.724289 
L 267.63691 214.196274 
L 269.48581 213.973208 
L 271.33471 215.77182 
L 273.18361 214.922795 
L 275.03251 212.289276 
L 276.881409 215.429831 
L 278.730309 214.244549 
L 280.579209 214.066259 
L 282.428109 215.275264 
L 284.277009 214.789537 
L 286.125909 214.715248 
L 287.974809 215.198349 
L 289.823709 214.99956 
L 291.672608 214.055224 
L 293.521508 214.411627 
L 295.370408 216.270515 
L 297.219308 215.198123 
L 299.068208 214.992862 
L 302.766008 215.871083 
L 304.614908 217.822911 
L 306.463807 214.461077 
L 308.312707 215.794037 
L 310.161607 216.382491 
L 312.010507 216.058505 
L 315.708307 216.075217 
L 317.557207 217.330785 
L 319.406107 216.645454 
L 321.255006 215.298568 
L 323.103906 215.850281 
L 324.952806 217.060777 
L 328.650606 217.574849 
L 330.499506 217.422065 
L 332.348406 217.891981 
L 334.197305 216.236281 
L 336.046205 216.217465 
L 337.895105 215.867316 
L 339.744005 217.763897 
L 341.592905 216.880392 
L 343.441805 216.91335 
L 345.290705 217.371139 
L 347.139605 218.186415 
L 348.988504 217.201571 
L 350.837404 217.658554 
L 354.535204 217.930732 
L 356.384104 217.152279 
L 358.233004 218.01815 
L 360.081904 215.941564 
L 361.930804 218.277192 
L 363.779703 217.59055 
L 365.628603 218.549553 
L 367.477503 218.204444 
L 369.326403 219.560594 
L 371.175303 217.54828 
L 373.024203 217.570238 
L 374.873103 218.682565 
L 376.722003 219.930688 
L 378.570902 217.792243 
L 380.419802 219.065436 
L 382.268702 218.565146 
L 384.117602 219.232493 
L 385.966502 217.766114 
L 387.815402 219.290251 
L 389.664302 218.373241 
L 391.513202 219.146781 
L 393.362101 218.760366 
L 395.211001 218.961243 
L 397.059901 219.66351 
L 398.908801 218.799145 
L 400.757701 218.870418 
L 402.606601 218.393234 
L 404.455501 219.299074 
L 406.304401 219.568766 
L 408.1533 217.421839 
L 410.0022 218.821207 
L 411.8511 218.748048 
L 411.8511 218.748048 
" clip-path="url(#pd6262fdcdd)" style="fill: none; stroke: #9467bd; stroke-width: 2; stroke-linecap: square"/>
   </g>
   <g id="line2d_20">
    <path d="M 43.920026 238.791193 
L 49.466725 238.791193 
L 51.315625 146.439956 
L 53.164525 147.66404 
L 56.862325 158.438249 
L 58.711224 162.693782 
L 60.560124 161.897261 
L 64.257924 170.086986 
L 66.106824 170.818837 
L 67.955724 171.984703 
L 69.804624 176.075293 
L 71.653524 173.93045 
L 73.502423 174.286981 
L 75.351323 180.559574 
L 77.200223 179.311849 
L 79.049123 181.010411 
L 80.898023 183.878531 
L 82.746923 184.741162 
L 84.595823 184.702454 
L 86.444723 181.807881 
L 88.293622 184.039737 
L 90.142522 183.541681 
L 91.991422 187.243851 
L 93.840322 185.877771 
L 95.689222 189.669473 
L 97.538122 187.045796 
L 99.387022 192.269121 
L 101.235922 188.151609 
L 103.084821 192.29826 
L 104.933721 193.632284 
L 106.782621 191.969277 
L 108.631521 194.114432 
L 110.480421 191.630381 
L 112.329321 195.939167 
L 114.178221 191.650397 
L 116.027121 195.791874 
L 117.87602 197.290633 
L 121.57382 195.723646 
L 123.42272 197.254429 
L 125.27162 196.114389 
L 127.12052 197.371988 
L 128.96942 198.338989 
L 130.81832 197.318315 
L 132.667219 200.726121 
L 134.516119 199.144743 
L 136.365019 197.074738 
L 138.213919 197.75893 
L 140.062819 201.591401 
L 141.911719 200.797629 
L 143.760619 203.3532 
L 145.609518 201.114536 
L 147.458418 200.450931 
L 149.307318 201.315627 
L 151.156218 204.033248 
L 153.005118 200.774175 
L 154.854018 205.350675 
L 156.702918 204.260517 
L 158.551818 203.660813 
L 160.400717 201.75615 
L 162.249617 202.580732 
L 164.098517 204.041782 
L 167.796317 204.401874 
L 169.645217 204.932811 
L 171.494117 204.310133 
L 173.343017 203.178687 
L 175.191916 204.715884 
L 177.040816 204.715286 
L 178.889716 205.598732 
L 180.738616 208.152004 
L 182.587516 205.915286 
L 184.436416 206.239903 
L 186.285316 205.874931 
L 188.134216 206.122642 
L 189.983115 206.607867 
L 191.832015 206.435288 
L 193.680915 204.302801 
L 195.529815 206.131686 
L 197.378715 205.375692 
L 199.227615 208.493734 
L 201.076515 207.925452 
L 202.925415 208.646663 
L 204.774314 207.959348 
L 206.623214 209.581517 
L 208.472114 208.592784 
L 210.321014 209.330441 
L 212.169914 208.812954 
L 214.018814 209.166948 
L 215.867714 208.959659 
L 217.716614 211.331437 
L 219.565513 209.307907 
L 221.414413 208.642795 
L 223.263313 210.939278 
L 225.112213 208.946249 
L 226.961113 208.556348 
L 228.810013 210.419232 
L 230.658913 209.865608 
L 232.507812 211.463642 
L 234.356712 210.381253 
L 236.205612 213.06208 
L 238.054512 211.948036 
L 239.903412 209.749903 
L 241.752312 212.434847 
L 243.601212 210.76666 
L 245.450112 210.876344 
L 247.299011 210.510392 
L 249.147911 211.437725 
L 250.996811 213.270555 
L 252.845711 211.629312 
L 254.694611 213.024795 
L 256.543511 211.266486 
L 258.392411 210.453062 
L 260.241311 213.675667 
L 262.09021 211.341738 
L 263.93911 213.119775 
L 265.78801 212.217981 
L 267.63691 213.241923 
L 269.48581 212.709543 
L 271.33471 214.351456 
L 273.18361 213.688214 
L 275.03251 210.853278 
L 276.881409 213.876037 
L 278.730309 213.028829 
L 280.579209 212.383344 
L 282.428109 213.724305 
L 284.277009 213.059282 
L 286.125909 213.006364 
L 287.974809 213.993928 
L 291.672608 213.474392 
L 293.521508 212.915528 
L 295.370408 214.873571 
L 297.219308 214.086899 
L 299.068208 213.700964 
L 300.917108 213.799473 
L 302.766008 214.695655 
L 304.614908 216.069187 
L 306.463807 213.544523 
L 308.312707 214.373345 
L 313.859407 214.850802 
L 315.708307 214.55121 
L 317.557207 215.494484 
L 319.406107 215.040523 
L 321.255006 213.943394 
L 323.103906 214.976543 
L 324.952806 215.569869 
L 326.801706 215.758519 
L 328.650606 216.417677 
L 330.499506 216.156801 
L 332.348406 216.324656 
L 334.197305 215.506703 
L 336.046205 214.988044 
L 337.895105 215.035048 
L 339.744005 216.547521 
L 341.592905 215.79823 
L 343.441805 215.445317 
L 345.290705 215.848162 
L 347.139605 216.996339 
L 348.988504 216.042629 
L 350.837404 216.320248 
L 352.686304 216.109178 
L 354.535204 216.502969 
L 356.384104 215.940905 
L 358.233004 216.617533 
L 360.081904 214.192012 
L 361.930804 217.16218 
L 363.779703 216.812029 
L 365.628603 217.68398 
L 367.477503 216.856791 
L 369.326403 217.771514 
L 371.175303 216.888231 
L 373.024203 216.55011 
L 374.873103 217.663322 
L 376.722003 218.516873 
L 378.570902 216.776163 
L 380.419802 218.035121 
L 382.268702 217.147538 
L 384.117602 218.552687 
L 385.966502 216.659248 
L 387.815402 217.989771 
L 389.664302 216.939219 
L 391.513202 217.80939 
L 393.362101 217.930196 
L 395.211001 217.273655 
L 397.059901 218.514419 
L 398.908801 217.788553 
L 400.757701 217.490157 
L 402.606601 216.985547 
L 404.455501 217.896697 
L 406.304401 218.03868 
L 408.1533 216.196497 
L 410.0022 218.06988 
L 411.8511 217.342716 
L 411.8511 217.342716 
" clip-path="url(#pd6262fdcdd)" style="fill: none; stroke: #8c564b; stroke-width: 2; stroke-linecap: square"/>
   </g>
   <g id="patch_3">
    <path d="M 51.315625 248.903125 
L 51.315625 26.440625 
" style="fill: none; stroke: #000000; stroke-width: 0.8; stroke-linejoin: miter; stroke-linecap: square"/>
   </g>
   <g id="patch_4">
    <path d="M 413.7 248.903125 
L 413.7 26.440625 
" style="fill: none; stroke: #000000; stroke-width: 0.8; stroke-linejoin: miter; stroke-linecap: square"/>
   </g>
   <g id="patch_5">
    <path d="M 51.315625 248.903125 
L 413.7 248.903125 
" style="fill: none; stroke: #000000; stroke-width: 0.8; stroke-linejoin: miter; stroke-linecap: square"/>
   </g>
   <g id="patch_6">
    <path d="M 51.315625 26.440625 
L 413.7 26.440625 
" style="fill: none; stroke: #000000; stroke-width: 0.8; stroke-linejoin: miter; stroke-linecap: square"/>
   </g>
   <g id="text_17">
    <!-- 讨论不同长度的序列对不稳定性的影响 -->
    <g transform="translate(130.507813 20.440625)scale(0.12 -0.12)">
     <defs>
      <path id="SimHei-8ba8" d="M 4700 3775 
Q 4700 4600 4675 5225 
L 5225 5225 
Q 5200 4625 5200 3775 
Q 5625 3775 6075 3800 
L 6075 3325 
Q 5675 3350 5200 3350 
L 5200 25 
Q 5200 -325 4925 -437 
Q 4650 -550 4150 -600 
Q 4125 -300 3875 25 
Q 4450 0 4575 50 
Q 4700 100 4700 350 
L 4700 3350 
L 3225 3350 
Q 2900 3350 2300 3325 
L 2300 3800 
Q 2875 3775 3175 3775 
L 4700 3775 
z
M 1700 3375 
Q 1675 2925 1675 2400 
L 1675 550 
Q 2000 850 2400 1325 
Q 2550 1025 2725 825 
Q 2375 550 2037 237 
Q 1700 -75 1450 -350 
Q 1225 -100 1025 50 
Q 1200 250 1200 575 
L 1200 2950 
Q 575 2950 300 2925 
L 300 3400 
Q 575 3375 975 3375 
L 1700 3375 
z
M 3025 2750 
Q 3525 2150 3875 1525 
Q 3625 1375 3425 1250 
Q 3150 1850 2625 2475 
Q 2800 2575 3025 2750 
z
M 1250 5250 
Q 1550 4850 1825 4200 
Q 1625 4100 1375 3950 
Q 1175 4500 825 5000 
Q 1000 5100 1250 5250 
z
" transform="scale(0.015625)"/>
      <path id="SimHei-8bba" d="M 3500 1600 
Q 3825 1725 4250 2000 
Q 4675 2275 4975 2575 
Q 5225 2275 5400 2100 
Q 5050 1950 4550 1675 
Q 4050 1400 3500 1150 
L 3500 300 
Q 3500 -100 3800 -100 
L 4825 -100 
Q 5125 -100 5250 137 
Q 5375 375 5375 575 
Q 5675 350 5925 275 
Q 5750 -225 5550 -375 
Q 5350 -525 5100 -525 
L 3550 -525 
Q 3025 -475 3025 0 
L 3025 2175 
Q 3025 2525 3000 2850 
L 3525 2850 
Q 3500 2400 3500 2200 
L 3500 1600 
z
M 4175 4850 
Q 4400 4350 4950 3687 
Q 5500 3025 6175 2700 
Q 5975 2575 5800 2275 
Q 5100 2750 4637 3375 
Q 4175 4000 3950 4425 
Q 3725 3950 3387 3425 
Q 3050 2900 2325 2200 
Q 2175 2375 1950 2575 
Q 2350 2825 2650 3175 
Q 2950 3525 3200 3962 
Q 3450 4400 3575 4725 
Q 3700 5050 3750 5250 
Q 3975 5150 4275 5050 
L 4175 4850 
z
M 1600 3150 
Q 1575 2750 1575 2275 
L 1575 550 
Q 1950 825 2400 1300 
Q 2500 1075 2650 800 
Q 2250 475 1900 187 
Q 1550 -100 1250 -375 
Q 1150 -225 900 50 
Q 1100 250 1100 450 
L 1100 2700 
L 800 2700 
Q 550 2700 275 2675 
L 275 3175 
Q 550 3150 800 3150 
L 1600 3150 
z
M 975 5000 
Q 1550 4525 2125 4025 
Q 1950 3875 1750 3650 
Q 1325 4150 650 4650 
Q 825 4800 975 5000 
z
" transform="scale(0.015625)"/>
      <path id="SimHei-4e0d" d="M 5975 4450 
Q 5525 4475 5200 4475 
L 3725 4475 
Q 3550 4125 3300 3700 
L 3300 575 
Q 3300 75 3325 -550 
L 2775 -550 
Q 2800 50 2800 575 
L 2800 3025 
Q 2025 1950 700 1050 
Q 500 1350 325 1475 
Q 825 1700 1650 2437 
Q 2475 3175 3175 4475 
L 1525 4475 
Q 1050 4475 525 4450 
L 525 4950 
Q 1275 4925 1675 4925 
L 5175 4925 
Q 5500 4925 5975 4950 
L 5975 4450 
z
M 5450 1125 
Q 4975 1725 3750 2975 
Q 3950 3150 4075 3325 
Q 4675 2775 5100 2362 
Q 5525 1950 5900 1550 
Q 5650 1350 5450 1125 
z
" transform="scale(0.015625)"/>
      <path id="SimHei-540c" d="M 5825 4925 
Q 5775 4550 5775 3975 
L 5775 -50 
Q 5775 -400 5525 -487 
Q 5275 -575 4725 -625 
Q 4725 -400 4525 -50 
Q 4925 -50 5100 -12 
Q 5275 25 5275 200 
L 5275 4450 
L 1150 4450 
L 1150 -600 
L 575 -600 
Q 600 -250 625 200 
L 625 3975 
Q 625 4575 600 4925 
L 5825 4925 
z
M 4375 2550 
Q 4325 2275 4325 1700 
Q 4325 1150 4375 725 
L 2025 725 
Q 2050 1175 2050 1750 
Q 2050 2325 2025 2550 
L 4375 2550 
z
M 4100 3750 
Q 4600 3750 4825 3775 
L 4825 3275 
Q 4575 3300 4075 3300 
L 2450 3300 
Q 1850 3300 1600 3275 
L 1600 3775 
Q 1875 3750 2475 3750 
L 4100 3750 
z
M 3875 1150 
L 3875 2150 
L 2525 2150 
L 2525 1150 
L 3875 1150 
z
" transform="scale(0.015625)"/>
      <path id="SimHei-7684" d="M 2100 4975 
Q 1975 4750 1750 3950 
L 2875 3950 
Q 2850 3525 2850 2875 
L 2850 675 
Q 2850 300 2875 -400 
L 2375 -400 
L 2375 100 
L 1100 100 
L 1100 -450 
L 600 -450 
Q 625 350 625 550 
L 625 2850 
Q 625 3525 600 3950 
L 1325 3950 
Q 1450 4525 1525 5150 
Q 1875 5025 2100 4975 
z
M 5825 3075 
Q 5800 1550 5700 175 
Q 5650 -275 5225 -425 
Q 4800 -575 4275 -625 
Q 4250 -350 4050 -50 
Q 4550 -75 4837 -25 
Q 5125 25 5200 200 
Q 5275 375 5312 1225 
Q 5350 2075 5375 3600 
L 3925 3600 
Q 3725 3125 3350 2475 
Q 3175 2650 2925 2750 
Q 3150 3050 3350 3475 
Q 3550 3900 3700 4400 
Q 3850 4900 3875 5175 
Q 4225 5025 4475 4950 
Q 4350 4750 4262 4512 
Q 4175 4275 4075 4050 
L 5850 4050 
Q 5825 3525 5825 3075 
z
M 2375 525 
L 2375 1850 
L 1100 1850 
L 1100 525 
L 2375 525 
z
M 2375 2275 
L 2375 3525 
L 1100 3525 
L 1100 2275 
L 2375 2275 
z
M 4350 2050 
Q 4500 1750 4700 1275 
Q 4525 1200 4225 1025 
Q 4050 1500 3900 1837 
Q 3750 2175 3600 2400 
Q 3775 2500 4050 2650 
L 4350 2050 
z
" transform="scale(0.015625)"/>
      <path id="SimHei-5bf9" d="M 525 4250 
Q 900 4225 1400 4225 
L 2825 4225 
Q 2575 2625 2200 1750 
Q 2825 875 3125 400 
Q 2950 275 2725 75 
Q 2200 975 1950 1300 
Q 1650 775 1350 425 
Q 1050 75 600 -350 
Q 425 -125 200 -25 
Q 625 275 975 675 
Q 1325 1075 1650 1700 
Q 1050 2425 550 2900 
Q 700 3025 900 3225 
Q 1625 2425 1875 2150 
Q 2200 3050 2300 3825 
L 1400 3825 
Q 900 3825 525 3800 
L 525 4250 
z
M 2925 3700 
Q 3525 3675 3750 3675 
L 4825 3675 
L 4825 4425 
Q 4825 4750 4775 5125 
L 5350 5125 
Q 5325 4825 5325 4375 
L 5325 3675 
Q 5575 3675 6150 3700 
L 6150 3250 
Q 5575 3275 5325 3275 
L 5325 125 
Q 5350 -350 5012 -475 
Q 4675 -600 4250 -650 
Q 4175 -350 4025 -100 
Q 4575 -100 4712 -37 
Q 4850 25 4825 325 
L 4825 3275 
L 3775 3275 
Q 3550 3275 2925 3225 
L 2925 3700 
z
M 3450 2725 
Q 3875 1975 4175 1325 
Q 3850 1200 3700 1075 
Q 3475 1750 3050 2475 
Q 3225 2550 3450 2725 
z
" transform="scale(0.015625)"/>
      <path id="SimHei-7a33" d="M 4050 5125 
Q 3875 4975 3675 4625 
L 5325 4625 
Q 5200 4450 5062 4212 
Q 4925 3975 4800 3650 
L 5625 3650 
Q 5600 3350 5600 2600 
Q 5600 1875 5625 1425 
L 3425 1425 
Q 3075 1425 2750 1400 
L 2750 1850 
Q 3075 1825 3450 1825 
L 5100 1825 
L 5100 2375 
L 3550 2375 
Q 3175 2375 2875 2350 
L 2875 2775 
Q 3175 2750 3525 2750 
L 5100 2750 
L 5100 3275 
L 3775 3275 
Q 3350 3275 3050 3250 
L 3050 3650 
Q 2875 3425 2725 3200 
Q 2525 3400 2350 3475 
Q 2675 3875 2987 4412 
Q 3300 4950 3400 5300 
Q 3725 5200 4050 5125 
z
M 2500 4575 
Q 2275 4575 2012 4512 
Q 1750 4450 1625 4450 
L 1625 3350 
Q 1975 3350 2375 3375 
L 2375 2950 
Q 1925 2975 1625 2975 
L 1625 2225 
Q 1775 2325 1950 2500 
Q 2225 2100 2525 1600 
Q 2300 1500 2150 1350 
Q 1950 1725 1625 2175 
L 1625 400 
Q 1625 25 1650 -625 
L 1150 -625 
Q 1200 25 1200 400 
L 1200 2075 
Q 875 1250 475 650 
Q 375 925 175 1125 
Q 325 1250 650 1887 
Q 975 2525 1050 2975 
Q 750 2975 275 2950 
L 275 3375 
Q 750 3350 1200 3350 
L 1200 4325 
Q 950 4275 550 4200 
Q 475 4425 275 4625 
Q 750 4675 1237 4775 
Q 1725 4875 2125 5075 
Q 2275 4775 2500 4575 
z
M 3675 1025 
Q 3650 700 3650 300 
Q 3650 -75 3775 -100 
Q 3900 -125 4250 -125 
Q 4600 -125 4687 -100 
Q 4775 -75 4825 425 
Q 5025 275 5350 200 
Q 5150 -450 4950 -500 
Q 4750 -550 4175 -550 
Q 3625 -550 3425 -487 
Q 3225 -425 3225 -100 
L 3225 525 
Q 3225 775 3200 1025 
L 3675 1025 
z
M 3050 3675 
Q 3325 3650 3775 3650 
L 4275 3650 
Q 4450 4000 4575 4275 
L 3425 4275 
Q 3275 4050 3050 3675 
z
M 2925 900 
Q 2800 725 2700 287 
Q 2600 -150 2550 -300 
Q 2325 -200 2075 -175 
Q 2225 200 2275 412 
Q 2325 625 2425 1000 
L 2925 900 
z
M 5575 1100 
Q 5950 475 6175 50 
Q 5950 -25 5750 -175 
Q 5625 175 5200 925 
Q 5425 975 5575 1100 
z
M 4225 1300 
Q 4525 825 4625 525 
Q 4550 500 4250 350 
Q 4150 700 3850 1125 
Q 4050 1200 4225 1300 
z
" transform="scale(0.015625)"/>
      <path id="SimHei-5b9a" d="M 4200 3125 
Q 4675 3125 5175 3150 
L 5175 2675 
Q 4725 2700 4100 2700 
L 3550 2700 
L 3550 1700 
L 4600 1700 
Q 4875 1700 5375 1725 
L 5375 1250 
Q 4875 1275 4575 1275 
L 3550 1275 
L 3550 100 
Q 4600 -25 6050 125 
Q 5850 -200 5800 -475 
Q 4800 -475 4150 -450 
Q 3500 -425 3050 -300 
Q 2600 -175 2250 75 
Q 1900 325 1600 675 
Q 1200 -50 675 -575 
Q 450 -350 175 -250 
Q 875 300 1200 1050 
Q 1525 1800 1550 2200 
Q 1800 2050 2150 1975 
Q 2075 1875 1987 1662 
Q 1900 1450 1775 1125 
Q 1950 900 2300 612 
Q 2650 325 3050 200 
L 3050 2700 
L 2250 2700 
Q 1825 2700 1400 2675 
L 1400 3150 
Q 1825 3125 2400 3125 
L 4200 3125 
z
M 5750 4275 
Q 5725 3925 5725 3750 
Q 5725 3575 5750 3275 
L 5225 3275 
L 5225 3875 
L 1225 3875 
L 1225 3275 
L 700 3275 
Q 725 3475 725 3725 
Q 725 3975 700 4275 
L 5750 4275 
z
M 2650 5050 
Q 2875 5125 3100 5300 
Q 3375 4975 3600 4550 
Q 3250 4400 3100 4300 
Q 3050 4525 2650 5050 
z
" transform="scale(0.015625)"/>
      <path id="SimHei-6027" d="M 3450 4525 
Q 3325 4075 3275 3750 
L 4050 3750 
L 4050 4275 
Q 4050 4700 4025 5100 
L 4550 5100 
Q 4525 4700 4525 4275 
L 4525 3750 
L 5025 3750 
Q 5350 3750 5800 3775 
L 5800 3300 
Q 5350 3325 5025 3325 
L 4525 3325 
L 4525 2000 
L 4975 2000 
Q 5350 2000 5725 2025 
L 5725 1550 
Q 5350 1575 4975 1575 
L 4525 1575 
L 4525 25 
L 5200 25 
Q 5625 25 6025 50 
L 6025 -400 
Q 5625 -375 5200 -375 
L 3275 -375 
Q 2825 -375 2400 -400 
L 2400 50 
Q 2825 25 3250 25 
L 4050 25 
L 4050 1575 
L 3625 1575 
Q 3300 1575 2875 1550 
L 2875 2025 
Q 3200 2000 3625 2000 
L 4050 2000 
L 4050 3325 
L 3175 3325 
Q 3100 2950 2775 2225 
Q 2500 2375 2325 2400 
Q 2675 3125 2775 3650 
Q 2875 4175 2950 4650 
Q 3200 4575 3450 4525 
z
M 1700 5150 
Q 1675 4650 1675 4175 
L 1675 425 
Q 1675 -100 1700 -625 
L 1175 -625 
Q 1200 -100 1200 425 
L 1200 4175 
Q 1200 4700 1175 5150 
L 1700 5150 
z
M 975 3725 
Q 825 2675 700 2150 
Q 450 2200 250 2250 
Q 425 2900 525 3800 
Q 725 3775 975 3725 
z
M 2125 4025 
Q 2325 3625 2525 3000 
Q 2300 2925 2125 2825 
Q 1950 3375 1750 3850 
Q 1950 3950 2125 4025 
z
" transform="scale(0.015625)"/>
      <path id="SimHei-5f71" d="M 3550 5025 
Q 3500 4625 3512 4187 
Q 3525 3750 3550 3325 
L 775 3325 
Q 800 3750 787 4187 
Q 775 4625 775 5025 
L 3550 5025 
z
M 1450 -100 
Q 2050 -75 1975 200 
L 1975 1100 
L 775 1100 
Q 800 1375 787 1650 
Q 775 1925 775 2225 
L 3550 2225 
Q 3525 1925 3512 1650 
Q 3500 1375 3550 1100 
L 2475 1100 
L 2475 175 
Q 2500 -250 2300 -375 
Q 2100 -500 1625 -600 
Q 1575 -325 1450 -100 
z
M 2375 3250 
Q 2400 3075 2425 2875 
L 3175 2875 
Q 3600 2875 4050 2900 
L 4050 2475 
Q 3600 2500 3175 2500 
L 1200 2500 
Q 700 2500 275 2475 
L 275 2900 
Q 700 2875 1200 2875 
L 1900 2875 
Q 1875 3025 1850 3200 
Q 2100 3250 2375 3250 
z
M 6150 1350 
Q 5675 775 5000 225 
Q 4325 -325 3725 -650 
Q 3575 -400 3400 -250 
Q 3975 25 4600 500 
Q 5225 975 5775 1725 
Q 5950 1525 6150 1350 
z
M 5925 3125 
Q 5625 2850 5212 2362 
Q 4800 1875 4200 1425 
Q 4025 1625 3800 1725 
Q 4375 2050 4787 2525 
Q 5200 3000 5525 3500 
Q 5675 3325 5925 3125 
z
M 5725 4825 
Q 5325 4550 5037 4162 
Q 4750 3775 4175 3275 
Q 3975 3450 3800 3550 
Q 4175 3825 4550 4237 
Q 4925 4650 5225 5175 
Q 5425 5000 5725 4825 
z
M 3075 1475 
L 3075 1850 
L 1250 1850 
L 1250 1475 
L 3075 1475 
z
M 3075 3700 
L 3075 4000 
L 1250 4000 
L 1250 3700 
L 3075 3700 
z
M 3075 4375 
L 3075 4675 
L 1250 4675 
L 1250 4375 
L 3075 4375 
z
M 1500 500 
Q 1075 75 575 -325 
Q 475 -175 275 -25 
Q 700 250 1125 825 
Q 1300 625 1500 500 
z
M 3250 -50 
Q 3050 275 2750 550 
Q 2900 700 3075 850 
Q 3400 525 3600 250 
L 3250 -50 
z
" transform="scale(0.015625)"/>
      <path id="SimHei-54cd" d="M 4150 5125 
Q 4000 4975 3850 4325 
L 5875 4325 
Q 5850 3800 5850 3325 
L 5850 50 
Q 5825 -225 5625 -350 
Q 5425 -475 4850 -550 
Q 4850 -325 4600 25 
Q 5125 25 5237 62 
Q 5350 100 5350 225 
L 5350 3950 
L 2950 3950 
L 2950 -575 
L 2450 -575 
Q 2475 -75 2475 450 
L 2475 3125 
Q 2475 3750 2450 4325 
L 3350 4325 
Q 3475 4775 3525 5250 
Q 3950 5150 4150 5125 
z
M 4875 900 
L 3425 900 
L 3425 3100 
L 4875 3100 
L 4875 900 
z
M 4450 1275 
L 4450 2700 
L 3875 2700 
L 3875 1275 
L 4450 1275 
z
M 2075 4500 
Q 2050 3975 2050 3425 
L 2050 1750 
Q 2050 1250 2075 600 
L 1650 600 
L 1650 1050 
L 950 1050 
L 950 275 
L 500 275 
Q 525 750 525 1275 
L 525 3425 
Q 525 3975 500 4500 
L 2075 4500 
z
M 1650 1400 
L 1650 4125 
L 950 4125 
L 950 1400 
L 1650 1400 
z
" transform="scale(0.015625)"/>
     </defs>
     <use xlink:href="#SimHei-8ba8"/>
     <use xlink:href="#SimHei-8bba" x="100"/>
     <use xlink:href="#SimHei-4e0d" x="200"/>
     <use xlink:href="#SimHei-540c" x="300"/>
     <use xlink:href="#SimHei-957f" x="400"/>
     <use xlink:href="#SimHei-5ea6" x="500"/>
     <use xlink:href="#SimHei-7684" x="600"/>
     <use xlink:href="#SimHei-5e8f" x="700"/>
     <use xlink:href="#SimHei-5217" x="800"/>
     <use xlink:href="#SimHei-5bf9" x="900"/>
     <use xlink:href="#SimHei-4e0d" x="1000"/>
     <use xlink:href="#SimHei-7a33" x="1100"/>
     <use xlink:href="#SimHei-5b9a" x="1200"/>
     <use xlink:href="#SimHei-6027" x="1300"/>
     <use xlink:href="#SimHei-7684" x="1400"/>
     <use xlink:href="#SimHei-5f71" x="1500"/>
     <use xlink:href="#SimHei-54cd" x="1600"/>
    </g>
   </g>
   <g id="legend_1">
    <g id="patch_7">
     <path d="M 309.7 114.096875 
L 406.7 114.096875 
Q 408.7 114.096875 408.7 112.096875 
L 408.7 33.440625 
Q 408.7 31.440625 406.7 31.440625 
L 309.7 31.440625 
Q 307.7 31.440625 307.7 33.440625 
L 307.7 112.096875 
Q 307.7 114.096875 309.7 114.096875 
z
" style="fill: #ffffff; opacity: 0.8; stroke: #cccccc; stroke-linejoin: miter"/>
    </g>
    <g id="line2d_21">
     <path d="M 311.7 38.940625 
L 321.7 38.940625 
L 331.7 38.940625 
" style="fill: none; stroke: #1f77b4; stroke-width: 2; stroke-linecap: square"/>
    </g>
    <g id="text_18">
     <!-- EU -->
     <g transform="translate(339.7 42.440625)scale(0.1 -0.1)">
      <defs>
       <path id="SimHei-45" d="M 2900 125 
L 350 125 
L 350 4400 
L 2775 4400 
L 2775 3925 
L 925 3925 
L 925 2600 
L 2625 2600 
L 2625 2125 
L 925 2125 
L 925 600 
L 2900 600 
L 2900 125 
z
" transform="scale(0.015625)"/>
       <path id="SimHei-55" d="M 2875 1375 
Q 2875 775 2562 425 
Q 2250 75 1575 75 
Q 900 75 587 425 
Q 275 775 275 1375 
L 275 4400 
L 850 4400 
L 850 1375 
Q 850 950 1050 750 
Q 1250 550 1575 550 
Q 1900 550 2100 750 
Q 2300 950 2300 1375 
L 2300 4400 
L 2875 4400 
L 2875 1375 
z
" transform="scale(0.015625)"/>
      </defs>
      <use xlink:href="#SimHei-45"/>
      <use xlink:href="#SimHei-55" x="50"/>
     </g>
    </g>
    <g id="line2d_22">
     <path d="M 311.7 52.190625 
L 321.7 52.190625 
L 331.7 52.190625 
" style="fill: none; stroke: #ff7f0e; stroke-width: 3; stroke-linecap: square"/>
    </g>
    <g id="text_19">
     <!-- VGaDis -->
     <g transform="translate(339.7 55.690625)scale(0.1 -0.1)">
      <defs>
       <path id="SimHei-56" d="M 3050 4400 
L 1800 75 
L 1300 75 
L 50 4400 
L 650 4400 
L 1525 1125 
L 1575 1125 
L 2450 4400 
L 3050 4400 
z
" transform="scale(0.015625)"/>
       <path id="SimHei-47" d="M 2850 75 
L 2425 75 
L 2350 425 
Q 2250 275 2037 175 
Q 1825 75 1575 75 
Q 1050 75 637 562 
Q 225 1050 225 2125 
Q 225 3300 600 3875 
Q 975 4450 1625 4450 
Q 2200 4450 2525 4025 
Q 2850 3600 2850 2925 
L 2300 2925 
Q 2300 3450 2125 3712 
Q 1950 3975 1625 3975 
Q 1225 3975 1025 3562 
Q 825 3150 825 2175 
Q 825 1250 1075 900 
Q 1325 550 1650 550 
Q 1975 550 2162 787 
Q 2350 1025 2350 1525 
L 2350 1800 
L 1575 1800 
L 1575 2275 
L 2850 2275 
L 2850 75 
z
" transform="scale(0.015625)"/>
       <path id="SimHei-44" d="M 2925 2250 
Q 2925 1100 2437 612 
Q 1950 125 1125 125 
L 275 125 
L 275 4400 
L 1125 4400 
Q 2050 4400 2487 3900 
Q 2925 3400 2925 2250 
z
M 2325 2250 
Q 2325 3175 2025 3550 
Q 1725 3925 1125 3925 
L 850 3925 
L 850 600 
L 1125 600 
Q 1725 600 2025 962 
Q 2325 1325 2325 2250 
z
" transform="scale(0.015625)"/>
      </defs>
      <use xlink:href="#SimHei-56"/>
      <use xlink:href="#SimHei-47" x="50"/>
      <use xlink:href="#SimHei-61" x="100"/>
      <use xlink:href="#SimHei-44" x="150"/>
      <use xlink:href="#SimHei-69" x="200"/>
      <use xlink:href="#SimHei-73" x="250"/>
     </g>
    </g>
    <g id="line2d_23">
     <path d="M 311.7 65.440625 
L 321.7 65.440625 
L 331.7 65.440625 
" style="fill: none; stroke: #2ca02c; stroke-width: 2; stroke-linecap: square"/>
    </g>
    <g id="text_20">
     <!-- Manhattan -->
     <g transform="translate(339.7 68.940625)scale(0.1 -0.1)">
      <defs>
       <path id="SimHei-4d" d="M 2925 125 
L 2425 125 
L 2425 3175 
L 2375 3175 
L 1775 125 
L 1375 125 
L 775 3175 
L 725 3175 
L 725 125 
L 225 125 
L 225 4400 
L 1000 4400 
L 1550 1575 
L 1600 1575 
L 2150 4400 
L 2925 4400 
L 2925 125 
z
" transform="scale(0.015625)"/>
       <path id="SimHei-6e" d="M 2800 125 
L 2300 125 
L 2300 1925 
Q 2300 2225 2150 2400 
Q 2000 2575 1750 2575 
Q 1425 2575 1137 2237 
Q 850 1900 850 1400 
L 850 125 
L 350 125 
L 350 2925 
L 850 2925 
L 850 2400 
Q 1050 2675 1287 2825 
Q 1525 2975 1900 2975 
Q 2350 2975 2575 2725 
Q 2800 2475 2800 2100 
L 2800 125 
z
" transform="scale(0.015625)"/>
       <path id="SimHei-68" d="M 2800 125 
L 2300 125 
L 2300 1925 
Q 2300 2225 2150 2400 
Q 2000 2575 1750 2575 
Q 1425 2575 1137 2237 
Q 850 1900 850 1400 
L 850 125 
L 350 125 
L 350 4400 
L 850 4400 
L 850 2400 
Q 1050 2675 1287 2825 
Q 1525 2975 1900 2975 
Q 2350 2975 2575 2725 
Q 2800 2475 2800 2100 
L 2800 125 
z
" transform="scale(0.015625)"/>
       <path id="SimHei-74" d="M 2750 200 
Q 2625 150 2462 112 
Q 2300 75 2025 75 
Q 1575 75 1300 325 
Q 1025 575 1025 1025 
L 1025 2525 
L 175 2525 
L 175 2925 
L 1025 2925 
L 1025 3900 
L 1525 3900 
L 1525 2925 
L 2550 2925 
L 2550 2525 
L 1525 2525 
L 1525 1000 
Q 1525 800 1625 662 
Q 1725 525 2000 525 
Q 2275 525 2450 575 
Q 2625 625 2750 700 
L 2750 200 
z
" transform="scale(0.015625)"/>
      </defs>
      <use xlink:href="#SimHei-4d"/>
      <use xlink:href="#SimHei-61" x="50"/>
      <use xlink:href="#SimHei-6e" x="100"/>
      <use xlink:href="#SimHei-68" x="150"/>
      <use xlink:href="#SimHei-61" x="200"/>
      <use xlink:href="#SimHei-74" x="250"/>
      <use xlink:href="#SimHei-74" x="300"/>
      <use xlink:href="#SimHei-61" x="350"/>
      <use xlink:href="#SimHei-6e" x="400"/>
     </g>
    </g>
    <g id="line2d_24">
     <path d="M 311.7 78.690625 
L 321.7 78.690625 
L 331.7 78.690625 
" style="fill: none; stroke: #d62728; stroke-width: 2; stroke-linecap: square"/>
    </g>
    <g id="text_21">
     <!-- VGdDis -->
     <g transform="translate(339.7 82.190625)scale(0.1 -0.1)">
      <use xlink:href="#SimHei-56"/>
      <use xlink:href="#SimHei-47" x="50"/>
      <use xlink:href="#SimHei-64" x="100"/>
      <use xlink:href="#SimHei-44" x="150"/>
      <use xlink:href="#SimHei-69" x="200"/>
      <use xlink:href="#SimHei-73" x="250"/>
     </g>
    </g>
    <g id="line2d_25">
     <path d="M 311.7 91.940625 
L 321.7 91.940625 
L 331.7 91.940625 
" style="fill: none; stroke: #9467bd; stroke-width: 2; stroke-linecap: square"/>
    </g>
    <g id="text_22">
     <!-- dtw_Manhattan -->
     <g transform="translate(339.7 95.440625)scale(0.1 -0.1)">
      <defs>
       <path id="SimHei-77" d="M 3075 2925 
L 2450 75 
L 1975 75 
L 1575 2250 
L 1525 2250 
L 1125 75 
L 650 75 
L 25 2925 
L 550 2925 
L 875 1050 
L 925 1050 
L 1275 2925 
L 1825 2925 
L 2175 1050 
L 2225 1050 
L 2550 2925 
L 3075 2925 
z
" transform="scale(0.015625)"/>
       <path id="SimHei-5f" d="M 3150 -850 
L 0 -850 
L 0 -550 
L 3150 -550 
L 3150 -850 
z
" transform="scale(0.015625)"/>
      </defs>
      <use xlink:href="#SimHei-64"/>
      <use xlink:href="#SimHei-74" x="50"/>
      <use xlink:href="#SimHei-77" x="100"/>
      <use xlink:href="#SimHei-5f" x="150"/>
      <use xlink:href="#SimHei-4d" x="200"/>
      <use xlink:href="#SimHei-61" x="250"/>
      <use xlink:href="#SimHei-6e" x="300"/>
      <use xlink:href="#SimHei-68" x="350"/>
      <use xlink:href="#SimHei-61" x="400"/>
      <use xlink:href="#SimHei-74" x="450"/>
      <use xlink:href="#SimHei-74" x="500"/>
      <use xlink:href="#SimHei-61" x="550"/>
      <use xlink:href="#SimHei-6e" x="600"/>
     </g>
    </g>
    <g id="line2d_26">
     <path d="M 311.7 105.26875 
L 321.7 105.26875 
L 331.7 105.26875 
" style="fill: none; stroke: #8c564b; stroke-width: 2; stroke-linecap: square"/>
    </g>
    <g id="text_23">
     <!-- dtw_EU -->
     <g transform="translate(339.7 108.76875)scale(0.1 -0.1)">
      <use xlink:href="#SimHei-64"/>
      <use xlink:href="#SimHei-74" x="50"/>
      <use xlink:href="#SimHei-77" x="100"/>
      <use xlink:href="#SimHei-5f" x="150"/>
      <use xlink:href="#SimHei-45" x="200"/>
      <use xlink:href="#SimHei-55" x="250"/>
     </g>
    </g>
   </g>
  </g>
 </g>
 <defs>
  <clipPath id="pd6262fdcdd">
   <rect x="51.315625" y="26.440625" width="362.384375" height="222.4625"/>
  </clipPath>
 </defs>
</svg>
