<?xml version="1.0" encoding="utf-8" standalone="no"?>
<!DOCTYPE svg PUBLIC "-//W3C//DTD SVG 1.1//EN"
  "http://www.w3.org/Graphics/SVG/1.1/DTD/svg11.dtd">
<svg xmlns:xlink="http://www.w3.org/1999/xlink" width="432pt" height="288pt" viewBox="0 0 432 288" xmlns="http://www.w3.org/2000/svg" version="1.1">
 <metadata>
  <rdf:RDF xmlns:dc="http://purl.org/dc/elements/1.1/" xmlns:cc="http://creativecommons.org/ns#" xmlns:rdf="http://www.w3.org/1999/02/22-rdf-syntax-ns#">
   <cc:Work>
    <dc:type rdf:resource="http://purl.org/dc/dcmitype/StillImage"/>
    <dc:date>2023-03-27T18:36:38.082232</dc:date>
    <dc:format>image/svg+xml</dc:format>
    <dc:creator>
     <cc:Agent>
      <dc:title>Matplotlib v3.5.2, https://matplotlib.org/</dc:title>
     </cc:Agent>
    </dc:creator>
   </cc:Work>
  </rdf:RDF>
 </metadata>
 <defs>
  <style type="text/css">*{stroke-linejoin: round; stroke-linecap: butt}</style>
 </defs>
 <g id="figure_1">
  <g id="patch_1">
   <path d="M 0 288 
L 432 288 
L 432 0 
L 0 0 
L 0 288 
z
" style="fill: none"/>
  </g>
  <g id="axes_1">
   <g id="patch_2">
    <path d="M 54 252 
L 388.8 252 
L 388.8 34.56 
L 54 34.56 
z
" style="fill: #ffffff"/>
   </g>
   <g id="matplotlib.axis_1">
    <g id="xtick_1">
     <g id="line2d_1">
      <defs>
       <path id="m5e7ceeeaa8" d="M 0 0 
L 0 3.5 
" style="stroke: #000000; stroke-width: 0.8"/>
      </defs>
      <g>
       <use xlink:href="#m5e7ceeeaa8" x="89.871429" y="252" style="stroke: #000000; stroke-width: 0.8"/>
      </g>
     </g>
     <g id="text_1">
      <!-- 25 -->
      <g transform="translate(84.871429 265.875)scale(0.1 -0.1)">
       <defs>
        <path id="SimHei-32" d="M 300 250 
Q 325 625 650 925 
Q 975 1225 1475 1862 
Q 1975 2500 2125 2850 
Q 2275 3200 2237 3450 
Q 2200 3700 2000 3862 
Q 1800 4025 1537 4000 
Q 1275 3975 1037 3800 
Q 800 3625 675 3275 
L 200 3350 
Q 400 3925 712 4187 
Q 1025 4450 1450 4475 
Q 1700 4500 1900 4462 
Q 2100 4425 2312 4287 
Q 2525 4150 2662 3875 
Q 2800 3600 2762 3212 
Q 2725 2825 2375 2287 
Q 2025 1750 1025 600 
L 2825 600 
L 2825 150 
L 300 150 
L 300 250 
z
" transform="scale(0.015625)"/>
        <path id="SimHei-35" d="M 550 1325 
Q 725 650 1150 575 
Q 1575 500 1837 662 
Q 2100 825 2212 1087 
Q 2325 1350 2312 1675 
Q 2300 2000 2137 2225 
Q 1975 2450 1725 2525 
Q 1475 2600 1162 2525 
Q 850 2450 650 2175 
L 225 2225 
Q 275 2375 700 4375 
L 2675 4375 
L 2675 3925 
L 1075 3925 
Q 950 3250 825 2850 
Q 1200 3025 1525 3012 
Q 1850 3000 2150 2862 
Q 2450 2725 2587 2487 
Q 2725 2250 2787 2012 
Q 2850 1775 2837 1500 
Q 2825 1225 2725 937 
Q 2625 650 2425 462 
Q 2225 275 1937 162 
Q 1650 50 1275 75 
Q 900 100 562 350 
Q 225 600 100 1200 
L 550 1325 
z
" transform="scale(0.015625)"/>
       </defs>
       <use xlink:href="#SimHei-32"/>
       <use xlink:href="#SimHei-35" x="50"/>
      </g>
     </g>
    </g>
    <g id="xtick_2">
     <g id="line2d_2">
      <g>
       <use xlink:href="#m5e7ceeeaa8" x="132.57551" y="252" style="stroke: #000000; stroke-width: 0.8"/>
      </g>
     </g>
     <g id="text_2">
      <!-- 50 -->
      <g transform="translate(127.57551 265.875)scale(0.1 -0.1)">
       <defs>
        <path id="SimHei-30" d="M 225 2537 
Q 250 3200 412 3587 
Q 575 3975 875 4225 
Q 1175 4475 1612 4475 
Q 2050 4475 2375 4112 
Q 2700 3750 2800 3200 
Q 2900 2650 2862 1937 
Q 2825 1225 2612 775 
Q 2400 325 1975 150 
Q 1550 -25 1125 187 
Q 700 400 525 750 
Q 350 1100 275 1487 
Q 200 1875 225 2537 
z
M 750 2687 
Q 675 2000 800 1462 
Q 925 925 1212 700 
Q 1500 475 1800 612 
Q 2100 750 2237 1162 
Q 2375 1575 2375 2062 
Q 2375 2550 2337 2950 
Q 2300 3350 2112 3675 
Q 1925 4000 1612 4012 
Q 1300 4025 1062 3700 
Q 825 3375 750 2687 
z
" transform="scale(0.015625)"/>
       </defs>
       <use xlink:href="#SimHei-35"/>
       <use xlink:href="#SimHei-30" x="50"/>
      </g>
     </g>
    </g>
    <g id="xtick_3">
     <g id="line2d_3">
      <g>
       <use xlink:href="#m5e7ceeeaa8" x="175.279592" y="252" style="stroke: #000000; stroke-width: 0.8"/>
      </g>
     </g>
     <g id="text_3">
      <!-- 75 -->
      <g transform="translate(170.279592 265.875)scale(0.1 -0.1)">
       <defs>
        <path id="SimHei-37" d="M 850 150 
Q 1300 2050 2425 3925 
L 275 3925 
L 275 4375 
L 2950 4375 
L 2950 3950 
Q 1775 2050 1400 150 
L 850 150 
z
" transform="scale(0.015625)"/>
       </defs>
       <use xlink:href="#SimHei-37"/>
       <use xlink:href="#SimHei-35" x="50"/>
      </g>
     </g>
    </g>
    <g id="xtick_4">
     <g id="line2d_4">
      <g>
       <use xlink:href="#m5e7ceeeaa8" x="217.983673" y="252" style="stroke: #000000; stroke-width: 0.8"/>
      </g>
     </g>
     <g id="text_4">
      <!-- 100 -->
      <g transform="translate(210.483673 265.875)scale(0.1 -0.1)">
       <defs>
        <path id="SimHei-31" d="M 1400 3600 
Q 1075 3275 575 2975 
L 575 3450 
Q 1200 3875 1600 4450 
L 1900 4450 
L 1900 150 
L 1400 150 
L 1400 3600 
z
" transform="scale(0.015625)"/>
       </defs>
       <use xlink:href="#SimHei-31"/>
       <use xlink:href="#SimHei-30" x="50"/>
       <use xlink:href="#SimHei-30" x="100"/>
      </g>
     </g>
    </g>
    <g id="xtick_5">
     <g id="line2d_5">
      <g>
       <use xlink:href="#m5e7ceeeaa8" x="260.687755" y="252" style="stroke: #000000; stroke-width: 0.8"/>
      </g>
     </g>
     <g id="text_5">
      <!-- 125 -->
      <g transform="translate(253.187755 265.875)scale(0.1 -0.1)">
       <use xlink:href="#SimHei-31"/>
       <use xlink:href="#SimHei-32" x="50"/>
       <use xlink:href="#SimHei-35" x="100"/>
      </g>
     </g>
    </g>
    <g id="xtick_6">
     <g id="line2d_6">
      <g>
       <use xlink:href="#m5e7ceeeaa8" x="303.391837" y="252" style="stroke: #000000; stroke-width: 0.8"/>
      </g>
     </g>
     <g id="text_6">
      <!-- 150 -->
      <g transform="translate(295.891837 265.875)scale(0.1 -0.1)">
       <use xlink:href="#SimHei-31"/>
       <use xlink:href="#SimHei-35" x="50"/>
       <use xlink:href="#SimHei-30" x="100"/>
      </g>
     </g>
    </g>
    <g id="xtick_7">
     <g id="line2d_7">
      <g>
       <use xlink:href="#m5e7ceeeaa8" x="346.095918" y="252" style="stroke: #000000; stroke-width: 0.8"/>
      </g>
     </g>
     <g id="text_7">
      <!-- 175 -->
      <g transform="translate(338.595918 265.875)scale(0.1 -0.1)">
       <use xlink:href="#SimHei-31"/>
       <use xlink:href="#SimHei-37" x="50"/>
       <use xlink:href="#SimHei-35" x="100"/>
      </g>
     </g>
    </g>
    <g id="xtick_8">
     <g id="line2d_8">
      <g>
       <use xlink:href="#m5e7ceeeaa8" x="388.8" y="252" style="stroke: #000000; stroke-width: 0.8"/>
      </g>
     </g>
     <g id="text_8">
      <!-- 200 -->
      <g transform="translate(381.3 265.875)scale(0.1 -0.1)">
       <use xlink:href="#SimHei-32"/>
       <use xlink:href="#SimHei-30" x="50"/>
       <use xlink:href="#SimHei-30" x="100"/>
      </g>
     </g>
    </g>
    <g id="text_9">
     <!-- 序列长度 -->
     <g transform="translate(201.4 279.171875)scale(0.1 -0.1)">
      <defs>
       <path id="SimHei-5e8f" d="M 4000 2075 
L 5975 2075 
Q 5750 1525 5575 1025 
Q 5325 1100 5050 1150 
Q 5175 1450 5275 1700 
L 4050 1700 
L 4050 150 
Q 4050 -375 3762 -462 
Q 3475 -550 2950 -575 
Q 2875 -300 2750 0 
Q 3350 -75 3475 25 
Q 3600 125 3575 375 
L 3575 1700 
L 2450 1700 
Q 2050 1700 1675 1675 
L 1675 2100 
Q 2100 2075 2425 2075 
L 3675 2075 
Q 3325 2400 2875 2775 
Q 2975 2875 3250 3100 
Q 3400 2975 3725 2725 
L 4575 3275 
L 3000 3275 
Q 2400 3275 1950 3250 
L 1950 3700 
Q 2400 3675 3000 3675 
L 5400 3675 
L 5400 3250 
Q 4700 2875 4025 2450 
L 4275 2250 
L 4000 2075 
z
M 3725 5275 
Q 3825 4925 3925 4525 
L 4850 4525 
Q 5425 4525 6000 4550 
L 6000 4125 
Q 5425 4150 4850 4150 
L 1400 4150 
Q 1400 2750 1362 2137 
Q 1325 1525 1200 887 
Q 1075 250 775 -350 
Q 625 -250 250 -125 
Q 475 300 600 700 
Q 725 1100 800 1637 
Q 875 2175 875 2825 
Q 875 3500 850 4525 
L 3350 4525 
Q 3275 4825 3150 5150 
Q 3425 5200 3725 5275 
z
" transform="scale(0.015625)"/>
       <path id="SimHei-5217" d="M 2950 4800 
Q 3525 4800 3825 4825 
L 3825 4400 
Q 3525 4425 2800 4425 
L 2125 4425 
Q 2075 4125 1925 3500 
L 3425 3500 
Q 3300 2500 3100 1862 
Q 2900 1225 2575 762 
Q 2250 300 1850 -12 
Q 1450 -325 925 -675 
Q 725 -375 475 -150 
Q 1125 125 1550 437 
Q 1975 750 2250 1225 
Q 2100 1350 1862 1550 
Q 1625 1750 1400 1925 
L 1750 2325 
Q 1925 2200 2100 2037 
Q 2275 1875 2500 1650 
Q 2650 2025 2737 2337 
Q 2825 2650 2875 3100 
L 1775 3100 
Q 1600 2650 1350 2237 
Q 1100 1825 775 1525 
Q 600 1675 325 1850 
Q 600 2125 825 2462 
Q 1050 2800 1200 3125 
Q 1350 3450 1425 3775 
Q 1500 4100 1550 4425 
L 1100 4425 
Q 575 4425 375 4400 
L 375 4825 
Q 575 4800 1125 4800 
L 2950 4800 
z
M 5975 5050 
Q 5925 4675 5925 4250 
L 5925 50 
Q 5925 -275 5737 -400 
Q 5550 -525 4900 -625 
Q 4825 -250 4650 25 
Q 5150 0 5287 25 
Q 5425 50 5425 325 
L 5425 4250 
Q 5425 4650 5400 5050 
L 5975 5050 
z
M 4725 4300 
Q 4675 4000 4675 3450 
L 4675 1650 
Q 4675 1200 4700 850 
L 4100 850 
Q 4150 1200 4150 1650 
L 4150 3550 
Q 4150 3975 4100 4300 
L 4725 4300 
z
" transform="scale(0.015625)"/>
       <path id="SimHei-957f" d="M 1750 2800 
L 1750 4450 
Q 1750 4675 1725 5100 
L 2275 5100 
Q 2250 4625 2250 4475 
L 2250 2800 
L 5275 2800 
Q 5600 2800 5975 2825 
L 5975 2325 
Q 5500 2350 5100 2350 
L 3650 2350 
Q 3825 1850 4187 1375 
Q 4550 900 5050 587 
Q 5550 275 5950 150 
Q 5625 -50 5450 -350 
Q 4925 -75 4475 300 
Q 4025 675 3675 1212 
Q 3325 1750 3150 2350 
L 2250 2350 
L 2250 375 
Q 2975 825 3225 1050 
Q 3400 775 3575 550 
Q 3100 325 2625 -12 
Q 2150 -350 1925 -575 
Q 1725 -300 1550 -100 
Q 1750 100 1750 425 
L 1750 2350 
L 1175 2350 
Q 825 2350 375 2325 
L 375 2825 
Q 825 2800 1125 2800 
L 1750 2800 
z
M 4900 4700 
Q 4625 4475 4087 3937 
Q 3550 3400 3025 2900 
Q 2800 3200 2650 3300 
Q 3075 3600 3600 4150 
Q 4125 4700 4400 5100 
Q 4600 4925 4900 4700 
z
" transform="scale(0.015625)"/>
       <path id="SimHei-5ea6" d="M 1750 1675 
Q 2450 1650 2875 1650 
L 5200 1650 
Q 4975 1250 4650 850 
Q 4325 450 4025 200 
Q 4350 50 4950 -50 
Q 5550 -150 6100 -150 
Q 5950 -300 5825 -650 
Q 5100 -550 4550 -412 
Q 4000 -275 3625 -100 
Q 3100 -325 2587 -462 
Q 2075 -600 1525 -675 
Q 1450 -475 1225 -250 
Q 1675 -250 2250 -125 
Q 2825 0 3250 200 
Q 2825 550 2400 1275 
L 1750 1250 
L 1750 1675 
z
M 2975 5075 
Q 3250 5150 3475 5250 
Q 3625 4975 3775 4525 
L 4700 4525 
Q 4975 4525 5700 4550 
L 5700 4100 
Q 5000 4125 4650 4125 
L 1375 4125 
Q 1375 3000 1350 2312 
Q 1325 1625 1212 950 
Q 1100 275 725 -525 
Q 500 -375 250 -300 
Q 650 400 762 1075 
Q 875 1750 887 2800 
Q 900 3850 875 4525 
L 3200 4525 
Q 3100 4850 2975 5075 
z
M 2475 3300 
Q 2475 3700 2450 3925 
L 2975 3925 
Q 2950 3725 2950 3300 
L 4300 3300 
Q 4300 3700 4275 3950 
L 4800 3950 
Q 4775 3650 4775 3300 
Q 5325 3300 5725 3325 
L 5725 2900 
Q 5350 2925 4775 2925 
Q 4775 2250 4800 1950 
L 2450 1950 
Q 2475 2350 2475 2925 
Q 2175 2925 1600 2900 
L 1600 3325 
Q 2175 3300 2475 3300 
z
M 4300 2350 
L 4300 2925 
L 2950 2925 
L 2950 2350 
L 4300 2350 
z
M 2875 1275 
Q 3200 775 3650 425 
Q 4025 700 4425 1275 
L 2900 1275 
L 2875 1275 
z
" transform="scale(0.015625)"/>
      </defs>
      <use xlink:href="#SimHei-5e8f"/>
      <use xlink:href="#SimHei-5217" x="100"/>
      <use xlink:href="#SimHei-957f" x="200"/>
      <use xlink:href="#SimHei-5ea6" x="300"/>
     </g>
    </g>
   </g>
   <g id="matplotlib.axis_2">
    <g id="ytick_1">
     <g id="line2d_9">
      <defs>
       <path id="m8b5d81b9d1" d="M 0 0 
L -3.5 0 
" style="stroke: #000000; stroke-width: 0.8"/>
      </defs>
      <g>
       <use xlink:href="#m8b5d81b9d1" x="54" y="242.116364" style="stroke: #000000; stroke-width: 0.8"/>
      </g>
     </g>
     <g id="text_10">
      <!-- 0.000 -->
      <g transform="translate(22 245.553864)scale(0.1 -0.1)">
       <defs>
        <path id="SimHei-2e" d="M 1075 125 
L 500 125 
L 500 675 
L 1075 675 
L 1075 125 
z
" transform="scale(0.015625)"/>
       </defs>
       <use xlink:href="#SimHei-30"/>
       <use xlink:href="#SimHei-2e" x="50"/>
       <use xlink:href="#SimHei-30" x="100"/>
       <use xlink:href="#SimHei-30" x="150"/>
       <use xlink:href="#SimHei-30" x="200"/>
      </g>
     </g>
    </g>
    <g id="ytick_2">
     <g id="line2d_10">
      <g>
       <use xlink:href="#m8b5d81b9d1" x="54" y="210.456185" style="stroke: #000000; stroke-width: 0.8"/>
      </g>
     </g>
     <g id="text_11">
      <!-- 0.005 -->
      <g transform="translate(22 213.893685)scale(0.1 -0.1)">
       <use xlink:href="#SimHei-30"/>
       <use xlink:href="#SimHei-2e" x="50"/>
       <use xlink:href="#SimHei-30" x="100"/>
       <use xlink:href="#SimHei-30" x="150"/>
       <use xlink:href="#SimHei-35" x="200"/>
      </g>
     </g>
    </g>
    <g id="ytick_3">
     <g id="line2d_11">
      <g>
       <use xlink:href="#m8b5d81b9d1" x="54" y="178.796007" style="stroke: #000000; stroke-width: 0.8"/>
      </g>
     </g>
     <g id="text_12">
      <!-- 0.010 -->
      <g transform="translate(22 182.233507)scale(0.1 -0.1)">
       <use xlink:href="#SimHei-30"/>
       <use xlink:href="#SimHei-2e" x="50"/>
       <use xlink:href="#SimHei-30" x="100"/>
       <use xlink:href="#SimHei-31" x="150"/>
       <use xlink:href="#SimHei-30" x="200"/>
      </g>
     </g>
    </g>
    <g id="ytick_4">
     <g id="line2d_12">
      <g>
       <use xlink:href="#m8b5d81b9d1" x="54" y="147.135828" style="stroke: #000000; stroke-width: 0.8"/>
      </g>
     </g>
     <g id="text_13">
      <!-- 0.015 -->
      <g transform="translate(22 150.573328)scale(0.1 -0.1)">
       <use xlink:href="#SimHei-30"/>
       <use xlink:href="#SimHei-2e" x="50"/>
       <use xlink:href="#SimHei-30" x="100"/>
       <use xlink:href="#SimHei-31" x="150"/>
       <use xlink:href="#SimHei-35" x="200"/>
      </g>
     </g>
    </g>
    <g id="ytick_5">
     <g id="line2d_13">
      <g>
       <use xlink:href="#m8b5d81b9d1" x="54" y="115.47565" style="stroke: #000000; stroke-width: 0.8"/>
      </g>
     </g>
     <g id="text_14">
      <!-- 0.020 -->
      <g transform="translate(22 118.91315)scale(0.1 -0.1)">
       <use xlink:href="#SimHei-30"/>
       <use xlink:href="#SimHei-2e" x="50"/>
       <use xlink:href="#SimHei-30" x="100"/>
       <use xlink:href="#SimHei-32" x="150"/>
       <use xlink:href="#SimHei-30" x="200"/>
      </g>
     </g>
    </g>
    <g id="ytick_6">
     <g id="line2d_14">
      <g>
       <use xlink:href="#m8b5d81b9d1" x="54" y="83.815471" style="stroke: #000000; stroke-width: 0.8"/>
      </g>
     </g>
     <g id="text_15">
      <!-- 0.025 -->
      <g transform="translate(22 87.252971)scale(0.1 -0.1)">
       <use xlink:href="#SimHei-30"/>
       <use xlink:href="#SimHei-2e" x="50"/>
       <use xlink:href="#SimHei-30" x="100"/>
       <use xlink:href="#SimHei-32" x="150"/>
       <use xlink:href="#SimHei-35" x="200"/>
      </g>
     </g>
    </g>
    <g id="ytick_7">
     <g id="line2d_15">
      <g>
       <use xlink:href="#m8b5d81b9d1" x="54" y="52.155293" style="stroke: #000000; stroke-width: 0.8"/>
      </g>
     </g>
     <g id="text_16">
      <!-- 0.030 -->
      <g transform="translate(22 55.592793)scale(0.1 -0.1)">
       <defs>
        <path id="SimHei-33" d="M 250 1225 
L 700 1300 
Q 800 975 1025 762 
Q 1250 550 1587 562 
Q 1925 575 2125 837 
Q 2325 1100 2300 1437 
Q 2275 1775 2037 1962 
Q 1800 2150 1275 2225 
L 1275 2550 
Q 1800 2600 2037 2825 
Q 2275 3050 2250 3412 
Q 2225 3775 1925 3937 
Q 1625 4100 1287 3975 
Q 950 3850 750 3275 
L 300 3350 
Q 450 3800 712 4100 
Q 975 4400 1425 4450 
Q 1875 4500 2212 4337 
Q 2550 4175 2687 3837 
Q 2825 3500 2725 3100 
Q 2625 2700 2150 2400 
Q 2500 2250 2687 1950 
Q 2875 1650 2812 1162 
Q 2750 675 2375 375 
Q 2000 75 1525 87 
Q 1050 100 700 387 
Q 350 675 250 1225 
z
" transform="scale(0.015625)"/>
       </defs>
       <use xlink:href="#SimHei-30"/>
       <use xlink:href="#SimHei-2e" x="50"/>
       <use xlink:href="#SimHei-30" x="100"/>
       <use xlink:href="#SimHei-33" x="150"/>
       <use xlink:href="#SimHei-30" x="200"/>
      </g>
     </g>
    </g>
    <g id="text_17">
     <!-- avg of abs(dis2-dis1)/(dis1+1) -->
     <g transform="translate(16.75 218.28)rotate(-90)scale(0.1 -0.1)">
      <defs>
       <path id="SimHei-61" d="M 2875 125 
L 2275 125 
Q 2225 175 2200 262 
Q 2175 350 2175 475 
Q 2000 275 1750 175 
Q 1500 75 1225 75 
Q 825 75 550 275 
Q 275 475 275 850 
Q 275 1225 525 1450 
Q 775 1675 1300 1750 
Q 1650 1800 1912 1875 
Q 2175 1950 2175 2075 
Q 2175 2225 2062 2375 
Q 1950 2525 1575 2525 
Q 1275 2525 1137 2412 
Q 1000 2300 950 2100 
L 400 2100 
Q 450 2500 762 2737 
Q 1075 2975 1575 2975 
Q 2125 2975 2400 2725 
Q 2675 2475 2675 2025 
L 2675 650 
Q 2675 500 2725 375 
Q 2775 250 2875 125 
z
M 2175 1050 
L 2175 1550 
Q 2025 1500 1887 1462 
Q 1750 1425 1425 1375 
Q 1050 1325 937 1200 
Q 825 1075 825 900 
Q 825 750 937 637 
Q 1050 525 1275 525 
Q 1500 525 1762 650 
Q 2025 775 2175 1050 
z
" transform="scale(0.015625)"/>
       <path id="SimHei-76" d="M 2875 2925 
L 1825 75 
L 1275 75 
L 225 2925 
L 750 2925 
L 1525 750 
L 1575 750 
L 2350 2925 
L 2875 2925 
z
" transform="scale(0.015625)"/>
       <path id="SimHei-67" d="M 2975 2500 
Q 2800 2550 2637 2562 
Q 2475 2575 2300 2525 
Q 2375 2450 2425 2337 
Q 2475 2225 2475 2000 
Q 2475 1575 2187 1300 
Q 1900 1025 1475 1025 
Q 1375 1025 1212 1062 
Q 1050 1100 950 1150 
Q 875 1100 850 1050 
Q 825 1000 825 925 
Q 825 800 1000 737 
Q 1175 675 1625 675 
Q 2350 675 2612 475 
Q 2875 275 2875 -25 
Q 2875 -425 2487 -612 
Q 2100 -800 1575 -800 
Q 900 -800 575 -625 
Q 250 -450 250 -150 
Q 250 0 375 150 
Q 500 300 700 400 
Q 550 475 462 587 
Q 375 700 375 875 
Q 375 1025 487 1137 
Q 600 1250 750 1325 
Q 625 1450 550 1625 
Q 475 1800 475 2000 
Q 475 2425 762 2700 
Q 1050 2975 1475 2975 
Q 1700 2975 1862 2912 
Q 2025 2850 2150 2725 
Q 2350 2875 2550 2937 
Q 2750 3000 2975 2975 
L 2975 2500 
z
M 1975 2000 
Q 1975 2250 1850 2400 
Q 1725 2550 1475 2550 
Q 1225 2550 1100 2400 
Q 975 2250 975 2000 
Q 975 1750 1100 1600 
Q 1225 1450 1475 1450 
Q 1725 1450 1850 1600 
Q 1975 1750 1975 2000 
z
M 2400 -75 
Q 2400 25 2287 125 
Q 2175 225 1725 225 
Q 1625 225 1450 237 
Q 1275 250 1050 275 
Q 850 200 775 100 
Q 700 0 700 -100 
Q 700 -250 900 -350 
Q 1100 -450 1600 -450 
Q 2025 -450 2212 -337 
Q 2400 -225 2400 -75 
z
" transform="scale(0.015625)"/>
       <path id="SimHei-20" transform="scale(0.015625)"/>
       <path id="SimHei-6f" d="M 2925 1525 
Q 2925 875 2525 475 
Q 2125 75 1575 75 
Q 1025 75 625 475 
Q 225 875 225 1525 
Q 225 2175 625 2575 
Q 1025 2975 1575 2975 
Q 2125 2975 2525 2575 
Q 2925 2175 2925 1525 
z
M 2375 1525 
Q 2375 2025 2125 2275 
Q 1875 2525 1575 2525 
Q 1275 2525 1025 2275 
Q 775 2025 775 1525 
Q 775 1025 1025 775 
Q 1275 525 1575 525 
Q 1875 525 2125 775 
Q 2375 1025 2375 1525 
z
" transform="scale(0.015625)"/>
       <path id="SimHei-66" d="M 2850 3825 
Q 2725 3900 2550 3950 
Q 2375 4000 2100 4000 
Q 1825 4000 1725 3862 
Q 1625 3725 1625 3525 
L 1625 2925 
L 2650 2925 
L 2650 2525 
L 1625 2525 
L 1625 125 
L 1125 125 
L 1125 2525 
L 275 2525 
L 275 2925 
L 1125 2925 
L 1125 3500 
Q 1125 3950 1400 4200 
Q 1675 4450 2125 4450 
Q 2400 4450 2562 4412 
Q 2725 4375 2850 4325 
L 2850 3825 
z
" transform="scale(0.015625)"/>
       <path id="SimHei-62" d="M 2825 1525 
Q 2825 800 2475 437 
Q 2125 75 1625 75 
Q 1350 75 1150 175 
Q 950 275 800 500 
L 800 125 
L 300 125 
L 300 4400 
L 800 4400 
L 800 2550 
Q 950 2775 1150 2887 
Q 1350 3000 1625 3000 
Q 2125 3000 2475 2625 
Q 2825 2250 2825 1525 
z
M 2275 1525 
Q 2275 2000 2087 2275 
Q 1900 2550 1525 2550 
Q 1225 2550 1012 2275 
Q 800 2000 800 1525 
Q 800 1050 1012 787 
Q 1225 525 1525 525 
Q 1900 525 2087 787 
Q 2275 1050 2275 1525 
z
" transform="scale(0.015625)"/>
       <path id="SimHei-73" d="M 2750 900 
Q 2750 500 2437 287 
Q 2125 75 1650 75 
Q 1050 75 725 312 
Q 400 550 400 1000 
L 900 1000 
Q 900 700 1112 600 
Q 1325 500 1625 500 
Q 1925 500 2075 612 
Q 2225 725 2225 900 
Q 2225 1025 2100 1150 
Q 1975 1275 1475 1350 
Q 900 1425 687 1637 
Q 475 1850 475 2200 
Q 475 2500 762 2737 
Q 1050 2975 1600 2975 
Q 2100 2975 2387 2750 
Q 2675 2525 2675 2150 
L 2175 2150 
Q 2175 2375 2012 2462 
Q 1850 2550 1600 2550 
Q 1275 2550 1137 2437 
Q 1000 2325 1000 2175 
Q 1000 2000 1125 1900 
Q 1250 1800 1650 1750 
Q 2300 1650 2525 1437 
Q 2750 1225 2750 900 
z
" transform="scale(0.015625)"/>
       <path id="SimHei-28" d="M 2975 -200 
L 2700 -475 
Q 2075 125 1762 775 
Q 1450 1425 1450 2250 
Q 1450 3075 1762 3725 
Q 2075 4375 2700 5000 
L 2975 4725 
Q 2400 4175 2112 3587 
Q 1825 3000 1825 2250 
Q 1825 1500 2112 912 
Q 2400 325 2975 -200 
z
" transform="scale(0.015625)"/>
       <path id="SimHei-64" d="M 2750 125 
L 2250 125 
L 2250 500 
Q 2100 275 1900 175 
Q 1700 75 1425 75 
Q 925 75 575 437 
Q 225 800 225 1525 
Q 225 2250 575 2625 
Q 925 3000 1425 3000 
Q 1700 3000 1900 2887 
Q 2100 2775 2250 2550 
L 2250 4400 
L 2750 4400 
L 2750 125 
z
M 2250 1525 
Q 2250 2000 2037 2275 
Q 1825 2550 1525 2550 
Q 1150 2550 962 2275 
Q 775 2000 775 1525 
Q 775 1050 962 787 
Q 1150 525 1525 525 
Q 1825 525 2037 787 
Q 2250 1050 2250 1525 
z
" transform="scale(0.015625)"/>
       <path id="SimHei-69" d="M 1800 3725 
L 1300 3725 
L 1300 4375 
L 1800 4375 
L 1800 3725 
z
M 1800 125 
L 1300 125 
L 1300 2925 
L 1800 2925 
L 1800 125 
z
" transform="scale(0.015625)"/>
       <path id="SimHei-2d" d="M 2975 2125 
L 125 2125 
L 125 2525 
L 2975 2525 
L 2975 2125 
z
" transform="scale(0.015625)"/>
       <path id="SimHei-29" d="M 1675 2250 
Q 1675 1425 1362 775 
Q 1050 125 425 -475 
L 150 -200 
Q 725 325 1012 912 
Q 1300 1500 1300 2250 
Q 1300 3000 1012 3587 
Q 725 4175 150 4725 
L 425 5000 
Q 1050 4375 1362 3725 
Q 1675 3075 1675 2250 
z
" transform="scale(0.015625)"/>
       <path id="SimHei-2f" d="M 3000 4550 
L 350 -175 
L 100 -25 
L 2750 4700 
L 3000 4550 
z
" transform="scale(0.015625)"/>
       <path id="SimHei-2b" d="M 3000 2125 
L 1775 2125 
L 1775 900 
L 1350 900 
L 1350 2125 
L 125 2125 
L 125 2525 
L 1350 2525 
L 1350 3750 
L 1775 3750 
L 1775 2525 
L 3000 2525 
L 3000 2125 
z
" transform="scale(0.015625)"/>
      </defs>
      <use xlink:href="#SimHei-61"/>
      <use xlink:href="#SimHei-76" x="50"/>
      <use xlink:href="#SimHei-67" x="100"/>
      <use xlink:href="#SimHei-20" x="150"/>
      <use xlink:href="#SimHei-6f" x="200"/>
      <use xlink:href="#SimHei-66" x="250"/>
      <use xlink:href="#SimHei-20" x="300"/>
      <use xlink:href="#SimHei-61" x="350"/>
      <use xlink:href="#SimHei-62" x="400"/>
      <use xlink:href="#SimHei-73" x="450"/>
      <use xlink:href="#SimHei-28" x="500"/>
      <use xlink:href="#SimHei-64" x="550"/>
      <use xlink:href="#SimHei-69" x="600"/>
      <use xlink:href="#SimHei-73" x="650"/>
      <use xlink:href="#SimHei-32" x="700"/>
      <use xlink:href="#SimHei-2d" x="750"/>
      <use xlink:href="#SimHei-64" x="800"/>
      <use xlink:href="#SimHei-69" x="850"/>
      <use xlink:href="#SimHei-73" x="900"/>
      <use xlink:href="#SimHei-31" x="950"/>
      <use xlink:href="#SimHei-29" x="1000"/>
      <use xlink:href="#SimHei-2f" x="1050"/>
      <use xlink:href="#SimHei-28" x="1100"/>
      <use xlink:href="#SimHei-64" x="1150"/>
      <use xlink:href="#SimHei-69" x="1200"/>
      <use xlink:href="#SimHei-73" x="1250"/>
      <use xlink:href="#SimHei-31" x="1300"/>
      <use xlink:href="#SimHei-2b" x="1350"/>
      <use xlink:href="#SimHei-31" x="1400"/>
      <use xlink:href="#SimHei-29" x="1450"/>
     </g>
    </g>
   </g>
   <g id="line2d_16">
    <path d="M 47.167347 242.116364 
L 52.291837 242.116364 
L 54 80.2687 
L 55.708163 107.839668 
L 59.12449 127.045034 
L 60.832653 127.355414 
L 62.540816 137.836776 
L 64.24898 144.150077 
L 65.957143 146.390467 
L 67.665306 146.336681 
L 69.373469 150.727592 
L 71.081633 154.123195 
L 72.789796 156.608471 
L 74.497959 163.722782 
L 76.206122 159.400383 
L 77.914286 166.633383 
L 79.622449 164.366754 
L 81.330612 172.517061 
L 83.038776 168.180989 
L 84.746939 170.701055 
L 86.455102 172.732236 
L 88.163265 172.994811 
L 89.871429 171.480929 
L 91.579592 173.776868 
L 93.287755 174.788713 
L 94.995918 175.195151 
L 96.704082 178.361787 
L 98.412245 177.501002 
L 100.120408 183.004209 
L 101.828571 183.67816 
L 103.536735 183.149535 
L 105.244898 185.739615 
L 106.953061 185.27977 
L 108.661224 187.197522 
L 110.369388 186.663948 
L 112.077551 188.117281 
L 113.785714 187.509051 
L 115.493878 186.44285 
L 117.202041 187.903134 
L 118.910204 190.747392 
L 120.618367 187.431418 
L 122.326531 189.165646 
L 124.034694 189.206788 
L 125.742857 193.397878 
L 127.45102 190.04898 
L 129.159184 193.067588 
L 130.867347 192.30366 
L 132.57551 192.248868 
L 134.283673 191.459382 
L 135.991837 194.197238 
L 137.7 190.912128 
L 139.408163 193.829328 
L 141.116327 194.710802 
L 142.82449 193.675843 
L 144.532653 195.411525 
L 146.240816 193.264707 
L 147.94898 199.102446 
L 149.657143 195.239742 
L 151.365306 197.109666 
L 153.073469 195.010884 
L 154.781633 195.643365 
L 156.489796 197.704437 
L 158.197959 199.29058 
L 159.906122 196.734332 
L 161.614286 199.525927 
L 163.322449 195.825807 
L 165.030612 196.792178 
L 166.738776 198.219165 
L 168.446939 200.593143 
L 170.155102 198.173456 
L 171.863265 201.654651 
L 173.571429 199.933461 
L 175.279592 202.365448 
L 176.987755 201.16216 
L 178.695918 201.237396 
L 180.404082 200.908356 
L 182.112245 199.519669 
L 183.820408 202.129586 
L 185.528571 199.282659 
L 187.236735 199.321985 
L 188.944898 203.070696 
L 190.653061 201.006305 
L 192.361224 203.609043 
L 194.069388 202.41932 
L 195.777551 202.293132 
L 197.485714 203.256618 
L 199.193878 201.10119 
L 200.902041 202.788599 
L 202.610204 205.765245 
L 204.318367 203.214796 
L 206.026531 201.97782 
L 207.734694 202.706405 
L 209.442857 203.167134 
L 211.15102 205.28049 
L 212.859184 203.735729 
L 214.567347 203.075129 
L 216.27551 203.266036 
L 217.983673 204.532683 
L 219.691837 202.874662 
L 221.4 205.534763 
L 223.108163 206.682111 
L 224.816327 204.760725 
L 226.52449 204.522208 
L 228.232653 202.835145 
L 229.940816 205.177234 
L 231.64898 205.19953 
L 233.357143 207.110588 
L 236.773469 203.408232 
L 238.481633 205.019279 
L 240.189796 205.90982 
L 241.897959 206.426032 
L 243.606122 205.576793 
L 245.314286 206.14313 
L 247.022449 205.570248 
L 248.730612 205.215669 
L 250.438776 206.607395 
L 252.146939 206.170444 
L 253.855102 207.435383 
L 255.563265 206.940245 
L 257.271429 205.047845 
L 258.979592 207.228944 
L 262.395918 208.944722 
L 264.104082 209.487767 
L 265.812245 209.060886 
L 267.520408 206.097114 
L 269.228571 208.556632 
L 270.936735 208.354085 
L 272.644898 206.337188 
L 274.353061 207.72382 
L 276.061224 208.651952 
L 277.769388 207.956746 
L 279.477551 207.913907 
L 281.185714 209.784472 
L 282.893878 208.782747 
L 284.602041 210.710398 
L 286.310204 208.166962 
L 288.018367 207.979961 
L 289.726531 206.800046 
L 291.434694 208.407488 
L 293.142857 208.924673 
L 294.85102 206.348057 
L 296.559184 209.695995 
L 298.267347 210.716684 
L 299.97551 210.061585 
L 301.683673 208.995393 
L 303.391837 210.871376 
L 305.1 210.906722 
L 306.808163 209.229974 
L 308.516327 208.142923 
L 310.22449 211.376332 
L 311.932653 209.318773 
L 313.640816 209.114021 
L 315.34898 211.457001 
L 318.765306 209.618305 
L 320.473469 209.285717 
L 322.181633 211.087627 
L 323.889796 210.14858 
L 325.597959 210.768042 
L 327.306122 210.018979 
L 329.014286 210.763521 
L 330.722449 210.454872 
L 332.430612 208.317941 
L 334.138776 209.337518 
L 335.846939 211.02176 
L 337.555102 209.472645 
L 339.263265 211.265283 
L 340.971429 212.21141 
L 342.679592 211.738729 
L 344.387755 207.39464 
L 346.095918 210.642924 
L 347.804082 210.948217 
L 349.512245 211.764228 
L 351.220408 210.09287 
L 352.928571 210.860245 
L 354.636735 211.962594 
L 356.344898 211.961407 
L 359.761224 210.191952 
L 361.469388 210.942517 
L 363.177551 210.723975 
L 364.885714 212.399703 
L 366.593878 210.542962 
L 368.302041 213.297874 
L 370.010204 210.28226 
L 371.718367 212.194231 
L 373.426531 213.722516 
L 375.134694 211.274071 
L 376.842857 212.90624 
L 378.55102 211.464455 
L 380.259184 212.870942 
L 381.967347 212.052642 
L 383.67551 213.151817 
L 385.383673 211.48184 
L 387.091837 211.554652 
L 387.091837 211.554652 
" clip-path="url(#p544ae1a20d)" style="fill: none; stroke: #1f77b4; stroke-width: 2; stroke-linecap: square"/>
   </g>
   <g id="line2d_17">
    <path d="M 47.167347 242.116364 
L 387.091837 242.116364 
L 387.091837 242.116364 
" clip-path="url(#p544ae1a20d)" style="fill: none; stroke: #ff7f0e; stroke-width: 3; stroke-linecap: square"/>
   </g>
   <g id="line2d_18">
    <path d="M 47.167347 242.116364 
L 52.291837 242.116364 
L 54 44.443636 
L 55.708163 57.025179 
L 57.416327 84.500862 
L 59.12449 80.495641 
L 60.832653 88.572782 
L 64.24898 116.450172 
L 65.957143 110.513901 
L 67.665306 115.994487 
L 69.373469 118.574744 
L 71.081633 128.000982 
L 72.789796 121.396434 
L 74.497959 134.351547 
L 76.206122 132.667169 
L 77.914286 143.909251 
L 79.622449 137.288307 
L 81.330612 149.048124 
L 83.038776 140.871499 
L 84.746939 145.856709 
L 86.455102 144.419825 
L 88.163265 147.636295 
L 89.871429 145.920818 
L 91.579592 154.696823 
L 93.287755 150.380973 
L 94.995918 156.368022 
L 96.704082 158.64492 
L 98.412245 157.83049 
L 100.120408 164.77737 
L 101.828571 163.871095 
L 103.536735 162.750023 
L 105.244898 164.01735 
L 106.953061 166.389513 
L 108.661224 170.958747 
L 110.369388 170.533412 
L 112.077551 169.383335 
L 113.785714 169.489146 
L 115.493878 168.696887 
L 117.202041 170.720127 
L 118.910204 176.893253 
L 120.618367 169.52556 
L 122.326531 172.763538 
L 124.034694 171.428889 
L 125.742857 176.921808 
L 127.45102 173.726174 
L 129.159184 177.45631 
L 130.867347 175.912167 
L 132.57551 177.419374 
L 134.283673 177.256311 
L 135.991837 181.041453 
L 137.7 173.390603 
L 139.408163 178.498021 
L 141.116327 181.271386 
L 142.82449 178.380474 
L 144.532653 181.816518 
L 146.240816 179.630921 
L 147.94898 187.409172 
L 149.657143 182.175082 
L 151.365306 182.619812 
L 153.073469 179.703206 
L 154.781633 183.523115 
L 156.489796 183.772218 
L 158.197959 185.769967 
L 159.906122 184.906684 
L 161.614286 185.050306 
L 163.322449 183.963765 
L 165.030612 183.149387 
L 166.738776 186.302931 
L 168.446939 190.030936 
L 170.155102 186.492009 
L 171.863265 188.778383 
L 173.571429 186.075899 
L 175.279592 188.654783 
L 176.987755 189.509871 
L 178.695918 189.202617 
L 180.404082 188.259854 
L 182.112245 188.272119 
L 183.820408 191.648833 
L 185.528571 188.55366 
L 187.236735 187.563736 
L 188.944898 192.310502 
L 190.653061 190.108912 
L 192.361224 192.706198 
L 194.069388 192.571174 
L 195.777551 191.415663 
L 197.485714 193.345156 
L 199.193878 192.694975 
L 200.902041 192.268601 
L 202.610204 195.969457 
L 204.318367 191.941222 
L 206.026531 191.334961 
L 207.734694 193.107204 
L 209.442857 191.443225 
L 211.15102 195.672248 
L 212.859184 193.205889 
L 216.27551 191.061133 
L 217.983673 193.55125 
L 219.691837 193.586882 
L 221.4 197.62137 
L 223.108163 196.90632 
L 224.816327 196.002782 
L 226.52449 194.585334 
L 228.232653 193.510527 
L 229.940816 196.995775 
L 231.64898 196.004209 
L 233.357143 198.01715 
L 235.065306 195.725559 
L 236.773469 194.080346 
L 238.481633 195.450406 
L 240.189796 197.947601 
L 241.897959 197.328589 
L 243.606122 196.531462 
L 245.314286 197.498417 
L 247.022449 195.144079 
L 250.438776 197.346569 
L 252.146939 197.232843 
L 253.855102 198.172173 
L 255.563265 198.972862 
L 257.271429 195.520325 
L 258.979592 199.40868 
L 260.687755 198.601006 
L 262.395918 199.726386 
L 264.104082 200.698825 
L 265.812245 200.230573 
L 269.228571 198.894519 
L 270.936735 201.295444 
L 272.644898 197.437343 
L 274.353061 199.676736 
L 276.061224 199.977551 
L 277.769388 199.175986 
L 279.477551 200.791724 
L 281.185714 201.466862 
L 282.893878 201.385844 
L 284.602041 203.59939 
L 286.310204 201.713166 
L 288.018367 201.365746 
L 289.726531 199.416358 
L 291.434694 200.194509 
L 293.142857 202.182871 
L 294.85102 199.121209 
L 296.559184 201.589028 
L 298.267347 203.000773 
L 299.97551 202.993319 
L 301.683673 201.878579 
L 303.391837 203.845263 
L 305.1 203.704532 
L 306.808163 199.705649 
L 308.516327 200.756696 
L 310.22449 204.586924 
L 311.932653 201.746254 
L 313.640816 201.85672 
L 315.34898 202.555362 
L 317.057143 203.819811 
L 318.765306 202.197039 
L 320.473469 201.714907 
L 322.181633 205.224328 
L 323.889796 203.68247 
L 325.597959 202.67425 
L 327.306122 203.212067 
L 329.014286 203.624886 
L 330.722449 205.127906 
L 332.430612 202.308693 
L 334.138776 202.081695 
L 335.846939 204.167855 
L 337.555102 200.745101 
L 339.263265 202.826832 
L 340.971429 204.714262 
L 342.679592 203.91373 
L 344.387755 200.467739 
L 346.095918 202.251004 
L 347.804082 203.780252 
L 349.512245 204.473196 
L 351.220408 203.73454 
L 352.928571 203.248102 
L 354.636735 205.371453 
L 356.344898 206.080788 
L 358.053061 203.824186 
L 359.761224 203.046763 
L 361.469388 204.399375 
L 363.177551 204.472023 
L 364.885714 205.036711 
L 366.593878 205.000536 
L 368.302041 206.478402 
L 370.010204 202.654172 
L 371.718367 204.354383 
L 373.426531 207.159864 
L 375.134694 205.205652 
L 376.842857 204.991879 
L 378.55102 205.374809 
L 380.259184 206.937486 
L 381.967347 207.004588 
L 383.67551 208.057047 
L 385.383673 204.034688 
L 387.091837 205.416556 
L 387.091837 205.416556 
" clip-path="url(#p544ae1a20d)" style="fill: none; stroke: #2ca02c; stroke-width: 2; stroke-linecap: square"/>
   </g>
   <g id="line2d_19">
    <path d="M 47.167347 242.116364 
L 387.091837 242.116364 
L 387.091837 242.116364 
" clip-path="url(#p544ae1a20d)" style="fill: none; stroke: #d62728; stroke-width: 2; stroke-linecap: square"/>
   </g>
   <g id="patch_3">
    <path d="M 54 252 
L 54 34.56 
" style="fill: none; stroke: #000000; stroke-width: 0.8; stroke-linejoin: miter; stroke-linecap: square"/>
   </g>
   <g id="patch_4">
    <path d="M 388.8 252 
L 388.8 34.56 
" style="fill: none; stroke: #000000; stroke-width: 0.8; stroke-linejoin: miter; stroke-linecap: square"/>
   </g>
   <g id="patch_5">
    <path d="M 54 252 
L 388.8 252 
" style="fill: none; stroke: #000000; stroke-width: 0.8; stroke-linejoin: miter; stroke-linecap: square"/>
   </g>
   <g id="patch_6">
    <path d="M 54 34.56 
L 388.8 34.56 
" style="fill: none; stroke: #000000; stroke-width: 0.8; stroke-linejoin: miter; stroke-linecap: square"/>
   </g>
   <g id="text_18">
    <!-- 讨论不同长度的序列对不稳定性的影响 -->
    <g transform="translate(119.4 28.56)scale(0.12 -0.12)">
     <defs>
      <path id="SimHei-8ba8" d="M 4700 3775 
Q 4700 4600 4675 5225 
L 5225 5225 
Q 5200 4625 5200 3775 
Q 5625 3775 6075 3800 
L 6075 3325 
Q 5675 3350 5200 3350 
L 5200 25 
Q 5200 -325 4925 -437 
Q 4650 -550 4150 -600 
Q 4125 -300 3875 25 
Q 4450 0 4575 50 
Q 4700 100 4700 350 
L 4700 3350 
L 3225 3350 
Q 2900 3350 2300 3325 
L 2300 3800 
Q 2875 3775 3175 3775 
L 4700 3775 
z
M 1700 3375 
Q 1675 2925 1675 2400 
L 1675 550 
Q 2000 850 2400 1325 
Q 2550 1025 2725 825 
Q 2375 550 2037 237 
Q 1700 -75 1450 -350 
Q 1225 -100 1025 50 
Q 1200 250 1200 575 
L 1200 2950 
Q 575 2950 300 2925 
L 300 3400 
Q 575 3375 975 3375 
L 1700 3375 
z
M 3025 2750 
Q 3525 2150 3875 1525 
Q 3625 1375 3425 1250 
Q 3150 1850 2625 2475 
Q 2800 2575 3025 2750 
z
M 1250 5250 
Q 1550 4850 1825 4200 
Q 1625 4100 1375 3950 
Q 1175 4500 825 5000 
Q 1000 5100 1250 5250 
z
" transform="scale(0.015625)"/>
      <path id="SimHei-8bba" d="M 3500 1600 
Q 3825 1725 4250 2000 
Q 4675 2275 4975 2575 
Q 5225 2275 5400 2100 
Q 5050 1950 4550 1675 
Q 4050 1400 3500 1150 
L 3500 300 
Q 3500 -100 3800 -100 
L 4825 -100 
Q 5125 -100 5250 137 
Q 5375 375 5375 575 
Q 5675 350 5925 275 
Q 5750 -225 5550 -375 
Q 5350 -525 5100 -525 
L 3550 -525 
Q 3025 -475 3025 0 
L 3025 2175 
Q 3025 2525 3000 2850 
L 3525 2850 
Q 3500 2400 3500 2200 
L 3500 1600 
z
M 4175 4850 
Q 4400 4350 4950 3687 
Q 5500 3025 6175 2700 
Q 5975 2575 5800 2275 
Q 5100 2750 4637 3375 
Q 4175 4000 3950 4425 
Q 3725 3950 3387 3425 
Q 3050 2900 2325 2200 
Q 2175 2375 1950 2575 
Q 2350 2825 2650 3175 
Q 2950 3525 3200 3962 
Q 3450 4400 3575 4725 
Q 3700 5050 3750 5250 
Q 3975 5150 4275 5050 
L 4175 4850 
z
M 1600 3150 
Q 1575 2750 1575 2275 
L 1575 550 
Q 1950 825 2400 1300 
Q 2500 1075 2650 800 
Q 2250 475 1900 187 
Q 1550 -100 1250 -375 
Q 1150 -225 900 50 
Q 1100 250 1100 450 
L 1100 2700 
L 800 2700 
Q 550 2700 275 2675 
L 275 3175 
Q 550 3150 800 3150 
L 1600 3150 
z
M 975 5000 
Q 1550 4525 2125 4025 
Q 1950 3875 1750 3650 
Q 1325 4150 650 4650 
Q 825 4800 975 5000 
z
" transform="scale(0.015625)"/>
      <path id="SimHei-4e0d" d="M 5975 4450 
Q 5525 4475 5200 4475 
L 3725 4475 
Q 3550 4125 3300 3700 
L 3300 575 
Q 3300 75 3325 -550 
L 2775 -550 
Q 2800 50 2800 575 
L 2800 3025 
Q 2025 1950 700 1050 
Q 500 1350 325 1475 
Q 825 1700 1650 2437 
Q 2475 3175 3175 4475 
L 1525 4475 
Q 1050 4475 525 4450 
L 525 4950 
Q 1275 4925 1675 4925 
L 5175 4925 
Q 5500 4925 5975 4950 
L 5975 4450 
z
M 5450 1125 
Q 4975 1725 3750 2975 
Q 3950 3150 4075 3325 
Q 4675 2775 5100 2362 
Q 5525 1950 5900 1550 
Q 5650 1350 5450 1125 
z
" transform="scale(0.015625)"/>
      <path id="SimHei-540c" d="M 5825 4925 
Q 5775 4550 5775 3975 
L 5775 -50 
Q 5775 -400 5525 -487 
Q 5275 -575 4725 -625 
Q 4725 -400 4525 -50 
Q 4925 -50 5100 -12 
Q 5275 25 5275 200 
L 5275 4450 
L 1150 4450 
L 1150 -600 
L 575 -600 
Q 600 -250 625 200 
L 625 3975 
Q 625 4575 600 4925 
L 5825 4925 
z
M 4375 2550 
Q 4325 2275 4325 1700 
Q 4325 1150 4375 725 
L 2025 725 
Q 2050 1175 2050 1750 
Q 2050 2325 2025 2550 
L 4375 2550 
z
M 4100 3750 
Q 4600 3750 4825 3775 
L 4825 3275 
Q 4575 3300 4075 3300 
L 2450 3300 
Q 1850 3300 1600 3275 
L 1600 3775 
Q 1875 3750 2475 3750 
L 4100 3750 
z
M 3875 1150 
L 3875 2150 
L 2525 2150 
L 2525 1150 
L 3875 1150 
z
" transform="scale(0.015625)"/>
      <path id="SimHei-7684" d="M 2100 4975 
Q 1975 4750 1750 3950 
L 2875 3950 
Q 2850 3525 2850 2875 
L 2850 675 
Q 2850 300 2875 -400 
L 2375 -400 
L 2375 100 
L 1100 100 
L 1100 -450 
L 600 -450 
Q 625 350 625 550 
L 625 2850 
Q 625 3525 600 3950 
L 1325 3950 
Q 1450 4525 1525 5150 
Q 1875 5025 2100 4975 
z
M 5825 3075 
Q 5800 1550 5700 175 
Q 5650 -275 5225 -425 
Q 4800 -575 4275 -625 
Q 4250 -350 4050 -50 
Q 4550 -75 4837 -25 
Q 5125 25 5200 200 
Q 5275 375 5312 1225 
Q 5350 2075 5375 3600 
L 3925 3600 
Q 3725 3125 3350 2475 
Q 3175 2650 2925 2750 
Q 3150 3050 3350 3475 
Q 3550 3900 3700 4400 
Q 3850 4900 3875 5175 
Q 4225 5025 4475 4950 
Q 4350 4750 4262 4512 
Q 4175 4275 4075 4050 
L 5850 4050 
Q 5825 3525 5825 3075 
z
M 2375 525 
L 2375 1850 
L 1100 1850 
L 1100 525 
L 2375 525 
z
M 2375 2275 
L 2375 3525 
L 1100 3525 
L 1100 2275 
L 2375 2275 
z
M 4350 2050 
Q 4500 1750 4700 1275 
Q 4525 1200 4225 1025 
Q 4050 1500 3900 1837 
Q 3750 2175 3600 2400 
Q 3775 2500 4050 2650 
L 4350 2050 
z
" transform="scale(0.015625)"/>
      <path id="SimHei-5bf9" d="M 525 4250 
Q 900 4225 1400 4225 
L 2825 4225 
Q 2575 2625 2200 1750 
Q 2825 875 3125 400 
Q 2950 275 2725 75 
Q 2200 975 1950 1300 
Q 1650 775 1350 425 
Q 1050 75 600 -350 
Q 425 -125 200 -25 
Q 625 275 975 675 
Q 1325 1075 1650 1700 
Q 1050 2425 550 2900 
Q 700 3025 900 3225 
Q 1625 2425 1875 2150 
Q 2200 3050 2300 3825 
L 1400 3825 
Q 900 3825 525 3800 
L 525 4250 
z
M 2925 3700 
Q 3525 3675 3750 3675 
L 4825 3675 
L 4825 4425 
Q 4825 4750 4775 5125 
L 5350 5125 
Q 5325 4825 5325 4375 
L 5325 3675 
Q 5575 3675 6150 3700 
L 6150 3250 
Q 5575 3275 5325 3275 
L 5325 125 
Q 5350 -350 5012 -475 
Q 4675 -600 4250 -650 
Q 4175 -350 4025 -100 
Q 4575 -100 4712 -37 
Q 4850 25 4825 325 
L 4825 3275 
L 3775 3275 
Q 3550 3275 2925 3225 
L 2925 3700 
z
M 3450 2725 
Q 3875 1975 4175 1325 
Q 3850 1200 3700 1075 
Q 3475 1750 3050 2475 
Q 3225 2550 3450 2725 
z
" transform="scale(0.015625)"/>
      <path id="SimHei-7a33" d="M 4050 5125 
Q 3875 4975 3675 4625 
L 5325 4625 
Q 5200 4450 5062 4212 
Q 4925 3975 4800 3650 
L 5625 3650 
Q 5600 3350 5600 2600 
Q 5600 1875 5625 1425 
L 3425 1425 
Q 3075 1425 2750 1400 
L 2750 1850 
Q 3075 1825 3450 1825 
L 5100 1825 
L 5100 2375 
L 3550 2375 
Q 3175 2375 2875 2350 
L 2875 2775 
Q 3175 2750 3525 2750 
L 5100 2750 
L 5100 3275 
L 3775 3275 
Q 3350 3275 3050 3250 
L 3050 3650 
Q 2875 3425 2725 3200 
Q 2525 3400 2350 3475 
Q 2675 3875 2987 4412 
Q 3300 4950 3400 5300 
Q 3725 5200 4050 5125 
z
M 2500 4575 
Q 2275 4575 2012 4512 
Q 1750 4450 1625 4450 
L 1625 3350 
Q 1975 3350 2375 3375 
L 2375 2950 
Q 1925 2975 1625 2975 
L 1625 2225 
Q 1775 2325 1950 2500 
Q 2225 2100 2525 1600 
Q 2300 1500 2150 1350 
Q 1950 1725 1625 2175 
L 1625 400 
Q 1625 25 1650 -625 
L 1150 -625 
Q 1200 25 1200 400 
L 1200 2075 
Q 875 1250 475 650 
Q 375 925 175 1125 
Q 325 1250 650 1887 
Q 975 2525 1050 2975 
Q 750 2975 275 2950 
L 275 3375 
Q 750 3350 1200 3350 
L 1200 4325 
Q 950 4275 550 4200 
Q 475 4425 275 4625 
Q 750 4675 1237 4775 
Q 1725 4875 2125 5075 
Q 2275 4775 2500 4575 
z
M 3675 1025 
Q 3650 700 3650 300 
Q 3650 -75 3775 -100 
Q 3900 -125 4250 -125 
Q 4600 -125 4687 -100 
Q 4775 -75 4825 425 
Q 5025 275 5350 200 
Q 5150 -450 4950 -500 
Q 4750 -550 4175 -550 
Q 3625 -550 3425 -487 
Q 3225 -425 3225 -100 
L 3225 525 
Q 3225 775 3200 1025 
L 3675 1025 
z
M 3050 3675 
Q 3325 3650 3775 3650 
L 4275 3650 
Q 4450 4000 4575 4275 
L 3425 4275 
Q 3275 4050 3050 3675 
z
M 2925 900 
Q 2800 725 2700 287 
Q 2600 -150 2550 -300 
Q 2325 -200 2075 -175 
Q 2225 200 2275 412 
Q 2325 625 2425 1000 
L 2925 900 
z
M 5575 1100 
Q 5950 475 6175 50 
Q 5950 -25 5750 -175 
Q 5625 175 5200 925 
Q 5425 975 5575 1100 
z
M 4225 1300 
Q 4525 825 4625 525 
Q 4550 500 4250 350 
Q 4150 700 3850 1125 
Q 4050 1200 4225 1300 
z
" transform="scale(0.015625)"/>
      <path id="SimHei-5b9a" d="M 4200 3125 
Q 4675 3125 5175 3150 
L 5175 2675 
Q 4725 2700 4100 2700 
L 3550 2700 
L 3550 1700 
L 4600 1700 
Q 4875 1700 5375 1725 
L 5375 1250 
Q 4875 1275 4575 1275 
L 3550 1275 
L 3550 100 
Q 4600 -25 6050 125 
Q 5850 -200 5800 -475 
Q 4800 -475 4150 -450 
Q 3500 -425 3050 -300 
Q 2600 -175 2250 75 
Q 1900 325 1600 675 
Q 1200 -50 675 -575 
Q 450 -350 175 -250 
Q 875 300 1200 1050 
Q 1525 1800 1550 2200 
Q 1800 2050 2150 1975 
Q 2075 1875 1987 1662 
Q 1900 1450 1775 1125 
Q 1950 900 2300 612 
Q 2650 325 3050 200 
L 3050 2700 
L 2250 2700 
Q 1825 2700 1400 2675 
L 1400 3150 
Q 1825 3125 2400 3125 
L 4200 3125 
z
M 5750 4275 
Q 5725 3925 5725 3750 
Q 5725 3575 5750 3275 
L 5225 3275 
L 5225 3875 
L 1225 3875 
L 1225 3275 
L 700 3275 
Q 725 3475 725 3725 
Q 725 3975 700 4275 
L 5750 4275 
z
M 2650 5050 
Q 2875 5125 3100 5300 
Q 3375 4975 3600 4550 
Q 3250 4400 3100 4300 
Q 3050 4525 2650 5050 
z
" transform="scale(0.015625)"/>
      <path id="SimHei-6027" d="M 3450 4525 
Q 3325 4075 3275 3750 
L 4050 3750 
L 4050 4275 
Q 4050 4700 4025 5100 
L 4550 5100 
Q 4525 4700 4525 4275 
L 4525 3750 
L 5025 3750 
Q 5350 3750 5800 3775 
L 5800 3300 
Q 5350 3325 5025 3325 
L 4525 3325 
L 4525 2000 
L 4975 2000 
Q 5350 2000 5725 2025 
L 5725 1550 
Q 5350 1575 4975 1575 
L 4525 1575 
L 4525 25 
L 5200 25 
Q 5625 25 6025 50 
L 6025 -400 
Q 5625 -375 5200 -375 
L 3275 -375 
Q 2825 -375 2400 -400 
L 2400 50 
Q 2825 25 3250 25 
L 4050 25 
L 4050 1575 
L 3625 1575 
Q 3300 1575 2875 1550 
L 2875 2025 
Q 3200 2000 3625 2000 
L 4050 2000 
L 4050 3325 
L 3175 3325 
Q 3100 2950 2775 2225 
Q 2500 2375 2325 2400 
Q 2675 3125 2775 3650 
Q 2875 4175 2950 4650 
Q 3200 4575 3450 4525 
z
M 1700 5150 
Q 1675 4650 1675 4175 
L 1675 425 
Q 1675 -100 1700 -625 
L 1175 -625 
Q 1200 -100 1200 425 
L 1200 4175 
Q 1200 4700 1175 5150 
L 1700 5150 
z
M 975 3725 
Q 825 2675 700 2150 
Q 450 2200 250 2250 
Q 425 2900 525 3800 
Q 725 3775 975 3725 
z
M 2125 4025 
Q 2325 3625 2525 3000 
Q 2300 2925 2125 2825 
Q 1950 3375 1750 3850 
Q 1950 3950 2125 4025 
z
" transform="scale(0.015625)"/>
      <path id="SimHei-5f71" d="M 3550 5025 
Q 3500 4625 3512 4187 
Q 3525 3750 3550 3325 
L 775 3325 
Q 800 3750 787 4187 
Q 775 4625 775 5025 
L 3550 5025 
z
M 1450 -100 
Q 2050 -75 1975 200 
L 1975 1100 
L 775 1100 
Q 800 1375 787 1650 
Q 775 1925 775 2225 
L 3550 2225 
Q 3525 1925 3512 1650 
Q 3500 1375 3550 1100 
L 2475 1100 
L 2475 175 
Q 2500 -250 2300 -375 
Q 2100 -500 1625 -600 
Q 1575 -325 1450 -100 
z
M 2375 3250 
Q 2400 3075 2425 2875 
L 3175 2875 
Q 3600 2875 4050 2900 
L 4050 2475 
Q 3600 2500 3175 2500 
L 1200 2500 
Q 700 2500 275 2475 
L 275 2900 
Q 700 2875 1200 2875 
L 1900 2875 
Q 1875 3025 1850 3200 
Q 2100 3250 2375 3250 
z
M 6150 1350 
Q 5675 775 5000 225 
Q 4325 -325 3725 -650 
Q 3575 -400 3400 -250 
Q 3975 25 4600 500 
Q 5225 975 5775 1725 
Q 5950 1525 6150 1350 
z
M 5925 3125 
Q 5625 2850 5212 2362 
Q 4800 1875 4200 1425 
Q 4025 1625 3800 1725 
Q 4375 2050 4787 2525 
Q 5200 3000 5525 3500 
Q 5675 3325 5925 3125 
z
M 5725 4825 
Q 5325 4550 5037 4162 
Q 4750 3775 4175 3275 
Q 3975 3450 3800 3550 
Q 4175 3825 4550 4237 
Q 4925 4650 5225 5175 
Q 5425 5000 5725 4825 
z
M 3075 1475 
L 3075 1850 
L 1250 1850 
L 1250 1475 
L 3075 1475 
z
M 3075 3700 
L 3075 4000 
L 1250 4000 
L 1250 3700 
L 3075 3700 
z
M 3075 4375 
L 3075 4675 
L 1250 4675 
L 1250 4375 
L 3075 4375 
z
M 1500 500 
Q 1075 75 575 -325 
Q 475 -175 275 -25 
Q 700 250 1125 825 
Q 1300 625 1500 500 
z
M 3250 -50 
Q 3050 275 2750 550 
Q 2900 700 3075 850 
Q 3400 525 3600 250 
L 3250 -50 
z
" transform="scale(0.015625)"/>
      <path id="SimHei-54cd" d="M 4150 5125 
Q 4000 4975 3850 4325 
L 5875 4325 
Q 5850 3800 5850 3325 
L 5850 50 
Q 5825 -225 5625 -350 
Q 5425 -475 4850 -550 
Q 4850 -325 4600 25 
Q 5125 25 5237 62 
Q 5350 100 5350 225 
L 5350 3950 
L 2950 3950 
L 2950 -575 
L 2450 -575 
Q 2475 -75 2475 450 
L 2475 3125 
Q 2475 3750 2450 4325 
L 3350 4325 
Q 3475 4775 3525 5250 
Q 3950 5150 4150 5125 
z
M 4875 900 
L 3425 900 
L 3425 3100 
L 4875 3100 
L 4875 900 
z
M 4450 1275 
L 4450 2700 
L 3875 2700 
L 3875 1275 
L 4450 1275 
z
M 2075 4500 
Q 2050 3975 2050 3425 
L 2050 1750 
Q 2050 1250 2075 600 
L 1650 600 
L 1650 1050 
L 950 1050 
L 950 275 
L 500 275 
Q 525 750 525 1275 
L 525 3425 
Q 525 3975 500 4500 
L 2075 4500 
z
M 1650 1400 
L 1650 4125 
L 950 4125 
L 950 1400 
L 1650 1400 
z
" transform="scale(0.015625)"/>
     </defs>
     <use xlink:href="#SimHei-8ba8"/>
     <use xlink:href="#SimHei-8bba" x="100"/>
     <use xlink:href="#SimHei-4e0d" x="200"/>
     <use xlink:href="#SimHei-540c" x="300"/>
     <use xlink:href="#SimHei-957f" x="400"/>
     <use xlink:href="#SimHei-5ea6" x="500"/>
     <use xlink:href="#SimHei-7684" x="600"/>
     <use xlink:href="#SimHei-5e8f" x="700"/>
     <use xlink:href="#SimHei-5217" x="800"/>
     <use xlink:href="#SimHei-5bf9" x="900"/>
     <use xlink:href="#SimHei-4e0d" x="1000"/>
     <use xlink:href="#SimHei-7a33" x="1100"/>
     <use xlink:href="#SimHei-5b9a" x="1200"/>
     <use xlink:href="#SimHei-6027" x="1300"/>
     <use xlink:href="#SimHei-7684" x="1400"/>
     <use xlink:href="#SimHei-5f71" x="1500"/>
     <use xlink:href="#SimHei-54cd" x="1600"/>
    </g>
   </g>
   <g id="legend_1">
    <g id="patch_7">
     <path d="M 304.8 95.56 
L 381.8 95.56 
Q 383.8 95.56 383.8 93.56 
L 383.8 41.56 
Q 383.8 39.56 381.8 39.56 
L 304.8 39.56 
Q 302.8 39.56 302.8 41.56 
L 302.8 93.56 
Q 302.8 95.56 304.8 95.56 
z
" style="fill: #ffffff; opacity: 0.8; stroke: #cccccc; stroke-linejoin: miter"/>
    </g>
    <g id="line2d_20">
     <path d="M 306.8 47.06 
L 316.8 47.06 
L 326.8 47.06 
" style="fill: none; stroke: #1f77b4; stroke-width: 2; stroke-linecap: square"/>
    </g>
    <g id="text_19">
     <!-- EU -->
     <g transform="translate(334.8 50.56)scale(0.1 -0.1)">
      <defs>
       <path id="SimHei-45" d="M 2900 125 
L 350 125 
L 350 4400 
L 2775 4400 
L 2775 3925 
L 925 3925 
L 925 2600 
L 2625 2600 
L 2625 2125 
L 925 2125 
L 925 600 
L 2900 600 
L 2900 125 
z
" transform="scale(0.015625)"/>
       <path id="SimHei-55" d="M 2875 1375 
Q 2875 775 2562 425 
Q 2250 75 1575 75 
Q 900 75 587 425 
Q 275 775 275 1375 
L 275 4400 
L 850 4400 
L 850 1375 
Q 850 950 1050 750 
Q 1250 550 1575 550 
Q 1900 550 2100 750 
Q 2300 950 2300 1375 
L 2300 4400 
L 2875 4400 
L 2875 1375 
z
" transform="scale(0.015625)"/>
      </defs>
      <use xlink:href="#SimHei-45"/>
      <use xlink:href="#SimHei-55" x="50"/>
     </g>
    </g>
    <g id="line2d_21">
     <path d="M 306.8 60.31 
L 316.8 60.31 
L 326.8 60.31 
" style="fill: none; stroke: #ff7f0e; stroke-width: 3; stroke-linecap: square"/>
    </g>
    <g id="text_20">
     <!-- VG -->
     <g transform="translate(334.8 63.81)scale(0.1 -0.1)">
      <defs>
       <path id="SimHei-56" d="M 3050 4400 
L 1800 75 
L 1300 75 
L 50 4400 
L 650 4400 
L 1525 1125 
L 1575 1125 
L 2450 4400 
L 3050 4400 
z
" transform="scale(0.015625)"/>
       <path id="SimHei-47" d="M 2850 75 
L 2425 75 
L 2350 425 
Q 2250 275 2037 175 
Q 1825 75 1575 75 
Q 1050 75 637 562 
Q 225 1050 225 2125 
Q 225 3300 600 3875 
Q 975 4450 1625 4450 
Q 2200 4450 2525 4025 
Q 2850 3600 2850 2925 
L 2300 2925 
Q 2300 3450 2125 3712 
Q 1950 3975 1625 3975 
Q 1225 3975 1025 3562 
Q 825 3150 825 2175 
Q 825 1250 1075 900 
Q 1325 550 1650 550 
Q 1975 550 2162 787 
Q 2350 1025 2350 1525 
L 2350 1800 
L 1575 1800 
L 1575 2275 
L 2850 2275 
L 2850 75 
z
" transform="scale(0.015625)"/>
      </defs>
      <use xlink:href="#SimHei-56"/>
      <use xlink:href="#SimHei-47" x="50"/>
     </g>
    </g>
    <g id="line2d_22">
     <path d="M 306.8 73.56 
L 316.8 73.56 
L 326.8 73.56 
" style="fill: none; stroke: #2ca02c; stroke-width: 2; stroke-linecap: square"/>
    </g>
    <g id="text_21">
     <!-- Manhattan -->
     <g transform="translate(334.8 77.06)scale(0.1 -0.1)">
      <defs>
       <path id="SimHei-4d" d="M 2925 125 
L 2425 125 
L 2425 3175 
L 2375 3175 
L 1775 125 
L 1375 125 
L 775 3175 
L 725 3175 
L 725 125 
L 225 125 
L 225 4400 
L 1000 4400 
L 1550 1575 
L 1600 1575 
L 2150 4400 
L 2925 4400 
L 2925 125 
z
" transform="scale(0.015625)"/>
       <path id="SimHei-6e" d="M 2800 125 
L 2300 125 
L 2300 1925 
Q 2300 2225 2150 2400 
Q 2000 2575 1750 2575 
Q 1425 2575 1137 2237 
Q 850 1900 850 1400 
L 850 125 
L 350 125 
L 350 2925 
L 850 2925 
L 850 2400 
Q 1050 2675 1287 2825 
Q 1525 2975 1900 2975 
Q 2350 2975 2575 2725 
Q 2800 2475 2800 2100 
L 2800 125 
z
" transform="scale(0.015625)"/>
       <path id="SimHei-68" d="M 2800 125 
L 2300 125 
L 2300 1925 
Q 2300 2225 2150 2400 
Q 2000 2575 1750 2575 
Q 1425 2575 1137 2237 
Q 850 1900 850 1400 
L 850 125 
L 350 125 
L 350 4400 
L 850 4400 
L 850 2400 
Q 1050 2675 1287 2825 
Q 1525 2975 1900 2975 
Q 2350 2975 2575 2725 
Q 2800 2475 2800 2100 
L 2800 125 
z
" transform="scale(0.015625)"/>
       <path id="SimHei-74" d="M 2750 200 
Q 2625 150 2462 112 
Q 2300 75 2025 75 
Q 1575 75 1300 325 
Q 1025 575 1025 1025 
L 1025 2525 
L 175 2525 
L 175 2925 
L 1025 2925 
L 1025 3900 
L 1525 3900 
L 1525 2925 
L 2550 2925 
L 2550 2525 
L 1525 2525 
L 1525 1000 
Q 1525 800 1625 662 
Q 1725 525 2000 525 
Q 2275 525 2450 575 
Q 2625 625 2750 700 
L 2750 200 
z
" transform="scale(0.015625)"/>
      </defs>
      <use xlink:href="#SimHei-4d"/>
      <use xlink:href="#SimHei-61" x="50"/>
      <use xlink:href="#SimHei-6e" x="100"/>
      <use xlink:href="#SimHei-68" x="150"/>
      <use xlink:href="#SimHei-61" x="200"/>
      <use xlink:href="#SimHei-74" x="250"/>
      <use xlink:href="#SimHei-74" x="300"/>
      <use xlink:href="#SimHei-61" x="350"/>
      <use xlink:href="#SimHei-6e" x="400"/>
     </g>
    </g>
    <g id="line2d_23">
     <path d="M 306.8 86.81 
L 316.8 86.81 
L 326.8 86.81 
" style="fill: none; stroke: #d62728; stroke-width: 2; stroke-linecap: square"/>
    </g>
    <g id="text_22">
     <!-- Degree -->
     <g transform="translate(334.8 90.31)scale(0.1 -0.1)">
      <defs>
       <path id="SimHei-44" d="M 2925 2250 
Q 2925 1100 2437 612 
Q 1950 125 1125 125 
L 275 125 
L 275 4400 
L 1125 4400 
Q 2050 4400 2487 3900 
Q 2925 3400 2925 2250 
z
M 2325 2250 
Q 2325 3175 2025 3550 
Q 1725 3925 1125 3925 
L 850 3925 
L 850 600 
L 1125 600 
Q 1725 600 2025 962 
Q 2325 1325 2325 2250 
z
" transform="scale(0.015625)"/>
       <path id="SimHei-65" d="M 2850 1075 
Q 2800 625 2450 350 
Q 2100 75 1625 75 
Q 1025 75 637 462 
Q 250 850 250 1525 
Q 250 2200 637 2587 
Q 1025 2975 1625 2975 
Q 2150 2975 2487 2637 
Q 2825 2300 2825 1525 
L 800 1525 
Q 800 975 1037 750 
Q 1275 525 1625 525 
Q 1900 525 2075 662 
Q 2250 800 2300 1075 
L 2850 1075 
z
M 2250 1925 
Q 2200 2275 2025 2412 
Q 1850 2550 1575 2550 
Q 1325 2550 1125 2412 
Q 925 2275 825 1925 
L 2250 1925 
z
" transform="scale(0.015625)"/>
       <path id="SimHei-72" d="M 2500 2425 
Q 2025 2500 1700 2287 
Q 1375 2075 1150 1550 
L 1150 125 
L 650 125 
L 650 2925 
L 1150 2925 
L 1150 2200 
Q 1375 2600 1712 2787 
Q 2050 2975 2500 2975 
L 2500 2425 
z
" transform="scale(0.015625)"/>
      </defs>
      <use xlink:href="#SimHei-44"/>
      <use xlink:href="#SimHei-65" x="50"/>
      <use xlink:href="#SimHei-67" x="100"/>
      <use xlink:href="#SimHei-72" x="150"/>
      <use xlink:href="#SimHei-65" x="200"/>
      <use xlink:href="#SimHei-65" x="250"/>
     </g>
    </g>
   </g>
  </g>
 </g>
 <defs>
  <clipPath id="p544ae1a20d">
   <rect x="54" y="34.56" width="334.8" height="217.44"/>
  </clipPath>
 </defs>
</svg>
