<?xml version="1.0" encoding="utf-8" standalone="no"?>
<!DOCTYPE svg PUBLIC "-//W3C//DTD SVG 1.1//EN"
  "http://www.w3.org/Graphics/SVG/1.1/DTD/svg11.dtd">
<svg xmlns:xlink="http://www.w3.org/1999/xlink" width="432pt" height="288pt" viewBox="0 0 432 288" xmlns="http://www.w3.org/2000/svg" version="1.1">
 <metadata>
  <rdf:RDF xmlns:dc="http://purl.org/dc/elements/1.1/" xmlns:cc="http://creativecommons.org/ns#" xmlns:rdf="http://www.w3.org/1999/02/22-rdf-syntax-ns#">
   <cc:Work>
    <dc:type rdf:resource="http://purl.org/dc/dcmitype/StillImage"/>
    <dc:date>2023-05-28T21:54:58.050573</dc:date>
    <dc:format>image/svg+xml</dc:format>
    <dc:creator>
     <cc:Agent>
      <dc:title>Matplotlib v3.5.2, https://matplotlib.org/</dc:title>
     </cc:Agent>
    </dc:creator>
   </cc:Work>
  </rdf:RDF>
 </metadata>
 <defs>
  <style type="text/css">*{stroke-linejoin: round; stroke-linecap: butt}</style>
 </defs>
 <g id="figure_1">
  <g id="patch_1">
   <path d="M 0 288 
L 432 288 
L 432 0 
L 0 0 
L 0 288 
z
" style="fill: none"/>
  </g>
  <g id="axes_1">
   <g id="patch_2">
    <path d="M 41.065625 248.903125 
L 413.7 248.903125 
L 413.7 26.440625 
L 41.065625 26.440625 
z
" style="fill: #ffffff"/>
   </g>
   <g id="matplotlib.axis_1">
    <g id="xtick_1">
     <g id="line2d_1">
      <defs>
       <path id="m7e91d131c9" d="M 0 0 
L 0 3.5 
" style="stroke: #000000; stroke-width: 0.8"/>
      </defs>
      <g>
       <use xlink:href="#m7e91d131c9" x="80.990737" y="248.903125" style="stroke: #000000; stroke-width: 0.8"/>
      </g>
     </g>
     <g id="text_1">
      <!-- 25 -->
      <g transform="translate(75.990737 262.778125)scale(0.1 -0.1)">
       <defs>
        <path id="SimHei-32" d="M 300 250 
Q 325 625 650 925 
Q 975 1225 1475 1862 
Q 1975 2500 2125 2850 
Q 2275 3200 2237 3450 
Q 2200 3700 2000 3862 
Q 1800 4025 1537 4000 
Q 1275 3975 1037 3800 
Q 800 3625 675 3275 
L 200 3350 
Q 400 3925 712 4187 
Q 1025 4450 1450 4475 
Q 1700 4500 1900 4462 
Q 2100 4425 2312 4287 
Q 2525 4150 2662 3875 
Q 2800 3600 2762 3212 
Q 2725 2825 2375 2287 
Q 2025 1750 1025 600 
L 2825 600 
L 2825 150 
L 300 150 
L 300 250 
z
" transform="scale(0.015625)"/>
        <path id="SimHei-35" d="M 550 1325 
Q 725 650 1150 575 
Q 1575 500 1837 662 
Q 2100 825 2212 1087 
Q 2325 1350 2312 1675 
Q 2300 2000 2137 2225 
Q 1975 2450 1725 2525 
Q 1475 2600 1162 2525 
Q 850 2450 650 2175 
L 225 2225 
Q 275 2375 700 4375 
L 2675 4375 
L 2675 3925 
L 1075 3925 
Q 950 3250 825 2850 
Q 1200 3025 1525 3012 
Q 1850 3000 2150 2862 
Q 2450 2725 2587 2487 
Q 2725 2250 2787 2012 
Q 2850 1775 2837 1500 
Q 2825 1225 2725 937 
Q 2625 650 2425 462 
Q 2225 275 1937 162 
Q 1650 50 1275 75 
Q 900 100 562 350 
Q 225 600 100 1200 
L 550 1325 
z
" transform="scale(0.015625)"/>
       </defs>
       <use xlink:href="#SimHei-32"/>
       <use xlink:href="#SimHei-35" x="50"/>
      </g>
     </g>
    </g>
    <g id="xtick_2">
     <g id="line2d_2">
      <g>
       <use xlink:href="#m7e91d131c9" x="128.520631" y="248.903125" style="stroke: #000000; stroke-width: 0.8"/>
      </g>
     </g>
     <g id="text_2">
      <!-- 50 -->
      <g transform="translate(123.520631 262.778125)scale(0.1 -0.1)">
       <defs>
        <path id="SimHei-30" d="M 225 2537 
Q 250 3200 412 3587 
Q 575 3975 875 4225 
Q 1175 4475 1612 4475 
Q 2050 4475 2375 4112 
Q 2700 3750 2800 3200 
Q 2900 2650 2862 1937 
Q 2825 1225 2612 775 
Q 2400 325 1975 150 
Q 1550 -25 1125 187 
Q 700 400 525 750 
Q 350 1100 275 1487 
Q 200 1875 225 2537 
z
M 750 2687 
Q 675 2000 800 1462 
Q 925 925 1212 700 
Q 1500 475 1800 612 
Q 2100 750 2237 1162 
Q 2375 1575 2375 2062 
Q 2375 2550 2337 2950 
Q 2300 3350 2112 3675 
Q 1925 4000 1612 4012 
Q 1300 4025 1062 3700 
Q 825 3375 750 2687 
z
" transform="scale(0.015625)"/>
       </defs>
       <use xlink:href="#SimHei-35"/>
       <use xlink:href="#SimHei-30" x="50"/>
      </g>
     </g>
    </g>
    <g id="xtick_3">
     <g id="line2d_3">
      <g>
       <use xlink:href="#m7e91d131c9" x="176.050526" y="248.903125" style="stroke: #000000; stroke-width: 0.8"/>
      </g>
     </g>
     <g id="text_3">
      <!-- 75 -->
      <g transform="translate(171.050526 262.778125)scale(0.1 -0.1)">
       <defs>
        <path id="SimHei-37" d="M 850 150 
Q 1300 2050 2425 3925 
L 275 3925 
L 275 4375 
L 2950 4375 
L 2950 3950 
Q 1775 2050 1400 150 
L 850 150 
z
" transform="scale(0.015625)"/>
       </defs>
       <use xlink:href="#SimHei-37"/>
       <use xlink:href="#SimHei-35" x="50"/>
      </g>
     </g>
    </g>
    <g id="xtick_4">
     <g id="line2d_4">
      <g>
       <use xlink:href="#m7e91d131c9" x="223.580421" y="248.903125" style="stroke: #000000; stroke-width: 0.8"/>
      </g>
     </g>
     <g id="text_4">
      <!-- 100 -->
      <g transform="translate(216.080421 262.778125)scale(0.1 -0.1)">
       <defs>
        <path id="SimHei-31" d="M 1400 3600 
Q 1075 3275 575 2975 
L 575 3450 
Q 1200 3875 1600 4450 
L 1900 4450 
L 1900 150 
L 1400 150 
L 1400 3600 
z
" transform="scale(0.015625)"/>
       </defs>
       <use xlink:href="#SimHei-31"/>
       <use xlink:href="#SimHei-30" x="50"/>
       <use xlink:href="#SimHei-30" x="100"/>
      </g>
     </g>
    </g>
    <g id="xtick_5">
     <g id="line2d_5">
      <g>
       <use xlink:href="#m7e91d131c9" x="271.110316" y="248.903125" style="stroke: #000000; stroke-width: 0.8"/>
      </g>
     </g>
     <g id="text_5">
      <!-- 125 -->
      <g transform="translate(263.610316 262.778125)scale(0.1 -0.1)">
       <use xlink:href="#SimHei-31"/>
       <use xlink:href="#SimHei-32" x="50"/>
       <use xlink:href="#SimHei-35" x="100"/>
      </g>
     </g>
    </g>
    <g id="xtick_6">
     <g id="line2d_6">
      <g>
       <use xlink:href="#m7e91d131c9" x="318.64021" y="248.903125" style="stroke: #000000; stroke-width: 0.8"/>
      </g>
     </g>
     <g id="text_6">
      <!-- 150 -->
      <g transform="translate(311.14021 262.778125)scale(0.1 -0.1)">
       <use xlink:href="#SimHei-31"/>
       <use xlink:href="#SimHei-35" x="50"/>
       <use xlink:href="#SimHei-30" x="100"/>
      </g>
     </g>
    </g>
    <g id="xtick_7">
     <g id="line2d_7">
      <g>
       <use xlink:href="#m7e91d131c9" x="366.170105" y="248.903125" style="stroke: #000000; stroke-width: 0.8"/>
      </g>
     </g>
     <g id="text_7">
      <!-- 175 -->
      <g transform="translate(358.670105 262.778125)scale(0.1 -0.1)">
       <use xlink:href="#SimHei-31"/>
       <use xlink:href="#SimHei-37" x="50"/>
       <use xlink:href="#SimHei-35" x="100"/>
      </g>
     </g>
    </g>
    <g id="xtick_8">
     <g id="line2d_8">
      <g>
       <use xlink:href="#m7e91d131c9" x="413.7" y="248.903125" style="stroke: #000000; stroke-width: 0.8"/>
      </g>
     </g>
     <g id="text_8">
      <!-- 200 -->
      <g transform="translate(406.2 262.778125)scale(0.1 -0.1)">
       <use xlink:href="#SimHei-32"/>
       <use xlink:href="#SimHei-30" x="50"/>
       <use xlink:href="#SimHei-30" x="100"/>
      </g>
     </g>
    </g>
    <g id="text_9">
     <!-- 序列长度 -->
     <g transform="translate(207.382813 276.075)scale(0.1 -0.1)">
      <defs>
       <path id="SimHei-5e8f" d="M 4000 2075 
L 5975 2075 
Q 5750 1525 5575 1025 
Q 5325 1100 5050 1150 
Q 5175 1450 5275 1700 
L 4050 1700 
L 4050 150 
Q 4050 -375 3762 -462 
Q 3475 -550 2950 -575 
Q 2875 -300 2750 0 
Q 3350 -75 3475 25 
Q 3600 125 3575 375 
L 3575 1700 
L 2450 1700 
Q 2050 1700 1675 1675 
L 1675 2100 
Q 2100 2075 2425 2075 
L 3675 2075 
Q 3325 2400 2875 2775 
Q 2975 2875 3250 3100 
Q 3400 2975 3725 2725 
L 4575 3275 
L 3000 3275 
Q 2400 3275 1950 3250 
L 1950 3700 
Q 2400 3675 3000 3675 
L 5400 3675 
L 5400 3250 
Q 4700 2875 4025 2450 
L 4275 2250 
L 4000 2075 
z
M 3725 5275 
Q 3825 4925 3925 4525 
L 4850 4525 
Q 5425 4525 6000 4550 
L 6000 4125 
Q 5425 4150 4850 4150 
L 1400 4150 
Q 1400 2750 1362 2137 
Q 1325 1525 1200 887 
Q 1075 250 775 -350 
Q 625 -250 250 -125 
Q 475 300 600 700 
Q 725 1100 800 1637 
Q 875 2175 875 2825 
Q 875 3500 850 4525 
L 3350 4525 
Q 3275 4825 3150 5150 
Q 3425 5200 3725 5275 
z
" transform="scale(0.015625)"/>
       <path id="SimHei-5217" d="M 2950 4800 
Q 3525 4800 3825 4825 
L 3825 4400 
Q 3525 4425 2800 4425 
L 2125 4425 
Q 2075 4125 1925 3500 
L 3425 3500 
Q 3300 2500 3100 1862 
Q 2900 1225 2575 762 
Q 2250 300 1850 -12 
Q 1450 -325 925 -675 
Q 725 -375 475 -150 
Q 1125 125 1550 437 
Q 1975 750 2250 1225 
Q 2100 1350 1862 1550 
Q 1625 1750 1400 1925 
L 1750 2325 
Q 1925 2200 2100 2037 
Q 2275 1875 2500 1650 
Q 2650 2025 2737 2337 
Q 2825 2650 2875 3100 
L 1775 3100 
Q 1600 2650 1350 2237 
Q 1100 1825 775 1525 
Q 600 1675 325 1850 
Q 600 2125 825 2462 
Q 1050 2800 1200 3125 
Q 1350 3450 1425 3775 
Q 1500 4100 1550 4425 
L 1100 4425 
Q 575 4425 375 4400 
L 375 4825 
Q 575 4800 1125 4800 
L 2950 4800 
z
M 5975 5050 
Q 5925 4675 5925 4250 
L 5925 50 
Q 5925 -275 5737 -400 
Q 5550 -525 4900 -625 
Q 4825 -250 4650 25 
Q 5150 0 5287 25 
Q 5425 50 5425 325 
L 5425 4250 
Q 5425 4650 5400 5050 
L 5975 5050 
z
M 4725 4300 
Q 4675 4000 4675 3450 
L 4675 1650 
Q 4675 1200 4700 850 
L 4100 850 
Q 4150 1200 4150 1650 
L 4150 3550 
Q 4150 3975 4100 4300 
L 4725 4300 
z
" transform="scale(0.015625)"/>
       <path id="SimHei-957f" d="M 1750 2800 
L 1750 4450 
Q 1750 4675 1725 5100 
L 2275 5100 
Q 2250 4625 2250 4475 
L 2250 2800 
L 5275 2800 
Q 5600 2800 5975 2825 
L 5975 2325 
Q 5500 2350 5100 2350 
L 3650 2350 
Q 3825 1850 4187 1375 
Q 4550 900 5050 587 
Q 5550 275 5950 150 
Q 5625 -50 5450 -350 
Q 4925 -75 4475 300 
Q 4025 675 3675 1212 
Q 3325 1750 3150 2350 
L 2250 2350 
L 2250 375 
Q 2975 825 3225 1050 
Q 3400 775 3575 550 
Q 3100 325 2625 -12 
Q 2150 -350 1925 -575 
Q 1725 -300 1550 -100 
Q 1750 100 1750 425 
L 1750 2350 
L 1175 2350 
Q 825 2350 375 2325 
L 375 2825 
Q 825 2800 1125 2800 
L 1750 2800 
z
M 4900 4700 
Q 4625 4475 4087 3937 
Q 3550 3400 3025 2900 
Q 2800 3200 2650 3300 
Q 3075 3600 3600 4150 
Q 4125 4700 4400 5100 
Q 4600 4925 4900 4700 
z
" transform="scale(0.015625)"/>
       <path id="SimHei-5ea6" d="M 1750 1675 
Q 2450 1650 2875 1650 
L 5200 1650 
Q 4975 1250 4650 850 
Q 4325 450 4025 200 
Q 4350 50 4950 -50 
Q 5550 -150 6100 -150 
Q 5950 -300 5825 -650 
Q 5100 -550 4550 -412 
Q 4000 -275 3625 -100 
Q 3100 -325 2587 -462 
Q 2075 -600 1525 -675 
Q 1450 -475 1225 -250 
Q 1675 -250 2250 -125 
Q 2825 0 3250 200 
Q 2825 550 2400 1275 
L 1750 1250 
L 1750 1675 
z
M 2975 5075 
Q 3250 5150 3475 5250 
Q 3625 4975 3775 4525 
L 4700 4525 
Q 4975 4525 5700 4550 
L 5700 4100 
Q 5000 4125 4650 4125 
L 1375 4125 
Q 1375 3000 1350 2312 
Q 1325 1625 1212 950 
Q 1100 275 725 -525 
Q 500 -375 250 -300 
Q 650 400 762 1075 
Q 875 1750 887 2800 
Q 900 3850 875 4525 
L 3200 4525 
Q 3100 4850 2975 5075 
z
M 2475 3300 
Q 2475 3700 2450 3925 
L 2975 3925 
Q 2950 3725 2950 3300 
L 4300 3300 
Q 4300 3700 4275 3950 
L 4800 3950 
Q 4775 3650 4775 3300 
Q 5325 3300 5725 3325 
L 5725 2900 
Q 5350 2925 4775 2925 
Q 4775 2250 4800 1950 
L 2450 1950 
Q 2475 2350 2475 2925 
Q 2175 2925 1600 2900 
L 1600 3325 
Q 2175 3300 2475 3300 
z
M 4300 2350 
L 4300 2925 
L 2950 2925 
L 2950 2350 
L 4300 2350 
z
M 2875 1275 
Q 3200 775 3650 425 
Q 4025 700 4425 1275 
L 2900 1275 
L 2875 1275 
z
" transform="scale(0.015625)"/>
      </defs>
      <use xlink:href="#SimHei-5e8f"/>
      <use xlink:href="#SimHei-5217" x="100"/>
      <use xlink:href="#SimHei-957f" x="200"/>
      <use xlink:href="#SimHei-5ea6" x="300"/>
     </g>
    </g>
   </g>
   <g id="matplotlib.axis_2">
    <g id="ytick_1">
     <g id="line2d_9">
      <defs>
       <path id="md8aa5fe775" d="M 0 0 
L -3.5 0 
" style="stroke: #000000; stroke-width: 0.8"/>
      </defs>
      <g>
       <use xlink:href="#md8aa5fe775" x="41.065625" y="238.791193" style="stroke: #000000; stroke-width: 0.8"/>
      </g>
     </g>
     <g id="text_10">
      <!-- 0 -->
      <g transform="translate(29.065625 242.228693)scale(0.1 -0.1)">
       <use xlink:href="#SimHei-30"/>
      </g>
     </g>
    </g>
    <g id="ytick_2">
     <g id="line2d_10">
      <g>
       <use xlink:href="#md8aa5fe775" x="41.065625" y="200.328952" style="stroke: #000000; stroke-width: 0.8"/>
      </g>
     </g>
     <g id="text_11">
      <!-- 2 -->
      <g transform="translate(29.065625 203.766452)scale(0.1 -0.1)">
       <use xlink:href="#SimHei-32"/>
      </g>
     </g>
    </g>
    <g id="ytick_3">
     <g id="line2d_11">
      <g>
       <use xlink:href="#md8aa5fe775" x="41.065625" y="161.86671" style="stroke: #000000; stroke-width: 0.8"/>
      </g>
     </g>
     <g id="text_12">
      <!-- 4 -->
      <g transform="translate(29.065625 165.30421)scale(0.1 -0.1)">
       <defs>
        <path id="SimHei-34" d="M 2000 1100 
L 75 1100 
L 75 1525 
L 2100 4450 
L 2475 4450 
L 2475 1525 
L 3075 1525 
L 3075 1100 
L 2475 1100 
L 2475 150 
L 2000 150 
L 2000 1100 
z
M 2000 1525 
L 2000 3500 
L 600 1525 
L 2000 1525 
z
" transform="scale(0.015625)"/>
       </defs>
       <use xlink:href="#SimHei-34"/>
      </g>
     </g>
    </g>
    <g id="ytick_4">
     <g id="line2d_12">
      <g>
       <use xlink:href="#md8aa5fe775" x="41.065625" y="123.404468" style="stroke: #000000; stroke-width: 0.8"/>
      </g>
     </g>
     <g id="text_13">
      <!-- 6 -->
      <g transform="translate(29.065625 126.841968)scale(0.1 -0.1)">
       <defs>
        <path id="SimHei-36" d="M 250 1612 
Q 275 1975 387 2225 
Q 500 2475 725 2850 
L 1750 4450 
L 2325 4450 
L 1275 2800 
Q 1950 2975 2350 2750 
Q 2750 2525 2887 2237 
Q 3025 1950 3037 1612 
Q 3050 1275 2937 950 
Q 2825 625 2537 362 
Q 2250 100 1737 75 
Q 1225 50 862 262 
Q 500 475 362 862 
Q 225 1250 250 1612 
z
M 1025 787 
Q 1250 550 1625 525 
Q 2000 500 2250 775 
Q 2500 1050 2500 1575 
Q 2500 2100 2187 2300 
Q 1875 2500 1487 2450 
Q 1100 2400 925 2075 
Q 750 1750 775 1387 
Q 800 1025 1025 787 
z
" transform="scale(0.015625)"/>
       </defs>
       <use xlink:href="#SimHei-36"/>
      </g>
     </g>
    </g>
    <g id="ytick_5">
     <g id="line2d_13">
      <g>
       <use xlink:href="#md8aa5fe775" x="41.065625" y="84.942227" style="stroke: #000000; stroke-width: 0.8"/>
      </g>
     </g>
     <g id="text_14">
      <!-- 8 -->
      <g transform="translate(29.065625 88.379727)scale(0.1 -0.1)">
       <defs>
        <path id="SimHei-38" d="M 175 1375 
Q 175 1675 325 1962 
Q 475 2250 825 2425 
Q 525 2600 425 2812 
Q 325 3025 312 3300 
Q 300 3575 387 3775 
Q 475 3975 650 4150 
Q 825 4325 1037 4387 
Q 1250 4450 1500 4450 
Q 1750 4450 1950 4400 
Q 2150 4350 2375 4187 
Q 2600 4025 2700 3725 
Q 2800 3425 2687 3025 
Q 2575 2625 2100 2400 
Q 2525 2275 2700 2012 
Q 2875 1750 2875 1375 
Q 2875 1000 2762 775 
Q 2650 550 2512 400 
Q 2375 250 2137 162 
Q 1900 75 1537 75 
Q 1175 75 912 162 
Q 650 250 475 425 
Q 300 600 237 837 
Q 175 1075 175 1375 
z
M 687 1400 
Q 675 1100 787 875 
Q 900 650 1200 587 
Q 1500 525 1825 600 
Q 2150 675 2275 950 
Q 2400 1225 2362 1500 
Q 2325 1775 2050 1962 
Q 1775 2150 1450 2125 
Q 1125 2100 912 1900 
Q 700 1700 687 1400 
z
M 775 3350 
Q 775 3100 950 2875 
Q 1125 2650 1500 2650 
Q 1875 2650 2062 2875 
Q 2250 3100 2237 3412 
Q 2225 3725 2012 3875 
Q 1800 4025 1437 4000 
Q 1075 3975 925 3787 
Q 775 3600 775 3350 
z
" transform="scale(0.015625)"/>
       </defs>
       <use xlink:href="#SimHei-38"/>
      </g>
     </g>
    </g>
    <g id="ytick_6">
     <g id="line2d_14">
      <g>
       <use xlink:href="#md8aa5fe775" x="41.065625" y="46.479985" style="stroke: #000000; stroke-width: 0.8"/>
      </g>
     </g>
     <g id="text_15">
      <!-- 10 -->
      <g transform="translate(24.065625 49.917485)scale(0.1 -0.1)">
       <use xlink:href="#SimHei-31"/>
       <use xlink:href="#SimHei-30" x="50"/>
      </g>
     </g>
    </g>
    <g id="text_16">
     <!-- avg of abs(dis2-dis1)/(dis1+1) -->
     <g transform="translate(18.815625 212.671875)rotate(-90)scale(0.1 -0.1)">
      <defs>
       <path id="SimHei-61" d="M 2875 125 
L 2275 125 
Q 2225 175 2200 262 
Q 2175 350 2175 475 
Q 2000 275 1750 175 
Q 1500 75 1225 75 
Q 825 75 550 275 
Q 275 475 275 850 
Q 275 1225 525 1450 
Q 775 1675 1300 1750 
Q 1650 1800 1912 1875 
Q 2175 1950 2175 2075 
Q 2175 2225 2062 2375 
Q 1950 2525 1575 2525 
Q 1275 2525 1137 2412 
Q 1000 2300 950 2100 
L 400 2100 
Q 450 2500 762 2737 
Q 1075 2975 1575 2975 
Q 2125 2975 2400 2725 
Q 2675 2475 2675 2025 
L 2675 650 
Q 2675 500 2725 375 
Q 2775 250 2875 125 
z
M 2175 1050 
L 2175 1550 
Q 2025 1500 1887 1462 
Q 1750 1425 1425 1375 
Q 1050 1325 937 1200 
Q 825 1075 825 900 
Q 825 750 937 637 
Q 1050 525 1275 525 
Q 1500 525 1762 650 
Q 2025 775 2175 1050 
z
" transform="scale(0.015625)"/>
       <path id="SimHei-76" d="M 2875 2925 
L 1825 75 
L 1275 75 
L 225 2925 
L 750 2925 
L 1525 750 
L 1575 750 
L 2350 2925 
L 2875 2925 
z
" transform="scale(0.015625)"/>
       <path id="SimHei-67" d="M 2975 2500 
Q 2800 2550 2637 2562 
Q 2475 2575 2300 2525 
Q 2375 2450 2425 2337 
Q 2475 2225 2475 2000 
Q 2475 1575 2187 1300 
Q 1900 1025 1475 1025 
Q 1375 1025 1212 1062 
Q 1050 1100 950 1150 
Q 875 1100 850 1050 
Q 825 1000 825 925 
Q 825 800 1000 737 
Q 1175 675 1625 675 
Q 2350 675 2612 475 
Q 2875 275 2875 -25 
Q 2875 -425 2487 -612 
Q 2100 -800 1575 -800 
Q 900 -800 575 -625 
Q 250 -450 250 -150 
Q 250 0 375 150 
Q 500 300 700 400 
Q 550 475 462 587 
Q 375 700 375 875 
Q 375 1025 487 1137 
Q 600 1250 750 1325 
Q 625 1450 550 1625 
Q 475 1800 475 2000 
Q 475 2425 762 2700 
Q 1050 2975 1475 2975 
Q 1700 2975 1862 2912 
Q 2025 2850 2150 2725 
Q 2350 2875 2550 2937 
Q 2750 3000 2975 2975 
L 2975 2500 
z
M 1975 2000 
Q 1975 2250 1850 2400 
Q 1725 2550 1475 2550 
Q 1225 2550 1100 2400 
Q 975 2250 975 2000 
Q 975 1750 1100 1600 
Q 1225 1450 1475 1450 
Q 1725 1450 1850 1600 
Q 1975 1750 1975 2000 
z
M 2400 -75 
Q 2400 25 2287 125 
Q 2175 225 1725 225 
Q 1625 225 1450 237 
Q 1275 250 1050 275 
Q 850 200 775 100 
Q 700 0 700 -100 
Q 700 -250 900 -350 
Q 1100 -450 1600 -450 
Q 2025 -450 2212 -337 
Q 2400 -225 2400 -75 
z
" transform="scale(0.015625)"/>
       <path id="SimHei-20" transform="scale(0.015625)"/>
       <path id="SimHei-6f" d="M 2925 1525 
Q 2925 875 2525 475 
Q 2125 75 1575 75 
Q 1025 75 625 475 
Q 225 875 225 1525 
Q 225 2175 625 2575 
Q 1025 2975 1575 2975 
Q 2125 2975 2525 2575 
Q 2925 2175 2925 1525 
z
M 2375 1525 
Q 2375 2025 2125 2275 
Q 1875 2525 1575 2525 
Q 1275 2525 1025 2275 
Q 775 2025 775 1525 
Q 775 1025 1025 775 
Q 1275 525 1575 525 
Q 1875 525 2125 775 
Q 2375 1025 2375 1525 
z
" transform="scale(0.015625)"/>
       <path id="SimHei-66" d="M 2850 3825 
Q 2725 3900 2550 3950 
Q 2375 4000 2100 4000 
Q 1825 4000 1725 3862 
Q 1625 3725 1625 3525 
L 1625 2925 
L 2650 2925 
L 2650 2525 
L 1625 2525 
L 1625 125 
L 1125 125 
L 1125 2525 
L 275 2525 
L 275 2925 
L 1125 2925 
L 1125 3500 
Q 1125 3950 1400 4200 
Q 1675 4450 2125 4450 
Q 2400 4450 2562 4412 
Q 2725 4375 2850 4325 
L 2850 3825 
z
" transform="scale(0.015625)"/>
       <path id="SimHei-62" d="M 2825 1525 
Q 2825 800 2475 437 
Q 2125 75 1625 75 
Q 1350 75 1150 175 
Q 950 275 800 500 
L 800 125 
L 300 125 
L 300 4400 
L 800 4400 
L 800 2550 
Q 950 2775 1150 2887 
Q 1350 3000 1625 3000 
Q 2125 3000 2475 2625 
Q 2825 2250 2825 1525 
z
M 2275 1525 
Q 2275 2000 2087 2275 
Q 1900 2550 1525 2550 
Q 1225 2550 1012 2275 
Q 800 2000 800 1525 
Q 800 1050 1012 787 
Q 1225 525 1525 525 
Q 1900 525 2087 787 
Q 2275 1050 2275 1525 
z
" transform="scale(0.015625)"/>
       <path id="SimHei-73" d="M 2750 900 
Q 2750 500 2437 287 
Q 2125 75 1650 75 
Q 1050 75 725 312 
Q 400 550 400 1000 
L 900 1000 
Q 900 700 1112 600 
Q 1325 500 1625 500 
Q 1925 500 2075 612 
Q 2225 725 2225 900 
Q 2225 1025 2100 1150 
Q 1975 1275 1475 1350 
Q 900 1425 687 1637 
Q 475 1850 475 2200 
Q 475 2500 762 2737 
Q 1050 2975 1600 2975 
Q 2100 2975 2387 2750 
Q 2675 2525 2675 2150 
L 2175 2150 
Q 2175 2375 2012 2462 
Q 1850 2550 1600 2550 
Q 1275 2550 1137 2437 
Q 1000 2325 1000 2175 
Q 1000 2000 1125 1900 
Q 1250 1800 1650 1750 
Q 2300 1650 2525 1437 
Q 2750 1225 2750 900 
z
" transform="scale(0.015625)"/>
       <path id="SimHei-28" d="M 2975 -200 
L 2700 -475 
Q 2075 125 1762 775 
Q 1450 1425 1450 2250 
Q 1450 3075 1762 3725 
Q 2075 4375 2700 5000 
L 2975 4725 
Q 2400 4175 2112 3587 
Q 1825 3000 1825 2250 
Q 1825 1500 2112 912 
Q 2400 325 2975 -200 
z
" transform="scale(0.015625)"/>
       <path id="SimHei-64" d="M 2750 125 
L 2250 125 
L 2250 500 
Q 2100 275 1900 175 
Q 1700 75 1425 75 
Q 925 75 575 437 
Q 225 800 225 1525 
Q 225 2250 575 2625 
Q 925 3000 1425 3000 
Q 1700 3000 1900 2887 
Q 2100 2775 2250 2550 
L 2250 4400 
L 2750 4400 
L 2750 125 
z
M 2250 1525 
Q 2250 2000 2037 2275 
Q 1825 2550 1525 2550 
Q 1150 2550 962 2275 
Q 775 2000 775 1525 
Q 775 1050 962 787 
Q 1150 525 1525 525 
Q 1825 525 2037 787 
Q 2250 1050 2250 1525 
z
" transform="scale(0.015625)"/>
       <path id="SimHei-69" d="M 1800 3725 
L 1300 3725 
L 1300 4375 
L 1800 4375 
L 1800 3725 
z
M 1800 125 
L 1300 125 
L 1300 2925 
L 1800 2925 
L 1800 125 
z
" transform="scale(0.015625)"/>
       <path id="SimHei-2d" d="M 2975 2125 
L 125 2125 
L 125 2525 
L 2975 2525 
L 2975 2125 
z
" transform="scale(0.015625)"/>
       <path id="SimHei-29" d="M 1675 2250 
Q 1675 1425 1362 775 
Q 1050 125 425 -475 
L 150 -200 
Q 725 325 1012 912 
Q 1300 1500 1300 2250 
Q 1300 3000 1012 3587 
Q 725 4175 150 4725 
L 425 5000 
Q 1050 4375 1362 3725 
Q 1675 3075 1675 2250 
z
" transform="scale(0.015625)"/>
       <path id="SimHei-2f" d="M 3000 4550 
L 350 -175 
L 100 -25 
L 2750 4700 
L 3000 4550 
z
" transform="scale(0.015625)"/>
       <path id="SimHei-2b" d="M 3000 2125 
L 1775 2125 
L 1775 900 
L 1350 900 
L 1350 2125 
L 125 2125 
L 125 2525 
L 1350 2525 
L 1350 3750 
L 1775 3750 
L 1775 2525 
L 3000 2525 
L 3000 2125 
z
" transform="scale(0.015625)"/>
      </defs>
      <use xlink:href="#SimHei-61"/>
      <use xlink:href="#SimHei-76" x="50"/>
      <use xlink:href="#SimHei-67" x="100"/>
      <use xlink:href="#SimHei-20" x="150"/>
      <use xlink:href="#SimHei-6f" x="200"/>
      <use xlink:href="#SimHei-66" x="250"/>
      <use xlink:href="#SimHei-20" x="300"/>
      <use xlink:href="#SimHei-61" x="350"/>
      <use xlink:href="#SimHei-62" x="400"/>
      <use xlink:href="#SimHei-73" x="450"/>
      <use xlink:href="#SimHei-28" x="500"/>
      <use xlink:href="#SimHei-64" x="550"/>
      <use xlink:href="#SimHei-69" x="600"/>
      <use xlink:href="#SimHei-73" x="650"/>
      <use xlink:href="#SimHei-32" x="700"/>
      <use xlink:href="#SimHei-2d" x="750"/>
      <use xlink:href="#SimHei-64" x="800"/>
      <use xlink:href="#SimHei-69" x="850"/>
      <use xlink:href="#SimHei-73" x="900"/>
      <use xlink:href="#SimHei-31" x="950"/>
      <use xlink:href="#SimHei-29" x="1000"/>
      <use xlink:href="#SimHei-2f" x="1050"/>
      <use xlink:href="#SimHei-28" x="1100"/>
      <use xlink:href="#SimHei-64" x="1150"/>
      <use xlink:href="#SimHei-69" x="1200"/>
      <use xlink:href="#SimHei-73" x="1250"/>
      <use xlink:href="#SimHei-31" x="1300"/>
      <use xlink:href="#SimHei-2b" x="1350"/>
      <use xlink:href="#SimHei-31" x="1400"/>
      <use xlink:href="#SimHei-29" x="1450"/>
     </g>
    </g>
   </g>
   <g id="line2d_15">
    <path d="M 33.460842 238.791193 
L 39.164429 238.791193 
L 41.065625 237.885653 
L 44.868017 237.650014 
L 48.670408 237.201443 
L 52.4728 236.769867 
L 54.373996 236.433478 
L 56.275191 236.244785 
L 58.176387 235.93294 
L 60.077583 235.384764 
L 61.978779 235.328002 
L 63.879974 234.655969 
L 67.682366 234.018085 
L 71.484758 232.830733 
L 73.385953 232.519826 
L 75.287149 231.980891 
L 77.188345 231.668614 
L 79.089541 231.124984 
L 80.990737 230.730605 
L 82.891932 230.16063 
L 84.793128 229.989598 
L 86.694324 228.645759 
L 88.59552 228.33481 
L 90.496716 227.613546 
L 92.397911 227.414947 
L 94.299107 225.884371 
L 96.200303 225.963852 
L 98.101499 225.261867 
L 101.90389 224.427856 
L 103.805086 223.249874 
L 105.706282 222.591071 
L 107.607478 221.777133 
L 109.508673 221.898765 
L 111.409869 220.585206 
L 113.311065 218.43512 
L 115.212261 219.589258 
L 117.113457 218.275617 
L 119.014652 218.4595 
L 120.915848 216.371172 
L 122.817044 217.063681 
L 124.71824 215.681794 
L 126.619436 214.771821 
L 128.520631 215.539948 
L 132.323023 213.209298 
L 134.224219 213.258403 
L 136.125415 211.895522 
L 138.02661 212.025387 
L 139.927806 211.796544 
L 141.829002 209.566739 
L 143.730198 209.080977 
L 145.631393 209.17814 
L 147.532589 208.241542 
L 149.433785 206.401253 
L 151.334981 205.485568 
L 153.236177 207.795552 
L 155.137372 205.361703 
L 158.939764 205.663294 
L 160.84096 203.527569 
L 162.742156 201.679252 
L 164.643351 201.809508 
L 166.544547 200.959768 
L 168.445743 201.763388 
L 170.346939 201.234364 
L 172.248135 200.061096 
L 174.14933 198.469383 
L 176.050526 198.723919 
L 177.951722 196.841428 
L 179.852918 197.923053 
L 183.655309 194.270702 
L 185.556505 193.523838 
L 187.457701 195.122465 
L 189.358897 190.97487 
L 191.260092 191.678551 
L 193.161288 192.256959 
L 195.062484 188.978446 
L 196.96368 189.695129 
L 198.864876 189.364921 
L 200.766071 188.103205 
L 202.667267 187.390606 
L 204.568463 184.778747 
L 206.469659 187.04383 
L 208.370855 185.955549 
L 210.27205 185.711415 
L 212.173246 183.561497 
L 214.074442 184.248885 
L 215.975638 181.66538 
L 217.876834 182.935568 
L 219.778029 179.02727 
L 221.679225 180.261315 
L 223.580421 178.72325 
L 225.481617 180.367101 
L 227.382812 178.377094 
L 229.284008 179.867391 
L 233.0864 175.876383 
L 234.987596 174.99009 
L 236.888791 177.767315 
L 238.789987 174.622771 
L 240.691183 175.782935 
L 242.592379 172.020692 
L 244.493575 170.995498 
L 246.39477 169.806802 
L 248.295966 170.175774 
L 250.197162 168.407402 
L 252.098358 167.724976 
L 253.999554 169.18793 
L 255.900749 169.354561 
L 257.801945 168.47696 
L 259.703141 164.746027 
L 261.604337 165.134879 
L 263.505533 163.402654 
L 265.406728 164.232713 
L 267.307924 161.626373 
L 269.20912 159.707466 
L 271.110316 160.478779 
L 273.011511 163.220374 
L 274.912707 156.988746 
L 276.813903 158.263171 
L 278.715099 158.310236 
L 280.616295 158.218614 
L 282.51749 159.169474 
L 284.418686 156.816316 
L 286.319882 155.999199 
L 288.221078 156.515087 
L 290.122274 156.003995 
L 292.023469 152.217147 
L 293.924665 152.731135 
L 295.825861 154.032653 
L 297.727057 156.241373 
L 299.628253 149.310077 
L 301.529448 144.570693 
L 303.430644 148.26101 
L 307.233036 147.904532 
L 309.134232 146.263415 
L 311.035427 147.290831 
L 312.936623 146.619017 
L 314.837819 143.005778 
L 316.739015 145.012023 
L 318.64021 142.345719 
L 320.541406 141.283326 
L 322.442602 143.622179 
L 324.343798 142.6625 
L 326.244994 138.620971 
L 328.146189 139.522836 
L 330.047385 135.304105 
L 331.948581 136.527331 
L 333.849777 137.323289 
L 335.750973 134.399312 
L 337.652168 136.878794 
L 339.553364 135.971863 
L 341.45456 131.924706 
L 343.355756 134.514541 
L 345.256952 129.449268 
L 347.158147 134.154472 
L 349.059343 126.230864 
L 350.960539 129.935011 
L 352.861735 126.465879 
L 354.76293 130.435686 
L 356.664126 127.302509 
L 358.565322 124.809077 
L 360.466518 126.210339 
L 362.367714 124.868349 
L 364.268909 124.472084 
L 366.170105 126.74089 
L 368.071301 127.511515 
L 369.972497 124.909529 
L 371.873693 121.174657 
L 373.774888 120.645271 
L 375.676084 121.87835 
L 377.57728 117.831894 
L 379.478476 117.441736 
L 383.280867 119.582295 
L 385.182063 117.347945 
L 387.083259 116.337343 
L 388.984455 117.643758 
L 390.885651 113.474946 
L 392.786846 116.158218 
L 394.688042 118.312404 
L 396.589238 110.057893 
L 398.490434 114.512667 
L 400.391629 110.934146 
L 402.292825 106.891145 
L 404.194021 109.624004 
L 406.095217 103.827299 
L 407.996413 107.292959 
L 409.897608 110.442329 
L 411.798804 104.682841 
L 411.798804 104.682841 
" clip-path="url(#p6f9d89a9b5)" style="fill: none; stroke: #1f77b4; stroke-width: 2; stroke-linecap: square"/>
   </g>
   <g id="line2d_16">
    <path d="M 33.460842 238.791193 
L 411.798804 238.791193 
L 411.798804 238.791193 
" clip-path="url(#p6f9d89a9b5)" style="fill: none; stroke: #ff7f0e; stroke-width: 3; stroke-linecap: square"/>
   </g>
   <g id="line2d_17">
    <path d="M 33.460842 238.791193 
L 39.164429 238.791193 
L 41.065625 237.667167 
L 46.769212 236.982646 
L 48.670408 236.713174 
L 50.571604 236.573735 
L 52.4728 236.242241 
L 54.373996 235.797339 
L 58.176387 235.2354 
L 60.077583 234.641748 
L 61.978779 234.630127 
L 63.879974 233.78227 
L 65.78117 233.509469 
L 69.583562 232.455127 
L 71.484758 231.560973 
L 73.385953 231.412785 
L 75.287149 230.6902 
L 77.188345 230.273042 
L 82.891932 228.509795 
L 84.793128 228.365092 
L 86.694324 226.774302 
L 88.59552 226.250285 
L 90.496716 225.527944 
L 92.397911 225.204091 
L 94.299107 223.545249 
L 96.200303 223.644013 
L 98.101499 222.738252 
L 100.002695 222.215246 
L 101.90389 221.86203 
L 103.805086 220.320095 
L 107.607478 218.647325 
L 109.508673 218.869286 
L 111.409869 217.353357 
L 113.311065 214.791076 
L 115.212261 215.992102 
L 117.113457 214.562431 
L 119.014652 214.793994 
L 120.915848 212.307417 
L 122.817044 213.27933 
L 124.71824 211.546003 
L 126.619436 210.41589 
L 128.520631 211.392649 
L 130.421827 210.114739 
L 132.323023 208.663905 
L 134.224219 208.705861 
L 136.125415 207.074704 
L 138.02661 207.262736 
L 139.927806 207.022192 
L 141.829002 204.515887 
L 143.730198 203.857006 
L 145.631393 203.975835 
L 147.532589 202.966956 
L 149.433785 200.870702 
L 151.334981 199.677449 
L 153.236177 202.555969 
L 155.137372 199.700642 
L 158.939764 200.007781 
L 162.742156 195.259197 
L 164.643351 195.586969 
L 166.544547 194.650888 
L 168.445743 195.601073 
L 170.346939 194.915872 
L 172.248135 193.592826 
L 174.14933 191.938292 
L 176.050526 192.002114 
L 177.951722 189.799437 
L 179.852918 191.020377 
L 181.754114 189.24245 
L 183.655309 186.896086 
L 185.556505 186.037409 
L 187.457701 187.927307 
L 189.358897 183.003532 
L 191.260092 183.98285 
L 193.161288 184.679434 
L 195.062484 180.840501 
L 196.96368 181.768902 
L 198.864876 181.190432 
L 200.766071 179.939622 
L 202.667267 179.058645 
L 204.568463 175.942762 
L 206.469659 178.704312 
L 208.370855 177.544 
L 210.27205 177.072539 
L 212.173246 174.551434 
L 214.074442 175.543017 
L 215.975638 172.460631 
L 217.876834 174.110985 
L 219.778029 169.35367 
L 221.679225 170.821343 
L 223.580421 169.202791 
L 225.481617 171.003344 
L 227.382812 168.651146 
L 229.284008 170.500174 
L 233.0864 165.88194 
L 234.987596 165.127072 
L 236.888791 168.100217 
L 238.789987 164.490454 
L 240.691183 165.823221 
L 242.592379 161.421975 
L 244.493575 160.43424 
L 246.39477 158.969272 
L 248.295966 159.458363 
L 250.197162 157.568598 
L 252.098358 156.756129 
L 253.999554 158.404056 
L 255.900749 158.617175 
L 257.801945 157.519881 
L 259.703141 153.176092 
L 261.604337 153.85249 
L 263.505533 152.016198 
L 265.406728 152.678611 
L 267.307924 149.772304 
L 269.20912 147.460937 
L 271.110316 148.397719 
L 273.011511 151.574071 
L 274.912707 144.523766 
L 276.813903 146.049163 
L 278.715099 146.2839 
L 280.616295 145.873904 
L 282.51749 147.221536 
L 284.418686 144.444623 
L 286.319882 143.608662 
L 288.221078 144.237139 
L 290.122274 143.600113 
L 292.023469 139.270946 
L 293.924665 139.811274 
L 295.825861 141.447423 
L 297.727057 143.681268 
L 299.628253 136.030187 
L 301.529448 130.360542 
L 303.430644 134.783963 
L 305.33184 134.671681 
L 307.233036 134.316291 
L 309.134232 132.406715 
L 311.035427 133.738538 
L 312.936623 132.848833 
L 314.837819 128.762549 
L 316.739015 131.111878 
L 318.64021 128.124484 
L 320.541406 126.982534 
L 322.442602 129.538284 
L 324.343798 128.427662 
L 326.244994 123.892724 
L 328.146189 124.999256 
L 330.047385 120.075735 
L 331.948581 121.496821 
L 333.849777 122.392778 
L 335.750973 119.305357 
L 337.652168 122.044858 
L 339.553364 120.865636 
L 341.45456 116.489737 
L 343.355756 119.253026 
L 345.256952 113.767607 
L 347.158147 119.114135 
L 349.059343 110.031307 
L 350.960539 114.032998 
L 352.861735 110.310986 
L 354.76293 114.765744 
L 356.664126 111.12577 
L 358.565322 108.332703 
L 360.466518 109.851735 
L 362.367714 108.519355 
L 364.268909 108.090405 
L 366.170105 110.406775 
L 368.071301 111.492244 
L 369.972497 108.692915 
L 371.873693 104.387498 
L 373.774888 103.952047 
L 375.676084 105.053622 
L 377.57728 100.520772 
L 379.478476 100.106891 
L 381.379672 101.324436 
L 383.280867 102.699425 
L 385.182063 100.205708 
L 387.083259 98.828303 
L 388.984455 100.402138 
L 390.885651 95.601651 
L 392.786846 98.78875 
L 394.688042 101.205606 
L 396.589238 91.962786 
L 398.490434 96.857757 
L 400.391629 92.67427 
L 402.292825 88.117883 
L 404.194021 91.325088 
L 406.095217 84.595678 
L 407.996413 88.876254 
L 409.897608 92.338623 
L 411.798804 85.958845 
L 411.798804 85.958845 
" clip-path="url(#p6f9d89a9b5)" style="fill: none; stroke: #2ca02c; stroke-width: 2; stroke-linecap: square"/>
   </g>
   <g id="line2d_18">
    <path d="M 33.460842 238.791193 
L 411.798804 238.791193 
L 411.798804 238.791193 
" clip-path="url(#p6f9d89a9b5)" style="fill: none; stroke: #d62728; stroke-width: 2; stroke-linecap: square"/>
   </g>
   <g id="line2d_19">
    <path d="M 33.460842 238.791193 
L 39.164429 238.791193 
L 41.065625 237.450255 
L 44.868017 236.925548 
L 46.769212 236.977022 
L 56.275191 236.465781 
L 58.176387 236.472286 
L 67.682366 235.874191 
L 73.385953 235.593426 
L 75.287149 235.617095 
L 77.188345 235.282841 
L 79.089541 235.35129 
L 82.891932 235.070963 
L 86.694324 234.990981 
L 88.59552 234.790743 
L 90.496716 234.843178 
L 92.397911 234.463983 
L 94.299107 234.654954 
L 96.200303 234.269714 
L 98.101499 234.237719 
L 100.002695 234.044702 
L 103.805086 233.818878 
L 105.706282 233.72365 
L 107.607478 233.939929 
L 113.311065 233.283515 
L 115.212261 233.418062 
L 117.113457 233.363778 
L 120.915848 232.999661 
L 124.71824 232.868492 
L 126.619436 232.462226 
L 128.520631 232.542594 
L 130.421827 232.316673 
L 132.323023 232.499286 
L 134.224219 232.290246 
L 136.125415 232.212941 
L 138.02661 231.981652 
L 141.829002 231.859425 
L 143.730198 232.305679 
L 145.631393 231.713033 
L 147.532589 231.804927 
L 149.433785 231.746004 
L 151.334981 231.570612 
L 153.236177 231.831096 
L 155.137372 231.649945 
L 157.038568 231.617663 
L 158.939764 231.405281 
L 160.84096 231.350748 
L 162.742156 231.104361 
L 164.643351 231.160179 
L 166.544547 231.023581 
L 168.445743 231.150996 
L 170.346939 230.535175 
L 172.248135 231.012111 
L 174.14933 231.253018 
L 176.050526 230.892337 
L 177.951722 230.761288 
L 179.852918 230.439744 
L 181.754114 230.60561 
L 183.655309 230.375398 
L 185.556505 230.369986 
L 187.457701 230.648111 
L 189.358897 230.292896 
L 191.260092 230.212162 
L 193.161288 230.285875 
L 195.062484 230.240407 
L 196.96368 229.893931 
L 198.864876 230.209302 
L 200.766071 230.148379 
L 202.667267 229.730825 
L 204.568463 229.942703 
L 206.469659 229.871858 
L 208.370855 229.583762 
L 210.27205 229.725906 
L 212.173246 229.618419 
L 214.074442 229.816286 
L 215.975638 229.721266 
L 217.876834 230.019908 
L 219.778029 229.641889 
L 221.679225 229.831797 
L 223.580421 229.376007 
L 229.284008 229.414588 
L 233.0864 229.081485 
L 234.987596 229.475362 
L 236.888791 229.51258 
L 238.789987 229.187437 
L 242.592379 228.802892 
L 244.493575 229.148625 
L 246.39477 228.906538 
L 248.295966 229.001348 
L 250.197162 229.329279 
L 252.098358 228.927467 
L 255.900749 228.953104 
L 261.604337 228.789127 
L 267.307924 228.701813 
L 271.110316 228.477497 
L 276.813903 228.581417 
L 278.715099 228.400897 
L 280.616295 228.511495 
L 282.51749 228.389619 
L 284.418686 228.482376 
L 288.221078 228.263992 
L 290.122274 228.451264 
L 292.023469 227.946265 
L 299.628253 228.0325 
L 301.529448 228.231777 
L 303.430644 227.993121 
L 307.233036 227.927144 
L 309.134232 228.141875 
L 311.035427 228.116596 
L 312.936623 227.656128 
L 314.837819 228.085276 
L 316.739015 227.734727 
L 318.64021 227.754374 
L 320.541406 227.92708 
L 324.343798 227.704547 
L 326.244994 227.822698 
L 333.849777 227.576291 
L 335.750973 227.456628 
L 339.553364 227.771893 
L 343.355756 227.592639 
L 347.158147 227.698144 
L 349.059343 227.308776 
L 350.960539 227.230238 
L 352.861735 227.488629 
L 354.76293 227.388216 
L 356.664126 227.554951 
L 360.466518 227.259413 
L 362.367714 227.304218 
L 364.268909 227.174122 
L 366.170105 227.473547 
L 373.774888 227.250151 
L 375.676084 227.25689 
L 377.57728 227.14804 
L 379.478476 227.411521 
L 383.280867 227.080905 
L 387.083259 226.871294 
L 392.786846 227.29881 
L 394.688042 226.892491 
L 398.490434 226.816161 
L 404.194021 227.264247 
L 406.095217 226.995915 
L 407.996413 226.962149 
L 409.897608 226.799678 
L 411.798804 226.866252 
L 411.798804 226.866252 
" clip-path="url(#p6f9d89a9b5)" style="fill: none; stroke: #9467bd; stroke-width: 2; stroke-linecap: square"/>
   </g>
   <g id="line2d_20">
    <path d="M 33.460842 238.791193 
L 39.164429 238.791193 
L 41.065625 237.132109 
L 44.868017 236.458625 
L 46.769212 236.411413 
L 50.571604 235.899396 
L 52.4728 235.802088 
L 54.373996 235.079624 
L 56.275191 235.008083 
L 58.176387 234.68743 
L 65.78117 232.844026 
L 67.682366 232.247025 
L 69.583562 231.481037 
L 71.484758 231.163664 
L 73.385953 230.64491 
L 75.287149 229.883802 
L 77.188345 228.713539 
L 79.089541 228.448287 
L 80.990737 227.474288 
L 82.891932 226.984863 
L 84.793128 226.157363 
L 86.694324 225.88833 
L 88.59552 224.725745 
L 90.496716 224.787124 
L 92.397911 222.895536 
L 94.299107 223.048154 
L 96.200303 220.871754 
L 98.101499 220.397235 
L 100.002695 219.329206 
L 101.90389 218.779247 
L 103.805086 217.894158 
L 107.607478 216.966229 
L 109.508673 215.640702 
L 111.409869 214.729268 
L 113.311065 213.00175 
L 115.212261 213.174496 
L 117.113457 212.472449 
L 120.915848 209.747545 
L 122.817044 208.37133 
L 124.71824 207.747874 
L 126.619436 205.552102 
L 128.520631 205.475747 
L 130.421827 203.565407 
L 132.323023 203.969403 
L 134.224219 202.016306 
L 136.125415 201.238381 
L 138.02661 199.601744 
L 139.927806 198.868222 
L 141.829002 197.362077 
L 143.730198 199.415275 
L 145.631393 195.347846 
L 147.532589 195.125781 
L 149.433785 194.636233 
L 151.334981 192.635289 
L 153.236177 194.909403 
L 155.137372 191.463026 
L 157.038568 192.407749 
L 160.84096 189.015932 
L 162.742156 185.996275 
L 164.643351 185.978415 
L 166.544547 183.992994 
L 168.445743 185.338686 
L 170.346939 179.610371 
L 172.248135 183.086792 
L 174.14933 184.989413 
L 176.050526 180.813198 
L 177.951722 180.269366 
L 179.852918 175.948567 
L 181.754114 175.450825 
L 183.655309 174.520262 
L 185.556505 173.305139 
L 187.457701 175.912525 
L 189.358897 171.094283 
L 191.260092 170.123157 
L 193.161288 168.484814 
L 195.062484 170.962534 
L 196.96368 166.130825 
L 198.864876 167.36525 
L 200.766071 165.370498 
L 202.667267 160.46632 
L 204.568463 162.958076 
L 206.469659 161.892729 
L 208.370855 158.472781 
L 210.27205 159.820128 
L 212.173246 156.49822 
L 214.074442 159.054462 
L 215.975638 157.942679 
L 217.876834 160.029738 
L 219.778029 156.705652 
L 221.679225 156.022516 
L 223.580421 151.48463 
L 225.481617 151.341302 
L 227.382812 149.900377 
L 229.284008 149.592142 
L 231.185204 145.707522 
L 233.0864 145.700425 
L 234.987596 145.047429 
L 236.888791 146.881361 
L 238.789987 142.534576 
L 240.691183 140.158269 
L 242.592379 138.733589 
L 244.493575 140.8097 
L 246.39477 138.819899 
L 248.295966 136.433959 
L 250.197162 140.915414 
L 252.098358 136.789463 
L 253.999554 136.282376 
L 255.900749 134.353365 
L 257.801945 134.587085 
L 259.703141 133.040802 
L 261.604337 131.282742 
L 263.505533 130.30138 
L 265.406728 128.271478 
L 267.307924 125.765779 
L 269.20912 125.424994 
L 271.110316 123.104432 
L 273.011511 123.180429 
L 274.912707 124.96734 
L 276.813903 122.99091 
L 280.616295 119.747309 
L 282.51749 117.554903 
L 284.418686 117.269927 
L 288.221078 114.198385 
L 290.122274 117.813209 
L 292.023469 107.543316 
L 293.924665 107.935651 
L 295.825861 110.259462 
L 297.727057 107.896642 
L 299.628253 106.107049 
L 301.529448 109.72422 
L 303.430644 102.1475 
L 307.233036 103.91547 
L 309.134232 103.367748 
L 311.035427 101.451548 
L 312.936623 95.139866 
L 314.837819 100.892782 
L 316.739015 93.059155 
L 318.64021 94.990463 
L 320.541406 95.069986 
L 322.442602 94.175964 
L 324.343798 89.933039 
L 326.244994 92.683703 
L 328.146189 93.235315 
L 330.047385 92.350857 
L 331.948581 88.53725 
L 333.849777 90.44677 
L 335.750973 84.159762 
L 337.652168 85.002287 
L 339.553364 87.019095 
L 341.45456 82.84014 
L 343.355756 79.543846 
L 345.256952 80.336426 
L 347.158147 84.782139 
L 349.059343 72.421265 
L 350.960539 74.301288 
L 352.861735 78.506214 
L 354.76293 73.936742 
L 356.664126 74.537862 
L 358.565322 72.047093 
L 362.367714 68.291141 
L 364.268909 65.581035 
L 366.170105 72.951534 
L 368.071301 68.763439 
L 369.972497 66.36618 
L 371.873693 60.747302 
L 373.774888 67.195195 
L 375.676084 63.116546 
L 377.57728 59.470558 
L 379.478476 67.273961 
L 381.379672 61.814268 
L 383.280867 54.930984 
L 385.182063 56.582297 
L 387.083259 55.875753 
L 388.984455 52.568822 
L 390.885651 54.861258 
L 392.786846 58.952 
L 394.688042 47.029308 
L 396.589238 41.17388 
L 398.490434 42.85872 
L 400.391629 45.898185 
L 402.292825 52.215028 
L 404.194021 51.277556 
L 406.095217 41.984002 
L 407.996413 45.088102 
L 409.897608 39.659468 
L 411.798804 36.552557 
L 411.798804 36.552557 
" clip-path="url(#p6f9d89a9b5)" style="fill: none; stroke: #8c564b; stroke-width: 2; stroke-linecap: square"/>
   </g>
   <g id="patch_3">
    <path d="M 41.065625 248.903125 
L 41.065625 26.440625 
" style="fill: none; stroke: #000000; stroke-width: 0.8; stroke-linejoin: miter; stroke-linecap: square"/>
   </g>
   <g id="patch_4">
    <path d="M 413.7 248.903125 
L 413.7 26.440625 
" style="fill: none; stroke: #000000; stroke-width: 0.8; stroke-linejoin: miter; stroke-linecap: square"/>
   </g>
   <g id="patch_5">
    <path d="M 41.065625 248.903125 
L 413.7 248.903125 
" style="fill: none; stroke: #000000; stroke-width: 0.8; stroke-linejoin: miter; stroke-linecap: square"/>
   </g>
   <g id="patch_6">
    <path d="M 41.065625 26.440625 
L 413.7 26.440625 
" style="fill: none; stroke: #000000; stroke-width: 0.8; stroke-linejoin: miter; stroke-linecap: square"/>
   </g>
   <g id="text_17">
    <!-- 讨论不同长度的序列对不稳定性的影响 -->
    <g transform="translate(125.382813 20.440625)scale(0.12 -0.12)">
     <defs>
      <path id="SimHei-8ba8" d="M 4700 3775 
Q 4700 4600 4675 5225 
L 5225 5225 
Q 5200 4625 5200 3775 
Q 5625 3775 6075 3800 
L 6075 3325 
Q 5675 3350 5200 3350 
L 5200 25 
Q 5200 -325 4925 -437 
Q 4650 -550 4150 -600 
Q 4125 -300 3875 25 
Q 4450 0 4575 50 
Q 4700 100 4700 350 
L 4700 3350 
L 3225 3350 
Q 2900 3350 2300 3325 
L 2300 3800 
Q 2875 3775 3175 3775 
L 4700 3775 
z
M 1700 3375 
Q 1675 2925 1675 2400 
L 1675 550 
Q 2000 850 2400 1325 
Q 2550 1025 2725 825 
Q 2375 550 2037 237 
Q 1700 -75 1450 -350 
Q 1225 -100 1025 50 
Q 1200 250 1200 575 
L 1200 2950 
Q 575 2950 300 2925 
L 300 3400 
Q 575 3375 975 3375 
L 1700 3375 
z
M 3025 2750 
Q 3525 2150 3875 1525 
Q 3625 1375 3425 1250 
Q 3150 1850 2625 2475 
Q 2800 2575 3025 2750 
z
M 1250 5250 
Q 1550 4850 1825 4200 
Q 1625 4100 1375 3950 
Q 1175 4500 825 5000 
Q 1000 5100 1250 5250 
z
" transform="scale(0.015625)"/>
      <path id="SimHei-8bba" d="M 3500 1600 
Q 3825 1725 4250 2000 
Q 4675 2275 4975 2575 
Q 5225 2275 5400 2100 
Q 5050 1950 4550 1675 
Q 4050 1400 3500 1150 
L 3500 300 
Q 3500 -100 3800 -100 
L 4825 -100 
Q 5125 -100 5250 137 
Q 5375 375 5375 575 
Q 5675 350 5925 275 
Q 5750 -225 5550 -375 
Q 5350 -525 5100 -525 
L 3550 -525 
Q 3025 -475 3025 0 
L 3025 2175 
Q 3025 2525 3000 2850 
L 3525 2850 
Q 3500 2400 3500 2200 
L 3500 1600 
z
M 4175 4850 
Q 4400 4350 4950 3687 
Q 5500 3025 6175 2700 
Q 5975 2575 5800 2275 
Q 5100 2750 4637 3375 
Q 4175 4000 3950 4425 
Q 3725 3950 3387 3425 
Q 3050 2900 2325 2200 
Q 2175 2375 1950 2575 
Q 2350 2825 2650 3175 
Q 2950 3525 3200 3962 
Q 3450 4400 3575 4725 
Q 3700 5050 3750 5250 
Q 3975 5150 4275 5050 
L 4175 4850 
z
M 1600 3150 
Q 1575 2750 1575 2275 
L 1575 550 
Q 1950 825 2400 1300 
Q 2500 1075 2650 800 
Q 2250 475 1900 187 
Q 1550 -100 1250 -375 
Q 1150 -225 900 50 
Q 1100 250 1100 450 
L 1100 2700 
L 800 2700 
Q 550 2700 275 2675 
L 275 3175 
Q 550 3150 800 3150 
L 1600 3150 
z
M 975 5000 
Q 1550 4525 2125 4025 
Q 1950 3875 1750 3650 
Q 1325 4150 650 4650 
Q 825 4800 975 5000 
z
" transform="scale(0.015625)"/>
      <path id="SimHei-4e0d" d="M 5975 4450 
Q 5525 4475 5200 4475 
L 3725 4475 
Q 3550 4125 3300 3700 
L 3300 575 
Q 3300 75 3325 -550 
L 2775 -550 
Q 2800 50 2800 575 
L 2800 3025 
Q 2025 1950 700 1050 
Q 500 1350 325 1475 
Q 825 1700 1650 2437 
Q 2475 3175 3175 4475 
L 1525 4475 
Q 1050 4475 525 4450 
L 525 4950 
Q 1275 4925 1675 4925 
L 5175 4925 
Q 5500 4925 5975 4950 
L 5975 4450 
z
M 5450 1125 
Q 4975 1725 3750 2975 
Q 3950 3150 4075 3325 
Q 4675 2775 5100 2362 
Q 5525 1950 5900 1550 
Q 5650 1350 5450 1125 
z
" transform="scale(0.015625)"/>
      <path id="SimHei-540c" d="M 5825 4925 
Q 5775 4550 5775 3975 
L 5775 -50 
Q 5775 -400 5525 -487 
Q 5275 -575 4725 -625 
Q 4725 -400 4525 -50 
Q 4925 -50 5100 -12 
Q 5275 25 5275 200 
L 5275 4450 
L 1150 4450 
L 1150 -600 
L 575 -600 
Q 600 -250 625 200 
L 625 3975 
Q 625 4575 600 4925 
L 5825 4925 
z
M 4375 2550 
Q 4325 2275 4325 1700 
Q 4325 1150 4375 725 
L 2025 725 
Q 2050 1175 2050 1750 
Q 2050 2325 2025 2550 
L 4375 2550 
z
M 4100 3750 
Q 4600 3750 4825 3775 
L 4825 3275 
Q 4575 3300 4075 3300 
L 2450 3300 
Q 1850 3300 1600 3275 
L 1600 3775 
Q 1875 3750 2475 3750 
L 4100 3750 
z
M 3875 1150 
L 3875 2150 
L 2525 2150 
L 2525 1150 
L 3875 1150 
z
" transform="scale(0.015625)"/>
      <path id="SimHei-7684" d="M 2100 4975 
Q 1975 4750 1750 3950 
L 2875 3950 
Q 2850 3525 2850 2875 
L 2850 675 
Q 2850 300 2875 -400 
L 2375 -400 
L 2375 100 
L 1100 100 
L 1100 -450 
L 600 -450 
Q 625 350 625 550 
L 625 2850 
Q 625 3525 600 3950 
L 1325 3950 
Q 1450 4525 1525 5150 
Q 1875 5025 2100 4975 
z
M 5825 3075 
Q 5800 1550 5700 175 
Q 5650 -275 5225 -425 
Q 4800 -575 4275 -625 
Q 4250 -350 4050 -50 
Q 4550 -75 4837 -25 
Q 5125 25 5200 200 
Q 5275 375 5312 1225 
Q 5350 2075 5375 3600 
L 3925 3600 
Q 3725 3125 3350 2475 
Q 3175 2650 2925 2750 
Q 3150 3050 3350 3475 
Q 3550 3900 3700 4400 
Q 3850 4900 3875 5175 
Q 4225 5025 4475 4950 
Q 4350 4750 4262 4512 
Q 4175 4275 4075 4050 
L 5850 4050 
Q 5825 3525 5825 3075 
z
M 2375 525 
L 2375 1850 
L 1100 1850 
L 1100 525 
L 2375 525 
z
M 2375 2275 
L 2375 3525 
L 1100 3525 
L 1100 2275 
L 2375 2275 
z
M 4350 2050 
Q 4500 1750 4700 1275 
Q 4525 1200 4225 1025 
Q 4050 1500 3900 1837 
Q 3750 2175 3600 2400 
Q 3775 2500 4050 2650 
L 4350 2050 
z
" transform="scale(0.015625)"/>
      <path id="SimHei-5bf9" d="M 525 4250 
Q 900 4225 1400 4225 
L 2825 4225 
Q 2575 2625 2200 1750 
Q 2825 875 3125 400 
Q 2950 275 2725 75 
Q 2200 975 1950 1300 
Q 1650 775 1350 425 
Q 1050 75 600 -350 
Q 425 -125 200 -25 
Q 625 275 975 675 
Q 1325 1075 1650 1700 
Q 1050 2425 550 2900 
Q 700 3025 900 3225 
Q 1625 2425 1875 2150 
Q 2200 3050 2300 3825 
L 1400 3825 
Q 900 3825 525 3800 
L 525 4250 
z
M 2925 3700 
Q 3525 3675 3750 3675 
L 4825 3675 
L 4825 4425 
Q 4825 4750 4775 5125 
L 5350 5125 
Q 5325 4825 5325 4375 
L 5325 3675 
Q 5575 3675 6150 3700 
L 6150 3250 
Q 5575 3275 5325 3275 
L 5325 125 
Q 5350 -350 5012 -475 
Q 4675 -600 4250 -650 
Q 4175 -350 4025 -100 
Q 4575 -100 4712 -37 
Q 4850 25 4825 325 
L 4825 3275 
L 3775 3275 
Q 3550 3275 2925 3225 
L 2925 3700 
z
M 3450 2725 
Q 3875 1975 4175 1325 
Q 3850 1200 3700 1075 
Q 3475 1750 3050 2475 
Q 3225 2550 3450 2725 
z
" transform="scale(0.015625)"/>
      <path id="SimHei-7a33" d="M 4050 5125 
Q 3875 4975 3675 4625 
L 5325 4625 
Q 5200 4450 5062 4212 
Q 4925 3975 4800 3650 
L 5625 3650 
Q 5600 3350 5600 2600 
Q 5600 1875 5625 1425 
L 3425 1425 
Q 3075 1425 2750 1400 
L 2750 1850 
Q 3075 1825 3450 1825 
L 5100 1825 
L 5100 2375 
L 3550 2375 
Q 3175 2375 2875 2350 
L 2875 2775 
Q 3175 2750 3525 2750 
L 5100 2750 
L 5100 3275 
L 3775 3275 
Q 3350 3275 3050 3250 
L 3050 3650 
Q 2875 3425 2725 3200 
Q 2525 3400 2350 3475 
Q 2675 3875 2987 4412 
Q 3300 4950 3400 5300 
Q 3725 5200 4050 5125 
z
M 2500 4575 
Q 2275 4575 2012 4512 
Q 1750 4450 1625 4450 
L 1625 3350 
Q 1975 3350 2375 3375 
L 2375 2950 
Q 1925 2975 1625 2975 
L 1625 2225 
Q 1775 2325 1950 2500 
Q 2225 2100 2525 1600 
Q 2300 1500 2150 1350 
Q 1950 1725 1625 2175 
L 1625 400 
Q 1625 25 1650 -625 
L 1150 -625 
Q 1200 25 1200 400 
L 1200 2075 
Q 875 1250 475 650 
Q 375 925 175 1125 
Q 325 1250 650 1887 
Q 975 2525 1050 2975 
Q 750 2975 275 2950 
L 275 3375 
Q 750 3350 1200 3350 
L 1200 4325 
Q 950 4275 550 4200 
Q 475 4425 275 4625 
Q 750 4675 1237 4775 
Q 1725 4875 2125 5075 
Q 2275 4775 2500 4575 
z
M 3675 1025 
Q 3650 700 3650 300 
Q 3650 -75 3775 -100 
Q 3900 -125 4250 -125 
Q 4600 -125 4687 -100 
Q 4775 -75 4825 425 
Q 5025 275 5350 200 
Q 5150 -450 4950 -500 
Q 4750 -550 4175 -550 
Q 3625 -550 3425 -487 
Q 3225 -425 3225 -100 
L 3225 525 
Q 3225 775 3200 1025 
L 3675 1025 
z
M 3050 3675 
Q 3325 3650 3775 3650 
L 4275 3650 
Q 4450 4000 4575 4275 
L 3425 4275 
Q 3275 4050 3050 3675 
z
M 2925 900 
Q 2800 725 2700 287 
Q 2600 -150 2550 -300 
Q 2325 -200 2075 -175 
Q 2225 200 2275 412 
Q 2325 625 2425 1000 
L 2925 900 
z
M 5575 1100 
Q 5950 475 6175 50 
Q 5950 -25 5750 -175 
Q 5625 175 5200 925 
Q 5425 975 5575 1100 
z
M 4225 1300 
Q 4525 825 4625 525 
Q 4550 500 4250 350 
Q 4150 700 3850 1125 
Q 4050 1200 4225 1300 
z
" transform="scale(0.015625)"/>
      <path id="SimHei-5b9a" d="M 4200 3125 
Q 4675 3125 5175 3150 
L 5175 2675 
Q 4725 2700 4100 2700 
L 3550 2700 
L 3550 1700 
L 4600 1700 
Q 4875 1700 5375 1725 
L 5375 1250 
Q 4875 1275 4575 1275 
L 3550 1275 
L 3550 100 
Q 4600 -25 6050 125 
Q 5850 -200 5800 -475 
Q 4800 -475 4150 -450 
Q 3500 -425 3050 -300 
Q 2600 -175 2250 75 
Q 1900 325 1600 675 
Q 1200 -50 675 -575 
Q 450 -350 175 -250 
Q 875 300 1200 1050 
Q 1525 1800 1550 2200 
Q 1800 2050 2150 1975 
Q 2075 1875 1987 1662 
Q 1900 1450 1775 1125 
Q 1950 900 2300 612 
Q 2650 325 3050 200 
L 3050 2700 
L 2250 2700 
Q 1825 2700 1400 2675 
L 1400 3150 
Q 1825 3125 2400 3125 
L 4200 3125 
z
M 5750 4275 
Q 5725 3925 5725 3750 
Q 5725 3575 5750 3275 
L 5225 3275 
L 5225 3875 
L 1225 3875 
L 1225 3275 
L 700 3275 
Q 725 3475 725 3725 
Q 725 3975 700 4275 
L 5750 4275 
z
M 2650 5050 
Q 2875 5125 3100 5300 
Q 3375 4975 3600 4550 
Q 3250 4400 3100 4300 
Q 3050 4525 2650 5050 
z
" transform="scale(0.015625)"/>
      <path id="SimHei-6027" d="M 3450 4525 
Q 3325 4075 3275 3750 
L 4050 3750 
L 4050 4275 
Q 4050 4700 4025 5100 
L 4550 5100 
Q 4525 4700 4525 4275 
L 4525 3750 
L 5025 3750 
Q 5350 3750 5800 3775 
L 5800 3300 
Q 5350 3325 5025 3325 
L 4525 3325 
L 4525 2000 
L 4975 2000 
Q 5350 2000 5725 2025 
L 5725 1550 
Q 5350 1575 4975 1575 
L 4525 1575 
L 4525 25 
L 5200 25 
Q 5625 25 6025 50 
L 6025 -400 
Q 5625 -375 5200 -375 
L 3275 -375 
Q 2825 -375 2400 -400 
L 2400 50 
Q 2825 25 3250 25 
L 4050 25 
L 4050 1575 
L 3625 1575 
Q 3300 1575 2875 1550 
L 2875 2025 
Q 3200 2000 3625 2000 
L 4050 2000 
L 4050 3325 
L 3175 3325 
Q 3100 2950 2775 2225 
Q 2500 2375 2325 2400 
Q 2675 3125 2775 3650 
Q 2875 4175 2950 4650 
Q 3200 4575 3450 4525 
z
M 1700 5150 
Q 1675 4650 1675 4175 
L 1675 425 
Q 1675 -100 1700 -625 
L 1175 -625 
Q 1200 -100 1200 425 
L 1200 4175 
Q 1200 4700 1175 5150 
L 1700 5150 
z
M 975 3725 
Q 825 2675 700 2150 
Q 450 2200 250 2250 
Q 425 2900 525 3800 
Q 725 3775 975 3725 
z
M 2125 4025 
Q 2325 3625 2525 3000 
Q 2300 2925 2125 2825 
Q 1950 3375 1750 3850 
Q 1950 3950 2125 4025 
z
" transform="scale(0.015625)"/>
      <path id="SimHei-5f71" d="M 3550 5025 
Q 3500 4625 3512 4187 
Q 3525 3750 3550 3325 
L 775 3325 
Q 800 3750 787 4187 
Q 775 4625 775 5025 
L 3550 5025 
z
M 1450 -100 
Q 2050 -75 1975 200 
L 1975 1100 
L 775 1100 
Q 800 1375 787 1650 
Q 775 1925 775 2225 
L 3550 2225 
Q 3525 1925 3512 1650 
Q 3500 1375 3550 1100 
L 2475 1100 
L 2475 175 
Q 2500 -250 2300 -375 
Q 2100 -500 1625 -600 
Q 1575 -325 1450 -100 
z
M 2375 3250 
Q 2400 3075 2425 2875 
L 3175 2875 
Q 3600 2875 4050 2900 
L 4050 2475 
Q 3600 2500 3175 2500 
L 1200 2500 
Q 700 2500 275 2475 
L 275 2900 
Q 700 2875 1200 2875 
L 1900 2875 
Q 1875 3025 1850 3200 
Q 2100 3250 2375 3250 
z
M 6150 1350 
Q 5675 775 5000 225 
Q 4325 -325 3725 -650 
Q 3575 -400 3400 -250 
Q 3975 25 4600 500 
Q 5225 975 5775 1725 
Q 5950 1525 6150 1350 
z
M 5925 3125 
Q 5625 2850 5212 2362 
Q 4800 1875 4200 1425 
Q 4025 1625 3800 1725 
Q 4375 2050 4787 2525 
Q 5200 3000 5525 3500 
Q 5675 3325 5925 3125 
z
M 5725 4825 
Q 5325 4550 5037 4162 
Q 4750 3775 4175 3275 
Q 3975 3450 3800 3550 
Q 4175 3825 4550 4237 
Q 4925 4650 5225 5175 
Q 5425 5000 5725 4825 
z
M 3075 1475 
L 3075 1850 
L 1250 1850 
L 1250 1475 
L 3075 1475 
z
M 3075 3700 
L 3075 4000 
L 1250 4000 
L 1250 3700 
L 3075 3700 
z
M 3075 4375 
L 3075 4675 
L 1250 4675 
L 1250 4375 
L 3075 4375 
z
M 1500 500 
Q 1075 75 575 -325 
Q 475 -175 275 -25 
Q 700 250 1125 825 
Q 1300 625 1500 500 
z
M 3250 -50 
Q 3050 275 2750 550 
Q 2900 700 3075 850 
Q 3400 525 3600 250 
L 3250 -50 
z
" transform="scale(0.015625)"/>
      <path id="SimHei-54cd" d="M 4150 5125 
Q 4000 4975 3850 4325 
L 5875 4325 
Q 5850 3800 5850 3325 
L 5850 50 
Q 5825 -225 5625 -350 
Q 5425 -475 4850 -550 
Q 4850 -325 4600 25 
Q 5125 25 5237 62 
Q 5350 100 5350 225 
L 5350 3950 
L 2950 3950 
L 2950 -575 
L 2450 -575 
Q 2475 -75 2475 450 
L 2475 3125 
Q 2475 3750 2450 4325 
L 3350 4325 
Q 3475 4775 3525 5250 
Q 3950 5150 4150 5125 
z
M 4875 900 
L 3425 900 
L 3425 3100 
L 4875 3100 
L 4875 900 
z
M 4450 1275 
L 4450 2700 
L 3875 2700 
L 3875 1275 
L 4450 1275 
z
M 2075 4500 
Q 2050 3975 2050 3425 
L 2050 1750 
Q 2050 1250 2075 600 
L 1650 600 
L 1650 1050 
L 950 1050 
L 950 275 
L 500 275 
Q 525 750 525 1275 
L 525 3425 
Q 525 3975 500 4500 
L 2075 4500 
z
M 1650 1400 
L 1650 4125 
L 950 4125 
L 950 1400 
L 1650 1400 
z
" transform="scale(0.015625)"/>
     </defs>
     <use xlink:href="#SimHei-8ba8"/>
     <use xlink:href="#SimHei-8bba" x="100"/>
     <use xlink:href="#SimHei-4e0d" x="200"/>
     <use xlink:href="#SimHei-540c" x="300"/>
     <use xlink:href="#SimHei-957f" x="400"/>
     <use xlink:href="#SimHei-5ea6" x="500"/>
     <use xlink:href="#SimHei-7684" x="600"/>
     <use xlink:href="#SimHei-5e8f" x="700"/>
     <use xlink:href="#SimHei-5217" x="800"/>
     <use xlink:href="#SimHei-5bf9" x="900"/>
     <use xlink:href="#SimHei-4e0d" x="1000"/>
     <use xlink:href="#SimHei-7a33" x="1100"/>
     <use xlink:href="#SimHei-5b9a" x="1200"/>
     <use xlink:href="#SimHei-6027" x="1300"/>
     <use xlink:href="#SimHei-7684" x="1400"/>
     <use xlink:href="#SimHei-5f71" x="1500"/>
     <use xlink:href="#SimHei-54cd" x="1600"/>
    </g>
   </g>
   <g id="legend_1">
    <g id="patch_7">
     <path d="M 48.065625 114.096875 
L 145.065625 114.096875 
Q 147.065625 114.096875 147.065625 112.096875 
L 147.065625 33.440625 
Q 147.065625 31.440625 145.065625 31.440625 
L 48.065625 31.440625 
Q 46.065625 31.440625 46.065625 33.440625 
L 46.065625 112.096875 
Q 46.065625 114.096875 48.065625 114.096875 
z
" style="fill: #ffffff; opacity: 0.8; stroke: #cccccc; stroke-linejoin: miter"/>
    </g>
    <g id="line2d_21">
     <path d="M 50.065625 38.940625 
L 60.065625 38.940625 
L 70.065625 38.940625 
" style="fill: none; stroke: #1f77b4; stroke-width: 2; stroke-linecap: square"/>
    </g>
    <g id="text_18">
     <!-- EU -->
     <g transform="translate(78.065625 42.440625)scale(0.1 -0.1)">
      <defs>
       <path id="SimHei-45" d="M 2900 125 
L 350 125 
L 350 4400 
L 2775 4400 
L 2775 3925 
L 925 3925 
L 925 2600 
L 2625 2600 
L 2625 2125 
L 925 2125 
L 925 600 
L 2900 600 
L 2900 125 
z
" transform="scale(0.015625)"/>
       <path id="SimHei-55" d="M 2875 1375 
Q 2875 775 2562 425 
Q 2250 75 1575 75 
Q 900 75 587 425 
Q 275 775 275 1375 
L 275 4400 
L 850 4400 
L 850 1375 
Q 850 950 1050 750 
Q 1250 550 1575 550 
Q 1900 550 2100 750 
Q 2300 950 2300 1375 
L 2300 4400 
L 2875 4400 
L 2875 1375 
z
" transform="scale(0.015625)"/>
      </defs>
      <use xlink:href="#SimHei-45"/>
      <use xlink:href="#SimHei-55" x="50"/>
     </g>
    </g>
    <g id="line2d_22">
     <path d="M 50.065625 52.190625 
L 60.065625 52.190625 
L 70.065625 52.190625 
" style="fill: none; stroke: #ff7f0e; stroke-width: 3; stroke-linecap: square"/>
    </g>
    <g id="text_19">
     <!-- VGaDis -->
     <g transform="translate(78.065625 55.690625)scale(0.1 -0.1)">
      <defs>
       <path id="SimHei-56" d="M 3050 4400 
L 1800 75 
L 1300 75 
L 50 4400 
L 650 4400 
L 1525 1125 
L 1575 1125 
L 2450 4400 
L 3050 4400 
z
" transform="scale(0.015625)"/>
       <path id="SimHei-47" d="M 2850 75 
L 2425 75 
L 2350 425 
Q 2250 275 2037 175 
Q 1825 75 1575 75 
Q 1050 75 637 562 
Q 225 1050 225 2125 
Q 225 3300 600 3875 
Q 975 4450 1625 4450 
Q 2200 4450 2525 4025 
Q 2850 3600 2850 2925 
L 2300 2925 
Q 2300 3450 2125 3712 
Q 1950 3975 1625 3975 
Q 1225 3975 1025 3562 
Q 825 3150 825 2175 
Q 825 1250 1075 900 
Q 1325 550 1650 550 
Q 1975 550 2162 787 
Q 2350 1025 2350 1525 
L 2350 1800 
L 1575 1800 
L 1575 2275 
L 2850 2275 
L 2850 75 
z
" transform="scale(0.015625)"/>
       <path id="SimHei-44" d="M 2925 2250 
Q 2925 1100 2437 612 
Q 1950 125 1125 125 
L 275 125 
L 275 4400 
L 1125 4400 
Q 2050 4400 2487 3900 
Q 2925 3400 2925 2250 
z
M 2325 2250 
Q 2325 3175 2025 3550 
Q 1725 3925 1125 3925 
L 850 3925 
L 850 600 
L 1125 600 
Q 1725 600 2025 962 
Q 2325 1325 2325 2250 
z
" transform="scale(0.015625)"/>
      </defs>
      <use xlink:href="#SimHei-56"/>
      <use xlink:href="#SimHei-47" x="50"/>
      <use xlink:href="#SimHei-61" x="100"/>
      <use xlink:href="#SimHei-44" x="150"/>
      <use xlink:href="#SimHei-69" x="200"/>
      <use xlink:href="#SimHei-73" x="250"/>
     </g>
    </g>
    <g id="line2d_23">
     <path d="M 50.065625 65.440625 
L 60.065625 65.440625 
L 70.065625 65.440625 
" style="fill: none; stroke: #2ca02c; stroke-width: 2; stroke-linecap: square"/>
    </g>
    <g id="text_20">
     <!-- Manhattan -->
     <g transform="translate(78.065625 68.940625)scale(0.1 -0.1)">
      <defs>
       <path id="SimHei-4d" d="M 2925 125 
L 2425 125 
L 2425 3175 
L 2375 3175 
L 1775 125 
L 1375 125 
L 775 3175 
L 725 3175 
L 725 125 
L 225 125 
L 225 4400 
L 1000 4400 
L 1550 1575 
L 1600 1575 
L 2150 4400 
L 2925 4400 
L 2925 125 
z
" transform="scale(0.015625)"/>
       <path id="SimHei-6e" d="M 2800 125 
L 2300 125 
L 2300 1925 
Q 2300 2225 2150 2400 
Q 2000 2575 1750 2575 
Q 1425 2575 1137 2237 
Q 850 1900 850 1400 
L 850 125 
L 350 125 
L 350 2925 
L 850 2925 
L 850 2400 
Q 1050 2675 1287 2825 
Q 1525 2975 1900 2975 
Q 2350 2975 2575 2725 
Q 2800 2475 2800 2100 
L 2800 125 
z
" transform="scale(0.015625)"/>
       <path id="SimHei-68" d="M 2800 125 
L 2300 125 
L 2300 1925 
Q 2300 2225 2150 2400 
Q 2000 2575 1750 2575 
Q 1425 2575 1137 2237 
Q 850 1900 850 1400 
L 850 125 
L 350 125 
L 350 4400 
L 850 4400 
L 850 2400 
Q 1050 2675 1287 2825 
Q 1525 2975 1900 2975 
Q 2350 2975 2575 2725 
Q 2800 2475 2800 2100 
L 2800 125 
z
" transform="scale(0.015625)"/>
       <path id="SimHei-74" d="M 2750 200 
Q 2625 150 2462 112 
Q 2300 75 2025 75 
Q 1575 75 1300 325 
Q 1025 575 1025 1025 
L 1025 2525 
L 175 2525 
L 175 2925 
L 1025 2925 
L 1025 3900 
L 1525 3900 
L 1525 2925 
L 2550 2925 
L 2550 2525 
L 1525 2525 
L 1525 1000 
Q 1525 800 1625 662 
Q 1725 525 2000 525 
Q 2275 525 2450 575 
Q 2625 625 2750 700 
L 2750 200 
z
" transform="scale(0.015625)"/>
      </defs>
      <use xlink:href="#SimHei-4d"/>
      <use xlink:href="#SimHei-61" x="50"/>
      <use xlink:href="#SimHei-6e" x="100"/>
      <use xlink:href="#SimHei-68" x="150"/>
      <use xlink:href="#SimHei-61" x="200"/>
      <use xlink:href="#SimHei-74" x="250"/>
      <use xlink:href="#SimHei-74" x="300"/>
      <use xlink:href="#SimHei-61" x="350"/>
      <use xlink:href="#SimHei-6e" x="400"/>
     </g>
    </g>
    <g id="line2d_24">
     <path d="M 50.065625 78.690625 
L 60.065625 78.690625 
L 70.065625 78.690625 
" style="fill: none; stroke: #d62728; stroke-width: 2; stroke-linecap: square"/>
    </g>
    <g id="text_21">
     <!-- VGdDis -->
     <g transform="translate(78.065625 82.190625)scale(0.1 -0.1)">
      <use xlink:href="#SimHei-56"/>
      <use xlink:href="#SimHei-47" x="50"/>
      <use xlink:href="#SimHei-64" x="100"/>
      <use xlink:href="#SimHei-44" x="150"/>
      <use xlink:href="#SimHei-69" x="200"/>
      <use xlink:href="#SimHei-73" x="250"/>
     </g>
    </g>
    <g id="line2d_25">
     <path d="M 50.065625 91.940625 
L 60.065625 91.940625 
L 70.065625 91.940625 
" style="fill: none; stroke: #9467bd; stroke-width: 2; stroke-linecap: square"/>
    </g>
    <g id="text_22">
     <!-- dtw_Manhattan -->
     <g transform="translate(78.065625 95.440625)scale(0.1 -0.1)">
      <defs>
       <path id="SimHei-77" d="M 3075 2925 
L 2450 75 
L 1975 75 
L 1575 2250 
L 1525 2250 
L 1125 75 
L 650 75 
L 25 2925 
L 550 2925 
L 875 1050 
L 925 1050 
L 1275 2925 
L 1825 2925 
L 2175 1050 
L 2225 1050 
L 2550 2925 
L 3075 2925 
z
" transform="scale(0.015625)"/>
       <path id="SimHei-5f" d="M 3150 -850 
L 0 -850 
L 0 -550 
L 3150 -550 
L 3150 -850 
z
" transform="scale(0.015625)"/>
      </defs>
      <use xlink:href="#SimHei-64"/>
      <use xlink:href="#SimHei-74" x="50"/>
      <use xlink:href="#SimHei-77" x="100"/>
      <use xlink:href="#SimHei-5f" x="150"/>
      <use xlink:href="#SimHei-4d" x="200"/>
      <use xlink:href="#SimHei-61" x="250"/>
      <use xlink:href="#SimHei-6e" x="300"/>
      <use xlink:href="#SimHei-68" x="350"/>
      <use xlink:href="#SimHei-61" x="400"/>
      <use xlink:href="#SimHei-74" x="450"/>
      <use xlink:href="#SimHei-74" x="500"/>
      <use xlink:href="#SimHei-61" x="550"/>
      <use xlink:href="#SimHei-6e" x="600"/>
     </g>
    </g>
    <g id="line2d_26">
     <path d="M 50.065625 105.26875 
L 60.065625 105.26875 
L 70.065625 105.26875 
" style="fill: none; stroke: #8c564b; stroke-width: 2; stroke-linecap: square"/>
    </g>
    <g id="text_23">
     <!-- dtw_EU -->
     <g transform="translate(78.065625 108.76875)scale(0.1 -0.1)">
      <use xlink:href="#SimHei-64"/>
      <use xlink:href="#SimHei-74" x="50"/>
      <use xlink:href="#SimHei-77" x="100"/>
      <use xlink:href="#SimHei-5f" x="150"/>
      <use xlink:href="#SimHei-45" x="200"/>
      <use xlink:href="#SimHei-55" x="250"/>
     </g>
    </g>
   </g>
  </g>
 </g>
 <defs>
  <clipPath id="p6f9d89a9b5">
   <rect x="41.065625" y="26.440625" width="372.634375" height="222.4625"/>
  </clipPath>
 </defs>
</svg>
