<?xml version="1.0" encoding="utf-8" standalone="no"?>
<!DOCTYPE svg PUBLIC "-//W3C//DTD SVG 1.1//EN"
  "http://www.w3.org/Graphics/SVG/1.1/DTD/svg11.dtd">
<svg xmlns:xlink="http://www.w3.org/1999/xlink" width="432pt" height="288pt" viewBox="0 0 432 288" xmlns="http://www.w3.org/2000/svg" version="1.1">
 <metadata>
  <rdf:RDF xmlns:dc="http://purl.org/dc/elements/1.1/" xmlns:cc="http://creativecommons.org/ns#" xmlns:rdf="http://www.w3.org/1999/02/22-rdf-syntax-ns#">
   <cc:Work>
    <dc:type rdf:resource="http://purl.org/dc/dcmitype/StillImage"/>
    <dc:date>2023-05-28T21:54:57.724256</dc:date>
    <dc:format>image/svg+xml</dc:format>
    <dc:creator>
     <cc:Agent>
      <dc:title>Matplotlib v3.5.2, https://matplotlib.org/</dc:title>
     </cc:Agent>
    </dc:creator>
   </cc:Work>
  </rdf:RDF>
 </metadata>
 <defs>
  <style type="text/css">*{stroke-linejoin: round; stroke-linecap: butt}</style>
 </defs>
 <g id="figure_1">
  <g id="patch_1">
   <path d="M 0 288 
L 432 288 
L 432 0 
L 0 0 
L 0 288 
z
" style="fill: none"/>
  </g>
  <g id="axes_1">
   <g id="patch_2">
    <path d="M 51.190625 248.903125 
L 413.7 248.903125 
L 413.7 26.440625 
L 51.190625 26.440625 
z
" style="fill: #ffffff"/>
   </g>
   <g id="matplotlib.axis_1">
    <g id="xtick_1">
     <g id="line2d_1">
      <defs>
       <path id="m7059e7359c" d="M 0 0 
L 0 3.5 
" style="stroke: #000000; stroke-width: 0.8"/>
      </defs>
      <g>
       <use xlink:href="#m7059e7359c" x="90.030915" y="248.903125" style="stroke: #000000; stroke-width: 0.8"/>
      </g>
     </g>
     <g id="text_1">
      <!-- 25 -->
      <g transform="translate(85.030915 262.778125)scale(0.1 -0.1)">
       <defs>
        <path id="SimHei-32" d="M 300 250 
Q 325 625 650 925 
Q 975 1225 1475 1862 
Q 1975 2500 2125 2850 
Q 2275 3200 2237 3450 
Q 2200 3700 2000 3862 
Q 1800 4025 1537 4000 
Q 1275 3975 1037 3800 
Q 800 3625 675 3275 
L 200 3350 
Q 400 3925 712 4187 
Q 1025 4450 1450 4475 
Q 1700 4500 1900 4462 
Q 2100 4425 2312 4287 
Q 2525 4150 2662 3875 
Q 2800 3600 2762 3212 
Q 2725 2825 2375 2287 
Q 2025 1750 1025 600 
L 2825 600 
L 2825 150 
L 300 150 
L 300 250 
z
" transform="scale(0.015625)"/>
        <path id="SimHei-35" d="M 550 1325 
Q 725 650 1150 575 
Q 1575 500 1837 662 
Q 2100 825 2212 1087 
Q 2325 1350 2312 1675 
Q 2300 2000 2137 2225 
Q 1975 2450 1725 2525 
Q 1475 2600 1162 2525 
Q 850 2450 650 2175 
L 225 2225 
Q 275 2375 700 4375 
L 2675 4375 
L 2675 3925 
L 1075 3925 
Q 950 3250 825 2850 
Q 1200 3025 1525 3012 
Q 1850 3000 2150 2862 
Q 2450 2725 2587 2487 
Q 2725 2250 2787 2012 
Q 2850 1775 2837 1500 
Q 2825 1225 2725 937 
Q 2625 650 2425 462 
Q 2225 275 1937 162 
Q 1650 50 1275 75 
Q 900 100 562 350 
Q 225 600 100 1200 
L 550 1325 
z
" transform="scale(0.015625)"/>
       </defs>
       <use xlink:href="#SimHei-32"/>
       <use xlink:href="#SimHei-35" x="50"/>
      </g>
     </g>
    </g>
    <g id="xtick_2">
     <g id="line2d_2">
      <g>
       <use xlink:href="#m7059e7359c" x="136.269356" y="248.903125" style="stroke: #000000; stroke-width: 0.8"/>
      </g>
     </g>
     <g id="text_2">
      <!-- 50 -->
      <g transform="translate(131.269356 262.778125)scale(0.1 -0.1)">
       <defs>
        <path id="SimHei-30" d="M 225 2537 
Q 250 3200 412 3587 
Q 575 3975 875 4225 
Q 1175 4475 1612 4475 
Q 2050 4475 2375 4112 
Q 2700 3750 2800 3200 
Q 2900 2650 2862 1937 
Q 2825 1225 2612 775 
Q 2400 325 1975 150 
Q 1550 -25 1125 187 
Q 700 400 525 750 
Q 350 1100 275 1487 
Q 200 1875 225 2537 
z
M 750 2687 
Q 675 2000 800 1462 
Q 925 925 1212 700 
Q 1500 475 1800 612 
Q 2100 750 2237 1162 
Q 2375 1575 2375 2062 
Q 2375 2550 2337 2950 
Q 2300 3350 2112 3675 
Q 1925 4000 1612 4012 
Q 1300 4025 1062 3700 
Q 825 3375 750 2687 
z
" transform="scale(0.015625)"/>
       </defs>
       <use xlink:href="#SimHei-35"/>
       <use xlink:href="#SimHei-30" x="50"/>
      </g>
     </g>
    </g>
    <g id="xtick_3">
     <g id="line2d_3">
      <g>
       <use xlink:href="#m7059e7359c" x="182.507797" y="248.903125" style="stroke: #000000; stroke-width: 0.8"/>
      </g>
     </g>
     <g id="text_3">
      <!-- 75 -->
      <g transform="translate(177.507797 262.778125)scale(0.1 -0.1)">
       <defs>
        <path id="SimHei-37" d="M 850 150 
Q 1300 2050 2425 3925 
L 275 3925 
L 275 4375 
L 2950 4375 
L 2950 3950 
Q 1775 2050 1400 150 
L 850 150 
z
" transform="scale(0.015625)"/>
       </defs>
       <use xlink:href="#SimHei-37"/>
       <use xlink:href="#SimHei-35" x="50"/>
      </g>
     </g>
    </g>
    <g id="xtick_4">
     <g id="line2d_4">
      <g>
       <use xlink:href="#m7059e7359c" x="228.746237" y="248.903125" style="stroke: #000000; stroke-width: 0.8"/>
      </g>
     </g>
     <g id="text_4">
      <!-- 100 -->
      <g transform="translate(221.246237 262.778125)scale(0.1 -0.1)">
       <defs>
        <path id="SimHei-31" d="M 1400 3600 
Q 1075 3275 575 2975 
L 575 3450 
Q 1200 3875 1600 4450 
L 1900 4450 
L 1900 150 
L 1400 150 
L 1400 3600 
z
" transform="scale(0.015625)"/>
       </defs>
       <use xlink:href="#SimHei-31"/>
       <use xlink:href="#SimHei-30" x="50"/>
       <use xlink:href="#SimHei-30" x="100"/>
      </g>
     </g>
    </g>
    <g id="xtick_5">
     <g id="line2d_5">
      <g>
       <use xlink:href="#m7059e7359c" x="274.984678" y="248.903125" style="stroke: #000000; stroke-width: 0.8"/>
      </g>
     </g>
     <g id="text_5">
      <!-- 125 -->
      <g transform="translate(267.484678 262.778125)scale(0.1 -0.1)">
       <use xlink:href="#SimHei-31"/>
       <use xlink:href="#SimHei-32" x="50"/>
       <use xlink:href="#SimHei-35" x="100"/>
      </g>
     </g>
    </g>
    <g id="xtick_6">
     <g id="line2d_6">
      <g>
       <use xlink:href="#m7059e7359c" x="321.223119" y="248.903125" style="stroke: #000000; stroke-width: 0.8"/>
      </g>
     </g>
     <g id="text_6">
      <!-- 150 -->
      <g transform="translate(313.723119 262.778125)scale(0.1 -0.1)">
       <use xlink:href="#SimHei-31"/>
       <use xlink:href="#SimHei-35" x="50"/>
       <use xlink:href="#SimHei-30" x="100"/>
      </g>
     </g>
    </g>
    <g id="xtick_7">
     <g id="line2d_7">
      <g>
       <use xlink:href="#m7059e7359c" x="367.461559" y="248.903125" style="stroke: #000000; stroke-width: 0.8"/>
      </g>
     </g>
     <g id="text_7">
      <!-- 175 -->
      <g transform="translate(359.961559 262.778125)scale(0.1 -0.1)">
       <use xlink:href="#SimHei-31"/>
       <use xlink:href="#SimHei-37" x="50"/>
       <use xlink:href="#SimHei-35" x="100"/>
      </g>
     </g>
    </g>
    <g id="xtick_8">
     <g id="line2d_8">
      <g>
       <use xlink:href="#m7059e7359c" x="413.7" y="248.903125" style="stroke: #000000; stroke-width: 0.8"/>
      </g>
     </g>
     <g id="text_8">
      <!-- 200 -->
      <g transform="translate(406.2 262.778125)scale(0.1 -0.1)">
       <use xlink:href="#SimHei-32"/>
       <use xlink:href="#SimHei-30" x="50"/>
       <use xlink:href="#SimHei-30" x="100"/>
      </g>
     </g>
    </g>
    <g id="text_9">
     <!-- 序列长度 -->
     <g transform="translate(212.445313 276.075)scale(0.1 -0.1)">
      <defs>
       <path id="SimHei-5e8f" d="M 4000 2075 
L 5975 2075 
Q 5750 1525 5575 1025 
Q 5325 1100 5050 1150 
Q 5175 1450 5275 1700 
L 4050 1700 
L 4050 150 
Q 4050 -375 3762 -462 
Q 3475 -550 2950 -575 
Q 2875 -300 2750 0 
Q 3350 -75 3475 25 
Q 3600 125 3575 375 
L 3575 1700 
L 2450 1700 
Q 2050 1700 1675 1675 
L 1675 2100 
Q 2100 2075 2425 2075 
L 3675 2075 
Q 3325 2400 2875 2775 
Q 2975 2875 3250 3100 
Q 3400 2975 3725 2725 
L 4575 3275 
L 3000 3275 
Q 2400 3275 1950 3250 
L 1950 3700 
Q 2400 3675 3000 3675 
L 5400 3675 
L 5400 3250 
Q 4700 2875 4025 2450 
L 4275 2250 
L 4000 2075 
z
M 3725 5275 
Q 3825 4925 3925 4525 
L 4850 4525 
Q 5425 4525 6000 4550 
L 6000 4125 
Q 5425 4150 4850 4150 
L 1400 4150 
Q 1400 2750 1362 2137 
Q 1325 1525 1200 887 
Q 1075 250 775 -350 
Q 625 -250 250 -125 
Q 475 300 600 700 
Q 725 1100 800 1637 
Q 875 2175 875 2825 
Q 875 3500 850 4525 
L 3350 4525 
Q 3275 4825 3150 5150 
Q 3425 5200 3725 5275 
z
" transform="scale(0.015625)"/>
       <path id="SimHei-5217" d="M 2950 4800 
Q 3525 4800 3825 4825 
L 3825 4400 
Q 3525 4425 2800 4425 
L 2125 4425 
Q 2075 4125 1925 3500 
L 3425 3500 
Q 3300 2500 3100 1862 
Q 2900 1225 2575 762 
Q 2250 300 1850 -12 
Q 1450 -325 925 -675 
Q 725 -375 475 -150 
Q 1125 125 1550 437 
Q 1975 750 2250 1225 
Q 2100 1350 1862 1550 
Q 1625 1750 1400 1925 
L 1750 2325 
Q 1925 2200 2100 2037 
Q 2275 1875 2500 1650 
Q 2650 2025 2737 2337 
Q 2825 2650 2875 3100 
L 1775 3100 
Q 1600 2650 1350 2237 
Q 1100 1825 775 1525 
Q 600 1675 325 1850 
Q 600 2125 825 2462 
Q 1050 2800 1200 3125 
Q 1350 3450 1425 3775 
Q 1500 4100 1550 4425 
L 1100 4425 
Q 575 4425 375 4400 
L 375 4825 
Q 575 4800 1125 4800 
L 2950 4800 
z
M 5975 5050 
Q 5925 4675 5925 4250 
L 5925 50 
Q 5925 -275 5737 -400 
Q 5550 -525 4900 -625 
Q 4825 -250 4650 25 
Q 5150 0 5287 25 
Q 5425 50 5425 325 
L 5425 4250 
Q 5425 4650 5400 5050 
L 5975 5050 
z
M 4725 4300 
Q 4675 4000 4675 3450 
L 4675 1650 
Q 4675 1200 4700 850 
L 4100 850 
Q 4150 1200 4150 1650 
L 4150 3550 
Q 4150 3975 4100 4300 
L 4725 4300 
z
" transform="scale(0.015625)"/>
       <path id="SimHei-957f" d="M 1750 2800 
L 1750 4450 
Q 1750 4675 1725 5100 
L 2275 5100 
Q 2250 4625 2250 4475 
L 2250 2800 
L 5275 2800 
Q 5600 2800 5975 2825 
L 5975 2325 
Q 5500 2350 5100 2350 
L 3650 2350 
Q 3825 1850 4187 1375 
Q 4550 900 5050 587 
Q 5550 275 5950 150 
Q 5625 -50 5450 -350 
Q 4925 -75 4475 300 
Q 4025 675 3675 1212 
Q 3325 1750 3150 2350 
L 2250 2350 
L 2250 375 
Q 2975 825 3225 1050 
Q 3400 775 3575 550 
Q 3100 325 2625 -12 
Q 2150 -350 1925 -575 
Q 1725 -300 1550 -100 
Q 1750 100 1750 425 
L 1750 2350 
L 1175 2350 
Q 825 2350 375 2325 
L 375 2825 
Q 825 2800 1125 2800 
L 1750 2800 
z
M 4900 4700 
Q 4625 4475 4087 3937 
Q 3550 3400 3025 2900 
Q 2800 3200 2650 3300 
Q 3075 3600 3600 4150 
Q 4125 4700 4400 5100 
Q 4600 4925 4900 4700 
z
" transform="scale(0.015625)"/>
       <path id="SimHei-5ea6" d="M 1750 1675 
Q 2450 1650 2875 1650 
L 5200 1650 
Q 4975 1250 4650 850 
Q 4325 450 4025 200 
Q 4350 50 4950 -50 
Q 5550 -150 6100 -150 
Q 5950 -300 5825 -650 
Q 5100 -550 4550 -412 
Q 4000 -275 3625 -100 
Q 3100 -325 2587 -462 
Q 2075 -600 1525 -675 
Q 1450 -475 1225 -250 
Q 1675 -250 2250 -125 
Q 2825 0 3250 200 
Q 2825 550 2400 1275 
L 1750 1250 
L 1750 1675 
z
M 2975 5075 
Q 3250 5150 3475 5250 
Q 3625 4975 3775 4525 
L 4700 4525 
Q 4975 4525 5700 4550 
L 5700 4100 
Q 5000 4125 4650 4125 
L 1375 4125 
Q 1375 3000 1350 2312 
Q 1325 1625 1212 950 
Q 1100 275 725 -525 
Q 500 -375 250 -300 
Q 650 400 762 1075 
Q 875 1750 887 2800 
Q 900 3850 875 4525 
L 3200 4525 
Q 3100 4850 2975 5075 
z
M 2475 3300 
Q 2475 3700 2450 3925 
L 2975 3925 
Q 2950 3725 2950 3300 
L 4300 3300 
Q 4300 3700 4275 3950 
L 4800 3950 
Q 4775 3650 4775 3300 
Q 5325 3300 5725 3325 
L 5725 2900 
Q 5350 2925 4775 2925 
Q 4775 2250 4800 1950 
L 2450 1950 
Q 2475 2350 2475 2925 
Q 2175 2925 1600 2900 
L 1600 3325 
Q 2175 3300 2475 3300 
z
M 4300 2350 
L 4300 2925 
L 2950 2925 
L 2950 2350 
L 4300 2350 
z
M 2875 1275 
Q 3200 775 3650 425 
Q 4025 700 4425 1275 
L 2900 1275 
L 2875 1275 
z
" transform="scale(0.015625)"/>
      </defs>
      <use xlink:href="#SimHei-5e8f"/>
      <use xlink:href="#SimHei-5217" x="100"/>
      <use xlink:href="#SimHei-957f" x="200"/>
      <use xlink:href="#SimHei-5ea6" x="300"/>
     </g>
    </g>
   </g>
   <g id="matplotlib.axis_2">
    <g id="ytick_1">
     <g id="line2d_9">
      <defs>
       <path id="m1e6819b982" d="M 0 0 
L -3.5 0 
" style="stroke: #000000; stroke-width: 0.8"/>
      </defs>
      <g>
       <use xlink:href="#m1e6819b982" x="51.190625" y="238.791193" style="stroke: #000000; stroke-width: 0.8"/>
      </g>
     </g>
     <g id="text_10">
      <!-- 0.00 -->
      <g transform="translate(24.190625 242.228693)scale(0.1 -0.1)">
       <defs>
        <path id="SimHei-2e" d="M 1075 125 
L 500 125 
L 500 675 
L 1075 675 
L 1075 125 
z
" transform="scale(0.015625)"/>
       </defs>
       <use xlink:href="#SimHei-30"/>
       <use xlink:href="#SimHei-2e" x="50"/>
       <use xlink:href="#SimHei-30" x="100"/>
       <use xlink:href="#SimHei-30" x="150"/>
      </g>
     </g>
    </g>
    <g id="ytick_2">
     <g id="line2d_10">
      <g>
       <use xlink:href="#m1e6819b982" x="51.190625" y="194.853999" style="stroke: #000000; stroke-width: 0.8"/>
      </g>
     </g>
     <g id="text_11">
      <!-- 0.01 -->
      <g transform="translate(24.190625 198.291499)scale(0.1 -0.1)">
       <use xlink:href="#SimHei-30"/>
       <use xlink:href="#SimHei-2e" x="50"/>
       <use xlink:href="#SimHei-30" x="100"/>
       <use xlink:href="#SimHei-31" x="150"/>
      </g>
     </g>
    </g>
    <g id="ytick_3">
     <g id="line2d_11">
      <g>
       <use xlink:href="#m1e6819b982" x="51.190625" y="150.916806" style="stroke: #000000; stroke-width: 0.8"/>
      </g>
     </g>
     <g id="text_12">
      <!-- 0.02 -->
      <g transform="translate(24.190625 154.354306)scale(0.1 -0.1)">
       <use xlink:href="#SimHei-30"/>
       <use xlink:href="#SimHei-2e" x="50"/>
       <use xlink:href="#SimHei-30" x="100"/>
       <use xlink:href="#SimHei-32" x="150"/>
      </g>
     </g>
    </g>
    <g id="ytick_4">
     <g id="line2d_12">
      <g>
       <use xlink:href="#m1e6819b982" x="51.190625" y="106.979612" style="stroke: #000000; stroke-width: 0.8"/>
      </g>
     </g>
     <g id="text_13">
      <!-- 0.03 -->
      <g transform="translate(24.190625 110.417112)scale(0.1 -0.1)">
       <defs>
        <path id="SimHei-33" d="M 250 1225 
L 700 1300 
Q 800 975 1025 762 
Q 1250 550 1587 562 
Q 1925 575 2125 837 
Q 2325 1100 2300 1437 
Q 2275 1775 2037 1962 
Q 1800 2150 1275 2225 
L 1275 2550 
Q 1800 2600 2037 2825 
Q 2275 3050 2250 3412 
Q 2225 3775 1925 3937 
Q 1625 4100 1287 3975 
Q 950 3850 750 3275 
L 300 3350 
Q 450 3800 712 4100 
Q 975 4400 1425 4450 
Q 1875 4500 2212 4337 
Q 2550 4175 2687 3837 
Q 2825 3500 2725 3100 
Q 2625 2700 2150 2400 
Q 2500 2250 2687 1950 
Q 2875 1650 2812 1162 
Q 2750 675 2375 375 
Q 2000 75 1525 87 
Q 1050 100 700 387 
Q 350 675 250 1225 
z
" transform="scale(0.015625)"/>
       </defs>
       <use xlink:href="#SimHei-30"/>
       <use xlink:href="#SimHei-2e" x="50"/>
       <use xlink:href="#SimHei-30" x="100"/>
       <use xlink:href="#SimHei-33" x="150"/>
      </g>
     </g>
    </g>
    <g id="ytick_5">
     <g id="line2d_13">
      <g>
       <use xlink:href="#m1e6819b982" x="51.190625" y="63.042418" style="stroke: #000000; stroke-width: 0.8"/>
      </g>
     </g>
     <g id="text_14">
      <!-- 0.04 -->
      <g transform="translate(24.190625 66.479918)scale(0.1 -0.1)">
       <defs>
        <path id="SimHei-34" d="M 2000 1100 
L 75 1100 
L 75 1525 
L 2100 4450 
L 2475 4450 
L 2475 1525 
L 3075 1525 
L 3075 1100 
L 2475 1100 
L 2475 150 
L 2000 150 
L 2000 1100 
z
M 2000 1525 
L 2000 3500 
L 600 1525 
L 2000 1525 
z
" transform="scale(0.015625)"/>
       </defs>
       <use xlink:href="#SimHei-30"/>
       <use xlink:href="#SimHei-2e" x="50"/>
       <use xlink:href="#SimHei-30" x="100"/>
       <use xlink:href="#SimHei-34" x="150"/>
      </g>
     </g>
    </g>
    <g id="text_15">
     <!-- avg of abs(dis2-dis1)/(dis1+1) -->
     <g transform="translate(18.940625 212.671875)rotate(-90)scale(0.1 -0.1)">
      <defs>
       <path id="SimHei-61" d="M 2875 125 
L 2275 125 
Q 2225 175 2200 262 
Q 2175 350 2175 475 
Q 2000 275 1750 175 
Q 1500 75 1225 75 
Q 825 75 550 275 
Q 275 475 275 850 
Q 275 1225 525 1450 
Q 775 1675 1300 1750 
Q 1650 1800 1912 1875 
Q 2175 1950 2175 2075 
Q 2175 2225 2062 2375 
Q 1950 2525 1575 2525 
Q 1275 2525 1137 2412 
Q 1000 2300 950 2100 
L 400 2100 
Q 450 2500 762 2737 
Q 1075 2975 1575 2975 
Q 2125 2975 2400 2725 
Q 2675 2475 2675 2025 
L 2675 650 
Q 2675 500 2725 375 
Q 2775 250 2875 125 
z
M 2175 1050 
L 2175 1550 
Q 2025 1500 1887 1462 
Q 1750 1425 1425 1375 
Q 1050 1325 937 1200 
Q 825 1075 825 900 
Q 825 750 937 637 
Q 1050 525 1275 525 
Q 1500 525 1762 650 
Q 2025 775 2175 1050 
z
" transform="scale(0.015625)"/>
       <path id="SimHei-76" d="M 2875 2925 
L 1825 75 
L 1275 75 
L 225 2925 
L 750 2925 
L 1525 750 
L 1575 750 
L 2350 2925 
L 2875 2925 
z
" transform="scale(0.015625)"/>
       <path id="SimHei-67" d="M 2975 2500 
Q 2800 2550 2637 2562 
Q 2475 2575 2300 2525 
Q 2375 2450 2425 2337 
Q 2475 2225 2475 2000 
Q 2475 1575 2187 1300 
Q 1900 1025 1475 1025 
Q 1375 1025 1212 1062 
Q 1050 1100 950 1150 
Q 875 1100 850 1050 
Q 825 1000 825 925 
Q 825 800 1000 737 
Q 1175 675 1625 675 
Q 2350 675 2612 475 
Q 2875 275 2875 -25 
Q 2875 -425 2487 -612 
Q 2100 -800 1575 -800 
Q 900 -800 575 -625 
Q 250 -450 250 -150 
Q 250 0 375 150 
Q 500 300 700 400 
Q 550 475 462 587 
Q 375 700 375 875 
Q 375 1025 487 1137 
Q 600 1250 750 1325 
Q 625 1450 550 1625 
Q 475 1800 475 2000 
Q 475 2425 762 2700 
Q 1050 2975 1475 2975 
Q 1700 2975 1862 2912 
Q 2025 2850 2150 2725 
Q 2350 2875 2550 2937 
Q 2750 3000 2975 2975 
L 2975 2500 
z
M 1975 2000 
Q 1975 2250 1850 2400 
Q 1725 2550 1475 2550 
Q 1225 2550 1100 2400 
Q 975 2250 975 2000 
Q 975 1750 1100 1600 
Q 1225 1450 1475 1450 
Q 1725 1450 1850 1600 
Q 1975 1750 1975 2000 
z
M 2400 -75 
Q 2400 25 2287 125 
Q 2175 225 1725 225 
Q 1625 225 1450 237 
Q 1275 250 1050 275 
Q 850 200 775 100 
Q 700 0 700 -100 
Q 700 -250 900 -350 
Q 1100 -450 1600 -450 
Q 2025 -450 2212 -337 
Q 2400 -225 2400 -75 
z
" transform="scale(0.015625)"/>
       <path id="SimHei-20" transform="scale(0.015625)"/>
       <path id="SimHei-6f" d="M 2925 1525 
Q 2925 875 2525 475 
Q 2125 75 1575 75 
Q 1025 75 625 475 
Q 225 875 225 1525 
Q 225 2175 625 2575 
Q 1025 2975 1575 2975 
Q 2125 2975 2525 2575 
Q 2925 2175 2925 1525 
z
M 2375 1525 
Q 2375 2025 2125 2275 
Q 1875 2525 1575 2525 
Q 1275 2525 1025 2275 
Q 775 2025 775 1525 
Q 775 1025 1025 775 
Q 1275 525 1575 525 
Q 1875 525 2125 775 
Q 2375 1025 2375 1525 
z
" transform="scale(0.015625)"/>
       <path id="SimHei-66" d="M 2850 3825 
Q 2725 3900 2550 3950 
Q 2375 4000 2100 4000 
Q 1825 4000 1725 3862 
Q 1625 3725 1625 3525 
L 1625 2925 
L 2650 2925 
L 2650 2525 
L 1625 2525 
L 1625 125 
L 1125 125 
L 1125 2525 
L 275 2525 
L 275 2925 
L 1125 2925 
L 1125 3500 
Q 1125 3950 1400 4200 
Q 1675 4450 2125 4450 
Q 2400 4450 2562 4412 
Q 2725 4375 2850 4325 
L 2850 3825 
z
" transform="scale(0.015625)"/>
       <path id="SimHei-62" d="M 2825 1525 
Q 2825 800 2475 437 
Q 2125 75 1625 75 
Q 1350 75 1150 175 
Q 950 275 800 500 
L 800 125 
L 300 125 
L 300 4400 
L 800 4400 
L 800 2550 
Q 950 2775 1150 2887 
Q 1350 3000 1625 3000 
Q 2125 3000 2475 2625 
Q 2825 2250 2825 1525 
z
M 2275 1525 
Q 2275 2000 2087 2275 
Q 1900 2550 1525 2550 
Q 1225 2550 1012 2275 
Q 800 2000 800 1525 
Q 800 1050 1012 787 
Q 1225 525 1525 525 
Q 1900 525 2087 787 
Q 2275 1050 2275 1525 
z
" transform="scale(0.015625)"/>
       <path id="SimHei-73" d="M 2750 900 
Q 2750 500 2437 287 
Q 2125 75 1650 75 
Q 1050 75 725 312 
Q 400 550 400 1000 
L 900 1000 
Q 900 700 1112 600 
Q 1325 500 1625 500 
Q 1925 500 2075 612 
Q 2225 725 2225 900 
Q 2225 1025 2100 1150 
Q 1975 1275 1475 1350 
Q 900 1425 687 1637 
Q 475 1850 475 2200 
Q 475 2500 762 2737 
Q 1050 2975 1600 2975 
Q 2100 2975 2387 2750 
Q 2675 2525 2675 2150 
L 2175 2150 
Q 2175 2375 2012 2462 
Q 1850 2550 1600 2550 
Q 1275 2550 1137 2437 
Q 1000 2325 1000 2175 
Q 1000 2000 1125 1900 
Q 1250 1800 1650 1750 
Q 2300 1650 2525 1437 
Q 2750 1225 2750 900 
z
" transform="scale(0.015625)"/>
       <path id="SimHei-28" d="M 2975 -200 
L 2700 -475 
Q 2075 125 1762 775 
Q 1450 1425 1450 2250 
Q 1450 3075 1762 3725 
Q 2075 4375 2700 5000 
L 2975 4725 
Q 2400 4175 2112 3587 
Q 1825 3000 1825 2250 
Q 1825 1500 2112 912 
Q 2400 325 2975 -200 
z
" transform="scale(0.015625)"/>
       <path id="SimHei-64" d="M 2750 125 
L 2250 125 
L 2250 500 
Q 2100 275 1900 175 
Q 1700 75 1425 75 
Q 925 75 575 437 
Q 225 800 225 1525 
Q 225 2250 575 2625 
Q 925 3000 1425 3000 
Q 1700 3000 1900 2887 
Q 2100 2775 2250 2550 
L 2250 4400 
L 2750 4400 
L 2750 125 
z
M 2250 1525 
Q 2250 2000 2037 2275 
Q 1825 2550 1525 2550 
Q 1150 2550 962 2275 
Q 775 2000 775 1525 
Q 775 1050 962 787 
Q 1150 525 1525 525 
Q 1825 525 2037 787 
Q 2250 1050 2250 1525 
z
" transform="scale(0.015625)"/>
       <path id="SimHei-69" d="M 1800 3725 
L 1300 3725 
L 1300 4375 
L 1800 4375 
L 1800 3725 
z
M 1800 125 
L 1300 125 
L 1300 2925 
L 1800 2925 
L 1800 125 
z
" transform="scale(0.015625)"/>
       <path id="SimHei-2d" d="M 2975 2125 
L 125 2125 
L 125 2525 
L 2975 2525 
L 2975 2125 
z
" transform="scale(0.015625)"/>
       <path id="SimHei-29" d="M 1675 2250 
Q 1675 1425 1362 775 
Q 1050 125 425 -475 
L 150 -200 
Q 725 325 1012 912 
Q 1300 1500 1300 2250 
Q 1300 3000 1012 3587 
Q 725 4175 150 4725 
L 425 5000 
Q 1050 4375 1362 3725 
Q 1675 3075 1675 2250 
z
" transform="scale(0.015625)"/>
       <path id="SimHei-2f" d="M 3000 4550 
L 350 -175 
L 100 -25 
L 2750 4700 
L 3000 4550 
z
" transform="scale(0.015625)"/>
       <path id="SimHei-2b" d="M 3000 2125 
L 1775 2125 
L 1775 900 
L 1350 900 
L 1350 2125 
L 125 2125 
L 125 2525 
L 1350 2525 
L 1350 3750 
L 1775 3750 
L 1775 2525 
L 3000 2525 
L 3000 2125 
z
" transform="scale(0.015625)"/>
      </defs>
      <use xlink:href="#SimHei-61"/>
      <use xlink:href="#SimHei-76" x="50"/>
      <use xlink:href="#SimHei-67" x="100"/>
      <use xlink:href="#SimHei-20" x="150"/>
      <use xlink:href="#SimHei-6f" x="200"/>
      <use xlink:href="#SimHei-66" x="250"/>
      <use xlink:href="#SimHei-20" x="300"/>
      <use xlink:href="#SimHei-61" x="350"/>
      <use xlink:href="#SimHei-62" x="400"/>
      <use xlink:href="#SimHei-73" x="450"/>
      <use xlink:href="#SimHei-28" x="500"/>
      <use xlink:href="#SimHei-64" x="550"/>
      <use xlink:href="#SimHei-69" x="600"/>
      <use xlink:href="#SimHei-73" x="650"/>
      <use xlink:href="#SimHei-32" x="700"/>
      <use xlink:href="#SimHei-2d" x="750"/>
      <use xlink:href="#SimHei-64" x="800"/>
      <use xlink:href="#SimHei-69" x="850"/>
      <use xlink:href="#SimHei-73" x="900"/>
      <use xlink:href="#SimHei-31" x="950"/>
      <use xlink:href="#SimHei-29" x="1000"/>
      <use xlink:href="#SimHei-2f" x="1050"/>
      <use xlink:href="#SimHei-28" x="1100"/>
      <use xlink:href="#SimHei-64" x="1150"/>
      <use xlink:href="#SimHei-69" x="1200"/>
      <use xlink:href="#SimHei-73" x="1250"/>
      <use xlink:href="#SimHei-31" x="1300"/>
      <use xlink:href="#SimHei-2b" x="1350"/>
      <use xlink:href="#SimHei-31" x="1400"/>
      <use xlink:href="#SimHei-29" x="1450"/>
     </g>
    </g>
   </g>
   <g id="line2d_14">
    <path d="M 43.792474 238.791193 
L 49.341087 238.791193 
L 51.190625 133.242567 
L 53.040163 141.30172 
L 54.8897 150.503929 
L 56.739238 157.08481 
L 58.588776 161.352186 
L 62.287851 167.915867 
L 64.137388 171.622011 
L 65.986926 174.166473 
L 67.836464 179.848071 
L 71.535539 180.670984 
L 73.385077 181.52769 
L 75.234614 185.262884 
L 77.084152 183.993898 
L 78.933689 184.224682 
L 80.783227 187.382125 
L 82.632765 191.476378 
L 84.482302 192.517961 
L 86.33184 190.351836 
L 88.181378 190.649012 
L 90.030915 190.639543 
L 91.880453 191.92921 
L 93.72999 192.505334 
L 95.579528 195.369364 
L 97.429066 196.549995 
L 99.278603 199.651026 
L 101.128141 199.622046 
L 102.977679 198.928938 
L 104.827216 196.293735 
L 106.676754 199.32039 
L 108.526291 196.71185 
L 110.375829 201.345475 
L 112.225367 201.109412 
L 114.074904 198.859799 
L 115.924442 202.211356 
L 119.623517 202.290826 
L 121.473055 201.588353 
L 125.17213 202.971053 
L 127.021668 203.815744 
L 128.871205 203.906513 
L 130.720743 203.704852 
L 132.570281 203.712221 
L 134.419818 204.147403 
L 136.269356 205.792614 
L 138.118893 204.156921 
L 139.968431 204.06469 
L 141.817969 206.700139 
L 143.667506 204.963 
L 145.517044 207.067444 
L 147.366582 206.488768 
L 149.216119 204.010389 
L 151.065657 206.813846 
L 152.915195 207.407043 
L 154.764732 208.671172 
L 156.61427 207.409864 
L 158.463807 206.948403 
L 160.313345 206.903434 
L 162.162883 206.510161 
L 164.01242 208.090779 
L 165.861958 210.553805 
L 167.711496 208.197726 
L 171.410571 209.085442 
L 173.260108 210.094957 
L 175.109646 208.86159 
L 176.959184 209.532931 
L 178.808721 208.933571 
L 180.658259 209.651888 
L 182.507797 208.722815 
L 184.357334 211.798593 
L 186.206872 210.458241 
L 188.056409 211.952279 
L 189.905947 208.861664 
L 191.755485 211.741862 
L 193.605022 210.137465 
L 195.45456 211.694953 
L 197.304098 211.201146 
L 199.153635 209.653659 
L 201.003173 211.844011 
L 202.85271 210.573272 
L 204.702248 211.624893 
L 206.551786 210.715464 
L 208.401323 211.872476 
L 210.250861 212.156847 
L 212.100399 211.147975 
L 213.949936 211.148053 
L 215.799474 212.70208 
L 217.649011 212.680586 
L 219.498549 213.620088 
L 221.348087 214.118796 
L 223.197624 212.388132 
L 225.047162 212.226187 
L 226.8967 212.375434 
L 228.746237 212.685359 
L 230.595775 214.555317 
L 232.445312 211.650564 
L 234.29485 214.889505 
L 236.144388 212.494492 
L 239.843463 214.612239 
L 241.693001 211.793295 
L 243.542538 213.993027 
L 245.392076 214.747121 
L 247.241614 213.659844 
L 249.091151 213.007581 
L 250.940689 213.170831 
L 252.790226 213.20151 
L 254.639764 213.952229 
L 256.489302 212.378204 
L 258.338839 212.69173 
L 260.188377 214.312375 
L 262.037915 214.727169 
L 263.887452 214.281565 
L 265.73699 215.878648 
L 267.586527 215.771118 
L 269.436065 214.287452 
L 271.285603 214.877564 
L 273.13514 213.8565 
L 274.984678 215.818035 
L 276.834216 213.21617 
L 278.683753 215.44993 
L 280.533291 214.613593 
L 282.382828 215.482997 
L 284.232366 214.108749 
L 287.931441 213.577756 
L 291.630517 216.185979 
L 293.480054 213.997473 
L 295.329592 215.572465 
L 297.179129 215.532126 
L 299.028667 214.665635 
L 300.878205 215.5116 
L 302.727742 217.757184 
L 304.57728 215.011782 
L 306.426818 216.438631 
L 308.276355 216.479657 
L 310.125893 216.868502 
L 311.97543 215.522351 
L 313.824968 216.126935 
L 315.674506 216.165273 
L 317.524043 215.09072 
L 319.373581 216.638256 
L 321.223119 216.725548 
L 323.072656 214.874706 
L 324.922194 215.763561 
L 326.771732 216.894908 
L 328.621269 216.714531 
L 330.470807 214.942271 
L 332.320344 216.445675 
L 334.169882 216.627583 
L 336.01942 217.568676 
L 337.868957 215.903425 
L 339.718495 217.373942 
L 341.568033 215.712979 
L 343.41757 216.900512 
L 345.267108 216.52728 
L 347.116645 216.448297 
L 348.966183 216.778022 
L 350.815721 215.142251 
L 352.665258 217.312298 
L 354.514796 215.319126 
L 356.364334 216.816205 
L 358.213871 218.490877 
L 360.063409 216.827008 
L 361.912946 218.338404 
L 363.762484 216.678214 
L 365.612022 217.231366 
L 367.461559 217.165712 
L 369.311097 218.169615 
L 371.160635 216.089972 
L 373.010172 217.76264 
L 374.85971 218.659391 
L 376.709247 217.991749 
L 378.558785 216.670125 
L 380.408323 215.915055 
L 382.25786 217.505941 
L 384.107398 218.105343 
L 385.956936 217.957951 
L 387.806473 216.042904 
L 389.656011 218.002252 
L 391.505548 217.259504 
L 393.355086 216.967978 
L 395.204624 217.339636 
L 397.054161 218.080211 
L 398.903699 216.791315 
L 400.753237 218.896659 
L 402.602774 217.382256 
L 404.452312 217.324384 
L 406.301849 218.355358 
L 408.151387 218.158876 
L 410.000925 217.026313 
L 411.850462 217.862096 
L 411.850462 217.862096 
" clip-path="url(#p0b0cbfa833)" style="fill: none; stroke: #1f77b4; stroke-width: 2; stroke-linecap: square"/>
   </g>
   <g id="line2d_15">
    <path d="M 43.792474 238.791193 
L 411.850462 238.791193 
L 411.850462 238.791193 
" clip-path="url(#p0b0cbfa833)" style="fill: none; stroke: #ff7f0e; stroke-width: 3; stroke-linecap: square"/>
   </g>
   <g id="line2d_16">
    <path d="M 43.792474 238.791193 
L 49.341087 238.791193 
L 51.190625 112.534066 
L 53.040163 104.474623 
L 54.8897 125.25689 
L 56.739238 128.833216 
L 58.588776 139.849089 
L 60.438313 138.312818 
L 62.287851 144.869212 
L 64.137388 145.327748 
L 65.986926 152.398426 
L 67.836464 160.384896 
L 69.686001 163.484491 
L 71.535539 161.246514 
L 73.385077 160.289803 
L 75.234614 165.836863 
L 77.084152 166.333438 
L 78.933689 165.964274 
L 80.783227 171.896802 
L 84.482302 175.148846 
L 86.33184 173.129206 
L 88.181378 175.275488 
L 90.030915 171.913921 
L 91.880453 177.49345 
L 93.72999 177.708681 
L 95.579528 181.965313 
L 97.429066 183.301276 
L 99.278603 185.269477 
L 101.128141 185.019116 
L 102.977679 185.171449 
L 104.827216 184.274935 
L 106.676754 184.68163 
L 108.526291 184.202253 
L 110.375829 188.831572 
L 112.225367 188.349364 
L 114.074904 184.163522 
L 115.924442 190.932882 
L 117.77398 189.664883 
L 119.623517 188.564078 
L 121.473055 191.391772 
L 123.322592 190.02369 
L 125.17213 191.321457 
L 127.021668 192.415689 
L 128.871205 192.66762 
L 130.720743 192.160686 
L 132.570281 193.449706 
L 134.419818 193.015493 
L 136.269356 195.114348 
L 138.118893 193.512709 
L 139.968431 193.744503 
L 141.817969 196.109411 
L 143.667506 194.278559 
L 145.517044 196.085511 
L 147.366582 197.643798 
L 149.216119 193.592712 
L 151.065657 198.054934 
L 152.915195 198.543476 
L 154.764732 199.749386 
L 156.61427 196.765065 
L 158.463807 198.127242 
L 160.313345 198.11878 
L 162.162883 197.263474 
L 164.01242 197.726666 
L 165.861958 201.351049 
L 169.561033 199.268211 
L 173.260108 201.689169 
L 175.109646 201.100735 
L 176.959184 201.994657 
L 178.808721 200.282989 
L 180.658259 203.543823 
L 182.507797 199.219642 
L 184.357334 204.206008 
L 186.206872 202.027208 
L 188.056409 204.17079 
L 189.905947 199.337352 
L 191.755485 202.433057 
L 193.605022 201.742308 
L 195.45456 203.954229 
L 197.304098 203.274896 
L 199.153635 202.781277 
L 201.003173 204.181876 
L 202.85271 203.143554 
L 204.702248 204.314794 
L 206.551786 203.871464 
L 208.401323 203.917772 
L 210.250861 205.526511 
L 212.100399 202.945899 
L 213.949936 203.510658 
L 215.799474 205.373149 
L 217.649011 205.5422 
L 219.498549 207.033035 
L 221.348087 206.753528 
L 223.197624 205.380785 
L 225.047162 205.630847 
L 226.8967 206.985754 
L 228.746237 206.376803 
L 230.595775 208.479116 
L 232.445312 204.428268 
L 234.29485 208.517074 
L 236.144388 206.699365 
L 237.993925 205.526363 
L 239.843463 207.441592 
L 241.693001 205.682917 
L 243.542538 207.832727 
L 245.392076 208.105365 
L 247.241614 205.877501 
L 249.091151 206.687202 
L 250.940689 207.956364 
L 252.790226 205.926279 
L 254.639764 207.820565 
L 256.489302 205.024362 
L 258.338839 204.581228 
L 260.188377 208.495812 
L 262.037915 208.133267 
L 263.887452 208.170718 
L 265.73699 210.160695 
L 267.586527 210.158405 
L 269.436065 207.595809 
L 271.285603 207.051128 
L 273.13514 208.297697 
L 274.984678 210.889589 
L 276.834216 206.928942 
L 278.683753 208.956756 
L 280.533291 207.99192 
L 282.382828 211.16089 
L 284.232366 208.660673 
L 286.081904 208.49001 
L 287.931441 207.865433 
L 289.780979 208.48988 
L 291.630517 210.429781 
L 293.480054 209.354641 
L 295.329592 209.353517 
L 297.179129 210.014647 
L 299.028667 208.268539 
L 300.878205 209.261664 
L 302.727742 212.229347 
L 304.57728 209.354559 
L 306.426818 211.056192 
L 308.276355 210.183671 
L 310.125893 211.09855 
L 311.97543 210.106417 
L 313.824968 211.108966 
L 315.674506 210.26987 
L 317.524043 210.489772 
L 319.373581 211.528247 
L 321.223119 211.528232 
L 323.072656 210.152468 
L 324.922194 210.826828 
L 326.771732 210.740761 
L 328.621269 212.051077 
L 330.470807 210.125151 
L 332.320344 210.907333 
L 334.169882 211.064743 
L 336.01942 212.489026 
L 337.868957 210.719082 
L 339.718495 213.172273 
L 341.568033 210.770159 
L 343.41757 210.943958 
L 345.267108 211.538907 
L 347.116645 211.33066 
L 348.966183 212.004719 
L 350.815721 210.984903 
L 352.665258 212.639245 
L 354.514796 208.888259 
L 356.364334 212.154827 
L 358.213871 213.904582 
L 360.063409 212.420409 
L 361.912946 213.827489 
L 363.762484 211.434792 
L 365.612022 212.834487 
L 367.461559 212.935362 
L 369.311097 213.988443 
L 371.160635 211.100817 
L 373.010172 212.792876 
L 374.85971 213.832874 
L 376.709247 212.946233 
L 378.558785 211.354453 
L 380.408323 211.264326 
L 382.25786 212.775045 
L 384.107398 212.97291 
L 385.956936 213.980539 
L 387.806473 212.184778 
L 389.656011 213.269077 
L 391.505548 212.059295 
L 393.355086 212.501971 
L 395.204624 212.172224 
L 397.054161 213.649682 
L 398.903699 212.491943 
L 400.753237 214.796385 
L 402.602774 214.270055 
L 404.452312 213.160827 
L 406.301849 213.403271 
L 408.151387 214.139121 
L 410.000925 212.422193 
L 411.850462 213.921458 
L 411.850462 213.921458 
" clip-path="url(#p0b0cbfa833)" style="fill: none; stroke: #2ca02c; stroke-width: 2; stroke-linecap: square"/>
   </g>
   <g id="line2d_17">
    <path d="M 43.792474 238.791193 
L 411.850462 238.791193 
L 411.850462 238.791193 
" clip-path="url(#p0b0cbfa833)" style="fill: none; stroke: #d62728; stroke-width: 2; stroke-linecap: square"/>
   </g>
   <g id="line2d_18">
    <path d="M 43.792474 238.791193 
L 49.341087 238.791193 
L 51.190625 70.582298 
L 53.040163 76.942118 
L 56.739238 99.06089 
L 58.588776 91.325296 
L 60.438313 97.844802 
L 62.287851 94.61894 
L 64.137388 103.270306 
L 65.986926 105.789926 
L 67.836464 113.952484 
L 69.686001 123.296128 
L 71.535539 121.321628 
L 73.385077 121.928593 
L 75.234614 121.374034 
L 77.084152 126.013732 
L 78.933689 131.07843 
L 80.783227 129.418773 
L 82.632765 135.226057 
L 84.482302 134.069489 
L 86.33184 137.069594 
L 88.181378 142.791058 
L 90.030915 142.218879 
L 91.880453 136.04262 
L 93.72999 143.735296 
L 95.579528 144.497581 
L 97.429066 142.391375 
L 99.278603 150.856245 
L 101.128141 144.880635 
L 102.977679 152.518066 
L 104.827216 144.062703 
L 106.676754 153.597364 
L 108.526291 159.143287 
L 110.375829 152.581434 
L 112.225367 154.561051 
L 114.074904 152.420413 
L 115.924442 159.108708 
L 117.77398 158.705207 
L 119.623517 154.445928 
L 121.473055 158.844667 
L 123.322592 157.25145 
L 125.17213 164.262238 
L 127.021668 161.319792 
L 128.871205 161.095852 
L 130.720743 167.512917 
L 132.570281 164.583766 
L 134.419818 166.526338 
L 136.269356 162.739804 
L 138.118893 162.714351 
L 139.968431 169.863322 
L 141.817969 164.98406 
L 143.667506 164.249825 
L 145.517044 167.143495 
L 147.366582 165.875509 
L 149.216119 171.49984 
L 151.065657 167.500998 
L 152.915195 172.235208 
L 154.764732 171.845826 
L 156.61427 174.148083 
L 158.463807 174.989737 
L 160.313345 171.3079 
L 162.162883 171.472627 
L 164.01242 174.580397 
L 165.861958 176.147967 
L 167.711496 177.006283 
L 169.561033 172.616084 
L 171.410571 175.9686 
L 173.260108 173.440519 
L 175.109646 179.06789 
L 176.959184 177.762517 
L 178.808721 177.516338 
L 180.658259 179.870172 
L 182.507797 179.844072 
L 184.357334 180.390213 
L 186.206872 175.963799 
L 188.056409 177.14517 
L 189.905947 182.445045 
L 191.755485 180.814517 
L 193.605022 181.478259 
L 195.45456 180.692976 
L 197.304098 178.883923 
L 199.153635 182.382266 
L 201.003173 182.649635 
L 202.85271 182.470537 
L 204.702248 185.286676 
L 206.551786 184.322502 
L 208.401323 181.857793 
L 210.250861 180.787414 
L 212.100399 185.755447 
L 213.949936 181.757307 
L 215.799474 183.873747 
L 217.649011 183.905658 
L 219.498549 184.731777 
L 221.348087 187.967749 
L 223.197624 183.321618 
L 225.047162 188.655263 
L 226.8967 185.384383 
L 228.746237 187.612925 
L 230.595775 189.092786 
L 232.445312 186.364534 
L 234.29485 187.718517 
L 236.144388 187.626843 
L 237.993925 187.891794 
L 239.843463 188.615703 
L 241.693001 185.881645 
L 245.392076 189.308252 
L 247.241614 187.157478 
L 249.091151 188.881896 
L 250.940689 188.166079 
L 252.790226 189.884271 
L 254.639764 190.565665 
L 256.489302 191.772335 
L 258.338839 192.058424 
L 260.188377 189.544727 
L 262.037915 188.877667 
L 263.887452 188.832721 
L 265.73699 186.971764 
L 267.586527 190.419856 
L 269.436065 189.702874 
L 271.285603 194.165349 
L 273.13514 189.842619 
L 274.984678 189.22721 
L 276.834216 190.475007 
L 278.683753 194.521612 
L 280.533291 194.350141 
L 282.382828 190.339836 
L 284.232366 192.011991 
L 286.081904 190.816565 
L 287.931441 191.704528 
L 289.780979 192.832481 
L 291.630517 193.488523 
L 293.480054 192.985807 
L 295.329592 193.052798 
L 297.179129 191.693587 
L 299.028667 195.518 
L 300.878205 192.878083 
L 302.727742 194.743829 
L 304.57728 194.437189 
L 306.426818 194.352503 
L 308.276355 194.610987 
L 310.125893 195.847305 
L 311.97543 194.940006 
L 313.824968 193.875126 
L 315.674506 195.916543 
L 317.524043 196.91228 
L 319.373581 195.137873 
L 321.223119 194.928928 
L 323.072656 195.152866 
L 324.922194 195.106319 
L 326.771732 196.597618 
L 328.621269 195.121538 
L 330.470807 197.745275 
L 332.320344 196.355591 
L 334.169882 197.00205 
L 336.01942 195.84918 
L 337.868957 197.400739 
L 339.718495 196.966327 
L 341.568033 197.725616 
L 343.41757 196.757667 
L 345.267108 196.911318 
L 347.116645 199.614773 
L 348.966183 196.301292 
L 350.815721 197.006961 
L 352.665258 197.366206 
L 354.514796 199.818474 
L 356.364334 198.345157 
L 358.213871 200.602123 
L 360.063409 197.620498 
L 361.912946 198.895556 
L 363.762484 197.663886 
L 365.612022 199.683275 
L 367.461559 197.95904 
L 369.311097 199.308037 
L 371.160635 199.340393 
L 373.010172 198.014278 
L 374.85971 198.505325 
L 376.709247 198.328084 
L 378.558785 197.838193 
L 380.408323 201.393711 
L 384.107398 200.275893 
L 385.956936 200.591956 
L 387.806473 201.891079 
L 389.656011 200.937987 
L 391.505548 200.433771 
L 393.355086 202.673892 
L 395.204624 199.212685 
L 397.054161 202.21764 
L 398.903699 200.285855 
L 400.753237 201.954582 
L 402.602774 200.561943 
L 404.452312 201.775546 
L 406.301849 199.111054 
L 408.151387 201.01816 
L 410.000925 198.616375 
L 411.850462 201.735207 
L 411.850462 201.735207 
" clip-path="url(#p0b0cbfa833)" style="fill: none; stroke: #9467bd; stroke-width: 2; stroke-linecap: square"/>
   </g>
   <g id="line2d_19">
    <path d="M 43.792474 238.791193 
L 49.341087 238.791193 
L 51.190625 36.552557 
L 53.040163 53.063441 
L 54.8897 60.868905 
L 56.739238 79.35195 
L 58.588776 71.27336 
L 60.438313 80.292475 
L 62.287851 78.355242 
L 65.986926 91.417402 
L 67.836464 102.484011 
L 69.686001 108.390172 
L 71.535539 107.361415 
L 73.385077 111.603227 
L 75.234614 109.299772 
L 77.084152 115.02578 
L 78.933689 119.744691 
L 80.783227 119.433332 
L 82.632765 122.817044 
L 84.482302 122.59829 
L 86.33184 129.141044 
L 88.181378 134.447384 
L 90.030915 132.245208 
L 91.880453 127.929246 
L 93.72999 135.822755 
L 95.579528 136.209672 
L 97.429066 133.607228 
L 99.278603 141.874255 
L 101.128141 136.642561 
L 102.977679 144.00291 
L 104.827216 135.544871 
L 106.676754 145.125199 
L 108.526291 152.128416 
L 110.375829 144.476855 
L 112.225367 146.882368 
L 114.074904 145.39173 
L 115.924442 149.431788 
L 117.77398 151.221257 
L 119.623517 146.637446 
L 121.473055 152.511934 
L 123.322592 150.977975 
L 125.17213 156.704925 
L 127.021668 153.101899 
L 128.871205 153.663837 
L 130.720743 160.937148 
L 132.570281 158.214875 
L 134.419818 158.696841 
L 136.269356 156.095596 
L 138.118893 155.782946 
L 139.968431 162.658634 
L 141.817969 158.42042 
L 143.667506 157.381163 
L 145.517044 160.098783 
L 147.366582 159.684883 
L 149.216119 165.509957 
L 151.065657 161.05822 
L 152.915195 165.868159 
L 154.764732 166.155272 
L 156.61427 168.324308 
L 158.463807 168.13228 
L 160.313345 164.875856 
L 162.162883 164.721518 
L 164.01242 167.899308 
L 165.861958 170.459474 
L 167.711496 171.483034 
L 169.561033 167.312048 
L 171.410571 170.525946 
L 173.260108 166.749582 
L 175.109646 174.008305 
L 176.959184 171.563818 
L 178.808721 171.694008 
L 180.658259 173.14508 
L 184.357334 175.167649 
L 186.206872 170.215099 
L 188.056409 170.634672 
L 189.905947 177.252478 
L 191.755485 175.660357 
L 193.605022 175.918808 
L 195.45456 175.556845 
L 197.304098 172.773275 
L 199.153635 176.896849 
L 201.003173 177.665317 
L 202.85271 177.142035 
L 204.702248 180.547056 
L 206.551786 178.922093 
L 210.250861 174.380378 
L 212.100399 179.792192 
L 213.949936 175.69832 
L 215.799474 179.559417 
L 217.649011 178.988743 
L 219.498549 179.834619 
L 221.348087 183.013792 
L 223.197624 178.094087 
L 225.047162 182.196469 
L 226.8967 180.085429 
L 228.746237 182.774734 
L 230.595775 183.880819 
L 232.445312 180.07745 
L 234.29485 181.815125 
L 236.144388 182.004059 
L 237.993925 182.881191 
L 239.843463 184.322986 
L 241.693001 181.76032 
L 243.542538 182.057581 
L 245.392076 183.712564 
L 247.241614 182.611292 
L 249.091151 183.100953 
L 250.940689 182.567601 
L 254.639764 185.835758 
L 256.489302 186.475817 
L 258.338839 187.417142 
L 260.188377 185.216726 
L 262.037915 183.275896 
L 263.887452 183.902346 
L 265.73699 180.508735 
L 267.586527 185.237658 
L 269.436065 184.049583 
L 271.285603 189.92258 
L 273.13514 184.761379 
L 274.984678 184.270587 
L 276.834216 185.605238 
L 278.683753 189.825396 
L 280.533291 190.127553 
L 282.382828 185.414078 
L 284.232366 187.696144 
L 286.081904 185.200095 
L 287.931441 187.635958 
L 291.630517 188.449769 
L 293.480054 187.720663 
L 295.329592 187.812239 
L 297.179129 187.474138 
L 299.028667 190.922711 
L 300.878205 188.047322 
L 302.727742 190.413931 
L 304.57728 189.199874 
L 306.426818 190.066745 
L 308.276355 190.179127 
L 310.125893 191.186684 
L 311.97543 190.005493 
L 313.824968 189.339801 
L 315.674506 190.802073 
L 317.524043 192.024997 
L 321.223119 189.686192 
L 323.072656 190.984266 
L 324.922194 190.71336 
L 326.771732 191.45932 
L 328.621269 190.553793 
L 330.470807 192.516251 
L 332.320344 191.046187 
L 334.169882 192.045991 
L 336.01942 190.810932 
L 337.868957 192.319279 
L 339.718495 192.230644 
L 341.568033 192.429001 
L 343.41757 191.537218 
L 345.267108 192.426529 
L 347.116645 195.471987 
L 348.966183 192.4398 
L 350.815721 192.562592 
L 352.665258 193.126032 
L 354.514796 195.773983 
L 356.364334 193.216325 
L 358.213871 196.372076 
L 360.063409 192.953874 
L 361.912946 194.527348 
L 363.762484 192.426814 
L 365.612022 195.82989 
L 367.461559 193.633731 
L 369.311097 195.455059 
L 371.160635 195.586682 
L 373.010172 193.143024 
L 374.85971 193.974915 
L 376.709247 194.05685 
L 378.558785 193.686246 
L 380.408323 197.616639 
L 382.25786 196.642559 
L 384.107398 195.46808 
L 387.806473 197.774916 
L 389.656011 196.716608 
L 391.505548 196.097825 
L 393.355086 198.230696 
L 395.204624 194.875884 
L 397.054161 198.810802 
L 398.903699 195.725798 
L 400.753237 197.138783 
L 402.602774 196.369768 
L 404.452312 197.043763 
L 406.301849 193.985064 
L 408.151387 196.434799 
L 410.000925 193.997514 
L 411.850462 197.261846 
L 411.850462 197.261846 
" clip-path="url(#p0b0cbfa833)" style="fill: none; stroke: #8c564b; stroke-width: 2; stroke-linecap: square"/>
   </g>
   <g id="patch_3">
    <path d="M 51.190625 248.903125 
L 51.190625 26.440625 
" style="fill: none; stroke: #000000; stroke-width: 0.8; stroke-linejoin: miter; stroke-linecap: square"/>
   </g>
   <g id="patch_4">
    <path d="M 413.7 248.903125 
L 413.7 26.440625 
" style="fill: none; stroke: #000000; stroke-width: 0.8; stroke-linejoin: miter; stroke-linecap: square"/>
   </g>
   <g id="patch_5">
    <path d="M 51.190625 248.903125 
L 413.7 248.903125 
" style="fill: none; stroke: #000000; stroke-width: 0.8; stroke-linejoin: miter; stroke-linecap: square"/>
   </g>
   <g id="patch_6">
    <path d="M 51.190625 26.440625 
L 413.7 26.440625 
" style="fill: none; stroke: #000000; stroke-width: 0.8; stroke-linejoin: miter; stroke-linecap: square"/>
   </g>
   <g id="text_16">
    <!-- 讨论不同长度的序列对不稳定性的影响 -->
    <g transform="translate(130.445313 20.440625)scale(0.12 -0.12)">
     <defs>
      <path id="SimHei-8ba8" d="M 4700 3775 
Q 4700 4600 4675 5225 
L 5225 5225 
Q 5200 4625 5200 3775 
Q 5625 3775 6075 3800 
L 6075 3325 
Q 5675 3350 5200 3350 
L 5200 25 
Q 5200 -325 4925 -437 
Q 4650 -550 4150 -600 
Q 4125 -300 3875 25 
Q 4450 0 4575 50 
Q 4700 100 4700 350 
L 4700 3350 
L 3225 3350 
Q 2900 3350 2300 3325 
L 2300 3800 
Q 2875 3775 3175 3775 
L 4700 3775 
z
M 1700 3375 
Q 1675 2925 1675 2400 
L 1675 550 
Q 2000 850 2400 1325 
Q 2550 1025 2725 825 
Q 2375 550 2037 237 
Q 1700 -75 1450 -350 
Q 1225 -100 1025 50 
Q 1200 250 1200 575 
L 1200 2950 
Q 575 2950 300 2925 
L 300 3400 
Q 575 3375 975 3375 
L 1700 3375 
z
M 3025 2750 
Q 3525 2150 3875 1525 
Q 3625 1375 3425 1250 
Q 3150 1850 2625 2475 
Q 2800 2575 3025 2750 
z
M 1250 5250 
Q 1550 4850 1825 4200 
Q 1625 4100 1375 3950 
Q 1175 4500 825 5000 
Q 1000 5100 1250 5250 
z
" transform="scale(0.015625)"/>
      <path id="SimHei-8bba" d="M 3500 1600 
Q 3825 1725 4250 2000 
Q 4675 2275 4975 2575 
Q 5225 2275 5400 2100 
Q 5050 1950 4550 1675 
Q 4050 1400 3500 1150 
L 3500 300 
Q 3500 -100 3800 -100 
L 4825 -100 
Q 5125 -100 5250 137 
Q 5375 375 5375 575 
Q 5675 350 5925 275 
Q 5750 -225 5550 -375 
Q 5350 -525 5100 -525 
L 3550 -525 
Q 3025 -475 3025 0 
L 3025 2175 
Q 3025 2525 3000 2850 
L 3525 2850 
Q 3500 2400 3500 2200 
L 3500 1600 
z
M 4175 4850 
Q 4400 4350 4950 3687 
Q 5500 3025 6175 2700 
Q 5975 2575 5800 2275 
Q 5100 2750 4637 3375 
Q 4175 4000 3950 4425 
Q 3725 3950 3387 3425 
Q 3050 2900 2325 2200 
Q 2175 2375 1950 2575 
Q 2350 2825 2650 3175 
Q 2950 3525 3200 3962 
Q 3450 4400 3575 4725 
Q 3700 5050 3750 5250 
Q 3975 5150 4275 5050 
L 4175 4850 
z
M 1600 3150 
Q 1575 2750 1575 2275 
L 1575 550 
Q 1950 825 2400 1300 
Q 2500 1075 2650 800 
Q 2250 475 1900 187 
Q 1550 -100 1250 -375 
Q 1150 -225 900 50 
Q 1100 250 1100 450 
L 1100 2700 
L 800 2700 
Q 550 2700 275 2675 
L 275 3175 
Q 550 3150 800 3150 
L 1600 3150 
z
M 975 5000 
Q 1550 4525 2125 4025 
Q 1950 3875 1750 3650 
Q 1325 4150 650 4650 
Q 825 4800 975 5000 
z
" transform="scale(0.015625)"/>
      <path id="SimHei-4e0d" d="M 5975 4450 
Q 5525 4475 5200 4475 
L 3725 4475 
Q 3550 4125 3300 3700 
L 3300 575 
Q 3300 75 3325 -550 
L 2775 -550 
Q 2800 50 2800 575 
L 2800 3025 
Q 2025 1950 700 1050 
Q 500 1350 325 1475 
Q 825 1700 1650 2437 
Q 2475 3175 3175 4475 
L 1525 4475 
Q 1050 4475 525 4450 
L 525 4950 
Q 1275 4925 1675 4925 
L 5175 4925 
Q 5500 4925 5975 4950 
L 5975 4450 
z
M 5450 1125 
Q 4975 1725 3750 2975 
Q 3950 3150 4075 3325 
Q 4675 2775 5100 2362 
Q 5525 1950 5900 1550 
Q 5650 1350 5450 1125 
z
" transform="scale(0.015625)"/>
      <path id="SimHei-540c" d="M 5825 4925 
Q 5775 4550 5775 3975 
L 5775 -50 
Q 5775 -400 5525 -487 
Q 5275 -575 4725 -625 
Q 4725 -400 4525 -50 
Q 4925 -50 5100 -12 
Q 5275 25 5275 200 
L 5275 4450 
L 1150 4450 
L 1150 -600 
L 575 -600 
Q 600 -250 625 200 
L 625 3975 
Q 625 4575 600 4925 
L 5825 4925 
z
M 4375 2550 
Q 4325 2275 4325 1700 
Q 4325 1150 4375 725 
L 2025 725 
Q 2050 1175 2050 1750 
Q 2050 2325 2025 2550 
L 4375 2550 
z
M 4100 3750 
Q 4600 3750 4825 3775 
L 4825 3275 
Q 4575 3300 4075 3300 
L 2450 3300 
Q 1850 3300 1600 3275 
L 1600 3775 
Q 1875 3750 2475 3750 
L 4100 3750 
z
M 3875 1150 
L 3875 2150 
L 2525 2150 
L 2525 1150 
L 3875 1150 
z
" transform="scale(0.015625)"/>
      <path id="SimHei-7684" d="M 2100 4975 
Q 1975 4750 1750 3950 
L 2875 3950 
Q 2850 3525 2850 2875 
L 2850 675 
Q 2850 300 2875 -400 
L 2375 -400 
L 2375 100 
L 1100 100 
L 1100 -450 
L 600 -450 
Q 625 350 625 550 
L 625 2850 
Q 625 3525 600 3950 
L 1325 3950 
Q 1450 4525 1525 5150 
Q 1875 5025 2100 4975 
z
M 5825 3075 
Q 5800 1550 5700 175 
Q 5650 -275 5225 -425 
Q 4800 -575 4275 -625 
Q 4250 -350 4050 -50 
Q 4550 -75 4837 -25 
Q 5125 25 5200 200 
Q 5275 375 5312 1225 
Q 5350 2075 5375 3600 
L 3925 3600 
Q 3725 3125 3350 2475 
Q 3175 2650 2925 2750 
Q 3150 3050 3350 3475 
Q 3550 3900 3700 4400 
Q 3850 4900 3875 5175 
Q 4225 5025 4475 4950 
Q 4350 4750 4262 4512 
Q 4175 4275 4075 4050 
L 5850 4050 
Q 5825 3525 5825 3075 
z
M 2375 525 
L 2375 1850 
L 1100 1850 
L 1100 525 
L 2375 525 
z
M 2375 2275 
L 2375 3525 
L 1100 3525 
L 1100 2275 
L 2375 2275 
z
M 4350 2050 
Q 4500 1750 4700 1275 
Q 4525 1200 4225 1025 
Q 4050 1500 3900 1837 
Q 3750 2175 3600 2400 
Q 3775 2500 4050 2650 
L 4350 2050 
z
" transform="scale(0.015625)"/>
      <path id="SimHei-5bf9" d="M 525 4250 
Q 900 4225 1400 4225 
L 2825 4225 
Q 2575 2625 2200 1750 
Q 2825 875 3125 400 
Q 2950 275 2725 75 
Q 2200 975 1950 1300 
Q 1650 775 1350 425 
Q 1050 75 600 -350 
Q 425 -125 200 -25 
Q 625 275 975 675 
Q 1325 1075 1650 1700 
Q 1050 2425 550 2900 
Q 700 3025 900 3225 
Q 1625 2425 1875 2150 
Q 2200 3050 2300 3825 
L 1400 3825 
Q 900 3825 525 3800 
L 525 4250 
z
M 2925 3700 
Q 3525 3675 3750 3675 
L 4825 3675 
L 4825 4425 
Q 4825 4750 4775 5125 
L 5350 5125 
Q 5325 4825 5325 4375 
L 5325 3675 
Q 5575 3675 6150 3700 
L 6150 3250 
Q 5575 3275 5325 3275 
L 5325 125 
Q 5350 -350 5012 -475 
Q 4675 -600 4250 -650 
Q 4175 -350 4025 -100 
Q 4575 -100 4712 -37 
Q 4850 25 4825 325 
L 4825 3275 
L 3775 3275 
Q 3550 3275 2925 3225 
L 2925 3700 
z
M 3450 2725 
Q 3875 1975 4175 1325 
Q 3850 1200 3700 1075 
Q 3475 1750 3050 2475 
Q 3225 2550 3450 2725 
z
" transform="scale(0.015625)"/>
      <path id="SimHei-7a33" d="M 4050 5125 
Q 3875 4975 3675 4625 
L 5325 4625 
Q 5200 4450 5062 4212 
Q 4925 3975 4800 3650 
L 5625 3650 
Q 5600 3350 5600 2600 
Q 5600 1875 5625 1425 
L 3425 1425 
Q 3075 1425 2750 1400 
L 2750 1850 
Q 3075 1825 3450 1825 
L 5100 1825 
L 5100 2375 
L 3550 2375 
Q 3175 2375 2875 2350 
L 2875 2775 
Q 3175 2750 3525 2750 
L 5100 2750 
L 5100 3275 
L 3775 3275 
Q 3350 3275 3050 3250 
L 3050 3650 
Q 2875 3425 2725 3200 
Q 2525 3400 2350 3475 
Q 2675 3875 2987 4412 
Q 3300 4950 3400 5300 
Q 3725 5200 4050 5125 
z
M 2500 4575 
Q 2275 4575 2012 4512 
Q 1750 4450 1625 4450 
L 1625 3350 
Q 1975 3350 2375 3375 
L 2375 2950 
Q 1925 2975 1625 2975 
L 1625 2225 
Q 1775 2325 1950 2500 
Q 2225 2100 2525 1600 
Q 2300 1500 2150 1350 
Q 1950 1725 1625 2175 
L 1625 400 
Q 1625 25 1650 -625 
L 1150 -625 
Q 1200 25 1200 400 
L 1200 2075 
Q 875 1250 475 650 
Q 375 925 175 1125 
Q 325 1250 650 1887 
Q 975 2525 1050 2975 
Q 750 2975 275 2950 
L 275 3375 
Q 750 3350 1200 3350 
L 1200 4325 
Q 950 4275 550 4200 
Q 475 4425 275 4625 
Q 750 4675 1237 4775 
Q 1725 4875 2125 5075 
Q 2275 4775 2500 4575 
z
M 3675 1025 
Q 3650 700 3650 300 
Q 3650 -75 3775 -100 
Q 3900 -125 4250 -125 
Q 4600 -125 4687 -100 
Q 4775 -75 4825 425 
Q 5025 275 5350 200 
Q 5150 -450 4950 -500 
Q 4750 -550 4175 -550 
Q 3625 -550 3425 -487 
Q 3225 -425 3225 -100 
L 3225 525 
Q 3225 775 3200 1025 
L 3675 1025 
z
M 3050 3675 
Q 3325 3650 3775 3650 
L 4275 3650 
Q 4450 4000 4575 4275 
L 3425 4275 
Q 3275 4050 3050 3675 
z
M 2925 900 
Q 2800 725 2700 287 
Q 2600 -150 2550 -300 
Q 2325 -200 2075 -175 
Q 2225 200 2275 412 
Q 2325 625 2425 1000 
L 2925 900 
z
M 5575 1100 
Q 5950 475 6175 50 
Q 5950 -25 5750 -175 
Q 5625 175 5200 925 
Q 5425 975 5575 1100 
z
M 4225 1300 
Q 4525 825 4625 525 
Q 4550 500 4250 350 
Q 4150 700 3850 1125 
Q 4050 1200 4225 1300 
z
" transform="scale(0.015625)"/>
      <path id="SimHei-5b9a" d="M 4200 3125 
Q 4675 3125 5175 3150 
L 5175 2675 
Q 4725 2700 4100 2700 
L 3550 2700 
L 3550 1700 
L 4600 1700 
Q 4875 1700 5375 1725 
L 5375 1250 
Q 4875 1275 4575 1275 
L 3550 1275 
L 3550 100 
Q 4600 -25 6050 125 
Q 5850 -200 5800 -475 
Q 4800 -475 4150 -450 
Q 3500 -425 3050 -300 
Q 2600 -175 2250 75 
Q 1900 325 1600 675 
Q 1200 -50 675 -575 
Q 450 -350 175 -250 
Q 875 300 1200 1050 
Q 1525 1800 1550 2200 
Q 1800 2050 2150 1975 
Q 2075 1875 1987 1662 
Q 1900 1450 1775 1125 
Q 1950 900 2300 612 
Q 2650 325 3050 200 
L 3050 2700 
L 2250 2700 
Q 1825 2700 1400 2675 
L 1400 3150 
Q 1825 3125 2400 3125 
L 4200 3125 
z
M 5750 4275 
Q 5725 3925 5725 3750 
Q 5725 3575 5750 3275 
L 5225 3275 
L 5225 3875 
L 1225 3875 
L 1225 3275 
L 700 3275 
Q 725 3475 725 3725 
Q 725 3975 700 4275 
L 5750 4275 
z
M 2650 5050 
Q 2875 5125 3100 5300 
Q 3375 4975 3600 4550 
Q 3250 4400 3100 4300 
Q 3050 4525 2650 5050 
z
" transform="scale(0.015625)"/>
      <path id="SimHei-6027" d="M 3450 4525 
Q 3325 4075 3275 3750 
L 4050 3750 
L 4050 4275 
Q 4050 4700 4025 5100 
L 4550 5100 
Q 4525 4700 4525 4275 
L 4525 3750 
L 5025 3750 
Q 5350 3750 5800 3775 
L 5800 3300 
Q 5350 3325 5025 3325 
L 4525 3325 
L 4525 2000 
L 4975 2000 
Q 5350 2000 5725 2025 
L 5725 1550 
Q 5350 1575 4975 1575 
L 4525 1575 
L 4525 25 
L 5200 25 
Q 5625 25 6025 50 
L 6025 -400 
Q 5625 -375 5200 -375 
L 3275 -375 
Q 2825 -375 2400 -400 
L 2400 50 
Q 2825 25 3250 25 
L 4050 25 
L 4050 1575 
L 3625 1575 
Q 3300 1575 2875 1550 
L 2875 2025 
Q 3200 2000 3625 2000 
L 4050 2000 
L 4050 3325 
L 3175 3325 
Q 3100 2950 2775 2225 
Q 2500 2375 2325 2400 
Q 2675 3125 2775 3650 
Q 2875 4175 2950 4650 
Q 3200 4575 3450 4525 
z
M 1700 5150 
Q 1675 4650 1675 4175 
L 1675 425 
Q 1675 -100 1700 -625 
L 1175 -625 
Q 1200 -100 1200 425 
L 1200 4175 
Q 1200 4700 1175 5150 
L 1700 5150 
z
M 975 3725 
Q 825 2675 700 2150 
Q 450 2200 250 2250 
Q 425 2900 525 3800 
Q 725 3775 975 3725 
z
M 2125 4025 
Q 2325 3625 2525 3000 
Q 2300 2925 2125 2825 
Q 1950 3375 1750 3850 
Q 1950 3950 2125 4025 
z
" transform="scale(0.015625)"/>
      <path id="SimHei-5f71" d="M 3550 5025 
Q 3500 4625 3512 4187 
Q 3525 3750 3550 3325 
L 775 3325 
Q 800 3750 787 4187 
Q 775 4625 775 5025 
L 3550 5025 
z
M 1450 -100 
Q 2050 -75 1975 200 
L 1975 1100 
L 775 1100 
Q 800 1375 787 1650 
Q 775 1925 775 2225 
L 3550 2225 
Q 3525 1925 3512 1650 
Q 3500 1375 3550 1100 
L 2475 1100 
L 2475 175 
Q 2500 -250 2300 -375 
Q 2100 -500 1625 -600 
Q 1575 -325 1450 -100 
z
M 2375 3250 
Q 2400 3075 2425 2875 
L 3175 2875 
Q 3600 2875 4050 2900 
L 4050 2475 
Q 3600 2500 3175 2500 
L 1200 2500 
Q 700 2500 275 2475 
L 275 2900 
Q 700 2875 1200 2875 
L 1900 2875 
Q 1875 3025 1850 3200 
Q 2100 3250 2375 3250 
z
M 6150 1350 
Q 5675 775 5000 225 
Q 4325 -325 3725 -650 
Q 3575 -400 3400 -250 
Q 3975 25 4600 500 
Q 5225 975 5775 1725 
Q 5950 1525 6150 1350 
z
M 5925 3125 
Q 5625 2850 5212 2362 
Q 4800 1875 4200 1425 
Q 4025 1625 3800 1725 
Q 4375 2050 4787 2525 
Q 5200 3000 5525 3500 
Q 5675 3325 5925 3125 
z
M 5725 4825 
Q 5325 4550 5037 4162 
Q 4750 3775 4175 3275 
Q 3975 3450 3800 3550 
Q 4175 3825 4550 4237 
Q 4925 4650 5225 5175 
Q 5425 5000 5725 4825 
z
M 3075 1475 
L 3075 1850 
L 1250 1850 
L 1250 1475 
L 3075 1475 
z
M 3075 3700 
L 3075 4000 
L 1250 4000 
L 1250 3700 
L 3075 3700 
z
M 3075 4375 
L 3075 4675 
L 1250 4675 
L 1250 4375 
L 3075 4375 
z
M 1500 500 
Q 1075 75 575 -325 
Q 475 -175 275 -25 
Q 700 250 1125 825 
Q 1300 625 1500 500 
z
M 3250 -50 
Q 3050 275 2750 550 
Q 2900 700 3075 850 
Q 3400 525 3600 250 
L 3250 -50 
z
" transform="scale(0.015625)"/>
      <path id="SimHei-54cd" d="M 4150 5125 
Q 4000 4975 3850 4325 
L 5875 4325 
Q 5850 3800 5850 3325 
L 5850 50 
Q 5825 -225 5625 -350 
Q 5425 -475 4850 -550 
Q 4850 -325 4600 25 
Q 5125 25 5237 62 
Q 5350 100 5350 225 
L 5350 3950 
L 2950 3950 
L 2950 -575 
L 2450 -575 
Q 2475 -75 2475 450 
L 2475 3125 
Q 2475 3750 2450 4325 
L 3350 4325 
Q 3475 4775 3525 5250 
Q 3950 5150 4150 5125 
z
M 4875 900 
L 3425 900 
L 3425 3100 
L 4875 3100 
L 4875 900 
z
M 4450 1275 
L 4450 2700 
L 3875 2700 
L 3875 1275 
L 4450 1275 
z
M 2075 4500 
Q 2050 3975 2050 3425 
L 2050 1750 
Q 2050 1250 2075 600 
L 1650 600 
L 1650 1050 
L 950 1050 
L 950 275 
L 500 275 
Q 525 750 525 1275 
L 525 3425 
Q 525 3975 500 4500 
L 2075 4500 
z
M 1650 1400 
L 1650 4125 
L 950 4125 
L 950 1400 
L 1650 1400 
z
" transform="scale(0.015625)"/>
     </defs>
     <use xlink:href="#SimHei-8ba8"/>
     <use xlink:href="#SimHei-8bba" x="100"/>
     <use xlink:href="#SimHei-4e0d" x="200"/>
     <use xlink:href="#SimHei-540c" x="300"/>
     <use xlink:href="#SimHei-957f" x="400"/>
     <use xlink:href="#SimHei-5ea6" x="500"/>
     <use xlink:href="#SimHei-7684" x="600"/>
     <use xlink:href="#SimHei-5e8f" x="700"/>
     <use xlink:href="#SimHei-5217" x="800"/>
     <use xlink:href="#SimHei-5bf9" x="900"/>
     <use xlink:href="#SimHei-4e0d" x="1000"/>
     <use xlink:href="#SimHei-7a33" x="1100"/>
     <use xlink:href="#SimHei-5b9a" x="1200"/>
     <use xlink:href="#SimHei-6027" x="1300"/>
     <use xlink:href="#SimHei-7684" x="1400"/>
     <use xlink:href="#SimHei-5f71" x="1500"/>
     <use xlink:href="#SimHei-54cd" x="1600"/>
    </g>
   </g>
   <g id="legend_1">
    <g id="patch_7">
     <path d="M 309.7 114.096875 
L 406.7 114.096875 
Q 408.7 114.096875 408.7 112.096875 
L 408.7 33.440625 
Q 408.7 31.440625 406.7 31.440625 
L 309.7 31.440625 
Q 307.7 31.440625 307.7 33.440625 
L 307.7 112.096875 
Q 307.7 114.096875 309.7 114.096875 
z
" style="fill: #ffffff; opacity: 0.8; stroke: #cccccc; stroke-linejoin: miter"/>
    </g>
    <g id="line2d_20">
     <path d="M 311.7 38.940625 
L 321.7 38.940625 
L 331.7 38.940625 
" style="fill: none; stroke: #1f77b4; stroke-width: 2; stroke-linecap: square"/>
    </g>
    <g id="text_17">
     <!-- EU -->
     <g transform="translate(339.7 42.440625)scale(0.1 -0.1)">
      <defs>
       <path id="SimHei-45" d="M 2900 125 
L 350 125 
L 350 4400 
L 2775 4400 
L 2775 3925 
L 925 3925 
L 925 2600 
L 2625 2600 
L 2625 2125 
L 925 2125 
L 925 600 
L 2900 600 
L 2900 125 
z
" transform="scale(0.015625)"/>
       <path id="SimHei-55" d="M 2875 1375 
Q 2875 775 2562 425 
Q 2250 75 1575 75 
Q 900 75 587 425 
Q 275 775 275 1375 
L 275 4400 
L 850 4400 
L 850 1375 
Q 850 950 1050 750 
Q 1250 550 1575 550 
Q 1900 550 2100 750 
Q 2300 950 2300 1375 
L 2300 4400 
L 2875 4400 
L 2875 1375 
z
" transform="scale(0.015625)"/>
      </defs>
      <use xlink:href="#SimHei-45"/>
      <use xlink:href="#SimHei-55" x="50"/>
     </g>
    </g>
    <g id="line2d_21">
     <path d="M 311.7 52.190625 
L 321.7 52.190625 
L 331.7 52.190625 
" style="fill: none; stroke: #ff7f0e; stroke-width: 3; stroke-linecap: square"/>
    </g>
    <g id="text_18">
     <!-- VGaDis -->
     <g transform="translate(339.7 55.690625)scale(0.1 -0.1)">
      <defs>
       <path id="SimHei-56" d="M 3050 4400 
L 1800 75 
L 1300 75 
L 50 4400 
L 650 4400 
L 1525 1125 
L 1575 1125 
L 2450 4400 
L 3050 4400 
z
" transform="scale(0.015625)"/>
       <path id="SimHei-47" d="M 2850 75 
L 2425 75 
L 2350 425 
Q 2250 275 2037 175 
Q 1825 75 1575 75 
Q 1050 75 637 562 
Q 225 1050 225 2125 
Q 225 3300 600 3875 
Q 975 4450 1625 4450 
Q 2200 4450 2525 4025 
Q 2850 3600 2850 2925 
L 2300 2925 
Q 2300 3450 2125 3712 
Q 1950 3975 1625 3975 
Q 1225 3975 1025 3562 
Q 825 3150 825 2175 
Q 825 1250 1075 900 
Q 1325 550 1650 550 
Q 1975 550 2162 787 
Q 2350 1025 2350 1525 
L 2350 1800 
L 1575 1800 
L 1575 2275 
L 2850 2275 
L 2850 75 
z
" transform="scale(0.015625)"/>
       <path id="SimHei-44" d="M 2925 2250 
Q 2925 1100 2437 612 
Q 1950 125 1125 125 
L 275 125 
L 275 4400 
L 1125 4400 
Q 2050 4400 2487 3900 
Q 2925 3400 2925 2250 
z
M 2325 2250 
Q 2325 3175 2025 3550 
Q 1725 3925 1125 3925 
L 850 3925 
L 850 600 
L 1125 600 
Q 1725 600 2025 962 
Q 2325 1325 2325 2250 
z
" transform="scale(0.015625)"/>
      </defs>
      <use xlink:href="#SimHei-56"/>
      <use xlink:href="#SimHei-47" x="50"/>
      <use xlink:href="#SimHei-61" x="100"/>
      <use xlink:href="#SimHei-44" x="150"/>
      <use xlink:href="#SimHei-69" x="200"/>
      <use xlink:href="#SimHei-73" x="250"/>
     </g>
    </g>
    <g id="line2d_22">
     <path d="M 311.7 65.440625 
L 321.7 65.440625 
L 331.7 65.440625 
" style="fill: none; stroke: #2ca02c; stroke-width: 2; stroke-linecap: square"/>
    </g>
    <g id="text_19">
     <!-- Manhattan -->
     <g transform="translate(339.7 68.940625)scale(0.1 -0.1)">
      <defs>
       <path id="SimHei-4d" d="M 2925 125 
L 2425 125 
L 2425 3175 
L 2375 3175 
L 1775 125 
L 1375 125 
L 775 3175 
L 725 3175 
L 725 125 
L 225 125 
L 225 4400 
L 1000 4400 
L 1550 1575 
L 1600 1575 
L 2150 4400 
L 2925 4400 
L 2925 125 
z
" transform="scale(0.015625)"/>
       <path id="SimHei-6e" d="M 2800 125 
L 2300 125 
L 2300 1925 
Q 2300 2225 2150 2400 
Q 2000 2575 1750 2575 
Q 1425 2575 1137 2237 
Q 850 1900 850 1400 
L 850 125 
L 350 125 
L 350 2925 
L 850 2925 
L 850 2400 
Q 1050 2675 1287 2825 
Q 1525 2975 1900 2975 
Q 2350 2975 2575 2725 
Q 2800 2475 2800 2100 
L 2800 125 
z
" transform="scale(0.015625)"/>
       <path id="SimHei-68" d="M 2800 125 
L 2300 125 
L 2300 1925 
Q 2300 2225 2150 2400 
Q 2000 2575 1750 2575 
Q 1425 2575 1137 2237 
Q 850 1900 850 1400 
L 850 125 
L 350 125 
L 350 4400 
L 850 4400 
L 850 2400 
Q 1050 2675 1287 2825 
Q 1525 2975 1900 2975 
Q 2350 2975 2575 2725 
Q 2800 2475 2800 2100 
L 2800 125 
z
" transform="scale(0.015625)"/>
       <path id="SimHei-74" d="M 2750 200 
Q 2625 150 2462 112 
Q 2300 75 2025 75 
Q 1575 75 1300 325 
Q 1025 575 1025 1025 
L 1025 2525 
L 175 2525 
L 175 2925 
L 1025 2925 
L 1025 3900 
L 1525 3900 
L 1525 2925 
L 2550 2925 
L 2550 2525 
L 1525 2525 
L 1525 1000 
Q 1525 800 1625 662 
Q 1725 525 2000 525 
Q 2275 525 2450 575 
Q 2625 625 2750 700 
L 2750 200 
z
" transform="scale(0.015625)"/>
      </defs>
      <use xlink:href="#SimHei-4d"/>
      <use xlink:href="#SimHei-61" x="50"/>
      <use xlink:href="#SimHei-6e" x="100"/>
      <use xlink:href="#SimHei-68" x="150"/>
      <use xlink:href="#SimHei-61" x="200"/>
      <use xlink:href="#SimHei-74" x="250"/>
      <use xlink:href="#SimHei-74" x="300"/>
      <use xlink:href="#SimHei-61" x="350"/>
      <use xlink:href="#SimHei-6e" x="400"/>
     </g>
    </g>
    <g id="line2d_23">
     <path d="M 311.7 78.690625 
L 321.7 78.690625 
L 331.7 78.690625 
" style="fill: none; stroke: #d62728; stroke-width: 2; stroke-linecap: square"/>
    </g>
    <g id="text_20">
     <!-- VGdDis -->
     <g transform="translate(339.7 82.190625)scale(0.1 -0.1)">
      <use xlink:href="#SimHei-56"/>
      <use xlink:href="#SimHei-47" x="50"/>
      <use xlink:href="#SimHei-64" x="100"/>
      <use xlink:href="#SimHei-44" x="150"/>
      <use xlink:href="#SimHei-69" x="200"/>
      <use xlink:href="#SimHei-73" x="250"/>
     </g>
    </g>
    <g id="line2d_24">
     <path d="M 311.7 91.940625 
L 321.7 91.940625 
L 331.7 91.940625 
" style="fill: none; stroke: #9467bd; stroke-width: 2; stroke-linecap: square"/>
    </g>
    <g id="text_21">
     <!-- dtw_Manhattan -->
     <g transform="translate(339.7 95.440625)scale(0.1 -0.1)">
      <defs>
       <path id="SimHei-77" d="M 3075 2925 
L 2450 75 
L 1975 75 
L 1575 2250 
L 1525 2250 
L 1125 75 
L 650 75 
L 25 2925 
L 550 2925 
L 875 1050 
L 925 1050 
L 1275 2925 
L 1825 2925 
L 2175 1050 
L 2225 1050 
L 2550 2925 
L 3075 2925 
z
" transform="scale(0.015625)"/>
       <path id="SimHei-5f" d="M 3150 -850 
L 0 -850 
L 0 -550 
L 3150 -550 
L 3150 -850 
z
" transform="scale(0.015625)"/>
      </defs>
      <use xlink:href="#SimHei-64"/>
      <use xlink:href="#SimHei-74" x="50"/>
      <use xlink:href="#SimHei-77" x="100"/>
      <use xlink:href="#SimHei-5f" x="150"/>
      <use xlink:href="#SimHei-4d" x="200"/>
      <use xlink:href="#SimHei-61" x="250"/>
      <use xlink:href="#SimHei-6e" x="300"/>
      <use xlink:href="#SimHei-68" x="350"/>
      <use xlink:href="#SimHei-61" x="400"/>
      <use xlink:href="#SimHei-74" x="450"/>
      <use xlink:href="#SimHei-74" x="500"/>
      <use xlink:href="#SimHei-61" x="550"/>
      <use xlink:href="#SimHei-6e" x="600"/>
     </g>
    </g>
    <g id="line2d_25">
     <path d="M 311.7 105.26875 
L 321.7 105.26875 
L 331.7 105.26875 
" style="fill: none; stroke: #8c564b; stroke-width: 2; stroke-linecap: square"/>
    </g>
    <g id="text_22">
     <!-- dtw_EU -->
     <g transform="translate(339.7 108.76875)scale(0.1 -0.1)">
      <use xlink:href="#SimHei-64"/>
      <use xlink:href="#SimHei-74" x="50"/>
      <use xlink:href="#SimHei-77" x="100"/>
      <use xlink:href="#SimHei-5f" x="150"/>
      <use xlink:href="#SimHei-45" x="200"/>
      <use xlink:href="#SimHei-55" x="250"/>
     </g>
    </g>
   </g>
  </g>
 </g>
 <defs>
  <clipPath id="p0b0cbfa833">
   <rect x="51.190625" y="26.440625" width="362.509375" height="222.4625"/>
  </clipPath>
 </defs>
</svg>
