<?xml version="1.0" encoding="utf-8" standalone="no"?>
<!DOCTYPE svg PUBLIC "-//W3C//DTD SVG 1.1//EN"
  "http://www.w3.org/Graphics/SVG/1.1/DTD/svg11.dtd">
<svg xmlns:xlink="http://www.w3.org/1999/xlink" width="432pt" height="288pt" viewBox="0 0 432 288" xmlns="http://www.w3.org/2000/svg" version="1.1">
 <metadata>
  <rdf:RDF xmlns:dc="http://purl.org/dc/elements/1.1/" xmlns:cc="http://creativecommons.org/ns#" xmlns:rdf="http://www.w3.org/1999/02/22-rdf-syntax-ns#">
   <cc:Work>
    <dc:type rdf:resource="http://purl.org/dc/dcmitype/StillImage"/>
    <dc:date>2023-05-28T21:54:57.049250</dc:date>
    <dc:format>image/svg+xml</dc:format>
    <dc:creator>
     <cc:Agent>
      <dc:title>Matplotlib v3.5.2, https://matplotlib.org/</dc:title>
     </cc:Agent>
    </dc:creator>
   </cc:Work>
  </rdf:RDF>
 </metadata>
 <defs>
  <style type="text/css">*{stroke-linejoin: round; stroke-linecap: butt}</style>
 </defs>
 <g id="figure_1">
  <g id="patch_1">
   <path d="M 0 288 
L 432 288 
L 432 0 
L 0 0 
L 0 288 
z
" style="fill: none"/>
  </g>
  <g id="axes_1">
   <g id="patch_2">
    <path d="M 51.190625 248.903125 
L 413.7 248.903125 
L 413.7 26.440625 
L 51.190625 26.440625 
z
" style="fill: #ffffff"/>
   </g>
   <g id="matplotlib.axis_1">
    <g id="xtick_1">
     <g id="line2d_1">
      <defs>
       <path id="m11ed670363" d="M 0 0 
L 0 3.5 
" style="stroke: #000000; stroke-width: 0.8"/>
      </defs>
      <g>
       <use xlink:href="#m11ed670363" x="90.030915" y="248.903125" style="stroke: #000000; stroke-width: 0.8"/>
      </g>
     </g>
     <g id="text_1">
      <!-- 25 -->
      <g transform="translate(85.030915 262.778125)scale(0.1 -0.1)">
       <defs>
        <path id="SimHei-32" d="M 300 250 
Q 325 625 650 925 
Q 975 1225 1475 1862 
Q 1975 2500 2125 2850 
Q 2275 3200 2237 3450 
Q 2200 3700 2000 3862 
Q 1800 4025 1537 4000 
Q 1275 3975 1037 3800 
Q 800 3625 675 3275 
L 200 3350 
Q 400 3925 712 4187 
Q 1025 4450 1450 4475 
Q 1700 4500 1900 4462 
Q 2100 4425 2312 4287 
Q 2525 4150 2662 3875 
Q 2800 3600 2762 3212 
Q 2725 2825 2375 2287 
Q 2025 1750 1025 600 
L 2825 600 
L 2825 150 
L 300 150 
L 300 250 
z
" transform="scale(0.015625)"/>
        <path id="SimHei-35" d="M 550 1325 
Q 725 650 1150 575 
Q 1575 500 1837 662 
Q 2100 825 2212 1087 
Q 2325 1350 2312 1675 
Q 2300 2000 2137 2225 
Q 1975 2450 1725 2525 
Q 1475 2600 1162 2525 
Q 850 2450 650 2175 
L 225 2225 
Q 275 2375 700 4375 
L 2675 4375 
L 2675 3925 
L 1075 3925 
Q 950 3250 825 2850 
Q 1200 3025 1525 3012 
Q 1850 3000 2150 2862 
Q 2450 2725 2587 2487 
Q 2725 2250 2787 2012 
Q 2850 1775 2837 1500 
Q 2825 1225 2725 937 
Q 2625 650 2425 462 
Q 2225 275 1937 162 
Q 1650 50 1275 75 
Q 900 100 562 350 
Q 225 600 100 1200 
L 550 1325 
z
" transform="scale(0.015625)"/>
       </defs>
       <use xlink:href="#SimHei-32"/>
       <use xlink:href="#SimHei-35" x="50"/>
      </g>
     </g>
    </g>
    <g id="xtick_2">
     <g id="line2d_2">
      <g>
       <use xlink:href="#m11ed670363" x="136.269356" y="248.903125" style="stroke: #000000; stroke-width: 0.8"/>
      </g>
     </g>
     <g id="text_2">
      <!-- 50 -->
      <g transform="translate(131.269356 262.778125)scale(0.1 -0.1)">
       <defs>
        <path id="SimHei-30" d="M 225 2537 
Q 250 3200 412 3587 
Q 575 3975 875 4225 
Q 1175 4475 1612 4475 
Q 2050 4475 2375 4112 
Q 2700 3750 2800 3200 
Q 2900 2650 2862 1937 
Q 2825 1225 2612 775 
Q 2400 325 1975 150 
Q 1550 -25 1125 187 
Q 700 400 525 750 
Q 350 1100 275 1487 
Q 200 1875 225 2537 
z
M 750 2687 
Q 675 2000 800 1462 
Q 925 925 1212 700 
Q 1500 475 1800 612 
Q 2100 750 2237 1162 
Q 2375 1575 2375 2062 
Q 2375 2550 2337 2950 
Q 2300 3350 2112 3675 
Q 1925 4000 1612 4012 
Q 1300 4025 1062 3700 
Q 825 3375 750 2687 
z
" transform="scale(0.015625)"/>
       </defs>
       <use xlink:href="#SimHei-35"/>
       <use xlink:href="#SimHei-30" x="50"/>
      </g>
     </g>
    </g>
    <g id="xtick_3">
     <g id="line2d_3">
      <g>
       <use xlink:href="#m11ed670363" x="182.507797" y="248.903125" style="stroke: #000000; stroke-width: 0.8"/>
      </g>
     </g>
     <g id="text_3">
      <!-- 75 -->
      <g transform="translate(177.507797 262.778125)scale(0.1 -0.1)">
       <defs>
        <path id="SimHei-37" d="M 850 150 
Q 1300 2050 2425 3925 
L 275 3925 
L 275 4375 
L 2950 4375 
L 2950 3950 
Q 1775 2050 1400 150 
L 850 150 
z
" transform="scale(0.015625)"/>
       </defs>
       <use xlink:href="#SimHei-37"/>
       <use xlink:href="#SimHei-35" x="50"/>
      </g>
     </g>
    </g>
    <g id="xtick_4">
     <g id="line2d_4">
      <g>
       <use xlink:href="#m11ed670363" x="228.746237" y="248.903125" style="stroke: #000000; stroke-width: 0.8"/>
      </g>
     </g>
     <g id="text_4">
      <!-- 100 -->
      <g transform="translate(221.246237 262.778125)scale(0.1 -0.1)">
       <defs>
        <path id="SimHei-31" d="M 1400 3600 
Q 1075 3275 575 2975 
L 575 3450 
Q 1200 3875 1600 4450 
L 1900 4450 
L 1900 150 
L 1400 150 
L 1400 3600 
z
" transform="scale(0.015625)"/>
       </defs>
       <use xlink:href="#SimHei-31"/>
       <use xlink:href="#SimHei-30" x="50"/>
       <use xlink:href="#SimHei-30" x="100"/>
      </g>
     </g>
    </g>
    <g id="xtick_5">
     <g id="line2d_5">
      <g>
       <use xlink:href="#m11ed670363" x="274.984678" y="248.903125" style="stroke: #000000; stroke-width: 0.8"/>
      </g>
     </g>
     <g id="text_5">
      <!-- 125 -->
      <g transform="translate(267.484678 262.778125)scale(0.1 -0.1)">
       <use xlink:href="#SimHei-31"/>
       <use xlink:href="#SimHei-32" x="50"/>
       <use xlink:href="#SimHei-35" x="100"/>
      </g>
     </g>
    </g>
    <g id="xtick_6">
     <g id="line2d_6">
      <g>
       <use xlink:href="#m11ed670363" x="321.223119" y="248.903125" style="stroke: #000000; stroke-width: 0.8"/>
      </g>
     </g>
     <g id="text_6">
      <!-- 150 -->
      <g transform="translate(313.723119 262.778125)scale(0.1 -0.1)">
       <use xlink:href="#SimHei-31"/>
       <use xlink:href="#SimHei-35" x="50"/>
       <use xlink:href="#SimHei-30" x="100"/>
      </g>
     </g>
    </g>
    <g id="xtick_7">
     <g id="line2d_7">
      <g>
       <use xlink:href="#m11ed670363" x="367.461559" y="248.903125" style="stroke: #000000; stroke-width: 0.8"/>
      </g>
     </g>
     <g id="text_7">
      <!-- 175 -->
      <g transform="translate(359.961559 262.778125)scale(0.1 -0.1)">
       <use xlink:href="#SimHei-31"/>
       <use xlink:href="#SimHei-37" x="50"/>
       <use xlink:href="#SimHei-35" x="100"/>
      </g>
     </g>
    </g>
    <g id="xtick_8">
     <g id="line2d_8">
      <g>
       <use xlink:href="#m11ed670363" x="413.7" y="248.903125" style="stroke: #000000; stroke-width: 0.8"/>
      </g>
     </g>
     <g id="text_8">
      <!-- 200 -->
      <g transform="translate(406.2 262.778125)scale(0.1 -0.1)">
       <use xlink:href="#SimHei-32"/>
       <use xlink:href="#SimHei-30" x="50"/>
       <use xlink:href="#SimHei-30" x="100"/>
      </g>
     </g>
    </g>
    <g id="text_9">
     <!-- 序列长度 -->
     <g transform="translate(212.445313 276.075)scale(0.1 -0.1)">
      <defs>
       <path id="SimHei-5e8f" d="M 4000 2075 
L 5975 2075 
Q 5750 1525 5575 1025 
Q 5325 1100 5050 1150 
Q 5175 1450 5275 1700 
L 4050 1700 
L 4050 150 
Q 4050 -375 3762 -462 
Q 3475 -550 2950 -575 
Q 2875 -300 2750 0 
Q 3350 -75 3475 25 
Q 3600 125 3575 375 
L 3575 1700 
L 2450 1700 
Q 2050 1700 1675 1675 
L 1675 2100 
Q 2100 2075 2425 2075 
L 3675 2075 
Q 3325 2400 2875 2775 
Q 2975 2875 3250 3100 
Q 3400 2975 3725 2725 
L 4575 3275 
L 3000 3275 
Q 2400 3275 1950 3250 
L 1950 3700 
Q 2400 3675 3000 3675 
L 5400 3675 
L 5400 3250 
Q 4700 2875 4025 2450 
L 4275 2250 
L 4000 2075 
z
M 3725 5275 
Q 3825 4925 3925 4525 
L 4850 4525 
Q 5425 4525 6000 4550 
L 6000 4125 
Q 5425 4150 4850 4150 
L 1400 4150 
Q 1400 2750 1362 2137 
Q 1325 1525 1200 887 
Q 1075 250 775 -350 
Q 625 -250 250 -125 
Q 475 300 600 700 
Q 725 1100 800 1637 
Q 875 2175 875 2825 
Q 875 3500 850 4525 
L 3350 4525 
Q 3275 4825 3150 5150 
Q 3425 5200 3725 5275 
z
" transform="scale(0.015625)"/>
       <path id="SimHei-5217" d="M 2950 4800 
Q 3525 4800 3825 4825 
L 3825 4400 
Q 3525 4425 2800 4425 
L 2125 4425 
Q 2075 4125 1925 3500 
L 3425 3500 
Q 3300 2500 3100 1862 
Q 2900 1225 2575 762 
Q 2250 300 1850 -12 
Q 1450 -325 925 -675 
Q 725 -375 475 -150 
Q 1125 125 1550 437 
Q 1975 750 2250 1225 
Q 2100 1350 1862 1550 
Q 1625 1750 1400 1925 
L 1750 2325 
Q 1925 2200 2100 2037 
Q 2275 1875 2500 1650 
Q 2650 2025 2737 2337 
Q 2825 2650 2875 3100 
L 1775 3100 
Q 1600 2650 1350 2237 
Q 1100 1825 775 1525 
Q 600 1675 325 1850 
Q 600 2125 825 2462 
Q 1050 2800 1200 3125 
Q 1350 3450 1425 3775 
Q 1500 4100 1550 4425 
L 1100 4425 
Q 575 4425 375 4400 
L 375 4825 
Q 575 4800 1125 4800 
L 2950 4800 
z
M 5975 5050 
Q 5925 4675 5925 4250 
L 5925 50 
Q 5925 -275 5737 -400 
Q 5550 -525 4900 -625 
Q 4825 -250 4650 25 
Q 5150 0 5287 25 
Q 5425 50 5425 325 
L 5425 4250 
Q 5425 4650 5400 5050 
L 5975 5050 
z
M 4725 4300 
Q 4675 4000 4675 3450 
L 4675 1650 
Q 4675 1200 4700 850 
L 4100 850 
Q 4150 1200 4150 1650 
L 4150 3550 
Q 4150 3975 4100 4300 
L 4725 4300 
z
" transform="scale(0.015625)"/>
       <path id="SimHei-957f" d="M 1750 2800 
L 1750 4450 
Q 1750 4675 1725 5100 
L 2275 5100 
Q 2250 4625 2250 4475 
L 2250 2800 
L 5275 2800 
Q 5600 2800 5975 2825 
L 5975 2325 
Q 5500 2350 5100 2350 
L 3650 2350 
Q 3825 1850 4187 1375 
Q 4550 900 5050 587 
Q 5550 275 5950 150 
Q 5625 -50 5450 -350 
Q 4925 -75 4475 300 
Q 4025 675 3675 1212 
Q 3325 1750 3150 2350 
L 2250 2350 
L 2250 375 
Q 2975 825 3225 1050 
Q 3400 775 3575 550 
Q 3100 325 2625 -12 
Q 2150 -350 1925 -575 
Q 1725 -300 1550 -100 
Q 1750 100 1750 425 
L 1750 2350 
L 1175 2350 
Q 825 2350 375 2325 
L 375 2825 
Q 825 2800 1125 2800 
L 1750 2800 
z
M 4900 4700 
Q 4625 4475 4087 3937 
Q 3550 3400 3025 2900 
Q 2800 3200 2650 3300 
Q 3075 3600 3600 4150 
Q 4125 4700 4400 5100 
Q 4600 4925 4900 4700 
z
" transform="scale(0.015625)"/>
       <path id="SimHei-5ea6" d="M 1750 1675 
Q 2450 1650 2875 1650 
L 5200 1650 
Q 4975 1250 4650 850 
Q 4325 450 4025 200 
Q 4350 50 4950 -50 
Q 5550 -150 6100 -150 
Q 5950 -300 5825 -650 
Q 5100 -550 4550 -412 
Q 4000 -275 3625 -100 
Q 3100 -325 2587 -462 
Q 2075 -600 1525 -675 
Q 1450 -475 1225 -250 
Q 1675 -250 2250 -125 
Q 2825 0 3250 200 
Q 2825 550 2400 1275 
L 1750 1250 
L 1750 1675 
z
M 2975 5075 
Q 3250 5150 3475 5250 
Q 3625 4975 3775 4525 
L 4700 4525 
Q 4975 4525 5700 4550 
L 5700 4100 
Q 5000 4125 4650 4125 
L 1375 4125 
Q 1375 3000 1350 2312 
Q 1325 1625 1212 950 
Q 1100 275 725 -525 
Q 500 -375 250 -300 
Q 650 400 762 1075 
Q 875 1750 887 2800 
Q 900 3850 875 4525 
L 3200 4525 
Q 3100 4850 2975 5075 
z
M 2475 3300 
Q 2475 3700 2450 3925 
L 2975 3925 
Q 2950 3725 2950 3300 
L 4300 3300 
Q 4300 3700 4275 3950 
L 4800 3950 
Q 4775 3650 4775 3300 
Q 5325 3300 5725 3325 
L 5725 2900 
Q 5350 2925 4775 2925 
Q 4775 2250 4800 1950 
L 2450 1950 
Q 2475 2350 2475 2925 
Q 2175 2925 1600 2900 
L 1600 3325 
Q 2175 3300 2475 3300 
z
M 4300 2350 
L 4300 2925 
L 2950 2925 
L 2950 2350 
L 4300 2350 
z
M 2875 1275 
Q 3200 775 3650 425 
Q 4025 700 4425 1275 
L 2900 1275 
L 2875 1275 
z
" transform="scale(0.015625)"/>
      </defs>
      <use xlink:href="#SimHei-5e8f"/>
      <use xlink:href="#SimHei-5217" x="100"/>
      <use xlink:href="#SimHei-957f" x="200"/>
      <use xlink:href="#SimHei-5ea6" x="300"/>
     </g>
    </g>
   </g>
   <g id="matplotlib.axis_2">
    <g id="ytick_1">
     <g id="line2d_9">
      <defs>
       <path id="m880b810883" d="M 0 0 
L -3.5 0 
" style="stroke: #000000; stroke-width: 0.8"/>
      </defs>
      <g>
       <use xlink:href="#m880b810883" x="51.190625" y="238.791193" style="stroke: #000000; stroke-width: 0.8"/>
      </g>
     </g>
     <g id="text_10">
      <!-- 0.00 -->
      <g transform="translate(24.190625 242.228693)scale(0.1 -0.1)">
       <defs>
        <path id="SimHei-2e" d="M 1075 125 
L 500 125 
L 500 675 
L 1075 675 
L 1075 125 
z
" transform="scale(0.015625)"/>
       </defs>
       <use xlink:href="#SimHei-30"/>
       <use xlink:href="#SimHei-2e" x="50"/>
       <use xlink:href="#SimHei-30" x="100"/>
       <use xlink:href="#SimHei-30" x="150"/>
      </g>
     </g>
    </g>
    <g id="ytick_2">
     <g id="line2d_10">
      <g>
       <use xlink:href="#m880b810883" x="51.190625" y="192.264893" style="stroke: #000000; stroke-width: 0.8"/>
      </g>
     </g>
     <g id="text_11">
      <!-- 0.02 -->
      <g transform="translate(24.190625 195.702393)scale(0.1 -0.1)">
       <use xlink:href="#SimHei-30"/>
       <use xlink:href="#SimHei-2e" x="50"/>
       <use xlink:href="#SimHei-30" x="100"/>
       <use xlink:href="#SimHei-32" x="150"/>
      </g>
     </g>
    </g>
    <g id="ytick_3">
     <g id="line2d_11">
      <g>
       <use xlink:href="#m880b810883" x="51.190625" y="145.738592" style="stroke: #000000; stroke-width: 0.8"/>
      </g>
     </g>
     <g id="text_12">
      <!-- 0.04 -->
      <g transform="translate(24.190625 149.176092)scale(0.1 -0.1)">
       <defs>
        <path id="SimHei-34" d="M 2000 1100 
L 75 1100 
L 75 1525 
L 2100 4450 
L 2475 4450 
L 2475 1525 
L 3075 1525 
L 3075 1100 
L 2475 1100 
L 2475 150 
L 2000 150 
L 2000 1100 
z
M 2000 1525 
L 2000 3500 
L 600 1525 
L 2000 1525 
z
" transform="scale(0.015625)"/>
       </defs>
       <use xlink:href="#SimHei-30"/>
       <use xlink:href="#SimHei-2e" x="50"/>
       <use xlink:href="#SimHei-30" x="100"/>
       <use xlink:href="#SimHei-34" x="150"/>
      </g>
     </g>
    </g>
    <g id="ytick_4">
     <g id="line2d_12">
      <g>
       <use xlink:href="#m880b810883" x="51.190625" y="99.212292" style="stroke: #000000; stroke-width: 0.8"/>
      </g>
     </g>
     <g id="text_13">
      <!-- 0.06 -->
      <g transform="translate(24.190625 102.649792)scale(0.1 -0.1)">
       <defs>
        <path id="SimHei-36" d="M 250 1612 
Q 275 1975 387 2225 
Q 500 2475 725 2850 
L 1750 4450 
L 2325 4450 
L 1275 2800 
Q 1950 2975 2350 2750 
Q 2750 2525 2887 2237 
Q 3025 1950 3037 1612 
Q 3050 1275 2937 950 
Q 2825 625 2537 362 
Q 2250 100 1737 75 
Q 1225 50 862 262 
Q 500 475 362 862 
Q 225 1250 250 1612 
z
M 1025 787 
Q 1250 550 1625 525 
Q 2000 500 2250 775 
Q 2500 1050 2500 1575 
Q 2500 2100 2187 2300 
Q 1875 2500 1487 2450 
Q 1100 2400 925 2075 
Q 750 1750 775 1387 
Q 800 1025 1025 787 
z
" transform="scale(0.015625)"/>
       </defs>
       <use xlink:href="#SimHei-30"/>
       <use xlink:href="#SimHei-2e" x="50"/>
       <use xlink:href="#SimHei-30" x="100"/>
       <use xlink:href="#SimHei-36" x="150"/>
      </g>
     </g>
    </g>
    <g id="ytick_5">
     <g id="line2d_13">
      <g>
       <use xlink:href="#m880b810883" x="51.190625" y="52.685991" style="stroke: #000000; stroke-width: 0.8"/>
      </g>
     </g>
     <g id="text_14">
      <!-- 0.08 -->
      <g transform="translate(24.190625 56.123491)scale(0.1 -0.1)">
       <defs>
        <path id="SimHei-38" d="M 175 1375 
Q 175 1675 325 1962 
Q 475 2250 825 2425 
Q 525 2600 425 2812 
Q 325 3025 312 3300 
Q 300 3575 387 3775 
Q 475 3975 650 4150 
Q 825 4325 1037 4387 
Q 1250 4450 1500 4450 
Q 1750 4450 1950 4400 
Q 2150 4350 2375 4187 
Q 2600 4025 2700 3725 
Q 2800 3425 2687 3025 
Q 2575 2625 2100 2400 
Q 2525 2275 2700 2012 
Q 2875 1750 2875 1375 
Q 2875 1000 2762 775 
Q 2650 550 2512 400 
Q 2375 250 2137 162 
Q 1900 75 1537 75 
Q 1175 75 912 162 
Q 650 250 475 425 
Q 300 600 237 837 
Q 175 1075 175 1375 
z
M 687 1400 
Q 675 1100 787 875 
Q 900 650 1200 587 
Q 1500 525 1825 600 
Q 2150 675 2275 950 
Q 2400 1225 2362 1500 
Q 2325 1775 2050 1962 
Q 1775 2150 1450 2125 
Q 1125 2100 912 1900 
Q 700 1700 687 1400 
z
M 775 3350 
Q 775 3100 950 2875 
Q 1125 2650 1500 2650 
Q 1875 2650 2062 2875 
Q 2250 3100 2237 3412 
Q 2225 3725 2012 3875 
Q 1800 4025 1437 4000 
Q 1075 3975 925 3787 
Q 775 3600 775 3350 
z
" transform="scale(0.015625)"/>
       </defs>
       <use xlink:href="#SimHei-30"/>
       <use xlink:href="#SimHei-2e" x="50"/>
       <use xlink:href="#SimHei-30" x="100"/>
       <use xlink:href="#SimHei-38" x="150"/>
      </g>
     </g>
    </g>
    <g id="text_15">
     <!-- avg of abs(dis2-dis1)/(dis1+1) -->
     <g transform="translate(18.940625 212.671875)rotate(-90)scale(0.1 -0.1)">
      <defs>
       <path id="SimHei-61" d="M 2875 125 
L 2275 125 
Q 2225 175 2200 262 
Q 2175 350 2175 475 
Q 2000 275 1750 175 
Q 1500 75 1225 75 
Q 825 75 550 275 
Q 275 475 275 850 
Q 275 1225 525 1450 
Q 775 1675 1300 1750 
Q 1650 1800 1912 1875 
Q 2175 1950 2175 2075 
Q 2175 2225 2062 2375 
Q 1950 2525 1575 2525 
Q 1275 2525 1137 2412 
Q 1000 2300 950 2100 
L 400 2100 
Q 450 2500 762 2737 
Q 1075 2975 1575 2975 
Q 2125 2975 2400 2725 
Q 2675 2475 2675 2025 
L 2675 650 
Q 2675 500 2725 375 
Q 2775 250 2875 125 
z
M 2175 1050 
L 2175 1550 
Q 2025 1500 1887 1462 
Q 1750 1425 1425 1375 
Q 1050 1325 937 1200 
Q 825 1075 825 900 
Q 825 750 937 637 
Q 1050 525 1275 525 
Q 1500 525 1762 650 
Q 2025 775 2175 1050 
z
" transform="scale(0.015625)"/>
       <path id="SimHei-76" d="M 2875 2925 
L 1825 75 
L 1275 75 
L 225 2925 
L 750 2925 
L 1525 750 
L 1575 750 
L 2350 2925 
L 2875 2925 
z
" transform="scale(0.015625)"/>
       <path id="SimHei-67" d="M 2975 2500 
Q 2800 2550 2637 2562 
Q 2475 2575 2300 2525 
Q 2375 2450 2425 2337 
Q 2475 2225 2475 2000 
Q 2475 1575 2187 1300 
Q 1900 1025 1475 1025 
Q 1375 1025 1212 1062 
Q 1050 1100 950 1150 
Q 875 1100 850 1050 
Q 825 1000 825 925 
Q 825 800 1000 737 
Q 1175 675 1625 675 
Q 2350 675 2612 475 
Q 2875 275 2875 -25 
Q 2875 -425 2487 -612 
Q 2100 -800 1575 -800 
Q 900 -800 575 -625 
Q 250 -450 250 -150 
Q 250 0 375 150 
Q 500 300 700 400 
Q 550 475 462 587 
Q 375 700 375 875 
Q 375 1025 487 1137 
Q 600 1250 750 1325 
Q 625 1450 550 1625 
Q 475 1800 475 2000 
Q 475 2425 762 2700 
Q 1050 2975 1475 2975 
Q 1700 2975 1862 2912 
Q 2025 2850 2150 2725 
Q 2350 2875 2550 2937 
Q 2750 3000 2975 2975 
L 2975 2500 
z
M 1975 2000 
Q 1975 2250 1850 2400 
Q 1725 2550 1475 2550 
Q 1225 2550 1100 2400 
Q 975 2250 975 2000 
Q 975 1750 1100 1600 
Q 1225 1450 1475 1450 
Q 1725 1450 1850 1600 
Q 1975 1750 1975 2000 
z
M 2400 -75 
Q 2400 25 2287 125 
Q 2175 225 1725 225 
Q 1625 225 1450 237 
Q 1275 250 1050 275 
Q 850 200 775 100 
Q 700 0 700 -100 
Q 700 -250 900 -350 
Q 1100 -450 1600 -450 
Q 2025 -450 2212 -337 
Q 2400 -225 2400 -75 
z
" transform="scale(0.015625)"/>
       <path id="SimHei-20" transform="scale(0.015625)"/>
       <path id="SimHei-6f" d="M 2925 1525 
Q 2925 875 2525 475 
Q 2125 75 1575 75 
Q 1025 75 625 475 
Q 225 875 225 1525 
Q 225 2175 625 2575 
Q 1025 2975 1575 2975 
Q 2125 2975 2525 2575 
Q 2925 2175 2925 1525 
z
M 2375 1525 
Q 2375 2025 2125 2275 
Q 1875 2525 1575 2525 
Q 1275 2525 1025 2275 
Q 775 2025 775 1525 
Q 775 1025 1025 775 
Q 1275 525 1575 525 
Q 1875 525 2125 775 
Q 2375 1025 2375 1525 
z
" transform="scale(0.015625)"/>
       <path id="SimHei-66" d="M 2850 3825 
Q 2725 3900 2550 3950 
Q 2375 4000 2100 4000 
Q 1825 4000 1725 3862 
Q 1625 3725 1625 3525 
L 1625 2925 
L 2650 2925 
L 2650 2525 
L 1625 2525 
L 1625 125 
L 1125 125 
L 1125 2525 
L 275 2525 
L 275 2925 
L 1125 2925 
L 1125 3500 
Q 1125 3950 1400 4200 
Q 1675 4450 2125 4450 
Q 2400 4450 2562 4412 
Q 2725 4375 2850 4325 
L 2850 3825 
z
" transform="scale(0.015625)"/>
       <path id="SimHei-62" d="M 2825 1525 
Q 2825 800 2475 437 
Q 2125 75 1625 75 
Q 1350 75 1150 175 
Q 950 275 800 500 
L 800 125 
L 300 125 
L 300 4400 
L 800 4400 
L 800 2550 
Q 950 2775 1150 2887 
Q 1350 3000 1625 3000 
Q 2125 3000 2475 2625 
Q 2825 2250 2825 1525 
z
M 2275 1525 
Q 2275 2000 2087 2275 
Q 1900 2550 1525 2550 
Q 1225 2550 1012 2275 
Q 800 2000 800 1525 
Q 800 1050 1012 787 
Q 1225 525 1525 525 
Q 1900 525 2087 787 
Q 2275 1050 2275 1525 
z
" transform="scale(0.015625)"/>
       <path id="SimHei-73" d="M 2750 900 
Q 2750 500 2437 287 
Q 2125 75 1650 75 
Q 1050 75 725 312 
Q 400 550 400 1000 
L 900 1000 
Q 900 700 1112 600 
Q 1325 500 1625 500 
Q 1925 500 2075 612 
Q 2225 725 2225 900 
Q 2225 1025 2100 1150 
Q 1975 1275 1475 1350 
Q 900 1425 687 1637 
Q 475 1850 475 2200 
Q 475 2500 762 2737 
Q 1050 2975 1600 2975 
Q 2100 2975 2387 2750 
Q 2675 2525 2675 2150 
L 2175 2150 
Q 2175 2375 2012 2462 
Q 1850 2550 1600 2550 
Q 1275 2550 1137 2437 
Q 1000 2325 1000 2175 
Q 1000 2000 1125 1900 
Q 1250 1800 1650 1750 
Q 2300 1650 2525 1437 
Q 2750 1225 2750 900 
z
" transform="scale(0.015625)"/>
       <path id="SimHei-28" d="M 2975 -200 
L 2700 -475 
Q 2075 125 1762 775 
Q 1450 1425 1450 2250 
Q 1450 3075 1762 3725 
Q 2075 4375 2700 5000 
L 2975 4725 
Q 2400 4175 2112 3587 
Q 1825 3000 1825 2250 
Q 1825 1500 2112 912 
Q 2400 325 2975 -200 
z
" transform="scale(0.015625)"/>
       <path id="SimHei-64" d="M 2750 125 
L 2250 125 
L 2250 500 
Q 2100 275 1900 175 
Q 1700 75 1425 75 
Q 925 75 575 437 
Q 225 800 225 1525 
Q 225 2250 575 2625 
Q 925 3000 1425 3000 
Q 1700 3000 1900 2887 
Q 2100 2775 2250 2550 
L 2250 4400 
L 2750 4400 
L 2750 125 
z
M 2250 1525 
Q 2250 2000 2037 2275 
Q 1825 2550 1525 2550 
Q 1150 2550 962 2275 
Q 775 2000 775 1525 
Q 775 1050 962 787 
Q 1150 525 1525 525 
Q 1825 525 2037 787 
Q 2250 1050 2250 1525 
z
" transform="scale(0.015625)"/>
       <path id="SimHei-69" d="M 1800 3725 
L 1300 3725 
L 1300 4375 
L 1800 4375 
L 1800 3725 
z
M 1800 125 
L 1300 125 
L 1300 2925 
L 1800 2925 
L 1800 125 
z
" transform="scale(0.015625)"/>
       <path id="SimHei-2d" d="M 2975 2125 
L 125 2125 
L 125 2525 
L 2975 2525 
L 2975 2125 
z
" transform="scale(0.015625)"/>
       <path id="SimHei-29" d="M 1675 2250 
Q 1675 1425 1362 775 
Q 1050 125 425 -475 
L 150 -200 
Q 725 325 1012 912 
Q 1300 1500 1300 2250 
Q 1300 3000 1012 3587 
Q 725 4175 150 4725 
L 425 5000 
Q 1050 4375 1362 3725 
Q 1675 3075 1675 2250 
z
" transform="scale(0.015625)"/>
       <path id="SimHei-2f" d="M 3000 4550 
L 350 -175 
L 100 -25 
L 2750 4700 
L 3000 4550 
z
" transform="scale(0.015625)"/>
       <path id="SimHei-2b" d="M 3000 2125 
L 1775 2125 
L 1775 900 
L 1350 900 
L 1350 2125 
L 125 2125 
L 125 2525 
L 1350 2525 
L 1350 3750 
L 1775 3750 
L 1775 2525 
L 3000 2525 
L 3000 2125 
z
" transform="scale(0.015625)"/>
      </defs>
      <use xlink:href="#SimHei-61"/>
      <use xlink:href="#SimHei-76" x="50"/>
      <use xlink:href="#SimHei-67" x="100"/>
      <use xlink:href="#SimHei-20" x="150"/>
      <use xlink:href="#SimHei-6f" x="200"/>
      <use xlink:href="#SimHei-66" x="250"/>
      <use xlink:href="#SimHei-20" x="300"/>
      <use xlink:href="#SimHei-61" x="350"/>
      <use xlink:href="#SimHei-62" x="400"/>
      <use xlink:href="#SimHei-73" x="450"/>
      <use xlink:href="#SimHei-28" x="500"/>
      <use xlink:href="#SimHei-64" x="550"/>
      <use xlink:href="#SimHei-69" x="600"/>
      <use xlink:href="#SimHei-73" x="650"/>
      <use xlink:href="#SimHei-32" x="700"/>
      <use xlink:href="#SimHei-2d" x="750"/>
      <use xlink:href="#SimHei-64" x="800"/>
      <use xlink:href="#SimHei-69" x="850"/>
      <use xlink:href="#SimHei-73" x="900"/>
      <use xlink:href="#SimHei-31" x="950"/>
      <use xlink:href="#SimHei-29" x="1000"/>
      <use xlink:href="#SimHei-2f" x="1050"/>
      <use xlink:href="#SimHei-28" x="1100"/>
      <use xlink:href="#SimHei-64" x="1150"/>
      <use xlink:href="#SimHei-69" x="1200"/>
      <use xlink:href="#SimHei-73" x="1250"/>
      <use xlink:href="#SimHei-31" x="1300"/>
      <use xlink:href="#SimHei-2b" x="1350"/>
      <use xlink:href="#SimHei-31" x="1400"/>
      <use xlink:href="#SimHei-29" x="1450"/>
     </g>
    </g>
   </g>
   <g id="line2d_14">
    <path d="M 43.792474 238.791193 
L 49.341087 238.791193 
L 51.190625 183.488996 
L 53.040163 190.394261 
L 54.8897 193.405581 
L 56.739238 195.333091 
L 58.588776 196.951856 
L 60.438313 199.172957 
L 62.287851 200.52262 
L 64.137388 203.277492 
L 65.986926 206.743713 
L 67.836464 208.091091 
L 69.686001 209.290455 
L 71.535539 207.732507 
L 73.385077 211.363352 
L 75.234614 211.171649 
L 77.084152 210.478834 
L 78.933689 210.329106 
L 80.783227 211.9006 
L 82.632765 210.562044 
L 84.482302 212.57131 
L 86.33184 212.622281 
L 88.181378 213.818429 
L 90.030915 212.786154 
L 91.880453 215.153277 
L 93.72999 214.590508 
L 95.579528 216.830148 
L 97.429066 214.953951 
L 99.278603 218.012008 
L 101.128141 215.703353 
L 102.977679 217.610854 
L 104.827216 216.597277 
L 106.676754 216.531999 
L 108.526291 217.437281 
L 110.375829 218.880755 
L 112.225367 217.059878 
L 114.074904 218.995137 
L 115.924442 218.670959 
L 117.77398 218.729304 
L 119.623517 219.718426 
L 121.473055 219.423145 
L 123.322592 220.114079 
L 125.17213 219.949956 
L 127.021668 219.486383 
L 128.871205 220.221786 
L 130.720743 220.287867 
L 134.419818 219.681861 
L 136.269356 221.280164 
L 138.118893 221.456554 
L 139.968431 221.012354 
L 141.817969 221.085864 
L 143.667506 222.408372 
L 145.517044 221.512643 
L 147.366582 221.850082 
L 149.216119 221.810683 
L 152.915195 222.444595 
L 154.764732 221.233409 
L 156.61427 221.596557 
L 158.463807 222.289556 
L 160.313345 222.496772 
L 162.162883 221.149143 
L 164.01242 223.373948 
L 165.861958 222.100901 
L 167.711496 222.723366 
L 169.561033 223.821464 
L 171.410571 222.859516 
L 173.260108 223.292135 
L 175.109646 223.181857 
L 176.959184 223.438624 
L 178.808721 224.185159 
L 180.658259 223.250834 
L 182.507797 223.493601 
L 184.357334 224.116718 
L 186.206872 223.655594 
L 188.056409 224.073537 
L 189.905947 223.850306 
L 191.755485 223.849608 
L 193.605022 224.314188 
L 195.45456 224.130324 
L 197.304098 223.748993 
L 199.153635 223.969607 
L 201.003173 223.345882 
L 202.85271 223.865477 
L 204.702248 224.540821 
L 206.551786 223.284493 
L 208.401323 224.301448 
L 210.250861 224.135077 
L 215.799474 225.32363 
L 217.649011 225.334907 
L 219.498549 224.282237 
L 221.348087 224.906927 
L 223.197624 224.774187 
L 225.047162 224.90319 
L 226.8967 224.558898 
L 228.746237 224.583425 
L 230.595775 225.519373 
L 232.445312 225.460003 
L 234.29485 225.55799 
L 236.144388 224.543321 
L 239.843463 225.835163 
L 241.693001 225.245665 
L 245.392076 225.828154 
L 247.241614 225.020063 
L 249.091151 224.951141 
L 250.940689 226.037519 
L 252.790226 226.140224 
L 254.639764 225.83835 
L 256.489302 225.926053 
L 260.188377 224.655556 
L 262.037915 226.053612 
L 263.887452 226.773816 
L 265.73699 226.325634 
L 267.586527 226.762779 
L 269.436065 225.649655 
L 271.285603 226.467487 
L 273.13514 226.181623 
L 276.834216 226.315939 
L 278.683753 226.589238 
L 280.533291 226.111958 
L 282.382828 225.926671 
L 284.232366 226.290023 
L 286.081904 226.446036 
L 287.931441 226.241284 
L 289.780979 226.829906 
L 293.480054 225.208758 
L 295.329592 226.480278 
L 297.179129 225.937452 
L 299.028667 226.821645 
L 300.878205 226.488414 
L 302.727742 226.308387 
L 306.426818 226.849161 
L 308.276355 226.430034 
L 310.125893 227.019198 
L 311.97543 226.635661 
L 313.824968 226.844082 
L 315.674506 226.41927 
L 317.524043 226.976934 
L 319.373581 226.988713 
L 321.223119 227.157296 
L 323.072656 226.831066 
L 324.922194 227.243412 
L 328.621269 227.31953 
L 330.470807 226.350884 
L 332.320344 226.57849 
L 334.169882 228.135033 
L 336.01942 226.803038 
L 337.868957 226.88105 
L 341.568033 226.479789 
L 343.41757 227.205887 
L 345.267108 226.986508 
L 348.966183 227.224982 
L 350.815721 227.160451 
L 352.665258 227.598284 
L 354.514796 226.380732 
L 356.364334 226.786348 
L 358.213871 227.482062 
L 360.063409 227.51608 
L 361.912946 226.972933 
L 363.762484 227.716611 
L 365.612022 226.621228 
L 367.461559 227.623748 
L 369.311097 227.651812 
L 371.160635 227.165629 
L 373.010172 227.688544 
L 374.85971 228.090037 
L 376.709247 227.093121 
L 378.558785 226.548814 
L 380.408323 227.823773 
L 384.107398 227.907223 
L 385.956936 227.582534 
L 387.806473 227.435273 
L 389.656011 227.704064 
L 391.505548 227.829007 
L 395.204624 228.242219 
L 397.054161 227.897522 
L 398.903699 228.237357 
L 400.753237 227.897369 
L 402.602774 228.479992 
L 404.452312 227.840538 
L 406.301849 226.833853 
L 408.151387 227.545455 
L 410.000925 227.327151 
L 411.850462 227.70803 
L 411.850462 227.70803 
" clip-path="url(#pe2664364a9)" style="fill: none; stroke: #1f77b4; stroke-width: 2; stroke-linecap: square"/>
   </g>
   <g id="line2d_15">
    <path d="M 43.792474 238.791193 
L 49.341087 238.791193 
L 51.190625 75.993452 
L 53.040163 84.498227 
L 54.8897 52.793239 
L 56.739238 36.552557 
L 58.588776 109.373036 
L 60.438313 110.162816 
L 62.287851 113.90366 
L 64.137388 104.46072 
L 65.986926 124.156183 
L 67.836464 123.932419 
L 69.686001 133.270459 
L 71.535539 140.680416 
L 73.385077 144.055723 
L 75.234614 148.514729 
L 77.084152 134.780341 
L 78.933689 145.97156 
L 80.783227 148.699442 
L 82.632765 144.47972 
L 84.482302 154.443916 
L 86.33184 155.010001 
L 88.181378 160.417429 
L 90.030915 158.712012 
L 91.880453 160.182738 
L 93.72999 164.926413 
L 95.579528 165.405066 
L 97.429066 163.706934 
L 99.278603 165.161767 
L 101.128141 171.191799 
L 102.977679 168.049824 
L 104.827216 169.601331 
L 106.676754 171.780167 
L 108.526291 167.18182 
L 110.375829 171.520619 
L 112.225367 173.860582 
L 114.074904 175.592292 
L 115.924442 171.819445 
L 117.77398 175.665453 
L 119.623517 175.685903 
L 121.473055 178.267304 
L 123.322592 176.882961 
L 125.17213 174.956975 
L 127.021668 178.410999 
L 128.871205 180.996838 
L 130.720743 180.919848 
L 132.570281 178.977084 
L 134.419818 180.541865 
L 136.269356 182.628474 
L 138.118893 183.806058 
L 139.968431 183.868474 
L 141.817969 184.488483 
L 143.667506 183.922781 
L 145.517044 184.714453 
L 147.366582 187.550844 
L 149.216119 186.093717 
L 152.915195 185.41303 
L 154.764732 186.524373 
L 156.61427 189.541055 
L 158.463807 186.528216 
L 160.313345 188.051495 
L 162.162883 192.127239 
L 164.01242 189.880128 
L 165.861958 189.745982 
L 167.711496 187.30073 
L 169.561033 190.865789 
L 171.410571 188.345108 
L 173.260108 193.030955 
L 175.109646 191.777447 
L 176.959184 191.430942 
L 178.808721 190.508832 
L 180.658259 190.234881 
L 184.357334 194.809142 
L 186.206872 194.606743 
L 188.056409 193.042419 
L 189.905947 193.112202 
L 191.755485 194.36239 
L 193.605022 196.756011 
L 195.45456 194.928854 
L 197.304098 196.822274 
L 199.153635 195.347173 
L 201.003173 195.395139 
L 202.85271 194.754851 
L 204.702248 195.664571 
L 208.401323 194.500342 
L 210.250861 197.7718 
L 212.100399 199.725955 
L 213.949936 197.194717 
L 215.799474 198.373372 
L 217.649011 199.182336 
L 219.498549 196.250144 
L 221.348087 198.964058 
L 223.197624 200.984797 
L 225.047162 201.751544 
L 226.8967 199.011206 
L 228.746237 199.447436 
L 230.595775 199.625438 
L 232.445312 199.209432 
L 234.29485 200.713279 
L 236.144388 197.47107 
L 237.993925 200.493754 
L 239.843463 201.178668 
L 241.693001 200.821438 
L 243.542538 201.794695 
L 245.392076 200.89221 
L 247.241614 198.841038 
L 249.091151 200.929732 
L 250.940689 202.233128 
L 252.790226 200.466787 
L 254.639764 201.681582 
L 256.489302 201.89386 
L 258.338839 200.062912 
L 262.037915 202.712467 
L 263.887452 203.395459 
L 267.586527 202.835649 
L 269.436065 201.291895 
L 271.285603 203.909973 
L 273.13514 204.459675 
L 274.984678 203.55825 
L 276.834216 204.504626 
L 278.683753 204.205229 
L 280.533291 202.228877 
L 282.382828 202.405627 
L 284.232366 204.045728 
L 286.081904 204.038398 
L 287.931441 204.387769 
L 289.780979 205.760081 
L 291.630517 203.516084 
L 293.480054 204.423359 
L 295.329592 203.739617 
L 297.179129 203.356219 
L 299.028667 205.189843 
L 300.878205 204.499047 
L 302.727742 204.764253 
L 304.57728 204.459558 
L 306.426818 205.639578 
L 308.276355 206.595938 
L 310.125893 204.97517 
L 311.97543 205.580084 
L 315.674506 205.43131 
L 317.524043 206.682759 
L 319.373581 206.530277 
L 321.223119 205.817577 
L 323.072656 207.423629 
L 324.922194 206.663378 
L 326.771732 207.025256 
L 328.621269 209.036421 
L 330.470807 206.272346 
L 332.320344 206.036804 
L 334.169882 207.369317 
L 336.01942 208.354754 
L 337.868957 206.601133 
L 339.718495 207.772374 
L 341.568033 206.646351 
L 343.41757 207.071876 
L 345.267108 205.946747 
L 347.116645 208.605462 
L 348.966183 209.070773 
L 350.815721 208.482959 
L 352.665258 208.658187 
L 354.514796 206.441021 
L 356.364334 207.583452 
L 358.213871 208.317003 
L 360.063409 210.538009 
L 361.912946 208.537222 
L 363.762484 208.106845 
L 365.612022 208.329227 
L 367.461559 208.874736 
L 369.311097 210.683599 
L 371.160635 207.493226 
L 374.85971 209.627141 
L 378.558785 210.190164 
L 380.408323 209.325336 
L 382.25786 209.552637 
L 384.107398 207.990978 
L 385.956936 209.506973 
L 387.806473 209.655362 
L 389.656011 211.426723 
L 391.505548 209.530452 
L 393.355086 210.464727 
L 395.204624 211.048464 
L 398.903699 209.352352 
L 400.753237 210.862742 
L 402.602774 210.000827 
L 406.301849 210.868574 
L 408.151387 210.197392 
L 410.000925 209.155063 
L 411.850462 209.428669 
L 411.850462 209.428669 
" clip-path="url(#pe2664364a9)" style="fill: none; stroke: #ff7f0e; stroke-width: 3; stroke-linecap: square"/>
   </g>
   <g id="line2d_16">
    <path d="M 43.792474 238.791193 
L 49.341087 238.791193 
L 51.190625 162.85808 
L 53.040163 173.693595 
L 54.8897 176.357452 
L 56.739238 177.669042 
L 58.588776 180.164626 
L 60.438313 186.522726 
L 62.287851 185.607308 
L 65.986926 194.382801 
L 67.836464 197.581567 
L 69.686001 200.109042 
L 71.535539 197.2983 
L 73.385077 202.209022 
L 75.234614 201.450553 
L 77.084152 199.817621 
L 78.933689 200.906988 
L 80.783227 202.180295 
L 82.632765 200.989456 
L 84.482302 204.777867 
L 86.33184 205.030043 
L 88.181378 205.506773 
L 90.030915 204.68248 
L 91.880453 207.664548 
L 93.72999 207.442206 
L 95.579528 209.704079 
L 97.429066 207.931198 
L 99.278603 209.23089 
L 101.128141 208.215401 
L 102.977679 210.550868 
L 104.827216 209.205561 
L 106.676754 210.094979 
L 108.526291 210.788751 
L 110.375829 213.631005 
L 112.225367 210.112046 
L 114.074904 213.236664 
L 115.924442 212.093471 
L 117.77398 212.045421 
L 119.623517 213.426596 
L 121.473055 212.271858 
L 123.322592 213.246498 
L 125.17213 214.700316 
L 127.021668 213.334415 
L 128.871205 214.854652 
L 132.570281 214.946268 
L 134.419818 213.410936 
L 136.269356 217.110588 
L 138.118893 217.146034 
L 139.968431 216.190365 
L 143.667506 217.103153 
L 145.517044 216.741323 
L 147.366582 216.802447 
L 149.216119 216.413094 
L 151.065657 217.491313 
L 152.915195 217.859731 
L 154.764732 216.315447 
L 158.463807 217.663023 
L 160.313345 217.714674 
L 162.162883 216.655668 
L 164.01242 217.876173 
L 165.861958 217.293806 
L 167.711496 218.053874 
L 169.561033 218.552159 
L 171.410571 218.464807 
L 173.260108 218.632772 
L 175.109646 218.440547 
L 176.959184 218.621093 
L 178.808721 219.946395 
L 182.507797 219.062894 
L 184.357334 219.569071 
L 186.206872 218.415938 
L 188.056409 219.729456 
L 189.905947 220.082906 
L 191.755485 219.59764 
L 193.605022 220.827582 
L 195.45456 219.872536 
L 197.304098 219.205815 
L 199.153635 220.382502 
L 201.003173 219.215471 
L 202.85271 220.144684 
L 204.702248 220.554898 
L 206.551786 219.785638 
L 208.401323 220.805932 
L 210.250861 220.301507 
L 212.100399 220.921986 
L 213.949936 220.939248 
L 215.799474 222.166618 
L 217.649011 220.907909 
L 219.498549 220.596911 
L 221.348087 221.459726 
L 223.197624 221.699488 
L 225.047162 221.593521 
L 226.8967 220.756523 
L 228.746237 221.761006 
L 230.595775 221.88554 
L 232.445312 222.463727 
L 234.29485 222.07144 
L 236.144388 221.213258 
L 239.843463 222.493849 
L 241.693001 221.519862 
L 243.542538 222.621814 
L 245.392076 221.689332 
L 247.241614 221.43123 
L 249.091151 221.633445 
L 252.790226 222.678396 
L 254.639764 222.133604 
L 256.489302 223.182672 
L 258.338839 221.743543 
L 260.188377 222.157611 
L 262.037915 223.381894 
L 263.887452 224.011424 
L 265.73699 223.257314 
L 267.586527 223.570961 
L 269.436065 221.920233 
L 271.285603 223.174347 
L 274.984678 224.009528 
L 276.834216 223.281455 
L 280.533291 223.16085 
L 282.382828 222.871872 
L 284.232366 222.837191 
L 286.081904 223.901165 
L 287.931441 223.180858 
L 289.780979 223.510868 
L 291.630517 223.010317 
L 293.480054 222.307635 
L 295.329592 223.848946 
L 297.179129 222.480813 
L 299.028667 223.964327 
L 300.878205 223.844164 
L 302.727742 222.888172 
L 304.57728 223.229116 
L 306.426818 223.917447 
L 308.276355 223.636135 
L 310.125893 224.042725 
L 311.97543 224.095502 
L 313.824968 223.910103 
L 315.674506 223.114016 
L 317.524043 224.125738 
L 319.373581 224.602341 
L 321.223119 224.00686 
L 323.072656 224.019335 
L 326.771732 224.4456 
L 328.621269 224.732065 
L 330.470807 223.200423 
L 332.320344 224.02194 
L 334.169882 225.450629 
L 336.01942 224.181003 
L 337.868957 224.109408 
L 339.718495 223.75214 
L 341.568033 223.96932 
L 343.41757 224.606114 
L 345.267108 224.845875 
L 347.116645 224.482441 
L 348.966183 224.985815 
L 350.815721 225.012912 
L 352.665258 224.858877 
L 354.514796 224.060285 
L 356.364334 224.616152 
L 358.213871 224.456902 
L 360.063409 224.906014 
L 361.912946 224.570888 
L 363.762484 224.826098 
L 365.612022 224.367195 
L 367.461559 225.385598 
L 369.311097 225.240475 
L 371.160635 224.159042 
L 374.85971 225.717149 
L 376.709247 224.404278 
L 378.558785 223.800159 
L 380.408323 225.69029 
L 382.25786 225.241353 
L 384.107398 225.517375 
L 385.956936 225.586049 
L 387.806473 224.811364 
L 389.656011 225.391008 
L 391.505548 225.284931 
L 393.355086 225.672209 
L 395.204624 225.841974 
L 397.054161 225.653766 
L 398.903699 225.872433 
L 400.753237 225.605144 
L 402.602774 226.496882 
L 404.452312 225.709963 
L 406.301849 224.19279 
L 408.151387 225.116146 
L 410.000925 225.526896 
L 411.850462 225.742467 
L 411.850462 225.742467 
" clip-path="url(#pe2664364a9)" style="fill: none; stroke: #2ca02c; stroke-width: 2; stroke-linecap: square"/>
   </g>
   <g id="line2d_17">
    <path d="M 43.792474 238.791193 
L 49.341087 238.791193 
L 51.190625 131.989585 
L 53.040163 151.672573 
L 54.8897 135.636112 
L 56.739238 130.223771 
L 58.588776 166.776314 
L 60.438313 158.235182 
L 62.287851 156.159175 
L 64.137388 147.808665 
L 65.986926 160.943673 
L 67.836464 155.32735 
L 69.686001 161.539567 
L 71.535539 163.622317 
L 73.385077 165.024307 
L 75.234614 167.348214 
L 77.084152 156.581155 
L 78.933689 166.152366 
L 80.783227 167.165871 
L 82.632765 160.334861 
L 84.482302 168.462312 
L 86.33184 169.290266 
L 88.181378 170.343637 
L 90.030915 171.021396 
L 91.880453 170.475769 
L 93.72999 173.761694 
L 95.579528 174.401016 
L 97.429066 172.484856 
L 99.278603 176.246669 
L 101.128141 181.519311 
L 102.977679 177.020919 
L 104.827216 180.664046 
L 106.676754 179.286719 
L 108.526291 176.220766 
L 112.225367 181.331517 
L 114.074904 181.77763 
L 115.924442 178.238282 
L 117.77398 179.588631 
L 119.623517 181.188315 
L 121.473055 179.674152 
L 123.322592 183.13436 
L 125.17213 182.052065 
L 127.021668 186.083717 
L 128.871205 184.810968 
L 130.720743 184.760161 
L 132.570281 183.787382 
L 134.419818 184.919641 
L 136.269356 185.3262 
L 138.118893 186.55407 
L 139.968431 187.520515 
L 143.667506 185.886151 
L 145.517044 187.764557 
L 147.366582 190.763628 
L 149.216119 187.387671 
L 151.065657 189.119985 
L 152.915195 188.62124 
L 154.764732 186.99402 
L 156.61427 191.696809 
L 158.463807 189.097719 
L 160.313345 189.611687 
L 162.162883 192.14482 
L 165.861958 190.578715 
L 167.711496 190.141657 
L 169.561033 191.627916 
L 171.410571 190.759534 
L 173.260108 191.270272 
L 175.109646 190.5416 
L 176.959184 192.674198 
L 178.808721 190.938556 
L 180.658259 192.006142 
L 182.507797 194.231352 
L 184.357334 194.834075 
L 186.206872 193.917965 
L 188.056409 195.160606 
L 189.905947 192.777162 
L 191.755485 193.045273 
L 193.605022 196.582888 
L 195.45456 195.831779 
L 197.304098 195.633112 
L 199.153635 196.201367 
L 201.003173 194.312768 
L 202.85271 193.583456 
L 204.702248 196.18037 
L 206.551786 193.890273 
L 208.401323 193.991177 
L 210.250861 195.522325 
L 212.100399 198.351023 
L 213.949936 197.560572 
L 215.799474 198.473992 
L 217.649011 198.008099 
L 219.498549 195.802873 
L 221.348087 196.599233 
L 223.197624 199.952541 
L 225.047162 199.11989 
L 226.8967 197.706438 
L 228.746237 199.655688 
L 230.595775 197.894536 
L 232.445312 198.818992 
L 234.29485 198.192518 
L 236.144388 195.612967 
L 237.993925 200.564821 
L 239.843463 197.776921 
L 241.693001 199.028536 
L 243.542538 201.200721 
L 245.392076 200.037526 
L 247.241614 198.714886 
L 249.091151 201.67432 
L 250.940689 199.038357 
L 252.790226 199.191379 
L 254.639764 200.350673 
L 256.489302 200.728708 
L 258.338839 197.596808 
L 260.188377 200.58732 
L 262.037915 199.785856 
L 263.887452 201.577578 
L 265.73699 200.005635 
L 267.586527 200.913 
L 269.436065 200.506415 
L 271.285603 200.681086 
L 273.13514 202.326754 
L 274.984678 203.251431 
L 276.834216 202.699196 
L 278.683753 199.956893 
L 280.533291 199.018948 
L 282.382828 199.904744 
L 284.232366 202.658502 
L 286.081904 202.932981 
L 287.931441 203.584738 
L 289.780979 203.768256 
L 291.630517 201.60287 
L 293.480054 200.70224 
L 295.329592 202.375053 
L 297.179129 202.496553 
L 299.028667 203.370053 
L 300.878205 201.400544 
L 302.727742 202.376844 
L 304.57728 201.376868 
L 306.426818 202.587351 
L 308.276355 204.472041 
L 310.125893 202.701489 
L 311.97543 203.857061 
L 313.824968 203.54182 
L 315.674506 202.922918 
L 317.524043 205.228684 
L 319.373581 204.679676 
L 321.223119 203.146547 
L 323.072656 204.670382 
L 324.922194 204.114989 
L 326.771732 205.0586 
L 328.621269 205.817816 
L 330.470807 203.097467 
L 332.320344 202.015291 
L 334.169882 204.595731 
L 336.01942 205.277549 
L 337.868957 206.253306 
L 341.568033 203.963871 
L 343.41757 205.532644 
L 345.267108 205.676234 
L 347.116645 206.107503 
L 348.966183 206.115355 
L 350.815721 206.333554 
L 354.514796 203.888119 
L 356.364334 205.574954 
L 358.213871 205.926961 
L 360.063409 206.820933 
L 363.762484 206.546345 
L 365.612022 205.99462 
L 367.461559 205.694707 
L 369.311097 206.96171 
L 371.160635 206.125864 
L 373.010172 205.703663 
L 374.85971 207.096042 
L 376.709247 207.343787 
L 378.558785 206.469035 
L 380.408323 206.648382 
L 382.25786 207.195387 
L 384.107398 206.376668 
L 385.956936 207.550783 
L 387.806473 207.9838 
L 389.656011 206.343697 
L 391.505548 207.108036 
L 393.355086 207.079738 
L 395.204624 207.791065 
L 398.903699 206.492507 
L 400.753237 208.687229 
L 402.602774 207.417896 
L 404.452312 208.494735 
L 406.301849 207.722469 
L 408.151387 205.417855 
L 410.000925 207.243098 
L 411.850462 205.716513 
L 411.850462 205.716513 
" clip-path="url(#pe2664364a9)" style="fill: none; stroke: #d62728; stroke-width: 2; stroke-linecap: square"/>
   </g>
   <g id="line2d_18">
    <path d="M 43.792474 238.791193 
L 49.341087 238.791193 
L 51.190625 150.803672 
L 53.040163 153.347167 
L 54.8897 152.265459 
L 56.739238 162.282258 
L 58.588776 168.191865 
L 60.438313 167.396149 
L 62.287851 169.048136 
L 64.137388 175.241243 
L 65.986926 166.660576 
L 67.836464 171.993349 
L 69.686001 174.266593 
L 71.535539 177.01373 
L 73.385077 178.807818 
L 75.234614 181.079912 
L 77.084152 181.986162 
L 78.933689 186.254634 
L 80.783227 183.396817 
L 82.632765 183.216083 
L 86.33184 187.443464 
L 88.181378 186.475716 
L 90.030915 190.011177 
L 91.880453 189.060842 
L 93.72999 187.831689 
L 95.579528 189.366164 
L 97.429066 189.657802 
L 99.278603 187.16173 
L 101.128141 189.261166 
L 102.977679 194.044416 
L 104.827216 193.683753 
L 106.676754 192.420413 
L 108.526291 193.815828 
L 110.375829 195.579818 
L 112.225367 193.625207 
L 114.074904 196.69312 
L 115.924442 198.127829 
L 117.77398 195.356643 
L 119.623517 198.326929 
L 121.473055 197.397242 
L 123.322592 198.651369 
L 125.17213 199.615374 
L 127.021668 197.34668 
L 128.871205 196.80617 
L 130.720743 202.307742 
L 132.570281 199.799997 
L 134.419818 200.219496 
L 136.269356 202.237802 
L 138.118893 201.993756 
L 139.968431 202.972736 
L 141.817969 203.081638 
L 143.667506 200.902832 
L 145.517044 202.745753 
L 147.366582 203.267049 
L 149.216119 203.461277 
L 151.065657 206.1088 
L 152.915195 204.773133 
L 154.764732 203.249139 
L 156.61427 204.278665 
L 158.463807 204.589304 
L 160.313345 203.320016 
L 162.162883 203.379285 
L 164.01242 207.803972 
L 165.861958 206.605267 
L 167.711496 205.005886 
L 169.561033 206.809205 
L 173.260108 206.374369 
L 175.109646 205.765266 
L 176.959184 205.471811 
L 178.808721 207.175001 
L 180.658259 207.328307 
L 182.507797 207.00454 
L 184.357334 209.537524 
L 186.206872 207.562731 
L 188.056409 207.648155 
L 189.905947 208.654697 
L 191.755485 208.495714 
L 193.605022 209.020901 
L 195.45456 208.24041 
L 197.304098 208.837607 
L 199.153635 210.350013 
L 202.85271 210.650004 
L 204.702248 210.633195 
L 206.551786 209.473482 
L 208.401323 209.103608 
L 210.250861 210.265331 
L 212.100399 210.806891 
L 213.949936 208.973423 
L 215.799474 212.006574 
L 217.649011 211.617286 
L 219.498549 210.704818 
L 221.348087 211.737369 
L 223.197624 210.049139 
L 225.047162 212.479423 
L 226.8967 212.330636 
L 228.746237 211.127807 
L 230.595775 213.235639 
L 232.445312 212.679783 
L 234.29485 212.984284 
L 236.144388 212.258946 
L 237.993925 211.973991 
L 239.843463 214.541872 
L 241.693001 213.089524 
L 243.542538 212.58725 
L 245.392076 211.947515 
L 249.091151 212.932416 
L 250.940689 213.821651 
L 252.790226 213.429725 
L 254.639764 213.953109 
L 256.489302 213.946439 
L 258.338839 214.150436 
L 260.188377 213.569186 
L 262.037915 213.717208 
L 263.887452 213.715343 
L 265.73699 213.97034 
L 267.586527 214.660748 
L 269.436065 214.813446 
L 271.285603 214.321147 
L 273.13514 215.054076 
L 274.984678 214.821141 
L 276.834216 214.361463 
L 278.683753 214.884014 
L 280.533291 213.078663 
L 282.382828 214.420531 
L 284.232366 213.666035 
L 286.081904 214.621362 
L 287.931441 215.345123 
L 289.780979 214.99622 
L 291.630517 216.454987 
L 293.480054 215.530692 
L 295.329592 216.169984 
L 297.179129 216.110106 
L 299.028667 215.159908 
L 300.878205 215.499218 
L 302.727742 216.24206 
L 304.57728 215.709405 
L 306.426818 216.062101 
L 308.276355 216.805287 
L 310.125893 216.00922 
L 311.97543 215.074129 
L 313.824968 215.424135 
L 315.674506 217.156187 
L 317.524043 216.26722 
L 319.373581 216.881176 
L 321.223119 216.20865 
L 323.072656 217.205872 
L 324.922194 216.804878 
L 326.771732 217.363568 
L 328.621269 218.448075 
L 330.470807 218.101973 
L 332.320344 217.293613 
L 334.169882 216.949925 
L 336.01942 217.097595 
L 337.868957 217.042219 
L 339.718495 217.912613 
L 341.568033 217.341435 
L 343.41757 217.720329 
L 345.267108 216.801195 
L 347.116645 218.261568 
L 348.966183 216.883968 
L 350.815721 217.129167 
L 352.665258 218.853782 
L 356.364334 217.460616 
L 358.213871 218.301979 
L 360.063409 218.098588 
L 361.912946 218.817374 
L 365.612022 218.86537 
L 367.461559 217.892521 
L 369.311097 217.925165 
L 371.160635 217.843282 
L 373.010172 218.054738 
L 374.85971 218.618775 
L 376.709247 219.019946 
L 378.558785 219.743987 
L 380.408323 218.81925 
L 382.25786 220.351573 
L 384.107398 219.205585 
L 385.956936 219.604168 
L 387.806473 218.704527 
L 389.656011 219.229313 
L 391.505548 220.584927 
L 393.355086 220.545802 
L 395.204624 219.614689 
L 397.054161 219.298126 
L 398.903699 219.298758 
L 400.753237 219.964374 
L 402.602774 219.501097 
L 404.452312 220.145054 
L 406.301849 219.374842 
L 408.151387 219.523056 
L 410.000925 219.096825 
L 411.850462 219.100389 
L 411.850462 219.100389 
" clip-path="url(#pe2664364a9)" style="fill: none; stroke: #9467bd; stroke-width: 2; stroke-linecap: square"/>
   </g>
   <g id="line2d_19">
    <path d="M 43.792474 238.791193 
L 49.341087 238.791193 
L 51.190625 141.413369 
L 53.040163 142.405633 
L 54.8897 145.392879 
L 56.739238 154.505124 
L 58.588776 159.074225 
L 60.438313 160.402058 
L 62.287851 162.895665 
L 64.137388 170.600832 
L 65.986926 161.473589 
L 67.836464 167.336912 
L 69.686001 168.440422 
L 71.535539 172.388597 
L 73.385077 173.396108 
L 75.234614 176.514964 
L 77.084152 177.010206 
L 78.933689 181.47655 
L 80.783227 179.049249 
L 82.632765 179.002555 
L 84.482302 181.909887 
L 86.33184 183.078312 
L 88.181378 182.744672 
L 90.030915 186.458792 
L 91.880453 183.323379 
L 93.72999 184.950114 
L 95.579528 185.672645 
L 97.429066 186.167952 
L 99.278603 183.916428 
L 101.128141 187.164245 
L 102.977679 189.049148 
L 104.827216 190.270659 
L 106.676754 190.377267 
L 108.526291 190.987482 
L 110.375829 192.315053 
L 112.225367 190.841955 
L 114.074904 194.657091 
L 115.924442 194.37249 
L 117.77398 192.193288 
L 119.623517 196.210405 
L 121.473055 194.91512 
L 123.322592 194.665608 
L 125.17213 197.068478 
L 127.021668 192.967957 
L 128.871205 193.712798 
L 130.720743 199.684919 
L 132.570281 196.353018 
L 134.419818 197.325078 
L 136.269356 199.129815 
L 138.118893 199.798919 
L 139.968431 201.143031 
L 141.817969 199.776513 
L 143.667506 197.642548 
L 145.517044 199.657094 
L 147.366582 200.895998 
L 149.216119 201.300613 
L 151.065657 203.618183 
L 154.764732 201.147743 
L 156.61427 200.577348 
L 158.463807 201.896358 
L 160.313345 199.990552 
L 162.162883 200.40031 
L 164.01242 205.470332 
L 165.861958 204.224202 
L 167.711496 202.52756 
L 169.561033 204.233265 
L 171.410571 204.234152 
L 173.260108 203.054608 
L 175.109646 202.213441 
L 176.959184 202.858552 
L 178.808721 205.71288 
L 180.658259 204.56729 
L 182.507797 202.856019 
L 184.357334 207.153304 
L 186.206872 205.404078 
L 188.056409 205.278343 
L 189.905947 206.88557 
L 191.755485 204.980263 
L 193.605022 207.022857 
L 195.45456 205.985754 
L 197.304098 206.813695 
L 199.153635 207.821733 
L 201.003173 208.17537 
L 202.85271 207.359614 
L 204.702248 208.094533 
L 206.551786 206.852902 
L 208.401323 206.765294 
L 210.250861 208.160909 
L 212.100399 208.318802 
L 213.949936 205.358574 
L 215.799474 209.353424 
L 217.649011 208.380006 
L 219.498549 207.865857 
L 221.348087 209.484748 
L 223.197624 207.332562 
L 225.047162 209.842288 
L 226.8967 209.71947 
L 228.746237 208.02241 
L 230.595775 211.321443 
L 232.445312 209.288854 
L 234.29485 210.785807 
L 236.144388 210.142355 
L 237.993925 209.895219 
L 239.843463 211.623773 
L 241.693001 209.862464 
L 243.542538 210.462785 
L 245.392076 209.327466 
L 247.241614 210.003263 
L 249.091151 211.042484 
L 250.940689 210.718578 
L 252.790226 211.33379 
L 254.639764 211.466332 
L 256.489302 211.254115 
L 258.338839 211.95167 
L 260.188377 211.580372 
L 262.037915 211.541825 
L 263.887452 210.832707 
L 265.73699 212.28351 
L 267.586527 212.765216 
L 269.436065 212.014227 
L 271.285603 211.721376 
L 273.13514 213.415215 
L 274.984678 212.755465 
L 276.834216 211.641661 
L 278.683753 212.151353 
L 280.533291 210.408866 
L 282.382828 212.509612 
L 284.232366 211.520972 
L 286.081904 212.441247 
L 287.931441 211.956692 
L 289.780979 212.7109 
L 291.630517 213.676533 
L 293.480054 212.578712 
L 295.329592 212.93072 
L 297.179129 213.964932 
L 299.028667 212.746756 
L 300.878205 213.129599 
L 302.727742 214.147986 
L 304.57728 213.571087 
L 306.426818 213.496294 
L 308.276355 214.859686 
L 311.97543 211.961816 
L 313.824968 213.448263 
L 315.674506 214.742703 
L 317.524043 214.168082 
L 319.373581 214.081052 
L 321.223119 213.72651 
L 323.072656 214.702693 
L 324.922194 215.19798 
L 326.771732 214.120371 
L 328.621269 215.930922 
L 330.470807 215.232041 
L 332.320344 215.860449 
L 336.01942 214.227451 
L 337.868957 214.26953 
L 339.718495 216.139348 
L 341.568033 214.375904 
L 343.41757 215.674432 
L 345.267108 214.12902 
L 347.116645 216.276245 
L 348.966183 214.329851 
L 350.815721 214.158364 
L 352.665258 216.535872 
L 354.514796 216.196071 
L 356.364334 214.753375 
L 358.213871 216.062012 
L 360.063409 215.876725 
L 363.762484 216.463025 
L 365.612022 216.735817 
L 367.461559 215.187919 
L 371.160635 215.438052 
L 373.010172 215.374385 
L 374.85971 215.842587 
L 378.558785 217.372775 
L 380.408323 215.944185 
L 382.25786 218.088267 
L 384.107398 216.664176 
L 385.956936 217.564762 
L 387.806473 216.999107 
L 389.656011 216.827025 
L 391.505548 217.906622 
L 393.355086 218.494948 
L 397.054161 216.078157 
L 398.903699 217.466974 
L 400.753237 216.79245 
L 402.602774 217.293491 
L 404.452312 218.15967 
L 406.301849 217.271406 
L 408.151387 217.505291 
L 410.000925 215.888128 
L 411.850462 215.971439 
L 411.850462 215.971439 
" clip-path="url(#pe2664364a9)" style="fill: none; stroke: #8c564b; stroke-width: 2; stroke-linecap: square"/>
   </g>
   <g id="patch_3">
    <path d="M 51.190625 248.903125 
L 51.190625 26.440625 
" style="fill: none; stroke: #000000; stroke-width: 0.8; stroke-linejoin: miter; stroke-linecap: square"/>
   </g>
   <g id="patch_4">
    <path d="M 413.7 248.903125 
L 413.7 26.440625 
" style="fill: none; stroke: #000000; stroke-width: 0.8; stroke-linejoin: miter; stroke-linecap: square"/>
   </g>
   <g id="patch_5">
    <path d="M 51.190625 248.903125 
L 413.7 248.903125 
" style="fill: none; stroke: #000000; stroke-width: 0.8; stroke-linejoin: miter; stroke-linecap: square"/>
   </g>
   <g id="patch_6">
    <path d="M 51.190625 26.440625 
L 413.7 26.440625 
" style="fill: none; stroke: #000000; stroke-width: 0.8; stroke-linejoin: miter; stroke-linecap: square"/>
   </g>
   <g id="text_16">
    <!-- 讨论不同长度的序列对不稳定性的影响 -->
    <g transform="translate(130.445313 20.440625)scale(0.12 -0.12)">
     <defs>
      <path id="SimHei-8ba8" d="M 4700 3775 
Q 4700 4600 4675 5225 
L 5225 5225 
Q 5200 4625 5200 3775 
Q 5625 3775 6075 3800 
L 6075 3325 
Q 5675 3350 5200 3350 
L 5200 25 
Q 5200 -325 4925 -437 
Q 4650 -550 4150 -600 
Q 4125 -300 3875 25 
Q 4450 0 4575 50 
Q 4700 100 4700 350 
L 4700 3350 
L 3225 3350 
Q 2900 3350 2300 3325 
L 2300 3800 
Q 2875 3775 3175 3775 
L 4700 3775 
z
M 1700 3375 
Q 1675 2925 1675 2400 
L 1675 550 
Q 2000 850 2400 1325 
Q 2550 1025 2725 825 
Q 2375 550 2037 237 
Q 1700 -75 1450 -350 
Q 1225 -100 1025 50 
Q 1200 250 1200 575 
L 1200 2950 
Q 575 2950 300 2925 
L 300 3400 
Q 575 3375 975 3375 
L 1700 3375 
z
M 3025 2750 
Q 3525 2150 3875 1525 
Q 3625 1375 3425 1250 
Q 3150 1850 2625 2475 
Q 2800 2575 3025 2750 
z
M 1250 5250 
Q 1550 4850 1825 4200 
Q 1625 4100 1375 3950 
Q 1175 4500 825 5000 
Q 1000 5100 1250 5250 
z
" transform="scale(0.015625)"/>
      <path id="SimHei-8bba" d="M 3500 1600 
Q 3825 1725 4250 2000 
Q 4675 2275 4975 2575 
Q 5225 2275 5400 2100 
Q 5050 1950 4550 1675 
Q 4050 1400 3500 1150 
L 3500 300 
Q 3500 -100 3800 -100 
L 4825 -100 
Q 5125 -100 5250 137 
Q 5375 375 5375 575 
Q 5675 350 5925 275 
Q 5750 -225 5550 -375 
Q 5350 -525 5100 -525 
L 3550 -525 
Q 3025 -475 3025 0 
L 3025 2175 
Q 3025 2525 3000 2850 
L 3525 2850 
Q 3500 2400 3500 2200 
L 3500 1600 
z
M 4175 4850 
Q 4400 4350 4950 3687 
Q 5500 3025 6175 2700 
Q 5975 2575 5800 2275 
Q 5100 2750 4637 3375 
Q 4175 4000 3950 4425 
Q 3725 3950 3387 3425 
Q 3050 2900 2325 2200 
Q 2175 2375 1950 2575 
Q 2350 2825 2650 3175 
Q 2950 3525 3200 3962 
Q 3450 4400 3575 4725 
Q 3700 5050 3750 5250 
Q 3975 5150 4275 5050 
L 4175 4850 
z
M 1600 3150 
Q 1575 2750 1575 2275 
L 1575 550 
Q 1950 825 2400 1300 
Q 2500 1075 2650 800 
Q 2250 475 1900 187 
Q 1550 -100 1250 -375 
Q 1150 -225 900 50 
Q 1100 250 1100 450 
L 1100 2700 
L 800 2700 
Q 550 2700 275 2675 
L 275 3175 
Q 550 3150 800 3150 
L 1600 3150 
z
M 975 5000 
Q 1550 4525 2125 4025 
Q 1950 3875 1750 3650 
Q 1325 4150 650 4650 
Q 825 4800 975 5000 
z
" transform="scale(0.015625)"/>
      <path id="SimHei-4e0d" d="M 5975 4450 
Q 5525 4475 5200 4475 
L 3725 4475 
Q 3550 4125 3300 3700 
L 3300 575 
Q 3300 75 3325 -550 
L 2775 -550 
Q 2800 50 2800 575 
L 2800 3025 
Q 2025 1950 700 1050 
Q 500 1350 325 1475 
Q 825 1700 1650 2437 
Q 2475 3175 3175 4475 
L 1525 4475 
Q 1050 4475 525 4450 
L 525 4950 
Q 1275 4925 1675 4925 
L 5175 4925 
Q 5500 4925 5975 4950 
L 5975 4450 
z
M 5450 1125 
Q 4975 1725 3750 2975 
Q 3950 3150 4075 3325 
Q 4675 2775 5100 2362 
Q 5525 1950 5900 1550 
Q 5650 1350 5450 1125 
z
" transform="scale(0.015625)"/>
      <path id="SimHei-540c" d="M 5825 4925 
Q 5775 4550 5775 3975 
L 5775 -50 
Q 5775 -400 5525 -487 
Q 5275 -575 4725 -625 
Q 4725 -400 4525 -50 
Q 4925 -50 5100 -12 
Q 5275 25 5275 200 
L 5275 4450 
L 1150 4450 
L 1150 -600 
L 575 -600 
Q 600 -250 625 200 
L 625 3975 
Q 625 4575 600 4925 
L 5825 4925 
z
M 4375 2550 
Q 4325 2275 4325 1700 
Q 4325 1150 4375 725 
L 2025 725 
Q 2050 1175 2050 1750 
Q 2050 2325 2025 2550 
L 4375 2550 
z
M 4100 3750 
Q 4600 3750 4825 3775 
L 4825 3275 
Q 4575 3300 4075 3300 
L 2450 3300 
Q 1850 3300 1600 3275 
L 1600 3775 
Q 1875 3750 2475 3750 
L 4100 3750 
z
M 3875 1150 
L 3875 2150 
L 2525 2150 
L 2525 1150 
L 3875 1150 
z
" transform="scale(0.015625)"/>
      <path id="SimHei-7684" d="M 2100 4975 
Q 1975 4750 1750 3950 
L 2875 3950 
Q 2850 3525 2850 2875 
L 2850 675 
Q 2850 300 2875 -400 
L 2375 -400 
L 2375 100 
L 1100 100 
L 1100 -450 
L 600 -450 
Q 625 350 625 550 
L 625 2850 
Q 625 3525 600 3950 
L 1325 3950 
Q 1450 4525 1525 5150 
Q 1875 5025 2100 4975 
z
M 5825 3075 
Q 5800 1550 5700 175 
Q 5650 -275 5225 -425 
Q 4800 -575 4275 -625 
Q 4250 -350 4050 -50 
Q 4550 -75 4837 -25 
Q 5125 25 5200 200 
Q 5275 375 5312 1225 
Q 5350 2075 5375 3600 
L 3925 3600 
Q 3725 3125 3350 2475 
Q 3175 2650 2925 2750 
Q 3150 3050 3350 3475 
Q 3550 3900 3700 4400 
Q 3850 4900 3875 5175 
Q 4225 5025 4475 4950 
Q 4350 4750 4262 4512 
Q 4175 4275 4075 4050 
L 5850 4050 
Q 5825 3525 5825 3075 
z
M 2375 525 
L 2375 1850 
L 1100 1850 
L 1100 525 
L 2375 525 
z
M 2375 2275 
L 2375 3525 
L 1100 3525 
L 1100 2275 
L 2375 2275 
z
M 4350 2050 
Q 4500 1750 4700 1275 
Q 4525 1200 4225 1025 
Q 4050 1500 3900 1837 
Q 3750 2175 3600 2400 
Q 3775 2500 4050 2650 
L 4350 2050 
z
" transform="scale(0.015625)"/>
      <path id="SimHei-5bf9" d="M 525 4250 
Q 900 4225 1400 4225 
L 2825 4225 
Q 2575 2625 2200 1750 
Q 2825 875 3125 400 
Q 2950 275 2725 75 
Q 2200 975 1950 1300 
Q 1650 775 1350 425 
Q 1050 75 600 -350 
Q 425 -125 200 -25 
Q 625 275 975 675 
Q 1325 1075 1650 1700 
Q 1050 2425 550 2900 
Q 700 3025 900 3225 
Q 1625 2425 1875 2150 
Q 2200 3050 2300 3825 
L 1400 3825 
Q 900 3825 525 3800 
L 525 4250 
z
M 2925 3700 
Q 3525 3675 3750 3675 
L 4825 3675 
L 4825 4425 
Q 4825 4750 4775 5125 
L 5350 5125 
Q 5325 4825 5325 4375 
L 5325 3675 
Q 5575 3675 6150 3700 
L 6150 3250 
Q 5575 3275 5325 3275 
L 5325 125 
Q 5350 -350 5012 -475 
Q 4675 -600 4250 -650 
Q 4175 -350 4025 -100 
Q 4575 -100 4712 -37 
Q 4850 25 4825 325 
L 4825 3275 
L 3775 3275 
Q 3550 3275 2925 3225 
L 2925 3700 
z
M 3450 2725 
Q 3875 1975 4175 1325 
Q 3850 1200 3700 1075 
Q 3475 1750 3050 2475 
Q 3225 2550 3450 2725 
z
" transform="scale(0.015625)"/>
      <path id="SimHei-7a33" d="M 4050 5125 
Q 3875 4975 3675 4625 
L 5325 4625 
Q 5200 4450 5062 4212 
Q 4925 3975 4800 3650 
L 5625 3650 
Q 5600 3350 5600 2600 
Q 5600 1875 5625 1425 
L 3425 1425 
Q 3075 1425 2750 1400 
L 2750 1850 
Q 3075 1825 3450 1825 
L 5100 1825 
L 5100 2375 
L 3550 2375 
Q 3175 2375 2875 2350 
L 2875 2775 
Q 3175 2750 3525 2750 
L 5100 2750 
L 5100 3275 
L 3775 3275 
Q 3350 3275 3050 3250 
L 3050 3650 
Q 2875 3425 2725 3200 
Q 2525 3400 2350 3475 
Q 2675 3875 2987 4412 
Q 3300 4950 3400 5300 
Q 3725 5200 4050 5125 
z
M 2500 4575 
Q 2275 4575 2012 4512 
Q 1750 4450 1625 4450 
L 1625 3350 
Q 1975 3350 2375 3375 
L 2375 2950 
Q 1925 2975 1625 2975 
L 1625 2225 
Q 1775 2325 1950 2500 
Q 2225 2100 2525 1600 
Q 2300 1500 2150 1350 
Q 1950 1725 1625 2175 
L 1625 400 
Q 1625 25 1650 -625 
L 1150 -625 
Q 1200 25 1200 400 
L 1200 2075 
Q 875 1250 475 650 
Q 375 925 175 1125 
Q 325 1250 650 1887 
Q 975 2525 1050 2975 
Q 750 2975 275 2950 
L 275 3375 
Q 750 3350 1200 3350 
L 1200 4325 
Q 950 4275 550 4200 
Q 475 4425 275 4625 
Q 750 4675 1237 4775 
Q 1725 4875 2125 5075 
Q 2275 4775 2500 4575 
z
M 3675 1025 
Q 3650 700 3650 300 
Q 3650 -75 3775 -100 
Q 3900 -125 4250 -125 
Q 4600 -125 4687 -100 
Q 4775 -75 4825 425 
Q 5025 275 5350 200 
Q 5150 -450 4950 -500 
Q 4750 -550 4175 -550 
Q 3625 -550 3425 -487 
Q 3225 -425 3225 -100 
L 3225 525 
Q 3225 775 3200 1025 
L 3675 1025 
z
M 3050 3675 
Q 3325 3650 3775 3650 
L 4275 3650 
Q 4450 4000 4575 4275 
L 3425 4275 
Q 3275 4050 3050 3675 
z
M 2925 900 
Q 2800 725 2700 287 
Q 2600 -150 2550 -300 
Q 2325 -200 2075 -175 
Q 2225 200 2275 412 
Q 2325 625 2425 1000 
L 2925 900 
z
M 5575 1100 
Q 5950 475 6175 50 
Q 5950 -25 5750 -175 
Q 5625 175 5200 925 
Q 5425 975 5575 1100 
z
M 4225 1300 
Q 4525 825 4625 525 
Q 4550 500 4250 350 
Q 4150 700 3850 1125 
Q 4050 1200 4225 1300 
z
" transform="scale(0.015625)"/>
      <path id="SimHei-5b9a" d="M 4200 3125 
Q 4675 3125 5175 3150 
L 5175 2675 
Q 4725 2700 4100 2700 
L 3550 2700 
L 3550 1700 
L 4600 1700 
Q 4875 1700 5375 1725 
L 5375 1250 
Q 4875 1275 4575 1275 
L 3550 1275 
L 3550 100 
Q 4600 -25 6050 125 
Q 5850 -200 5800 -475 
Q 4800 -475 4150 -450 
Q 3500 -425 3050 -300 
Q 2600 -175 2250 75 
Q 1900 325 1600 675 
Q 1200 -50 675 -575 
Q 450 -350 175 -250 
Q 875 300 1200 1050 
Q 1525 1800 1550 2200 
Q 1800 2050 2150 1975 
Q 2075 1875 1987 1662 
Q 1900 1450 1775 1125 
Q 1950 900 2300 612 
Q 2650 325 3050 200 
L 3050 2700 
L 2250 2700 
Q 1825 2700 1400 2675 
L 1400 3150 
Q 1825 3125 2400 3125 
L 4200 3125 
z
M 5750 4275 
Q 5725 3925 5725 3750 
Q 5725 3575 5750 3275 
L 5225 3275 
L 5225 3875 
L 1225 3875 
L 1225 3275 
L 700 3275 
Q 725 3475 725 3725 
Q 725 3975 700 4275 
L 5750 4275 
z
M 2650 5050 
Q 2875 5125 3100 5300 
Q 3375 4975 3600 4550 
Q 3250 4400 3100 4300 
Q 3050 4525 2650 5050 
z
" transform="scale(0.015625)"/>
      <path id="SimHei-6027" d="M 3450 4525 
Q 3325 4075 3275 3750 
L 4050 3750 
L 4050 4275 
Q 4050 4700 4025 5100 
L 4550 5100 
Q 4525 4700 4525 4275 
L 4525 3750 
L 5025 3750 
Q 5350 3750 5800 3775 
L 5800 3300 
Q 5350 3325 5025 3325 
L 4525 3325 
L 4525 2000 
L 4975 2000 
Q 5350 2000 5725 2025 
L 5725 1550 
Q 5350 1575 4975 1575 
L 4525 1575 
L 4525 25 
L 5200 25 
Q 5625 25 6025 50 
L 6025 -400 
Q 5625 -375 5200 -375 
L 3275 -375 
Q 2825 -375 2400 -400 
L 2400 50 
Q 2825 25 3250 25 
L 4050 25 
L 4050 1575 
L 3625 1575 
Q 3300 1575 2875 1550 
L 2875 2025 
Q 3200 2000 3625 2000 
L 4050 2000 
L 4050 3325 
L 3175 3325 
Q 3100 2950 2775 2225 
Q 2500 2375 2325 2400 
Q 2675 3125 2775 3650 
Q 2875 4175 2950 4650 
Q 3200 4575 3450 4525 
z
M 1700 5150 
Q 1675 4650 1675 4175 
L 1675 425 
Q 1675 -100 1700 -625 
L 1175 -625 
Q 1200 -100 1200 425 
L 1200 4175 
Q 1200 4700 1175 5150 
L 1700 5150 
z
M 975 3725 
Q 825 2675 700 2150 
Q 450 2200 250 2250 
Q 425 2900 525 3800 
Q 725 3775 975 3725 
z
M 2125 4025 
Q 2325 3625 2525 3000 
Q 2300 2925 2125 2825 
Q 1950 3375 1750 3850 
Q 1950 3950 2125 4025 
z
" transform="scale(0.015625)"/>
      <path id="SimHei-5f71" d="M 3550 5025 
Q 3500 4625 3512 4187 
Q 3525 3750 3550 3325 
L 775 3325 
Q 800 3750 787 4187 
Q 775 4625 775 5025 
L 3550 5025 
z
M 1450 -100 
Q 2050 -75 1975 200 
L 1975 1100 
L 775 1100 
Q 800 1375 787 1650 
Q 775 1925 775 2225 
L 3550 2225 
Q 3525 1925 3512 1650 
Q 3500 1375 3550 1100 
L 2475 1100 
L 2475 175 
Q 2500 -250 2300 -375 
Q 2100 -500 1625 -600 
Q 1575 -325 1450 -100 
z
M 2375 3250 
Q 2400 3075 2425 2875 
L 3175 2875 
Q 3600 2875 4050 2900 
L 4050 2475 
Q 3600 2500 3175 2500 
L 1200 2500 
Q 700 2500 275 2475 
L 275 2900 
Q 700 2875 1200 2875 
L 1900 2875 
Q 1875 3025 1850 3200 
Q 2100 3250 2375 3250 
z
M 6150 1350 
Q 5675 775 5000 225 
Q 4325 -325 3725 -650 
Q 3575 -400 3400 -250 
Q 3975 25 4600 500 
Q 5225 975 5775 1725 
Q 5950 1525 6150 1350 
z
M 5925 3125 
Q 5625 2850 5212 2362 
Q 4800 1875 4200 1425 
Q 4025 1625 3800 1725 
Q 4375 2050 4787 2525 
Q 5200 3000 5525 3500 
Q 5675 3325 5925 3125 
z
M 5725 4825 
Q 5325 4550 5037 4162 
Q 4750 3775 4175 3275 
Q 3975 3450 3800 3550 
Q 4175 3825 4550 4237 
Q 4925 4650 5225 5175 
Q 5425 5000 5725 4825 
z
M 3075 1475 
L 3075 1850 
L 1250 1850 
L 1250 1475 
L 3075 1475 
z
M 3075 3700 
L 3075 4000 
L 1250 4000 
L 1250 3700 
L 3075 3700 
z
M 3075 4375 
L 3075 4675 
L 1250 4675 
L 1250 4375 
L 3075 4375 
z
M 1500 500 
Q 1075 75 575 -325 
Q 475 -175 275 -25 
Q 700 250 1125 825 
Q 1300 625 1500 500 
z
M 3250 -50 
Q 3050 275 2750 550 
Q 2900 700 3075 850 
Q 3400 525 3600 250 
L 3250 -50 
z
" transform="scale(0.015625)"/>
      <path id="SimHei-54cd" d="M 4150 5125 
Q 4000 4975 3850 4325 
L 5875 4325 
Q 5850 3800 5850 3325 
L 5850 50 
Q 5825 -225 5625 -350 
Q 5425 -475 4850 -550 
Q 4850 -325 4600 25 
Q 5125 25 5237 62 
Q 5350 100 5350 225 
L 5350 3950 
L 2950 3950 
L 2950 -575 
L 2450 -575 
Q 2475 -75 2475 450 
L 2475 3125 
Q 2475 3750 2450 4325 
L 3350 4325 
Q 3475 4775 3525 5250 
Q 3950 5150 4150 5125 
z
M 4875 900 
L 3425 900 
L 3425 3100 
L 4875 3100 
L 4875 900 
z
M 4450 1275 
L 4450 2700 
L 3875 2700 
L 3875 1275 
L 4450 1275 
z
M 2075 4500 
Q 2050 3975 2050 3425 
L 2050 1750 
Q 2050 1250 2075 600 
L 1650 600 
L 1650 1050 
L 950 1050 
L 950 275 
L 500 275 
Q 525 750 525 1275 
L 525 3425 
Q 525 3975 500 4500 
L 2075 4500 
z
M 1650 1400 
L 1650 4125 
L 950 4125 
L 950 1400 
L 1650 1400 
z
" transform="scale(0.015625)"/>
     </defs>
     <use xlink:href="#SimHei-8ba8"/>
     <use xlink:href="#SimHei-8bba" x="100"/>
     <use xlink:href="#SimHei-4e0d" x="200"/>
     <use xlink:href="#SimHei-540c" x="300"/>
     <use xlink:href="#SimHei-957f" x="400"/>
     <use xlink:href="#SimHei-5ea6" x="500"/>
     <use xlink:href="#SimHei-7684" x="600"/>
     <use xlink:href="#SimHei-5e8f" x="700"/>
     <use xlink:href="#SimHei-5217" x="800"/>
     <use xlink:href="#SimHei-5bf9" x="900"/>
     <use xlink:href="#SimHei-4e0d" x="1000"/>
     <use xlink:href="#SimHei-7a33" x="1100"/>
     <use xlink:href="#SimHei-5b9a" x="1200"/>
     <use xlink:href="#SimHei-6027" x="1300"/>
     <use xlink:href="#SimHei-7684" x="1400"/>
     <use xlink:href="#SimHei-5f71" x="1500"/>
     <use xlink:href="#SimHei-54cd" x="1600"/>
    </g>
   </g>
   <g id="legend_1">
    <g id="patch_7">
     <path d="M 309.7 114.096875 
L 406.7 114.096875 
Q 408.7 114.096875 408.7 112.096875 
L 408.7 33.440625 
Q 408.7 31.440625 406.7 31.440625 
L 309.7 31.440625 
Q 307.7 31.440625 307.7 33.440625 
L 307.7 112.096875 
Q 307.7 114.096875 309.7 114.096875 
z
" style="fill: #ffffff; opacity: 0.8; stroke: #cccccc; stroke-linejoin: miter"/>
    </g>
    <g id="line2d_20">
     <path d="M 311.7 38.940625 
L 321.7 38.940625 
L 331.7 38.940625 
" style="fill: none; stroke: #1f77b4; stroke-width: 2; stroke-linecap: square"/>
    </g>
    <g id="text_17">
     <!-- EU -->
     <g transform="translate(339.7 42.440625)scale(0.1 -0.1)">
      <defs>
       <path id="SimHei-45" d="M 2900 125 
L 350 125 
L 350 4400 
L 2775 4400 
L 2775 3925 
L 925 3925 
L 925 2600 
L 2625 2600 
L 2625 2125 
L 925 2125 
L 925 600 
L 2900 600 
L 2900 125 
z
" transform="scale(0.015625)"/>
       <path id="SimHei-55" d="M 2875 1375 
Q 2875 775 2562 425 
Q 2250 75 1575 75 
Q 900 75 587 425 
Q 275 775 275 1375 
L 275 4400 
L 850 4400 
L 850 1375 
Q 850 950 1050 750 
Q 1250 550 1575 550 
Q 1900 550 2100 750 
Q 2300 950 2300 1375 
L 2300 4400 
L 2875 4400 
L 2875 1375 
z
" transform="scale(0.015625)"/>
      </defs>
      <use xlink:href="#SimHei-45"/>
      <use xlink:href="#SimHei-55" x="50"/>
     </g>
    </g>
    <g id="line2d_21">
     <path d="M 311.7 52.190625 
L 321.7 52.190625 
L 331.7 52.190625 
" style="fill: none; stroke: #ff7f0e; stroke-width: 3; stroke-linecap: square"/>
    </g>
    <g id="text_18">
     <!-- VGaDis -->
     <g transform="translate(339.7 55.690625)scale(0.1 -0.1)">
      <defs>
       <path id="SimHei-56" d="M 3050 4400 
L 1800 75 
L 1300 75 
L 50 4400 
L 650 4400 
L 1525 1125 
L 1575 1125 
L 2450 4400 
L 3050 4400 
z
" transform="scale(0.015625)"/>
       <path id="SimHei-47" d="M 2850 75 
L 2425 75 
L 2350 425 
Q 2250 275 2037 175 
Q 1825 75 1575 75 
Q 1050 75 637 562 
Q 225 1050 225 2125 
Q 225 3300 600 3875 
Q 975 4450 1625 4450 
Q 2200 4450 2525 4025 
Q 2850 3600 2850 2925 
L 2300 2925 
Q 2300 3450 2125 3712 
Q 1950 3975 1625 3975 
Q 1225 3975 1025 3562 
Q 825 3150 825 2175 
Q 825 1250 1075 900 
Q 1325 550 1650 550 
Q 1975 550 2162 787 
Q 2350 1025 2350 1525 
L 2350 1800 
L 1575 1800 
L 1575 2275 
L 2850 2275 
L 2850 75 
z
" transform="scale(0.015625)"/>
       <path id="SimHei-44" d="M 2925 2250 
Q 2925 1100 2437 612 
Q 1950 125 1125 125 
L 275 125 
L 275 4400 
L 1125 4400 
Q 2050 4400 2487 3900 
Q 2925 3400 2925 2250 
z
M 2325 2250 
Q 2325 3175 2025 3550 
Q 1725 3925 1125 3925 
L 850 3925 
L 850 600 
L 1125 600 
Q 1725 600 2025 962 
Q 2325 1325 2325 2250 
z
" transform="scale(0.015625)"/>
      </defs>
      <use xlink:href="#SimHei-56"/>
      <use xlink:href="#SimHei-47" x="50"/>
      <use xlink:href="#SimHei-61" x="100"/>
      <use xlink:href="#SimHei-44" x="150"/>
      <use xlink:href="#SimHei-69" x="200"/>
      <use xlink:href="#SimHei-73" x="250"/>
     </g>
    </g>
    <g id="line2d_22">
     <path d="M 311.7 65.440625 
L 321.7 65.440625 
L 331.7 65.440625 
" style="fill: none; stroke: #2ca02c; stroke-width: 2; stroke-linecap: square"/>
    </g>
    <g id="text_19">
     <!-- Manhattan -->
     <g transform="translate(339.7 68.940625)scale(0.1 -0.1)">
      <defs>
       <path id="SimHei-4d" d="M 2925 125 
L 2425 125 
L 2425 3175 
L 2375 3175 
L 1775 125 
L 1375 125 
L 775 3175 
L 725 3175 
L 725 125 
L 225 125 
L 225 4400 
L 1000 4400 
L 1550 1575 
L 1600 1575 
L 2150 4400 
L 2925 4400 
L 2925 125 
z
" transform="scale(0.015625)"/>
       <path id="SimHei-6e" d="M 2800 125 
L 2300 125 
L 2300 1925 
Q 2300 2225 2150 2400 
Q 2000 2575 1750 2575 
Q 1425 2575 1137 2237 
Q 850 1900 850 1400 
L 850 125 
L 350 125 
L 350 2925 
L 850 2925 
L 850 2400 
Q 1050 2675 1287 2825 
Q 1525 2975 1900 2975 
Q 2350 2975 2575 2725 
Q 2800 2475 2800 2100 
L 2800 125 
z
" transform="scale(0.015625)"/>
       <path id="SimHei-68" d="M 2800 125 
L 2300 125 
L 2300 1925 
Q 2300 2225 2150 2400 
Q 2000 2575 1750 2575 
Q 1425 2575 1137 2237 
Q 850 1900 850 1400 
L 850 125 
L 350 125 
L 350 4400 
L 850 4400 
L 850 2400 
Q 1050 2675 1287 2825 
Q 1525 2975 1900 2975 
Q 2350 2975 2575 2725 
Q 2800 2475 2800 2100 
L 2800 125 
z
" transform="scale(0.015625)"/>
       <path id="SimHei-74" d="M 2750 200 
Q 2625 150 2462 112 
Q 2300 75 2025 75 
Q 1575 75 1300 325 
Q 1025 575 1025 1025 
L 1025 2525 
L 175 2525 
L 175 2925 
L 1025 2925 
L 1025 3900 
L 1525 3900 
L 1525 2925 
L 2550 2925 
L 2550 2525 
L 1525 2525 
L 1525 1000 
Q 1525 800 1625 662 
Q 1725 525 2000 525 
Q 2275 525 2450 575 
Q 2625 625 2750 700 
L 2750 200 
z
" transform="scale(0.015625)"/>
      </defs>
      <use xlink:href="#SimHei-4d"/>
      <use xlink:href="#SimHei-61" x="50"/>
      <use xlink:href="#SimHei-6e" x="100"/>
      <use xlink:href="#SimHei-68" x="150"/>
      <use xlink:href="#SimHei-61" x="200"/>
      <use xlink:href="#SimHei-74" x="250"/>
      <use xlink:href="#SimHei-74" x="300"/>
      <use xlink:href="#SimHei-61" x="350"/>
      <use xlink:href="#SimHei-6e" x="400"/>
     </g>
    </g>
    <g id="line2d_23">
     <path d="M 311.7 78.690625 
L 321.7 78.690625 
L 331.7 78.690625 
" style="fill: none; stroke: #d62728; stroke-width: 2; stroke-linecap: square"/>
    </g>
    <g id="text_20">
     <!-- VGdDis -->
     <g transform="translate(339.7 82.190625)scale(0.1 -0.1)">
      <use xlink:href="#SimHei-56"/>
      <use xlink:href="#SimHei-47" x="50"/>
      <use xlink:href="#SimHei-64" x="100"/>
      <use xlink:href="#SimHei-44" x="150"/>
      <use xlink:href="#SimHei-69" x="200"/>
      <use xlink:href="#SimHei-73" x="250"/>
     </g>
    </g>
    <g id="line2d_24">
     <path d="M 311.7 91.940625 
L 321.7 91.940625 
L 331.7 91.940625 
" style="fill: none; stroke: #9467bd; stroke-width: 2; stroke-linecap: square"/>
    </g>
    <g id="text_21">
     <!-- dtw_Manhattan -->
     <g transform="translate(339.7 95.440625)scale(0.1 -0.1)">
      <defs>
       <path id="SimHei-77" d="M 3075 2925 
L 2450 75 
L 1975 75 
L 1575 2250 
L 1525 2250 
L 1125 75 
L 650 75 
L 25 2925 
L 550 2925 
L 875 1050 
L 925 1050 
L 1275 2925 
L 1825 2925 
L 2175 1050 
L 2225 1050 
L 2550 2925 
L 3075 2925 
z
" transform="scale(0.015625)"/>
       <path id="SimHei-5f" d="M 3150 -850 
L 0 -850 
L 0 -550 
L 3150 -550 
L 3150 -850 
z
" transform="scale(0.015625)"/>
      </defs>
      <use xlink:href="#SimHei-64"/>
      <use xlink:href="#SimHei-74" x="50"/>
      <use xlink:href="#SimHei-77" x="100"/>
      <use xlink:href="#SimHei-5f" x="150"/>
      <use xlink:href="#SimHei-4d" x="200"/>
      <use xlink:href="#SimHei-61" x="250"/>
      <use xlink:href="#SimHei-6e" x="300"/>
      <use xlink:href="#SimHei-68" x="350"/>
      <use xlink:href="#SimHei-61" x="400"/>
      <use xlink:href="#SimHei-74" x="450"/>
      <use xlink:href="#SimHei-74" x="500"/>
      <use xlink:href="#SimHei-61" x="550"/>
      <use xlink:href="#SimHei-6e" x="600"/>
     </g>
    </g>
    <g id="line2d_25">
     <path d="M 311.7 105.26875 
L 321.7 105.26875 
L 331.7 105.26875 
" style="fill: none; stroke: #8c564b; stroke-width: 2; stroke-linecap: square"/>
    </g>
    <g id="text_22">
     <!-- dtw_EU -->
     <g transform="translate(339.7 108.76875)scale(0.1 -0.1)">
      <use xlink:href="#SimHei-64"/>
      <use xlink:href="#SimHei-74" x="50"/>
      <use xlink:href="#SimHei-77" x="100"/>
      <use xlink:href="#SimHei-5f" x="150"/>
      <use xlink:href="#SimHei-45" x="200"/>
      <use xlink:href="#SimHei-55" x="250"/>
     </g>
    </g>
   </g>
  </g>
 </g>
 <defs>
  <clipPath id="pe2664364a9">
   <rect x="51.190625" y="26.440625" width="362.509375" height="222.4625"/>
  </clipPath>
 </defs>
</svg>
